%TF.GenerationSoftware,KiCad,Pcbnew,9.0.7-9.0.7~ubuntu22.04.1*%
%TF.CreationDate,2026-02-16T00:19:48-07:00*%
%TF.ProjectId,ESP32-S3-MINI-1_UU,45535033-322d-4533-932d-4d494e492d31,rev?*%
%TF.SameCoordinates,Original*%
%TF.FileFunction,Legend,Top*%
%TF.FilePolarity,Positive*%
%FSLAX46Y46*%
G04 Gerber Fmt 4.6, Leading zero omitted, Abs format (unit mm)*
G04 Created by KiCad (PCBNEW 9.0.7-9.0.7~ubuntu22.04.1) date 2026-02-16 00:19:48*
%MOMM*%
%LPD*%
G01*
G04 APERTURE LIST*
%ADD10C,0.100000*%
%ADD11C,0.200000*%
%ADD12C,0.120000*%
%ADD13C,0.127000*%
%ADD14C,0.250000*%
%ADD15C,0.254000*%
%ADD16C,0.203200*%
G04 APERTURE END LIST*
D10*
X188700000Y-131000000D02*
X186400000Y-131000000D01*
X178400000Y-128800000D02*
X175800000Y-128800000D01*
X186450000Y-139700000D02*
X188750000Y-139700000D01*
X178400000Y-131200000D02*
X178400000Y-128800000D01*
X186400000Y-128800000D02*
X188700000Y-128800000D01*
X175850000Y-146300000D02*
X179550000Y-146300000D01*
X175950000Y-139800000D02*
X178250000Y-139800000D01*
X186450000Y-142800000D02*
X188750000Y-142800000D01*
X188900000Y-131800000D02*
X188900000Y-151300000D01*
X186400000Y-131000000D02*
X186400000Y-128800000D01*
X175800000Y-128800000D02*
X175800000Y-131200000D01*
X175650000Y-131800000D02*
X175650000Y-151300000D01*
X188700000Y-128800000D02*
X188700000Y-131000000D01*
X175800000Y-131200000D02*
X178400000Y-131200000D01*
X173666390Y-147246741D02*
X173666390Y-146961027D01*
X173666390Y-147103884D02*
X174166390Y-147103884D01*
X174166390Y-147103884D02*
X174094961Y-147056265D01*
X174094961Y-147056265D02*
X174047342Y-147008646D01*
X174047342Y-147008646D02*
X174023533Y-146961027D01*
X173999723Y-147675312D02*
X173666390Y-147675312D01*
X174190200Y-147556264D02*
X173833057Y-147437217D01*
X173833057Y-147437217D02*
X173833057Y-147746740D01*
X191233609Y-127515163D02*
X190733609Y-127515163D01*
X190733609Y-127515163D02*
X191090752Y-127348496D01*
X191090752Y-127348496D02*
X190733609Y-127181830D01*
X190733609Y-127181830D02*
X191233609Y-127181830D01*
X190733609Y-127015162D02*
X190733609Y-126729448D01*
X191233609Y-126872305D02*
X190733609Y-126872305D01*
X191233609Y-126562782D02*
X190733609Y-126562782D01*
X190733609Y-126562782D02*
X190733609Y-126443734D01*
X190733609Y-126443734D02*
X190757419Y-126372306D01*
X190757419Y-126372306D02*
X190805038Y-126324687D01*
X190805038Y-126324687D02*
X190852657Y-126300877D01*
X190852657Y-126300877D02*
X190947895Y-126277068D01*
X190947895Y-126277068D02*
X191019323Y-126277068D01*
X191019323Y-126277068D02*
X191114561Y-126300877D01*
X191114561Y-126300877D02*
X191162180Y-126324687D01*
X191162180Y-126324687D02*
X191209800Y-126372306D01*
X191209800Y-126372306D02*
X191233609Y-126443734D01*
X191233609Y-126443734D02*
X191233609Y-126562782D01*
X191233609Y-126062782D02*
X190733609Y-126062782D01*
X173918771Y-121761027D02*
X173942580Y-121784836D01*
X173942580Y-121784836D02*
X173966390Y-121832455D01*
X173966390Y-121832455D02*
X173966390Y-121951503D01*
X173966390Y-121951503D02*
X173942580Y-121999122D01*
X173942580Y-121999122D02*
X173918771Y-122022931D01*
X173918771Y-122022931D02*
X173871152Y-122046741D01*
X173871152Y-122046741D02*
X173823533Y-122046741D01*
X173823533Y-122046741D02*
X173752104Y-122022931D01*
X173752104Y-122022931D02*
X173466390Y-121737217D01*
X173466390Y-121737217D02*
X173466390Y-122046741D01*
X173966390Y-134337217D02*
X173966390Y-134670550D01*
X173966390Y-134670550D02*
X173466390Y-134456265D01*
X190733609Y-142462782D02*
X190733609Y-142153258D01*
X190733609Y-142153258D02*
X190924085Y-142319925D01*
X190924085Y-142319925D02*
X190924085Y-142248496D01*
X190924085Y-142248496D02*
X190947895Y-142200877D01*
X190947895Y-142200877D02*
X190971704Y-142177068D01*
X190971704Y-142177068D02*
X191019323Y-142153258D01*
X191019323Y-142153258D02*
X191138371Y-142153258D01*
X191138371Y-142153258D02*
X191185990Y-142177068D01*
X191185990Y-142177068D02*
X191209800Y-142200877D01*
X191209800Y-142200877D02*
X191233609Y-142248496D01*
X191233609Y-142248496D02*
X191233609Y-142391353D01*
X191233609Y-142391353D02*
X191209800Y-142438972D01*
X191209800Y-142438972D02*
X191185990Y-142462782D01*
X190733609Y-141700878D02*
X190733609Y-141938973D01*
X190733609Y-141938973D02*
X190971704Y-141962782D01*
X190971704Y-141962782D02*
X190947895Y-141938973D01*
X190947895Y-141938973D02*
X190924085Y-141891354D01*
X190924085Y-141891354D02*
X190924085Y-141772306D01*
X190924085Y-141772306D02*
X190947895Y-141724687D01*
X190947895Y-141724687D02*
X190971704Y-141700878D01*
X190971704Y-141700878D02*
X191019323Y-141677068D01*
X191019323Y-141677068D02*
X191138371Y-141677068D01*
X191138371Y-141677068D02*
X191185990Y-141700878D01*
X191185990Y-141700878D02*
X191209800Y-141724687D01*
X191209800Y-141724687D02*
X191233609Y-141772306D01*
X191233609Y-141772306D02*
X191233609Y-141891354D01*
X191233609Y-141891354D02*
X191209800Y-141938973D01*
X191209800Y-141938973D02*
X191185990Y-141962782D01*
X173566390Y-139446741D02*
X173566390Y-139161027D01*
X173566390Y-139303884D02*
X174066390Y-139303884D01*
X174066390Y-139303884D02*
X173994961Y-139256265D01*
X173994961Y-139256265D02*
X173947342Y-139208646D01*
X173947342Y-139208646D02*
X173923533Y-139161027D01*
X173566390Y-139922931D02*
X173566390Y-139637217D01*
X173566390Y-139780074D02*
X174066390Y-139780074D01*
X174066390Y-139780074D02*
X173994961Y-139732455D01*
X173994961Y-139732455D02*
X173947342Y-139684836D01*
X173947342Y-139684836D02*
X173923533Y-139637217D01*
X173566390Y-152146741D02*
X173566390Y-151861027D01*
X173566390Y-152003884D02*
X174066390Y-152003884D01*
X174066390Y-152003884D02*
X173994961Y-151956265D01*
X173994961Y-151956265D02*
X173947342Y-151908646D01*
X173947342Y-151908646D02*
X173923533Y-151861027D01*
X174066390Y-152575312D02*
X174066390Y-152480074D01*
X174066390Y-152480074D02*
X174042580Y-152432455D01*
X174042580Y-152432455D02*
X174018771Y-152408645D01*
X174018771Y-152408645D02*
X173947342Y-152361026D01*
X173947342Y-152361026D02*
X173852104Y-152337217D01*
X173852104Y-152337217D02*
X173661628Y-152337217D01*
X173661628Y-152337217D02*
X173614009Y-152361026D01*
X173614009Y-152361026D02*
X173590200Y-152384836D01*
X173590200Y-152384836D02*
X173566390Y-152432455D01*
X173566390Y-152432455D02*
X173566390Y-152527693D01*
X173566390Y-152527693D02*
X173590200Y-152575312D01*
X173590200Y-152575312D02*
X173614009Y-152599121D01*
X173614009Y-152599121D02*
X173661628Y-152622931D01*
X173661628Y-152622931D02*
X173780676Y-152622931D01*
X173780676Y-152622931D02*
X173828295Y-152599121D01*
X173828295Y-152599121D02*
X173852104Y-152575312D01*
X173852104Y-152575312D02*
X173875914Y-152527693D01*
X173875914Y-152527693D02*
X173875914Y-152432455D01*
X173875914Y-152432455D02*
X173852104Y-152384836D01*
X173852104Y-152384836D02*
X173828295Y-152361026D01*
X173828295Y-152361026D02*
X173780676Y-152337217D01*
X173966390Y-129422931D02*
X173966390Y-129184836D01*
X173966390Y-129184836D02*
X173728295Y-129161027D01*
X173728295Y-129161027D02*
X173752104Y-129184836D01*
X173752104Y-129184836D02*
X173775914Y-129232455D01*
X173775914Y-129232455D02*
X173775914Y-129351503D01*
X173775914Y-129351503D02*
X173752104Y-129399122D01*
X173752104Y-129399122D02*
X173728295Y-129422931D01*
X173728295Y-129422931D02*
X173680676Y-129446741D01*
X173680676Y-129446741D02*
X173561628Y-129446741D01*
X173561628Y-129446741D02*
X173514009Y-129422931D01*
X173514009Y-129422931D02*
X173490200Y-129399122D01*
X173490200Y-129399122D02*
X173466390Y-129351503D01*
X173466390Y-129351503D02*
X173466390Y-129232455D01*
X173466390Y-129232455D02*
X173490200Y-129184836D01*
X173490200Y-129184836D02*
X173514009Y-129161027D01*
X174866390Y-134970550D02*
X175104485Y-134803884D01*
X174866390Y-134684836D02*
X175366390Y-134684836D01*
X175366390Y-134684836D02*
X175366390Y-134875312D01*
X175366390Y-134875312D02*
X175342580Y-134922931D01*
X175342580Y-134922931D02*
X175318771Y-134946741D01*
X175318771Y-134946741D02*
X175271152Y-134970550D01*
X175271152Y-134970550D02*
X175199723Y-134970550D01*
X175199723Y-134970550D02*
X175152104Y-134946741D01*
X175152104Y-134946741D02*
X175128295Y-134922931D01*
X175128295Y-134922931D02*
X175104485Y-134875312D01*
X175104485Y-134875312D02*
X175104485Y-134684836D01*
X175128295Y-135184836D02*
X175128295Y-135351503D01*
X174866390Y-135422931D02*
X174866390Y-135184836D01*
X174866390Y-135184836D02*
X175366390Y-135184836D01*
X175366390Y-135184836D02*
X175366390Y-135422931D01*
X174890200Y-135613408D02*
X174866390Y-135684836D01*
X174866390Y-135684836D02*
X174866390Y-135803884D01*
X174866390Y-135803884D02*
X174890200Y-135851503D01*
X174890200Y-135851503D02*
X174914009Y-135875312D01*
X174914009Y-135875312D02*
X174961628Y-135899122D01*
X174961628Y-135899122D02*
X175009247Y-135899122D01*
X175009247Y-135899122D02*
X175056866Y-135875312D01*
X175056866Y-135875312D02*
X175080676Y-135851503D01*
X175080676Y-135851503D02*
X175104485Y-135803884D01*
X175104485Y-135803884D02*
X175128295Y-135708646D01*
X175128295Y-135708646D02*
X175152104Y-135661027D01*
X175152104Y-135661027D02*
X175175914Y-135637217D01*
X175175914Y-135637217D02*
X175223533Y-135613408D01*
X175223533Y-135613408D02*
X175271152Y-135613408D01*
X175271152Y-135613408D02*
X175318771Y-135637217D01*
X175318771Y-135637217D02*
X175342580Y-135661027D01*
X175342580Y-135661027D02*
X175366390Y-135708646D01*
X175366390Y-135708646D02*
X175366390Y-135827693D01*
X175366390Y-135827693D02*
X175342580Y-135899122D01*
X175128295Y-136113407D02*
X175128295Y-136280074D01*
X174866390Y-136351502D02*
X174866390Y-136113407D01*
X174866390Y-136113407D02*
X175366390Y-136113407D01*
X175366390Y-136113407D02*
X175366390Y-136351502D01*
X175366390Y-136494360D02*
X175366390Y-136780074D01*
X174866390Y-136637217D02*
X175366390Y-136637217D01*
X190781228Y-152638972D02*
X190757419Y-152615163D01*
X190757419Y-152615163D02*
X190733609Y-152567544D01*
X190733609Y-152567544D02*
X190733609Y-152448496D01*
X190733609Y-152448496D02*
X190757419Y-152400877D01*
X190757419Y-152400877D02*
X190781228Y-152377068D01*
X190781228Y-152377068D02*
X190828847Y-152353258D01*
X190828847Y-152353258D02*
X190876466Y-152353258D01*
X190876466Y-152353258D02*
X190947895Y-152377068D01*
X190947895Y-152377068D02*
X191233609Y-152662782D01*
X191233609Y-152662782D02*
X191233609Y-152353258D01*
X190733609Y-151924687D02*
X190733609Y-152019925D01*
X190733609Y-152019925D02*
X190757419Y-152067544D01*
X190757419Y-152067544D02*
X190781228Y-152091354D01*
X190781228Y-152091354D02*
X190852657Y-152138973D01*
X190852657Y-152138973D02*
X190947895Y-152162782D01*
X190947895Y-152162782D02*
X191138371Y-152162782D01*
X191138371Y-152162782D02*
X191185990Y-152138973D01*
X191185990Y-152138973D02*
X191209800Y-152115163D01*
X191209800Y-152115163D02*
X191233609Y-152067544D01*
X191233609Y-152067544D02*
X191233609Y-151972306D01*
X191233609Y-151972306D02*
X191209800Y-151924687D01*
X191209800Y-151924687D02*
X191185990Y-151900878D01*
X191185990Y-151900878D02*
X191138371Y-151877068D01*
X191138371Y-151877068D02*
X191019323Y-151877068D01*
X191019323Y-151877068D02*
X190971704Y-151900878D01*
X190971704Y-151900878D02*
X190947895Y-151924687D01*
X190947895Y-151924687D02*
X190924085Y-151972306D01*
X190924085Y-151972306D02*
X190924085Y-152067544D01*
X190924085Y-152067544D02*
X190947895Y-152115163D01*
X190947895Y-152115163D02*
X190971704Y-152138973D01*
X190971704Y-152138973D02*
X191019323Y-152162782D01*
X190900276Y-117000877D02*
X191233609Y-117000877D01*
X190709800Y-117119925D02*
X191066942Y-117238972D01*
X191066942Y-117238972D02*
X191066942Y-116929449D01*
X190733609Y-116500878D02*
X190733609Y-116738973D01*
X190733609Y-116738973D02*
X190971704Y-116762782D01*
X190971704Y-116762782D02*
X190947895Y-116738973D01*
X190947895Y-116738973D02*
X190924085Y-116691354D01*
X190924085Y-116691354D02*
X190924085Y-116572306D01*
X190924085Y-116572306D02*
X190947895Y-116524687D01*
X190947895Y-116524687D02*
X190971704Y-116500878D01*
X190971704Y-116500878D02*
X191019323Y-116477068D01*
X191019323Y-116477068D02*
X191138371Y-116477068D01*
X191138371Y-116477068D02*
X191185990Y-116500878D01*
X191185990Y-116500878D02*
X191209800Y-116524687D01*
X191209800Y-116524687D02*
X191233609Y-116572306D01*
X191233609Y-116572306D02*
X191233609Y-116691354D01*
X191233609Y-116691354D02*
X191209800Y-116738973D01*
X191209800Y-116738973D02*
X191185990Y-116762782D01*
X190900276Y-114300877D02*
X191233609Y-114300877D01*
X190709800Y-114419925D02*
X191066942Y-114538972D01*
X191066942Y-114538972D02*
X191066942Y-114229449D01*
X190733609Y-113824687D02*
X190733609Y-113919925D01*
X190733609Y-113919925D02*
X190757419Y-113967544D01*
X190757419Y-113967544D02*
X190781228Y-113991354D01*
X190781228Y-113991354D02*
X190852657Y-114038973D01*
X190852657Y-114038973D02*
X190947895Y-114062782D01*
X190947895Y-114062782D02*
X191138371Y-114062782D01*
X191138371Y-114062782D02*
X191185990Y-114038973D01*
X191185990Y-114038973D02*
X191209800Y-114015163D01*
X191209800Y-114015163D02*
X191233609Y-113967544D01*
X191233609Y-113967544D02*
X191233609Y-113872306D01*
X191233609Y-113872306D02*
X191209800Y-113824687D01*
X191209800Y-113824687D02*
X191185990Y-113800878D01*
X191185990Y-113800878D02*
X191138371Y-113777068D01*
X191138371Y-113777068D02*
X191019323Y-113777068D01*
X191019323Y-113777068D02*
X190971704Y-113800878D01*
X190971704Y-113800878D02*
X190947895Y-113824687D01*
X190947895Y-113824687D02*
X190924085Y-113872306D01*
X190924085Y-113872306D02*
X190924085Y-113967544D01*
X190924085Y-113967544D02*
X190947895Y-114015163D01*
X190947895Y-114015163D02*
X190971704Y-114038973D01*
X190971704Y-114038973D02*
X191019323Y-114062782D01*
X191233609Y-125215163D02*
X190733609Y-125215163D01*
X190733609Y-125215163D02*
X191090752Y-125048496D01*
X191090752Y-125048496D02*
X190733609Y-124881830D01*
X190733609Y-124881830D02*
X191233609Y-124881830D01*
X190733609Y-124715162D02*
X190733609Y-124429448D01*
X191233609Y-124572305D02*
X190733609Y-124572305D01*
X191233609Y-124262782D02*
X190733609Y-124262782D01*
X190733609Y-124262782D02*
X191090752Y-124096115D01*
X191090752Y-124096115D02*
X190733609Y-123929449D01*
X190733609Y-123929449D02*
X191233609Y-123929449D01*
X191209800Y-123715162D02*
X191233609Y-123643734D01*
X191233609Y-123643734D02*
X191233609Y-123524686D01*
X191233609Y-123524686D02*
X191209800Y-123477067D01*
X191209800Y-123477067D02*
X191185990Y-123453258D01*
X191185990Y-123453258D02*
X191138371Y-123429448D01*
X191138371Y-123429448D02*
X191090752Y-123429448D01*
X191090752Y-123429448D02*
X191043133Y-123453258D01*
X191043133Y-123453258D02*
X191019323Y-123477067D01*
X191019323Y-123477067D02*
X190995514Y-123524686D01*
X190995514Y-123524686D02*
X190971704Y-123619924D01*
X190971704Y-123619924D02*
X190947895Y-123667543D01*
X190947895Y-123667543D02*
X190924085Y-123691353D01*
X190924085Y-123691353D02*
X190876466Y-123715162D01*
X190876466Y-123715162D02*
X190828847Y-123715162D01*
X190828847Y-123715162D02*
X190781228Y-123691353D01*
X190781228Y-123691353D02*
X190757419Y-123667543D01*
X190757419Y-123667543D02*
X190733609Y-123619924D01*
X190733609Y-123619924D02*
X190733609Y-123500877D01*
X190733609Y-123500877D02*
X190757419Y-123429448D01*
X173966390Y-124137217D02*
X173966390Y-124446741D01*
X173966390Y-124446741D02*
X173775914Y-124280074D01*
X173775914Y-124280074D02*
X173775914Y-124351503D01*
X173775914Y-124351503D02*
X173752104Y-124399122D01*
X173752104Y-124399122D02*
X173728295Y-124422931D01*
X173728295Y-124422931D02*
X173680676Y-124446741D01*
X173680676Y-124446741D02*
X173561628Y-124446741D01*
X173561628Y-124446741D02*
X173514009Y-124422931D01*
X173514009Y-124422931D02*
X173490200Y-124399122D01*
X173490200Y-124399122D02*
X173466390Y-124351503D01*
X173466390Y-124351503D02*
X173466390Y-124208646D01*
X173466390Y-124208646D02*
X173490200Y-124161027D01*
X173490200Y-124161027D02*
X173514009Y-124137217D01*
X173566390Y-137146741D02*
X173566390Y-136861027D01*
X173566390Y-137003884D02*
X174066390Y-137003884D01*
X174066390Y-137003884D02*
X173994961Y-136956265D01*
X173994961Y-136956265D02*
X173947342Y-136908646D01*
X173947342Y-136908646D02*
X173923533Y-136861027D01*
X174066390Y-137456264D02*
X174066390Y-137503883D01*
X174066390Y-137503883D02*
X174042580Y-137551502D01*
X174042580Y-137551502D02*
X174018771Y-137575312D01*
X174018771Y-137575312D02*
X173971152Y-137599121D01*
X173971152Y-137599121D02*
X173875914Y-137622931D01*
X173875914Y-137622931D02*
X173756866Y-137622931D01*
X173756866Y-137622931D02*
X173661628Y-137599121D01*
X173661628Y-137599121D02*
X173614009Y-137575312D01*
X173614009Y-137575312D02*
X173590200Y-137551502D01*
X173590200Y-137551502D02*
X173566390Y-137503883D01*
X173566390Y-137503883D02*
X173566390Y-137456264D01*
X173566390Y-137456264D02*
X173590200Y-137408645D01*
X173590200Y-137408645D02*
X173614009Y-137384836D01*
X173614009Y-137384836D02*
X173661628Y-137361026D01*
X173661628Y-137361026D02*
X173756866Y-137337217D01*
X173756866Y-137337217D02*
X173875914Y-137337217D01*
X173875914Y-137337217D02*
X173971152Y-137361026D01*
X173971152Y-137361026D02*
X174018771Y-137384836D01*
X174018771Y-137384836D02*
X174042580Y-137408645D01*
X174042580Y-137408645D02*
X174066390Y-137456264D01*
X173566390Y-142046741D02*
X173566390Y-141761027D01*
X173566390Y-141903884D02*
X174066390Y-141903884D01*
X174066390Y-141903884D02*
X173994961Y-141856265D01*
X173994961Y-141856265D02*
X173947342Y-141808646D01*
X173947342Y-141808646D02*
X173923533Y-141761027D01*
X174018771Y-142237217D02*
X174042580Y-142261026D01*
X174042580Y-142261026D02*
X174066390Y-142308645D01*
X174066390Y-142308645D02*
X174066390Y-142427693D01*
X174066390Y-142427693D02*
X174042580Y-142475312D01*
X174042580Y-142475312D02*
X174018771Y-142499121D01*
X174018771Y-142499121D02*
X173971152Y-142522931D01*
X173971152Y-142522931D02*
X173923533Y-142522931D01*
X173923533Y-142522931D02*
X173852104Y-142499121D01*
X173852104Y-142499121D02*
X173566390Y-142213407D01*
X173566390Y-142213407D02*
X173566390Y-142522931D01*
X190781228Y-155138972D02*
X190757419Y-155115163D01*
X190757419Y-155115163D02*
X190733609Y-155067544D01*
X190733609Y-155067544D02*
X190733609Y-154948496D01*
X190733609Y-154948496D02*
X190757419Y-154900877D01*
X190757419Y-154900877D02*
X190781228Y-154877068D01*
X190781228Y-154877068D02*
X190828847Y-154853258D01*
X190828847Y-154853258D02*
X190876466Y-154853258D01*
X190876466Y-154853258D02*
X190947895Y-154877068D01*
X190947895Y-154877068D02*
X191233609Y-155162782D01*
X191233609Y-155162782D02*
X191233609Y-154853258D01*
X191233609Y-154377068D02*
X191233609Y-154662782D01*
X191233609Y-154519925D02*
X190733609Y-154519925D01*
X190733609Y-154519925D02*
X190805038Y-154567544D01*
X190805038Y-154567544D02*
X190852657Y-154615163D01*
X190852657Y-154615163D02*
X190876466Y-154662782D01*
X173566390Y-156646741D02*
X173566390Y-156361027D01*
X173566390Y-156503884D02*
X174066390Y-156503884D01*
X174066390Y-156503884D02*
X173994961Y-156456265D01*
X173994961Y-156456265D02*
X173947342Y-156408646D01*
X173947342Y-156408646D02*
X173923533Y-156361027D01*
X173852104Y-156932455D02*
X173875914Y-156884836D01*
X173875914Y-156884836D02*
X173899723Y-156861026D01*
X173899723Y-156861026D02*
X173947342Y-156837217D01*
X173947342Y-156837217D02*
X173971152Y-156837217D01*
X173971152Y-156837217D02*
X174018771Y-156861026D01*
X174018771Y-156861026D02*
X174042580Y-156884836D01*
X174042580Y-156884836D02*
X174066390Y-156932455D01*
X174066390Y-156932455D02*
X174066390Y-157027693D01*
X174066390Y-157027693D02*
X174042580Y-157075312D01*
X174042580Y-157075312D02*
X174018771Y-157099121D01*
X174018771Y-157099121D02*
X173971152Y-157122931D01*
X173971152Y-157122931D02*
X173947342Y-157122931D01*
X173947342Y-157122931D02*
X173899723Y-157099121D01*
X173899723Y-157099121D02*
X173875914Y-157075312D01*
X173875914Y-157075312D02*
X173852104Y-157027693D01*
X173852104Y-157027693D02*
X173852104Y-156932455D01*
X173852104Y-156932455D02*
X173828295Y-156884836D01*
X173828295Y-156884836D02*
X173804485Y-156861026D01*
X173804485Y-156861026D02*
X173756866Y-156837217D01*
X173756866Y-156837217D02*
X173661628Y-156837217D01*
X173661628Y-156837217D02*
X173614009Y-156861026D01*
X173614009Y-156861026D02*
X173590200Y-156884836D01*
X173590200Y-156884836D02*
X173566390Y-156932455D01*
X173566390Y-156932455D02*
X173566390Y-157027693D01*
X173566390Y-157027693D02*
X173590200Y-157075312D01*
X173590200Y-157075312D02*
X173614009Y-157099121D01*
X173614009Y-157099121D02*
X173661628Y-157122931D01*
X173661628Y-157122931D02*
X173756866Y-157122931D01*
X173756866Y-157122931D02*
X173804485Y-157099121D01*
X173804485Y-157099121D02*
X173828295Y-157075312D01*
X173828295Y-157075312D02*
X173852104Y-157027693D01*
X191233609Y-130415163D02*
X190733609Y-130415163D01*
X190733609Y-130415163D02*
X191090752Y-130248496D01*
X191090752Y-130248496D02*
X190733609Y-130081830D01*
X190733609Y-130081830D02*
X191233609Y-130081830D01*
X190733609Y-129915162D02*
X190733609Y-129629448D01*
X191233609Y-129772305D02*
X190733609Y-129772305D01*
X191233609Y-129462782D02*
X190733609Y-129462782D01*
X190733609Y-129462782D02*
X190733609Y-129343734D01*
X190733609Y-129343734D02*
X190757419Y-129272306D01*
X190757419Y-129272306D02*
X190805038Y-129224687D01*
X190805038Y-129224687D02*
X190852657Y-129200877D01*
X190852657Y-129200877D02*
X190947895Y-129177068D01*
X190947895Y-129177068D02*
X191019323Y-129177068D01*
X191019323Y-129177068D02*
X191114561Y-129200877D01*
X191114561Y-129200877D02*
X191162180Y-129224687D01*
X191162180Y-129224687D02*
X191209800Y-129272306D01*
X191209800Y-129272306D02*
X191233609Y-129343734D01*
X191233609Y-129343734D02*
X191233609Y-129462782D01*
X190733609Y-128867544D02*
X190733609Y-128772306D01*
X190733609Y-128772306D02*
X190757419Y-128724687D01*
X190757419Y-128724687D02*
X190805038Y-128677068D01*
X190805038Y-128677068D02*
X190900276Y-128653258D01*
X190900276Y-128653258D02*
X191066942Y-128653258D01*
X191066942Y-128653258D02*
X191162180Y-128677068D01*
X191162180Y-128677068D02*
X191209800Y-128724687D01*
X191209800Y-128724687D02*
X191233609Y-128772306D01*
X191233609Y-128772306D02*
X191233609Y-128867544D01*
X191233609Y-128867544D02*
X191209800Y-128915163D01*
X191209800Y-128915163D02*
X191162180Y-128962782D01*
X191162180Y-128962782D02*
X191066942Y-128986591D01*
X191066942Y-128986591D02*
X190900276Y-128986591D01*
X190900276Y-128986591D02*
X190805038Y-128962782D01*
X190805038Y-128962782D02*
X190757419Y-128915163D01*
X190757419Y-128915163D02*
X190733609Y-128867544D01*
X190733609Y-137362782D02*
X190733609Y-137053258D01*
X190733609Y-137053258D02*
X190924085Y-137219925D01*
X190924085Y-137219925D02*
X190924085Y-137148496D01*
X190924085Y-137148496D02*
X190947895Y-137100877D01*
X190947895Y-137100877D02*
X190971704Y-137077068D01*
X190971704Y-137077068D02*
X191019323Y-137053258D01*
X191019323Y-137053258D02*
X191138371Y-137053258D01*
X191138371Y-137053258D02*
X191185990Y-137077068D01*
X191185990Y-137077068D02*
X191209800Y-137100877D01*
X191209800Y-137100877D02*
X191233609Y-137148496D01*
X191233609Y-137148496D02*
X191233609Y-137291353D01*
X191233609Y-137291353D02*
X191209800Y-137338972D01*
X191209800Y-137338972D02*
X191185990Y-137362782D01*
X190733609Y-136886592D02*
X190733609Y-136553259D01*
X190733609Y-136553259D02*
X191233609Y-136767544D01*
X174066390Y-118137217D02*
X174066390Y-118446741D01*
X174066390Y-118446741D02*
X173875914Y-118280074D01*
X173875914Y-118280074D02*
X173875914Y-118351503D01*
X173875914Y-118351503D02*
X173852104Y-118399122D01*
X173852104Y-118399122D02*
X173828295Y-118422931D01*
X173828295Y-118422931D02*
X173780676Y-118446741D01*
X173780676Y-118446741D02*
X173661628Y-118446741D01*
X173661628Y-118446741D02*
X173614009Y-118422931D01*
X173614009Y-118422931D02*
X173590200Y-118399122D01*
X173590200Y-118399122D02*
X173566390Y-118351503D01*
X173566390Y-118351503D02*
X173566390Y-118208646D01*
X173566390Y-118208646D02*
X173590200Y-118161027D01*
X173590200Y-118161027D02*
X173614009Y-118137217D01*
X174066390Y-118589598D02*
X173566390Y-118756264D01*
X173566390Y-118756264D02*
X174066390Y-118922931D01*
X174066390Y-119041978D02*
X174066390Y-119351502D01*
X174066390Y-119351502D02*
X173875914Y-119184835D01*
X173875914Y-119184835D02*
X173875914Y-119256264D01*
X173875914Y-119256264D02*
X173852104Y-119303883D01*
X173852104Y-119303883D02*
X173828295Y-119327692D01*
X173828295Y-119327692D02*
X173780676Y-119351502D01*
X173780676Y-119351502D02*
X173661628Y-119351502D01*
X173661628Y-119351502D02*
X173614009Y-119327692D01*
X173614009Y-119327692D02*
X173590200Y-119303883D01*
X173590200Y-119303883D02*
X173566390Y-119256264D01*
X173566390Y-119256264D02*
X173566390Y-119113407D01*
X173566390Y-119113407D02*
X173590200Y-119065788D01*
X173590200Y-119065788D02*
X173614009Y-119041978D01*
X173518771Y-119446740D02*
X173518771Y-119827692D01*
X173566390Y-120018168D02*
X173590200Y-119970549D01*
X173590200Y-119970549D02*
X173614009Y-119946739D01*
X173614009Y-119946739D02*
X173661628Y-119922930D01*
X173661628Y-119922930D02*
X173804485Y-119922930D01*
X173804485Y-119922930D02*
X173852104Y-119946739D01*
X173852104Y-119946739D02*
X173875914Y-119970549D01*
X173875914Y-119970549D02*
X173899723Y-120018168D01*
X173899723Y-120018168D02*
X173899723Y-120089596D01*
X173899723Y-120089596D02*
X173875914Y-120137215D01*
X173875914Y-120137215D02*
X173852104Y-120161025D01*
X173852104Y-120161025D02*
X173804485Y-120184834D01*
X173804485Y-120184834D02*
X173661628Y-120184834D01*
X173661628Y-120184834D02*
X173614009Y-120161025D01*
X173614009Y-120161025D02*
X173590200Y-120137215D01*
X173590200Y-120137215D02*
X173566390Y-120089596D01*
X173566390Y-120089596D02*
X173566390Y-120018168D01*
X173899723Y-120613406D02*
X173566390Y-120613406D01*
X173899723Y-120399120D02*
X173637819Y-120399120D01*
X173637819Y-120399120D02*
X173590200Y-120422930D01*
X173590200Y-120422930D02*
X173566390Y-120470549D01*
X173566390Y-120470549D02*
X173566390Y-120541977D01*
X173566390Y-120541977D02*
X173590200Y-120589596D01*
X173590200Y-120589596D02*
X173614009Y-120613406D01*
X173899723Y-120780073D02*
X173899723Y-120970549D01*
X174066390Y-120851501D02*
X173637819Y-120851501D01*
X173637819Y-120851501D02*
X173590200Y-120875311D01*
X173590200Y-120875311D02*
X173566390Y-120922930D01*
X173566390Y-120922930D02*
X173566390Y-120970549D01*
X186761027Y-129081228D02*
X186784836Y-129057419D01*
X186784836Y-129057419D02*
X186832455Y-129033609D01*
X186832455Y-129033609D02*
X186951503Y-129033609D01*
X186951503Y-129033609D02*
X186999122Y-129057419D01*
X186999122Y-129057419D02*
X187022931Y-129081228D01*
X187022931Y-129081228D02*
X187046741Y-129128847D01*
X187046741Y-129128847D02*
X187046741Y-129176466D01*
X187046741Y-129176466D02*
X187022931Y-129247895D01*
X187022931Y-129247895D02*
X186737217Y-129533609D01*
X186737217Y-129533609D02*
X187046741Y-129533609D01*
X187356264Y-129033609D02*
X187403883Y-129033609D01*
X187403883Y-129033609D02*
X187451502Y-129057419D01*
X187451502Y-129057419D02*
X187475312Y-129081228D01*
X187475312Y-129081228D02*
X187499121Y-129128847D01*
X187499121Y-129128847D02*
X187522931Y-129224085D01*
X187522931Y-129224085D02*
X187522931Y-129343133D01*
X187522931Y-129343133D02*
X187499121Y-129438371D01*
X187499121Y-129438371D02*
X187475312Y-129485990D01*
X187475312Y-129485990D02*
X187451502Y-129509800D01*
X187451502Y-129509800D02*
X187403883Y-129533609D01*
X187403883Y-129533609D02*
X187356264Y-129533609D01*
X187356264Y-129533609D02*
X187308645Y-129509800D01*
X187308645Y-129509800D02*
X187284836Y-129485990D01*
X187284836Y-129485990D02*
X187261026Y-129438371D01*
X187261026Y-129438371D02*
X187237217Y-129343133D01*
X187237217Y-129343133D02*
X187237217Y-129224085D01*
X187237217Y-129224085D02*
X187261026Y-129128847D01*
X187261026Y-129128847D02*
X187284836Y-129081228D01*
X187284836Y-129081228D02*
X187308645Y-129057419D01*
X187308645Y-129057419D02*
X187356264Y-129033609D01*
X187713407Y-129081228D02*
X187737216Y-129057419D01*
X187737216Y-129057419D02*
X187784835Y-129033609D01*
X187784835Y-129033609D02*
X187903883Y-129033609D01*
X187903883Y-129033609D02*
X187951502Y-129057419D01*
X187951502Y-129057419D02*
X187975311Y-129081228D01*
X187975311Y-129081228D02*
X187999121Y-129128847D01*
X187999121Y-129128847D02*
X187999121Y-129176466D01*
X187999121Y-129176466D02*
X187975311Y-129247895D01*
X187975311Y-129247895D02*
X187689597Y-129533609D01*
X187689597Y-129533609D02*
X187999121Y-129533609D01*
X188427692Y-129033609D02*
X188332454Y-129033609D01*
X188332454Y-129033609D02*
X188284835Y-129057419D01*
X188284835Y-129057419D02*
X188261025Y-129081228D01*
X188261025Y-129081228D02*
X188213406Y-129152657D01*
X188213406Y-129152657D02*
X188189597Y-129247895D01*
X188189597Y-129247895D02*
X188189597Y-129438371D01*
X188189597Y-129438371D02*
X188213406Y-129485990D01*
X188213406Y-129485990D02*
X188237216Y-129509800D01*
X188237216Y-129509800D02*
X188284835Y-129533609D01*
X188284835Y-129533609D02*
X188380073Y-129533609D01*
X188380073Y-129533609D02*
X188427692Y-129509800D01*
X188427692Y-129509800D02*
X188451501Y-129485990D01*
X188451501Y-129485990D02*
X188475311Y-129438371D01*
X188475311Y-129438371D02*
X188475311Y-129319323D01*
X188475311Y-129319323D02*
X188451501Y-129271704D01*
X188451501Y-129271704D02*
X188427692Y-129247895D01*
X188427692Y-129247895D02*
X188380073Y-129224085D01*
X188380073Y-129224085D02*
X188284835Y-129224085D01*
X188284835Y-129224085D02*
X188237216Y-129247895D01*
X188237216Y-129247895D02*
X188213406Y-129271704D01*
X188213406Y-129271704D02*
X188189597Y-129319323D01*
X174866390Y-132222931D02*
X174866390Y-131984836D01*
X174866390Y-131984836D02*
X175366390Y-131984836D01*
X175128295Y-132389598D02*
X175128295Y-132556265D01*
X174866390Y-132627693D02*
X174866390Y-132389598D01*
X174866390Y-132389598D02*
X175366390Y-132389598D01*
X175366390Y-132389598D02*
X175366390Y-132627693D01*
X174866390Y-132841979D02*
X175366390Y-132841979D01*
X175366390Y-132841979D02*
X175366390Y-132961027D01*
X175366390Y-132961027D02*
X175342580Y-133032455D01*
X175342580Y-133032455D02*
X175294961Y-133080074D01*
X175294961Y-133080074D02*
X175247342Y-133103884D01*
X175247342Y-133103884D02*
X175152104Y-133127693D01*
X175152104Y-133127693D02*
X175080676Y-133127693D01*
X175080676Y-133127693D02*
X174985438Y-133103884D01*
X174985438Y-133103884D02*
X174937819Y-133080074D01*
X174937819Y-133080074D02*
X174890200Y-133032455D01*
X174890200Y-133032455D02*
X174866390Y-132961027D01*
X174866390Y-132961027D02*
X174866390Y-132841979D01*
X189833609Y-147329449D02*
X189595514Y-147496115D01*
X189833609Y-147615163D02*
X189333609Y-147615163D01*
X189333609Y-147615163D02*
X189333609Y-147424687D01*
X189333609Y-147424687D02*
X189357419Y-147377068D01*
X189357419Y-147377068D02*
X189381228Y-147353258D01*
X189381228Y-147353258D02*
X189428847Y-147329449D01*
X189428847Y-147329449D02*
X189500276Y-147329449D01*
X189500276Y-147329449D02*
X189547895Y-147353258D01*
X189547895Y-147353258D02*
X189571704Y-147377068D01*
X189571704Y-147377068D02*
X189595514Y-147424687D01*
X189595514Y-147424687D02*
X189595514Y-147615163D01*
X189357419Y-146853258D02*
X189333609Y-146900877D01*
X189333609Y-146900877D02*
X189333609Y-146972306D01*
X189333609Y-146972306D02*
X189357419Y-147043734D01*
X189357419Y-147043734D02*
X189405038Y-147091353D01*
X189405038Y-147091353D02*
X189452657Y-147115163D01*
X189452657Y-147115163D02*
X189547895Y-147138972D01*
X189547895Y-147138972D02*
X189619323Y-147138972D01*
X189619323Y-147138972D02*
X189714561Y-147115163D01*
X189714561Y-147115163D02*
X189762180Y-147091353D01*
X189762180Y-147091353D02*
X189809800Y-147043734D01*
X189809800Y-147043734D02*
X189833609Y-146972306D01*
X189833609Y-146972306D02*
X189833609Y-146924687D01*
X189833609Y-146924687D02*
X189809800Y-146853258D01*
X189809800Y-146853258D02*
X189785990Y-146829449D01*
X189785990Y-146829449D02*
X189619323Y-146829449D01*
X189619323Y-146829449D02*
X189619323Y-146924687D01*
X189571704Y-146448496D02*
X189595514Y-146377068D01*
X189595514Y-146377068D02*
X189619323Y-146353258D01*
X189619323Y-146353258D02*
X189666942Y-146329449D01*
X189666942Y-146329449D02*
X189738371Y-146329449D01*
X189738371Y-146329449D02*
X189785990Y-146353258D01*
X189785990Y-146353258D02*
X189809800Y-146377068D01*
X189809800Y-146377068D02*
X189833609Y-146424687D01*
X189833609Y-146424687D02*
X189833609Y-146615163D01*
X189833609Y-146615163D02*
X189333609Y-146615163D01*
X189333609Y-146615163D02*
X189333609Y-146448496D01*
X189333609Y-146448496D02*
X189357419Y-146400877D01*
X189357419Y-146400877D02*
X189381228Y-146377068D01*
X189381228Y-146377068D02*
X189428847Y-146353258D01*
X189428847Y-146353258D02*
X189476466Y-146353258D01*
X189476466Y-146353258D02*
X189524085Y-146377068D01*
X189524085Y-146377068D02*
X189547895Y-146400877D01*
X189547895Y-146400877D02*
X189571704Y-146448496D01*
X189571704Y-146448496D02*
X189571704Y-146615163D01*
X190833609Y-122186591D02*
X190833609Y-121900877D01*
X191333609Y-122043734D02*
X190833609Y-122043734D01*
X190833609Y-121781830D02*
X191333609Y-121448497D01*
X190833609Y-121448497D02*
X191333609Y-121781830D01*
X174042580Y-113846741D02*
X174066390Y-113799122D01*
X174066390Y-113799122D02*
X174066390Y-113727693D01*
X174066390Y-113727693D02*
X174042580Y-113656265D01*
X174042580Y-113656265D02*
X173994961Y-113608646D01*
X173994961Y-113608646D02*
X173947342Y-113584836D01*
X173947342Y-113584836D02*
X173852104Y-113561027D01*
X173852104Y-113561027D02*
X173780676Y-113561027D01*
X173780676Y-113561027D02*
X173685438Y-113584836D01*
X173685438Y-113584836D02*
X173637819Y-113608646D01*
X173637819Y-113608646D02*
X173590200Y-113656265D01*
X173590200Y-113656265D02*
X173566390Y-113727693D01*
X173566390Y-113727693D02*
X173566390Y-113775312D01*
X173566390Y-113775312D02*
X173590200Y-113846741D01*
X173590200Y-113846741D02*
X173614009Y-113870550D01*
X173614009Y-113870550D02*
X173780676Y-113870550D01*
X173780676Y-113870550D02*
X173780676Y-113775312D01*
X173566390Y-114084836D02*
X174066390Y-114084836D01*
X174066390Y-114084836D02*
X173566390Y-114370550D01*
X173566390Y-114370550D02*
X174066390Y-114370550D01*
X173566390Y-114608646D02*
X174066390Y-114608646D01*
X174066390Y-114608646D02*
X174066390Y-114727694D01*
X174066390Y-114727694D02*
X174042580Y-114799122D01*
X174042580Y-114799122D02*
X173994961Y-114846741D01*
X173994961Y-114846741D02*
X173947342Y-114870551D01*
X173947342Y-114870551D02*
X173852104Y-114894360D01*
X173852104Y-114894360D02*
X173780676Y-114894360D01*
X173780676Y-114894360D02*
X173685438Y-114870551D01*
X173685438Y-114870551D02*
X173637819Y-114846741D01*
X173637819Y-114846741D02*
X173590200Y-114799122D01*
X173590200Y-114799122D02*
X173566390Y-114727694D01*
X173566390Y-114727694D02*
X173566390Y-114608646D01*
X190733609Y-139962782D02*
X190733609Y-139653258D01*
X190733609Y-139653258D02*
X190924085Y-139819925D01*
X190924085Y-139819925D02*
X190924085Y-139748496D01*
X190924085Y-139748496D02*
X190947895Y-139700877D01*
X190947895Y-139700877D02*
X190971704Y-139677068D01*
X190971704Y-139677068D02*
X191019323Y-139653258D01*
X191019323Y-139653258D02*
X191138371Y-139653258D01*
X191138371Y-139653258D02*
X191185990Y-139677068D01*
X191185990Y-139677068D02*
X191209800Y-139700877D01*
X191209800Y-139700877D02*
X191233609Y-139748496D01*
X191233609Y-139748496D02*
X191233609Y-139891353D01*
X191233609Y-139891353D02*
X191209800Y-139938972D01*
X191209800Y-139938972D02*
X191185990Y-139962782D01*
X190733609Y-139224687D02*
X190733609Y-139319925D01*
X190733609Y-139319925D02*
X190757419Y-139367544D01*
X190757419Y-139367544D02*
X190781228Y-139391354D01*
X190781228Y-139391354D02*
X190852657Y-139438973D01*
X190852657Y-139438973D02*
X190947895Y-139462782D01*
X190947895Y-139462782D02*
X191138371Y-139462782D01*
X191138371Y-139462782D02*
X191185990Y-139438973D01*
X191185990Y-139438973D02*
X191209800Y-139415163D01*
X191209800Y-139415163D02*
X191233609Y-139367544D01*
X191233609Y-139367544D02*
X191233609Y-139272306D01*
X191233609Y-139272306D02*
X191209800Y-139224687D01*
X191209800Y-139224687D02*
X191185990Y-139200878D01*
X191185990Y-139200878D02*
X191138371Y-139177068D01*
X191138371Y-139177068D02*
X191019323Y-139177068D01*
X191019323Y-139177068D02*
X190971704Y-139200878D01*
X190971704Y-139200878D02*
X190947895Y-139224687D01*
X190947895Y-139224687D02*
X190924085Y-139272306D01*
X190924085Y-139272306D02*
X190924085Y-139367544D01*
X190924085Y-139367544D02*
X190947895Y-139415163D01*
X190947895Y-139415163D02*
X190971704Y-139438973D01*
X190971704Y-139438973D02*
X191019323Y-139462782D01*
X190900276Y-149700877D02*
X191233609Y-149700877D01*
X190709800Y-149819925D02*
X191066942Y-149938972D01*
X191066942Y-149938972D02*
X191066942Y-149629449D01*
X190733609Y-149486592D02*
X190733609Y-149153259D01*
X190733609Y-149153259D02*
X191233609Y-149367544D01*
X189233609Y-142086591D02*
X189233609Y-141800877D01*
X189733609Y-141943734D02*
X189233609Y-141943734D01*
X189471704Y-141634211D02*
X189471704Y-141467544D01*
X189733609Y-141396116D02*
X189733609Y-141634211D01*
X189733609Y-141634211D02*
X189233609Y-141634211D01*
X189233609Y-141634211D02*
X189233609Y-141396116D01*
X189733609Y-141181830D02*
X189233609Y-141181830D01*
X189233609Y-141181830D02*
X189590752Y-141015163D01*
X189590752Y-141015163D02*
X189233609Y-140848497D01*
X189233609Y-140848497D02*
X189733609Y-140848497D01*
X189733609Y-140610401D02*
X189233609Y-140610401D01*
X189233609Y-140610401D02*
X189233609Y-140419925D01*
X189233609Y-140419925D02*
X189257419Y-140372306D01*
X189257419Y-140372306D02*
X189281228Y-140348496D01*
X189281228Y-140348496D02*
X189328847Y-140324687D01*
X189328847Y-140324687D02*
X189400276Y-140324687D01*
X189400276Y-140324687D02*
X189447895Y-140348496D01*
X189447895Y-140348496D02*
X189471704Y-140372306D01*
X189471704Y-140372306D02*
X189495514Y-140419925D01*
X189495514Y-140419925D02*
X189495514Y-140610401D01*
X191233609Y-132815163D02*
X190733609Y-132815163D01*
X190733609Y-132815163D02*
X191090752Y-132648496D01*
X191090752Y-132648496D02*
X190733609Y-132481830D01*
X190733609Y-132481830D02*
X191233609Y-132481830D01*
X190733609Y-132315162D02*
X190733609Y-132029448D01*
X191233609Y-132172305D02*
X190733609Y-132172305D01*
X191185990Y-131577068D02*
X191209800Y-131600877D01*
X191209800Y-131600877D02*
X191233609Y-131672306D01*
X191233609Y-131672306D02*
X191233609Y-131719925D01*
X191233609Y-131719925D02*
X191209800Y-131791353D01*
X191209800Y-131791353D02*
X191162180Y-131838972D01*
X191162180Y-131838972D02*
X191114561Y-131862782D01*
X191114561Y-131862782D02*
X191019323Y-131886591D01*
X191019323Y-131886591D02*
X190947895Y-131886591D01*
X190947895Y-131886591D02*
X190852657Y-131862782D01*
X190852657Y-131862782D02*
X190805038Y-131838972D01*
X190805038Y-131838972D02*
X190757419Y-131791353D01*
X190757419Y-131791353D02*
X190733609Y-131719925D01*
X190733609Y-131719925D02*
X190733609Y-131672306D01*
X190733609Y-131672306D02*
X190757419Y-131600877D01*
X190757419Y-131600877D02*
X190781228Y-131577068D01*
X191233609Y-131362782D02*
X190733609Y-131362782D01*
X191233609Y-131077068D02*
X190947895Y-131291353D01*
X190733609Y-131077068D02*
X191019323Y-131362782D01*
X175128295Y-146351503D02*
X175104485Y-146422931D01*
X175104485Y-146422931D02*
X175080676Y-146446741D01*
X175080676Y-146446741D02*
X175033057Y-146470550D01*
X175033057Y-146470550D02*
X174961628Y-146470550D01*
X174961628Y-146470550D02*
X174914009Y-146446741D01*
X174914009Y-146446741D02*
X174890200Y-146422931D01*
X174890200Y-146422931D02*
X174866390Y-146375312D01*
X174866390Y-146375312D02*
X174866390Y-146184836D01*
X174866390Y-146184836D02*
X175366390Y-146184836D01*
X175366390Y-146184836D02*
X175366390Y-146351503D01*
X175366390Y-146351503D02*
X175342580Y-146399122D01*
X175342580Y-146399122D02*
X175318771Y-146422931D01*
X175318771Y-146422931D02*
X175271152Y-146446741D01*
X175271152Y-146446741D02*
X175223533Y-146446741D01*
X175223533Y-146446741D02*
X175175914Y-146422931D01*
X175175914Y-146422931D02*
X175152104Y-146399122D01*
X175152104Y-146399122D02*
X175128295Y-146351503D01*
X175128295Y-146351503D02*
X175128295Y-146184836D01*
X175009247Y-146661027D02*
X175009247Y-146899122D01*
X174866390Y-146613408D02*
X175366390Y-146780074D01*
X175366390Y-146780074D02*
X174866390Y-146946741D01*
X175366390Y-147041979D02*
X175366390Y-147327693D01*
X174866390Y-147184836D02*
X175366390Y-147184836D01*
X190733609Y-134762782D02*
X190733609Y-134453258D01*
X190733609Y-134453258D02*
X190924085Y-134619925D01*
X190924085Y-134619925D02*
X190924085Y-134548496D01*
X190924085Y-134548496D02*
X190947895Y-134500877D01*
X190947895Y-134500877D02*
X190971704Y-134477068D01*
X190971704Y-134477068D02*
X191019323Y-134453258D01*
X191019323Y-134453258D02*
X191138371Y-134453258D01*
X191138371Y-134453258D02*
X191185990Y-134477068D01*
X191185990Y-134477068D02*
X191209800Y-134500877D01*
X191209800Y-134500877D02*
X191233609Y-134548496D01*
X191233609Y-134548496D02*
X191233609Y-134691353D01*
X191233609Y-134691353D02*
X191209800Y-134738972D01*
X191209800Y-134738972D02*
X191185990Y-134762782D01*
X190947895Y-134167544D02*
X190924085Y-134215163D01*
X190924085Y-134215163D02*
X190900276Y-134238973D01*
X190900276Y-134238973D02*
X190852657Y-134262782D01*
X190852657Y-134262782D02*
X190828847Y-134262782D01*
X190828847Y-134262782D02*
X190781228Y-134238973D01*
X190781228Y-134238973D02*
X190757419Y-134215163D01*
X190757419Y-134215163D02*
X190733609Y-134167544D01*
X190733609Y-134167544D02*
X190733609Y-134072306D01*
X190733609Y-134072306D02*
X190757419Y-134024687D01*
X190757419Y-134024687D02*
X190781228Y-134000878D01*
X190781228Y-134000878D02*
X190828847Y-133977068D01*
X190828847Y-133977068D02*
X190852657Y-133977068D01*
X190852657Y-133977068D02*
X190900276Y-134000878D01*
X190900276Y-134000878D02*
X190924085Y-134024687D01*
X190924085Y-134024687D02*
X190947895Y-134072306D01*
X190947895Y-134072306D02*
X190947895Y-134167544D01*
X190947895Y-134167544D02*
X190971704Y-134215163D01*
X190971704Y-134215163D02*
X190995514Y-134238973D01*
X190995514Y-134238973D02*
X191043133Y-134262782D01*
X191043133Y-134262782D02*
X191138371Y-134262782D01*
X191138371Y-134262782D02*
X191185990Y-134238973D01*
X191185990Y-134238973D02*
X191209800Y-134215163D01*
X191209800Y-134215163D02*
X191233609Y-134167544D01*
X191233609Y-134167544D02*
X191233609Y-134072306D01*
X191233609Y-134072306D02*
X191209800Y-134024687D01*
X191209800Y-134024687D02*
X191185990Y-134000878D01*
X191185990Y-134000878D02*
X191138371Y-133977068D01*
X191138371Y-133977068D02*
X191043133Y-133977068D01*
X191043133Y-133977068D02*
X190995514Y-134000878D01*
X190995514Y-134000878D02*
X190971704Y-134024687D01*
X190971704Y-134024687D02*
X190947895Y-134072306D01*
X173566390Y-149546741D02*
X173566390Y-149261027D01*
X173566390Y-149403884D02*
X174066390Y-149403884D01*
X174066390Y-149403884D02*
X173994961Y-149356265D01*
X173994961Y-149356265D02*
X173947342Y-149308646D01*
X173947342Y-149308646D02*
X173923533Y-149261027D01*
X174066390Y-149999121D02*
X174066390Y-149761026D01*
X174066390Y-149761026D02*
X173828295Y-149737217D01*
X173828295Y-149737217D02*
X173852104Y-149761026D01*
X173852104Y-149761026D02*
X173875914Y-149808645D01*
X173875914Y-149808645D02*
X173875914Y-149927693D01*
X173875914Y-149927693D02*
X173852104Y-149975312D01*
X173852104Y-149975312D02*
X173828295Y-149999121D01*
X173828295Y-149999121D02*
X173780676Y-150022931D01*
X173780676Y-150022931D02*
X173661628Y-150022931D01*
X173661628Y-150022931D02*
X173614009Y-149999121D01*
X173614009Y-149999121D02*
X173590200Y-149975312D01*
X173590200Y-149975312D02*
X173566390Y-149927693D01*
X173566390Y-149927693D02*
X173566390Y-149808645D01*
X173566390Y-149808645D02*
X173590200Y-149761026D01*
X173590200Y-149761026D02*
X173614009Y-149737217D01*
X173699723Y-126999122D02*
X173366390Y-126999122D01*
X173890200Y-126880074D02*
X173533057Y-126761027D01*
X173533057Y-126761027D02*
X173533057Y-127070550D01*
X174722931Y-157133609D02*
X174484836Y-157133609D01*
X174484836Y-157133609D02*
X174461027Y-157371704D01*
X174461027Y-157371704D02*
X174484836Y-157347895D01*
X174484836Y-157347895D02*
X174532455Y-157324085D01*
X174532455Y-157324085D02*
X174651503Y-157324085D01*
X174651503Y-157324085D02*
X174699122Y-157347895D01*
X174699122Y-157347895D02*
X174722931Y-157371704D01*
X174722931Y-157371704D02*
X174746741Y-157419323D01*
X174746741Y-157419323D02*
X174746741Y-157538371D01*
X174746741Y-157538371D02*
X174722931Y-157585990D01*
X174722931Y-157585990D02*
X174699122Y-157609800D01*
X174699122Y-157609800D02*
X174651503Y-157633609D01*
X174651503Y-157633609D02*
X174532455Y-157633609D01*
X174532455Y-157633609D02*
X174484836Y-157609800D01*
X174484836Y-157609800D02*
X174461027Y-157585990D01*
X174889598Y-157133609D02*
X175056264Y-157633609D01*
X175056264Y-157633609D02*
X175222931Y-157133609D01*
X175270550Y-157681228D02*
X175651502Y-157681228D01*
X175770549Y-157633609D02*
X175770549Y-157300276D01*
X175770549Y-157133609D02*
X175746740Y-157157419D01*
X175746740Y-157157419D02*
X175770549Y-157181228D01*
X175770549Y-157181228D02*
X175794359Y-157157419D01*
X175794359Y-157157419D02*
X175770549Y-157133609D01*
X175770549Y-157133609D02*
X175770549Y-157181228D01*
X176008644Y-157300276D02*
X176008644Y-157633609D01*
X176008644Y-157347895D02*
X176032454Y-157324085D01*
X176032454Y-157324085D02*
X176080073Y-157300276D01*
X176080073Y-157300276D02*
X176151501Y-157300276D01*
X176151501Y-157300276D02*
X176199120Y-157324085D01*
X176199120Y-157324085D02*
X176222930Y-157371704D01*
X176222930Y-157371704D02*
X176222930Y-157633609D01*
X190733609Y-144862782D02*
X190733609Y-144553258D01*
X190733609Y-144553258D02*
X190924085Y-144719925D01*
X190924085Y-144719925D02*
X190924085Y-144648496D01*
X190924085Y-144648496D02*
X190947895Y-144600877D01*
X190947895Y-144600877D02*
X190971704Y-144577068D01*
X190971704Y-144577068D02*
X191019323Y-144553258D01*
X191019323Y-144553258D02*
X191138371Y-144553258D01*
X191138371Y-144553258D02*
X191185990Y-144577068D01*
X191185990Y-144577068D02*
X191209800Y-144600877D01*
X191209800Y-144600877D02*
X191233609Y-144648496D01*
X191233609Y-144648496D02*
X191233609Y-144791353D01*
X191233609Y-144791353D02*
X191209800Y-144838972D01*
X191209800Y-144838972D02*
X191185990Y-144862782D01*
X190900276Y-144124687D02*
X191233609Y-144124687D01*
X190709800Y-144243735D02*
X191066942Y-144362782D01*
X191066942Y-144362782D02*
X191066942Y-144053259D01*
X173566390Y-144646741D02*
X173566390Y-144361027D01*
X173566390Y-144503884D02*
X174066390Y-144503884D01*
X174066390Y-144503884D02*
X173994961Y-144456265D01*
X173994961Y-144456265D02*
X173947342Y-144408646D01*
X173947342Y-144408646D02*
X173923533Y-144361027D01*
X174066390Y-144813407D02*
X174066390Y-145122931D01*
X174066390Y-145122931D02*
X173875914Y-144956264D01*
X173875914Y-144956264D02*
X173875914Y-145027693D01*
X173875914Y-145027693D02*
X173852104Y-145075312D01*
X173852104Y-145075312D02*
X173828295Y-145099121D01*
X173828295Y-145099121D02*
X173780676Y-145122931D01*
X173780676Y-145122931D02*
X173661628Y-145122931D01*
X173661628Y-145122931D02*
X173614009Y-145099121D01*
X173614009Y-145099121D02*
X173590200Y-145075312D01*
X173590200Y-145075312D02*
X173566390Y-145027693D01*
X173566390Y-145027693D02*
X173566390Y-144884836D01*
X173566390Y-144884836D02*
X173590200Y-144837217D01*
X173590200Y-144837217D02*
X173614009Y-144813407D01*
X173566390Y-154746741D02*
X173566390Y-154461027D01*
X173566390Y-154603884D02*
X174066390Y-154603884D01*
X174066390Y-154603884D02*
X173994961Y-154556265D01*
X173994961Y-154556265D02*
X173947342Y-154508646D01*
X173947342Y-154508646D02*
X173923533Y-154461027D01*
X174066390Y-154913407D02*
X174066390Y-155246740D01*
X174066390Y-155246740D02*
X173566390Y-155032455D01*
X175228295Y-149151503D02*
X175204485Y-149222931D01*
X175204485Y-149222931D02*
X175180676Y-149246741D01*
X175180676Y-149246741D02*
X175133057Y-149270550D01*
X175133057Y-149270550D02*
X175061628Y-149270550D01*
X175061628Y-149270550D02*
X175014009Y-149246741D01*
X175014009Y-149246741D02*
X174990200Y-149222931D01*
X174990200Y-149222931D02*
X174966390Y-149175312D01*
X174966390Y-149175312D02*
X174966390Y-148984836D01*
X174966390Y-148984836D02*
X175466390Y-148984836D01*
X175466390Y-148984836D02*
X175466390Y-149151503D01*
X175466390Y-149151503D02*
X175442580Y-149199122D01*
X175442580Y-149199122D02*
X175418771Y-149222931D01*
X175418771Y-149222931D02*
X175371152Y-149246741D01*
X175371152Y-149246741D02*
X175323533Y-149246741D01*
X175323533Y-149246741D02*
X175275914Y-149222931D01*
X175275914Y-149222931D02*
X175252104Y-149199122D01*
X175252104Y-149199122D02*
X175228295Y-149151503D01*
X175228295Y-149151503D02*
X175228295Y-148984836D01*
X175109247Y-149461027D02*
X175109247Y-149699122D01*
X174966390Y-149413408D02*
X175466390Y-149580074D01*
X175466390Y-149580074D02*
X174966390Y-149746741D01*
X175466390Y-149841979D02*
X175466390Y-150127693D01*
X174966390Y-149984836D02*
X175466390Y-149984836D01*
X174918771Y-150175312D02*
X174918771Y-150556264D01*
X175014009Y-150961025D02*
X174990200Y-150937216D01*
X174990200Y-150937216D02*
X174966390Y-150865787D01*
X174966390Y-150865787D02*
X174966390Y-150818168D01*
X174966390Y-150818168D02*
X174990200Y-150746740D01*
X174990200Y-150746740D02*
X175037819Y-150699121D01*
X175037819Y-150699121D02*
X175085438Y-150675311D01*
X175085438Y-150675311D02*
X175180676Y-150651502D01*
X175180676Y-150651502D02*
X175252104Y-150651502D01*
X175252104Y-150651502D02*
X175347342Y-150675311D01*
X175347342Y-150675311D02*
X175394961Y-150699121D01*
X175394961Y-150699121D02*
X175442580Y-150746740D01*
X175442580Y-150746740D02*
X175466390Y-150818168D01*
X175466390Y-150818168D02*
X175466390Y-150865787D01*
X175466390Y-150865787D02*
X175442580Y-150937216D01*
X175442580Y-150937216D02*
X175418771Y-150961025D01*
X174966390Y-151175311D02*
X175466390Y-151175311D01*
X175228295Y-151175311D02*
X175228295Y-151461025D01*
X174966390Y-151461025D02*
X175466390Y-151461025D01*
X174966390Y-151984835D02*
X175204485Y-151818169D01*
X174966390Y-151699121D02*
X175466390Y-151699121D01*
X175466390Y-151699121D02*
X175466390Y-151889597D01*
X175466390Y-151889597D02*
X175442580Y-151937216D01*
X175442580Y-151937216D02*
X175418771Y-151961026D01*
X175418771Y-151961026D02*
X175371152Y-151984835D01*
X175371152Y-151984835D02*
X175299723Y-151984835D01*
X175299723Y-151984835D02*
X175252104Y-151961026D01*
X175252104Y-151961026D02*
X175228295Y-151937216D01*
X175228295Y-151937216D02*
X175204485Y-151889597D01*
X175204485Y-151889597D02*
X175204485Y-151699121D01*
X175442580Y-152461026D02*
X175466390Y-152413407D01*
X175466390Y-152413407D02*
X175466390Y-152341978D01*
X175466390Y-152341978D02*
X175442580Y-152270550D01*
X175442580Y-152270550D02*
X175394961Y-152222931D01*
X175394961Y-152222931D02*
X175347342Y-152199121D01*
X175347342Y-152199121D02*
X175252104Y-152175312D01*
X175252104Y-152175312D02*
X175180676Y-152175312D01*
X175180676Y-152175312D02*
X175085438Y-152199121D01*
X175085438Y-152199121D02*
X175037819Y-152222931D01*
X175037819Y-152222931D02*
X174990200Y-152270550D01*
X174990200Y-152270550D02*
X174966390Y-152341978D01*
X174966390Y-152341978D02*
X174966390Y-152389597D01*
X174966390Y-152389597D02*
X174990200Y-152461026D01*
X174990200Y-152461026D02*
X175014009Y-152484835D01*
X175014009Y-152484835D02*
X175180676Y-152484835D01*
X175180676Y-152484835D02*
X175180676Y-152389597D01*
X176028572Y-129161760D02*
X176195239Y-129161760D01*
X176266667Y-129423665D02*
X176028572Y-129423665D01*
X176028572Y-129423665D02*
X176028572Y-128923665D01*
X176028572Y-128923665D02*
X176266667Y-128923665D01*
X176457144Y-129399856D02*
X176528572Y-129423665D01*
X176528572Y-129423665D02*
X176647620Y-129423665D01*
X176647620Y-129423665D02*
X176695239Y-129399856D01*
X176695239Y-129399856D02*
X176719048Y-129376046D01*
X176719048Y-129376046D02*
X176742858Y-129328427D01*
X176742858Y-129328427D02*
X176742858Y-129280808D01*
X176742858Y-129280808D02*
X176719048Y-129233189D01*
X176719048Y-129233189D02*
X176695239Y-129209379D01*
X176695239Y-129209379D02*
X176647620Y-129185570D01*
X176647620Y-129185570D02*
X176552382Y-129161760D01*
X176552382Y-129161760D02*
X176504763Y-129137951D01*
X176504763Y-129137951D02*
X176480953Y-129114141D01*
X176480953Y-129114141D02*
X176457144Y-129066522D01*
X176457144Y-129066522D02*
X176457144Y-129018903D01*
X176457144Y-129018903D02*
X176480953Y-128971284D01*
X176480953Y-128971284D02*
X176504763Y-128947475D01*
X176504763Y-128947475D02*
X176552382Y-128923665D01*
X176552382Y-128923665D02*
X176671429Y-128923665D01*
X176671429Y-128923665D02*
X176742858Y-128947475D01*
X176957143Y-129423665D02*
X176957143Y-128923665D01*
X176957143Y-128923665D02*
X177147619Y-128923665D01*
X177147619Y-128923665D02*
X177195238Y-128947475D01*
X177195238Y-128947475D02*
X177219048Y-128971284D01*
X177219048Y-128971284D02*
X177242857Y-129018903D01*
X177242857Y-129018903D02*
X177242857Y-129090332D01*
X177242857Y-129090332D02*
X177219048Y-129137951D01*
X177219048Y-129137951D02*
X177195238Y-129161760D01*
X177195238Y-129161760D02*
X177147619Y-129185570D01*
X177147619Y-129185570D02*
X176957143Y-129185570D01*
X177409524Y-128923665D02*
X177719048Y-128923665D01*
X177719048Y-128923665D02*
X177552381Y-129114141D01*
X177552381Y-129114141D02*
X177623810Y-129114141D01*
X177623810Y-129114141D02*
X177671429Y-129137951D01*
X177671429Y-129137951D02*
X177695238Y-129161760D01*
X177695238Y-129161760D02*
X177719048Y-129209379D01*
X177719048Y-129209379D02*
X177719048Y-129328427D01*
X177719048Y-129328427D02*
X177695238Y-129376046D01*
X177695238Y-129376046D02*
X177671429Y-129399856D01*
X177671429Y-129399856D02*
X177623810Y-129423665D01*
X177623810Y-129423665D02*
X177480953Y-129423665D01*
X177480953Y-129423665D02*
X177433334Y-129399856D01*
X177433334Y-129399856D02*
X177409524Y-129376046D01*
X177909524Y-128971284D02*
X177933333Y-128947475D01*
X177933333Y-128947475D02*
X177980952Y-128923665D01*
X177980952Y-128923665D02*
X178100000Y-128923665D01*
X178100000Y-128923665D02*
X178147619Y-128947475D01*
X178147619Y-128947475D02*
X178171428Y-128971284D01*
X178171428Y-128971284D02*
X178195238Y-129018903D01*
X178195238Y-129018903D02*
X178195238Y-129066522D01*
X178195238Y-129066522D02*
X178171428Y-129137951D01*
X178171428Y-129137951D02*
X177885714Y-129423665D01*
X177885714Y-129423665D02*
X178195238Y-129423665D01*
X176719048Y-130204828D02*
X176790476Y-130228637D01*
X176790476Y-130228637D02*
X176909524Y-130228637D01*
X176909524Y-130228637D02*
X176957143Y-130204828D01*
X176957143Y-130204828D02*
X176980952Y-130181018D01*
X176980952Y-130181018D02*
X177004762Y-130133399D01*
X177004762Y-130133399D02*
X177004762Y-130085780D01*
X177004762Y-130085780D02*
X176980952Y-130038161D01*
X176980952Y-130038161D02*
X176957143Y-130014351D01*
X176957143Y-130014351D02*
X176909524Y-129990542D01*
X176909524Y-129990542D02*
X176814286Y-129966732D01*
X176814286Y-129966732D02*
X176766667Y-129942923D01*
X176766667Y-129942923D02*
X176742857Y-129919113D01*
X176742857Y-129919113D02*
X176719048Y-129871494D01*
X176719048Y-129871494D02*
X176719048Y-129823875D01*
X176719048Y-129823875D02*
X176742857Y-129776256D01*
X176742857Y-129776256D02*
X176766667Y-129752447D01*
X176766667Y-129752447D02*
X176814286Y-129728637D01*
X176814286Y-129728637D02*
X176933333Y-129728637D01*
X176933333Y-129728637D02*
X177004762Y-129752447D01*
X177171428Y-129728637D02*
X177480952Y-129728637D01*
X177480952Y-129728637D02*
X177314285Y-129919113D01*
X177314285Y-129919113D02*
X177385714Y-129919113D01*
X177385714Y-129919113D02*
X177433333Y-129942923D01*
X177433333Y-129942923D02*
X177457142Y-129966732D01*
X177457142Y-129966732D02*
X177480952Y-130014351D01*
X177480952Y-130014351D02*
X177480952Y-130133399D01*
X177480952Y-130133399D02*
X177457142Y-130181018D01*
X177457142Y-130181018D02*
X177433333Y-130204828D01*
X177433333Y-130204828D02*
X177385714Y-130228637D01*
X177385714Y-130228637D02*
X177242857Y-130228637D01*
X177242857Y-130228637D02*
X177195238Y-130204828D01*
X177195238Y-130204828D02*
X177171428Y-130181018D01*
X176433333Y-131033609D02*
X176433333Y-130533609D01*
X176433333Y-130533609D02*
X176600000Y-130890752D01*
X176600000Y-130890752D02*
X176766666Y-130533609D01*
X176766666Y-130533609D02*
X176766666Y-131033609D01*
X177004762Y-131033609D02*
X177004762Y-130533609D01*
X177242857Y-131033609D02*
X177242857Y-130533609D01*
X177242857Y-130533609D02*
X177528571Y-131033609D01*
X177528571Y-131033609D02*
X177528571Y-130533609D01*
X177766667Y-131033609D02*
X177766667Y-130533609D01*
X185333609Y-131815163D02*
X185738371Y-131815163D01*
X185738371Y-131815163D02*
X185785990Y-131791353D01*
X185785990Y-131791353D02*
X185809800Y-131767544D01*
X185809800Y-131767544D02*
X185833609Y-131719925D01*
X185833609Y-131719925D02*
X185833609Y-131624687D01*
X185833609Y-131624687D02*
X185809800Y-131577068D01*
X185809800Y-131577068D02*
X185785990Y-131553258D01*
X185785990Y-131553258D02*
X185738371Y-131529449D01*
X185738371Y-131529449D02*
X185333609Y-131529449D01*
X185809800Y-131315162D02*
X185833609Y-131243734D01*
X185833609Y-131243734D02*
X185833609Y-131124686D01*
X185833609Y-131124686D02*
X185809800Y-131077067D01*
X185809800Y-131077067D02*
X185785990Y-131053258D01*
X185785990Y-131053258D02*
X185738371Y-131029448D01*
X185738371Y-131029448D02*
X185690752Y-131029448D01*
X185690752Y-131029448D02*
X185643133Y-131053258D01*
X185643133Y-131053258D02*
X185619323Y-131077067D01*
X185619323Y-131077067D02*
X185595514Y-131124686D01*
X185595514Y-131124686D02*
X185571704Y-131219924D01*
X185571704Y-131219924D02*
X185547895Y-131267543D01*
X185547895Y-131267543D02*
X185524085Y-131291353D01*
X185524085Y-131291353D02*
X185476466Y-131315162D01*
X185476466Y-131315162D02*
X185428847Y-131315162D01*
X185428847Y-131315162D02*
X185381228Y-131291353D01*
X185381228Y-131291353D02*
X185357419Y-131267543D01*
X185357419Y-131267543D02*
X185333609Y-131219924D01*
X185333609Y-131219924D02*
X185333609Y-131100877D01*
X185333609Y-131100877D02*
X185357419Y-131029448D01*
X185571704Y-130648496D02*
X185595514Y-130577068D01*
X185595514Y-130577068D02*
X185619323Y-130553258D01*
X185619323Y-130553258D02*
X185666942Y-130529449D01*
X185666942Y-130529449D02*
X185738371Y-130529449D01*
X185738371Y-130529449D02*
X185785990Y-130553258D01*
X185785990Y-130553258D02*
X185809800Y-130577068D01*
X185809800Y-130577068D02*
X185833609Y-130624687D01*
X185833609Y-130624687D02*
X185833609Y-130815163D01*
X185833609Y-130815163D02*
X185333609Y-130815163D01*
X185333609Y-130815163D02*
X185333609Y-130648496D01*
X185333609Y-130648496D02*
X185357419Y-130600877D01*
X185357419Y-130600877D02*
X185381228Y-130577068D01*
X185381228Y-130577068D02*
X185428847Y-130553258D01*
X185428847Y-130553258D02*
X185476466Y-130553258D01*
X185476466Y-130553258D02*
X185524085Y-130577068D01*
X185524085Y-130577068D02*
X185547895Y-130600877D01*
X185547895Y-130600877D02*
X185571704Y-130648496D01*
X185571704Y-130648496D02*
X185571704Y-130815163D01*
X185381228Y-129958020D02*
X185357419Y-129934211D01*
X185357419Y-129934211D02*
X185333609Y-129886592D01*
X185333609Y-129886592D02*
X185333609Y-129767544D01*
X185333609Y-129767544D02*
X185357419Y-129719925D01*
X185357419Y-129719925D02*
X185381228Y-129696116D01*
X185381228Y-129696116D02*
X185428847Y-129672306D01*
X185428847Y-129672306D02*
X185476466Y-129672306D01*
X185476466Y-129672306D02*
X185547895Y-129696116D01*
X185547895Y-129696116D02*
X185833609Y-129981830D01*
X185833609Y-129981830D02*
X185833609Y-129672306D01*
X185785990Y-129458021D02*
X185809800Y-129434211D01*
X185809800Y-129434211D02*
X185833609Y-129458021D01*
X185833609Y-129458021D02*
X185809800Y-129481830D01*
X185809800Y-129481830D02*
X185785990Y-129458021D01*
X185785990Y-129458021D02*
X185833609Y-129458021D01*
X185333609Y-129124688D02*
X185333609Y-129077069D01*
X185333609Y-129077069D02*
X185357419Y-129029450D01*
X185357419Y-129029450D02*
X185381228Y-129005640D01*
X185381228Y-129005640D02*
X185428847Y-128981831D01*
X185428847Y-128981831D02*
X185524085Y-128958021D01*
X185524085Y-128958021D02*
X185643133Y-128958021D01*
X185643133Y-128958021D02*
X185738371Y-128981831D01*
X185738371Y-128981831D02*
X185785990Y-129005640D01*
X185785990Y-129005640D02*
X185809800Y-129029450D01*
X185809800Y-129029450D02*
X185833609Y-129077069D01*
X185833609Y-129077069D02*
X185833609Y-129124688D01*
X185833609Y-129124688D02*
X185809800Y-129172307D01*
X185809800Y-129172307D02*
X185785990Y-129196116D01*
X185785990Y-129196116D02*
X185738371Y-129219926D01*
X185738371Y-129219926D02*
X185643133Y-129243735D01*
X185643133Y-129243735D02*
X185524085Y-129243735D01*
X185524085Y-129243735D02*
X185428847Y-129219926D01*
X185428847Y-129219926D02*
X185381228Y-129196116D01*
X185381228Y-129196116D02*
X185357419Y-129172307D01*
X185357419Y-129172307D02*
X185333609Y-129124688D01*
X173966390Y-131999122D02*
X173966390Y-131903884D01*
X173966390Y-131903884D02*
X173942580Y-131856265D01*
X173942580Y-131856265D02*
X173918771Y-131832455D01*
X173918771Y-131832455D02*
X173847342Y-131784836D01*
X173847342Y-131784836D02*
X173752104Y-131761027D01*
X173752104Y-131761027D02*
X173561628Y-131761027D01*
X173561628Y-131761027D02*
X173514009Y-131784836D01*
X173514009Y-131784836D02*
X173490200Y-131808646D01*
X173490200Y-131808646D02*
X173466390Y-131856265D01*
X173466390Y-131856265D02*
X173466390Y-131951503D01*
X173466390Y-131951503D02*
X173490200Y-131999122D01*
X173490200Y-131999122D02*
X173514009Y-132022931D01*
X173514009Y-132022931D02*
X173561628Y-132046741D01*
X173561628Y-132046741D02*
X173680676Y-132046741D01*
X173680676Y-132046741D02*
X173728295Y-132022931D01*
X173728295Y-132022931D02*
X173752104Y-131999122D01*
X173752104Y-131999122D02*
X173775914Y-131951503D01*
X173775914Y-131951503D02*
X173775914Y-131856265D01*
X173775914Y-131856265D02*
X173752104Y-131808646D01*
X173752104Y-131808646D02*
X173728295Y-131784836D01*
X173728295Y-131784836D02*
X173680676Y-131761027D01*
X191233609Y-119329449D02*
X190995514Y-119496115D01*
X191233609Y-119615163D02*
X190733609Y-119615163D01*
X190733609Y-119615163D02*
X190733609Y-119424687D01*
X190733609Y-119424687D02*
X190757419Y-119377068D01*
X190757419Y-119377068D02*
X190781228Y-119353258D01*
X190781228Y-119353258D02*
X190828847Y-119329449D01*
X190828847Y-119329449D02*
X190900276Y-119329449D01*
X190900276Y-119329449D02*
X190947895Y-119353258D01*
X190947895Y-119353258D02*
X190971704Y-119377068D01*
X190971704Y-119377068D02*
X190995514Y-119424687D01*
X190995514Y-119424687D02*
X190995514Y-119615163D01*
X190733609Y-119162782D02*
X191233609Y-118829449D01*
X190733609Y-118829449D02*
X191233609Y-119162782D01*
X189571704Y-136048496D02*
X189595514Y-135977068D01*
X189595514Y-135977068D02*
X189619323Y-135953258D01*
X189619323Y-135953258D02*
X189666942Y-135929449D01*
X189666942Y-135929449D02*
X189738371Y-135929449D01*
X189738371Y-135929449D02*
X189785990Y-135953258D01*
X189785990Y-135953258D02*
X189809800Y-135977068D01*
X189809800Y-135977068D02*
X189833609Y-136024687D01*
X189833609Y-136024687D02*
X189833609Y-136215163D01*
X189833609Y-136215163D02*
X189333609Y-136215163D01*
X189333609Y-136215163D02*
X189333609Y-136048496D01*
X189333609Y-136048496D02*
X189357419Y-136000877D01*
X189357419Y-136000877D02*
X189381228Y-135977068D01*
X189381228Y-135977068D02*
X189428847Y-135953258D01*
X189428847Y-135953258D02*
X189476466Y-135953258D01*
X189476466Y-135953258D02*
X189524085Y-135977068D01*
X189524085Y-135977068D02*
X189547895Y-136000877D01*
X189547895Y-136000877D02*
X189571704Y-136048496D01*
X189571704Y-136048496D02*
X189571704Y-136215163D01*
X189333609Y-135619925D02*
X189333609Y-135524687D01*
X189333609Y-135524687D02*
X189357419Y-135477068D01*
X189357419Y-135477068D02*
X189405038Y-135429449D01*
X189405038Y-135429449D02*
X189500276Y-135405639D01*
X189500276Y-135405639D02*
X189666942Y-135405639D01*
X189666942Y-135405639D02*
X189762180Y-135429449D01*
X189762180Y-135429449D02*
X189809800Y-135477068D01*
X189809800Y-135477068D02*
X189833609Y-135524687D01*
X189833609Y-135524687D02*
X189833609Y-135619925D01*
X189833609Y-135619925D02*
X189809800Y-135667544D01*
X189809800Y-135667544D02*
X189762180Y-135715163D01*
X189762180Y-135715163D02*
X189666942Y-135738972D01*
X189666942Y-135738972D02*
X189500276Y-135738972D01*
X189500276Y-135738972D02*
X189405038Y-135715163D01*
X189405038Y-135715163D02*
X189357419Y-135667544D01*
X189357419Y-135667544D02*
X189333609Y-135619925D01*
X189333609Y-135096115D02*
X189333609Y-135000877D01*
X189333609Y-135000877D02*
X189357419Y-134953258D01*
X189357419Y-134953258D02*
X189405038Y-134905639D01*
X189405038Y-134905639D02*
X189500276Y-134881829D01*
X189500276Y-134881829D02*
X189666942Y-134881829D01*
X189666942Y-134881829D02*
X189762180Y-134905639D01*
X189762180Y-134905639D02*
X189809800Y-134953258D01*
X189809800Y-134953258D02*
X189833609Y-135000877D01*
X189833609Y-135000877D02*
X189833609Y-135096115D01*
X189833609Y-135096115D02*
X189809800Y-135143734D01*
X189809800Y-135143734D02*
X189762180Y-135191353D01*
X189762180Y-135191353D02*
X189666942Y-135215162D01*
X189666942Y-135215162D02*
X189500276Y-135215162D01*
X189500276Y-135215162D02*
X189405038Y-135191353D01*
X189405038Y-135191353D02*
X189357419Y-135143734D01*
X189357419Y-135143734D02*
X189333609Y-135096115D01*
X189333609Y-134738971D02*
X189333609Y-134453257D01*
X189833609Y-134596114D02*
X189333609Y-134596114D01*
X190733609Y-147562782D02*
X190733609Y-147253258D01*
X190733609Y-147253258D02*
X190924085Y-147419925D01*
X190924085Y-147419925D02*
X190924085Y-147348496D01*
X190924085Y-147348496D02*
X190947895Y-147300877D01*
X190947895Y-147300877D02*
X190971704Y-147277068D01*
X190971704Y-147277068D02*
X191019323Y-147253258D01*
X191019323Y-147253258D02*
X191138371Y-147253258D01*
X191138371Y-147253258D02*
X191185990Y-147277068D01*
X191185990Y-147277068D02*
X191209800Y-147300877D01*
X191209800Y-147300877D02*
X191233609Y-147348496D01*
X191233609Y-147348496D02*
X191233609Y-147491353D01*
X191233609Y-147491353D02*
X191209800Y-147538972D01*
X191209800Y-147538972D02*
X191185990Y-147562782D01*
X190733609Y-147086592D02*
X190733609Y-146777068D01*
X190733609Y-146777068D02*
X190924085Y-146943735D01*
X190924085Y-146943735D02*
X190924085Y-146872306D01*
X190924085Y-146872306D02*
X190947895Y-146824687D01*
X190947895Y-146824687D02*
X190971704Y-146800878D01*
X190971704Y-146800878D02*
X191019323Y-146777068D01*
X191019323Y-146777068D02*
X191138371Y-146777068D01*
X191138371Y-146777068D02*
X191185990Y-146800878D01*
X191185990Y-146800878D02*
X191209800Y-146824687D01*
X191209800Y-146824687D02*
X191233609Y-146872306D01*
X191233609Y-146872306D02*
X191233609Y-147015163D01*
X191233609Y-147015163D02*
X191209800Y-147062782D01*
X191209800Y-147062782D02*
X191185990Y-147086592D01*
X190757419Y-157653258D02*
X190733609Y-157700877D01*
X190733609Y-157700877D02*
X190733609Y-157772306D01*
X190733609Y-157772306D02*
X190757419Y-157843734D01*
X190757419Y-157843734D02*
X190805038Y-157891353D01*
X190805038Y-157891353D02*
X190852657Y-157915163D01*
X190852657Y-157915163D02*
X190947895Y-157938972D01*
X190947895Y-157938972D02*
X191019323Y-157938972D01*
X191019323Y-157938972D02*
X191114561Y-157915163D01*
X191114561Y-157915163D02*
X191162180Y-157891353D01*
X191162180Y-157891353D02*
X191209800Y-157843734D01*
X191209800Y-157843734D02*
X191233609Y-157772306D01*
X191233609Y-157772306D02*
X191233609Y-157724687D01*
X191233609Y-157724687D02*
X191209800Y-157653258D01*
X191209800Y-157653258D02*
X191185990Y-157629449D01*
X191185990Y-157629449D02*
X191019323Y-157629449D01*
X191019323Y-157629449D02*
X191019323Y-157724687D01*
X191233609Y-157415163D02*
X190733609Y-157415163D01*
X190733609Y-157415163D02*
X191233609Y-157129449D01*
X191233609Y-157129449D02*
X190733609Y-157129449D01*
X191233609Y-156891353D02*
X190733609Y-156891353D01*
X190733609Y-156891353D02*
X190733609Y-156772305D01*
X190733609Y-156772305D02*
X190757419Y-156700877D01*
X190757419Y-156700877D02*
X190805038Y-156653258D01*
X190805038Y-156653258D02*
X190852657Y-156629448D01*
X190852657Y-156629448D02*
X190947895Y-156605639D01*
X190947895Y-156605639D02*
X191019323Y-156605639D01*
X191019323Y-156605639D02*
X191114561Y-156629448D01*
X191114561Y-156629448D02*
X191162180Y-156653258D01*
X191162180Y-156653258D02*
X191209800Y-156700877D01*
X191209800Y-156700877D02*
X191233609Y-156772305D01*
X191233609Y-156772305D02*
X191233609Y-156891353D01*
X175366390Y-141713408D02*
X174866390Y-141880074D01*
X174866390Y-141880074D02*
X175366390Y-142046741D01*
X174818771Y-142094360D02*
X174818771Y-142475312D01*
X174866390Y-142880073D02*
X175104485Y-142713407D01*
X174866390Y-142594359D02*
X175366390Y-142594359D01*
X175366390Y-142594359D02*
X175366390Y-142784835D01*
X175366390Y-142784835D02*
X175342580Y-142832454D01*
X175342580Y-142832454D02*
X175318771Y-142856264D01*
X175318771Y-142856264D02*
X175271152Y-142880073D01*
X175271152Y-142880073D02*
X175199723Y-142880073D01*
X175199723Y-142880073D02*
X175152104Y-142856264D01*
X175152104Y-142856264D02*
X175128295Y-142832454D01*
X175128295Y-142832454D02*
X175104485Y-142784835D01*
X175104485Y-142784835D02*
X175104485Y-142594359D01*
X175128295Y-143094359D02*
X175128295Y-143261026D01*
X174866390Y-143332454D02*
X174866390Y-143094359D01*
X174866390Y-143094359D02*
X175366390Y-143094359D01*
X175366390Y-143094359D02*
X175366390Y-143332454D01*
X175342580Y-143808645D02*
X175366390Y-143761026D01*
X175366390Y-143761026D02*
X175366390Y-143689597D01*
X175366390Y-143689597D02*
X175342580Y-143618169D01*
X175342580Y-143618169D02*
X175294961Y-143570550D01*
X175294961Y-143570550D02*
X175247342Y-143546740D01*
X175247342Y-143546740D02*
X175152104Y-143522931D01*
X175152104Y-143522931D02*
X175080676Y-143522931D01*
X175080676Y-143522931D02*
X174985438Y-143546740D01*
X174985438Y-143546740D02*
X174937819Y-143570550D01*
X174937819Y-143570550D02*
X174890200Y-143618169D01*
X174890200Y-143618169D02*
X174866390Y-143689597D01*
X174866390Y-143689597D02*
X174866390Y-143737216D01*
X174866390Y-143737216D02*
X174890200Y-143808645D01*
X174890200Y-143808645D02*
X174914009Y-143832454D01*
X174914009Y-143832454D02*
X175080676Y-143832454D01*
X175080676Y-143832454D02*
X175080676Y-143737216D01*
D11*
X186769673Y-129767219D02*
X186769673Y-130576742D01*
X186769673Y-130576742D02*
X186817292Y-130671980D01*
X186817292Y-130671980D02*
X186864911Y-130719600D01*
X186864911Y-130719600D02*
X186960149Y-130767219D01*
X186960149Y-130767219D02*
X187150625Y-130767219D01*
X187150625Y-130767219D02*
X187245863Y-130719600D01*
X187245863Y-130719600D02*
X187293482Y-130671980D01*
X187293482Y-130671980D02*
X187341101Y-130576742D01*
X187341101Y-130576742D02*
X187341101Y-129767219D01*
X187817292Y-129767219D02*
X187817292Y-130576742D01*
X187817292Y-130576742D02*
X187864911Y-130671980D01*
X187864911Y-130671980D02*
X187912530Y-130719600D01*
X187912530Y-130719600D02*
X188007768Y-130767219D01*
X188007768Y-130767219D02*
X188198244Y-130767219D01*
X188198244Y-130767219D02*
X188293482Y-130719600D01*
X188293482Y-130719600D02*
X188341101Y-130671980D01*
X188341101Y-130671980D02*
X188388720Y-130576742D01*
X188388720Y-130576742D02*
X188388720Y-129767219D01*
D12*
%TO.C,C11*%
X187292164Y-144940000D02*
X187507836Y-144940000D01*
X187292164Y-145660000D02*
X187507836Y-145660000D01*
%TO.C,R14*%
X187553641Y-142920000D02*
X187246359Y-142920000D01*
X187553641Y-143680000D02*
X187246359Y-143680000D01*
%TO.C,U5*%
X179490000Y-156586752D02*
X179490000Y-155252500D01*
X181710000Y-155252500D02*
X181710000Y-156722500D01*
X179480000Y-156877500D02*
X179290000Y-157017500D01*
X179290000Y-156737500D01*
X179480000Y-156877500D01*
G36*
X179480000Y-156877500D02*
G01*
X179290000Y-157017500D01*
X179290000Y-156737500D01*
X179480000Y-156877500D01*
G37*
%TO.C,R9*%
X177820000Y-147453641D02*
X177820000Y-147146359D01*
X178580000Y-147453641D02*
X178580000Y-147146359D01*
%TO.C,TH1*%
X175253641Y-152920000D02*
X174946359Y-152920000D01*
X175253641Y-153680000D02*
X174946359Y-153680000D01*
%TO.C,D7*%
X183400000Y-128900000D02*
X184760000Y-128900000D01*
X183400000Y-129700000D02*
X184760000Y-129700000D01*
X184760000Y-129700000D02*
X184760000Y-128900000D01*
%TO.C,D8*%
X180940000Y-128900000D02*
X180940000Y-129700000D01*
X182300000Y-128900000D02*
X180940000Y-128900000D01*
X182300000Y-129700000D02*
X180940000Y-129700000D01*
D11*
%TO.C,L1*%
X176760000Y-142700000D02*
X177360000Y-142700000D01*
D12*
%TO.C,C8*%
X179440000Y-151507836D02*
X179440000Y-151292164D01*
X180160000Y-151507836D02*
X180160000Y-151292164D01*
%TO.C,C12*%
X187507836Y-137690000D02*
X187292164Y-137690000D01*
X187507836Y-138410000D02*
X187292164Y-138410000D01*
D13*
%TO.C,D6*%
X186385000Y-145900000D02*
X188585000Y-145900000D01*
X186385000Y-146900000D02*
X186385000Y-147100000D01*
X188585000Y-146900000D02*
X188585000Y-147100000D01*
X188585000Y-148100000D02*
X186385000Y-148100000D01*
D11*
X185984800Y-146973000D02*
G75*
G02*
X185784800Y-146973000I-100000J0D01*
G01*
X185784800Y-146973000D02*
G75*
G02*
X185984800Y-146973000I100000J0D01*
G01*
D12*
%TO.C,C5*%
X177167836Y-144340000D02*
X176952164Y-144340000D01*
X177167836Y-145060000D02*
X176952164Y-145060000D01*
D10*
%TO.C,D4*%
X184525000Y-140800000D02*
G75*
G02*
X184425000Y-140800000I-50000J0D01*
G01*
X184425000Y-140800000D02*
G75*
G02*
X184525000Y-140800000I50000J0D01*
G01*
D12*
%TO.C,R2*%
X175253641Y-153920000D02*
X174946359Y-153920000D01*
X175253641Y-154680000D02*
X174946359Y-154680000D01*
%TO.C,R4*%
X185405000Y-134646359D02*
X185405000Y-134953641D01*
X186165000Y-134646359D02*
X186165000Y-134953641D01*
D10*
%TO.C,D5*%
X179250000Y-133625000D02*
G75*
G02*
X179150000Y-133625000I-50000J0D01*
G01*
X179150000Y-133625000D02*
G75*
G02*
X179250000Y-133625000I50000J0D01*
G01*
D12*
%TO.C,R12*%
X177820000Y-132406359D02*
X177820000Y-132713641D01*
X178580000Y-132406359D02*
X178580000Y-132713641D01*
D14*
%TO.C,IC2*%
X178525000Y-149525000D02*
G75*
G02*
X178275000Y-149525000I-125000J0D01*
G01*
X178275000Y-149525000D02*
G75*
G02*
X178525000Y-149525000I125000J0D01*
G01*
D12*
%TO.C,R3*%
X175263641Y-154920000D02*
X174956359Y-154920000D01*
X175263641Y-155680000D02*
X174956359Y-155680000D01*
%TO.C,R13*%
X176996359Y-138670000D02*
X177303641Y-138670000D01*
X176996359Y-139430000D02*
X177303641Y-139430000D01*
%TO.C,C9*%
X179432164Y-139440000D02*
X179647836Y-139440000D01*
X179432164Y-140160000D02*
X179647836Y-140160000D01*
D15*
%TO.C,J3*%
X181999000Y-142895000D02*
X181999000Y-146705000D01*
X184539000Y-141625000D02*
X185301000Y-141625000D01*
X184539000Y-147975000D02*
X185301000Y-147975000D01*
X185301000Y-141625000D02*
X185301000Y-142387000D01*
X185301000Y-147975000D02*
X185301000Y-147213000D01*
D12*
%TO.C,C14*%
X185240000Y-140387836D02*
X185240000Y-140172164D01*
X185960000Y-140387836D02*
X185960000Y-140172164D01*
%TO.C,U3*%
D11*
X179223760Y-147887827D02*
G75*
G02*
X179023760Y-147887827I-100000J0D01*
G01*
X179023760Y-147887827D02*
G75*
G02*
X179223760Y-147887827I100000J0D01*
G01*
D12*
%TO.C,R16*%
X187553641Y-143920000D02*
X187246359Y-143920000D01*
X187553641Y-144680000D02*
X187246359Y-144680000D01*
%TO.C,C15*%
X180592164Y-148540000D02*
X180807836Y-148540000D01*
X180592164Y-149260000D02*
X180807836Y-149260000D01*
%TO.C,R5*%
X179270000Y-135203641D02*
X179270000Y-134896359D01*
X180030000Y-135203641D02*
X180030000Y-134896359D01*
%TO.C,D1*%
X179115000Y-138400000D02*
X180475000Y-138400000D01*
X179115000Y-139200000D02*
X180475000Y-139200000D01*
X180475000Y-139200000D02*
X180475000Y-138400000D01*
%TO.C,C7*%
X185492164Y-148340000D02*
X185707836Y-148340000D01*
X185492164Y-149060000D02*
X185707836Y-149060000D01*
D16*
%TO.C,J1*%
X182200000Y-150800000D02*
X182200000Y-154400000D01*
X183200000Y-150800000D02*
X182200000Y-150800000D01*
X183200000Y-153400000D02*
X183200000Y-150800000D01*
X184200000Y-153400000D02*
X183200000Y-153400000D01*
X184200000Y-158400000D02*
X188200000Y-158400000D01*
X189200000Y-150800000D02*
X189200000Y-153400000D01*
X189200000Y-153400000D02*
X188200000Y-153400000D01*
X190200000Y-150800000D02*
X189200000Y-150800000D01*
X190200000Y-154400000D02*
X190200000Y-150800000D01*
D12*
%TO.C,C4*%
X173527836Y-116640000D02*
X173312164Y-116640000D01*
X173527836Y-117360000D02*
X173312164Y-117360000D01*
%TO.C,R1*%
X180780000Y-143446359D02*
X180780000Y-143753641D01*
X181540000Y-143446359D02*
X181540000Y-143753641D01*
D10*
%TO.C,D3*%
X177060000Y-153200000D02*
G75*
G02*
X176960000Y-153200000I-50000J0D01*
G01*
X176960000Y-153200000D02*
G75*
G02*
X177060000Y-153200000I50000J0D01*
G01*
D12*
%TO.C,C6*%
X178440000Y-150292164D02*
X178440000Y-150507836D01*
X179160000Y-150292164D02*
X179160000Y-150507836D01*
%TO.C,C1*%
X178740000Y-141607836D02*
X178740000Y-141392164D01*
X179460000Y-141607836D02*
X179460000Y-141392164D01*
%TO.C,R10*%
X179946359Y-152820000D02*
X180253641Y-152820000D01*
X179946359Y-153580000D02*
X180253641Y-153580000D01*
%TO.C,U2*%
X174325000Y-107650000D02*
X174325000Y-110100000D01*
X174325000Y-107650000D02*
X176775000Y-107650000D01*
X174600000Y-107900000D02*
X190200000Y-107900000D01*
X174600000Y-128600000D02*
X174600000Y-107900000D01*
X190200000Y-107900000D02*
X190200000Y-128600000D01*
X190200000Y-128600000D02*
X174600000Y-128600000D01*
X174425000Y-114850000D02*
X174089000Y-115090000D01*
X174089000Y-114610000D01*
X174425000Y-114850000D01*
G36*
X174425000Y-114850000D02*
G01*
X174089000Y-115090000D01*
X174089000Y-114610000D01*
X174425000Y-114850000D01*
G37*
D11*
%TO.C,S1*%
X176050000Y-135100000D02*
X176050000Y-136300000D01*
D10*
X176900000Y-133750000D02*
X176900000Y-133750000D01*
X176900000Y-133850000D02*
X176900000Y-133850000D01*
D11*
X177750000Y-135100000D02*
X177750000Y-136300000D01*
D10*
X176900000Y-133750000D02*
G75*
G02*
X176900000Y-133850000I0J-50000D01*
G01*
X176900000Y-133850000D02*
G75*
G02*
X176900000Y-133750000I0J50000D01*
G01*
D12*
%TO.C,C10*%
X177042164Y-137690000D02*
X177257836Y-137690000D01*
X177042164Y-138410000D02*
X177257836Y-138410000D01*
%TO.C,R11*%
X181346359Y-140420000D02*
X181653641Y-140420000D01*
X181346359Y-141180000D02*
X181653641Y-141180000D01*
%TO.C,U4*%
X186465000Y-141500000D02*
X186465000Y-140900000D01*
X186465000Y-141500000D02*
X186465000Y-142100000D01*
X188335000Y-141500000D02*
X188335000Y-140900000D01*
X188335000Y-141500000D02*
X188335000Y-142100000D01*
D11*
X186547500Y-142770000D02*
G75*
G02*
X186347500Y-142770000I-100000J0D01*
G01*
X186347500Y-142770000D02*
G75*
G02*
X186547500Y-142770000I100000J0D01*
G01*
D12*
%TO.C,R17*%
X187246359Y-138670000D02*
X187553641Y-138670000D01*
X187246359Y-139430000D02*
X187553641Y-139430000D01*
%TO.C,U1*%
X176940000Y-156586752D02*
X176940000Y-155252500D01*
X179160000Y-155252500D02*
X179160000Y-156722500D01*
X176930000Y-156877500D02*
X176740000Y-157017500D01*
X176740000Y-156737500D01*
X176930000Y-156877500D01*
G36*
X176930000Y-156877500D02*
G01*
X176740000Y-157017500D01*
X176740000Y-156737500D01*
X176930000Y-156877500D01*
G37*
%TO.C,C3*%
X173507836Y-115640000D02*
X173292164Y-115640000D01*
X173507836Y-116360000D02*
X173292164Y-116360000D01*
%TO.C,C2*%
X179740000Y-141607836D02*
X179740000Y-141392164D01*
X180460000Y-141607836D02*
X180460000Y-141392164D01*
D11*
%TO.C,J2*%
X181205000Y-130580000D02*
X181205000Y-130580000D01*
X181205000Y-130580000D02*
X181205000Y-130580000D01*
X181205000Y-130580000D02*
X181205000Y-131300000D01*
X181205000Y-130580000D02*
X184365000Y-130580000D01*
X181205000Y-131300000D02*
X181205000Y-130580000D01*
X181205000Y-131300000D02*
X181205000Y-131300000D01*
X181205000Y-134050000D02*
X181205000Y-134050000D01*
X181205000Y-134050000D02*
X181205000Y-136050000D01*
X181205000Y-136050000D02*
X181205000Y-134050000D01*
X181205000Y-136050000D02*
X181205000Y-136050000D01*
X181205000Y-139050000D02*
X181205000Y-139050000D01*
X181205000Y-139050000D02*
X181205000Y-139520000D01*
X181205000Y-139520000D02*
X181205000Y-139050000D01*
X181205000Y-139520000D02*
X181205000Y-139520000D01*
X181205000Y-139520000D02*
X181205000Y-139520000D01*
X181205000Y-139520000D02*
X184365000Y-139520000D01*
X181920000Y-140050000D02*
X181920000Y-140050000D01*
X181920000Y-140150000D02*
X181920000Y-140050000D01*
X181920000Y-140150000D02*
X181920000Y-140150000D01*
X184365000Y-130580000D02*
X181205000Y-130580000D01*
X184365000Y-130580000D02*
X184365000Y-130580000D01*
X184365000Y-130580000D02*
X184365000Y-130580000D01*
X184365000Y-130580000D02*
X184365000Y-131300000D01*
X184365000Y-131300000D02*
X184365000Y-130580000D01*
X184365000Y-131300000D02*
X184365000Y-131300000D01*
X184365000Y-134300000D02*
X184365000Y-134300000D01*
X184365000Y-134300000D02*
X184365000Y-136050000D01*
X184365000Y-136050000D02*
X184365000Y-134300000D01*
X184365000Y-136050000D02*
X184365000Y-136050000D01*
X184365000Y-138800000D02*
X184365000Y-138800000D01*
X184365000Y-138800000D02*
X184365000Y-139520000D01*
X184365000Y-139520000D02*
X181205000Y-139520000D01*
X184365000Y-139520000D02*
X184365000Y-138800000D01*
X184365000Y-139520000D02*
X184365000Y-139520000D01*
X184365000Y-139520000D02*
X184365000Y-139520000D01*
X181920000Y-140050000D02*
G75*
G02*
X181920000Y-140150000I0J-50000D01*
G01*
X181920000Y-140150000D02*
G75*
G02*
X181920000Y-140050000I0J50000D01*
G01*
D12*
%TO.C,R8*%
X175820000Y-147453641D02*
X175820000Y-147146359D01*
X176580000Y-147453641D02*
X176580000Y-147146359D01*
D11*
%TO.C,S2*%
X186800000Y-135100000D02*
X186800000Y-136300000D01*
D10*
X187650000Y-133750000D02*
X187650000Y-133750000D01*
X187650000Y-133850000D02*
X187650000Y-133850000D01*
D11*
X188500000Y-135100000D02*
X188500000Y-136300000D01*
D10*
X187650000Y-133750000D02*
G75*
G02*
X187650000Y-133850000I0J-50000D01*
G01*
X187650000Y-133850000D02*
G75*
G02*
X187650000Y-133750000I0J50000D01*
G01*
%TO.C,IC1*%
X180710000Y-144100000D02*
X180710000Y-144100000D01*
X180810000Y-144100000D02*
X180810000Y-144100000D01*
X180710000Y-144100000D02*
G75*
G02*
X180810000Y-144100000I50000J0D01*
G01*
X180810000Y-144100000D02*
G75*
G02*
X180710000Y-144100000I-50000J0D01*
G01*
%TO.C,D2*%
X177250000Y-148390000D02*
G75*
G02*
X177150000Y-148390000I-50000J0D01*
G01*
X177150000Y-148390000D02*
G75*
G02*
X177250000Y-148390000I50000J0D01*
G01*
%TD*%
M02*
