%TF.GenerationSoftware,KiCad,Pcbnew,9.0.7-9.0.7~ubuntu22.04.1*%
%TF.CreationDate,2026-02-10T09:56:37-07:00*%
%TF.ProjectId,ESP32-S3-MINI-1_UU,45535033-322d-4533-932d-4d494e492d31,rev?*%
%TF.SameCoordinates,Original*%
%TF.FileFunction,Legend,Bot*%
%TF.FilePolarity,Positive*%
%FSLAX46Y46*%
G04 Gerber Fmt 4.6, Leading zero omitted, Abs format (unit mm)*
G04 Created by KiCad (PCBNEW 9.0.7-9.0.7~ubuntu22.04.1) date 2026-02-10 09:56:37*
%MOMM*%
%LPD*%
G01*
G04 APERTURE LIST*
%ADD10C,0.100000*%
%ADD11C,0.200000*%
G04 APERTURE END LIST*
D10*
X191566390Y-86900877D02*
X191566390Y-86996115D01*
X191566390Y-86996115D02*
X191542580Y-87043734D01*
X191542580Y-87043734D02*
X191518771Y-87067544D01*
X191518771Y-87067544D02*
X191447342Y-87115163D01*
X191447342Y-87115163D02*
X191352104Y-87138972D01*
X191352104Y-87138972D02*
X191161628Y-87138972D01*
X191161628Y-87138972D02*
X191114009Y-87115163D01*
X191114009Y-87115163D02*
X191090200Y-87091353D01*
X191090200Y-87091353D02*
X191066390Y-87043734D01*
X191066390Y-87043734D02*
X191066390Y-86948496D01*
X191066390Y-86948496D02*
X191090200Y-86900877D01*
X191090200Y-86900877D02*
X191114009Y-86877068D01*
X191114009Y-86877068D02*
X191161628Y-86853258D01*
X191161628Y-86853258D02*
X191280676Y-86853258D01*
X191280676Y-86853258D02*
X191328295Y-86877068D01*
X191328295Y-86877068D02*
X191352104Y-86900877D01*
X191352104Y-86900877D02*
X191375914Y-86948496D01*
X191375914Y-86948496D02*
X191375914Y-87043734D01*
X191375914Y-87043734D02*
X191352104Y-87091353D01*
X191352104Y-87091353D02*
X191328295Y-87115163D01*
X191328295Y-87115163D02*
X191280676Y-87138972D01*
X191166390Y-109853258D02*
X191166390Y-110138972D01*
X191166390Y-109996115D02*
X191666390Y-109996115D01*
X191666390Y-109996115D02*
X191594961Y-110043734D01*
X191594961Y-110043734D02*
X191547342Y-110091353D01*
X191547342Y-110091353D02*
X191523533Y-110138972D01*
X191666390Y-109686592D02*
X191666390Y-109353259D01*
X191666390Y-109353259D02*
X191166390Y-109567544D01*
X191166390Y-99853258D02*
X191166390Y-100138972D01*
X191166390Y-99996115D02*
X191666390Y-99996115D01*
X191666390Y-99996115D02*
X191594961Y-100043734D01*
X191594961Y-100043734D02*
X191547342Y-100091353D01*
X191547342Y-100091353D02*
X191523533Y-100138972D01*
X191666390Y-99686592D02*
X191666390Y-99377068D01*
X191666390Y-99377068D02*
X191475914Y-99543735D01*
X191475914Y-99543735D02*
X191475914Y-99472306D01*
X191475914Y-99472306D02*
X191452104Y-99424687D01*
X191452104Y-99424687D02*
X191428295Y-99400878D01*
X191428295Y-99400878D02*
X191380676Y-99377068D01*
X191380676Y-99377068D02*
X191261628Y-99377068D01*
X191261628Y-99377068D02*
X191214009Y-99400878D01*
X191214009Y-99400878D02*
X191190200Y-99424687D01*
X191190200Y-99424687D02*
X191166390Y-99472306D01*
X191166390Y-99472306D02*
X191166390Y-99615163D01*
X191166390Y-99615163D02*
X191190200Y-99662782D01*
X191190200Y-99662782D02*
X191214009Y-99686592D01*
X191666390Y-115486591D02*
X191166390Y-115319925D01*
X191166390Y-115319925D02*
X191666390Y-115153258D01*
X191118771Y-115105640D02*
X191118771Y-114724687D01*
X191666390Y-114605640D02*
X191261628Y-114605640D01*
X191261628Y-114605640D02*
X191214009Y-114581830D01*
X191214009Y-114581830D02*
X191190200Y-114558021D01*
X191190200Y-114558021D02*
X191166390Y-114510402D01*
X191166390Y-114510402D02*
X191166390Y-114415164D01*
X191166390Y-114415164D02*
X191190200Y-114367545D01*
X191190200Y-114367545D02*
X191214009Y-114343735D01*
X191214009Y-114343735D02*
X191261628Y-114319926D01*
X191261628Y-114319926D02*
X191666390Y-114319926D01*
X191190200Y-114105639D02*
X191166390Y-114034211D01*
X191166390Y-114034211D02*
X191166390Y-113915163D01*
X191166390Y-113915163D02*
X191190200Y-113867544D01*
X191190200Y-113867544D02*
X191214009Y-113843735D01*
X191214009Y-113843735D02*
X191261628Y-113819925D01*
X191261628Y-113819925D02*
X191309247Y-113819925D01*
X191309247Y-113819925D02*
X191356866Y-113843735D01*
X191356866Y-113843735D02*
X191380676Y-113867544D01*
X191380676Y-113867544D02*
X191404485Y-113915163D01*
X191404485Y-113915163D02*
X191428295Y-114010401D01*
X191428295Y-114010401D02*
X191452104Y-114058020D01*
X191452104Y-114058020D02*
X191475914Y-114081830D01*
X191475914Y-114081830D02*
X191523533Y-114105639D01*
X191523533Y-114105639D02*
X191571152Y-114105639D01*
X191571152Y-114105639D02*
X191618771Y-114081830D01*
X191618771Y-114081830D02*
X191642580Y-114058020D01*
X191642580Y-114058020D02*
X191666390Y-114010401D01*
X191666390Y-114010401D02*
X191666390Y-113891354D01*
X191666390Y-113891354D02*
X191642580Y-113819925D01*
X191428295Y-113438973D02*
X191404485Y-113367545D01*
X191404485Y-113367545D02*
X191380676Y-113343735D01*
X191380676Y-113343735D02*
X191333057Y-113319926D01*
X191333057Y-113319926D02*
X191261628Y-113319926D01*
X191261628Y-113319926D02*
X191214009Y-113343735D01*
X191214009Y-113343735D02*
X191190200Y-113367545D01*
X191190200Y-113367545D02*
X191166390Y-113415164D01*
X191166390Y-113415164D02*
X191166390Y-113605640D01*
X191166390Y-113605640D02*
X191666390Y-113605640D01*
X191666390Y-113605640D02*
X191666390Y-113438973D01*
X191666390Y-113438973D02*
X191642580Y-113391354D01*
X191642580Y-113391354D02*
X191618771Y-113367545D01*
X191618771Y-113367545D02*
X191571152Y-113343735D01*
X191571152Y-113343735D02*
X191523533Y-113343735D01*
X191523533Y-113343735D02*
X191475914Y-113367545D01*
X191475914Y-113367545D02*
X191452104Y-113391354D01*
X191452104Y-113391354D02*
X191428295Y-113438973D01*
X191428295Y-113438973D02*
X191428295Y-113605640D01*
X191499723Y-81900877D02*
X191166390Y-81900877D01*
X191690200Y-82019925D02*
X191333057Y-82138972D01*
X191333057Y-82138972D02*
X191333057Y-81829449D01*
X191166390Y-104753258D02*
X191166390Y-105038972D01*
X191166390Y-104896115D02*
X191666390Y-104896115D01*
X191666390Y-104896115D02*
X191594961Y-104943734D01*
X191594961Y-104943734D02*
X191547342Y-104991353D01*
X191547342Y-104991353D02*
X191523533Y-105038972D01*
X191666390Y-104300878D02*
X191666390Y-104538973D01*
X191666390Y-104538973D02*
X191428295Y-104562782D01*
X191428295Y-104562782D02*
X191452104Y-104538973D01*
X191452104Y-104538973D02*
X191475914Y-104491354D01*
X191475914Y-104491354D02*
X191475914Y-104372306D01*
X191475914Y-104372306D02*
X191452104Y-104324687D01*
X191452104Y-104324687D02*
X191428295Y-104300878D01*
X191428295Y-104300878D02*
X191380676Y-104277068D01*
X191380676Y-104277068D02*
X191261628Y-104277068D01*
X191261628Y-104277068D02*
X191214009Y-104300878D01*
X191214009Y-104300878D02*
X191190200Y-104324687D01*
X191190200Y-104324687D02*
X191166390Y-104372306D01*
X191166390Y-104372306D02*
X191166390Y-104491354D01*
X191166390Y-104491354D02*
X191190200Y-104538973D01*
X191190200Y-104538973D02*
X191214009Y-104562782D01*
X191642580Y-69853258D02*
X191666390Y-69900877D01*
X191666390Y-69900877D02*
X191666390Y-69972306D01*
X191666390Y-69972306D02*
X191642580Y-70043734D01*
X191642580Y-70043734D02*
X191594961Y-70091353D01*
X191594961Y-70091353D02*
X191547342Y-70115163D01*
X191547342Y-70115163D02*
X191452104Y-70138972D01*
X191452104Y-70138972D02*
X191380676Y-70138972D01*
X191380676Y-70138972D02*
X191285438Y-70115163D01*
X191285438Y-70115163D02*
X191237819Y-70091353D01*
X191237819Y-70091353D02*
X191190200Y-70043734D01*
X191190200Y-70043734D02*
X191166390Y-69972306D01*
X191166390Y-69972306D02*
X191166390Y-69924687D01*
X191166390Y-69924687D02*
X191190200Y-69853258D01*
X191190200Y-69853258D02*
X191214009Y-69829449D01*
X191214009Y-69829449D02*
X191380676Y-69829449D01*
X191380676Y-69829449D02*
X191380676Y-69924687D01*
X191166390Y-69615163D02*
X191666390Y-69615163D01*
X191666390Y-69615163D02*
X191166390Y-69329449D01*
X191166390Y-69329449D02*
X191666390Y-69329449D01*
X191166390Y-69091353D02*
X191666390Y-69091353D01*
X191666390Y-69091353D02*
X191666390Y-68972305D01*
X191666390Y-68972305D02*
X191642580Y-68900877D01*
X191642580Y-68900877D02*
X191594961Y-68853258D01*
X191594961Y-68853258D02*
X191547342Y-68829448D01*
X191547342Y-68829448D02*
X191452104Y-68805639D01*
X191452104Y-68805639D02*
X191380676Y-68805639D01*
X191380676Y-68805639D02*
X191285438Y-68829448D01*
X191285438Y-68829448D02*
X191237819Y-68853258D01*
X191237819Y-68853258D02*
X191190200Y-68900877D01*
X191190200Y-68900877D02*
X191166390Y-68972305D01*
X191166390Y-68972305D02*
X191166390Y-69091353D01*
X191694226Y-74062782D02*
X191694226Y-73753258D01*
X191694226Y-73753258D02*
X191503750Y-73919925D01*
X191503750Y-73919925D02*
X191503750Y-73848496D01*
X191503750Y-73848496D02*
X191479940Y-73800877D01*
X191479940Y-73800877D02*
X191456131Y-73777068D01*
X191456131Y-73777068D02*
X191408512Y-73753258D01*
X191408512Y-73753258D02*
X191289464Y-73753258D01*
X191289464Y-73753258D02*
X191241845Y-73777068D01*
X191241845Y-73777068D02*
X191218036Y-73800877D01*
X191218036Y-73800877D02*
X191194226Y-73848496D01*
X191194226Y-73848496D02*
X191194226Y-73991353D01*
X191194226Y-73991353D02*
X191218036Y-74038972D01*
X191218036Y-74038972D02*
X191241845Y-74062782D01*
X191694226Y-73610401D02*
X191194226Y-73443735D01*
X191194226Y-73443735D02*
X191694226Y-73277068D01*
X191694226Y-73158021D02*
X191694226Y-72848497D01*
X191694226Y-72848497D02*
X191503750Y-73015164D01*
X191503750Y-73015164D02*
X191503750Y-72943735D01*
X191503750Y-72943735D02*
X191479940Y-72896116D01*
X191479940Y-72896116D02*
X191456131Y-72872307D01*
X191456131Y-72872307D02*
X191408512Y-72848497D01*
X191408512Y-72848497D02*
X191289464Y-72848497D01*
X191289464Y-72848497D02*
X191241845Y-72872307D01*
X191241845Y-72872307D02*
X191218036Y-72896116D01*
X191218036Y-72896116D02*
X191194226Y-72943735D01*
X191194226Y-72943735D02*
X191194226Y-73086592D01*
X191194226Y-73086592D02*
X191218036Y-73134211D01*
X191218036Y-73134211D02*
X191241845Y-73158021D01*
X191166390Y-112453258D02*
X191166390Y-112738972D01*
X191166390Y-112596115D02*
X191666390Y-112596115D01*
X191666390Y-112596115D02*
X191594961Y-112643734D01*
X191594961Y-112643734D02*
X191547342Y-112691353D01*
X191547342Y-112691353D02*
X191523533Y-112738972D01*
X191452104Y-112167544D02*
X191475914Y-112215163D01*
X191475914Y-112215163D02*
X191499723Y-112238973D01*
X191499723Y-112238973D02*
X191547342Y-112262782D01*
X191547342Y-112262782D02*
X191571152Y-112262782D01*
X191571152Y-112262782D02*
X191618771Y-112238973D01*
X191618771Y-112238973D02*
X191642580Y-112215163D01*
X191642580Y-112215163D02*
X191666390Y-112167544D01*
X191666390Y-112167544D02*
X191666390Y-112072306D01*
X191666390Y-112072306D02*
X191642580Y-112024687D01*
X191642580Y-112024687D02*
X191618771Y-112000878D01*
X191618771Y-112000878D02*
X191571152Y-111977068D01*
X191571152Y-111977068D02*
X191547342Y-111977068D01*
X191547342Y-111977068D02*
X191499723Y-112000878D01*
X191499723Y-112000878D02*
X191475914Y-112024687D01*
X191475914Y-112024687D02*
X191452104Y-112072306D01*
X191452104Y-112072306D02*
X191452104Y-112167544D01*
X191452104Y-112167544D02*
X191428295Y-112215163D01*
X191428295Y-112215163D02*
X191404485Y-112238973D01*
X191404485Y-112238973D02*
X191356866Y-112262782D01*
X191356866Y-112262782D02*
X191261628Y-112262782D01*
X191261628Y-112262782D02*
X191214009Y-112238973D01*
X191214009Y-112238973D02*
X191190200Y-112215163D01*
X191190200Y-112215163D02*
X191166390Y-112167544D01*
X191166390Y-112167544D02*
X191166390Y-112072306D01*
X191166390Y-112072306D02*
X191190200Y-112024687D01*
X191190200Y-112024687D02*
X191214009Y-112000878D01*
X191214009Y-112000878D02*
X191261628Y-111977068D01*
X191261628Y-111977068D02*
X191356866Y-111977068D01*
X191356866Y-111977068D02*
X191404485Y-112000878D01*
X191404485Y-112000878D02*
X191428295Y-112024687D01*
X191428295Y-112024687D02*
X191452104Y-112072306D01*
X191166390Y-97353258D02*
X191166390Y-97638972D01*
X191166390Y-97496115D02*
X191666390Y-97496115D01*
X191666390Y-97496115D02*
X191594961Y-97543734D01*
X191594961Y-97543734D02*
X191547342Y-97591353D01*
X191547342Y-97591353D02*
X191523533Y-97638972D01*
X191618771Y-97162782D02*
X191642580Y-97138973D01*
X191642580Y-97138973D02*
X191666390Y-97091354D01*
X191666390Y-97091354D02*
X191666390Y-96972306D01*
X191666390Y-96972306D02*
X191642580Y-96924687D01*
X191642580Y-96924687D02*
X191618771Y-96900878D01*
X191618771Y-96900878D02*
X191571152Y-96877068D01*
X191571152Y-96877068D02*
X191523533Y-96877068D01*
X191523533Y-96877068D02*
X191452104Y-96900878D01*
X191452104Y-96900878D02*
X191166390Y-97186592D01*
X191166390Y-97186592D02*
X191166390Y-96877068D01*
X191166390Y-92353258D02*
X191166390Y-92638972D01*
X191166390Y-92496115D02*
X191666390Y-92496115D01*
X191666390Y-92496115D02*
X191594961Y-92543734D01*
X191594961Y-92543734D02*
X191547342Y-92591353D01*
X191547342Y-92591353D02*
X191523533Y-92638972D01*
X191666390Y-92043735D02*
X191666390Y-91996116D01*
X191666390Y-91996116D02*
X191642580Y-91948497D01*
X191642580Y-91948497D02*
X191618771Y-91924687D01*
X191618771Y-91924687D02*
X191571152Y-91900878D01*
X191571152Y-91900878D02*
X191475914Y-91877068D01*
X191475914Y-91877068D02*
X191356866Y-91877068D01*
X191356866Y-91877068D02*
X191261628Y-91900878D01*
X191261628Y-91900878D02*
X191214009Y-91924687D01*
X191214009Y-91924687D02*
X191190200Y-91948497D01*
X191190200Y-91948497D02*
X191166390Y-91996116D01*
X191166390Y-91996116D02*
X191166390Y-92043735D01*
X191166390Y-92043735D02*
X191190200Y-92091354D01*
X191190200Y-92091354D02*
X191214009Y-92115163D01*
X191214009Y-92115163D02*
X191261628Y-92138973D01*
X191261628Y-92138973D02*
X191356866Y-92162782D01*
X191356866Y-92162782D02*
X191475914Y-92162782D01*
X191475914Y-92162782D02*
X191571152Y-92138973D01*
X191571152Y-92138973D02*
X191618771Y-92115163D01*
X191618771Y-92115163D02*
X191642580Y-92091354D01*
X191642580Y-92091354D02*
X191666390Y-92043735D01*
X191666390Y-79562782D02*
X191666390Y-79253258D01*
X191666390Y-79253258D02*
X191475914Y-79419925D01*
X191475914Y-79419925D02*
X191475914Y-79348496D01*
X191475914Y-79348496D02*
X191452104Y-79300877D01*
X191452104Y-79300877D02*
X191428295Y-79277068D01*
X191428295Y-79277068D02*
X191380676Y-79253258D01*
X191380676Y-79253258D02*
X191261628Y-79253258D01*
X191261628Y-79253258D02*
X191214009Y-79277068D01*
X191214009Y-79277068D02*
X191190200Y-79300877D01*
X191190200Y-79300877D02*
X191166390Y-79348496D01*
X191166390Y-79348496D02*
X191166390Y-79491353D01*
X191166390Y-79491353D02*
X191190200Y-79538972D01*
X191190200Y-79538972D02*
X191214009Y-79562782D01*
X191566390Y-84277068D02*
X191566390Y-84515163D01*
X191566390Y-84515163D02*
X191328295Y-84538972D01*
X191328295Y-84538972D02*
X191352104Y-84515163D01*
X191352104Y-84515163D02*
X191375914Y-84467544D01*
X191375914Y-84467544D02*
X191375914Y-84348496D01*
X191375914Y-84348496D02*
X191352104Y-84300877D01*
X191352104Y-84300877D02*
X191328295Y-84277068D01*
X191328295Y-84277068D02*
X191280676Y-84253258D01*
X191280676Y-84253258D02*
X191161628Y-84253258D01*
X191161628Y-84253258D02*
X191114009Y-84277068D01*
X191114009Y-84277068D02*
X191090200Y-84300877D01*
X191090200Y-84300877D02*
X191066390Y-84348496D01*
X191066390Y-84348496D02*
X191066390Y-84467544D01*
X191066390Y-84467544D02*
X191090200Y-84515163D01*
X191090200Y-84515163D02*
X191114009Y-84538972D01*
X191166390Y-107453258D02*
X191166390Y-107738972D01*
X191166390Y-107596115D02*
X191666390Y-107596115D01*
X191666390Y-107596115D02*
X191594961Y-107643734D01*
X191594961Y-107643734D02*
X191547342Y-107691353D01*
X191547342Y-107691353D02*
X191523533Y-107738972D01*
X191666390Y-107024687D02*
X191666390Y-107119925D01*
X191666390Y-107119925D02*
X191642580Y-107167544D01*
X191642580Y-107167544D02*
X191618771Y-107191354D01*
X191618771Y-107191354D02*
X191547342Y-107238973D01*
X191547342Y-107238973D02*
X191452104Y-107262782D01*
X191452104Y-107262782D02*
X191261628Y-107262782D01*
X191261628Y-107262782D02*
X191214009Y-107238973D01*
X191214009Y-107238973D02*
X191190200Y-107215163D01*
X191190200Y-107215163D02*
X191166390Y-107167544D01*
X191166390Y-107167544D02*
X191166390Y-107072306D01*
X191166390Y-107072306D02*
X191190200Y-107024687D01*
X191190200Y-107024687D02*
X191214009Y-107000878D01*
X191214009Y-107000878D02*
X191261628Y-106977068D01*
X191261628Y-106977068D02*
X191380676Y-106977068D01*
X191380676Y-106977068D02*
X191428295Y-107000878D01*
X191428295Y-107000878D02*
X191452104Y-107024687D01*
X191452104Y-107024687D02*
X191475914Y-107072306D01*
X191475914Y-107072306D02*
X191475914Y-107167544D01*
X191475914Y-107167544D02*
X191452104Y-107215163D01*
X191452104Y-107215163D02*
X191428295Y-107238973D01*
X191428295Y-107238973D02*
X191380676Y-107262782D01*
X191166390Y-94753258D02*
X191166390Y-95038972D01*
X191166390Y-94896115D02*
X191666390Y-94896115D01*
X191666390Y-94896115D02*
X191594961Y-94943734D01*
X191594961Y-94943734D02*
X191547342Y-94991353D01*
X191547342Y-94991353D02*
X191523533Y-95038972D01*
X191166390Y-94277068D02*
X191166390Y-94562782D01*
X191166390Y-94419925D02*
X191666390Y-94419925D01*
X191666390Y-94419925D02*
X191594961Y-94467544D01*
X191594961Y-94467544D02*
X191547342Y-94515163D01*
X191547342Y-94515163D02*
X191523533Y-94562782D01*
X191666390Y-89662782D02*
X191666390Y-89329449D01*
X191666390Y-89329449D02*
X191166390Y-89543734D01*
X191518771Y-76938972D02*
X191542580Y-76915163D01*
X191542580Y-76915163D02*
X191566390Y-76867544D01*
X191566390Y-76867544D02*
X191566390Y-76748496D01*
X191566390Y-76748496D02*
X191542580Y-76700877D01*
X191542580Y-76700877D02*
X191518771Y-76677068D01*
X191518771Y-76677068D02*
X191471152Y-76653258D01*
X191471152Y-76653258D02*
X191423533Y-76653258D01*
X191423533Y-76653258D02*
X191352104Y-76677068D01*
X191352104Y-76677068D02*
X191066390Y-76962782D01*
X191066390Y-76962782D02*
X191066390Y-76653258D01*
X191166390Y-102353258D02*
X191166390Y-102638972D01*
X191166390Y-102496115D02*
X191666390Y-102496115D01*
X191666390Y-102496115D02*
X191594961Y-102543734D01*
X191594961Y-102543734D02*
X191547342Y-102591353D01*
X191547342Y-102591353D02*
X191523533Y-102638972D01*
X191499723Y-101924687D02*
X191166390Y-101924687D01*
X191690200Y-102043735D02*
X191333057Y-102162782D01*
X191333057Y-102162782D02*
X191333057Y-101853259D01*
X208457419Y-114346741D02*
X208433609Y-114299122D01*
X208433609Y-114299122D02*
X208433609Y-114227693D01*
X208433609Y-114227693D02*
X208457419Y-114156265D01*
X208457419Y-114156265D02*
X208505038Y-114108646D01*
X208505038Y-114108646D02*
X208552657Y-114084836D01*
X208552657Y-114084836D02*
X208647895Y-114061027D01*
X208647895Y-114061027D02*
X208719323Y-114061027D01*
X208719323Y-114061027D02*
X208814561Y-114084836D01*
X208814561Y-114084836D02*
X208862180Y-114108646D01*
X208862180Y-114108646D02*
X208909800Y-114156265D01*
X208909800Y-114156265D02*
X208933609Y-114227693D01*
X208933609Y-114227693D02*
X208933609Y-114275312D01*
X208933609Y-114275312D02*
X208909800Y-114346741D01*
X208909800Y-114346741D02*
X208885990Y-114370550D01*
X208885990Y-114370550D02*
X208719323Y-114370550D01*
X208719323Y-114370550D02*
X208719323Y-114275312D01*
X208933609Y-114584836D02*
X208433609Y-114584836D01*
X208433609Y-114584836D02*
X208933609Y-114870550D01*
X208933609Y-114870550D02*
X208433609Y-114870550D01*
X208933609Y-115108646D02*
X208433609Y-115108646D01*
X208433609Y-115108646D02*
X208433609Y-115227694D01*
X208433609Y-115227694D02*
X208457419Y-115299122D01*
X208457419Y-115299122D02*
X208505038Y-115346741D01*
X208505038Y-115346741D02*
X208552657Y-115370551D01*
X208552657Y-115370551D02*
X208647895Y-115394360D01*
X208647895Y-115394360D02*
X208719323Y-115394360D01*
X208719323Y-115394360D02*
X208814561Y-115370551D01*
X208814561Y-115370551D02*
X208862180Y-115346741D01*
X208862180Y-115346741D02*
X208909800Y-115299122D01*
X208909800Y-115299122D02*
X208933609Y-115227694D01*
X208933609Y-115227694D02*
X208933609Y-115108646D01*
X208500276Y-107099122D02*
X208833609Y-107099122D01*
X208309800Y-106980074D02*
X208666942Y-106861027D01*
X208666942Y-106861027D02*
X208666942Y-107170550D01*
X208333609Y-107313407D02*
X208333609Y-107646740D01*
X208333609Y-107646740D02*
X208833609Y-107432455D01*
X208381228Y-109461027D02*
X208357419Y-109484836D01*
X208357419Y-109484836D02*
X208333609Y-109532455D01*
X208333609Y-109532455D02*
X208333609Y-109651503D01*
X208333609Y-109651503D02*
X208357419Y-109699122D01*
X208357419Y-109699122D02*
X208381228Y-109722931D01*
X208381228Y-109722931D02*
X208428847Y-109746741D01*
X208428847Y-109746741D02*
X208476466Y-109746741D01*
X208476466Y-109746741D02*
X208547895Y-109722931D01*
X208547895Y-109722931D02*
X208833609Y-109437217D01*
X208833609Y-109437217D02*
X208833609Y-109746741D01*
X208333609Y-110175312D02*
X208333609Y-110080074D01*
X208333609Y-110080074D02*
X208357419Y-110032455D01*
X208357419Y-110032455D02*
X208381228Y-110008645D01*
X208381228Y-110008645D02*
X208452657Y-109961026D01*
X208452657Y-109961026D02*
X208547895Y-109937217D01*
X208547895Y-109937217D02*
X208738371Y-109937217D01*
X208738371Y-109937217D02*
X208785990Y-109961026D01*
X208785990Y-109961026D02*
X208809800Y-109984836D01*
X208809800Y-109984836D02*
X208833609Y-110032455D01*
X208833609Y-110032455D02*
X208833609Y-110127693D01*
X208833609Y-110127693D02*
X208809800Y-110175312D01*
X208809800Y-110175312D02*
X208785990Y-110199121D01*
X208785990Y-110199121D02*
X208738371Y-110222931D01*
X208738371Y-110222931D02*
X208619323Y-110222931D01*
X208619323Y-110222931D02*
X208571704Y-110199121D01*
X208571704Y-110199121D02*
X208547895Y-110175312D01*
X208547895Y-110175312D02*
X208524085Y-110127693D01*
X208524085Y-110127693D02*
X208524085Y-110032455D01*
X208524085Y-110032455D02*
X208547895Y-109984836D01*
X208547895Y-109984836D02*
X208571704Y-109961026D01*
X208571704Y-109961026D02*
X208619323Y-109937217D01*
X208481228Y-112161027D02*
X208457419Y-112184836D01*
X208457419Y-112184836D02*
X208433609Y-112232455D01*
X208433609Y-112232455D02*
X208433609Y-112351503D01*
X208433609Y-112351503D02*
X208457419Y-112399122D01*
X208457419Y-112399122D02*
X208481228Y-112422931D01*
X208481228Y-112422931D02*
X208528847Y-112446741D01*
X208528847Y-112446741D02*
X208576466Y-112446741D01*
X208576466Y-112446741D02*
X208647895Y-112422931D01*
X208647895Y-112422931D02*
X208933609Y-112137217D01*
X208933609Y-112137217D02*
X208933609Y-112446741D01*
X208933609Y-112922931D02*
X208933609Y-112637217D01*
X208933609Y-112780074D02*
X208433609Y-112780074D01*
X208433609Y-112780074D02*
X208505038Y-112732455D01*
X208505038Y-112732455D02*
X208552657Y-112684836D01*
X208552657Y-112684836D02*
X208576466Y-112637217D01*
X208833609Y-83884836D02*
X208333609Y-83884836D01*
X208333609Y-83884836D02*
X208690752Y-84051503D01*
X208690752Y-84051503D02*
X208333609Y-84218169D01*
X208333609Y-84218169D02*
X208833609Y-84218169D01*
X208333609Y-84384837D02*
X208333609Y-84670551D01*
X208833609Y-84527694D02*
X208333609Y-84527694D01*
X208833609Y-84837217D02*
X208333609Y-84837217D01*
X208333609Y-84837217D02*
X208333609Y-84956265D01*
X208333609Y-84956265D02*
X208357419Y-85027693D01*
X208357419Y-85027693D02*
X208405038Y-85075312D01*
X208405038Y-85075312D02*
X208452657Y-85099122D01*
X208452657Y-85099122D02*
X208547895Y-85122931D01*
X208547895Y-85122931D02*
X208619323Y-85122931D01*
X208619323Y-85122931D02*
X208714561Y-85099122D01*
X208714561Y-85099122D02*
X208762180Y-85075312D01*
X208762180Y-85075312D02*
X208809800Y-85027693D01*
X208809800Y-85027693D02*
X208833609Y-84956265D01*
X208833609Y-84956265D02*
X208833609Y-84837217D01*
X208833609Y-85337217D02*
X208333609Y-85337217D01*
X208833609Y-86284836D02*
X208333609Y-86284836D01*
X208333609Y-86284836D02*
X208690752Y-86451503D01*
X208690752Y-86451503D02*
X208333609Y-86618169D01*
X208333609Y-86618169D02*
X208833609Y-86618169D01*
X208333609Y-86784837D02*
X208333609Y-87070551D01*
X208833609Y-86927694D02*
X208333609Y-86927694D01*
X208833609Y-87237217D02*
X208333609Y-87237217D01*
X208333609Y-87237217D02*
X208333609Y-87356265D01*
X208333609Y-87356265D02*
X208357419Y-87427693D01*
X208357419Y-87427693D02*
X208405038Y-87475312D01*
X208405038Y-87475312D02*
X208452657Y-87499122D01*
X208452657Y-87499122D02*
X208547895Y-87522931D01*
X208547895Y-87522931D02*
X208619323Y-87522931D01*
X208619323Y-87522931D02*
X208714561Y-87499122D01*
X208714561Y-87499122D02*
X208762180Y-87475312D01*
X208762180Y-87475312D02*
X208809800Y-87427693D01*
X208809800Y-87427693D02*
X208833609Y-87356265D01*
X208833609Y-87356265D02*
X208833609Y-87237217D01*
X208333609Y-87832455D02*
X208333609Y-87927693D01*
X208333609Y-87927693D02*
X208357419Y-87975312D01*
X208357419Y-87975312D02*
X208405038Y-88022931D01*
X208405038Y-88022931D02*
X208500276Y-88046741D01*
X208500276Y-88046741D02*
X208666942Y-88046741D01*
X208666942Y-88046741D02*
X208762180Y-88022931D01*
X208762180Y-88022931D02*
X208809800Y-87975312D01*
X208809800Y-87975312D02*
X208833609Y-87927693D01*
X208833609Y-87927693D02*
X208833609Y-87832455D01*
X208833609Y-87832455D02*
X208809800Y-87784836D01*
X208809800Y-87784836D02*
X208762180Y-87737217D01*
X208762180Y-87737217D02*
X208666942Y-87713408D01*
X208666942Y-87713408D02*
X208500276Y-87713408D01*
X208500276Y-87713408D02*
X208405038Y-87737217D01*
X208405038Y-87737217D02*
X208357419Y-87784836D01*
X208357419Y-87784836D02*
X208333609Y-87832455D01*
X208433609Y-91637217D02*
X208433609Y-91946741D01*
X208433609Y-91946741D02*
X208624085Y-91780074D01*
X208624085Y-91780074D02*
X208624085Y-91851503D01*
X208624085Y-91851503D02*
X208647895Y-91899122D01*
X208647895Y-91899122D02*
X208671704Y-91922931D01*
X208671704Y-91922931D02*
X208719323Y-91946741D01*
X208719323Y-91946741D02*
X208838371Y-91946741D01*
X208838371Y-91946741D02*
X208885990Y-91922931D01*
X208885990Y-91922931D02*
X208909800Y-91899122D01*
X208909800Y-91899122D02*
X208933609Y-91851503D01*
X208933609Y-91851503D02*
X208933609Y-91708646D01*
X208933609Y-91708646D02*
X208909800Y-91661027D01*
X208909800Y-91661027D02*
X208885990Y-91637217D01*
X208647895Y-92232455D02*
X208624085Y-92184836D01*
X208624085Y-92184836D02*
X208600276Y-92161026D01*
X208600276Y-92161026D02*
X208552657Y-92137217D01*
X208552657Y-92137217D02*
X208528847Y-92137217D01*
X208528847Y-92137217D02*
X208481228Y-92161026D01*
X208481228Y-92161026D02*
X208457419Y-92184836D01*
X208457419Y-92184836D02*
X208433609Y-92232455D01*
X208433609Y-92232455D02*
X208433609Y-92327693D01*
X208433609Y-92327693D02*
X208457419Y-92375312D01*
X208457419Y-92375312D02*
X208481228Y-92399121D01*
X208481228Y-92399121D02*
X208528847Y-92422931D01*
X208528847Y-92422931D02*
X208552657Y-92422931D01*
X208552657Y-92422931D02*
X208600276Y-92399121D01*
X208600276Y-92399121D02*
X208624085Y-92375312D01*
X208624085Y-92375312D02*
X208647895Y-92327693D01*
X208647895Y-92327693D02*
X208647895Y-92232455D01*
X208647895Y-92232455D02*
X208671704Y-92184836D01*
X208671704Y-92184836D02*
X208695514Y-92161026D01*
X208695514Y-92161026D02*
X208743133Y-92137217D01*
X208743133Y-92137217D02*
X208838371Y-92137217D01*
X208838371Y-92137217D02*
X208885990Y-92161026D01*
X208885990Y-92161026D02*
X208909800Y-92184836D01*
X208909800Y-92184836D02*
X208933609Y-92232455D01*
X208933609Y-92232455D02*
X208933609Y-92327693D01*
X208933609Y-92327693D02*
X208909800Y-92375312D01*
X208909800Y-92375312D02*
X208885990Y-92399121D01*
X208885990Y-92399121D02*
X208838371Y-92422931D01*
X208838371Y-92422931D02*
X208743133Y-92422931D01*
X208743133Y-92422931D02*
X208695514Y-92399121D01*
X208695514Y-92399121D02*
X208671704Y-92375312D01*
X208671704Y-92375312D02*
X208647895Y-92327693D01*
X208357419Y-69246741D02*
X208333609Y-69199122D01*
X208333609Y-69199122D02*
X208333609Y-69127693D01*
X208333609Y-69127693D02*
X208357419Y-69056265D01*
X208357419Y-69056265D02*
X208405038Y-69008646D01*
X208405038Y-69008646D02*
X208452657Y-68984836D01*
X208452657Y-68984836D02*
X208547895Y-68961027D01*
X208547895Y-68961027D02*
X208619323Y-68961027D01*
X208619323Y-68961027D02*
X208714561Y-68984836D01*
X208714561Y-68984836D02*
X208762180Y-69008646D01*
X208762180Y-69008646D02*
X208809800Y-69056265D01*
X208809800Y-69056265D02*
X208833609Y-69127693D01*
X208833609Y-69127693D02*
X208833609Y-69175312D01*
X208833609Y-69175312D02*
X208809800Y-69246741D01*
X208809800Y-69246741D02*
X208785990Y-69270550D01*
X208785990Y-69270550D02*
X208619323Y-69270550D01*
X208619323Y-69270550D02*
X208619323Y-69175312D01*
X208833609Y-69484836D02*
X208333609Y-69484836D01*
X208333609Y-69484836D02*
X208833609Y-69770550D01*
X208833609Y-69770550D02*
X208333609Y-69770550D01*
X208833609Y-70008646D02*
X208333609Y-70008646D01*
X208333609Y-70008646D02*
X208333609Y-70127694D01*
X208333609Y-70127694D02*
X208357419Y-70199122D01*
X208357419Y-70199122D02*
X208405038Y-70246741D01*
X208405038Y-70246741D02*
X208452657Y-70270551D01*
X208452657Y-70270551D02*
X208547895Y-70294360D01*
X208547895Y-70294360D02*
X208619323Y-70294360D01*
X208619323Y-70294360D02*
X208714561Y-70270551D01*
X208714561Y-70270551D02*
X208762180Y-70246741D01*
X208762180Y-70246741D02*
X208809800Y-70199122D01*
X208809800Y-70199122D02*
X208833609Y-70127694D01*
X208833609Y-70127694D02*
X208833609Y-70008646D01*
X208833609Y-81184836D02*
X208333609Y-81184836D01*
X208333609Y-81184836D02*
X208690752Y-81351503D01*
X208690752Y-81351503D02*
X208333609Y-81518169D01*
X208333609Y-81518169D02*
X208833609Y-81518169D01*
X208333609Y-81684837D02*
X208333609Y-81970551D01*
X208833609Y-81827694D02*
X208333609Y-81827694D01*
X208833609Y-82137217D02*
X208333609Y-82137217D01*
X208333609Y-82137217D02*
X208690752Y-82303884D01*
X208690752Y-82303884D02*
X208333609Y-82470550D01*
X208333609Y-82470550D02*
X208833609Y-82470550D01*
X208809800Y-82684837D02*
X208833609Y-82756265D01*
X208833609Y-82756265D02*
X208833609Y-82875313D01*
X208833609Y-82875313D02*
X208809800Y-82922932D01*
X208809800Y-82922932D02*
X208785990Y-82946741D01*
X208785990Y-82946741D02*
X208738371Y-82970551D01*
X208738371Y-82970551D02*
X208690752Y-82970551D01*
X208690752Y-82970551D02*
X208643133Y-82946741D01*
X208643133Y-82946741D02*
X208619323Y-82922932D01*
X208619323Y-82922932D02*
X208595514Y-82875313D01*
X208595514Y-82875313D02*
X208571704Y-82780075D01*
X208571704Y-82780075D02*
X208547895Y-82732456D01*
X208547895Y-82732456D02*
X208524085Y-82708646D01*
X208524085Y-82708646D02*
X208476466Y-82684837D01*
X208476466Y-82684837D02*
X208428847Y-82684837D01*
X208428847Y-82684837D02*
X208381228Y-82708646D01*
X208381228Y-82708646D02*
X208357419Y-82732456D01*
X208357419Y-82732456D02*
X208333609Y-82780075D01*
X208333609Y-82780075D02*
X208333609Y-82899122D01*
X208333609Y-82899122D02*
X208357419Y-82970551D01*
X208333609Y-96637217D02*
X208333609Y-96946741D01*
X208333609Y-96946741D02*
X208524085Y-96780074D01*
X208524085Y-96780074D02*
X208524085Y-96851503D01*
X208524085Y-96851503D02*
X208547895Y-96899122D01*
X208547895Y-96899122D02*
X208571704Y-96922931D01*
X208571704Y-96922931D02*
X208619323Y-96946741D01*
X208619323Y-96946741D02*
X208738371Y-96946741D01*
X208738371Y-96946741D02*
X208785990Y-96922931D01*
X208785990Y-96922931D02*
X208809800Y-96899122D01*
X208809800Y-96899122D02*
X208833609Y-96851503D01*
X208833609Y-96851503D02*
X208833609Y-96708646D01*
X208833609Y-96708646D02*
X208809800Y-96661027D01*
X208809800Y-96661027D02*
X208785990Y-96637217D01*
X208333609Y-97375312D02*
X208333609Y-97280074D01*
X208333609Y-97280074D02*
X208357419Y-97232455D01*
X208357419Y-97232455D02*
X208381228Y-97208645D01*
X208381228Y-97208645D02*
X208452657Y-97161026D01*
X208452657Y-97161026D02*
X208547895Y-97137217D01*
X208547895Y-97137217D02*
X208738371Y-97137217D01*
X208738371Y-97137217D02*
X208785990Y-97161026D01*
X208785990Y-97161026D02*
X208809800Y-97184836D01*
X208809800Y-97184836D02*
X208833609Y-97232455D01*
X208833609Y-97232455D02*
X208833609Y-97327693D01*
X208833609Y-97327693D02*
X208809800Y-97375312D01*
X208809800Y-97375312D02*
X208785990Y-97399121D01*
X208785990Y-97399121D02*
X208738371Y-97422931D01*
X208738371Y-97422931D02*
X208619323Y-97422931D01*
X208619323Y-97422931D02*
X208571704Y-97399121D01*
X208571704Y-97399121D02*
X208547895Y-97375312D01*
X208547895Y-97375312D02*
X208524085Y-97327693D01*
X208524085Y-97327693D02*
X208524085Y-97232455D01*
X208524085Y-97232455D02*
X208547895Y-97184836D01*
X208547895Y-97184836D02*
X208571704Y-97161026D01*
X208571704Y-97161026D02*
X208619323Y-97137217D01*
X208833609Y-88884836D02*
X208333609Y-88884836D01*
X208333609Y-88884836D02*
X208690752Y-89051503D01*
X208690752Y-89051503D02*
X208333609Y-89218169D01*
X208333609Y-89218169D02*
X208833609Y-89218169D01*
X208333609Y-89384837D02*
X208333609Y-89670551D01*
X208833609Y-89527694D02*
X208333609Y-89527694D01*
X208785990Y-90122931D02*
X208809800Y-90099122D01*
X208809800Y-90099122D02*
X208833609Y-90027693D01*
X208833609Y-90027693D02*
X208833609Y-89980074D01*
X208833609Y-89980074D02*
X208809800Y-89908646D01*
X208809800Y-89908646D02*
X208762180Y-89861027D01*
X208762180Y-89861027D02*
X208714561Y-89837217D01*
X208714561Y-89837217D02*
X208619323Y-89813408D01*
X208619323Y-89813408D02*
X208547895Y-89813408D01*
X208547895Y-89813408D02*
X208452657Y-89837217D01*
X208452657Y-89837217D02*
X208405038Y-89861027D01*
X208405038Y-89861027D02*
X208357419Y-89908646D01*
X208357419Y-89908646D02*
X208333609Y-89980074D01*
X208333609Y-89980074D02*
X208333609Y-90027693D01*
X208333609Y-90027693D02*
X208357419Y-90099122D01*
X208357419Y-90099122D02*
X208381228Y-90122931D01*
X208833609Y-90337217D02*
X208333609Y-90337217D01*
X208833609Y-90622931D02*
X208547895Y-90408646D01*
X208333609Y-90622931D02*
X208619323Y-90337217D01*
X208400276Y-73999122D02*
X208733609Y-73999122D01*
X208209800Y-73880074D02*
X208566942Y-73761027D01*
X208566942Y-73761027D02*
X208566942Y-74070550D01*
X208233609Y-74499121D02*
X208233609Y-74261026D01*
X208233609Y-74261026D02*
X208471704Y-74237217D01*
X208471704Y-74237217D02*
X208447895Y-74261026D01*
X208447895Y-74261026D02*
X208424085Y-74308645D01*
X208424085Y-74308645D02*
X208424085Y-74427693D01*
X208424085Y-74427693D02*
X208447895Y-74475312D01*
X208447895Y-74475312D02*
X208471704Y-74499121D01*
X208471704Y-74499121D02*
X208519323Y-74522931D01*
X208519323Y-74522931D02*
X208638371Y-74522931D01*
X208638371Y-74522931D02*
X208685990Y-74499121D01*
X208685990Y-74499121D02*
X208709800Y-74475312D01*
X208709800Y-74475312D02*
X208733609Y-74427693D01*
X208733609Y-74427693D02*
X208733609Y-74308645D01*
X208733609Y-74308645D02*
X208709800Y-74261026D01*
X208709800Y-74261026D02*
X208685990Y-74237217D01*
X208333609Y-98637217D02*
X208333609Y-98946741D01*
X208333609Y-98946741D02*
X208524085Y-98780074D01*
X208524085Y-98780074D02*
X208524085Y-98851503D01*
X208524085Y-98851503D02*
X208547895Y-98899122D01*
X208547895Y-98899122D02*
X208571704Y-98922931D01*
X208571704Y-98922931D02*
X208619323Y-98946741D01*
X208619323Y-98946741D02*
X208738371Y-98946741D01*
X208738371Y-98946741D02*
X208785990Y-98922931D01*
X208785990Y-98922931D02*
X208809800Y-98899122D01*
X208809800Y-98899122D02*
X208833609Y-98851503D01*
X208833609Y-98851503D02*
X208833609Y-98708646D01*
X208833609Y-98708646D02*
X208809800Y-98661027D01*
X208809800Y-98661027D02*
X208785990Y-98637217D01*
X208333609Y-99399121D02*
X208333609Y-99161026D01*
X208333609Y-99161026D02*
X208571704Y-99137217D01*
X208571704Y-99137217D02*
X208547895Y-99161026D01*
X208547895Y-99161026D02*
X208524085Y-99208645D01*
X208524085Y-99208645D02*
X208524085Y-99327693D01*
X208524085Y-99327693D02*
X208547895Y-99375312D01*
X208547895Y-99375312D02*
X208571704Y-99399121D01*
X208571704Y-99399121D02*
X208619323Y-99422931D01*
X208619323Y-99422931D02*
X208738371Y-99422931D01*
X208738371Y-99422931D02*
X208785990Y-99399121D01*
X208785990Y-99399121D02*
X208809800Y-99375312D01*
X208809800Y-99375312D02*
X208833609Y-99327693D01*
X208833609Y-99327693D02*
X208833609Y-99208645D01*
X208833609Y-99208645D02*
X208809800Y-99161026D01*
X208809800Y-99161026D02*
X208785990Y-99137217D01*
X208833609Y-76670550D02*
X208595514Y-76503884D01*
X208833609Y-76384836D02*
X208333609Y-76384836D01*
X208333609Y-76384836D02*
X208333609Y-76575312D01*
X208333609Y-76575312D02*
X208357419Y-76622931D01*
X208357419Y-76622931D02*
X208381228Y-76646741D01*
X208381228Y-76646741D02*
X208428847Y-76670550D01*
X208428847Y-76670550D02*
X208500276Y-76670550D01*
X208500276Y-76670550D02*
X208547895Y-76646741D01*
X208547895Y-76646741D02*
X208571704Y-76622931D01*
X208571704Y-76622931D02*
X208595514Y-76575312D01*
X208595514Y-76575312D02*
X208595514Y-76384836D01*
X208333609Y-76837217D02*
X208833609Y-77170550D01*
X208333609Y-77170550D02*
X208833609Y-76837217D01*
X208333609Y-93637217D02*
X208333609Y-93946741D01*
X208333609Y-93946741D02*
X208524085Y-93780074D01*
X208524085Y-93780074D02*
X208524085Y-93851503D01*
X208524085Y-93851503D02*
X208547895Y-93899122D01*
X208547895Y-93899122D02*
X208571704Y-93922931D01*
X208571704Y-93922931D02*
X208619323Y-93946741D01*
X208619323Y-93946741D02*
X208738371Y-93946741D01*
X208738371Y-93946741D02*
X208785990Y-93922931D01*
X208785990Y-93922931D02*
X208809800Y-93899122D01*
X208809800Y-93899122D02*
X208833609Y-93851503D01*
X208833609Y-93851503D02*
X208833609Y-93708646D01*
X208833609Y-93708646D02*
X208809800Y-93661027D01*
X208809800Y-93661027D02*
X208785990Y-93637217D01*
X208333609Y-94113407D02*
X208333609Y-94446740D01*
X208333609Y-94446740D02*
X208833609Y-94232455D01*
X208333609Y-101737217D02*
X208333609Y-102046741D01*
X208333609Y-102046741D02*
X208524085Y-101880074D01*
X208524085Y-101880074D02*
X208524085Y-101951503D01*
X208524085Y-101951503D02*
X208547895Y-101999122D01*
X208547895Y-101999122D02*
X208571704Y-102022931D01*
X208571704Y-102022931D02*
X208619323Y-102046741D01*
X208619323Y-102046741D02*
X208738371Y-102046741D01*
X208738371Y-102046741D02*
X208785990Y-102022931D01*
X208785990Y-102022931D02*
X208809800Y-101999122D01*
X208809800Y-101999122D02*
X208833609Y-101951503D01*
X208833609Y-101951503D02*
X208833609Y-101808646D01*
X208833609Y-101808646D02*
X208809800Y-101761027D01*
X208809800Y-101761027D02*
X208785990Y-101737217D01*
X208500276Y-102475312D02*
X208833609Y-102475312D01*
X208309800Y-102356264D02*
X208666942Y-102237217D01*
X208666942Y-102237217D02*
X208666942Y-102546740D01*
X208333609Y-104537217D02*
X208333609Y-104846741D01*
X208333609Y-104846741D02*
X208524085Y-104680074D01*
X208524085Y-104680074D02*
X208524085Y-104751503D01*
X208524085Y-104751503D02*
X208547895Y-104799122D01*
X208547895Y-104799122D02*
X208571704Y-104822931D01*
X208571704Y-104822931D02*
X208619323Y-104846741D01*
X208619323Y-104846741D02*
X208738371Y-104846741D01*
X208738371Y-104846741D02*
X208785990Y-104822931D01*
X208785990Y-104822931D02*
X208809800Y-104799122D01*
X208809800Y-104799122D02*
X208833609Y-104751503D01*
X208833609Y-104751503D02*
X208833609Y-104608646D01*
X208833609Y-104608646D02*
X208809800Y-104561027D01*
X208809800Y-104561027D02*
X208785990Y-104537217D01*
X208333609Y-105013407D02*
X208333609Y-105322931D01*
X208333609Y-105322931D02*
X208524085Y-105156264D01*
X208524085Y-105156264D02*
X208524085Y-105227693D01*
X208524085Y-105227693D02*
X208547895Y-105275312D01*
X208547895Y-105275312D02*
X208571704Y-105299121D01*
X208571704Y-105299121D02*
X208619323Y-105322931D01*
X208619323Y-105322931D02*
X208738371Y-105322931D01*
X208738371Y-105322931D02*
X208785990Y-105299121D01*
X208785990Y-105299121D02*
X208809800Y-105275312D01*
X208809800Y-105275312D02*
X208833609Y-105227693D01*
X208833609Y-105227693D02*
X208833609Y-105084836D01*
X208833609Y-105084836D02*
X208809800Y-105037217D01*
X208809800Y-105037217D02*
X208785990Y-105013407D01*
X208500276Y-71599122D02*
X208833609Y-71599122D01*
X208309800Y-71480074D02*
X208666942Y-71361027D01*
X208666942Y-71361027D02*
X208666942Y-71670550D01*
X208333609Y-72075312D02*
X208333609Y-71980074D01*
X208333609Y-71980074D02*
X208357419Y-71932455D01*
X208357419Y-71932455D02*
X208381228Y-71908645D01*
X208381228Y-71908645D02*
X208452657Y-71861026D01*
X208452657Y-71861026D02*
X208547895Y-71837217D01*
X208547895Y-71837217D02*
X208738371Y-71837217D01*
X208738371Y-71837217D02*
X208785990Y-71861026D01*
X208785990Y-71861026D02*
X208809800Y-71884836D01*
X208809800Y-71884836D02*
X208833609Y-71932455D01*
X208833609Y-71932455D02*
X208833609Y-72027693D01*
X208833609Y-72027693D02*
X208809800Y-72075312D01*
X208809800Y-72075312D02*
X208785990Y-72099121D01*
X208785990Y-72099121D02*
X208738371Y-72122931D01*
X208738371Y-72122931D02*
X208619323Y-72122931D01*
X208619323Y-72122931D02*
X208571704Y-72099121D01*
X208571704Y-72099121D02*
X208547895Y-72075312D01*
X208547895Y-72075312D02*
X208524085Y-72027693D01*
X208524085Y-72027693D02*
X208524085Y-71932455D01*
X208524085Y-71932455D02*
X208547895Y-71884836D01*
X208547895Y-71884836D02*
X208571704Y-71861026D01*
X208571704Y-71861026D02*
X208619323Y-71837217D01*
X208333609Y-78913408D02*
X208333609Y-79199122D01*
X208833609Y-79056265D02*
X208333609Y-79056265D01*
X208333609Y-79318169D02*
X208833609Y-79651502D01*
X208333609Y-79651502D02*
X208833609Y-79318169D01*
X202100000Y-114900000D02*
X204400000Y-114900000D01*
X204600000Y-115000000D02*
X204600000Y-112600000D01*
X204600000Y-112600000D02*
X207100000Y-112600000D01*
X204400000Y-114900000D02*
X204400000Y-112700000D01*
X207100000Y-115000000D02*
X204600000Y-115000000D01*
X202100000Y-112700000D02*
X202100000Y-114900000D01*
X207100000Y-112600000D02*
X207100000Y-115000000D01*
X204400000Y-112700000D02*
X202100000Y-112700000D01*
X204138972Y-112981228D02*
X204115163Y-112957419D01*
X204115163Y-112957419D02*
X204067544Y-112933609D01*
X204067544Y-112933609D02*
X203948496Y-112933609D01*
X203948496Y-112933609D02*
X203900877Y-112957419D01*
X203900877Y-112957419D02*
X203877068Y-112981228D01*
X203877068Y-112981228D02*
X203853258Y-113028847D01*
X203853258Y-113028847D02*
X203853258Y-113076466D01*
X203853258Y-113076466D02*
X203877068Y-113147895D01*
X203877068Y-113147895D02*
X204162782Y-113433609D01*
X204162782Y-113433609D02*
X203853258Y-113433609D01*
X203543735Y-112933609D02*
X203496116Y-112933609D01*
X203496116Y-112933609D02*
X203448497Y-112957419D01*
X203448497Y-112957419D02*
X203424687Y-112981228D01*
X203424687Y-112981228D02*
X203400878Y-113028847D01*
X203400878Y-113028847D02*
X203377068Y-113124085D01*
X203377068Y-113124085D02*
X203377068Y-113243133D01*
X203377068Y-113243133D02*
X203400878Y-113338371D01*
X203400878Y-113338371D02*
X203424687Y-113385990D01*
X203424687Y-113385990D02*
X203448497Y-113409800D01*
X203448497Y-113409800D02*
X203496116Y-113433609D01*
X203496116Y-113433609D02*
X203543735Y-113433609D01*
X203543735Y-113433609D02*
X203591354Y-113409800D01*
X203591354Y-113409800D02*
X203615163Y-113385990D01*
X203615163Y-113385990D02*
X203638973Y-113338371D01*
X203638973Y-113338371D02*
X203662782Y-113243133D01*
X203662782Y-113243133D02*
X203662782Y-113124085D01*
X203662782Y-113124085D02*
X203638973Y-113028847D01*
X203638973Y-113028847D02*
X203615163Y-112981228D01*
X203615163Y-112981228D02*
X203591354Y-112957419D01*
X203591354Y-112957419D02*
X203543735Y-112933609D01*
X203186592Y-112981228D02*
X203162783Y-112957419D01*
X203162783Y-112957419D02*
X203115164Y-112933609D01*
X203115164Y-112933609D02*
X202996116Y-112933609D01*
X202996116Y-112933609D02*
X202948497Y-112957419D01*
X202948497Y-112957419D02*
X202924688Y-112981228D01*
X202924688Y-112981228D02*
X202900878Y-113028847D01*
X202900878Y-113028847D02*
X202900878Y-113076466D01*
X202900878Y-113076466D02*
X202924688Y-113147895D01*
X202924688Y-113147895D02*
X203210402Y-113433609D01*
X203210402Y-113433609D02*
X202900878Y-113433609D01*
X202472307Y-112933609D02*
X202567545Y-112933609D01*
X202567545Y-112933609D02*
X202615164Y-112957419D01*
X202615164Y-112957419D02*
X202638974Y-112981228D01*
X202638974Y-112981228D02*
X202686593Y-113052657D01*
X202686593Y-113052657D02*
X202710402Y-113147895D01*
X202710402Y-113147895D02*
X202710402Y-113338371D01*
X202710402Y-113338371D02*
X202686593Y-113385990D01*
X202686593Y-113385990D02*
X202662783Y-113409800D01*
X202662783Y-113409800D02*
X202615164Y-113433609D01*
X202615164Y-113433609D02*
X202519926Y-113433609D01*
X202519926Y-113433609D02*
X202472307Y-113409800D01*
X202472307Y-113409800D02*
X202448498Y-113385990D01*
X202448498Y-113385990D02*
X202424688Y-113338371D01*
X202424688Y-113338371D02*
X202424688Y-113219323D01*
X202424688Y-113219323D02*
X202448498Y-113171704D01*
X202448498Y-113171704D02*
X202472307Y-113147895D01*
X202472307Y-113147895D02*
X202519926Y-113124085D01*
X202519926Y-113124085D02*
X202615164Y-113124085D01*
X202615164Y-113124085D02*
X202662783Y-113147895D01*
X202662783Y-113147895D02*
X202686593Y-113171704D01*
X202686593Y-113171704D02*
X202710402Y-113219323D01*
D11*
X204030326Y-113667219D02*
X204030326Y-114476742D01*
X204030326Y-114476742D02*
X203982707Y-114571980D01*
X203982707Y-114571980D02*
X203935088Y-114619600D01*
X203935088Y-114619600D02*
X203839850Y-114667219D01*
X203839850Y-114667219D02*
X203649374Y-114667219D01*
X203649374Y-114667219D02*
X203554136Y-114619600D01*
X203554136Y-114619600D02*
X203506517Y-114571980D01*
X203506517Y-114571980D02*
X203458898Y-114476742D01*
X203458898Y-114476742D02*
X203458898Y-113667219D01*
X202982707Y-113667219D02*
X202982707Y-114476742D01*
X202982707Y-114476742D02*
X202935088Y-114571980D01*
X202935088Y-114571980D02*
X202887469Y-114619600D01*
X202887469Y-114619600D02*
X202792231Y-114667219D01*
X202792231Y-114667219D02*
X202601755Y-114667219D01*
X202601755Y-114667219D02*
X202506517Y-114619600D01*
X202506517Y-114619600D02*
X202458898Y-114571980D01*
X202458898Y-114571980D02*
X202411279Y-114476742D01*
X202411279Y-114476742D02*
X202411279Y-113667219D01*
D10*
X206921427Y-112961760D02*
X206754760Y-112961760D01*
X206683332Y-113223665D02*
X206921427Y-113223665D01*
X206921427Y-113223665D02*
X206921427Y-112723665D01*
X206921427Y-112723665D02*
X206683332Y-112723665D01*
X206492855Y-113199856D02*
X206421427Y-113223665D01*
X206421427Y-113223665D02*
X206302379Y-113223665D01*
X206302379Y-113223665D02*
X206254760Y-113199856D01*
X206254760Y-113199856D02*
X206230951Y-113176046D01*
X206230951Y-113176046D02*
X206207141Y-113128427D01*
X206207141Y-113128427D02*
X206207141Y-113080808D01*
X206207141Y-113080808D02*
X206230951Y-113033189D01*
X206230951Y-113033189D02*
X206254760Y-113009379D01*
X206254760Y-113009379D02*
X206302379Y-112985570D01*
X206302379Y-112985570D02*
X206397617Y-112961760D01*
X206397617Y-112961760D02*
X206445236Y-112937951D01*
X206445236Y-112937951D02*
X206469046Y-112914141D01*
X206469046Y-112914141D02*
X206492855Y-112866522D01*
X206492855Y-112866522D02*
X206492855Y-112818903D01*
X206492855Y-112818903D02*
X206469046Y-112771284D01*
X206469046Y-112771284D02*
X206445236Y-112747475D01*
X206445236Y-112747475D02*
X206397617Y-112723665D01*
X206397617Y-112723665D02*
X206278570Y-112723665D01*
X206278570Y-112723665D02*
X206207141Y-112747475D01*
X205992856Y-113223665D02*
X205992856Y-112723665D01*
X205992856Y-112723665D02*
X205802380Y-112723665D01*
X205802380Y-112723665D02*
X205754761Y-112747475D01*
X205754761Y-112747475D02*
X205730951Y-112771284D01*
X205730951Y-112771284D02*
X205707142Y-112818903D01*
X205707142Y-112818903D02*
X205707142Y-112890332D01*
X205707142Y-112890332D02*
X205730951Y-112937951D01*
X205730951Y-112937951D02*
X205754761Y-112961760D01*
X205754761Y-112961760D02*
X205802380Y-112985570D01*
X205802380Y-112985570D02*
X205992856Y-112985570D01*
X205540475Y-112723665D02*
X205230951Y-112723665D01*
X205230951Y-112723665D02*
X205397618Y-112914141D01*
X205397618Y-112914141D02*
X205326189Y-112914141D01*
X205326189Y-112914141D02*
X205278570Y-112937951D01*
X205278570Y-112937951D02*
X205254761Y-112961760D01*
X205254761Y-112961760D02*
X205230951Y-113009379D01*
X205230951Y-113009379D02*
X205230951Y-113128427D01*
X205230951Y-113128427D02*
X205254761Y-113176046D01*
X205254761Y-113176046D02*
X205278570Y-113199856D01*
X205278570Y-113199856D02*
X205326189Y-113223665D01*
X205326189Y-113223665D02*
X205469046Y-113223665D01*
X205469046Y-113223665D02*
X205516665Y-113199856D01*
X205516665Y-113199856D02*
X205540475Y-113176046D01*
X205040475Y-112771284D02*
X205016666Y-112747475D01*
X205016666Y-112747475D02*
X204969047Y-112723665D01*
X204969047Y-112723665D02*
X204849999Y-112723665D01*
X204849999Y-112723665D02*
X204802380Y-112747475D01*
X204802380Y-112747475D02*
X204778571Y-112771284D01*
X204778571Y-112771284D02*
X204754761Y-112818903D01*
X204754761Y-112818903D02*
X204754761Y-112866522D01*
X204754761Y-112866522D02*
X204778571Y-112937951D01*
X204778571Y-112937951D02*
X205064285Y-113223665D01*
X205064285Y-113223665D02*
X204754761Y-113223665D01*
X206230951Y-114004828D02*
X206159523Y-114028637D01*
X206159523Y-114028637D02*
X206040475Y-114028637D01*
X206040475Y-114028637D02*
X205992856Y-114004828D01*
X205992856Y-114004828D02*
X205969047Y-113981018D01*
X205969047Y-113981018D02*
X205945237Y-113933399D01*
X205945237Y-113933399D02*
X205945237Y-113885780D01*
X205945237Y-113885780D02*
X205969047Y-113838161D01*
X205969047Y-113838161D02*
X205992856Y-113814351D01*
X205992856Y-113814351D02*
X206040475Y-113790542D01*
X206040475Y-113790542D02*
X206135713Y-113766732D01*
X206135713Y-113766732D02*
X206183332Y-113742923D01*
X206183332Y-113742923D02*
X206207142Y-113719113D01*
X206207142Y-113719113D02*
X206230951Y-113671494D01*
X206230951Y-113671494D02*
X206230951Y-113623875D01*
X206230951Y-113623875D02*
X206207142Y-113576256D01*
X206207142Y-113576256D02*
X206183332Y-113552447D01*
X206183332Y-113552447D02*
X206135713Y-113528637D01*
X206135713Y-113528637D02*
X206016666Y-113528637D01*
X206016666Y-113528637D02*
X205945237Y-113552447D01*
X205778571Y-113528637D02*
X205469047Y-113528637D01*
X205469047Y-113528637D02*
X205635714Y-113719113D01*
X205635714Y-113719113D02*
X205564285Y-113719113D01*
X205564285Y-113719113D02*
X205516666Y-113742923D01*
X205516666Y-113742923D02*
X205492857Y-113766732D01*
X205492857Y-113766732D02*
X205469047Y-113814351D01*
X205469047Y-113814351D02*
X205469047Y-113933399D01*
X205469047Y-113933399D02*
X205492857Y-113981018D01*
X205492857Y-113981018D02*
X205516666Y-114004828D01*
X205516666Y-114004828D02*
X205564285Y-114028637D01*
X205564285Y-114028637D02*
X205707142Y-114028637D01*
X205707142Y-114028637D02*
X205754761Y-114004828D01*
X205754761Y-114004828D02*
X205778571Y-113981018D01*
X206516666Y-114833609D02*
X206516666Y-114333609D01*
X206516666Y-114333609D02*
X206349999Y-114690752D01*
X206349999Y-114690752D02*
X206183333Y-114333609D01*
X206183333Y-114333609D02*
X206183333Y-114833609D01*
X205945237Y-114833609D02*
X205945237Y-114333609D01*
X205707142Y-114833609D02*
X205707142Y-114333609D01*
X205707142Y-114333609D02*
X205421428Y-114833609D01*
X205421428Y-114833609D02*
X205421428Y-114333609D01*
X205183332Y-114833609D02*
X205183332Y-114333609D01*
M02*
