%TF.GenerationSoftware,KiCad,Pcbnew,9.0.7-9.0.7~ubuntu22.04.1*%
%TF.CreationDate,2026-02-16T00:19:48-07:00*%
%TF.ProjectId,ESP32-S3-MINI-1_UU,45535033-322d-4533-932d-4d494e492d31,rev?*%
%TF.SameCoordinates,Original*%
%TF.FileFunction,Copper,L2,Bot*%
%TF.FilePolarity,Positive*%
%FSLAX46Y46*%
G04 Gerber Fmt 4.6, Leading zero omitted, Abs format (unit mm)*
G04 Created by KiCad (PCBNEW 9.0.7-9.0.7~ubuntu22.04.1) date 2026-02-16 00:19:48*
%MOMM*%
%LPD*%
G01*
G04 APERTURE LIST*
%TA.AperFunction,ComponentPad*%
%ADD10R,1.600000X1.600000*%
%TD*%
%TA.AperFunction,ComponentPad*%
%ADD11C,1.600000*%
%TD*%
%TA.AperFunction,ComponentPad*%
%ADD12C,1.460000*%
%TD*%
%TA.AperFunction,CastellatedPad*%
%ADD13R,1.600000X1.600000*%
%TD*%
%TA.AperFunction,CastellatedPad*%
%ADD14C,1.600000*%
%TD*%
%TA.AperFunction,ViaPad*%
%ADD15C,0.500000*%
%TD*%
%TA.AperFunction,ViaPad*%
%ADD16C,0.600000*%
%TD*%
%TA.AperFunction,Conductor*%
%ADD17C,0.400000*%
%TD*%
%TA.AperFunction,Conductor*%
%ADD18C,0.150000*%
%TD*%
%TA.AperFunction,Conductor*%
%ADD19C,0.200000*%
%TD*%
G04 APERTURE END LIST*
D10*
%TO.P,J8,1,1*%
%TO.N,3V3*%
X172240000Y-119350000D03*
D11*
%TO.P,J8,2,2*%
%TO.N,LED*%
X172240000Y-121890000D03*
%TO.P,J8,3,3*%
%TO.N,IO3*%
X172240000Y-124430000D03*
%TO.P,J8,4,4*%
%TO.N,IO4*%
X172240000Y-126970000D03*
%TO.P,J8,5,5*%
%TO.N,IO5*%
X172240000Y-129510000D03*
%TO.P,J8,6,6*%
%TO.N,IO6*%
X172240000Y-132050000D03*
%TO.P,J8,7,7*%
%TO.N,IO7*%
X172240000Y-134590000D03*
%TO.P,J8,8,8*%
%TO.N,IO10*%
X172240000Y-137130000D03*
%TO.P,J8,9,9*%
%TO.N,IO11*%
X172240000Y-139670000D03*
%TO.P,J8,10,10*%
%TO.N,IO12*%
X172240000Y-142210000D03*
%TO.P,J8,11,11*%
%TO.N,IO13*%
X172240000Y-144750000D03*
%TO.P,J8,12,12*%
%TO.N,IO14*%
X172240000Y-147290000D03*
%TO.P,J8,13,13*%
%TO.N,IO15*%
X172240000Y-149830000D03*
%TO.P,J8,14,14*%
%TO.N,IO16*%
X172240000Y-152370000D03*
%TO.P,J8,15,15*%
%TO.N,IO17*%
X172240000Y-154910000D03*
%TO.P,J8,16,16*%
%TO.N,IO18*%
X172240000Y-157450000D03*
%TD*%
D10*
%TO.P,J7,1,1*%
%TO.N,5V_IN*%
X174780000Y-158733000D03*
%TD*%
%TO.P,J4,1,1*%
%TO.N,GND*%
X172240000Y-114270000D03*
%TD*%
D12*
%TO.P,J2,MH1,MH1*%
%TO.N,GND*%
X180635000Y-137450000D03*
%TO.P,J2,MH2,MH2*%
X180635000Y-132650000D03*
%TO.P,J2,MH3,MH3*%
X184935000Y-132650000D03*
%TO.P,J2,MH4,MH4*%
X184935000Y-137450000D03*
%TD*%
D13*
%TO.P,J9,1,1*%
%TO.N,IO46*%
X192560000Y-114270000D03*
D14*
%TO.P,J9,2,2*%
%TO.N,IO45*%
X192560000Y-116810000D03*
%TO.P,J9,3,3*%
%TO.N,RX*%
X192560000Y-119350000D03*
%TO.P,J9,4,4*%
%TO.N,TX*%
X192560000Y-121890000D03*
%TO.P,J9,5,5*%
%TO.N,MTMS*%
X192560000Y-124430000D03*
%TO.P,J9,6,6*%
%TO.N,MTDI*%
X192560000Y-126970000D03*
%TO.P,J9,7,7*%
%TO.N,MTDO*%
X192560000Y-129510000D03*
%TO.P,J9,8,8*%
%TO.N,MTCK*%
X192560000Y-132050000D03*
%TO.P,J9,9,9*%
%TO.N,IO38*%
X192560000Y-134590000D03*
%TO.P,J9,10,10*%
%TO.N,IO37*%
X192560000Y-137130000D03*
%TO.P,J9,11,11*%
%TO.N,IO36*%
X192560000Y-139670000D03*
%TO.P,J9,12,12*%
%TO.N,IO35*%
X192560000Y-142210000D03*
%TO.P,J9,13,13*%
%TO.N,IO34*%
X192560000Y-144750000D03*
%TO.P,J9,14,14*%
%TO.N,IO33*%
X192560000Y-147290000D03*
%TO.P,J9,15,15*%
%TO.N,IO47*%
X192560000Y-149830000D03*
%TO.P,J9,16,16*%
%TO.N,IO26*%
X192560000Y-152370000D03*
%TO.P,J9,17,17*%
%TO.N,IO21*%
X192560000Y-154910000D03*
%TO.P,J9,18,18*%
%TO.N,GND*%
X192560000Y-157450000D03*
%TD*%
D15*
%TO.N,GND*%
X179300000Y-123500000D03*
X188500000Y-145300000D03*
X184925000Y-142000000D03*
D16*
X176600000Y-145800000D03*
D15*
X178100000Y-157800000D03*
X179300000Y-146900000D03*
X189200000Y-138600000D03*
D16*
X178150000Y-142800000D03*
D15*
X180600000Y-157800000D03*
D16*
X191000000Y-156000000D03*
D15*
X181100000Y-150900000D03*
X176650000Y-115300000D03*
X187200000Y-148700000D03*
X174600000Y-156600000D03*
D16*
X180660000Y-139800000D03*
D15*
X178400000Y-138050000D03*
X176423000Y-126800000D03*
X183000000Y-146400000D03*
X182000000Y-143600000D03*
X184900000Y-130800000D03*
D16*
X184600000Y-139800000D03*
X185785000Y-136050000D03*
D15*
X181100000Y-142200000D03*
X177650000Y-140400000D03*
X186500000Y-126100000D03*
X189600000Y-148000000D03*
X189400000Y-128775000D03*
X180136000Y-134800000D03*
X186600000Y-115500000D03*
X176400000Y-123700000D03*
X179200000Y-126800000D03*
D16*
X182785000Y-133050000D03*
X182785000Y-137050000D03*
D15*
X182300000Y-148900000D03*
X177200000Y-133300000D03*
X180650000Y-130800000D03*
D16*
X188300000Y-122700000D03*
%TO.N,V_USB*%
X179300000Y-157800000D03*
X176000000Y-141000000D03*
D15*
%TO.N,IO36*%
X188300000Y-125381823D03*
%TO.N,IO35*%
X188347135Y-126254671D03*
D16*
%TO.N,BAT_ALRT*%
X176400000Y-118250000D03*
X182700000Y-144100000D03*
D15*
%TO.N,LED*%
X179200000Y-131100000D03*
D16*
X174700000Y-119100000D03*
D15*
%TO.N,IO37*%
X188300000Y-124550000D03*
D16*
%TO.N,3V3*%
X183840320Y-143088998D03*
X176000000Y-139775000D03*
X177075000Y-140925000D03*
X173900000Y-117700000D03*
%TO.N,SCL*%
X180000000Y-125050000D03*
D15*
X186475000Y-142200000D03*
X180194000Y-145240000D03*
D16*
%TO.N,SDA*%
X180000000Y-124200000D03*
D15*
X187200000Y-139974949D03*
X179200000Y-145800000D03*
D16*
X186300000Y-144300000D03*
%TO.N,D+*%
X184785000Y-134800000D03*
X183250000Y-130050000D03*
X180785000Y-135300000D03*
D15*
%TO.N,RGB*%
X189400000Y-129600000D03*
X188900000Y-144300000D03*
D16*
%TO.N,D-*%
X184785000Y-135600000D03*
X182400000Y-130050000D03*
X180785000Y-134400000D03*
%TO.N,Net-(S1-NO)*%
X178150000Y-136800000D03*
X177125000Y-121050000D03*
D15*
%TO.N,Net-(S2-NO)*%
X188200000Y-115550000D03*
X188900000Y-136800000D03*
%TO.N,IO12*%
X174400000Y-132000000D03*
%TO.N,IO11*%
X175400000Y-129050000D03*
X176400000Y-126050000D03*
X174276000Y-131200000D03*
%TO.N,IO38*%
X188300000Y-123550000D03*
%TO.N,V_SYS*%
X177900000Y-148400000D03*
D16*
X177467500Y-145500000D03*
D15*
X178810731Y-149567286D03*
%TD*%
D17*
%TO.N,V_USB*%
X175650000Y-154200000D02*
X179250000Y-157800000D01*
X175650000Y-141350000D02*
X175650000Y-154200000D01*
X179250000Y-157800000D02*
X179300000Y-157800000D01*
X176000000Y-141000000D02*
X175650000Y-141350000D01*
D18*
%TO.N,IO36*%
X191299000Y-138409000D02*
X192560000Y-139670000D01*
X189000000Y-125900000D02*
X190298000Y-127198000D01*
X190298000Y-134594389D02*
X191049000Y-135345388D01*
X188299488Y-125381311D02*
X188818177Y-125900000D01*
X188818177Y-125900000D02*
X189000000Y-125900000D01*
X191049000Y-135345388D02*
X191049000Y-136149000D01*
X191299000Y-136399000D02*
X191299000Y-138409000D01*
X190298000Y-127198000D02*
X190298000Y-134594389D01*
X191049000Y-136149000D02*
X191299000Y-136399000D01*
%TO.N,IO35*%
X190698000Y-136294389D02*
X190698000Y-135498000D01*
X190900000Y-136496389D02*
X190698000Y-136294389D01*
X188892464Y-126800000D02*
X188347135Y-126254671D01*
X189947000Y-127347000D02*
X189400000Y-126800000D01*
X192560000Y-142210000D02*
X190900000Y-140550000D01*
X189947000Y-134747000D02*
X189947000Y-127347000D01*
X189400000Y-126800000D02*
X188892464Y-126800000D01*
X190900000Y-140550000D02*
X190900000Y-136496389D01*
X192370000Y-141520000D02*
X192525000Y-141520000D01*
X190698000Y-135498000D02*
X189947000Y-134747000D01*
%TO.N,BAT_ALRT*%
X186800000Y-138400000D02*
X186800000Y-129300000D01*
X176450000Y-118300000D02*
X176400000Y-118250000D01*
X178600000Y-120250000D02*
X176650000Y-118300000D01*
X184300000Y-144200000D02*
X185500000Y-143000000D01*
X179300000Y-126100000D02*
X178600000Y-125400000D01*
X185500000Y-143000000D02*
X185500000Y-139700000D01*
X185500000Y-139700000D02*
X186800000Y-138400000D01*
X178600000Y-125400000D02*
X178600000Y-120250000D01*
X186800000Y-129300000D02*
X183600000Y-126100000D01*
X182700000Y-144100000D02*
X182800000Y-144200000D01*
X182800000Y-144200000D02*
X184300000Y-144200000D01*
X183600000Y-126100000D02*
X179300000Y-126100000D01*
X176650000Y-118300000D02*
X176450000Y-118300000D01*
%TO.N,LED*%
X176025000Y-119100000D02*
X174700000Y-119100000D01*
D19*
X174700000Y-119100000D02*
X174650000Y-119050000D01*
D18*
X179200000Y-131100000D02*
X179200000Y-129850000D01*
X178200000Y-128850000D02*
X178200000Y-121275000D01*
X179200000Y-129850000D02*
X178200000Y-128850000D01*
X178200000Y-121275000D02*
X176025000Y-119100000D01*
%TO.N,IO37*%
X188900000Y-125050000D02*
X190649000Y-126799000D01*
X191400000Y-135200000D02*
X191400000Y-135970000D01*
X190649000Y-134449000D02*
X191400000Y-135200000D01*
X190649000Y-126799000D02*
X190649000Y-134449000D01*
X188343192Y-124682552D02*
X188710640Y-125050000D01*
X191400000Y-135970000D02*
X192560000Y-137130000D01*
X188710640Y-125050000D02*
X188900000Y-125050000D01*
D17*
%TO.N,3V3*%
X173949000Y-119400000D02*
X173949000Y-128649000D01*
X173900000Y-117700000D02*
X173949000Y-117749000D01*
X176000000Y-130700000D02*
X176000000Y-139775000D01*
X177059370Y-140909370D02*
X177059370Y-140834370D01*
X181802322Y-141051000D02*
X177201000Y-141051000D01*
X177075000Y-140922138D02*
X177097138Y-140900000D01*
X177075000Y-140925000D02*
X177075000Y-140922138D01*
X177059370Y-140834370D02*
X176000000Y-139775000D01*
X177201000Y-141051000D02*
X177075000Y-140925000D01*
X172441000Y-119400000D02*
X172441000Y-119350000D01*
X183840320Y-143088998D02*
X181802322Y-141051000D01*
X173949000Y-119400000D02*
X172441000Y-119400000D01*
X173949000Y-117749000D02*
X173949000Y-119400000D01*
X177075000Y-140925000D02*
X177059370Y-140909370D01*
X173949000Y-128649000D02*
X176000000Y-130700000D01*
D18*
%TO.N,SCL*%
X186475000Y-143175000D02*
X184450000Y-145200000D01*
X186500000Y-139900000D02*
X187709000Y-138691000D01*
X180234000Y-145200000D02*
X180194000Y-145240000D01*
X186475000Y-142200000D02*
X186475000Y-143175000D01*
X184450000Y-145200000D02*
X180234000Y-145200000D01*
X187709000Y-129005388D02*
X183753612Y-125050000D01*
X187709000Y-138691000D02*
X187709000Y-129005388D01*
D19*
X186386000Y-142100000D02*
X186400000Y-142086000D01*
D18*
X186400000Y-142086000D02*
X186500000Y-141986000D01*
X183753612Y-125050000D02*
X180000000Y-125050000D01*
X186500000Y-141986000D02*
X186500000Y-139900000D01*
%TO.N,SDA*%
X180000000Y-124200000D02*
X183400000Y-124200000D01*
X187229487Y-139945462D02*
X187229487Y-139830513D01*
X179200000Y-145800000D02*
X184800000Y-145800000D01*
X187229487Y-139830513D02*
X188060000Y-139000000D01*
X183400000Y-124200000D02*
X188000000Y-128800000D01*
X187000000Y-143600000D02*
X186300000Y-144300000D01*
X188060000Y-139000000D02*
X188060000Y-128800000D01*
X184800000Y-145800000D02*
X186300000Y-144300000D01*
X187200000Y-139974949D02*
X187000000Y-140174949D01*
X187000000Y-140174949D02*
X187000000Y-143600000D01*
%TO.N,D+*%
X183581000Y-132981000D02*
X183581000Y-130381000D01*
X184785000Y-134800000D02*
X184785000Y-134185000D01*
X184785000Y-134185000D02*
X183581000Y-132981000D01*
D19*
X182900000Y-134800000D02*
X184785000Y-134800000D01*
X182400000Y-135300000D02*
X182900000Y-134800000D01*
D18*
X183581000Y-130381000D02*
X183250000Y-130050000D01*
D19*
X180785000Y-135300000D02*
X182400000Y-135300000D01*
D18*
%TO.N,RGB*%
X188900000Y-144300000D02*
X188900000Y-141050000D01*
X189300000Y-129600000D02*
X189400000Y-129600000D01*
X189426000Y-137017877D02*
X189426000Y-129701000D01*
X189900000Y-137491877D02*
X189426000Y-137017877D01*
D19*
X189400000Y-129500000D02*
X189400000Y-129600000D01*
D18*
X189900000Y-140050000D02*
X189900000Y-137491877D01*
X188900000Y-141050000D02*
X189900000Y-140050000D01*
%TO.N,D-*%
X181989000Y-130461000D02*
X182400000Y-130050000D01*
X181989000Y-133096000D02*
X181989000Y-130461000D01*
X180785000Y-134300000D02*
X181989000Y-133096000D01*
D19*
X180785000Y-134400000D02*
X180785000Y-134300000D01*
D18*
%TO.N,Net-(S1-NO)*%
X177125000Y-121050000D02*
X177125000Y-121125000D01*
X178000000Y-129150000D02*
X178150000Y-129300000D01*
X178000000Y-129146389D02*
X178000000Y-129150000D01*
X177849000Y-121849000D02*
X177849000Y-128995389D01*
X178150000Y-129300000D02*
X178150000Y-136800000D01*
X177849000Y-128995389D02*
X178000000Y-129146389D01*
X177125000Y-121125000D02*
X177849000Y-121849000D01*
D19*
%TO.N,Net-(S2-NO)*%
X188150000Y-115651000D02*
X188200000Y-115601000D01*
D18*
X189075000Y-136625000D02*
X189075000Y-130100000D01*
X189075000Y-130100000D02*
X188874000Y-129899000D01*
X188874000Y-129899000D02*
X188874000Y-128274000D01*
X188874000Y-128274000D02*
X187200000Y-126600000D01*
X187200000Y-126600000D02*
X187200000Y-116451000D01*
D19*
X188150000Y-115550000D02*
X188201000Y-115601000D01*
D18*
X188900000Y-136800000D02*
X189075000Y-136625000D01*
X187200000Y-116451000D02*
X188000000Y-115651000D01*
X188900000Y-136800000D02*
X188900000Y-136700000D01*
%TO.N,IO12*%
X174200000Y-132200000D02*
X174200000Y-140326000D01*
X174200000Y-140326000D02*
X172316000Y-142210000D01*
X174400000Y-132000000D02*
X174200000Y-132200000D01*
%TO.N,IO11*%
X173800000Y-131676000D02*
X173800000Y-138500000D01*
X175400000Y-127050000D02*
X176400000Y-126050000D01*
X172630000Y-139670000D02*
X172316000Y-139670000D01*
X174276000Y-131200000D02*
X173800000Y-131676000D01*
X175400000Y-129050000D02*
X175400000Y-127050000D01*
X173800000Y-138500000D02*
X172630000Y-139670000D01*
%TO.N,IO38*%
X188300000Y-123550000D02*
X191000000Y-126250000D01*
X188150000Y-123550000D02*
X188400000Y-123550000D01*
X192560000Y-134590000D02*
X191000000Y-133030000D01*
X191000000Y-126250000D02*
X191000000Y-133030000D01*
D17*
%TO.N,V_SYS*%
X177467500Y-147967500D02*
X177467500Y-145500000D01*
X177900000Y-148400000D02*
X177467500Y-147967500D01*
X178810731Y-149310731D02*
X178810731Y-149567286D01*
X177900000Y-148400000D02*
X178810731Y-149310731D01*
%TD*%
%TA.AperFunction,Conductor*%
%TO.N,GND*%
G36*
X183246664Y-131915175D02*
G01*
X183293356Y-131967153D01*
X183305500Y-132020672D01*
X183305500Y-133035800D01*
X183325797Y-133084800D01*
X183347443Y-133137058D01*
X183347444Y-133137059D01*
X184456104Y-134245719D01*
X184460441Y-134253663D01*
X184467689Y-134259088D01*
X184476925Y-134283850D01*
X184489589Y-134307042D01*
X184488943Y-134316070D01*
X184492107Y-134324552D01*
X184486490Y-134350374D01*
X184484605Y-134376734D01*
X184478787Y-134385786D01*
X184477256Y-134392826D01*
X184456105Y-134421080D01*
X184414006Y-134463180D01*
X184352684Y-134496666D01*
X184326324Y-134499500D01*
X182860438Y-134499500D01*
X182784010Y-134519978D01*
X182715489Y-134559540D01*
X182715486Y-134559542D01*
X182311848Y-134963181D01*
X182250525Y-134996666D01*
X182224167Y-134999500D01*
X181243676Y-134999500D01*
X181214235Y-134990855D01*
X181184249Y-134984332D01*
X181179233Y-134980577D01*
X181176637Y-134979815D01*
X181155995Y-134963181D01*
X181130495Y-134937681D01*
X181097010Y-134876358D01*
X181101994Y-134806666D01*
X181130495Y-134762319D01*
X181155253Y-134737561D01*
X181185500Y-134707314D01*
X181251392Y-134593186D01*
X181285500Y-134465892D01*
X181285500Y-134334108D01*
X181273388Y-134288905D01*
X181275049Y-134219058D01*
X181305479Y-134169134D01*
X182222557Y-133252059D01*
X182249895Y-133186058D01*
X182264500Y-133150800D01*
X182264500Y-132020672D01*
X182284185Y-131953633D01*
X182336989Y-131907878D01*
X182406147Y-131897934D01*
X182449588Y-131914580D01*
X182450182Y-131913471D01*
X182455563Y-131916347D01*
X182545581Y-131953633D01*
X182582130Y-131968772D01*
X182582134Y-131968772D01*
X182582135Y-131968773D01*
X182716496Y-131995500D01*
X182716499Y-131995500D01*
X182853503Y-131995500D01*
X182960627Y-131974191D01*
X182987870Y-131968772D01*
X183114443Y-131916344D01*
X183114448Y-131916340D01*
X183119818Y-131913471D01*
X183120661Y-131915048D01*
X183179284Y-131896692D01*
X183246664Y-131915175D01*
G37*
%TD.AperFunction*%
%TA.AperFunction,Conductor*%
G36*
X192502539Y-113020185D02*
G01*
X192548294Y-113072989D01*
X192559500Y-113124500D01*
X192559500Y-113145500D01*
X192539815Y-113212539D01*
X192487011Y-113258294D01*
X192435500Y-113269500D01*
X191740247Y-113269500D01*
X191681770Y-113281131D01*
X191681769Y-113281132D01*
X191615447Y-113325447D01*
X191571132Y-113391769D01*
X191571131Y-113391770D01*
X191559500Y-113450247D01*
X191559500Y-115089752D01*
X191571131Y-115148229D01*
X191571132Y-115148230D01*
X191615447Y-115214552D01*
X191681769Y-115258867D01*
X191681770Y-115258868D01*
X191740247Y-115270499D01*
X191740250Y-115270500D01*
X191740252Y-115270500D01*
X192435500Y-115270500D01*
X192502539Y-115290185D01*
X192548294Y-115342989D01*
X192559500Y-115394500D01*
X192559500Y-115688234D01*
X192539815Y-115755273D01*
X192487011Y-115801028D01*
X192459692Y-115809851D01*
X192268170Y-115847947D01*
X192268160Y-115847950D01*
X192086092Y-115923364D01*
X192086079Y-115923371D01*
X191922218Y-116032860D01*
X191922214Y-116032863D01*
X191782863Y-116172214D01*
X191782860Y-116172218D01*
X191673371Y-116336079D01*
X191673364Y-116336092D01*
X191597950Y-116518160D01*
X191597947Y-116518170D01*
X191559500Y-116711456D01*
X191559500Y-116711459D01*
X191559500Y-116908541D01*
X191559500Y-116908543D01*
X191559499Y-116908543D01*
X191597947Y-117101829D01*
X191597950Y-117101839D01*
X191673364Y-117283907D01*
X191673371Y-117283920D01*
X191782860Y-117447781D01*
X191782863Y-117447785D01*
X191922214Y-117587136D01*
X191922218Y-117587139D01*
X192086079Y-117696628D01*
X192086092Y-117696635D01*
X192268160Y-117772049D01*
X192268165Y-117772051D01*
X192459691Y-117810148D01*
X192521602Y-117842533D01*
X192556176Y-117903248D01*
X192559500Y-117931765D01*
X192559500Y-118228234D01*
X192539815Y-118295273D01*
X192487011Y-118341028D01*
X192459692Y-118349851D01*
X192268170Y-118387947D01*
X192268160Y-118387950D01*
X192086092Y-118463364D01*
X192086079Y-118463371D01*
X191922218Y-118572860D01*
X191922214Y-118572863D01*
X191782863Y-118712214D01*
X191782860Y-118712218D01*
X191673371Y-118876079D01*
X191673364Y-118876092D01*
X191597950Y-119058160D01*
X191597947Y-119058170D01*
X191559500Y-119251456D01*
X191559500Y-119251459D01*
X191559500Y-119448541D01*
X191559500Y-119448543D01*
X191559499Y-119448543D01*
X191597947Y-119641829D01*
X191597950Y-119641839D01*
X191673364Y-119823907D01*
X191673371Y-119823920D01*
X191782860Y-119987781D01*
X191782863Y-119987785D01*
X191922214Y-120127136D01*
X191922218Y-120127139D01*
X192086079Y-120236628D01*
X192086092Y-120236635D01*
X192225918Y-120294552D01*
X192268165Y-120312051D01*
X192459691Y-120350148D01*
X192521602Y-120382533D01*
X192556176Y-120443248D01*
X192559500Y-120471765D01*
X192559500Y-120768234D01*
X192539815Y-120835273D01*
X192487011Y-120881028D01*
X192459692Y-120889851D01*
X192268170Y-120927947D01*
X192268160Y-120927950D01*
X192086092Y-121003364D01*
X192086079Y-121003371D01*
X191922218Y-121112860D01*
X191922214Y-121112863D01*
X191782863Y-121252214D01*
X191782860Y-121252218D01*
X191673371Y-121416079D01*
X191673364Y-121416092D01*
X191597950Y-121598160D01*
X191597947Y-121598170D01*
X191559500Y-121791456D01*
X191559500Y-121791459D01*
X191559500Y-121988541D01*
X191559500Y-121988543D01*
X191559499Y-121988543D01*
X191597947Y-122181829D01*
X191597950Y-122181839D01*
X191673364Y-122363907D01*
X191673371Y-122363920D01*
X191782860Y-122527781D01*
X191782863Y-122527785D01*
X191922214Y-122667136D01*
X191922218Y-122667139D01*
X192086079Y-122776628D01*
X192086092Y-122776635D01*
X192268160Y-122852049D01*
X192268165Y-122852051D01*
X192459691Y-122890148D01*
X192521602Y-122922533D01*
X192556176Y-122983248D01*
X192559500Y-123011765D01*
X192559500Y-123308234D01*
X192539815Y-123375273D01*
X192487011Y-123421028D01*
X192459692Y-123429851D01*
X192268170Y-123467947D01*
X192268160Y-123467950D01*
X192086092Y-123543364D01*
X192086079Y-123543371D01*
X191922218Y-123652860D01*
X191922214Y-123652863D01*
X191782863Y-123792214D01*
X191782860Y-123792218D01*
X191673371Y-123956079D01*
X191673364Y-123956092D01*
X191597950Y-124138160D01*
X191597947Y-124138170D01*
X191559500Y-124331456D01*
X191559500Y-124331459D01*
X191559500Y-124528541D01*
X191559500Y-124528543D01*
X191559499Y-124528543D01*
X191597947Y-124721829D01*
X191597950Y-124721839D01*
X191673364Y-124903907D01*
X191673371Y-124903920D01*
X191782860Y-125067781D01*
X191782863Y-125067785D01*
X191922214Y-125207136D01*
X191922218Y-125207139D01*
X192086079Y-125316628D01*
X192086092Y-125316635D01*
X192268160Y-125392049D01*
X192268165Y-125392051D01*
X192459691Y-125430148D01*
X192521602Y-125462533D01*
X192556176Y-125523248D01*
X192559500Y-125551765D01*
X192559500Y-125848234D01*
X192539815Y-125915273D01*
X192487011Y-125961028D01*
X192459692Y-125969851D01*
X192268170Y-126007947D01*
X192268160Y-126007950D01*
X192086092Y-126083364D01*
X192086079Y-126083371D01*
X191922218Y-126192860D01*
X191922214Y-126192863D01*
X191782863Y-126332214D01*
X191782860Y-126332218D01*
X191673371Y-126496079D01*
X191673364Y-126496092D01*
X191597950Y-126678160D01*
X191597947Y-126678170D01*
X191559500Y-126871456D01*
X191559500Y-126871459D01*
X191559500Y-127068541D01*
X191559500Y-127068543D01*
X191559499Y-127068543D01*
X191597947Y-127261829D01*
X191597950Y-127261839D01*
X191673364Y-127443907D01*
X191673371Y-127443920D01*
X191782860Y-127607781D01*
X191782863Y-127607785D01*
X191922214Y-127747136D01*
X191922218Y-127747139D01*
X192086079Y-127856628D01*
X192086092Y-127856635D01*
X192268160Y-127932049D01*
X192268165Y-127932051D01*
X192459691Y-127970148D01*
X192521602Y-128002533D01*
X192556176Y-128063248D01*
X192559500Y-128091765D01*
X192559500Y-128388234D01*
X192539815Y-128455273D01*
X192487011Y-128501028D01*
X192459692Y-128509851D01*
X192268170Y-128547947D01*
X192268160Y-128547950D01*
X192086092Y-128623364D01*
X192086079Y-128623371D01*
X191922218Y-128732860D01*
X191922214Y-128732863D01*
X191782863Y-128872214D01*
X191782860Y-128872218D01*
X191673371Y-129036079D01*
X191673364Y-129036092D01*
X191597950Y-129218160D01*
X191597947Y-129218170D01*
X191559500Y-129411456D01*
X191559500Y-129411459D01*
X191559500Y-129608541D01*
X191559500Y-129608543D01*
X191559499Y-129608543D01*
X191597947Y-129801829D01*
X191597950Y-129801839D01*
X191673364Y-129983907D01*
X191673371Y-129983920D01*
X191782860Y-130147781D01*
X191782863Y-130147785D01*
X191922214Y-130287136D01*
X191922218Y-130287139D01*
X192086079Y-130396628D01*
X192086092Y-130396635D01*
X192224803Y-130454090D01*
X192268165Y-130472051D01*
X192459691Y-130510148D01*
X192521602Y-130542533D01*
X192556176Y-130603248D01*
X192559500Y-130631765D01*
X192559500Y-130928234D01*
X192539815Y-130995273D01*
X192487011Y-131041028D01*
X192459692Y-131049851D01*
X192268170Y-131087947D01*
X192268160Y-131087950D01*
X192086092Y-131163364D01*
X192086079Y-131163371D01*
X191922218Y-131272860D01*
X191922214Y-131272863D01*
X191782863Y-131412214D01*
X191782860Y-131412218D01*
X191673371Y-131576079D01*
X191673364Y-131576092D01*
X191597950Y-131758160D01*
X191597947Y-131758170D01*
X191559500Y-131951456D01*
X191559500Y-131951459D01*
X191559500Y-132148541D01*
X191559500Y-132148543D01*
X191559499Y-132148543D01*
X191597947Y-132341829D01*
X191597950Y-132341839D01*
X191673364Y-132523907D01*
X191673371Y-132523920D01*
X191782860Y-132687781D01*
X191782863Y-132687785D01*
X191922214Y-132827136D01*
X191922218Y-132827139D01*
X192086079Y-132936628D01*
X192086092Y-132936635D01*
X192268160Y-133012049D01*
X192268165Y-133012051D01*
X192459691Y-133050148D01*
X192521602Y-133082533D01*
X192556176Y-133143248D01*
X192559500Y-133171765D01*
X192559500Y-133468234D01*
X192539815Y-133535273D01*
X192487011Y-133581028D01*
X192459692Y-133589851D01*
X192268170Y-133627947D01*
X192268169Y-133627948D01*
X192268168Y-133627948D01*
X192268165Y-133627949D01*
X192211194Y-133651547D01*
X192146296Y-133678428D01*
X192076826Y-133685896D01*
X192014347Y-133654620D01*
X192011163Y-133651547D01*
X191311819Y-132952203D01*
X191278334Y-132890880D01*
X191275500Y-132864522D01*
X191275500Y-126195201D01*
X191275499Y-126195198D01*
X191267340Y-126175500D01*
X191267340Y-126175499D01*
X191233560Y-126093944D01*
X188786819Y-123647203D01*
X188753334Y-123585880D01*
X188750500Y-123559522D01*
X188750500Y-123490693D01*
X188750500Y-123490691D01*
X188719799Y-123376114D01*
X188660489Y-123273387D01*
X188576613Y-123189511D01*
X188473886Y-123130201D01*
X188359309Y-123099500D01*
X188240691Y-123099500D01*
X188126114Y-123130201D01*
X188126112Y-123130201D01*
X188126112Y-123130202D01*
X188023387Y-123189511D01*
X188023384Y-123189513D01*
X187939513Y-123273384D01*
X187939511Y-123273387D01*
X187880687Y-123375273D01*
X187880201Y-123376114D01*
X187849500Y-123490691D01*
X187849500Y-123609309D01*
X187880201Y-123723886D01*
X187939511Y-123826613D01*
X188023387Y-123910489D01*
X188079027Y-123942613D01*
X188127242Y-123993181D01*
X188140464Y-124061788D01*
X188114496Y-124126653D01*
X188079027Y-124157387D01*
X188023387Y-124189511D01*
X188023384Y-124189513D01*
X187939513Y-124273384D01*
X187939511Y-124273387D01*
X187905985Y-124331456D01*
X187880201Y-124376114D01*
X187849500Y-124490691D01*
X187849500Y-124609309D01*
X187880201Y-124723886D01*
X187939511Y-124826613D01*
X187939513Y-124826615D01*
X187991128Y-124878230D01*
X188024613Y-124939553D01*
X188019629Y-125009245D01*
X187991129Y-125053591D01*
X187939514Y-125105206D01*
X187939511Y-125105210D01*
X187880201Y-125207937D01*
X187849500Y-125322514D01*
X187849500Y-125441132D01*
X187880201Y-125555709D01*
X187939511Y-125658436D01*
X188023387Y-125742312D01*
X188023393Y-125742315D01*
X188023808Y-125742634D01*
X188024076Y-125743001D01*
X188029134Y-125748059D01*
X188028345Y-125748847D01*
X188065014Y-125799060D01*
X188069173Y-125868805D01*
X188036009Y-125928694D01*
X187986649Y-125978054D01*
X187986646Y-125978058D01*
X187927336Y-126080785D01*
X187896635Y-126195362D01*
X187896635Y-126313980D01*
X187927336Y-126428557D01*
X187986646Y-126531284D01*
X188070522Y-126615160D01*
X188173249Y-126674470D01*
X188287826Y-126705171D01*
X188287829Y-126705171D01*
X188356657Y-126705171D01*
X188423696Y-126724856D01*
X188444338Y-126741490D01*
X188736408Y-127033560D01*
X188814721Y-127065997D01*
X188837664Y-127075500D01*
X189234523Y-127075500D01*
X189301562Y-127095185D01*
X189322204Y-127111819D01*
X189635181Y-127424796D01*
X189668666Y-127486119D01*
X189671500Y-127512477D01*
X189671500Y-129044756D01*
X189651815Y-129111795D01*
X189599011Y-129157550D01*
X189529853Y-129167494D01*
X189515408Y-129164531D01*
X189459310Y-129149500D01*
X189459309Y-129149500D01*
X189340691Y-129149500D01*
X189340686Y-129149500D01*
X189305591Y-129158904D01*
X189235741Y-129157240D01*
X189177880Y-129118077D01*
X189150377Y-129053848D01*
X189149500Y-129039129D01*
X189149500Y-128219201D01*
X189149498Y-128219196D01*
X189107560Y-128117944D01*
X187511819Y-126522203D01*
X187478334Y-126460880D01*
X187475500Y-126434522D01*
X187475500Y-116616476D01*
X187495185Y-116549437D01*
X187511815Y-116528799D01*
X188010747Y-116029866D01*
X188072068Y-115996383D01*
X188130521Y-115997775D01*
X188134709Y-115998897D01*
X188140691Y-116000500D01*
X188140692Y-116000500D01*
X188259306Y-116000500D01*
X188259309Y-116000500D01*
X188373886Y-115969799D01*
X188476613Y-115910489D01*
X188560489Y-115826613D01*
X188619799Y-115723886D01*
X188650500Y-115609309D01*
X188650500Y-115490691D01*
X188619799Y-115376114D01*
X188560489Y-115273387D01*
X188476613Y-115189511D01*
X188373886Y-115130201D01*
X188259309Y-115099500D01*
X188140691Y-115099500D01*
X188026114Y-115130201D01*
X188026112Y-115130201D01*
X188026112Y-115130202D01*
X187923387Y-115189511D01*
X187923384Y-115189513D01*
X187839513Y-115273384D01*
X187839511Y-115273387D01*
X187780201Y-115376112D01*
X187750342Y-115487549D01*
X187718248Y-115543136D01*
X187043942Y-116217443D01*
X186966444Y-116294940D01*
X186966443Y-116294941D01*
X186966443Y-116294942D01*
X186924500Y-116396200D01*
X186924500Y-126654800D01*
X186966443Y-126756058D01*
X186966444Y-126756059D01*
X188562181Y-128351796D01*
X188595666Y-128413119D01*
X188598500Y-128439477D01*
X188598500Y-129953800D01*
X188620147Y-130006059D01*
X188640443Y-130055058D01*
X188640444Y-130055059D01*
X188763181Y-130177796D01*
X188796666Y-130239119D01*
X188799500Y-130265477D01*
X188799500Y-136266949D01*
X188779815Y-136333988D01*
X188732492Y-136374993D01*
X188733153Y-136376137D01*
X188727217Y-136379563D01*
X188727011Y-136379743D01*
X188726589Y-136379926D01*
X188623387Y-136439511D01*
X188623384Y-136439513D01*
X188547181Y-136515717D01*
X188485858Y-136549202D01*
X188416166Y-136544218D01*
X188360233Y-136502346D01*
X188335816Y-136436882D01*
X188335500Y-136428036D01*
X188335500Y-128745201D01*
X188335500Y-128745200D01*
X188293557Y-128643942D01*
X188216058Y-128566443D01*
X188216057Y-128566442D01*
X188216055Y-128566441D01*
X188136417Y-128533453D01*
X188096190Y-128506574D01*
X183556059Y-123966444D01*
X183556058Y-123966443D01*
X183526228Y-123954087D01*
X183526225Y-123954085D01*
X183526224Y-123954085D01*
X183454802Y-123924500D01*
X183454800Y-123924500D01*
X180483676Y-123924500D01*
X180416637Y-123904815D01*
X180395995Y-123888181D01*
X180307316Y-123799502D01*
X180307314Y-123799500D01*
X180250250Y-123766554D01*
X180193187Y-123733608D01*
X180129539Y-123716554D01*
X180065892Y-123699500D01*
X179934108Y-123699500D01*
X179806812Y-123733608D01*
X179692686Y-123799500D01*
X179692683Y-123799502D01*
X179599502Y-123892683D01*
X179599500Y-123892686D01*
X179533608Y-124006812D01*
X179518878Y-124061788D01*
X179499500Y-124134108D01*
X179499500Y-124265892D01*
X179501508Y-124273387D01*
X179533608Y-124393187D01*
X179566554Y-124450250D01*
X179599500Y-124507314D01*
X179599502Y-124507316D01*
X179629505Y-124537319D01*
X179662990Y-124598642D01*
X179658006Y-124668334D01*
X179629505Y-124712681D01*
X179599502Y-124742683D01*
X179599500Y-124742686D01*
X179533608Y-124856812D01*
X179499500Y-124984108D01*
X179499500Y-125115891D01*
X179533608Y-125243187D01*
X179558260Y-125285884D01*
X179599500Y-125357314D01*
X179692686Y-125450500D01*
X179806814Y-125516392D01*
X179934108Y-125550500D01*
X179934110Y-125550500D01*
X180065890Y-125550500D01*
X180065892Y-125550500D01*
X180193186Y-125516392D01*
X180307314Y-125450500D01*
X180395995Y-125361819D01*
X180457318Y-125328334D01*
X180483676Y-125325500D01*
X183588135Y-125325500D01*
X183655174Y-125345185D01*
X183675816Y-125361819D01*
X187397181Y-129083184D01*
X187430666Y-129144507D01*
X187433500Y-129170865D01*
X187433500Y-138525522D01*
X187413815Y-138592561D01*
X187397181Y-138613203D01*
X186343942Y-139666443D01*
X186266444Y-139743940D01*
X186224500Y-139845199D01*
X186224500Y-141762035D01*
X186204815Y-141829074D01*
X186188182Y-141849716D01*
X186114511Y-141923387D01*
X186055201Y-142026114D01*
X186024500Y-142140691D01*
X186024500Y-142259309D01*
X186055201Y-142373886D01*
X186114511Y-142476613D01*
X186114513Y-142476615D01*
X186163181Y-142525283D01*
X186196666Y-142586606D01*
X186199500Y-142612964D01*
X186199500Y-143009522D01*
X186179815Y-143076561D01*
X186163181Y-143097203D01*
X184372204Y-144888181D01*
X184310881Y-144921666D01*
X184284523Y-144924500D01*
X180566964Y-144924500D01*
X180499925Y-144904815D01*
X180479283Y-144888181D01*
X180470615Y-144879513D01*
X180470613Y-144879511D01*
X180367886Y-144820201D01*
X180253309Y-144789500D01*
X180134691Y-144789500D01*
X180020114Y-144820201D01*
X180020112Y-144820201D01*
X180020112Y-144820202D01*
X179917387Y-144879511D01*
X179917384Y-144879513D01*
X179833513Y-144963384D01*
X179833511Y-144963387D01*
X179788219Y-145041835D01*
X179774201Y-145066114D01*
X179743500Y-145180691D01*
X179743500Y-145299309D01*
X179745511Y-145306814D01*
X179762015Y-145368407D01*
X179761419Y-145393401D01*
X179764978Y-145418147D01*
X179760602Y-145427727D01*
X179760352Y-145438257D01*
X179746339Y-145458960D01*
X179735953Y-145481703D01*
X179727091Y-145487397D01*
X179721189Y-145496119D01*
X179698208Y-145505960D01*
X179677175Y-145519477D01*
X179661319Y-145521756D01*
X179656961Y-145523623D01*
X179642240Y-145524500D01*
X179612964Y-145524500D01*
X179545925Y-145504815D01*
X179525283Y-145488181D01*
X179476615Y-145439513D01*
X179476613Y-145439511D01*
X179373886Y-145380201D01*
X179259309Y-145349500D01*
X179140691Y-145349500D01*
X179026114Y-145380201D01*
X179026112Y-145380201D01*
X179026112Y-145380202D01*
X178923387Y-145439511D01*
X178923384Y-145439513D01*
X178839513Y-145523384D01*
X178839511Y-145523387D01*
X178814971Y-145565892D01*
X178780201Y-145626114D01*
X178749500Y-145740691D01*
X178749500Y-145859309D01*
X178780201Y-145973886D01*
X178839511Y-146076613D01*
X178923387Y-146160489D01*
X179026114Y-146219799D01*
X179140691Y-146250500D01*
X179140694Y-146250500D01*
X179259306Y-146250500D01*
X179259309Y-146250500D01*
X179373886Y-146219799D01*
X179476613Y-146160489D01*
X179525283Y-146111819D01*
X179586606Y-146078334D01*
X179612964Y-146075500D01*
X184854799Y-146075500D01*
X184854800Y-146075500D01*
X184956058Y-146033557D01*
X185033557Y-145956058D01*
X185033556Y-145956058D01*
X185092125Y-145897489D01*
X185092124Y-145897489D01*
X186152796Y-144836819D01*
X186214119Y-144803334D01*
X186240477Y-144800500D01*
X186365890Y-144800500D01*
X186365892Y-144800500D01*
X186493186Y-144766392D01*
X186607314Y-144700500D01*
X186700500Y-144607314D01*
X186766392Y-144493186D01*
X186800500Y-144365892D01*
X186800500Y-144240477D01*
X186820185Y-144173438D01*
X186836819Y-144152796D01*
X186966231Y-144023384D01*
X187233557Y-143756059D01*
X187256984Y-143699500D01*
X187275500Y-143654800D01*
X187275500Y-140516258D01*
X187295185Y-140449219D01*
X187347989Y-140403464D01*
X187367404Y-140396484D01*
X187373886Y-140394748D01*
X187476613Y-140335438D01*
X187560489Y-140251562D01*
X187619799Y-140148835D01*
X187650500Y-140034258D01*
X187650500Y-139915640D01*
X187644404Y-139892889D01*
X187646065Y-139823043D01*
X187676495Y-139773118D01*
X188293558Y-139156058D01*
X188293558Y-139156056D01*
X188293560Y-139156055D01*
X188314529Y-139105429D01*
X188335500Y-139054800D01*
X188335500Y-138945200D01*
X188335500Y-137171964D01*
X188355185Y-137104925D01*
X188407989Y-137059170D01*
X188477147Y-137049226D01*
X188540703Y-137078251D01*
X188547181Y-137084283D01*
X188623387Y-137160489D01*
X188726114Y-137219799D01*
X188840691Y-137250500D01*
X188840694Y-137250500D01*
X188959306Y-137250500D01*
X188959309Y-137250500D01*
X189073886Y-137219799D01*
X189073888Y-137219797D01*
X189073890Y-137219797D01*
X189073891Y-137219796D01*
X189095723Y-137207192D01*
X189163623Y-137190718D01*
X189229650Y-137213570D01*
X189245405Y-137226897D01*
X189588181Y-137569673D01*
X189621666Y-137630996D01*
X189624500Y-137657354D01*
X189624500Y-139884522D01*
X189604815Y-139951561D01*
X189588181Y-139972203D01*
X188743942Y-140816443D01*
X188666444Y-140893940D01*
X188666443Y-140893941D01*
X188666443Y-140893942D01*
X188654159Y-140923596D01*
X188624500Y-140995199D01*
X188624500Y-143887036D01*
X188604815Y-143954075D01*
X188588181Y-143974717D01*
X188539513Y-144023384D01*
X188539511Y-144023387D01*
X188480201Y-144126114D01*
X188449500Y-144240691D01*
X188449500Y-144359309D01*
X188480201Y-144473886D01*
X188539511Y-144576613D01*
X188623387Y-144660489D01*
X188726114Y-144719799D01*
X188840691Y-144750500D01*
X188840694Y-144750500D01*
X188959306Y-144750500D01*
X188959309Y-144750500D01*
X189073886Y-144719799D01*
X189176613Y-144660489D01*
X189260489Y-144576613D01*
X189319799Y-144473886D01*
X189350500Y-144359309D01*
X189350500Y-144240691D01*
X189319799Y-144126114D01*
X189260489Y-144023387D01*
X189211819Y-143974717D01*
X189178334Y-143913394D01*
X189175500Y-143887036D01*
X189175500Y-141215477D01*
X189195185Y-141148438D01*
X189211819Y-141127796D01*
X189646932Y-140692683D01*
X190133558Y-140206058D01*
X190133558Y-140206056D01*
X190133560Y-140206055D01*
X190159296Y-140143920D01*
X190175500Y-140104800D01*
X190175500Y-139995200D01*
X190175500Y-137437077D01*
X190133557Y-137335819D01*
X190133557Y-137335818D01*
X189737819Y-136940080D01*
X189704334Y-136878757D01*
X189701500Y-136852399D01*
X189701500Y-135190477D01*
X189721185Y-135123438D01*
X189773989Y-135077683D01*
X189843147Y-135067739D01*
X189906703Y-135096764D01*
X189913181Y-135102796D01*
X190386181Y-135575796D01*
X190419666Y-135637119D01*
X190422500Y-135663477D01*
X190422500Y-136349189D01*
X190454645Y-136426793D01*
X190464443Y-136450447D01*
X190591604Y-136577608D01*
X190594747Y-136581284D01*
X190607147Y-136608918D01*
X190621666Y-136635507D01*
X190622481Y-136643089D01*
X190623352Y-136645030D01*
X190622965Y-136647595D01*
X190624500Y-136661866D01*
X190624500Y-140604800D01*
X190651568Y-140670148D01*
X190660904Y-140692685D01*
X190660904Y-140692686D01*
X190666443Y-140706059D01*
X191621547Y-141661163D01*
X191655032Y-141722486D01*
X191650048Y-141792178D01*
X191648428Y-141796296D01*
X191597949Y-141918165D01*
X191597948Y-141918168D01*
X191597948Y-141918169D01*
X191597947Y-141918170D01*
X191559500Y-142111456D01*
X191559500Y-142111459D01*
X191559500Y-142308541D01*
X191559500Y-142308543D01*
X191559499Y-142308543D01*
X191597947Y-142501829D01*
X191597950Y-142501839D01*
X191673364Y-142683907D01*
X191673371Y-142683920D01*
X191782860Y-142847781D01*
X191782863Y-142847785D01*
X191922214Y-142987136D01*
X191922218Y-142987139D01*
X192086079Y-143096628D01*
X192086092Y-143096635D01*
X192268160Y-143172049D01*
X192268165Y-143172051D01*
X192459691Y-143210148D01*
X192521602Y-143242533D01*
X192556176Y-143303248D01*
X192559500Y-143331765D01*
X192559500Y-143628234D01*
X192539815Y-143695273D01*
X192487011Y-143741028D01*
X192459692Y-143749851D01*
X192268170Y-143787947D01*
X192268160Y-143787950D01*
X192086092Y-143863364D01*
X192086079Y-143863371D01*
X191922218Y-143972860D01*
X191922214Y-143972863D01*
X191782863Y-144112214D01*
X191782860Y-144112218D01*
X191673371Y-144276079D01*
X191673364Y-144276092D01*
X191597950Y-144458160D01*
X191597947Y-144458170D01*
X191559500Y-144651456D01*
X191559500Y-144651459D01*
X191559500Y-144848541D01*
X191559500Y-144848543D01*
X191559499Y-144848543D01*
X191597947Y-145041829D01*
X191597950Y-145041839D01*
X191673364Y-145223907D01*
X191673371Y-145223920D01*
X191782860Y-145387781D01*
X191782863Y-145387785D01*
X191922214Y-145527136D01*
X191922218Y-145527139D01*
X192086079Y-145636628D01*
X192086092Y-145636635D01*
X192268160Y-145712049D01*
X192268165Y-145712051D01*
X192459691Y-145750148D01*
X192521602Y-145782533D01*
X192556176Y-145843248D01*
X192559500Y-145871765D01*
X192559500Y-146168234D01*
X192539815Y-146235273D01*
X192487011Y-146281028D01*
X192459692Y-146289851D01*
X192268170Y-146327947D01*
X192268160Y-146327950D01*
X192086092Y-146403364D01*
X192086079Y-146403371D01*
X191922218Y-146512860D01*
X191922214Y-146512863D01*
X191782863Y-146652214D01*
X191782860Y-146652218D01*
X191673371Y-146816079D01*
X191673364Y-146816092D01*
X191597950Y-146998160D01*
X191597947Y-146998170D01*
X191559500Y-147191456D01*
X191559500Y-147191459D01*
X191559500Y-147388541D01*
X191559500Y-147388543D01*
X191559499Y-147388543D01*
X191597947Y-147581829D01*
X191597950Y-147581839D01*
X191673364Y-147763907D01*
X191673371Y-147763920D01*
X191782860Y-147927781D01*
X191782863Y-147927785D01*
X191922214Y-148067136D01*
X191922218Y-148067139D01*
X192086079Y-148176628D01*
X192086092Y-148176635D01*
X192205547Y-148226114D01*
X192268165Y-148252051D01*
X192459691Y-148290148D01*
X192521602Y-148322533D01*
X192556176Y-148383248D01*
X192559500Y-148411765D01*
X192559500Y-148708234D01*
X192539815Y-148775273D01*
X192487011Y-148821028D01*
X192459692Y-148829851D01*
X192268170Y-148867947D01*
X192268160Y-148867950D01*
X192086092Y-148943364D01*
X192086079Y-148943371D01*
X191922218Y-149052860D01*
X191922214Y-149052863D01*
X191782863Y-149192214D01*
X191782860Y-149192218D01*
X191673371Y-149356079D01*
X191673364Y-149356092D01*
X191597950Y-149538160D01*
X191597947Y-149538170D01*
X191559500Y-149731456D01*
X191559500Y-149731459D01*
X191559500Y-149928541D01*
X191559500Y-149928543D01*
X191559499Y-149928543D01*
X191597947Y-150121829D01*
X191597950Y-150121839D01*
X191673364Y-150303907D01*
X191673371Y-150303920D01*
X191782860Y-150467781D01*
X191782863Y-150467785D01*
X191922214Y-150607136D01*
X191922218Y-150607139D01*
X192086079Y-150716628D01*
X192086092Y-150716635D01*
X192268160Y-150792049D01*
X192268165Y-150792051D01*
X192459691Y-150830148D01*
X192521602Y-150862533D01*
X192556176Y-150923248D01*
X192559500Y-150951765D01*
X192559500Y-151248234D01*
X192539815Y-151315273D01*
X192487011Y-151361028D01*
X192459692Y-151369851D01*
X192268170Y-151407947D01*
X192268160Y-151407950D01*
X192086092Y-151483364D01*
X192086079Y-151483371D01*
X191922218Y-151592860D01*
X191922214Y-151592863D01*
X191782863Y-151732214D01*
X191782860Y-151732218D01*
X191673371Y-151896079D01*
X191673364Y-151896092D01*
X191597950Y-152078160D01*
X191597947Y-152078170D01*
X191559500Y-152271456D01*
X191559500Y-152271459D01*
X191559500Y-152468541D01*
X191559500Y-152468543D01*
X191559499Y-152468543D01*
X191597947Y-152661829D01*
X191597950Y-152661839D01*
X191673364Y-152843907D01*
X191673371Y-152843920D01*
X191782860Y-153007781D01*
X191782863Y-153007785D01*
X191922214Y-153147136D01*
X191922218Y-153147139D01*
X192086079Y-153256628D01*
X192086092Y-153256635D01*
X192268160Y-153332049D01*
X192268165Y-153332051D01*
X192459691Y-153370148D01*
X192521602Y-153402533D01*
X192556176Y-153463248D01*
X192559500Y-153491765D01*
X192559500Y-153788234D01*
X192539815Y-153855273D01*
X192487011Y-153901028D01*
X192459692Y-153909851D01*
X192268170Y-153947947D01*
X192268160Y-153947950D01*
X192086092Y-154023364D01*
X192086079Y-154023371D01*
X191922218Y-154132860D01*
X191922214Y-154132863D01*
X191782863Y-154272214D01*
X191782860Y-154272218D01*
X191673371Y-154436079D01*
X191673364Y-154436092D01*
X191597950Y-154618160D01*
X191597947Y-154618170D01*
X191559500Y-154811456D01*
X191559500Y-154811459D01*
X191559500Y-155008541D01*
X191559500Y-155008543D01*
X191559499Y-155008543D01*
X191597947Y-155201829D01*
X191597950Y-155201839D01*
X191673364Y-155383907D01*
X191673371Y-155383920D01*
X191782860Y-155547781D01*
X191782863Y-155547785D01*
X191922214Y-155687136D01*
X191922218Y-155687139D01*
X192086079Y-155796628D01*
X192086092Y-155796635D01*
X192268160Y-155872049D01*
X192268165Y-155872051D01*
X192400674Y-155898409D01*
X192449061Y-155908034D01*
X192510972Y-155940419D01*
X192545546Y-156001134D01*
X192541807Y-156070904D01*
X192500940Y-156127576D01*
X192444269Y-156152124D01*
X192255581Y-156182010D01*
X192060968Y-156245244D01*
X191878644Y-156338143D01*
X191834077Y-156370523D01*
X191834077Y-156370524D01*
X192513554Y-157050000D01*
X192507339Y-157050000D01*
X192405606Y-157077259D01*
X192314394Y-157129920D01*
X192239920Y-157204394D01*
X192187259Y-157295606D01*
X192160000Y-157397339D01*
X192160000Y-157403553D01*
X191480524Y-156724077D01*
X191480523Y-156724077D01*
X191448143Y-156768644D01*
X191355244Y-156950968D01*
X191292009Y-157145582D01*
X191260000Y-157347682D01*
X191260000Y-157552317D01*
X191292009Y-157754417D01*
X191355244Y-157949031D01*
X191448141Y-158131350D01*
X191448147Y-158131359D01*
X191480523Y-158175921D01*
X191480524Y-158175922D01*
X192160000Y-157496446D01*
X192160000Y-157502661D01*
X192187259Y-157604394D01*
X192239920Y-157695606D01*
X192314394Y-157770080D01*
X192405606Y-157822741D01*
X192507339Y-157850000D01*
X192513552Y-157850000D01*
X191834077Y-158529473D01*
X191838508Y-158585771D01*
X191824144Y-158654148D01*
X191775093Y-158703905D01*
X191714890Y-158719500D01*
X175904500Y-158719500D01*
X175837461Y-158699815D01*
X175791706Y-158647011D01*
X175780500Y-158595500D01*
X175780500Y-157913249D01*
X175780499Y-157913247D01*
X175768868Y-157854770D01*
X175768867Y-157854769D01*
X175724552Y-157788447D01*
X175658230Y-157744132D01*
X175658229Y-157744131D01*
X175599752Y-157732500D01*
X175599748Y-157732500D01*
X173960252Y-157732500D01*
X173960247Y-157732500D01*
X173901770Y-157744131D01*
X173901769Y-157744132D01*
X173835447Y-157788447D01*
X173791132Y-157854769D01*
X173791131Y-157854770D01*
X173779500Y-157913247D01*
X173779500Y-158595500D01*
X173759815Y-158662539D01*
X173707011Y-158708294D01*
X173655500Y-158719500D01*
X172364500Y-158719500D01*
X172355814Y-158716949D01*
X172346853Y-158718238D01*
X172322812Y-158707259D01*
X172297461Y-158699815D01*
X172291533Y-158692974D01*
X172283297Y-158689213D01*
X172269007Y-158666978D01*
X172251706Y-158647011D01*
X172249418Y-158636496D01*
X172245523Y-158630435D01*
X172240500Y-158595500D01*
X172240500Y-158571765D01*
X172260185Y-158504726D01*
X172312989Y-158458971D01*
X172340306Y-158450148D01*
X172531835Y-158412051D01*
X172713914Y-158336632D01*
X172877782Y-158227139D01*
X173017139Y-158087782D01*
X173126632Y-157923914D01*
X173202051Y-157741835D01*
X173240500Y-157548541D01*
X173240500Y-157351459D01*
X173240500Y-157351456D01*
X173202052Y-157158170D01*
X173202051Y-157158169D01*
X173202051Y-157158165D01*
X173157248Y-157050000D01*
X173126635Y-156976092D01*
X173126628Y-156976079D01*
X173017139Y-156812218D01*
X173017136Y-156812214D01*
X172877785Y-156672863D01*
X172877781Y-156672860D01*
X172713920Y-156563371D01*
X172713907Y-156563364D01*
X172531839Y-156487950D01*
X172531829Y-156487947D01*
X172340308Y-156449851D01*
X172278397Y-156417466D01*
X172243823Y-156356750D01*
X172240500Y-156328234D01*
X172240500Y-156031765D01*
X172260185Y-155964726D01*
X172312989Y-155918971D01*
X172340306Y-155910148D01*
X172531835Y-155872051D01*
X172713914Y-155796632D01*
X172877782Y-155687139D01*
X173017139Y-155547782D01*
X173126632Y-155383914D01*
X173202051Y-155201835D01*
X173240500Y-155008541D01*
X173240500Y-154811459D01*
X173240500Y-154811456D01*
X173202052Y-154618170D01*
X173202051Y-154618169D01*
X173202051Y-154618165D01*
X173202049Y-154618160D01*
X173126635Y-154436092D01*
X173126628Y-154436079D01*
X173017139Y-154272218D01*
X173017136Y-154272214D01*
X172877785Y-154132863D01*
X172877781Y-154132860D01*
X172713920Y-154023371D01*
X172713907Y-154023364D01*
X172531839Y-153947950D01*
X172531829Y-153947947D01*
X172340308Y-153909851D01*
X172278397Y-153877466D01*
X172243823Y-153816750D01*
X172240500Y-153788234D01*
X172240500Y-153491765D01*
X172260185Y-153424726D01*
X172312989Y-153378971D01*
X172340306Y-153370148D01*
X172531835Y-153332051D01*
X172713914Y-153256632D01*
X172877782Y-153147139D01*
X173017139Y-153007782D01*
X173126632Y-152843914D01*
X173202051Y-152661835D01*
X173240500Y-152468541D01*
X173240500Y-152271459D01*
X173240500Y-152271456D01*
X173202052Y-152078170D01*
X173202051Y-152078169D01*
X173202051Y-152078165D01*
X173202049Y-152078160D01*
X173126635Y-151896092D01*
X173126628Y-151896079D01*
X173017139Y-151732218D01*
X173017136Y-151732214D01*
X172877785Y-151592863D01*
X172877781Y-151592860D01*
X172713920Y-151483371D01*
X172713907Y-151483364D01*
X172531839Y-151407950D01*
X172531829Y-151407947D01*
X172340308Y-151369851D01*
X172278397Y-151337466D01*
X172243823Y-151276750D01*
X172240500Y-151248234D01*
X172240500Y-150951765D01*
X172260185Y-150884726D01*
X172312989Y-150838971D01*
X172340306Y-150830148D01*
X172531835Y-150792051D01*
X172713914Y-150716632D01*
X172877782Y-150607139D01*
X173017139Y-150467782D01*
X173126632Y-150303914D01*
X173202051Y-150121835D01*
X173240500Y-149928541D01*
X173240500Y-149731459D01*
X173240500Y-149731456D01*
X173202052Y-149538170D01*
X173202051Y-149538169D01*
X173202051Y-149538165D01*
X173186208Y-149499916D01*
X173126635Y-149356092D01*
X173126628Y-149356079D01*
X173017139Y-149192218D01*
X173017136Y-149192214D01*
X172877785Y-149052863D01*
X172877781Y-149052860D01*
X172713920Y-148943371D01*
X172713907Y-148943364D01*
X172531839Y-148867950D01*
X172531829Y-148867947D01*
X172340308Y-148829851D01*
X172278397Y-148797466D01*
X172243823Y-148736750D01*
X172240500Y-148708234D01*
X172240500Y-148411765D01*
X172260185Y-148344726D01*
X172312989Y-148298971D01*
X172340306Y-148290148D01*
X172531835Y-148252051D01*
X172713914Y-148176632D01*
X172877782Y-148067139D01*
X173017139Y-147927782D01*
X173126632Y-147763914D01*
X173202051Y-147581835D01*
X173240500Y-147388541D01*
X173240500Y-147191459D01*
X173240500Y-147191456D01*
X173202052Y-146998170D01*
X173202051Y-146998169D01*
X173202051Y-146998165D01*
X173202049Y-146998160D01*
X173126635Y-146816092D01*
X173126628Y-146816079D01*
X173017139Y-146652218D01*
X173017136Y-146652214D01*
X172877785Y-146512863D01*
X172877781Y-146512860D01*
X172713920Y-146403371D01*
X172713907Y-146403364D01*
X172531839Y-146327950D01*
X172531829Y-146327947D01*
X172340308Y-146289851D01*
X172278397Y-146257466D01*
X172243823Y-146196750D01*
X172240500Y-146168234D01*
X172240500Y-145871765D01*
X172260185Y-145804726D01*
X172312989Y-145758971D01*
X172340306Y-145750148D01*
X172531835Y-145712051D01*
X172713914Y-145636632D01*
X172877782Y-145527139D01*
X173017139Y-145387782D01*
X173126632Y-145223914D01*
X173202051Y-145041835D01*
X173225391Y-144924500D01*
X173240500Y-144848543D01*
X173240500Y-144651456D01*
X173202052Y-144458170D01*
X173202051Y-144458169D01*
X173202051Y-144458165D01*
X173180988Y-144407313D01*
X173126635Y-144276092D01*
X173126628Y-144276079D01*
X173017139Y-144112218D01*
X173017136Y-144112214D01*
X172877785Y-143972863D01*
X172877781Y-143972860D01*
X172713920Y-143863371D01*
X172713907Y-143863364D01*
X172531839Y-143787950D01*
X172531829Y-143787947D01*
X172340308Y-143749851D01*
X172278397Y-143717466D01*
X172243823Y-143656750D01*
X172240500Y-143628234D01*
X172240500Y-143331765D01*
X172260185Y-143264726D01*
X172312989Y-143218971D01*
X172340306Y-143210148D01*
X172531835Y-143172051D01*
X172672655Y-143113721D01*
X172713907Y-143096635D01*
X172713907Y-143096634D01*
X172713914Y-143096632D01*
X172877782Y-142987139D01*
X173017139Y-142847782D01*
X173126632Y-142683914D01*
X173202051Y-142501835D01*
X173240500Y-142308541D01*
X173240500Y-142111459D01*
X173240500Y-142111456D01*
X173202052Y-141918170D01*
X173202051Y-141918169D01*
X173202051Y-141918165D01*
X173173830Y-141850034D01*
X173166362Y-141780568D01*
X173197637Y-141718088D01*
X173200682Y-141714932D01*
X174433557Y-140482059D01*
X174453517Y-140433870D01*
X174475500Y-140380800D01*
X174475500Y-132541309D01*
X174495185Y-132474270D01*
X174547989Y-132428515D01*
X174567404Y-132421535D01*
X174573886Y-132419799D01*
X174676613Y-132360489D01*
X174760489Y-132276613D01*
X174819799Y-132173886D01*
X174850500Y-132059309D01*
X174850500Y-131940691D01*
X174819799Y-131826114D01*
X174760489Y-131723387D01*
X174676613Y-131639511D01*
X174676610Y-131639509D01*
X174670164Y-131634563D01*
X174672284Y-131631799D01*
X174635126Y-131592790D01*
X174621937Y-131524177D01*
X174637982Y-131474027D01*
X174695799Y-131373886D01*
X174726500Y-131259309D01*
X174726500Y-131140691D01*
X174695799Y-131026114D01*
X174636489Y-130923387D01*
X174552613Y-130839511D01*
X174449886Y-130780201D01*
X174335309Y-130749500D01*
X174216691Y-130749500D01*
X174102114Y-130780201D01*
X174102112Y-130780201D01*
X174102112Y-130780202D01*
X173999387Y-130839511D01*
X173999384Y-130839513D01*
X173915513Y-130923384D01*
X173915511Y-130923387D01*
X173856201Y-131026114D01*
X173825500Y-131140691D01*
X173825500Y-131140693D01*
X173825500Y-131209520D01*
X173816856Y-131238956D01*
X173810333Y-131268946D01*
X173806577Y-131273963D01*
X173805815Y-131276559D01*
X173789182Y-131297201D01*
X173643942Y-131442443D01*
X173566443Y-131519942D01*
X173524500Y-131621199D01*
X173524500Y-138334523D01*
X173504815Y-138401562D01*
X173488181Y-138422204D01*
X173033509Y-138876875D01*
X172972186Y-138910360D01*
X172902494Y-138905376D01*
X172876937Y-138892296D01*
X172713920Y-138783371D01*
X172713907Y-138783364D01*
X172531839Y-138707950D01*
X172531829Y-138707947D01*
X172340308Y-138669851D01*
X172278397Y-138637466D01*
X172243823Y-138576750D01*
X172240500Y-138548234D01*
X172240500Y-138251765D01*
X172260185Y-138184726D01*
X172312989Y-138138971D01*
X172340306Y-138130148D01*
X172531835Y-138092051D01*
X172713914Y-138016632D01*
X172877782Y-137907139D01*
X173017139Y-137767782D01*
X173126632Y-137603914D01*
X173202051Y-137421835D01*
X173238034Y-137240938D01*
X173240500Y-137228543D01*
X173240500Y-137031456D01*
X173202052Y-136838170D01*
X173202051Y-136838169D01*
X173202051Y-136838165D01*
X173175553Y-136774192D01*
X173126635Y-136656092D01*
X173126628Y-136656079D01*
X173017139Y-136492218D01*
X173017136Y-136492214D01*
X172877785Y-136352863D01*
X172877781Y-136352860D01*
X172713920Y-136243371D01*
X172713907Y-136243364D01*
X172531839Y-136167950D01*
X172531829Y-136167947D01*
X172340308Y-136129851D01*
X172278397Y-136097466D01*
X172243823Y-136036750D01*
X172240500Y-136008234D01*
X172240500Y-135711765D01*
X172260185Y-135644726D01*
X172312989Y-135598971D01*
X172340306Y-135590148D01*
X172531835Y-135552051D01*
X172713914Y-135476632D01*
X172877782Y-135367139D01*
X173017139Y-135227782D01*
X173126632Y-135063914D01*
X173202051Y-134881835D01*
X173221648Y-134783316D01*
X173240500Y-134688543D01*
X173240500Y-134491456D01*
X173202052Y-134298170D01*
X173202051Y-134298169D01*
X173202051Y-134298165D01*
X173183618Y-134253663D01*
X173126635Y-134116092D01*
X173126628Y-134116079D01*
X173017139Y-133952218D01*
X173017136Y-133952214D01*
X172877785Y-133812863D01*
X172877781Y-133812860D01*
X172713920Y-133703371D01*
X172713907Y-133703364D01*
X172531839Y-133627950D01*
X172531829Y-133627947D01*
X172340308Y-133589851D01*
X172278397Y-133557466D01*
X172243823Y-133496750D01*
X172240500Y-133468234D01*
X172240500Y-133171765D01*
X172260185Y-133104726D01*
X172312989Y-133058971D01*
X172340306Y-133050148D01*
X172531835Y-133012051D01*
X172713914Y-132936632D01*
X172877782Y-132827139D01*
X173017139Y-132687782D01*
X173126632Y-132523914D01*
X173202051Y-132341835D01*
X173234672Y-132177841D01*
X173240500Y-132148543D01*
X173240500Y-131951456D01*
X173202052Y-131758170D01*
X173202051Y-131758169D01*
X173202051Y-131758165D01*
X173187646Y-131723387D01*
X173126635Y-131576092D01*
X173126628Y-131576079D01*
X173017139Y-131412218D01*
X173017136Y-131412214D01*
X172877785Y-131272863D01*
X172877781Y-131272860D01*
X172713920Y-131163371D01*
X172713907Y-131163364D01*
X172531839Y-131087950D01*
X172531829Y-131087947D01*
X172340308Y-131049851D01*
X172278397Y-131017466D01*
X172243823Y-130956750D01*
X172240500Y-130928234D01*
X172240500Y-130631765D01*
X172260185Y-130564726D01*
X172312989Y-130518971D01*
X172340306Y-130510148D01*
X172531835Y-130472051D01*
X172713914Y-130396632D01*
X172877782Y-130287139D01*
X173017139Y-130147782D01*
X173126632Y-129983914D01*
X173202051Y-129801835D01*
X173223512Y-129693944D01*
X173240500Y-129608543D01*
X173240500Y-129411456D01*
X173202052Y-129218170D01*
X173202051Y-129218169D01*
X173202051Y-129218165D01*
X173179835Y-129164531D01*
X173126635Y-129036092D01*
X173126628Y-129036079D01*
X173017139Y-128872218D01*
X173017136Y-128872214D01*
X172877785Y-128732863D01*
X172877781Y-128732860D01*
X172713920Y-128623371D01*
X172713907Y-128623364D01*
X172531839Y-128547950D01*
X172531829Y-128547947D01*
X172340308Y-128509851D01*
X172278397Y-128477466D01*
X172243823Y-128416750D01*
X172240500Y-128388234D01*
X172240500Y-128091765D01*
X172260185Y-128024726D01*
X172312989Y-127978971D01*
X172340306Y-127970148D01*
X172531835Y-127932051D01*
X172713914Y-127856632D01*
X172877782Y-127747139D01*
X173017139Y-127607782D01*
X173126632Y-127443914D01*
X173202051Y-127261835D01*
X173224607Y-127148438D01*
X173240500Y-127068543D01*
X173240500Y-126871456D01*
X173202052Y-126678170D01*
X173202051Y-126678169D01*
X173202051Y-126678165D01*
X173202049Y-126678160D01*
X173126635Y-126496092D01*
X173126628Y-126496079D01*
X173017139Y-126332218D01*
X173017136Y-126332214D01*
X172877785Y-126192863D01*
X172877781Y-126192860D01*
X172713920Y-126083371D01*
X172713907Y-126083364D01*
X172531839Y-126007950D01*
X172531829Y-126007947D01*
X172340308Y-125969851D01*
X172278397Y-125937466D01*
X172243823Y-125876750D01*
X172240500Y-125848234D01*
X172240500Y-125551765D01*
X172260185Y-125484726D01*
X172312989Y-125438971D01*
X172340306Y-125430148D01*
X172531835Y-125392051D01*
X172699709Y-125322516D01*
X172713907Y-125316635D01*
X172713907Y-125316634D01*
X172713914Y-125316632D01*
X172877782Y-125207139D01*
X173017139Y-125067782D01*
X173126632Y-124903914D01*
X173202051Y-124721835D01*
X173216070Y-124651358D01*
X173240500Y-124528543D01*
X173240500Y-124331456D01*
X173202052Y-124138170D01*
X173202051Y-124138169D01*
X173202051Y-124138165D01*
X173147644Y-124006814D01*
X173126635Y-123956092D01*
X173126628Y-123956079D01*
X173017139Y-123792218D01*
X173017136Y-123792214D01*
X172877785Y-123652863D01*
X172877781Y-123652860D01*
X172713920Y-123543371D01*
X172713907Y-123543364D01*
X172531839Y-123467950D01*
X172531829Y-123467947D01*
X172340308Y-123429851D01*
X172278397Y-123397466D01*
X172243823Y-123336750D01*
X172240500Y-123308234D01*
X172240500Y-123011765D01*
X172260185Y-122944726D01*
X172312989Y-122898971D01*
X172340306Y-122890148D01*
X172531835Y-122852051D01*
X172713914Y-122776632D01*
X172877782Y-122667139D01*
X173017139Y-122527782D01*
X173126632Y-122363914D01*
X173202051Y-122181835D01*
X173240500Y-121988541D01*
X173240500Y-121791459D01*
X173240500Y-121791456D01*
X173202052Y-121598170D01*
X173202051Y-121598169D01*
X173202051Y-121598165D01*
X173197351Y-121586819D01*
X173126635Y-121416092D01*
X173126628Y-121416079D01*
X173017139Y-121252218D01*
X173017136Y-121252214D01*
X172877785Y-121112863D01*
X172877781Y-121112860D01*
X172713920Y-121003371D01*
X172713907Y-121003364D01*
X172531839Y-120927950D01*
X172531829Y-120927947D01*
X172340308Y-120889851D01*
X172278397Y-120857466D01*
X172243823Y-120796750D01*
X172240500Y-120768234D01*
X172240500Y-120474500D01*
X172260185Y-120407461D01*
X172312989Y-120361706D01*
X172364500Y-120350500D01*
X173059750Y-120350500D01*
X173059751Y-120350499D01*
X173074568Y-120347552D01*
X173118229Y-120338868D01*
X173118229Y-120338867D01*
X173118231Y-120338867D01*
X173184552Y-120294552D01*
X173228867Y-120228231D01*
X173228867Y-120228229D01*
X173228868Y-120228229D01*
X173240499Y-120169752D01*
X173240500Y-120169750D01*
X173240500Y-119924500D01*
X173243050Y-119915814D01*
X173241762Y-119906853D01*
X173252740Y-119882812D01*
X173260185Y-119857461D01*
X173267025Y-119851533D01*
X173270787Y-119843297D01*
X173293021Y-119829007D01*
X173312989Y-119811706D01*
X173323503Y-119809418D01*
X173329565Y-119805523D01*
X173364500Y-119800500D01*
X173424500Y-119800500D01*
X173491539Y-119820185D01*
X173537294Y-119872989D01*
X173548500Y-119924500D01*
X173548500Y-128596273D01*
X173548500Y-128701727D01*
X173554660Y-128724717D01*
X173575793Y-128803589D01*
X173602156Y-128849250D01*
X173628520Y-128894913D01*
X173628522Y-128894915D01*
X175563181Y-130829574D01*
X175596666Y-130890897D01*
X175599500Y-130917255D01*
X175599500Y-139434460D01*
X175582887Y-139496460D01*
X175533609Y-139581810D01*
X175533609Y-139581811D01*
X175533608Y-139581813D01*
X175533608Y-139581814D01*
X175499500Y-139709108D01*
X175499500Y-139840892D01*
X175516554Y-139904539D01*
X175533608Y-139968187D01*
X175566554Y-140025250D01*
X175599500Y-140082314D01*
X175692686Y-140175500D01*
X175806814Y-140241392D01*
X175902014Y-140266900D01*
X175915899Y-140274916D01*
X175929346Y-140277842D01*
X175957600Y-140298993D01*
X175958902Y-140300295D01*
X175992387Y-140361618D01*
X175987403Y-140431310D01*
X175945531Y-140487243D01*
X175903315Y-140507750D01*
X175806814Y-140533608D01*
X175806812Y-140533608D01*
X175806812Y-140533609D01*
X175692686Y-140599500D01*
X175692683Y-140599502D01*
X175599502Y-140692683D01*
X175599501Y-140692685D01*
X175533608Y-140806812D01*
X175508099Y-140902014D01*
X175476006Y-140957601D01*
X175329519Y-141104088D01*
X175299967Y-141155273D01*
X175276793Y-141195412D01*
X175263640Y-141244500D01*
X175263640Y-141244501D01*
X175263639Y-141244500D01*
X175249500Y-141297269D01*
X175249500Y-141297273D01*
X175249500Y-154147273D01*
X175249500Y-154252727D01*
X175263146Y-154303657D01*
X175276793Y-154354589D01*
X175303156Y-154400250D01*
X175329520Y-154445913D01*
X175329522Y-154445915D01*
X178794306Y-157910699D01*
X178826399Y-157966284D01*
X178833607Y-157993185D01*
X178861456Y-158041421D01*
X178899500Y-158107314D01*
X178992686Y-158200500D01*
X179106814Y-158266392D01*
X179234108Y-158300500D01*
X179234110Y-158300500D01*
X179365890Y-158300500D01*
X179365892Y-158300500D01*
X179493186Y-158266392D01*
X179607314Y-158200500D01*
X179700500Y-158107314D01*
X179766392Y-157993186D01*
X179800500Y-157865892D01*
X179800500Y-157734108D01*
X179766392Y-157606814D01*
X179700500Y-157492686D01*
X179607314Y-157399500D01*
X179517563Y-157347682D01*
X179493187Y-157333608D01*
X179429539Y-157316554D01*
X179365892Y-157299500D01*
X179365891Y-157299500D01*
X179357832Y-157298439D01*
X179358048Y-157296796D01*
X179300216Y-157279815D01*
X179279574Y-157263181D01*
X176086819Y-154070426D01*
X176053334Y-154009103D01*
X176050500Y-153982745D01*
X176050500Y-145434108D01*
X176967000Y-145434108D01*
X176967000Y-145565892D01*
X177001108Y-145693186D01*
X177050387Y-145778540D01*
X177067000Y-145840539D01*
X177067000Y-148020226D01*
X177094293Y-148122089D01*
X177120656Y-148167750D01*
X177147020Y-148213413D01*
X177147022Y-148213415D01*
X177446716Y-148513109D01*
X177478808Y-148568691D01*
X177480198Y-148573881D01*
X177480200Y-148573885D01*
X177480201Y-148573886D01*
X177539511Y-148676613D01*
X177623387Y-148760489D01*
X177726114Y-148819799D01*
X177731298Y-148821188D01*
X177786890Y-148853283D01*
X178326799Y-149393192D01*
X178360284Y-149454515D01*
X178359216Y-149499642D01*
X178361292Y-149499916D01*
X178360231Y-149507977D01*
X178360231Y-149626595D01*
X178390932Y-149741172D01*
X178450242Y-149843899D01*
X178534118Y-149927775D01*
X178636845Y-149987085D01*
X178751422Y-150017786D01*
X178751425Y-150017786D01*
X178870037Y-150017786D01*
X178870040Y-150017786D01*
X178984617Y-149987085D01*
X179087344Y-149927775D01*
X179171220Y-149843899D01*
X179230530Y-149741172D01*
X179261231Y-149626595D01*
X179261231Y-149507977D01*
X179230530Y-149393400D01*
X179227842Y-149388744D01*
X179225336Y-149381471D01*
X179222290Y-149377935D01*
X179219214Y-149363698D01*
X179212443Y-149344042D01*
X179211231Y-149335437D01*
X179211231Y-149258004D01*
X179190196Y-149179500D01*
X179183938Y-149156143D01*
X179131211Y-149064818D01*
X178353283Y-148286890D01*
X178321188Y-148231298D01*
X178319799Y-148226114D01*
X178291228Y-148176628D01*
X178260489Y-148123387D01*
X178176613Y-148039511D01*
X178117302Y-148005267D01*
X178073885Y-147980200D01*
X178073881Y-147980198D01*
X178068691Y-147978808D01*
X178054806Y-147970791D01*
X178041363Y-147967867D01*
X178013109Y-147946716D01*
X177904319Y-147837926D01*
X177870834Y-147776603D01*
X177868000Y-147750245D01*
X177868000Y-145840539D01*
X177884612Y-145778540D01*
X177933892Y-145693186D01*
X177968000Y-145565892D01*
X177968000Y-145434108D01*
X177933892Y-145306814D01*
X177868000Y-145192686D01*
X177774814Y-145099500D01*
X177716984Y-145066112D01*
X177660687Y-145033608D01*
X177597039Y-145016554D01*
X177533392Y-144999500D01*
X177401608Y-144999500D01*
X177274312Y-145033608D01*
X177160186Y-145099500D01*
X177160183Y-145099502D01*
X177067002Y-145192683D01*
X177067000Y-145192686D01*
X177001108Y-145306812D01*
X176989670Y-145349500D01*
X176967000Y-145434108D01*
X176050500Y-145434108D01*
X176050500Y-141599772D01*
X176070185Y-141532733D01*
X176122989Y-141486978D01*
X176142396Y-141480000D01*
X176193186Y-141466392D01*
X176307314Y-141400500D01*
X176400500Y-141307314D01*
X176451764Y-141218521D01*
X176502330Y-141170308D01*
X176570936Y-141157084D01*
X176635801Y-141183052D01*
X176666535Y-141218520D01*
X176674495Y-141232307D01*
X176674498Y-141232311D01*
X176674500Y-141232314D01*
X176767686Y-141325500D01*
X176881814Y-141391392D01*
X177009108Y-141425500D01*
X177034913Y-141425500D01*
X177067006Y-141429725D01*
X177148273Y-141451500D01*
X177253727Y-141451500D01*
X181585067Y-141451500D01*
X181652106Y-141471185D01*
X181672748Y-141487819D01*
X183316325Y-143131396D01*
X183348419Y-143186983D01*
X183373928Y-143282184D01*
X183439820Y-143396312D01*
X183533006Y-143489498D01*
X183647134Y-143555390D01*
X183774428Y-143589498D01*
X183774430Y-143589498D01*
X183906210Y-143589498D01*
X183906212Y-143589498D01*
X184033506Y-143555390D01*
X184147634Y-143489498D01*
X184240820Y-143396312D01*
X184306712Y-143282184D01*
X184340820Y-143154890D01*
X184340820Y-143023106D01*
X184306712Y-142895812D01*
X184240820Y-142781684D01*
X184147634Y-142688498D01*
X184033506Y-142622606D01*
X183938305Y-142597097D01*
X183882718Y-142565003D01*
X182048237Y-140730522D01*
X182048235Y-140730520D01*
X181999761Y-140702533D01*
X181956911Y-140677793D01*
X181905979Y-140664146D01*
X181855049Y-140650500D01*
X181855048Y-140650500D01*
X177559676Y-140650500D01*
X177492637Y-140630815D01*
X177471995Y-140614181D01*
X177382316Y-140524502D01*
X177382314Y-140524500D01*
X177268186Y-140458608D01*
X177268183Y-140458606D01*
X177260672Y-140455495D01*
X177261821Y-140452719D01*
X177219849Y-140428456D01*
X176523993Y-139732600D01*
X176519361Y-139725668D01*
X176515122Y-139722725D01*
X176507912Y-139708534D01*
X176497113Y-139692371D01*
X176494003Y-139684863D01*
X176466392Y-139581814D01*
X176413050Y-139489424D01*
X176409939Y-139481912D01*
X176407743Y-139461493D01*
X176400500Y-139434460D01*
X176400500Y-138732791D01*
X182274500Y-138732791D01*
X182274500Y-138867209D01*
X182295398Y-138945200D01*
X182309290Y-138997047D01*
X182309291Y-138997048D01*
X182376495Y-139113450D01*
X182376497Y-139113453D01*
X182376498Y-139113454D01*
X182471546Y-139208502D01*
X182587954Y-139275710D01*
X182717791Y-139310500D01*
X182717794Y-139310500D01*
X182852206Y-139310500D01*
X182852209Y-139310500D01*
X182982046Y-139275710D01*
X183098454Y-139208502D01*
X183193502Y-139113454D01*
X183260710Y-138997046D01*
X183295500Y-138867209D01*
X183295500Y-138732791D01*
X183260710Y-138602954D01*
X183254710Y-138592561D01*
X183197866Y-138494103D01*
X183197865Y-138494102D01*
X183193504Y-138486549D01*
X183193500Y-138486544D01*
X183098455Y-138391499D01*
X183098450Y-138391495D01*
X182982048Y-138324291D01*
X182982047Y-138324290D01*
X182949586Y-138315592D01*
X182852209Y-138289500D01*
X182717791Y-138289500D01*
X182639888Y-138310374D01*
X182587952Y-138324290D01*
X182587951Y-138324291D01*
X182471549Y-138391495D01*
X182471544Y-138391499D01*
X182376499Y-138486544D01*
X182376495Y-138486549D01*
X182309291Y-138602951D01*
X182309290Y-138602952D01*
X182305989Y-138615273D01*
X182274500Y-138732791D01*
X176400500Y-138732791D01*
X176400500Y-137353197D01*
X179405000Y-137353197D01*
X179405000Y-137546802D01*
X179435286Y-137738022D01*
X179495116Y-137922158D01*
X179583011Y-138094662D01*
X179605638Y-138125806D01*
X179605639Y-138125806D01*
X180135707Y-137595738D01*
X180150437Y-137650712D01*
X180218896Y-137769287D01*
X180315713Y-137866104D01*
X180434288Y-137934563D01*
X180489259Y-137949292D01*
X179959192Y-138479358D01*
X179959192Y-138479359D01*
X179990343Y-138501991D01*
X180162841Y-138589883D01*
X180346977Y-138649713D01*
X180538198Y-138680000D01*
X180731802Y-138680000D01*
X180923022Y-138649713D01*
X181055301Y-138606733D01*
X181055302Y-138606733D01*
X181107160Y-138589883D01*
X181279652Y-138501993D01*
X181279665Y-138501985D01*
X181310806Y-138479360D01*
X181310807Y-138479359D01*
X180780740Y-137949292D01*
X180835712Y-137934563D01*
X180954287Y-137866104D01*
X181051104Y-137769287D01*
X181119563Y-137650712D01*
X181134292Y-137595740D01*
X181664359Y-138125807D01*
X181664360Y-138125806D01*
X181686985Y-138094665D01*
X181686993Y-138094652D01*
X181774883Y-137922158D01*
X181834713Y-137738022D01*
X181865000Y-137546802D01*
X181865000Y-137353197D01*
X181834713Y-137161977D01*
X181774883Y-136977841D01*
X181686991Y-136805343D01*
X181664359Y-136774192D01*
X181664358Y-136774192D01*
X181134292Y-137304259D01*
X181119563Y-137249288D01*
X181051104Y-137130713D01*
X180954287Y-137033896D01*
X180835712Y-136965437D01*
X180780739Y-136950707D01*
X181310806Y-136420639D01*
X181310806Y-136420638D01*
X181279662Y-136398011D01*
X181107158Y-136310116D01*
X180923022Y-136250286D01*
X180731802Y-136220000D01*
X180538198Y-136220000D01*
X180346977Y-136250286D01*
X180162841Y-136310116D01*
X179990337Y-136398011D01*
X179959192Y-136420639D01*
X179959191Y-136420639D01*
X180489260Y-136950707D01*
X180434288Y-136965437D01*
X180315713Y-137033896D01*
X180218896Y-137130713D01*
X180150437Y-137249288D01*
X180135707Y-137304260D01*
X179605639Y-136774191D01*
X179605639Y-136774192D01*
X179583011Y-136805337D01*
X179495116Y-136977841D01*
X179435286Y-137161977D01*
X179405000Y-137353197D01*
X176400500Y-137353197D01*
X176400500Y-130647275D01*
X176400500Y-130647273D01*
X176373207Y-130545413D01*
X176373207Y-130545412D01*
X176320480Y-130454087D01*
X175537035Y-129670642D01*
X175503550Y-129609319D01*
X175508534Y-129539627D01*
X175550406Y-129483694D01*
X175567051Y-129474216D01*
X175566847Y-129473863D01*
X175573886Y-129469799D01*
X175676613Y-129410489D01*
X175760489Y-129326613D01*
X175819799Y-129223886D01*
X175850500Y-129109309D01*
X175850500Y-128990691D01*
X175819799Y-128876114D01*
X175760489Y-128773387D01*
X175711819Y-128724717D01*
X175678334Y-128663394D01*
X175675500Y-128637036D01*
X175675500Y-127215477D01*
X175695185Y-127148438D01*
X175711819Y-127127796D01*
X176302796Y-126536819D01*
X176364119Y-126503334D01*
X176390477Y-126500500D01*
X176459306Y-126500500D01*
X176459309Y-126500500D01*
X176573886Y-126469799D01*
X176676613Y-126410489D01*
X176760489Y-126326613D01*
X176819799Y-126223886D01*
X176850500Y-126109309D01*
X176850500Y-125990691D01*
X176819799Y-125876114D01*
X176760489Y-125773387D01*
X176676613Y-125689511D01*
X176573886Y-125630201D01*
X176459309Y-125599500D01*
X176340691Y-125599500D01*
X176226114Y-125630201D01*
X176226112Y-125630201D01*
X176226112Y-125630202D01*
X176123387Y-125689511D01*
X176123384Y-125689513D01*
X176039513Y-125773384D01*
X176039511Y-125773387D01*
X175985785Y-125866443D01*
X175980201Y-125876114D01*
X175949500Y-125990691D01*
X175949500Y-125990693D01*
X175949500Y-126059521D01*
X175929815Y-126126560D01*
X175913181Y-126147202D01*
X175243942Y-126816443D01*
X175166444Y-126893940D01*
X175124500Y-126995199D01*
X175124500Y-128637036D01*
X175104815Y-128704075D01*
X175101657Y-128708753D01*
X175095595Y-128717302D01*
X175039511Y-128773387D01*
X174980201Y-128876114D01*
X174978498Y-128882466D01*
X174968195Y-128897000D01*
X174951271Y-128910366D01*
X174937739Y-128927152D01*
X174924398Y-128931589D01*
X174913363Y-128940305D01*
X174891900Y-128942399D01*
X174871441Y-128949205D01*
X174857818Y-128945725D01*
X174843824Y-128947091D01*
X174824637Y-128937249D01*
X174803745Y-128931913D01*
X174783372Y-128916083D01*
X174781655Y-128915203D01*
X174781175Y-128914377D01*
X174779357Y-128912964D01*
X174385819Y-128519426D01*
X174352334Y-128458103D01*
X174349500Y-128431745D01*
X174349500Y-119685839D01*
X174369185Y-119618800D01*
X174421989Y-119573045D01*
X174491147Y-119563101D01*
X174505594Y-119566064D01*
X174506810Y-119566389D01*
X174506814Y-119566392D01*
X174634108Y-119600500D01*
X174634111Y-119600500D01*
X174765890Y-119600500D01*
X174765892Y-119600500D01*
X174893186Y-119566392D01*
X175007314Y-119500500D01*
X175095995Y-119411819D01*
X175157318Y-119378334D01*
X175183676Y-119375500D01*
X175859523Y-119375500D01*
X175926562Y-119395185D01*
X175947204Y-119411819D01*
X176936211Y-120400827D01*
X176969696Y-120462150D01*
X176964712Y-120531842D01*
X176922840Y-120587775D01*
X176910531Y-120595894D01*
X176817692Y-120649496D01*
X176817683Y-120649502D01*
X176724502Y-120742683D01*
X176724500Y-120742686D01*
X176658608Y-120856812D01*
X176624500Y-120984108D01*
X176624500Y-121115891D01*
X176658608Y-121243187D01*
X176691554Y-121300250D01*
X176724500Y-121357314D01*
X176817686Y-121450500D01*
X176931814Y-121516392D01*
X177059108Y-121550500D01*
X177109523Y-121550500D01*
X177176562Y-121570185D01*
X177197204Y-121586819D01*
X177537181Y-121926796D01*
X177570666Y-121988119D01*
X177573500Y-122014477D01*
X177573500Y-129050189D01*
X177612334Y-129143941D01*
X177615443Y-129151447D01*
X177752774Y-129288778D01*
X177754886Y-129291117D01*
X177755729Y-129292869D01*
X177765955Y-129305328D01*
X177766442Y-129306056D01*
X177766443Y-129306058D01*
X177838182Y-129377797D01*
X177871666Y-129439118D01*
X177874500Y-129465477D01*
X177874500Y-136316324D01*
X177854815Y-136383363D01*
X177838181Y-136404005D01*
X177749502Y-136492683D01*
X177749500Y-136492686D01*
X177683608Y-136606812D01*
X177649500Y-136734108D01*
X177649500Y-136865891D01*
X177683608Y-136993187D01*
X177705703Y-137031456D01*
X177749500Y-137107314D01*
X177842686Y-137200500D01*
X177956814Y-137266392D01*
X178084108Y-137300500D01*
X178084110Y-137300500D01*
X178215890Y-137300500D01*
X178215892Y-137300500D01*
X178343186Y-137266392D01*
X178457314Y-137200500D01*
X178550500Y-137107314D01*
X178616392Y-136993186D01*
X178650500Y-136865892D01*
X178650500Y-136734108D01*
X178616392Y-136606814D01*
X178550500Y-136492686D01*
X178458436Y-136400622D01*
X178455337Y-136397005D01*
X178442878Y-136369317D01*
X178428334Y-136342682D01*
X178427530Y-136335210D01*
X178426666Y-136333289D01*
X178427048Y-136330728D01*
X178425500Y-136316324D01*
X178425500Y-132553197D01*
X179405000Y-132553197D01*
X179405000Y-132746802D01*
X179435286Y-132938022D01*
X179495116Y-133122158D01*
X179583011Y-133294662D01*
X179605638Y-133325806D01*
X179605639Y-133325806D01*
X180135707Y-132795738D01*
X180150437Y-132850712D01*
X180218896Y-132969287D01*
X180315713Y-133066104D01*
X180434288Y-133134563D01*
X180489259Y-133149292D01*
X179959192Y-133679358D01*
X179959192Y-133679359D01*
X179990343Y-133701991D01*
X180162841Y-133789883D01*
X180346977Y-133849713D01*
X180346975Y-133849713D01*
X180348754Y-133849995D01*
X180349374Y-133850289D01*
X180351714Y-133850851D01*
X180351596Y-133851342D01*
X180411889Y-133879925D01*
X180448819Y-133939237D01*
X180447821Y-134009100D01*
X180417037Y-134060148D01*
X180384503Y-134092682D01*
X180384500Y-134092686D01*
X180318608Y-134206812D01*
X180306055Y-134253663D01*
X180284500Y-134334108D01*
X180284500Y-134465892D01*
X180292746Y-134496666D01*
X180318608Y-134593187D01*
X180326475Y-134606812D01*
X180384500Y-134707314D01*
X180384502Y-134707316D01*
X180439505Y-134762319D01*
X180472990Y-134823642D01*
X180468006Y-134893334D01*
X180439505Y-134937681D01*
X180384502Y-134992683D01*
X180384500Y-134992686D01*
X180318608Y-135106812D01*
X180296191Y-135190477D01*
X180284500Y-135234108D01*
X180284500Y-135365892D01*
X180284834Y-135367139D01*
X180318608Y-135493187D01*
X180345902Y-135540460D01*
X180384500Y-135607314D01*
X180477686Y-135700500D01*
X180591814Y-135766392D01*
X180719108Y-135800500D01*
X180719110Y-135800500D01*
X180850890Y-135800500D01*
X180850892Y-135800500D01*
X180978186Y-135766392D01*
X181092314Y-135700500D01*
X181155995Y-135636819D01*
X181217318Y-135603334D01*
X181243676Y-135600500D01*
X182439560Y-135600500D01*
X182439562Y-135600500D01*
X182515989Y-135580021D01*
X182584511Y-135540460D01*
X182640460Y-135484511D01*
X182988152Y-135136819D01*
X183049475Y-135103334D01*
X183075833Y-135100500D01*
X184280685Y-135100500D01*
X184347724Y-135120185D01*
X184393479Y-135172989D01*
X184403423Y-135242147D01*
X184388072Y-135286501D01*
X184384502Y-135292683D01*
X184384500Y-135292686D01*
X184376242Y-135306990D01*
X184318608Y-135406812D01*
X184284500Y-135534108D01*
X184284500Y-135665892D01*
X184293772Y-135700497D01*
X184318608Y-135793187D01*
X184340371Y-135830880D01*
X184384500Y-135907314D01*
X184477686Y-136000500D01*
X184507495Y-136017710D01*
X184574296Y-136056278D01*
X184622512Y-136106845D01*
X184635734Y-136175452D01*
X184609766Y-136240317D01*
X184552852Y-136280845D01*
X184550615Y-136281596D01*
X184462840Y-136310116D01*
X184290337Y-136398011D01*
X184259192Y-136420639D01*
X184259191Y-136420639D01*
X184789260Y-136950707D01*
X184734288Y-136965437D01*
X184615713Y-137033896D01*
X184518896Y-137130713D01*
X184450437Y-137249288D01*
X184435707Y-137304260D01*
X183905639Y-136774191D01*
X183905639Y-136774192D01*
X183883011Y-136805337D01*
X183795116Y-136977841D01*
X183735286Y-137161977D01*
X183705000Y-137353197D01*
X183705000Y-137546802D01*
X183735286Y-137738022D01*
X183795116Y-137922158D01*
X183883011Y-138094662D01*
X183905638Y-138125806D01*
X183905639Y-138125806D01*
X184435707Y-137595738D01*
X184450437Y-137650712D01*
X184518896Y-137769287D01*
X184615713Y-137866104D01*
X184734288Y-137934563D01*
X184789259Y-137949292D01*
X184259192Y-138479358D01*
X184259192Y-138479359D01*
X184290343Y-138501991D01*
X184462841Y-138589883D01*
X184646977Y-138649713D01*
X184838198Y-138680000D01*
X185031802Y-138680000D01*
X185223022Y-138649713D01*
X185407158Y-138589883D01*
X185579652Y-138501993D01*
X185579665Y-138501985D01*
X185610806Y-138479360D01*
X185610807Y-138479359D01*
X185080740Y-137949292D01*
X185135712Y-137934563D01*
X185254287Y-137866104D01*
X185351104Y-137769287D01*
X185419563Y-137650712D01*
X185434292Y-137595740D01*
X185964359Y-138125807D01*
X185964360Y-138125806D01*
X185986985Y-138094665D01*
X185986993Y-138094652D01*
X186074883Y-137922158D01*
X186134713Y-137738022D01*
X186165000Y-137546802D01*
X186165000Y-137353197D01*
X186134713Y-137161977D01*
X186074883Y-136977841D01*
X185986991Y-136805343D01*
X185964359Y-136774192D01*
X185964358Y-136774192D01*
X185434292Y-137304259D01*
X185419563Y-137249288D01*
X185351104Y-137130713D01*
X185254287Y-137033896D01*
X185135712Y-136965437D01*
X185080739Y-136950707D01*
X185610806Y-136420639D01*
X185610806Y-136420638D01*
X185579662Y-136398011D01*
X185407158Y-136310116D01*
X185223022Y-136250286D01*
X185126799Y-136235046D01*
X185063664Y-136205117D01*
X185026733Y-136145805D01*
X185027731Y-136075943D01*
X185066341Y-136017710D01*
X185084199Y-136005185D01*
X185092314Y-136000500D01*
X185185500Y-135907314D01*
X185251392Y-135793186D01*
X185285500Y-135665892D01*
X185285500Y-135534108D01*
X185251392Y-135406814D01*
X185185500Y-135292686D01*
X185180495Y-135287681D01*
X185147010Y-135226358D01*
X185151994Y-135156666D01*
X185180495Y-135112319D01*
X185185500Y-135107314D01*
X185251392Y-134993186D01*
X185285500Y-134865892D01*
X185285500Y-134734108D01*
X185251392Y-134606814D01*
X185185500Y-134492686D01*
X185096819Y-134404005D01*
X185063334Y-134342682D01*
X185060500Y-134316324D01*
X185060500Y-134130201D01*
X185060499Y-134130197D01*
X185027567Y-134050693D01*
X185021672Y-134036463D01*
X185014200Y-133966994D01*
X185045472Y-133904513D01*
X185105560Y-133868858D01*
X185116834Y-133866532D01*
X185223021Y-133849714D01*
X185223022Y-133849713D01*
X185407158Y-133789883D01*
X185579652Y-133701993D01*
X185579665Y-133701985D01*
X185610806Y-133679360D01*
X185610807Y-133679359D01*
X185080739Y-133149292D01*
X185135712Y-133134563D01*
X185254287Y-133066104D01*
X185351104Y-132969287D01*
X185419563Y-132850712D01*
X185434292Y-132795740D01*
X185964359Y-133325807D01*
X185964360Y-133325806D01*
X185986985Y-133294665D01*
X185986993Y-133294652D01*
X186074883Y-133122158D01*
X186134713Y-132938022D01*
X186165000Y-132746802D01*
X186165000Y-132553197D01*
X186134713Y-132361977D01*
X186074883Y-132177841D01*
X185986991Y-132005343D01*
X185964359Y-131974192D01*
X185434292Y-132504259D01*
X185419563Y-132449288D01*
X185351104Y-132330713D01*
X185254287Y-132233896D01*
X185135712Y-132165437D01*
X185080739Y-132150707D01*
X185610806Y-131620639D01*
X185610806Y-131620638D01*
X185579662Y-131598011D01*
X185407158Y-131510116D01*
X185223022Y-131450286D01*
X185031802Y-131420000D01*
X184838198Y-131420000D01*
X184646977Y-131450286D01*
X184462841Y-131510116D01*
X184290337Y-131598011D01*
X184259192Y-131620639D01*
X184259191Y-131620639D01*
X184789260Y-132150707D01*
X184734288Y-132165437D01*
X184615713Y-132233896D01*
X184518896Y-132330713D01*
X184450437Y-132449288D01*
X184435707Y-132504260D01*
X183892819Y-131961371D01*
X183859334Y-131900048D01*
X183856500Y-131873690D01*
X183856500Y-130326202D01*
X183856500Y-130326200D01*
X183847695Y-130304942D01*
X183814558Y-130224942D01*
X183786819Y-130197203D01*
X183753334Y-130135880D01*
X183750500Y-130109522D01*
X183750500Y-129984110D01*
X183750500Y-129984108D01*
X183716392Y-129856814D01*
X183650500Y-129742686D01*
X183557314Y-129649500D01*
X183486371Y-129608541D01*
X183443187Y-129583608D01*
X183379539Y-129566554D01*
X183315892Y-129549500D01*
X183184108Y-129549500D01*
X183056812Y-129583608D01*
X182942686Y-129649500D01*
X182942683Y-129649502D01*
X182912681Y-129679505D01*
X182851358Y-129712990D01*
X182781666Y-129708006D01*
X182737319Y-129679505D01*
X182707316Y-129649502D01*
X182707314Y-129649500D01*
X182636371Y-129608541D01*
X182593187Y-129583608D01*
X182529539Y-129566554D01*
X182465892Y-129549500D01*
X182334108Y-129549500D01*
X182206812Y-129583608D01*
X182092686Y-129649500D01*
X182092683Y-129649502D01*
X181999502Y-129742683D01*
X181999500Y-129742686D01*
X181933608Y-129856812D01*
X181899500Y-129984108D01*
X181899500Y-130109521D01*
X181890855Y-130138960D01*
X181884333Y-130168946D01*
X181880577Y-130173963D01*
X181879815Y-130176560D01*
X181863183Y-130197201D01*
X181832943Y-130227442D01*
X181755443Y-130304942D01*
X181713500Y-130406199D01*
X181713500Y-131873689D01*
X181693815Y-131940728D01*
X181677181Y-131961370D01*
X181134292Y-132504260D01*
X181119563Y-132449288D01*
X181051104Y-132330713D01*
X180954287Y-132233896D01*
X180835712Y-132165437D01*
X180780739Y-132150707D01*
X181310806Y-131620639D01*
X181310806Y-131620638D01*
X181279662Y-131598011D01*
X181107158Y-131510116D01*
X180923022Y-131450286D01*
X180731802Y-131420000D01*
X180538198Y-131420000D01*
X180346977Y-131450286D01*
X180162841Y-131510116D01*
X179990337Y-131598011D01*
X179959192Y-131620639D01*
X179959191Y-131620639D01*
X180489260Y-132150707D01*
X180434288Y-132165437D01*
X180315713Y-132233896D01*
X180218896Y-132330713D01*
X180150437Y-132449288D01*
X180135707Y-132504260D01*
X179605639Y-131974191D01*
X179605639Y-131974192D01*
X179583011Y-132005337D01*
X179495116Y-132177841D01*
X179435286Y-132361977D01*
X179405000Y-132553197D01*
X178425500Y-132553197D01*
X178425500Y-129764477D01*
X178445185Y-129697438D01*
X178497989Y-129651683D01*
X178567147Y-129641739D01*
X178630703Y-129670764D01*
X178637181Y-129676796D01*
X178888181Y-129927796D01*
X178921666Y-129989119D01*
X178924500Y-130015477D01*
X178924500Y-130687036D01*
X178904815Y-130754075D01*
X178888181Y-130774717D01*
X178839513Y-130823384D01*
X178839511Y-130823387D01*
X178780201Y-130926114D01*
X178749500Y-131040691D01*
X178749500Y-131159309D01*
X178780201Y-131273886D01*
X178839511Y-131376613D01*
X178923387Y-131460489D01*
X179026114Y-131519799D01*
X179140691Y-131550500D01*
X179140694Y-131550500D01*
X179259307Y-131550500D01*
X179259309Y-131550500D01*
X179373886Y-131519799D01*
X179476613Y-131460489D01*
X179560489Y-131376613D01*
X179619799Y-131273886D01*
X179650500Y-131159309D01*
X179650500Y-131040691D01*
X179619799Y-130926114D01*
X179560489Y-130823387D01*
X179511819Y-130774717D01*
X179478334Y-130713394D01*
X179475500Y-130687036D01*
X179475500Y-129795201D01*
X179475498Y-129795196D01*
X179433560Y-129693944D01*
X178511819Y-128772203D01*
X178478334Y-128710880D01*
X178475500Y-128684522D01*
X178475500Y-125964477D01*
X178495185Y-125897438D01*
X178547989Y-125851683D01*
X178617147Y-125841739D01*
X178680703Y-125870764D01*
X178687176Y-125876791D01*
X179143941Y-126333557D01*
X179170358Y-126344499D01*
X179245200Y-126375500D01*
X183434523Y-126375500D01*
X183501562Y-126395185D01*
X183522204Y-126411819D01*
X186488181Y-129377796D01*
X186521666Y-129439119D01*
X186524500Y-129465477D01*
X186524500Y-138234522D01*
X186504815Y-138301561D01*
X186488181Y-138322203D01*
X185343942Y-139466443D01*
X185266444Y-139543940D01*
X185224500Y-139645199D01*
X185224500Y-142834522D01*
X185204815Y-142901561D01*
X185188181Y-142922203D01*
X184222204Y-143888181D01*
X184160881Y-143921666D01*
X184134523Y-143924500D01*
X183248195Y-143924500D01*
X183181156Y-143904815D01*
X183140808Y-143862501D01*
X183134432Y-143851458D01*
X183100500Y-143792686D01*
X183007314Y-143699500D01*
X182929890Y-143654799D01*
X182893187Y-143633608D01*
X182829539Y-143616554D01*
X182765892Y-143599500D01*
X182634108Y-143599500D01*
X182506812Y-143633608D01*
X182392686Y-143699500D01*
X182392683Y-143699502D01*
X182299502Y-143792683D01*
X182299500Y-143792686D01*
X182233608Y-143906812D01*
X182199500Y-144034108D01*
X182199500Y-144165891D01*
X182233608Y-144293187D01*
X182236081Y-144297470D01*
X182299500Y-144407314D01*
X182392686Y-144500500D01*
X182506814Y-144566392D01*
X182634108Y-144600500D01*
X182634110Y-144600500D01*
X182765890Y-144600500D01*
X182765892Y-144600500D01*
X182893186Y-144566392D01*
X183007314Y-144500500D01*
X183007315Y-144500498D01*
X183014352Y-144496436D01*
X183015131Y-144497786D01*
X183071671Y-144475930D01*
X183081987Y-144475500D01*
X184354799Y-144475500D01*
X184354800Y-144475500D01*
X184456058Y-144433557D01*
X184533557Y-144356058D01*
X184533556Y-144356058D01*
X184592125Y-144297489D01*
X185733557Y-143156059D01*
X185758172Y-143096632D01*
X185775500Y-143054800D01*
X185775500Y-139865477D01*
X185795185Y-139798438D01*
X185811819Y-139777796D01*
X186393529Y-139196086D01*
X187033558Y-138556058D01*
X187033558Y-138556056D01*
X187033560Y-138556055D01*
X187055953Y-138501991D01*
X187075500Y-138454800D01*
X187075500Y-138345200D01*
X187075500Y-129245200D01*
X187045841Y-129173599D01*
X187033557Y-129143941D01*
X187033555Y-129143939D01*
X187033555Y-129143938D01*
X183756059Y-125866444D01*
X183756058Y-125866443D01*
X183654800Y-125824500D01*
X179465478Y-125824500D01*
X179398439Y-125804815D01*
X179377797Y-125788181D01*
X178911819Y-125322203D01*
X178878334Y-125260880D01*
X178875500Y-125234522D01*
X178875500Y-120195201D01*
X178875499Y-120195197D01*
X178842996Y-120116729D01*
X178833557Y-120093942D01*
X178833557Y-120093941D01*
X176915493Y-118175878D01*
X176883400Y-118120290D01*
X176866393Y-118056816D01*
X176866392Y-118056815D01*
X176866392Y-118056814D01*
X176800500Y-117942686D01*
X176707314Y-117849500D01*
X176639155Y-117810148D01*
X176593187Y-117783608D01*
X176527061Y-117765890D01*
X176465892Y-117749500D01*
X176334108Y-117749500D01*
X176206812Y-117783608D01*
X176092686Y-117849500D01*
X176092683Y-117849502D01*
X175999502Y-117942683D01*
X175999500Y-117942686D01*
X175933608Y-118056812D01*
X175899500Y-118184108D01*
X175899500Y-118315891D01*
X175933608Y-118443187D01*
X175950110Y-118471769D01*
X175999500Y-118557314D01*
X175999502Y-118557316D01*
X176055005Y-118612819D01*
X176088490Y-118674142D01*
X176083506Y-118743834D01*
X176041634Y-118799767D01*
X175976170Y-118824184D01*
X175967324Y-118824500D01*
X175183676Y-118824500D01*
X175116637Y-118804815D01*
X175095995Y-118788181D01*
X175007316Y-118699502D01*
X175007314Y-118699500D01*
X174922444Y-118650500D01*
X174893187Y-118633608D01*
X174829539Y-118616554D01*
X174765892Y-118599500D01*
X174634108Y-118599500D01*
X174505593Y-118633935D01*
X174435743Y-118632272D01*
X174377881Y-118593109D01*
X174350377Y-118528880D01*
X174349500Y-118514160D01*
X174349500Y-117955668D01*
X174364136Y-117901047D01*
X174363282Y-117900693D01*
X174365971Y-117894200D01*
X174366115Y-117893665D01*
X174366392Y-117893186D01*
X174400500Y-117765892D01*
X174400500Y-117634108D01*
X174366392Y-117506814D01*
X174300500Y-117392686D01*
X174207314Y-117299500D01*
X174150250Y-117266554D01*
X174093187Y-117233608D01*
X174029539Y-117216554D01*
X173965892Y-117199500D01*
X173834108Y-117199500D01*
X173706812Y-117233608D01*
X173592686Y-117299500D01*
X173592683Y-117299502D01*
X173499502Y-117392683D01*
X173499500Y-117392686D01*
X173433608Y-117506812D01*
X173412086Y-117587136D01*
X173399500Y-117634108D01*
X173399500Y-117765892D01*
X173401151Y-117772052D01*
X173433608Y-117893187D01*
X173462185Y-117942683D01*
X173499500Y-118007314D01*
X173499502Y-118007316D01*
X173512181Y-118019995D01*
X173545666Y-118081318D01*
X173548500Y-118107676D01*
X173548500Y-118875500D01*
X173545949Y-118884185D01*
X173547238Y-118893147D01*
X173536259Y-118917187D01*
X173528815Y-118942539D01*
X173521974Y-118948466D01*
X173518213Y-118956703D01*
X173495978Y-118970992D01*
X173476011Y-118988294D01*
X173465496Y-118990581D01*
X173459435Y-118994477D01*
X173424500Y-118999500D01*
X173364500Y-118999500D01*
X173297461Y-118979815D01*
X173251706Y-118927011D01*
X173240500Y-118875500D01*
X173240500Y-118530249D01*
X173240499Y-118530247D01*
X173228868Y-118471770D01*
X173228867Y-118471769D01*
X173184552Y-118405447D01*
X173118230Y-118361132D01*
X173118229Y-118361131D01*
X173059752Y-118349500D01*
X173059748Y-118349500D01*
X172364500Y-118349500D01*
X172297461Y-118329815D01*
X172251706Y-118277011D01*
X172240500Y-118225500D01*
X172240500Y-115694000D01*
X172260185Y-115626961D01*
X172312989Y-115581206D01*
X172364500Y-115570000D01*
X173087828Y-115570000D01*
X173087844Y-115569999D01*
X173147372Y-115563598D01*
X173147379Y-115563596D01*
X173282086Y-115513354D01*
X173282093Y-115513350D01*
X173397187Y-115427190D01*
X173397190Y-115427187D01*
X173483350Y-115312093D01*
X173483354Y-115312086D01*
X173533596Y-115177379D01*
X173533598Y-115177372D01*
X173539999Y-115117844D01*
X173540000Y-115117827D01*
X173540000Y-114520000D01*
X172555686Y-114520000D01*
X172560080Y-114515606D01*
X172612741Y-114424394D01*
X172640000Y-114322661D01*
X172640000Y-114217339D01*
X172612741Y-114115606D01*
X172560080Y-114024394D01*
X172555686Y-114020000D01*
X173540000Y-114020000D01*
X173540000Y-113422172D01*
X173539999Y-113422155D01*
X173533598Y-113362627D01*
X173533596Y-113362620D01*
X173483354Y-113227913D01*
X173483352Y-113227910D01*
X173461569Y-113198812D01*
X173437151Y-113133348D01*
X173452002Y-113065075D01*
X173501406Y-113015669D01*
X173560835Y-113000500D01*
X192435500Y-113000500D01*
X192502539Y-113020185D01*
G37*
%TD.AperFunction*%
%TD*%
M02*
