M48
; DRILL file {KiCad 9.0.7-9.0.7~ubuntu22.04.1} date 2026-02-15T22:28:27-0700
; FORMAT={-:-/ absolute / metric / decimal}
; #@! TF.CreationDate,2026-02-15T22:28:27-07:00
; #@! TF.GenerationSoftware,Kicad,Pcbnew,9.0.7-9.0.7~ubuntu22.04.1
; #@! TF.FileFunction,Plated,1,2,PTH
FMAT,2
METRIC
; #@! TA.AperFunction,Plated,PTH,ViaDrill
T1C0.300
; #@! TA.AperFunction,Plated,PTH,ComponentDrill
T2C0.800
; #@! TA.AperFunction,Plated,PTH,ComponentDrill
T3C1.040
%
G90
G05
T1
X173.9Y-117.7
X174.276Y-131.2
X174.4Y-132.0
X174.6Y-156.6
X174.7Y-119.1
X175.4Y-129.05
X176.0Y-139.775
X176.0Y-141.0
X176.4Y-118.25
X176.4Y-123.7
X176.4Y-126.05
X176.423Y-126.8
X176.6Y-145.8
X176.65Y-115.3
X177.075Y-140.925
X177.125Y-121.05
X177.2Y-133.3
X177.468Y-145.5
X177.65Y-140.4
X177.9Y-148.4
X178.1Y-157.8
X178.15Y-136.8
X178.15Y-142.8
X178.4Y-138.05
X178.811Y-149.567
X179.2Y-126.8
X179.2Y-131.1
X179.2Y-145.8
X179.3Y-123.5
X179.3Y-146.9
X179.3Y-157.8
X180.0Y-124.2
X180.0Y-125.05
X180.136Y-134.8
X180.194Y-145.24
X180.6Y-157.8
X180.65Y-130.8
X180.66Y-139.8
X180.785Y-134.4
X180.785Y-135.3
X181.1Y-142.2
X181.1Y-150.9
X182.0Y-143.6
X182.3Y-148.9
X182.4Y-130.05
X182.7Y-144.1
X182.785Y-133.05
X182.785Y-137.05
X183.0Y-146.4
X183.25Y-130.05
X183.84Y-143.089
X184.6Y-139.8
X184.785Y-134.8
X184.785Y-135.6
X184.9Y-130.8
X184.925Y-142.0
X185.785Y-136.05
X186.3Y-144.3
X186.475Y-142.2
X186.5Y-126.1
X186.6Y-115.5
X187.2Y-139.975
X187.2Y-148.7
X188.2Y-115.55
X188.3Y-122.7
X188.3Y-123.55
X188.3Y-124.55
X188.3Y-125.382
X188.347Y-126.255
X188.5Y-145.3
X188.9Y-136.8
X188.9Y-144.3
X189.2Y-138.6
X189.4Y-128.775
X189.4Y-129.6
X189.6Y-148.0
X191.0Y-156.0
T2
X172.24Y-114.27
X172.24Y-119.35
X172.24Y-121.89
X172.24Y-124.43
X172.24Y-126.97
X172.24Y-129.51
X172.24Y-132.05
X172.24Y-134.59
X172.24Y-137.13
X172.24Y-139.67
X172.24Y-142.21
X172.24Y-144.75
X172.24Y-147.29
X172.24Y-149.83
X172.24Y-152.37
X172.24Y-154.91
X172.24Y-157.45
X174.78Y-158.733
X192.56Y-114.27
X192.56Y-116.81
X192.56Y-119.35
X192.56Y-121.89
X192.56Y-124.43
X192.56Y-126.97
X192.56Y-129.51
X192.56Y-132.05
X192.56Y-134.59
X192.56Y-137.13
X192.56Y-139.67
X192.56Y-142.21
X192.56Y-144.75
X192.56Y-147.29
X192.56Y-149.83
X192.56Y-152.37
X192.56Y-154.91
X192.56Y-157.45
T3
X180.635Y-132.65
X180.635Y-137.45
X184.935Y-132.65
X184.935Y-137.45
M30
