%TF.GenerationSoftware,KiCad,Pcbnew,9.0.7-9.0.7~ubuntu22.04.1*%
%TF.CreationDate,2026-02-16T08:39:35-07:00*%
%TF.ProjectId,ESP32-S3-MINI-1_UU,45535033-322d-4533-932d-4d494e492d31,rev?*%
%TF.SameCoordinates,Original*%
%TF.FileFunction,Soldermask,Bot*%
%TF.FilePolarity,Negative*%
%FSLAX46Y46*%
G04 Gerber Fmt 4.6, Leading zero omitted, Abs format (unit mm)*
G04 Created by KiCad (PCBNEW 9.0.7-9.0.7~ubuntu22.04.1) date 2026-02-16 08:39:35*
%MOMM*%
%LPD*%
G01*
G04 APERTURE LIST*
%ADD10R,1.600000X1.600000*%
%ADD11C,1.600000*%
%ADD12C,0.520000*%
%ADD13C,0.890000*%
%ADD14C,1.460000*%
G04 APERTURE END LIST*
D10*
%TO.C,J8*%
X172240000Y-119350000D03*
D11*
X172240000Y-121890000D03*
X172240000Y-124430000D03*
X172240000Y-126970000D03*
X172240000Y-129510000D03*
X172240000Y-132050000D03*
X172240000Y-134590000D03*
X172240000Y-137130000D03*
X172240000Y-139670000D03*
X172240000Y-142210000D03*
X172240000Y-144750000D03*
X172240000Y-147290000D03*
X172240000Y-149830000D03*
X172240000Y-152370000D03*
X172240000Y-154910000D03*
X172240000Y-157450000D03*
%TD*%
D10*
%TO.C,J7*%
X174780000Y-158733000D03*
%TD*%
%TO.C,J4*%
X172240000Y-114270000D03*
%TD*%
D12*
%TO.C,J2*%
X182785000Y-138800000D03*
D13*
X182785000Y-131300000D03*
D14*
X180635000Y-137450000D03*
X180635000Y-132650000D03*
X184935000Y-132650000D03*
X184935000Y-137450000D03*
%TD*%
D10*
%TO.C,J9*%
X192560000Y-114270000D03*
D11*
X192560000Y-116810000D03*
X192560000Y-119350000D03*
X192560000Y-121890000D03*
X192560000Y-124430000D03*
X192560000Y-126970000D03*
X192560000Y-129510000D03*
X192560000Y-132050000D03*
X192560000Y-134590000D03*
X192560000Y-137130000D03*
X192560000Y-139670000D03*
X192560000Y-142210000D03*
X192560000Y-144750000D03*
X192560000Y-147290000D03*
X192560000Y-149830000D03*
X192560000Y-152370000D03*
X192560000Y-154910000D03*
X192560000Y-157450000D03*
%TD*%
M02*
