%TF.GenerationSoftware,KiCad,Pcbnew,9.0.7-9.0.7~ubuntu22.04.1*%
%TF.CreationDate,2026-02-16T21:37:16-07:00*%
%TF.ProjectId,ESP32-S3-MINI-1_UU,45535033-322d-4533-932d-4d494e492d31,rev?*%
%TF.SameCoordinates,Original*%
%TF.FileFunction,Copper,L1,Top*%
%TF.FilePolarity,Positive*%
%FSLAX46Y46*%
G04 Gerber Fmt 4.6, Leading zero omitted, Abs format (unit mm)*
G04 Created by KiCad (PCBNEW 9.0.7-9.0.7~ubuntu22.04.1) date 2026-02-16 21:37:16*
%MOMM*%
%LPD*%
G01*
G04 APERTURE LIST*
G04 Aperture macros list*
%AMRoundRect*
0 Rectangle with rounded corners*
0 $1 Rounding radius*
0 $2 $3 $4 $5 $6 $7 $8 $9 X,Y pos of 4 corners*
0 Add a 4 corners polygon primitive as box body*
4,1,4,$2,$3,$4,$5,$6,$7,$8,$9,$2,$3,0*
0 Add four circle primitives for the rounded corners*
1,1,$1+$1,$2,$3*
1,1,$1+$1,$4,$5*
1,1,$1+$1,$6,$7*
1,1,$1+$1,$8,$9*
0 Add four rect primitives between the rounded corners*
20,1,$1+$1,$2,$3,$4,$5,0*
20,1,$1+$1,$4,$5,$6,$7,0*
20,1,$1+$1,$6,$7,$8,$9,0*
20,1,$1+$1,$8,$9,$2,$3,0*%
%AMOutline5P*
0 Free polygon, 5 corners , with rotation*
0 The origin of the aperture is its center*
0 number of corners: always 5*
0 $1 to $10 corner X, Y*
0 $11 Rotation angle, in degrees counterclockwise*
0 create outline with 5 corners*
4,1,5,$1,$2,$3,$4,$5,$6,$7,$8,$9,$10,$1,$2,$11*%
%AMOutline6P*
0 Free polygon, 6 corners , with rotation*
0 The origin of the aperture is its center*
0 number of corners: always 6*
0 $1 to $12 corner X, Y*
0 $13 Rotation angle, in degrees counterclockwise*
0 create outline with 6 corners*
4,1,6,$1,$2,$3,$4,$5,$6,$7,$8,$9,$10,$11,$12,$1,$2,$13*%
%AMOutline7P*
0 Free polygon, 7 corners , with rotation*
0 The origin of the aperture is its center*
0 number of corners: always 7*
0 $1 to $14 corner X, Y*
0 $15 Rotation angle, in degrees counterclockwise*
0 create outline with 7 corners*
4,1,7,$1,$2,$3,$4,$5,$6,$7,$8,$9,$10,$11,$12,$13,$14,$1,$2,$15*%
%AMOutline8P*
0 Free polygon, 8 corners , with rotation*
0 The origin of the aperture is its center*
0 number of corners: always 8*
0 $1 to $16 corner X, Y*
0 $17 Rotation angle, in degrees counterclockwise*
0 create outline with 8 corners*
4,1,8,$1,$2,$3,$4,$5,$6,$7,$8,$9,$10,$11,$12,$13,$14,$15,$16,$1,$2,$17*%
G04 Aperture macros list end*
%TA.AperFunction,SMDPad,CuDef*%
%ADD10RoundRect,0.140000X-0.140000X-0.170000X0.140000X-0.170000X0.140000X0.170000X-0.140000X0.170000X0*%
%TD*%
%TA.AperFunction,SMDPad,CuDef*%
%ADD11RoundRect,0.135000X0.135000X0.185000X-0.135000X0.185000X-0.135000X-0.185000X0.135000X-0.185000X0*%
%TD*%
%TA.AperFunction,SMDPad,CuDef*%
%ADD12RoundRect,0.100000X0.100000X-0.562500X0.100000X0.562500X-0.100000X0.562500X-0.100000X-0.562500X0*%
%TD*%
%TA.AperFunction,SMDPad,CuDef*%
%ADD13RoundRect,0.135000X0.185000X-0.135000X0.185000X0.135000X-0.185000X0.135000X-0.185000X-0.135000X0*%
%TD*%
%TA.AperFunction,SMDPad,CuDef*%
%ADD14RoundRect,0.062500X-0.117500X-0.062500X0.117500X-0.062500X0.117500X0.062500X-0.117500X0.062500X0*%
%TD*%
%TA.AperFunction,SMDPad,CuDef*%
%ADD15RoundRect,0.062500X0.117500X0.062500X-0.117500X0.062500X-0.117500X-0.062500X0.117500X-0.062500X0*%
%TD*%
%TA.AperFunction,SMDPad,CuDef*%
%ADD16R,1.000000X0.900000*%
%TD*%
%TA.AperFunction,SMDPad,CuDef*%
%ADD17RoundRect,0.140000X0.170000X-0.140000X0.170000X0.140000X-0.170000X0.140000X-0.170000X-0.140000X0*%
%TD*%
%TA.AperFunction,SMDPad,CuDef*%
%ADD18RoundRect,0.140000X0.140000X0.170000X-0.140000X0.170000X-0.140000X-0.170000X0.140000X-0.170000X0*%
%TD*%
%TA.AperFunction,ComponentPad*%
%ADD19R,1.600000X1.600000*%
%TD*%
%TA.AperFunction,ComponentPad*%
%ADD20C,1.600000*%
%TD*%
%TA.AperFunction,SMDPad,CuDef*%
%ADD21R,0.700000X0.700000*%
%TD*%
%TA.AperFunction,SMDPad,CuDef*%
%ADD22RoundRect,0.147500X0.147500X0.172500X-0.147500X0.172500X-0.147500X-0.172500X0.147500X-0.172500X0*%
%TD*%
%TA.AperFunction,SMDPad,CuDef*%
%ADD23RoundRect,0.135000X-0.185000X0.135000X-0.185000X-0.135000X0.185000X-0.135000X0.185000X0.135000X0*%
%TD*%
%TA.AperFunction,SMDPad,CuDef*%
%ADD24RoundRect,0.147500X0.172500X-0.147500X0.172500X0.147500X-0.172500X0.147500X-0.172500X-0.147500X0*%
%TD*%
%TA.AperFunction,SMDPad,CuDef*%
%ADD25R,0.200000X0.750000*%
%TD*%
%TA.AperFunction,SMDPad,CuDef*%
%ADD26R,1.600000X1.000000*%
%TD*%
%TA.AperFunction,SMDPad,CuDef*%
%ADD27RoundRect,0.135000X-0.135000X-0.185000X0.135000X-0.185000X0.135000X0.185000X-0.135000X0.185000X0*%
%TD*%
%TA.AperFunction,SMDPad,CuDef*%
%ADD28R,1.550000X0.600000*%
%TD*%
%TA.AperFunction,SMDPad,CuDef*%
%ADD29R,2.000000X1.200000*%
%TD*%
%TA.AperFunction,SMDPad,CuDef*%
%ADD30R,0.300000X0.700000*%
%TD*%
%TA.AperFunction,SMDPad,CuDef*%
%ADD31R,1.380000X0.800000*%
%TD*%
%TA.AperFunction,SMDPad,CuDef*%
%ADD32R,1.000000X4.600000*%
%TD*%
%TA.AperFunction,SMDPad,CuDef*%
%ADD33R,1.600000X3.400000*%
%TD*%
%TA.AperFunction,SMDPad,CuDef*%
%ADD34RoundRect,0.147500X-0.147500X-0.172500X0.147500X-0.172500X0.147500X0.172500X-0.147500X0.172500X0*%
%TD*%
%TA.AperFunction,SMDPad,CuDef*%
%ADD35RoundRect,0.140000X-0.170000X0.140000X-0.170000X-0.140000X0.170000X-0.140000X0.170000X0.140000X0*%
%TD*%
%TA.AperFunction,SMDPad,CuDef*%
%ADD36R,0.800000X0.400000*%
%TD*%
%TA.AperFunction,SMDPad,CuDef*%
%ADD37R,0.400000X0.800000*%
%TD*%
%TA.AperFunction,HeatsinkPad*%
%ADD38Outline5P,-0.600000X0.204000X-0.204000X0.600000X0.600000X0.600000X0.600000X-0.600000X-0.600000X-0.600000X0.000000*%
%TD*%
%TA.AperFunction,HeatsinkPad*%
%ADD39R,1.200000X1.200000*%
%TD*%
%TA.AperFunction,SMDPad,CuDef*%
%ADD40R,0.800000X0.800000*%
%TD*%
%TA.AperFunction,SMDPad,CuDef*%
%ADD41R,1.650000X0.500000*%
%TD*%
%TA.AperFunction,SMDPad,CuDef*%
%ADD42RoundRect,0.087500X0.087500X-0.250000X0.087500X0.250000X-0.087500X0.250000X-0.087500X-0.250000X0*%
%TD*%
%TA.AperFunction,SMDPad,CuDef*%
%ADD43R,0.870000X0.300000*%
%TD*%
%TA.AperFunction,ComponentPad*%
%ADD44C,1.460000*%
%TD*%
%TA.AperFunction,SMDPad,CuDef*%
%ADD45R,0.600000X0.250000*%
%TD*%
%TA.AperFunction,SMDPad,CuDef*%
%ADD46R,1.000000X0.200000*%
%TD*%
%TA.AperFunction,CastellatedPad*%
%ADD47R,1.600000X1.600000*%
%TD*%
%TA.AperFunction,CastellatedPad*%
%ADD48C,1.600000*%
%TD*%
%TA.AperFunction,ViaPad*%
%ADD49C,0.600000*%
%TD*%
%TA.AperFunction,ViaPad*%
%ADD50C,0.500000*%
%TD*%
%TA.AperFunction,Conductor*%
%ADD51C,0.200000*%
%TD*%
%TA.AperFunction,Conductor*%
%ADD52C,0.150000*%
%TD*%
%TA.AperFunction,Conductor*%
%ADD53C,0.400000*%
%TD*%
%TA.AperFunction,Conductor*%
%ADD54C,0.250000*%
%TD*%
%TA.AperFunction,Conductor*%
%ADD55C,0.300000*%
%TD*%
G04 APERTURE END LIST*
D10*
%TO.P,C11,1*%
%TO.N,3V3*%
X186920000Y-145300000D03*
%TO.P,C11,2*%
%TO.N,GND*%
X187880000Y-145300000D03*
%TD*%
D11*
%TO.P,R14,1*%
%TO.N,3V3*%
X187910000Y-143300000D03*
%TO.P,R14,2*%
%TO.N,SCL*%
X186890000Y-143300000D03*
%TD*%
D12*
%TO.P,U5,1,VIN*%
%TO.N,V_USB*%
X179950000Y-156875000D03*
%TO.P,U5,2,GND*%
%TO.N,GND*%
X180600000Y-156875000D03*
%TO.P,U5,3,~{CE}*%
%TO.N,5V_IN*%
X181250000Y-156875000D03*
%TO.P,U5,4,NC*%
%TO.N,unconnected-(U5-NC-Pad4)*%
X181250000Y-155100000D03*
%TO.P,U5,5,ST*%
%TO.N,unconnected-(U5-ST-Pad5)*%
X180600000Y-155100000D03*
%TO.P,U5,6,VOUT*%
%TO.N,5V*%
X179950000Y-155100000D03*
%TD*%
D13*
%TO.P,R9,1*%
%TO.N,V_SYS*%
X178200000Y-147810000D03*
%TO.P,R9,2*%
%TO.N,Net-(D2-A)*%
X178200000Y-146790000D03*
%TD*%
D11*
%TO.P,TH1,1*%
%TO.N,Net-(IC2-TS{slash}MR)*%
X175610000Y-153300000D03*
%TO.P,TH1,2*%
%TO.N,GND*%
X174590000Y-153300000D03*
%TD*%
D14*
%TO.P,D7,1,A1*%
%TO.N,GND*%
X184320000Y-129300000D03*
%TO.P,D7,2,A2*%
%TO.N,D+*%
X183480000Y-129300000D03*
%TD*%
D15*
%TO.P,D8,1,A1*%
%TO.N,GND*%
X181380000Y-129300000D03*
%TO.P,D8,2,A2*%
%TO.N,D-*%
X182220000Y-129300000D03*
%TD*%
D16*
%TO.P,L1,1,1*%
%TO.N,Net-(IC1-SW)*%
X177060000Y-143500000D03*
%TO.P,L1,2,2*%
%TO.N,3V3*%
X177060000Y-141900000D03*
%TD*%
D17*
%TO.P,C8,1*%
%TO.N,5V*%
X179800000Y-151880000D03*
%TO.P,C8,2*%
%TO.N,GND*%
X179800000Y-150920000D03*
%TD*%
D18*
%TO.P,C12,1*%
%TO.N,Net-(S2-NO)*%
X187880000Y-138050000D03*
%TO.P,C12,2*%
%TO.N,GND*%
X186920000Y-138050000D03*
%TD*%
D19*
%TO.P,J8,1,1*%
%TO.N,3V3*%
X172240000Y-119350000D03*
D20*
%TO.P,J8,2,2*%
%TO.N,LED*%
X172240000Y-121890000D03*
%TO.P,J8,3,3*%
%TO.N,IO3*%
X172240000Y-124430000D03*
%TO.P,J8,4,4*%
%TO.N,IO4*%
X172240000Y-126970000D03*
%TO.P,J8,5,5*%
%TO.N,IO5*%
X172240000Y-129510000D03*
%TO.P,J8,6,6*%
%TO.N,IO6*%
X172240000Y-132050000D03*
%TO.P,J8,7,7*%
%TO.N,IO7*%
X172240000Y-134590000D03*
%TO.P,J8,8,8*%
%TO.N,IO10*%
X172240000Y-137130000D03*
%TO.P,J8,9,9*%
%TO.N,IO11*%
X172240000Y-139670000D03*
%TO.P,J8,10,10*%
%TO.N,IO12*%
X172240000Y-142210000D03*
%TO.P,J8,11,11*%
%TO.N,IO13*%
X172240000Y-144750000D03*
%TO.P,J8,12,12*%
%TO.N,IO14*%
X172240000Y-147290000D03*
%TO.P,J8,13,13*%
%TO.N,IO15*%
X172240000Y-149830000D03*
%TO.P,J8,14,14*%
%TO.N,IO16*%
X172240000Y-152370000D03*
%TO.P,J8,15,15*%
%TO.N,IO17*%
X172240000Y-154910000D03*
%TO.P,J8,16,16*%
%TO.N,IO18*%
X172240000Y-157450000D03*
%TD*%
D21*
%TO.P,D6,1,DOUT*%
%TO.N,unconnected-(D6-DOUT-Pad1)*%
X186570000Y-146450000D03*
%TO.P,D6,2,VSS*%
%TO.N,GND*%
X186570000Y-147550000D03*
%TO.P,D6,3,DIN*%
%TO.N,RGB*%
X188400000Y-147550000D03*
%TO.P,D6,4,VDD*%
%TO.N,3V3*%
X188400000Y-146450000D03*
%TD*%
D18*
%TO.P,C5,1*%
%TO.N,V_SYS*%
X177540000Y-144700000D03*
%TO.P,C5,2*%
%TO.N,GND*%
X176580000Y-144700000D03*
%TD*%
D22*
%TO.P,D4,1,K*%
%TO.N,GND*%
X183870000Y-140800000D03*
%TO.P,D4,2,A*%
%TO.N,Net-(D4-A)*%
X182900000Y-140800000D03*
%TD*%
D11*
%TO.P,R2,1*%
%TO.N,Net-(IC2-ILIM{slash}VSET)*%
X175610000Y-154300000D03*
%TO.P,R2,2*%
%TO.N,GND*%
X174590000Y-154300000D03*
%TD*%
D23*
%TO.P,R4,1*%
%TO.N,Net-(J2-CC2)*%
X185785000Y-134290000D03*
%TO.P,R4,2*%
%TO.N,GND*%
X185785000Y-135310000D03*
%TD*%
D24*
%TO.P,D5,1,K*%
%TO.N,Net-(D5-K)*%
X179200000Y-133020000D03*
%TO.P,D5,2,A*%
%TO.N,LED*%
X179200000Y-132050000D03*
%TD*%
D23*
%TO.P,R12,1*%
%TO.N,Net-(D5-K)*%
X178200000Y-132050000D03*
%TO.P,R12,2*%
%TO.N,GND*%
X178200000Y-133070000D03*
%TD*%
D25*
%TO.P,IC2,1,SYS*%
%TO.N,V_SYS*%
X177800000Y-149900000D03*
%TO.P,IC2,2,BAT*%
%TO.N,VBAT*%
X177400000Y-149900000D03*
%TO.P,IC2,3,STAT2*%
%TO.N,Net-(D2-K)*%
X177000000Y-149900000D03*
%TO.P,IC2,4,~{CE}*%
%TO.N,Net-(IC2-~{CE})*%
X176600000Y-149900000D03*
%TO.P,IC2,5,GND*%
%TO.N,GND*%
X176200000Y-149900000D03*
%TO.P,IC2,6,TS/MR*%
%TO.N,Net-(IC2-TS{slash}MR)*%
X176200000Y-152100000D03*
%TO.P,IC2,7,ILIM/VSET*%
%TO.N,Net-(IC2-ILIM{slash}VSET)*%
X176600000Y-152100000D03*
%TO.P,IC2,8,ISET*%
%TO.N,Net-(IC2-ISET)*%
X177000000Y-152100000D03*
%TO.P,IC2,9,STAT1*%
%TO.N,Net-(D3-K)*%
X177400000Y-152100000D03*
%TO.P,IC2,10,IN*%
%TO.N,5V*%
X177800000Y-152100000D03*
D26*
%TO.P,IC2,11,EP*%
%TO.N,GND*%
X177000000Y-151000000D03*
%TD*%
D11*
%TO.P,R3,1*%
%TO.N,Net-(IC2-ISET)*%
X175620000Y-155300000D03*
%TO.P,R3,2*%
%TO.N,GND*%
X174600000Y-155300000D03*
%TD*%
D27*
%TO.P,R13,1*%
%TO.N,3V3*%
X176640000Y-139050000D03*
%TO.P,R13,2*%
%TO.N,Net-(S1-NO)*%
X177660000Y-139050000D03*
%TD*%
D10*
%TO.P,C9,1*%
%TO.N,V_USB*%
X179060000Y-139800000D03*
%TO.P,C9,2*%
%TO.N,GND*%
X180020000Y-139800000D03*
%TD*%
D28*
%TO.P,J3,1,Pin_1*%
%TO.N,GND*%
X185161000Y-146300000D03*
%TO.P,J3,2,Pin_2*%
%TO.N,3V3*%
X185161000Y-145300000D03*
%TO.P,J3,3,Pin_3*%
%TO.N,SDA*%
X185161000Y-144300000D03*
%TO.P,J3,4,Pin_4*%
%TO.N,SCL*%
X185161000Y-143300000D03*
D29*
%TO.P,J3,NC1,NC*%
%TO.N,unconnected-(J3-NC-PadNC1)*%
X182736000Y-147600000D03*
%TO.P,J3,NC2,NC*%
%TO.N,unconnected-(J3-NC-PadNC2)*%
X182736000Y-142000000D03*
%TD*%
D17*
%TO.P,C14,1*%
%TO.N,3V3*%
X185600000Y-140760000D03*
%TO.P,C14,2*%
%TO.N,GND*%
X185600000Y-139800000D03*
%TD*%
D30*
%TO.P,U3,1,CTG*%
%TO.N,GND*%
X179694000Y-147890000D03*
%TO.P,U3,2,CELL*%
%TO.N,VBAT*%
X180194000Y-147890000D03*
%TO.P,U3,3,VDD*%
X180694000Y-147890000D03*
%TO.P,U3,4,GND*%
%TO.N,GND*%
X181194000Y-147890000D03*
%TO.P,U3,5,~{ALRT}*%
%TO.N,BAT_ALRT*%
X181194000Y-145910000D03*
%TO.P,U3,6,QSTRT*%
%TO.N,GND*%
X180694000Y-145910000D03*
%TO.P,U3,7,SCL*%
%TO.N,SCL*%
X180194000Y-145910000D03*
%TO.P,U3,8,SDA*%
%TO.N,SDA*%
X179694000Y-145910000D03*
D31*
%TO.P,U3,9,GND*%
%TO.N,GND*%
X180444000Y-146900000D03*
%TD*%
D19*
%TO.P,J7,1,1*%
%TO.N,5V_IN*%
X174780000Y-158733000D03*
%TD*%
D11*
%TO.P,R16,1*%
%TO.N,3V3*%
X187910000Y-144300000D03*
%TO.P,R16,2*%
%TO.N,SDA*%
X186890000Y-144300000D03*
%TD*%
D10*
%TO.P,C15,1*%
%TO.N,VBAT*%
X180220000Y-148900000D03*
%TO.P,C15,2*%
%TO.N,GND*%
X181180000Y-148900000D03*
%TD*%
D13*
%TO.P,R5,1*%
%TO.N,Net-(J2-CC1)*%
X179650000Y-135560000D03*
%TO.P,R5,2*%
%TO.N,GND*%
X179650000Y-134540000D03*
%TD*%
D14*
%TO.P,D1,1,A1*%
%TO.N,GND*%
X180035000Y-138800000D03*
%TO.P,D1,2,A2*%
%TO.N,V_USB*%
X179195000Y-138800000D03*
%TD*%
D10*
%TO.P,C7,1*%
%TO.N,VBAT*%
X185120000Y-148700000D03*
%TO.P,C7,2*%
%TO.N,GND*%
X186080000Y-148700000D03*
%TD*%
D32*
%TO.P,J1,1,-*%
%TO.N,GND*%
X187200000Y-151700000D03*
%TO.P,J1,2,+*%
%TO.N,VBAT*%
X185200000Y-151700000D03*
D33*
%TO.P,J1,NC1,NC1*%
%TO.N,unconnected-(J1-PadNC1)*%
X189600000Y-156900000D03*
%TO.P,J1,NC2,NC2*%
%TO.N,unconnected-(J1-PadNC2)*%
X182800000Y-156900000D03*
%TD*%
D18*
%TO.P,C4,1*%
%TO.N,3V3*%
X173900000Y-117000000D03*
%TO.P,C4,2*%
%TO.N,GND*%
X172940000Y-117000000D03*
%TD*%
D23*
%TO.P,R1,1*%
%TO.N,Net-(IC1-PG)*%
X181160000Y-143090000D03*
%TO.P,R1,2*%
%TO.N,V_SYS*%
X181160000Y-144110000D03*
%TD*%
D34*
%TO.P,D3,1,K*%
%TO.N,Net-(D3-K)*%
X177615000Y-153200000D03*
%TO.P,D3,2,A*%
%TO.N,Net-(D3-A)*%
X178585000Y-153200000D03*
%TD*%
D35*
%TO.P,C6,1*%
%TO.N,V_SYS*%
X178800000Y-149920000D03*
%TO.P,C6,2*%
%TO.N,GND*%
X178800000Y-150880000D03*
%TD*%
D17*
%TO.P,C1,1*%
%TO.N,3V3*%
X179100000Y-141980000D03*
%TO.P,C1,2*%
%TO.N,GND*%
X179100000Y-141020000D03*
%TD*%
D27*
%TO.P,R10,1*%
%TO.N,Net-(D3-A)*%
X179590000Y-153200000D03*
%TO.P,R10,2*%
%TO.N,5V*%
X180610000Y-153200000D03*
%TD*%
D36*
%TO.P,U2,1,GND*%
%TO.N,GND*%
X175400000Y-114850000D03*
%TO.P,U2,2,GND*%
X175400000Y-115700000D03*
%TO.P,U2,3,3V3*%
%TO.N,3V3*%
X175400000Y-116550000D03*
%TO.P,U2,4,IO0*%
%TO.N,Net-(S1-NO)*%
X175400000Y-117400000D03*
%TO.P,U2,5,IO1*%
%TO.N,BAT_ALRT*%
X175400000Y-118250000D03*
%TO.P,U2,6,IO2*%
%TO.N,LED*%
X175400000Y-119100000D03*
%TO.P,U2,7,IO3*%
%TO.N,IO3*%
X175400000Y-119950000D03*
%TO.P,U2,8,IO4*%
%TO.N,IO4*%
X175400000Y-120800000D03*
%TO.P,U2,9,IO5*%
%TO.N,IO5*%
X175400000Y-121650000D03*
%TO.P,U2,10,IO6*%
%TO.N,IO6*%
X175400000Y-122500000D03*
%TO.P,U2,11,IO7*%
%TO.N,IO7*%
X175400000Y-123350000D03*
%TO.P,U2,12,IO8*%
%TO.N,SDA*%
X175400000Y-124200000D03*
%TO.P,U2,13,IO9*%
%TO.N,SCL*%
X175400000Y-125050000D03*
%TO.P,U2,14,IO10*%
%TO.N,IO10*%
X175400000Y-125900000D03*
%TO.P,U2,15,IO11*%
%TO.N,IO11*%
X175400000Y-126750000D03*
D37*
%TO.P,U2,16,IO12*%
%TO.N,IO12*%
X176450000Y-127800000D03*
%TO.P,U2,17,IO13*%
%TO.N,IO13*%
X177300000Y-127800000D03*
%TO.P,U2,18,IO14*%
%TO.N,IO14*%
X178150000Y-127800000D03*
%TO.P,U2,19,IO15*%
%TO.N,IO15*%
X179000000Y-127800000D03*
%TO.P,U2,20,IO16*%
%TO.N,IO16*%
X179850000Y-127800000D03*
%TO.P,U2,21,IO17*%
%TO.N,IO17*%
X180700000Y-127800000D03*
%TO.P,U2,22,IO18*%
%TO.N,IO18*%
X181550000Y-127800000D03*
%TO.P,U2,23,USB_D-*%
%TO.N,D-*%
X182400000Y-127800000D03*
%TO.P,U2,24,USB_D+*%
%TO.N,D+*%
X183250000Y-127800000D03*
%TO.P,U2,25,IO21*%
%TO.N,IO21*%
X184100000Y-127800000D03*
%TO.P,U2,26,IO26*%
%TO.N,IO26*%
X184950000Y-127800000D03*
%TO.P,U2,27,IO47*%
%TO.N,IO47*%
X185800000Y-127800000D03*
%TO.P,U2,28,IO33*%
%TO.N,IO33*%
X186650000Y-127800000D03*
%TO.P,U2,29,IO34*%
%TO.N,IO34*%
X187500000Y-127800000D03*
%TO.P,U2,30,IO48*%
%TO.N,RGB*%
X188350000Y-127800000D03*
D36*
%TO.P,U2,31,IO35*%
%TO.N,IO35*%
X189400000Y-126750000D03*
%TO.P,U2,32,IO36*%
%TO.N,IO36*%
X189400000Y-125900000D03*
%TO.P,U2,33,IO37*%
%TO.N,IO37*%
X189400000Y-125050000D03*
%TO.P,U2,34,IO38*%
%TO.N,IO38*%
X189400000Y-124200000D03*
%TO.P,U2,35,IO39*%
%TO.N,MTCK*%
X189400000Y-123350000D03*
%TO.P,U2,36,IO40*%
%TO.N,MTDO*%
X189400000Y-122500000D03*
%TO.P,U2,37,IO41*%
%TO.N,MTDI*%
X189400000Y-121650000D03*
%TO.P,U2,38,IO42*%
%TO.N,MTMS*%
X189400000Y-120800000D03*
%TO.P,U2,39,TXD0*%
%TO.N,TX*%
X189400000Y-119950000D03*
%TO.P,U2,40,RXD0*%
%TO.N,RX*%
X189400000Y-119100000D03*
%TO.P,U2,41,IO45*%
%TO.N,IO45*%
X189400000Y-118250000D03*
%TO.P,U2,42,GND*%
%TO.N,GND*%
X189400000Y-117400000D03*
%TO.P,U2,43,GND*%
X189400000Y-116550000D03*
%TO.P,U2,44,IO46*%
%TO.N,IO46*%
X189400000Y-115700000D03*
%TO.P,U2,45,EN*%
%TO.N,Net-(S2-NO)*%
X189400000Y-114850000D03*
D37*
%TO.P,U2,46,GND*%
%TO.N,GND*%
X188350000Y-113800000D03*
%TO.P,U2,47,GND*%
X187500000Y-113800000D03*
%TO.P,U2,48,GND*%
X186650000Y-113800000D03*
%TO.P,U2,49,GND*%
X185800000Y-113800000D03*
%TO.P,U2,50,GND*%
X184950000Y-113800000D03*
%TO.P,U2,51,GND*%
X184100000Y-113800000D03*
%TO.P,U2,52,GND*%
X183250000Y-113800000D03*
%TO.P,U2,53,GND*%
X182400000Y-113800000D03*
%TO.P,U2,54,GND*%
X181550000Y-113800000D03*
%TO.P,U2,55,GND*%
X180700000Y-113800000D03*
%TO.P,U2,56,GND*%
X179850000Y-113800000D03*
%TO.P,U2,57,GND*%
X179000000Y-113800000D03*
%TO.P,U2,58,GND*%
X178150000Y-113800000D03*
%TO.P,U2,59,GND*%
X177300000Y-113800000D03*
%TO.P,U2,60,GND*%
X176450000Y-113800000D03*
D38*
%TO.P,U2,61,GND*%
X180750000Y-119150000D03*
D39*
X180750000Y-120800000D03*
X180750000Y-122450000D03*
X182400000Y-119150000D03*
X182400000Y-120800000D03*
X182400000Y-122450000D03*
X184050000Y-119150000D03*
X184050000Y-120800000D03*
X184050000Y-122450000D03*
D40*
%TO.P,U2,62,GND*%
X175400000Y-113800000D03*
%TO.P,U2,63,GND*%
X175400000Y-127800000D03*
%TO.P,U2,64,GND*%
X189400000Y-127800000D03*
%TO.P,U2,65,GND*%
X189400000Y-113800000D03*
%TD*%
D41*
%TO.P,S1,1,COM*%
%TO.N,GND*%
X176900000Y-134550000D03*
%TO.P,S1,2,NO*%
%TO.N,Net-(S1-NO)*%
X176900000Y-136850000D03*
%TD*%
D10*
%TO.P,C10,1*%
%TO.N,Net-(S1-NO)*%
X176670000Y-138050000D03*
%TO.P,C10,2*%
%TO.N,GND*%
X177630000Y-138050000D03*
%TD*%
D27*
%TO.P,R11,1*%
%TO.N,V_USB*%
X180990000Y-140800000D03*
%TO.P,R11,2*%
%TO.N,Net-(D4-A)*%
X182010000Y-140800000D03*
%TD*%
D42*
%TO.P,U4,1,SCL*%
%TO.N,SCL*%
X186900000Y-142212500D03*
%TO.P,U4,2,GND*%
%TO.N,GND*%
X187400000Y-142212500D03*
%TO.P,U4,3,ALERT*%
%TO.N,unconnected-(U4-ALERT-Pad3)*%
X187900000Y-142212500D03*
%TO.P,U4,4,ADD0*%
%TO.N,GND*%
X187900000Y-140787500D03*
%TO.P,U4,5,V+*%
%TO.N,3V3*%
X187400000Y-140787500D03*
%TO.P,U4,6,SDA*%
%TO.N,SDA*%
X186900000Y-140787500D03*
%TD*%
D27*
%TO.P,R17,1*%
%TO.N,3V3*%
X186890000Y-139050000D03*
%TO.P,R17,2*%
%TO.N,Net-(S2-NO)*%
X187910000Y-139050000D03*
%TD*%
D12*
%TO.P,U1,1,VIN*%
%TO.N,5V_IN*%
X177400000Y-156875000D03*
%TO.P,U1,2,GND*%
%TO.N,GND*%
X178050000Y-156875000D03*
%TO.P,U1,3,~{CE}*%
%TO.N,V_USB*%
X178700000Y-156875000D03*
%TO.P,U1,4,NC*%
%TO.N,unconnected-(U1-NC-Pad4)*%
X178700000Y-155100000D03*
%TO.P,U1,5,ST*%
%TO.N,unconnected-(U1-ST-Pad5)*%
X178050000Y-155100000D03*
%TO.P,U1,6,VOUT*%
%TO.N,5V*%
X177400000Y-155100000D03*
%TD*%
D19*
%TO.P,J4,1,1*%
%TO.N,GND*%
X172240000Y-114270000D03*
%TD*%
D18*
%TO.P,C3,1*%
%TO.N,3V3*%
X173880000Y-116000000D03*
%TO.P,C3,2*%
%TO.N,GND*%
X172920000Y-116000000D03*
%TD*%
D17*
%TO.P,C2,1*%
%TO.N,3V3*%
X180100000Y-141980000D03*
%TO.P,C2,2*%
%TO.N,GND*%
X180100000Y-141020000D03*
%TD*%
D43*
%TO.P,J2,A1,GND_1*%
%TO.N,GND*%
X181920000Y-137800000D03*
%TO.P,J2,A4,VBUS_1*%
%TO.N,V_USB*%
X181920000Y-136300000D03*
%TO.P,J2,A5,CC1*%
%TO.N,Net-(J2-CC1)*%
X181920000Y-135800000D03*
%TO.P,J2,A6,DP1*%
%TO.N,D+*%
X181920000Y-135300000D03*
%TO.P,J2,A7,DN1*%
%TO.N,D-*%
X181920000Y-134800000D03*
%TO.P,J2,A8,SBU1*%
%TO.N,unconnected-(J2-SBU1-PadA8)*%
X181920000Y-134300000D03*
%TO.P,J2,A9,VBUS_2*%
%TO.N,V_USB*%
X181920000Y-133800000D03*
%TO.P,J2,A12,GND_2*%
%TO.N,GND*%
X181920000Y-132300000D03*
%TO.P,J2,B1,GND_3*%
X183650000Y-132300000D03*
%TO.P,J2,B4,VBUS_3*%
%TO.N,V_USB*%
X183650000Y-133800000D03*
%TO.P,J2,B5,CC2*%
%TO.N,Net-(J2-CC2)*%
X183650000Y-134300000D03*
%TO.P,J2,B6,DP2*%
%TO.N,D+*%
X183650000Y-134800000D03*
%TO.P,J2,B7,DN2*%
%TO.N,D-*%
X183650000Y-135300000D03*
%TO.P,J2,B8,SBU2*%
%TO.N,unconnected-(J2-SBU2-PadB8)*%
X183650000Y-135800000D03*
%TO.P,J2,B9,VBUS_4*%
%TO.N,V_USB*%
X183650000Y-136300000D03*
%TO.P,J2,B12,GND_4*%
%TO.N,GND*%
X183650000Y-137800000D03*
D44*
%TO.P,J2,MH1,MH1*%
X180635000Y-137450000D03*
%TO.P,J2,MH2,MH2*%
X180635000Y-132650000D03*
%TO.P,J2,MH3,MH3*%
X184935000Y-132650000D03*
%TO.P,J2,MH4,MH4*%
X184935000Y-137450000D03*
%TD*%
D13*
%TO.P,R8,1*%
%TO.N,Net-(IC2-~{CE})*%
X176200000Y-147810000D03*
%TO.P,R8,2*%
%TO.N,GND*%
X176200000Y-146790000D03*
%TD*%
D41*
%TO.P,S2,1,COM*%
%TO.N,GND*%
X187650000Y-134550000D03*
%TO.P,S2,2,NO*%
%TO.N,Net-(S2-NO)*%
X187650000Y-136850000D03*
%TD*%
D45*
%TO.P,IC1,1,EN*%
%TO.N,V_SYS*%
X180060000Y-144100000D03*
%TO.P,IC1,2,PG*%
%TO.N,Net-(IC1-PG)*%
X180060000Y-143600000D03*
%TO.P,IC1,3,FB*%
%TO.N,3V3*%
X180060000Y-143100000D03*
D46*
%TO.P,IC1,4,GND*%
%TO.N,GND*%
X178960000Y-143100000D03*
%TO.P,IC1,5,SW*%
%TO.N,Net-(IC1-SW)*%
X178960000Y-143600000D03*
%TO.P,IC1,6,VIN*%
%TO.N,V_SYS*%
X178960000Y-144100000D03*
%TD*%
D24*
%TO.P,D2,1,K*%
%TO.N,Net-(D2-K)*%
X177200000Y-147785000D03*
%TO.P,D2,2,A*%
%TO.N,Net-(D2-A)*%
X177200000Y-146815000D03*
%TD*%
D47*
%TO.P,J9,1,1*%
%TO.N,IO46*%
X192560000Y-114270000D03*
D48*
%TO.P,J9,2,2*%
%TO.N,IO45*%
X192560000Y-116810000D03*
%TO.P,J9,3,3*%
%TO.N,RX*%
X192560000Y-119350000D03*
%TO.P,J9,4,4*%
%TO.N,TX*%
X192560000Y-121890000D03*
%TO.P,J9,5,5*%
%TO.N,MTMS*%
X192560000Y-124430000D03*
%TO.P,J9,6,6*%
%TO.N,MTDI*%
X192560000Y-126970000D03*
%TO.P,J9,7,7*%
%TO.N,MTDO*%
X192560000Y-129510000D03*
%TO.P,J9,8,8*%
%TO.N,MTCK*%
X192560000Y-132050000D03*
%TO.P,J9,9,9*%
%TO.N,IO38*%
X192560000Y-134590000D03*
%TO.P,J9,10,10*%
%TO.N,IO37*%
X192560000Y-137130000D03*
%TO.P,J9,11,11*%
%TO.N,IO36*%
X192560000Y-139670000D03*
%TO.P,J9,12,12*%
%TO.N,IO35*%
X192560000Y-142210000D03*
%TO.P,J9,13,13*%
%TO.N,IO34*%
X192560000Y-144750000D03*
%TO.P,J9,14,14*%
%TO.N,IO33*%
X192560000Y-147290000D03*
%TO.P,J9,15,15*%
%TO.N,IO47*%
X192560000Y-149830000D03*
%TO.P,J9,16,16*%
%TO.N,IO26*%
X192560000Y-152370000D03*
%TO.P,J9,17,17*%
%TO.N,IO21*%
X192560000Y-154910000D03*
%TO.P,J9,18,18*%
%TO.N,GND*%
X192560000Y-157450000D03*
%TD*%
D49*
%TO.N,3V3*%
X183840320Y-143088998D03*
%TO.N,BAT_ALRT*%
X182700000Y-144100000D03*
D50*
%TO.N,GND*%
X179300000Y-123500000D03*
X188500000Y-145300000D03*
X184925000Y-142000000D03*
D49*
X176600000Y-145800000D03*
D50*
X178100000Y-157800000D03*
X179300000Y-146900000D03*
X189200000Y-138600000D03*
D49*
X178150000Y-142800000D03*
D50*
X180600000Y-157800000D03*
D49*
X191000000Y-156000000D03*
D50*
X181100000Y-150900000D03*
X176650000Y-115300000D03*
X187200000Y-148700000D03*
X174600000Y-156600000D03*
D49*
X180660000Y-139800000D03*
D50*
X178400000Y-138050000D03*
X176423000Y-126800000D03*
X183000000Y-146400000D03*
X182000000Y-143600000D03*
X184900000Y-130800000D03*
D49*
X184600000Y-139800000D03*
X185785000Y-136050000D03*
D50*
X181100000Y-142200000D03*
X177650000Y-140400000D03*
X186500000Y-126100000D03*
X189600000Y-148000000D03*
X189400000Y-128775000D03*
X180136000Y-134800000D03*
X186600000Y-115500000D03*
X176400000Y-123700000D03*
X179200000Y-126800000D03*
D49*
X182785000Y-133050000D03*
X182785000Y-137050000D03*
D50*
X182300000Y-148900000D03*
X177200000Y-133300000D03*
X180650000Y-130800000D03*
D49*
X188300000Y-122700000D03*
%TO.N,V_USB*%
X179300000Y-157800000D03*
X176000000Y-141000000D03*
D50*
%TO.N,IO36*%
X188300000Y-125381823D03*
%TO.N,IO35*%
X188347135Y-126254671D03*
D49*
%TO.N,BAT_ALRT*%
X176400000Y-118250000D03*
D50*
%TO.N,LED*%
X179200000Y-131100000D03*
D49*
X174700000Y-119100000D03*
D50*
%TO.N,IO37*%
X188300000Y-124550000D03*
D49*
%TO.N,3V3*%
X176000000Y-139775000D03*
X177075000Y-140925000D03*
X173900000Y-117700000D03*
%TO.N,SCL*%
X180000000Y-125050000D03*
D50*
X186475000Y-142200000D03*
X180194000Y-145240000D03*
D49*
%TO.N,SDA*%
X180000000Y-124200000D03*
D50*
X187200000Y-139974949D03*
X179200000Y-145800000D03*
D49*
X186300000Y-144300000D03*
%TO.N,D+*%
X184785000Y-134800000D03*
X183250000Y-130050000D03*
X180785000Y-135300000D03*
D50*
%TO.N,RGB*%
X189400000Y-129600000D03*
X188900000Y-143800000D03*
D49*
%TO.N,D-*%
X184785000Y-135600000D03*
X182400000Y-130050000D03*
X180785000Y-134400000D03*
%TO.N,Net-(S1-NO)*%
X178150000Y-136800000D03*
X177125000Y-121050000D03*
D50*
%TO.N,Net-(S2-NO)*%
X188200000Y-115550000D03*
X188900000Y-136800000D03*
%TO.N,IO12*%
X174400000Y-132000000D03*
%TO.N,IO11*%
X175400000Y-129050000D03*
X176400000Y-126050000D03*
X174276000Y-131200000D03*
%TO.N,IO38*%
X188300000Y-123550000D03*
%TO.N,V_SYS*%
X177900000Y-148400000D03*
D49*
X177467500Y-145500000D03*
D50*
X178810731Y-149567286D03*
%TD*%
D51*
%TO.N,V_SYS*%
X178960000Y-144100000D02*
X178500000Y-144100000D01*
X178500000Y-144100000D02*
X177900000Y-144700000D01*
X177900000Y-144700000D02*
X177540000Y-144700000D01*
D52*
%TO.N,RGB*%
X189100000Y-144900000D02*
X189100000Y-146850000D01*
X188900000Y-143800000D02*
X188900000Y-144700000D01*
X188900000Y-144700000D02*
X189100000Y-144900000D01*
X189100000Y-146850000D02*
X188400000Y-147550000D01*
D53*
%TO.N,GND*%
X186080000Y-148660000D02*
X186120000Y-148700000D01*
D52*
X187400000Y-141800000D02*
X187900000Y-141300000D01*
D51*
X180694000Y-145910000D02*
X180694000Y-146650000D01*
D52*
X184100000Y-139800000D02*
X184600000Y-139800000D01*
X180694000Y-145506000D02*
X180694000Y-145910000D01*
D51*
X181920000Y-132300000D02*
X180985000Y-132300000D01*
X181920000Y-137800000D02*
X181920000Y-137080000D01*
D52*
X182000000Y-143600000D02*
X182000000Y-144600000D01*
D51*
X181920000Y-137800000D02*
X180985000Y-137800000D01*
X176400000Y-126800000D02*
X175400000Y-127800000D01*
X177660000Y-138080000D02*
X177630000Y-138050000D01*
D52*
X181400000Y-145200000D02*
X181000000Y-145200000D01*
D51*
X179694000Y-147288000D02*
X180082000Y-146900000D01*
D53*
X186120000Y-148700000D02*
X187200000Y-148700000D01*
D51*
X181194000Y-147288000D02*
X180806000Y-146900000D01*
X183650000Y-137800000D02*
X184585000Y-137800000D01*
X178150000Y-142800000D02*
X178074000Y-142724000D01*
D52*
X186500000Y-126100000D02*
X187300000Y-126900000D01*
X186350000Y-138050000D02*
X186920000Y-138050000D01*
D54*
X175700000Y-144600000D02*
X175800000Y-144700000D01*
D52*
X184600000Y-139800000D02*
X186350000Y-138050000D01*
D51*
X184320000Y-130220000D02*
X184900000Y-130800000D01*
D52*
X177200000Y-133300000D02*
X177430000Y-133070000D01*
D54*
X176234000Y-142724000D02*
X175700000Y-143258000D01*
D51*
X182835000Y-133100000D02*
X182785000Y-133050000D01*
D52*
X183870000Y-140030000D02*
X184100000Y-139800000D01*
D51*
X178990000Y-147890000D02*
X178900000Y-147800000D01*
X181194000Y-147890000D02*
X181194000Y-148886000D01*
X174400000Y-113800000D02*
X173930000Y-114270000D01*
X181380000Y-130070000D02*
X180650000Y-130800000D01*
X180082000Y-146900000D02*
X180444000Y-146900000D01*
X178960000Y-143100000D02*
X178450000Y-143100000D01*
D54*
X178074000Y-142724000D02*
X176234000Y-142724000D01*
D55*
X188500000Y-145300000D02*
X187880000Y-145300000D01*
D51*
X181920000Y-133020000D02*
X182000000Y-133100000D01*
X175400000Y-113800000D02*
X174400000Y-113800000D01*
D55*
X172920000Y-114950000D02*
X172391000Y-114421000D01*
D51*
X180136000Y-134800000D02*
X179910000Y-134800000D01*
D52*
X177430000Y-133070000D02*
X178200000Y-133070000D01*
D51*
X184585000Y-132300000D02*
X184935000Y-132650000D01*
X185785000Y-135310000D02*
X185785000Y-136050000D01*
X180985000Y-137800000D02*
X180635000Y-137450000D01*
X183500000Y-137000000D02*
X182835000Y-137000000D01*
D52*
X181000000Y-145200000D02*
X180694000Y-145506000D01*
D51*
X182835000Y-137000000D02*
X182785000Y-137050000D01*
X178900000Y-147300000D02*
X179300000Y-146900000D01*
D53*
X191000000Y-156000000D02*
X192450000Y-157450000D01*
D55*
X172920000Y-116980000D02*
X172940000Y-117000000D01*
X172920000Y-116000000D02*
X172920000Y-114950000D01*
D52*
X178270000Y-141020000D02*
X177650000Y-140400000D01*
D51*
X181920000Y-132300000D02*
X181920000Y-133020000D01*
X179694000Y-147890000D02*
X179694000Y-147288000D01*
X183650000Y-137150000D02*
X183500000Y-137000000D01*
X180806000Y-146900000D02*
X180444000Y-146900000D01*
D52*
X180100000Y-141020000D02*
X179100000Y-141020000D01*
D51*
X176423000Y-126800000D02*
X176400000Y-126800000D01*
X180020000Y-139800000D02*
X180660000Y-139800000D01*
X183650000Y-137800000D02*
X183650000Y-137150000D01*
X180020000Y-138815000D02*
X180035000Y-138800000D01*
X183600000Y-133100000D02*
X182835000Y-133100000D01*
X182735000Y-133100000D02*
X182785000Y-133050000D01*
D54*
X175800000Y-144700000D02*
X176580000Y-144700000D01*
D53*
X178050000Y-157750000D02*
X178100000Y-157800000D01*
D52*
X188500000Y-126900000D02*
X189400000Y-127800000D01*
D51*
X182735000Y-137000000D02*
X182785000Y-137050000D01*
X179694000Y-147890000D02*
X178990000Y-147890000D01*
X184320000Y-129300000D02*
X184320000Y-130220000D01*
D52*
X179100000Y-141020000D02*
X178270000Y-141020000D01*
D54*
X175700000Y-143258000D02*
X175700000Y-144600000D01*
D52*
X183870000Y-140800000D02*
X183870000Y-140030000D01*
D51*
X180985000Y-132300000D02*
X180635000Y-132650000D01*
X179910000Y-134800000D02*
X179650000Y-134540000D01*
X182000000Y-137000000D02*
X182735000Y-137000000D01*
X182000000Y-133100000D02*
X182735000Y-133100000D01*
D52*
X176900000Y-133600000D02*
X177200000Y-133300000D01*
D51*
X180444000Y-146900000D02*
X179300000Y-146900000D01*
X183650000Y-132300000D02*
X184585000Y-132300000D01*
X183650000Y-132300000D02*
X183650000Y-133050000D01*
X181194000Y-147890000D02*
X181194000Y-147288000D01*
D52*
X182000000Y-144600000D02*
X181400000Y-145200000D01*
D51*
X181380000Y-129300000D02*
X181380000Y-130070000D01*
X175400000Y-115700000D02*
X175400000Y-113800000D01*
X178450000Y-143100000D02*
X178150000Y-142800000D01*
X181920000Y-137800000D02*
X183650000Y-137800000D01*
X178900000Y-147800000D02*
X178900000Y-147300000D01*
D53*
X180600000Y-157800000D02*
X180600000Y-156875000D01*
D52*
X187300000Y-126900000D02*
X188500000Y-126900000D01*
D53*
X178050000Y-156875000D02*
X178050000Y-157750000D01*
D51*
X183650000Y-133050000D02*
X183600000Y-133100000D01*
X173930000Y-114270000D02*
X172341000Y-114270000D01*
D52*
X187400000Y-141800000D02*
X187400000Y-142212500D01*
X176900000Y-134550000D02*
X176900000Y-133600000D01*
D51*
X181920000Y-137080000D02*
X182000000Y-137000000D01*
X180020000Y-139800000D02*
X180020000Y-138815000D01*
X181920000Y-132300000D02*
X183650000Y-132300000D01*
D53*
X187200000Y-148700000D02*
X187200000Y-151700000D01*
D55*
X172920000Y-116000000D02*
X172920000Y-116980000D01*
D51*
X180694000Y-146650000D02*
X180444000Y-146900000D01*
X184585000Y-137800000D02*
X184935000Y-137450000D01*
D53*
X192450000Y-157450000D02*
X192560000Y-157450000D01*
D52*
X187900000Y-141300000D02*
X187900000Y-140787500D01*
%TO.N,IO34*%
X192560000Y-144750000D02*
X191400000Y-143590000D01*
X191400000Y-133405306D02*
X191400000Y-143590000D01*
X187500000Y-128650000D02*
X191024000Y-132174000D01*
X191024000Y-132174000D02*
X191024000Y-133029306D01*
X191024000Y-133029306D02*
X191400000Y-133405306D01*
X187500000Y-127800000D02*
X187500000Y-128650000D01*
D51*
%TO.N,VBAT*%
X178379232Y-149100000D02*
X178589616Y-148889616D01*
X177400000Y-150000000D02*
X177400000Y-149300000D01*
X180194000Y-147890000D02*
X180694000Y-147890000D01*
X177800000Y-149100000D02*
X178379232Y-149100000D01*
D53*
X180710001Y-149700000D02*
X183600000Y-149700000D01*
D51*
X178520654Y-149100000D02*
X178720654Y-148900000D01*
D53*
X178720654Y-148900000D02*
X180220000Y-148900000D01*
X185100000Y-151220000D02*
X185120000Y-151200000D01*
X185100000Y-151585000D02*
X185100000Y-148680000D01*
X180220000Y-148900000D02*
X180220000Y-149209999D01*
D51*
X177600000Y-149100000D02*
X177800000Y-149100000D01*
X177400000Y-149300000D02*
X177600000Y-149100000D01*
X180194000Y-147890000D02*
X180194000Y-148874000D01*
D53*
X180220000Y-149209999D02*
X180710001Y-149700000D01*
D51*
X177800000Y-149100000D02*
X178520654Y-149100000D01*
D55*
%TO.N,V_USB*%
X179055000Y-139800000D02*
X177200000Y-139800000D01*
D54*
X179426000Y-133774000D02*
X179000000Y-134200000D01*
X179152000Y-136302000D02*
X179154000Y-136300000D01*
X183650000Y-133800000D02*
X181920000Y-133800000D01*
X179154000Y-136300000D02*
X181198043Y-136300000D01*
D51*
X179060000Y-139800000D02*
X179671000Y-140411000D01*
D54*
X181198043Y-136300000D02*
X181200043Y-136302000D01*
X179000000Y-134200000D02*
X179000000Y-136150000D01*
D51*
X179671000Y-140420000D02*
X180610000Y-140420000D01*
X180610000Y-140420000D02*
X180990000Y-140800000D01*
X179671000Y-140411000D02*
X179671000Y-140420000D01*
D55*
X177200000Y-139800000D02*
X176000000Y-141000000D01*
X179055000Y-136399000D02*
X179055000Y-139300000D01*
D51*
X179074000Y-138781000D02*
X179055000Y-138800000D01*
D53*
X179300000Y-157800000D02*
X179300000Y-156875000D01*
D55*
X179152000Y-136302000D02*
X179055000Y-136399000D01*
D53*
X179300000Y-156875000D02*
X178700000Y-156875000D01*
D54*
X181920000Y-133800000D02*
X181894000Y-133774000D01*
D55*
X179055000Y-138800000D02*
X179055000Y-139800000D01*
D51*
X181920000Y-136300000D02*
X183650000Y-136300000D01*
D54*
X181894000Y-133774000D02*
X179426000Y-133774000D01*
D51*
X179176000Y-138781000D02*
X179074000Y-138781000D01*
D54*
X181202043Y-136300000D02*
X181920000Y-136300000D01*
D53*
X179950000Y-156875000D02*
X179300000Y-156875000D01*
D54*
X179000000Y-136150000D02*
X179152000Y-136302000D01*
D51*
X179195000Y-138800000D02*
X179176000Y-138781000D01*
X181200043Y-136302000D02*
X181202043Y-136300000D01*
D52*
%TO.N,IO36*%
X189400000Y-125900000D02*
X188818177Y-125900000D01*
X188818177Y-125900000D02*
X188299488Y-125381311D01*
%TO.N,IO35*%
X188347135Y-126254671D02*
X188394270Y-126301806D01*
X189350000Y-126800000D02*
X189400000Y-126750000D01*
X188398194Y-126301806D02*
X188896389Y-126800000D01*
X188896389Y-126800000D02*
X189350000Y-126800000D01*
X188394270Y-126301806D02*
X188398194Y-126301806D01*
D51*
%TO.N,BAT_ALRT*%
X175400000Y-118250000D02*
X176400000Y-118250000D01*
D52*
%TO.N,LED*%
X174200000Y-119600000D02*
X174200000Y-120000000D01*
X174700000Y-119100000D02*
X174200000Y-119600000D01*
X175400000Y-119100000D02*
X174700000Y-119100000D01*
X174200000Y-120000000D02*
X172316000Y-121884000D01*
X179200000Y-132215000D02*
X179200000Y-131100000D01*
%TO.N,Net-(D5-K)*%
X179200000Y-133020000D02*
X179170000Y-133020000D01*
X179170000Y-133020000D02*
X178200000Y-132050000D01*
%TO.N,IO37*%
X188343192Y-124682552D02*
X188710640Y-125050000D01*
X188710640Y-125050000D02*
X189400000Y-125050000D01*
D53*
%TO.N,5V*%
X180610000Y-153519999D02*
X180610000Y-153200000D01*
D52*
X180020000Y-152100000D02*
X180610000Y-152690000D01*
D53*
X177400000Y-155100000D02*
X177400000Y-154376208D01*
D52*
X179500000Y-152100000D02*
X178900000Y-152100000D01*
X178900000Y-152100000D02*
X180020000Y-152100000D01*
D53*
X180093499Y-154036500D02*
X180610000Y-153519999D01*
X179950000Y-154437501D02*
X179950000Y-155100000D01*
D52*
X178900000Y-152100000D02*
X177800000Y-152100000D01*
D53*
X180610000Y-153200000D02*
X180610000Y-152690000D01*
X179950000Y-155100000D02*
X179950000Y-154179999D01*
D52*
X179800000Y-151880000D02*
X179720000Y-151880000D01*
D53*
X179950000Y-154179999D02*
X180610000Y-153519999D01*
X179548999Y-154036500D02*
X179950000Y-154437501D01*
X177400000Y-154376208D02*
X177739708Y-154036500D01*
X179548999Y-154036500D02*
X180093499Y-154036500D01*
D52*
X179720000Y-151880000D02*
X179500000Y-152100000D01*
D53*
X177739708Y-154036500D02*
X179548999Y-154036500D01*
%TO.N,3V3*%
X173900000Y-117700000D02*
X173900000Y-117000000D01*
D52*
X186236000Y-140264000D02*
X186236000Y-139214000D01*
D51*
X185600000Y-140760000D02*
X185620000Y-140780000D01*
D55*
X186920000Y-145420000D02*
X187950000Y-146450000D01*
D53*
X173950000Y-116550000D02*
X173900000Y-116600000D01*
X177140000Y-141980000D02*
X177060000Y-141900000D01*
D55*
X187950000Y-146450000D02*
X188400000Y-146450000D01*
D52*
X187400000Y-141176848D02*
X187400000Y-140787500D01*
D53*
X173900000Y-116020000D02*
X173880000Y-116000000D01*
X175400000Y-116550000D02*
X173950000Y-116550000D01*
D52*
X180100000Y-141980000D02*
X179100000Y-141980000D01*
X185650000Y-140780000D02*
X185720000Y-140780000D01*
X185680000Y-140780000D02*
X186400000Y-141500000D01*
X186400000Y-139050000D02*
X186890000Y-139050000D01*
X187910000Y-144300000D02*
X187910000Y-144310000D01*
X187910000Y-144300000D02*
X187910000Y-143300000D01*
D53*
X173900000Y-117000000D02*
X173900000Y-116020000D01*
D52*
X187076848Y-141500000D02*
X187400000Y-141176848D01*
X185720000Y-140780000D02*
X186236000Y-140264000D01*
D51*
X185620000Y-140780000D02*
X185650000Y-140780000D01*
D53*
X185161000Y-145300000D02*
X186920000Y-145300000D01*
D52*
X176000000Y-139775000D02*
X176000000Y-139690000D01*
D55*
X186920000Y-145300000D02*
X186920000Y-145420000D01*
D52*
X176000000Y-139690000D02*
X176640000Y-139050000D01*
D53*
X179100000Y-141980000D02*
X177140000Y-141980000D01*
D52*
X186236000Y-139214000D02*
X186400000Y-139050000D01*
D51*
X180060000Y-143100000D02*
X180060000Y-142020000D01*
D53*
X177075000Y-140925000D02*
X177075000Y-142025000D01*
D51*
X180060000Y-142020000D02*
X180100000Y-141980000D01*
D52*
X186400000Y-141500000D02*
X187076848Y-141500000D01*
X185650000Y-140780000D02*
X185680000Y-140780000D01*
X187910000Y-144310000D02*
X186920000Y-145300000D01*
D51*
%TO.N,Net-(IC1-PG)*%
X180060000Y-143600000D02*
X180475000Y-143600000D01*
X180985000Y-143090000D02*
X181160000Y-143090000D01*
X180475000Y-143600000D02*
X180985000Y-143090000D01*
D52*
%TO.N,Net-(IC2-ILIM{slash}VSET)*%
X176600000Y-152100000D02*
X176600000Y-153200000D01*
X176600000Y-153200000D02*
X176156000Y-153644000D01*
X175610000Y-154190000D02*
X175610000Y-154300000D01*
X176156000Y-153658984D02*
X175918984Y-153896000D01*
X175918984Y-153896000D02*
X175904000Y-153896000D01*
X175904000Y-153896000D02*
X175610000Y-154190000D01*
X176156000Y-153644000D02*
X176156000Y-153658984D01*
%TO.N,Net-(IC2-TS{slash}MR)*%
X176200000Y-152100000D02*
X176200000Y-153100000D01*
X176000000Y-153300000D02*
X175610000Y-153300000D01*
X176200000Y-153100000D02*
X176000000Y-153300000D01*
%TO.N,Net-(IC2-ISET)*%
X175620000Y-155300000D02*
X176156000Y-154764000D01*
X177000000Y-153311373D02*
X177000000Y-152100000D01*
X176156000Y-154764000D02*
X176156000Y-154155372D01*
X176156000Y-154155372D02*
X177000000Y-153311373D01*
%TO.N,Net-(J2-CC1)*%
X181920000Y-135800000D02*
X181099588Y-135800000D01*
X180230412Y-135560000D02*
X179650000Y-135560000D01*
X181099588Y-135800000D02*
X181023588Y-135876000D01*
X180546412Y-135876000D02*
X180230412Y-135560000D01*
X181023588Y-135876000D02*
X180546412Y-135876000D01*
%TO.N,Net-(J2-CC2)*%
X185140000Y-134290000D02*
X185785000Y-134290000D01*
X184470412Y-134300000D02*
X184546412Y-134224000D01*
X184546412Y-134224000D02*
X185023588Y-134224000D01*
X185130000Y-134300000D02*
X185140000Y-134290000D01*
X185099588Y-134300000D02*
X185130000Y-134300000D01*
X185023588Y-134224000D02*
X185099588Y-134300000D01*
X183650000Y-134300000D02*
X184470412Y-134300000D01*
D51*
%TO.N,Net-(D2-K)*%
X177000000Y-150000000D02*
X177000000Y-148500000D01*
X177200000Y-148300000D02*
X177200000Y-147785000D01*
X177000000Y-148500000D02*
X177200000Y-148300000D01*
%TO.N,Net-(D2-A)*%
X177225000Y-146790000D02*
X177200000Y-146815000D01*
X178200000Y-146790000D02*
X177225000Y-146790000D01*
D52*
%TO.N,Net-(D3-A)*%
X179590000Y-153200000D02*
X178585000Y-153200000D01*
%TO.N,Net-(D3-K)*%
X177400000Y-152100000D02*
X177400000Y-152985000D01*
X177400000Y-152985000D02*
X177615000Y-153200000D01*
D51*
%TO.N,Net-(IC2-~{CE})*%
X176600000Y-148500000D02*
X176200000Y-148100000D01*
X176200000Y-148100000D02*
X176200000Y-147810000D01*
X176600000Y-150000000D02*
X176600000Y-148500000D01*
D52*
%TO.N,SCL*%
X186900000Y-142212500D02*
X186487500Y-142212500D01*
X180194000Y-145910000D02*
X180194000Y-145240000D01*
X175400000Y-125050000D02*
X180000000Y-125050000D01*
X186487500Y-142212500D02*
X186475000Y-142200000D01*
D51*
X186890000Y-143300000D02*
X186900000Y-143290000D01*
D52*
X186900000Y-143290000D02*
X186900000Y-142212500D01*
X186300000Y-143300000D02*
X186890000Y-143300000D01*
X185411000Y-143300000D02*
X186300000Y-143300000D01*
%TO.N,Net-(D4-A)*%
X182010000Y-140800000D02*
X182900000Y-140800000D01*
%TO.N,SDA*%
X185411000Y-144300000D02*
X186300000Y-144300000D01*
X176617877Y-124226000D02*
X176182123Y-124226000D01*
X187176510Y-139974949D02*
X186900000Y-140251459D01*
X179686983Y-145902983D02*
X179694000Y-145910000D01*
X187200000Y-139974949D02*
X187176510Y-139974949D01*
X186300000Y-144300000D02*
X186890000Y-144300000D01*
X176182123Y-124226000D02*
X176156123Y-124200000D01*
X179200000Y-145800000D02*
X179584000Y-145800000D01*
X180000000Y-124200000D02*
X176643877Y-124200000D01*
X186900000Y-140251459D02*
X186900000Y-140787500D01*
X176156123Y-124200000D02*
X175400000Y-124200000D01*
X176643877Y-124200000D02*
X176617877Y-124226000D01*
X179584000Y-145800000D02*
X179694000Y-145910000D01*
%TO.N,D+*%
X183650000Y-134800000D02*
X184785000Y-134800000D01*
X181920000Y-135300000D02*
X180785000Y-135300000D01*
X183250000Y-130200000D02*
X183250000Y-127800000D01*
%TO.N,RGB*%
X188350000Y-128550000D02*
X188350000Y-127800000D01*
X189400000Y-129600000D02*
X188350000Y-128550000D01*
%TO.N,RX*%
X191300000Y-119400000D02*
X192510000Y-119400000D01*
X192510000Y-119400000D02*
X192560000Y-119350000D01*
X189400000Y-119100000D02*
X191000000Y-119100000D01*
X191000000Y-119100000D02*
X191300000Y-119400000D01*
%TO.N,TX*%
X192560000Y-121890000D02*
X190620000Y-119950000D01*
X190620000Y-119950000D02*
X189400000Y-119950000D01*
%TO.N,MTMS*%
X192560000Y-124430000D02*
X191400000Y-123270000D01*
X189400000Y-120800000D02*
X190650000Y-120800000D01*
X190650000Y-120800000D02*
X191049000Y-121199000D01*
X191049000Y-121945389D02*
X191400000Y-122296388D01*
X191400000Y-122296388D02*
X191400000Y-123270000D01*
X191049000Y-121199000D02*
X191049000Y-121945389D01*
%TO.N,MTDI*%
X189400000Y-121650000D02*
X190250000Y-121650000D01*
X190250000Y-121650000D02*
X190690779Y-122090779D01*
X192560000Y-126970000D02*
X191400000Y-125810000D01*
X191400000Y-124818062D02*
X191400000Y-125810000D01*
X190690779Y-122090779D02*
X190698000Y-122090779D01*
X191049000Y-122441779D02*
X191049000Y-124467062D01*
X190698000Y-122090779D02*
X191049000Y-122441779D01*
X191049000Y-124467062D02*
X191400000Y-124818062D01*
%TO.N,MTDO*%
X191400000Y-127296388D02*
X191049000Y-126945389D01*
X189700000Y-122800000D02*
X189400000Y-122500000D01*
X190400000Y-122800000D02*
X189700000Y-122800000D01*
X192560000Y-129510000D02*
X191400000Y-128350000D01*
X191049000Y-124963451D02*
X190698000Y-124612452D01*
X191400000Y-128350000D02*
X191400000Y-127296388D01*
X190698000Y-124612452D02*
X190698000Y-123098000D01*
X190698000Y-123098000D02*
X190400000Y-122800000D01*
X191049000Y-126945389D02*
X191049000Y-124963451D01*
%TO.N,MTCK*%
X190900000Y-127292779D02*
X190900000Y-130390000D01*
X192560000Y-132050000D02*
X190900000Y-130390000D01*
X190347000Y-124757842D02*
X190698000Y-125108842D01*
X190698000Y-125108842D02*
X190698000Y-127090779D01*
X189400000Y-123350000D02*
X190147000Y-123350000D01*
X190147000Y-123350000D02*
X190347000Y-123550000D01*
X190347000Y-123550000D02*
X190347000Y-124757842D01*
X190698000Y-127090779D02*
X190900000Y-127292779D01*
%TO.N,D-*%
X181185000Y-134800000D02*
X180785000Y-134400000D01*
X184435057Y-135300000D02*
X184735057Y-135600000D01*
D51*
X184735057Y-135600000D02*
X184785000Y-135600000D01*
D52*
X181920000Y-134800000D02*
X182400000Y-134800000D01*
X183650000Y-135300000D02*
X184435057Y-135300000D01*
X181920000Y-134800000D02*
X181185000Y-134800000D01*
X182900000Y-135300000D02*
X183650000Y-135300000D01*
X182400000Y-130050000D02*
X182400000Y-127800000D01*
X182400000Y-134800000D02*
X182900000Y-135300000D01*
%TO.N,Net-(S1-NO)*%
X177660000Y-139040000D02*
X176670000Y-138050000D01*
X177150000Y-121025000D02*
X177125000Y-121050000D01*
D51*
X178100000Y-136850000D02*
X178150000Y-136800000D01*
D52*
X176900000Y-137320000D02*
X176670000Y-137550000D01*
X177660000Y-139050000D02*
X177660000Y-139040000D01*
D51*
X176900000Y-136850000D02*
X178100000Y-136850000D01*
D52*
X176900000Y-137320000D02*
X176900000Y-136850000D01*
X176750000Y-117400000D02*
X177150000Y-117800000D01*
X176670000Y-137550000D02*
X176670000Y-138050000D01*
X177150000Y-117800000D02*
X177150000Y-121025000D01*
X175400000Y-117400000D02*
X176750000Y-117400000D01*
%TO.N,Net-(S2-NO)*%
X187910000Y-139050000D02*
X187910000Y-138080000D01*
D51*
X187650000Y-136850000D02*
X188850000Y-136850000D01*
D52*
X187650000Y-137300000D02*
X187880000Y-137530000D01*
D51*
X188850000Y-114850000D02*
X189400000Y-114850000D01*
D52*
X187880000Y-137530000D02*
X187880000Y-138050000D01*
D51*
X187910000Y-138080000D02*
X187880000Y-138050000D01*
X188150000Y-115550000D02*
X188850000Y-114850000D01*
D52*
X187650000Y-136850000D02*
X187650000Y-137300000D01*
D51*
X188850000Y-136850000D02*
X188900000Y-136800000D01*
%TO.N,Net-(IC1-SW)*%
X178960000Y-143600000D02*
X178000000Y-143600000D01*
X177060000Y-143500000D02*
X177900000Y-143500000D01*
X177900000Y-143500000D02*
X178000000Y-143600000D01*
D52*
%TO.N,IO7*%
X173400000Y-130585445D02*
X174099000Y-129886445D01*
X173400000Y-130585445D02*
X173400000Y-132775000D01*
X174102000Y-125998000D02*
X174102000Y-127090776D01*
X174099000Y-127093776D02*
X174099000Y-129886445D01*
X174891700Y-123350000D02*
X174503000Y-123738700D01*
X175400000Y-123350000D02*
X174891700Y-123350000D01*
X174102000Y-127090776D02*
X174099000Y-127093776D01*
X174503000Y-123738700D02*
X174503000Y-125597000D01*
X173400000Y-132775000D02*
X172275000Y-133900000D01*
X174503000Y-125597000D02*
X174102000Y-125998000D01*
%TO.N,IO14*%
X175590836Y-131012775D02*
X178150000Y-128453611D01*
X173751000Y-143449000D02*
X173751000Y-135956777D01*
X173751000Y-135956777D02*
X174102000Y-135605779D01*
X173130000Y-145870000D02*
X173400000Y-145600000D01*
X173400000Y-143800000D02*
X173751000Y-143449000D01*
X174102000Y-133562165D02*
X174453000Y-133211167D01*
X175590836Y-132073331D02*
X175590836Y-131012775D01*
X172316000Y-147290000D02*
X172316000Y-147214000D01*
X174453000Y-133211167D02*
X175590836Y-132073331D01*
X172316000Y-147214000D02*
X173130000Y-146400000D01*
X173400000Y-145600000D02*
X173400000Y-143800000D01*
X178150000Y-128453611D02*
X178150000Y-127800000D01*
X174102000Y-135605779D02*
X174102000Y-133562165D01*
X173130000Y-146400000D02*
X173130000Y-145870000D01*
%TO.N,IO17*%
X174449000Y-146049388D02*
X174453000Y-146045388D01*
X175505999Y-133647338D02*
X176643836Y-132509501D01*
X174300000Y-150400000D02*
X174300000Y-146549000D01*
X174300000Y-146549000D02*
X174449000Y-146400000D01*
X174453000Y-146045388D02*
X174453000Y-144347000D01*
X176643836Y-132509501D02*
X176643836Y-131459775D01*
X180200000Y-128500000D02*
X180500000Y-128500000D01*
X175155000Y-133998334D02*
X175505999Y-133647338D01*
X180500000Y-128500000D02*
X180700000Y-128300000D01*
X173500000Y-151200000D02*
X174300000Y-150400000D01*
X174449000Y-146400000D02*
X174449000Y-146049388D01*
X176643836Y-131459775D02*
X179054611Y-129049000D01*
X172490000Y-154910000D02*
X173500000Y-153900000D01*
X179054611Y-129049000D02*
X179651000Y-129049000D01*
X174453000Y-144347000D02*
X174804000Y-143996000D01*
X179651000Y-129049000D02*
X180200000Y-128500000D01*
X174804000Y-136392944D02*
X175155000Y-136041948D01*
X173500000Y-153900000D02*
X173500000Y-151200000D01*
X174804000Y-143996000D02*
X174804000Y-136392944D01*
X172316000Y-154910000D02*
X172490000Y-154910000D01*
X180700000Y-128300000D02*
X180700000Y-127800000D01*
X175155000Y-136041948D02*
X175155000Y-133998334D01*
%TO.N,IO3*%
X173400000Y-121400000D02*
X173400000Y-122800000D01*
X174850000Y-119950000D02*
X173400000Y-121400000D01*
X173000000Y-123200000D02*
X173000000Y-123746000D01*
X175400000Y-119950000D02*
X174850000Y-119950000D01*
X173000000Y-123746000D02*
X172316000Y-124430000D01*
X173400000Y-122800000D02*
X173000000Y-123200000D01*
%TO.N,IO18*%
X175856998Y-133792726D02*
X175856998Y-133792729D01*
X174804000Y-144496000D02*
X174804000Y-146190776D01*
X180349000Y-128851000D02*
X179800000Y-129400000D01*
X173851000Y-151349000D02*
X173851000Y-155915000D01*
X177000000Y-131677546D02*
X177000000Y-132649724D01*
X175155000Y-144145000D02*
X174804000Y-144496000D01*
X181550000Y-127800000D02*
X181550000Y-128150000D01*
X180849000Y-128851000D02*
X180349000Y-128851000D01*
X179800000Y-129400000D02*
X179277546Y-129400000D01*
X174800000Y-146700000D02*
X174700000Y-146800000D01*
X174700000Y-146800000D02*
X174700000Y-150500000D01*
X174800000Y-146194776D02*
X174800000Y-146700000D01*
X174804000Y-146190776D02*
X174800000Y-146194776D01*
X173851000Y-155915000D02*
X172316000Y-157450000D01*
X179277546Y-129400000D02*
X177000000Y-131677546D01*
X174700000Y-150500000D02*
X173851000Y-151349000D01*
X175155000Y-136700000D02*
X175155000Y-144145000D01*
X181550000Y-128150000D02*
X180849000Y-128851000D01*
X175506000Y-136349000D02*
X175155000Y-136700000D01*
X175856998Y-133792729D02*
X175506000Y-134143724D01*
X177000000Y-132649724D02*
X175856998Y-133792726D01*
X175506000Y-134143724D02*
X175506000Y-136349000D01*
%TO.N,IO10*%
X173000000Y-136300000D02*
X172316000Y-136984000D01*
X174453000Y-127550000D02*
X174453000Y-130046170D01*
X174800000Y-125900000D02*
X174453000Y-126247000D01*
X175400000Y-125900000D02*
X174800000Y-125900000D01*
X173400000Y-133271388D02*
X173400000Y-135315000D01*
X174453000Y-127550000D02*
X174450000Y-127550000D01*
X173400000Y-135315000D02*
X173000000Y-135714999D01*
X172316000Y-136984000D02*
X172316000Y-137130000D01*
X174450000Y-127550000D02*
X174450556Y-127550556D01*
X174453000Y-126247000D02*
X174453000Y-127550000D01*
X174450000Y-130046170D02*
X173751000Y-130745170D01*
X173751000Y-130745170D02*
X173751000Y-132920388D01*
X173751000Y-132920388D02*
X173400000Y-133271388D01*
X173000000Y-135714999D02*
X173000000Y-136300000D01*
%TO.N,IO13*%
X175239836Y-130867387D02*
X177300000Y-128807223D01*
X175239836Y-131927940D02*
X173751000Y-133416776D01*
X173751000Y-135460389D02*
X173400000Y-135811388D01*
X175239836Y-130867387D02*
X175239836Y-131927940D01*
X173751000Y-133416776D02*
X173751000Y-135460389D01*
X172316000Y-144674000D02*
X172316000Y-144750000D01*
X177300000Y-127800000D02*
X177300000Y-128807223D01*
X173049000Y-143945388D02*
X173044612Y-143945388D01*
X173400000Y-143303612D02*
X173049000Y-143654612D01*
X173044612Y-143945388D02*
X172316000Y-144674000D01*
X173049000Y-143654612D02*
X173049000Y-143945388D01*
X173400000Y-135811388D02*
X173400000Y-143303612D01*
%TO.N,IO4*%
X175400000Y-120800000D02*
X174600000Y-120800000D01*
X173400000Y-125200000D02*
X173042529Y-125557471D01*
X173400000Y-123300000D02*
X173400000Y-125200000D01*
X173751000Y-121649000D02*
X173751000Y-122949000D01*
X172316000Y-126884000D02*
X172316000Y-126970000D01*
X173042529Y-126157471D02*
X172316000Y-126884000D01*
X173751000Y-122949000D02*
X173400000Y-123300000D01*
X173042529Y-125557471D02*
X173042529Y-126157471D01*
X174600000Y-120800000D02*
X173751000Y-121649000D01*
%TO.N,IO12*%
X174888832Y-131511168D02*
X174888832Y-130722001D01*
X174888832Y-130722001D02*
X176450000Y-129160834D01*
X176450000Y-129160834D02*
X176450000Y-127800000D01*
X174400000Y-132000000D02*
X174888832Y-131511168D01*
%TO.N,IO6*%
X175400000Y-122500000D02*
X174800000Y-122500000D01*
X174152000Y-123548000D02*
X174152000Y-125448000D01*
X173049000Y-131241000D02*
X172316000Y-131974000D01*
X173744529Y-125855471D02*
X173744529Y-129744529D01*
X174800000Y-122500000D02*
X174500000Y-122800000D01*
X174152000Y-125448000D02*
X173744529Y-125855471D01*
X173744529Y-129744529D02*
X173049000Y-130440057D01*
X174500000Y-123200000D02*
X174152000Y-123548000D01*
X173049000Y-130440057D02*
X173049000Y-131241000D01*
X174500000Y-122800000D02*
X174500000Y-123200000D01*
%TO.N,IO11*%
X175700000Y-126750000D02*
X176400000Y-126050000D01*
X175400000Y-126750000D02*
X175700000Y-126750000D01*
X174276000Y-130724000D02*
X175400000Y-129600000D01*
X174276000Y-131200000D02*
X174276000Y-130724000D01*
X175400000Y-129600000D02*
X175400000Y-129050000D01*
%TO.N,IO5*%
X173393529Y-128400000D02*
X173393529Y-125710083D01*
D51*
X175400000Y-121650000D02*
X175300000Y-121550000D01*
D52*
X174800000Y-121600000D02*
X175350000Y-121600000D01*
X174149000Y-123054612D02*
X174149000Y-122251000D01*
X173393529Y-125710083D02*
X173801000Y-125302612D01*
D51*
X175400000Y-121650000D02*
X175350000Y-121600000D01*
D52*
X173801000Y-125094528D02*
X173800000Y-125093528D01*
X173801000Y-125302612D02*
X173801000Y-125094528D01*
X173800000Y-123500000D02*
X173801000Y-123499000D01*
X173350000Y-128400000D02*
X173393529Y-128400000D01*
X173800000Y-125093528D02*
X173800000Y-123500000D01*
X173801000Y-123402612D02*
X174149000Y-123054612D01*
X172316000Y-129434000D02*
X173350000Y-128400000D01*
X174149000Y-122251000D02*
X174800000Y-121600000D01*
X173801000Y-123499000D02*
X173801000Y-123402612D01*
X172316000Y-129510000D02*
X172316000Y-129434000D01*
%TO.N,IO15*%
X174102000Y-143598000D02*
X174102000Y-136102167D01*
X172316000Y-149830000D02*
X172316000Y-149784000D01*
X172316000Y-149784000D02*
X173500000Y-148600000D01*
X173500000Y-148600000D02*
X173500000Y-146356222D01*
X175941836Y-131168998D02*
X176100000Y-131010834D01*
X173751000Y-145796000D02*
X173751000Y-143949000D01*
X175941836Y-132218721D02*
X175941836Y-131168998D01*
X179000000Y-128100000D02*
X179000000Y-127800000D01*
X174453000Y-135751169D02*
X174453000Y-133707554D01*
X173751000Y-143949000D02*
X174102000Y-143598000D01*
X173500000Y-146356222D02*
X173747000Y-146109222D01*
X176100000Y-131010834D02*
X176100000Y-131000000D01*
X174804000Y-133356557D02*
X175941836Y-132218721D01*
X176100000Y-131000000D02*
X179000000Y-128100000D01*
X173747000Y-145800000D02*
X173751000Y-145796000D01*
X174453000Y-133707554D02*
X174804000Y-133356557D01*
X173747000Y-146109222D02*
X173747000Y-145800000D01*
X174102000Y-136102167D02*
X174453000Y-135751169D01*
%TO.N,IO16*%
X174102000Y-145900000D02*
X174102000Y-144198000D01*
X173900000Y-150300000D02*
X173900000Y-146452611D01*
X175154999Y-133501948D02*
X176292836Y-132364111D01*
X174098000Y-145904000D02*
X174102000Y-145900000D01*
X179850000Y-128250000D02*
X179850000Y-127800000D01*
X174453000Y-136247555D02*
X174804000Y-135896559D01*
X174453000Y-143847000D02*
X174453000Y-136247555D01*
X176292836Y-132364111D02*
X176292836Y-131314386D01*
X179007222Y-128600000D02*
X179500000Y-128600000D01*
X174102000Y-144198000D02*
X174453000Y-143847000D01*
X179500000Y-128600000D02*
X179850000Y-128250000D01*
X176292836Y-131314386D02*
X179007222Y-128600000D01*
X174804000Y-135896559D02*
X174804000Y-133852944D01*
X172316000Y-152284000D02*
X173100000Y-151500000D01*
X174804000Y-133852944D02*
X175154999Y-133501948D01*
X173900000Y-146452611D02*
X174098000Y-146254612D01*
X174098000Y-146254612D02*
X174098000Y-145904000D01*
X173100000Y-151500000D02*
X173100000Y-151100000D01*
X173100000Y-151100000D02*
X173900000Y-150300000D01*
X172316000Y-152370000D02*
X172316000Y-152284000D01*
%TO.N,IO33*%
X191053001Y-145624393D02*
X191049000Y-145620392D01*
X190673000Y-132319387D02*
X186650000Y-128296388D01*
X192560000Y-147290000D02*
X191053001Y-145783001D01*
X186650000Y-128296388D02*
X186650000Y-127800000D01*
X191049000Y-133550694D02*
X190673000Y-133174695D01*
X191053001Y-145783001D02*
X191053001Y-145624393D01*
X191049000Y-145620392D02*
X191049000Y-133550694D01*
X190673000Y-133174695D02*
X190673000Y-132319387D01*
%TO.N,IO26*%
X185149999Y-128550000D02*
X185528611Y-128550000D01*
X190698000Y-148501612D02*
X191049000Y-148852612D01*
X192560000Y-152370000D02*
X192473611Y-152370000D01*
X189900000Y-133803612D02*
X190347000Y-134250612D01*
X185528611Y-128550000D02*
X185879612Y-128901000D01*
X190347000Y-145911168D02*
X190351000Y-145915169D01*
X191049000Y-148852612D02*
X191049000Y-150945389D01*
X189900000Y-132539166D02*
X189900000Y-133803612D01*
X190351000Y-146154612D02*
X190698000Y-146501612D01*
X190351000Y-145915169D02*
X190351000Y-146154612D01*
X190698000Y-146501612D02*
X190698000Y-148501612D01*
X186261833Y-128900999D02*
X189900000Y-132539166D01*
X192473611Y-152370000D02*
X191049000Y-150945389D01*
X185879612Y-128901000D02*
X186261833Y-128900999D01*
X184950000Y-127800000D02*
X184950000Y-128349999D01*
X184950000Y-128349999D02*
X185149999Y-128550000D01*
X190347000Y-134250612D02*
X190347000Y-145911168D01*
%TO.N,IO21*%
X190000000Y-146060557D02*
X190000000Y-146300000D01*
X189500000Y-133900000D02*
X189996000Y-134396000D01*
X185383222Y-128901000D02*
X185734224Y-129252000D01*
X184100000Y-128250000D02*
X184650000Y-128800000D01*
X190000000Y-146300000D02*
X190347000Y-146647000D01*
X190347000Y-146647000D02*
X190347000Y-148647000D01*
X190698000Y-151090779D02*
X190949000Y-151341777D01*
X185734224Y-129252000D02*
X186116445Y-129252000D01*
X184100000Y-127800000D02*
X184100000Y-128250000D01*
X186116445Y-129252000D02*
X189500000Y-132635555D01*
X185004611Y-128901000D02*
X185383222Y-128901000D01*
X189996000Y-134396000D02*
X189996000Y-146056557D01*
X189996000Y-146056557D02*
X190000000Y-146060557D01*
X190949000Y-151341777D02*
X190949000Y-153299000D01*
X190949000Y-153299000D02*
X192560000Y-154910000D01*
X189500000Y-132635555D02*
X189500000Y-133900000D01*
X190698000Y-148998000D02*
X190698000Y-151090779D01*
X184903611Y-128800000D02*
X185004611Y-128901000D01*
X184650000Y-128800000D02*
X184903611Y-128800000D01*
X190347000Y-148647000D02*
X190698000Y-148998000D01*
%TO.N,IO45*%
X189400000Y-118250000D02*
X191120000Y-118250000D01*
X191120000Y-118250000D02*
X192560000Y-116810000D01*
%TO.N,IO46*%
X189400000Y-115700000D02*
X191130000Y-115700000D01*
X191130000Y-115700000D02*
X192484000Y-114346000D01*
%TO.N,IO38*%
X188950000Y-124200000D02*
X188300000Y-123550000D01*
X189400000Y-124200000D02*
X188950000Y-124200000D01*
%TO.N,IO47*%
X185800000Y-128325000D02*
X186025002Y-128550000D01*
X185800000Y-127800000D02*
X185800000Y-128325000D01*
X190322000Y-133320083D02*
X190698000Y-133696083D01*
X190702001Y-145769781D02*
X190702000Y-146002000D01*
X186025002Y-128550000D02*
X186407223Y-128550000D01*
X190698000Y-133696083D02*
X190698000Y-145765780D01*
X190698000Y-145765780D02*
X190702001Y-145769781D01*
X191049000Y-146349000D02*
X191049000Y-148349000D01*
X186407223Y-128550000D02*
X190322000Y-132464776D01*
X191049000Y-148349000D02*
X192530000Y-149830000D01*
X190322000Y-132464776D02*
X190322000Y-133320083D01*
X190702000Y-146002000D02*
X191049000Y-146349000D01*
X192530000Y-149830000D02*
X192560000Y-149830000D01*
D51*
%TO.N,V_SYS*%
X180060000Y-144100000D02*
X178960000Y-144100000D01*
D52*
X178200000Y-148100000D02*
X178200000Y-147810000D01*
D53*
X177467500Y-145500000D02*
X177467500Y-144700000D01*
D52*
X177900000Y-148400000D02*
X178200000Y-148100000D01*
D53*
X178800000Y-149578017D02*
X178800000Y-149920000D01*
X178800000Y-149920000D02*
X178780000Y-149900000D01*
D51*
X180950000Y-144100000D02*
X181160000Y-144310000D01*
D53*
X178780000Y-149900000D02*
X177901000Y-149900000D01*
X178810731Y-149567286D02*
X178800000Y-149578017D01*
D51*
X180060000Y-144100000D02*
X180950000Y-144100000D01*
D53*
%TO.N,5V_IN*%
X174968500Y-158519000D02*
X174780000Y-158519000D01*
X177400000Y-156875000D02*
X176612500Y-156875000D01*
D52*
X177876000Y-158376000D02*
X177400000Y-157900000D01*
D53*
X176612500Y-156875000D02*
X174968500Y-158519000D01*
D52*
X181250000Y-157893877D02*
X180767877Y-158376000D01*
X180767877Y-158376000D02*
X177876000Y-158376000D01*
X177400000Y-157900000D02*
X177400000Y-156875000D01*
X181250000Y-156875000D02*
X181250000Y-157893877D01*
%TO.N,BAT_ALRT*%
X181204000Y-145900000D02*
X181194000Y-145910000D01*
X182400000Y-144400000D02*
X182400000Y-145000000D01*
X181500000Y-145900000D02*
X181204000Y-145900000D01*
X182400000Y-145000000D02*
X181500000Y-145900000D01*
X182700000Y-144100000D02*
X182400000Y-144400000D01*
%TO.N,3V3*%
X183840320Y-143088998D02*
X183840320Y-143059680D01*
X184400000Y-142500000D02*
X184400000Y-141300000D01*
X184940000Y-140760000D02*
X185600000Y-140760000D01*
D53*
X183850000Y-145050000D02*
X184100000Y-145300000D01*
X183840320Y-143088998D02*
X183850000Y-143098678D01*
X184100000Y-145300000D02*
X185161000Y-145300000D01*
X183850000Y-143098678D02*
X183850000Y-145050000D01*
D52*
X184400000Y-141300000D02*
X184940000Y-140760000D01*
X183840320Y-143059680D02*
X184400000Y-142500000D01*
%TD*%
%TA.AperFunction,Conductor*%
%TO.N,VBAT*%
G36*
X185208059Y-149401061D02*
G01*
X185313223Y-149414906D01*
X185344491Y-149423284D01*
X185434918Y-149460740D01*
X185462952Y-149476925D01*
X185540602Y-149536509D01*
X185563491Y-149559398D01*
X185623074Y-149637048D01*
X185639259Y-149665081D01*
X185676715Y-149755508D01*
X185685093Y-149786775D01*
X185698939Y-149891939D01*
X185700000Y-149908125D01*
X185700000Y-153491874D01*
X185698939Y-153508060D01*
X185685093Y-153613224D01*
X185676715Y-153644491D01*
X185639259Y-153734918D01*
X185623074Y-153762951D01*
X185563491Y-153840601D01*
X185540601Y-153863491D01*
X185462951Y-153923074D01*
X185434918Y-153939259D01*
X185344491Y-153976715D01*
X185313224Y-153985093D01*
X185219398Y-153997446D01*
X185208058Y-153998939D01*
X185191874Y-154000000D01*
X185055914Y-154000000D01*
X185037198Y-153998579D01*
X184916017Y-153980077D01*
X184880295Y-153968909D01*
X184778712Y-153919273D01*
X184747948Y-153897954D01*
X184665806Y-153820270D01*
X184642805Y-153790744D01*
X184582929Y-153683768D01*
X184575030Y-153666747D01*
X184554959Y-153613224D01*
X183233782Y-150090088D01*
X183230358Y-150079540D01*
X183210987Y-150009294D01*
X183207024Y-149987440D01*
X183200498Y-149914869D01*
X183200000Y-149903763D01*
X183200000Y-149712210D01*
X183202381Y-149688029D01*
X183218025Y-149609379D01*
X183221212Y-149601684D01*
X183221305Y-149596526D01*
X183236533Y-149564695D01*
X183274168Y-149508370D01*
X183308370Y-149474168D01*
X183364693Y-149436534D01*
X183409379Y-149418025D01*
X183488028Y-149402381D01*
X183512211Y-149400000D01*
X185191874Y-149400000D01*
X185208059Y-149401061D01*
G37*
%TD.AperFunction*%
%TD*%
%TA.AperFunction,Conductor*%
%TO.N,GND*%
G36*
X176299500Y-150294752D02*
G01*
X176300000Y-150297265D01*
X176300000Y-150500000D01*
X177767669Y-150500000D01*
X177779507Y-150501405D01*
X177789050Y-150502918D01*
X177806648Y-150506419D01*
X177832189Y-150514446D01*
X177841469Y-150518510D01*
X177862949Y-150523684D01*
X177886846Y-150527965D01*
X177915882Y-150531412D01*
X177940096Y-150532844D01*
X177940102Y-150532845D01*
X177940108Y-150532845D01*
X178975991Y-150532845D01*
X178976000Y-150532845D01*
X179019684Y-150528148D01*
X179048875Y-150521797D01*
X179071174Y-150516947D01*
X179071190Y-150516943D01*
X179071195Y-150516942D01*
X179081373Y-150514455D01*
X179108499Y-150500000D01*
X180300000Y-150500000D01*
X180300000Y-151294500D01*
X179323992Y-151294500D01*
X179280313Y-151299197D01*
X179276621Y-151300000D01*
X178300000Y-151300000D01*
X178300000Y-151494500D01*
X177830916Y-151494500D01*
X177820850Y-151494747D01*
X177811593Y-151495201D01*
X177811598Y-151495314D01*
X177805924Y-151495534D01*
X177805321Y-151495496D01*
X177803832Y-151495612D01*
X177803788Y-151495618D01*
X177803712Y-151495621D01*
X177802960Y-151495679D01*
X177799248Y-151495806D01*
X177792098Y-151496157D01*
X177788788Y-151495359D01*
X177782699Y-151496933D01*
X177782674Y-151496940D01*
X177776309Y-151498586D01*
X177776287Y-151498585D01*
X177770817Y-151500000D01*
X175400000Y-151500000D01*
X175400000Y-149400000D01*
X176299500Y-149400000D01*
X176299500Y-150294752D01*
G37*
%TD.AperFunction*%
%TD*%
%TA.AperFunction,Conductor*%
%TO.N,V_SYS*%
G36*
X179043039Y-149547030D02*
G01*
X179088794Y-149599834D01*
X179100000Y-149651345D01*
X179100000Y-150203345D01*
X179080315Y-150270384D01*
X179027511Y-150316139D01*
X178976000Y-150327345D01*
X177940108Y-150327345D01*
X177911072Y-150323898D01*
X177889592Y-150318724D01*
X177878231Y-150311133D01*
X177819748Y-150299500D01*
X177809775Y-150299500D01*
X177795464Y-150296053D01*
X177777423Y-150285676D01*
X177757461Y-150279815D01*
X177747752Y-150268610D01*
X177734898Y-150261217D01*
X177725332Y-150242736D01*
X177711706Y-150227011D01*
X177707728Y-150208726D01*
X177702780Y-150199167D01*
X177703644Y-150189954D01*
X177700500Y-150175500D01*
X177700500Y-149651345D01*
X177720185Y-149584306D01*
X177772989Y-149538551D01*
X177824500Y-149527345D01*
X178976000Y-149527345D01*
X179043039Y-149547030D01*
G37*
%TD.AperFunction*%
%TD*%
%TA.AperFunction,Conductor*%
%TO.N,5V*%
G36*
X180843039Y-151519685D02*
G01*
X180888794Y-151572489D01*
X180900000Y-151624000D01*
X180900000Y-153376000D01*
X180880315Y-153443039D01*
X180827511Y-153488794D01*
X180776000Y-153500000D01*
X180424000Y-153500000D01*
X180356961Y-153480315D01*
X180311206Y-153427511D01*
X180300000Y-153376000D01*
X180300000Y-152500000D01*
X177824500Y-152500000D01*
X177757461Y-152480315D01*
X177711706Y-152427511D01*
X177700500Y-152376000D01*
X177700500Y-151824500D01*
X177701673Y-151820505D01*
X177700762Y-151816442D01*
X177711434Y-151787259D01*
X177720185Y-151757461D01*
X177723330Y-151754735D01*
X177724761Y-151750824D01*
X177749516Y-151732044D01*
X177772989Y-151711706D01*
X177778056Y-151710395D01*
X177780427Y-151708597D01*
X177796247Y-151705690D01*
X177813693Y-151701178D01*
X177813686Y-151701097D01*
X177814205Y-151701045D01*
X177814866Y-151700875D01*
X177819678Y-151700500D01*
X177819748Y-151700500D01*
X177819793Y-151700491D01*
X177821282Y-151700375D01*
X177821659Y-151700454D01*
X177830916Y-151700000D01*
X179200000Y-151700000D01*
X179200000Y-151624000D01*
X179219685Y-151556961D01*
X179272489Y-151511206D01*
X179324000Y-151500000D01*
X180776000Y-151500000D01*
X180843039Y-151519685D01*
G37*
%TD.AperFunction*%
%TD*%
%TA.AperFunction,Conductor*%
%TO.N,GND*%
G36*
X180671696Y-129146185D02*
G01*
X180697885Y-129168742D01*
X180703373Y-129175000D01*
X181256000Y-129175000D01*
X181264685Y-129177550D01*
X181273647Y-129176262D01*
X181297687Y-129187240D01*
X181323039Y-129194685D01*
X181328966Y-129201525D01*
X181337203Y-129205287D01*
X181351492Y-129227521D01*
X181368794Y-129247489D01*
X181371081Y-129258003D01*
X181374977Y-129264065D01*
X181380000Y-129299000D01*
X181380000Y-129300000D01*
X181381000Y-129300000D01*
X181448039Y-129319685D01*
X181493794Y-129372489D01*
X181505000Y-129424000D01*
X181505000Y-129925000D01*
X181534363Y-129925000D01*
X181534377Y-129924999D01*
X181644341Y-129910521D01*
X181644342Y-129910521D01*
X181728047Y-129875850D01*
X181797517Y-129868381D01*
X181859996Y-129899656D01*
X181895648Y-129959745D01*
X181899500Y-129990411D01*
X181899500Y-130115891D01*
X181933608Y-130243187D01*
X181958984Y-130287139D01*
X181999500Y-130357314D01*
X182092686Y-130450500D01*
X182206814Y-130516392D01*
X182298841Y-130541050D01*
X182358500Y-130577413D01*
X182389030Y-130640260D01*
X182380736Y-130709636D01*
X182345418Y-130756672D01*
X182341645Y-130759768D01*
X182244772Y-130856641D01*
X182244769Y-130856645D01*
X182168659Y-130970550D01*
X182168652Y-130970563D01*
X182116229Y-131097125D01*
X182116226Y-131097135D01*
X182089500Y-131231496D01*
X182089500Y-131231499D01*
X182089500Y-131368501D01*
X182089500Y-131368503D01*
X182089499Y-131368503D01*
X182116226Y-131502864D01*
X182117996Y-131508697D01*
X182115377Y-131509491D01*
X182121512Y-131567310D01*
X182090150Y-131629746D01*
X182087195Y-131632804D01*
X182070000Y-131649999D01*
X182070000Y-132150000D01*
X183500000Y-132150000D01*
X183500000Y-131650000D01*
X183482805Y-131632805D01*
X183449320Y-131571482D01*
X183453771Y-131509233D01*
X183452004Y-131508697D01*
X183453768Y-131502877D01*
X183453772Y-131502870D01*
X183478886Y-131376615D01*
X183480500Y-131368503D01*
X183480500Y-131231496D01*
X183453773Y-131097135D01*
X183453772Y-131097134D01*
X183453772Y-131097130D01*
X183442331Y-131069509D01*
X183401347Y-130970563D01*
X183401340Y-130970550D01*
X183325230Y-130856645D01*
X183325227Y-130856641D01*
X183230767Y-130762181D01*
X183197282Y-130700858D01*
X183202266Y-130631166D01*
X183244138Y-130575233D01*
X183309602Y-130550816D01*
X183314937Y-130550625D01*
X183315883Y-130550500D01*
X183315892Y-130550500D01*
X183443186Y-130516392D01*
X183557314Y-130450500D01*
X183650500Y-130357314D01*
X183716392Y-130243186D01*
X183750500Y-130115892D01*
X183750500Y-129984108D01*
X183750500Y-129975981D01*
X183752176Y-129975981D01*
X183761448Y-129916495D01*
X183807825Y-129864236D01*
X183875093Y-129845347D01*
X183921078Y-129854777D01*
X184055658Y-129910521D01*
X184165622Y-129924999D01*
X184165637Y-129925000D01*
X184195000Y-129925000D01*
X184445000Y-129925000D01*
X184474363Y-129925000D01*
X184474377Y-129924999D01*
X184584341Y-129910521D01*
X184584342Y-129910521D01*
X184721175Y-129853843D01*
X184838679Y-129763679D01*
X184928843Y-129646175D01*
X184985521Y-129509342D01*
X184985521Y-129509340D01*
X184996626Y-129425000D01*
X184445000Y-129425000D01*
X184445000Y-129925000D01*
X184195000Y-129925000D01*
X184195000Y-129424000D01*
X184197550Y-129415314D01*
X184196262Y-129406353D01*
X184207240Y-129382312D01*
X184214685Y-129356961D01*
X184221525Y-129351033D01*
X184225287Y-129342797D01*
X184247521Y-129328507D01*
X184267489Y-129311206D01*
X184278003Y-129308918D01*
X184284065Y-129305023D01*
X184319000Y-129300000D01*
X184320000Y-129300000D01*
X184320000Y-129299000D01*
X184339685Y-129231961D01*
X184392489Y-129186206D01*
X184444000Y-129175000D01*
X184930057Y-129175000D01*
X184945286Y-129176500D01*
X184949811Y-129176500D01*
X185059411Y-129176500D01*
X185217745Y-129176500D01*
X185284784Y-129196185D01*
X185305426Y-129212819D01*
X185578163Y-129485556D01*
X185578164Y-129485556D01*
X185578166Y-129485558D01*
X185628795Y-129506528D01*
X185679424Y-129527500D01*
X185950968Y-129527500D01*
X186018007Y-129547185D01*
X186038649Y-129563819D01*
X189188181Y-132713351D01*
X189221666Y-132774674D01*
X189224500Y-132801032D01*
X189224500Y-133954800D01*
X189245995Y-134006694D01*
X189253371Y-134024499D01*
X189253371Y-134024500D01*
X189266443Y-134056059D01*
X189684181Y-134473796D01*
X189717666Y-134535119D01*
X189720500Y-134561477D01*
X189720500Y-146111355D01*
X189722117Y-146119484D01*
X189724500Y-146143678D01*
X189724500Y-146354802D01*
X189753164Y-146424000D01*
X189754959Y-146428333D01*
X189766443Y-146456058D01*
X189766444Y-146456059D01*
X190035181Y-146724796D01*
X190068666Y-146786119D01*
X190071500Y-146812477D01*
X190071500Y-148701800D01*
X190097448Y-148764443D01*
X190113443Y-148803058D01*
X190113444Y-148803059D01*
X190386181Y-149075796D01*
X190419666Y-149137119D01*
X190422500Y-149163477D01*
X190422500Y-151145577D01*
X190422501Y-151145583D01*
X190439125Y-151185716D01*
X190439126Y-151185717D01*
X190464443Y-151246838D01*
X190619261Y-151401655D01*
X190637181Y-151419574D01*
X190670666Y-151480897D01*
X190673500Y-151507256D01*
X190673500Y-153353800D01*
X190706537Y-153433557D01*
X190715443Y-153455058D01*
X190715444Y-153455059D01*
X191621547Y-154361163D01*
X191655032Y-154422486D01*
X191650048Y-154492178D01*
X191648428Y-154496296D01*
X191646894Y-154500000D01*
X191597949Y-154618165D01*
X191597948Y-154618168D01*
X191597948Y-154618169D01*
X191597947Y-154618170D01*
X191559500Y-154811456D01*
X191559500Y-154811459D01*
X191559500Y-155008541D01*
X191559500Y-155008543D01*
X191559499Y-155008543D01*
X191597947Y-155201829D01*
X191597950Y-155201839D01*
X191673364Y-155383907D01*
X191673371Y-155383920D01*
X191782860Y-155547781D01*
X191782863Y-155547785D01*
X191922214Y-155687136D01*
X191922218Y-155687139D01*
X192086079Y-155796628D01*
X192086092Y-155796635D01*
X192256999Y-155867426D01*
X192268165Y-155872051D01*
X192400674Y-155898409D01*
X192449061Y-155908034D01*
X192510972Y-155940419D01*
X192545546Y-156001134D01*
X192541807Y-156070904D01*
X192500940Y-156127576D01*
X192444269Y-156152124D01*
X192255581Y-156182010D01*
X192060968Y-156245244D01*
X191878644Y-156338143D01*
X191834077Y-156370523D01*
X191834077Y-156370524D01*
X192513554Y-157050000D01*
X192507339Y-157050000D01*
X192405606Y-157077259D01*
X192314394Y-157129920D01*
X192239920Y-157204394D01*
X192187259Y-157295606D01*
X192160000Y-157397339D01*
X192160000Y-157403553D01*
X191480524Y-156724077D01*
X191480523Y-156724077D01*
X191448143Y-156768644D01*
X191355244Y-156950968D01*
X191292009Y-157145582D01*
X191260000Y-157347682D01*
X191260000Y-157552317D01*
X191292009Y-157754417D01*
X191355244Y-157949031D01*
X191448141Y-158131350D01*
X191448147Y-158131359D01*
X191480523Y-158175921D01*
X191480524Y-158175922D01*
X192160000Y-157496446D01*
X192160000Y-157502661D01*
X192187259Y-157604394D01*
X192239920Y-157695606D01*
X192314394Y-157770080D01*
X192405606Y-157822741D01*
X192507339Y-157850000D01*
X192513552Y-157850000D01*
X191834077Y-158529473D01*
X191838508Y-158585771D01*
X191824144Y-158654148D01*
X191775093Y-158703905D01*
X191714890Y-158719500D01*
X190724500Y-158719500D01*
X190657461Y-158699815D01*
X190611706Y-158647011D01*
X190600500Y-158595500D01*
X190600500Y-155180249D01*
X190600499Y-155180247D01*
X190588868Y-155121770D01*
X190588867Y-155121769D01*
X190544552Y-155055447D01*
X190478230Y-155011132D01*
X190478229Y-155011131D01*
X190419752Y-154999500D01*
X190419748Y-154999500D01*
X188780252Y-154999500D01*
X188780247Y-154999500D01*
X188721770Y-155011131D01*
X188721769Y-155011132D01*
X188655447Y-155055447D01*
X188611132Y-155121769D01*
X188611131Y-155121770D01*
X188599500Y-155180247D01*
X188599500Y-158595500D01*
X188579815Y-158662539D01*
X188527011Y-158708294D01*
X188475500Y-158719500D01*
X183924500Y-158719500D01*
X183857461Y-158699815D01*
X183811706Y-158647011D01*
X183800500Y-158595500D01*
X183800500Y-155180249D01*
X183800499Y-155180247D01*
X183788868Y-155121770D01*
X183788867Y-155121769D01*
X183744552Y-155055447D01*
X183678230Y-155011132D01*
X183678229Y-155011131D01*
X183619752Y-154999500D01*
X183619748Y-154999500D01*
X181980252Y-154999500D01*
X181980247Y-154999500D01*
X181921770Y-155011131D01*
X181921769Y-155011132D01*
X181845293Y-155062233D01*
X181843190Y-155059086D01*
X181800825Y-155082206D01*
X181731135Y-155077203D01*
X181675212Y-155035317D01*
X181650813Y-154969847D01*
X181650499Y-154961033D01*
X181650499Y-154492643D01*
X181650499Y-154492636D01*
X181648259Y-154473319D01*
X181647586Y-154467512D01*
X181647585Y-154467510D01*
X181647585Y-154467509D01*
X181602206Y-154364735D01*
X181522765Y-154285294D01*
X181493151Y-154272218D01*
X181419992Y-154239915D01*
X181394865Y-154237000D01*
X181105143Y-154237000D01*
X181105117Y-154237002D01*
X181080013Y-154239913D01*
X180975086Y-154286243D01*
X180946389Y-154290000D01*
X180918221Y-154296623D01*
X180910303Y-154294725D01*
X180905807Y-154295314D01*
X180883613Y-154289697D01*
X180873635Y-154286164D01*
X180872765Y-154285294D01*
X180769991Y-154239915D01*
X180744865Y-154237000D01*
X180734780Y-154237000D01*
X180716668Y-154230587D01*
X180699241Y-154217990D01*
X180679439Y-154209592D01*
X180671483Y-154197925D01*
X180660043Y-154189656D01*
X180652192Y-154169635D01*
X180640075Y-154151866D01*
X180639689Y-154137752D01*
X180634536Y-154124609D01*
X180638755Y-154103520D01*
X180638169Y-154082022D01*
X180645666Y-154068983D01*
X180648245Y-154056097D01*
X180660162Y-154043774D01*
X180670374Y-154026017D01*
X180690495Y-154005896D01*
X180930480Y-153765912D01*
X180983207Y-153674587D01*
X180990854Y-153646045D01*
X181023848Y-153589567D01*
X181032843Y-153580754D01*
X181077490Y-153500937D01*
X181097175Y-153433898D01*
X181105500Y-153376000D01*
X181105500Y-151624000D01*
X181100803Y-151580316D01*
X181096897Y-151562364D01*
X181089602Y-151528825D01*
X181088545Y-151524500D01*
X181087110Y-151518627D01*
X181044100Y-151437915D01*
X180998345Y-151385111D01*
X180998339Y-151385104D01*
X180980757Y-151367160D01*
X180980756Y-151367159D01*
X180980754Y-151367157D01*
X180980752Y-151367156D01*
X180980750Y-151367154D01*
X180900940Y-151322511D01*
X180900935Y-151322509D01*
X180833903Y-151302826D01*
X180833899Y-151302825D01*
X180833898Y-151302825D01*
X180776000Y-151294500D01*
X180733486Y-151294500D01*
X180666447Y-151274815D01*
X180620692Y-151222011D01*
X180615276Y-151184346D01*
X180604505Y-151170000D01*
X180300000Y-151170000D01*
X180300000Y-150670000D01*
X180604504Y-150670000D01*
X180562031Y-150523804D01*
X180479721Y-150384625D01*
X180479714Y-150384616D01*
X180365383Y-150270285D01*
X180365374Y-150270278D01*
X180226195Y-150187968D01*
X180226190Y-150187966D01*
X180070918Y-150142855D01*
X180070912Y-150142854D01*
X180050000Y-150141209D01*
X180050000Y-150500000D01*
X179550000Y-150500000D01*
X179550000Y-150189520D01*
X179411227Y-150163004D01*
X179405574Y-150160101D01*
X179399223Y-150160083D01*
X179374874Y-150144336D01*
X179349073Y-150131087D01*
X179345887Y-150125590D01*
X179340554Y-150122141D01*
X179328583Y-150095728D01*
X179314041Y-150070634D01*
X179314333Y-150064287D01*
X179311711Y-150058502D01*
X179310499Y-150041218D01*
X179310499Y-149740100D01*
X179306560Y-149710173D01*
X179305500Y-149693993D01*
X179305500Y-149651353D01*
X179305499Y-149651337D01*
X179302586Y-149624248D01*
X179300803Y-149607661D01*
X179289597Y-149556150D01*
X179287110Y-149545972D01*
X179262205Y-149499236D01*
X179251862Y-149473015D01*
X179247462Y-149456594D01*
X179249125Y-149386744D01*
X179288287Y-149328881D01*
X179352516Y-149301377D01*
X179367237Y-149300500D01*
X179738201Y-149300500D01*
X179805240Y-149320185D01*
X179845588Y-149362500D01*
X179899517Y-149455908D01*
X179899519Y-149455910D01*
X179899520Y-149455912D01*
X180464088Y-150020480D01*
X180555413Y-150073207D01*
X180657274Y-150100500D01*
X180762728Y-150100500D01*
X182932280Y-150100500D01*
X182999319Y-150120185D01*
X183045074Y-150172989D01*
X183048383Y-150180958D01*
X183226546Y-150656057D01*
X184380970Y-153734521D01*
X184382614Y-153738903D01*
X184388625Y-153753253D01*
X184388630Y-153753263D01*
X184396515Y-153770256D01*
X184396522Y-153770269D01*
X184396524Y-153770274D01*
X184403607Y-153784137D01*
X184463483Y-153891113D01*
X184478807Y-153914197D01*
X184499486Y-153980935D01*
X184499500Y-153982779D01*
X184499500Y-154019752D01*
X184511131Y-154078229D01*
X184511132Y-154078230D01*
X184555447Y-154144552D01*
X184621769Y-154188867D01*
X184621770Y-154188868D01*
X184680247Y-154200499D01*
X184680250Y-154200500D01*
X184680252Y-154200500D01*
X184988747Y-154200500D01*
X185003822Y-154201645D01*
X185003844Y-154201458D01*
X185006172Y-154201723D01*
X185006182Y-154201725D01*
X185021640Y-154203489D01*
X185040356Y-154204910D01*
X185055914Y-154205500D01*
X185055916Y-154205500D01*
X185191861Y-154205500D01*
X185191874Y-154205500D01*
X185205317Y-154205060D01*
X185221501Y-154203999D01*
X185234882Y-154202681D01*
X185243390Y-154201560D01*
X185259575Y-154200500D01*
X185719750Y-154200500D01*
X185719751Y-154200499D01*
X185734568Y-154197552D01*
X185778229Y-154188868D01*
X185778229Y-154188867D01*
X185778231Y-154188867D01*
X185844552Y-154144552D01*
X185888867Y-154078231D01*
X185888867Y-154078229D01*
X185888868Y-154078229D01*
X185894912Y-154047844D01*
X186200000Y-154047844D01*
X186206401Y-154107372D01*
X186206403Y-154107379D01*
X186256645Y-154242086D01*
X186256649Y-154242093D01*
X186342809Y-154357187D01*
X186342812Y-154357190D01*
X186457906Y-154443350D01*
X186457913Y-154443354D01*
X186592620Y-154493596D01*
X186592627Y-154493598D01*
X186652155Y-154499999D01*
X186652172Y-154500000D01*
X186950000Y-154500000D01*
X187450000Y-154500000D01*
X187747828Y-154500000D01*
X187747844Y-154499999D01*
X187807372Y-154493598D01*
X187807379Y-154493596D01*
X187942086Y-154443354D01*
X187942093Y-154443350D01*
X188057187Y-154357190D01*
X188057190Y-154357187D01*
X188143350Y-154242093D01*
X188143354Y-154242086D01*
X188193596Y-154107379D01*
X188193598Y-154107372D01*
X188199999Y-154047844D01*
X188200000Y-154047827D01*
X188200000Y-151950000D01*
X187450000Y-151950000D01*
X187450000Y-154500000D01*
X186950000Y-154500000D01*
X186950000Y-151950000D01*
X186200000Y-151950000D01*
X186200000Y-154047844D01*
X185894912Y-154047844D01*
X185900499Y-154019752D01*
X185900500Y-154019750D01*
X185900500Y-153559578D01*
X185901561Y-153543391D01*
X185902099Y-153539303D01*
X185902681Y-153534885D01*
X185903999Y-153521502D01*
X185905060Y-153505316D01*
X185905500Y-153491874D01*
X185905500Y-149908125D01*
X185905060Y-149894683D01*
X185903999Y-149878497D01*
X185902681Y-149865114D01*
X185901561Y-149856606D01*
X185900500Y-149840421D01*
X185900500Y-149661396D01*
X186200000Y-149661396D01*
X186200000Y-151450000D01*
X186950000Y-151450000D01*
X187450000Y-151450000D01*
X188200000Y-151450000D01*
X188200000Y-149352172D01*
X188199999Y-149352155D01*
X188193598Y-149292627D01*
X188193596Y-149292620D01*
X188143354Y-149157913D01*
X188143350Y-149157906D01*
X188057190Y-149042812D01*
X188057187Y-149042809D01*
X187942093Y-148956649D01*
X187942086Y-148956645D01*
X187807379Y-148906403D01*
X187807372Y-148906401D01*
X187747844Y-148900000D01*
X187450000Y-148900000D01*
X187450000Y-151450000D01*
X186950000Y-151450000D01*
X186950000Y-148950000D01*
X186330000Y-148950000D01*
X186330000Y-149516000D01*
X186310315Y-149583039D01*
X186266484Y-149624248D01*
X186200000Y-149661396D01*
X185900500Y-149661396D01*
X185900500Y-149380249D01*
X185900499Y-149380247D01*
X185888868Y-149321770D01*
X185888867Y-149321769D01*
X185850898Y-149264945D01*
X185830020Y-149198268D01*
X185830000Y-149196054D01*
X185830000Y-148824000D01*
X185849685Y-148756961D01*
X185902489Y-148711206D01*
X185954000Y-148700000D01*
X186080000Y-148700000D01*
X186080000Y-148574000D01*
X186099685Y-148506961D01*
X186152489Y-148461206D01*
X186204000Y-148450000D01*
X186858790Y-148450000D01*
X186868195Y-148439826D01*
X186928157Y-148403961D01*
X186959249Y-148400000D01*
X186967828Y-148400000D01*
X186967844Y-148399999D01*
X187027372Y-148393598D01*
X187027379Y-148393596D01*
X187162086Y-148343354D01*
X187162093Y-148343350D01*
X187277187Y-148257190D01*
X187277190Y-148257187D01*
X187363350Y-148142093D01*
X187363354Y-148142086D01*
X187413596Y-148007379D01*
X187413598Y-148007372D01*
X187419999Y-147947844D01*
X187420000Y-147947827D01*
X187420000Y-147800000D01*
X185720000Y-147800000D01*
X185720000Y-147845833D01*
X185700315Y-147912872D01*
X185659122Y-147952565D01*
X185544622Y-148020281D01*
X185544620Y-148020282D01*
X185430282Y-148134621D01*
X185425499Y-148140788D01*
X185423544Y-148139272D01*
X185381362Y-148178644D01*
X185312618Y-148191135D01*
X185309537Y-148190768D01*
X185299904Y-148189500D01*
X184940105Y-148189500D01*
X184927686Y-148191135D01*
X184890513Y-148196028D01*
X184890511Y-148196029D01*
X184890509Y-148196029D01*
X184781683Y-148246776D01*
X184696776Y-148331683D01*
X184646027Y-148440514D01*
X184639500Y-148490098D01*
X184639500Y-148909894D01*
X184639501Y-148909900D01*
X184646028Y-148959487D01*
X184673358Y-149018097D01*
X184683850Y-149087171D01*
X184655331Y-149150956D01*
X184596855Y-149189196D01*
X184560976Y-149194500D01*
X183512211Y-149194500D01*
X183500704Y-149195065D01*
X183492066Y-149195489D01*
X183467909Y-149197868D01*
X183467896Y-149197869D01*
X183467892Y-149197870D01*
X183467886Y-149197870D01*
X183467861Y-149197874D01*
X183447929Y-149200830D01*
X183447921Y-149200831D01*
X183369307Y-149216468D01*
X183369295Y-149216471D01*
X183330742Y-149228166D01*
X183330741Y-149228166D01*
X183286057Y-149246674D01*
X183286045Y-149246680D01*
X183250532Y-149265661D01*
X183250525Y-149265665D01*
X183231165Y-149278602D01*
X183164488Y-149299480D01*
X183162274Y-149299500D01*
X182081168Y-149299500D01*
X182014129Y-149279815D01*
X181968374Y-149227011D01*
X181957550Y-149165772D01*
X181958791Y-149150001D01*
X181958790Y-149150000D01*
X181304000Y-149150000D01*
X181236961Y-149130315D01*
X181191206Y-149077511D01*
X181180000Y-149026000D01*
X181180000Y-148900000D01*
X181054000Y-148900000D01*
X180986961Y-148880315D01*
X180941206Y-148827511D01*
X180930000Y-148776000D01*
X180930000Y-148489954D01*
X180949685Y-148422915D01*
X180985107Y-148386853D01*
X180988552Y-148384552D01*
X181032867Y-148318231D01*
X181032867Y-148318229D01*
X181032868Y-148318229D01*
X181044499Y-148259752D01*
X181044500Y-148259750D01*
X181044500Y-148014000D01*
X181047050Y-148005314D01*
X181045762Y-147996353D01*
X181056740Y-147972312D01*
X181064185Y-147946961D01*
X181071025Y-147941033D01*
X181074787Y-147932797D01*
X181097021Y-147918507D01*
X181116989Y-147901206D01*
X181127503Y-147898918D01*
X181133565Y-147895023D01*
X181168500Y-147890000D01*
X181222638Y-147890000D01*
X181289677Y-147909685D01*
X181310319Y-147926319D01*
X181359796Y-147975796D01*
X181373039Y-147979685D01*
X181418794Y-148032489D01*
X181430000Y-148084000D01*
X181430000Y-148650000D01*
X181958790Y-148650000D01*
X181957145Y-148629089D01*
X181936810Y-148559094D01*
X181937010Y-148489225D01*
X181974953Y-148430555D01*
X182038591Y-148401712D01*
X182055887Y-148400500D01*
X183755750Y-148400500D01*
X183755751Y-148400499D01*
X183770568Y-148397552D01*
X183814229Y-148388868D01*
X183814229Y-148388867D01*
X183814231Y-148388867D01*
X183880552Y-148344552D01*
X183924867Y-148278231D01*
X183924867Y-148278229D01*
X183924868Y-148278229D01*
X183936499Y-148219752D01*
X183936500Y-148219750D01*
X183936500Y-147135807D01*
X183956185Y-147068768D01*
X184008989Y-147023013D01*
X184078147Y-147013069D01*
X184134814Y-147036542D01*
X184143913Y-147043354D01*
X184278620Y-147093596D01*
X184278627Y-147093598D01*
X184338155Y-147099999D01*
X184338172Y-147100000D01*
X184911000Y-147100000D01*
X184911000Y-146550000D01*
X183886000Y-146550000D01*
X183886000Y-146647844D01*
X183887575Y-146662484D01*
X183875171Y-146731243D01*
X183827561Y-146782381D01*
X183761840Y-146799156D01*
X183761840Y-146799500D01*
X183760493Y-146799500D01*
X183759862Y-146799661D01*
X183757455Y-146799500D01*
X183755748Y-146799500D01*
X181758000Y-146799500D01*
X181690961Y-146779815D01*
X181645206Y-146727011D01*
X181634000Y-146675500D01*
X181634000Y-146452172D01*
X181633999Y-146452155D01*
X181627598Y-146392627D01*
X181627597Y-146392623D01*
X181589523Y-146290542D01*
X181584539Y-146220850D01*
X181618024Y-146159527D01*
X181621224Y-146156439D01*
X181637589Y-146141206D01*
X181656058Y-146133557D01*
X181733557Y-146056058D01*
X181733556Y-146056058D01*
X182633557Y-145156059D01*
X182653053Y-145108991D01*
X182675500Y-145054800D01*
X182675500Y-144719868D01*
X182695185Y-144652829D01*
X182747989Y-144607074D01*
X182767395Y-144600097D01*
X182893186Y-144566392D01*
X183007314Y-144500500D01*
X183100500Y-144407314D01*
X183166392Y-144293186D01*
X183200500Y-144165892D01*
X183200500Y-144034108D01*
X183166392Y-143906814D01*
X183100500Y-143792686D01*
X183007314Y-143699500D01*
X182933269Y-143656750D01*
X182893187Y-143633608D01*
X182829539Y-143616554D01*
X182765892Y-143599500D01*
X182634108Y-143599500D01*
X182506812Y-143633608D01*
X182392686Y-143699500D01*
X182392683Y-143699502D01*
X182299502Y-143792683D01*
X182299500Y-143792686D01*
X182233608Y-143906812D01*
X182199500Y-144034108D01*
X182199500Y-144159522D01*
X182179815Y-144226561D01*
X182169520Y-144239335D01*
X182166444Y-144243939D01*
X182124500Y-144345199D01*
X182124500Y-144834522D01*
X182104815Y-144901561D01*
X182088181Y-144922203D01*
X181624283Y-145386100D01*
X181562960Y-145419585D01*
X181493268Y-145414601D01*
X181490740Y-145413626D01*
X181478581Y-145408785D01*
X181422231Y-145371133D01*
X181363748Y-145359500D01*
X181354774Y-145359500D01*
X181335547Y-145351846D01*
X181321256Y-145340652D01*
X181304426Y-145333848D01*
X181282143Y-145310950D01*
X181201190Y-145202812D01*
X181201187Y-145202809D01*
X181086093Y-145116649D01*
X181086086Y-145116645D01*
X180951379Y-145066403D01*
X180951372Y-145066401D01*
X180891844Y-145060000D01*
X180844000Y-145060000D01*
X180810089Y-145093911D01*
X180748765Y-145127395D01*
X180679074Y-145122410D01*
X180623140Y-145080539D01*
X180615021Y-145068230D01*
X180558832Y-144970910D01*
X180554489Y-144963387D01*
X180470613Y-144879511D01*
X180367886Y-144820201D01*
X180253309Y-144789500D01*
X180134691Y-144789500D01*
X180020114Y-144820201D01*
X180020112Y-144820201D01*
X180020112Y-144820202D01*
X179917387Y-144879511D01*
X179917384Y-144879513D01*
X179833513Y-144963384D01*
X179833511Y-144963387D01*
X179788219Y-145041835D01*
X179774201Y-145066114D01*
X179743500Y-145180691D01*
X179743500Y-145180693D01*
X179743500Y-145235500D01*
X179743077Y-145236939D01*
X179743466Y-145238388D01*
X179733264Y-145270358D01*
X179723815Y-145302539D01*
X179722682Y-145303520D01*
X179722226Y-145304951D01*
X179696341Y-145326344D01*
X179671011Y-145348294D01*
X179669153Y-145348815D01*
X179668371Y-145349463D01*
X179662727Y-145350622D01*
X179634284Y-145358616D01*
X179626922Y-145359500D01*
X179524252Y-145359500D01*
X179465769Y-145371133D01*
X179451686Y-145380542D01*
X179422603Y-145384035D01*
X179404274Y-145380962D01*
X179385798Y-145382948D01*
X179375726Y-145380694D01*
X179296629Y-145359500D01*
X179259309Y-145349500D01*
X179140691Y-145349500D01*
X179026114Y-145380201D01*
X179026112Y-145380201D01*
X179026112Y-145380202D01*
X178923387Y-145439511D01*
X178923384Y-145439513D01*
X178839513Y-145523384D01*
X178839511Y-145523387D01*
X178812833Y-145569595D01*
X178780201Y-145626114D01*
X178749500Y-145740691D01*
X178749500Y-145859309D01*
X178780201Y-145973886D01*
X178839511Y-146076613D01*
X178923387Y-146160489D01*
X179026114Y-146219799D01*
X179140691Y-146250500D01*
X179140694Y-146250500D01*
X179148751Y-146251561D01*
X179148471Y-146253681D01*
X179204675Y-146270185D01*
X179250430Y-146322989D01*
X179260925Y-146387756D01*
X179254000Y-146452155D01*
X179254000Y-146650000D01*
X180320000Y-146650000D01*
X180387039Y-146669685D01*
X180432794Y-146722489D01*
X180444000Y-146774000D01*
X180444000Y-146900000D01*
X180570000Y-146900000D01*
X180578685Y-146902550D01*
X180587647Y-146901262D01*
X180611687Y-146912240D01*
X180637039Y-146919685D01*
X180642966Y-146926525D01*
X180651203Y-146930287D01*
X180665492Y-146952521D01*
X180682794Y-146972489D01*
X180685081Y-146983003D01*
X180688977Y-146989065D01*
X180694000Y-147024000D01*
X180694000Y-147215500D01*
X180674315Y-147282539D01*
X180621511Y-147328294D01*
X180570000Y-147339500D01*
X180524252Y-147339500D01*
X180468190Y-147350651D01*
X180419810Y-147350651D01*
X180363748Y-147339500D01*
X180318000Y-147339500D01*
X180250961Y-147319815D01*
X180205206Y-147267011D01*
X180194000Y-147215500D01*
X180194000Y-147150000D01*
X179230639Y-147150000D01*
X179186811Y-147182811D01*
X179186809Y-147182813D01*
X179100647Y-147297911D01*
X179100645Y-147297913D01*
X179050403Y-147432620D01*
X179050401Y-147432627D01*
X179044000Y-147492155D01*
X179044000Y-147740000D01*
X179719500Y-147740000D01*
X179728185Y-147742550D01*
X179737147Y-147741262D01*
X179761187Y-147752240D01*
X179786539Y-147759685D01*
X179792466Y-147766525D01*
X179800703Y-147770287D01*
X179814992Y-147792521D01*
X179832294Y-147812489D01*
X179834581Y-147823003D01*
X179838477Y-147829065D01*
X179843500Y-147864000D01*
X179843500Y-147916000D01*
X179823815Y-147983039D01*
X179771011Y-148028794D01*
X179719500Y-148040000D01*
X179044000Y-148040000D01*
X179044000Y-148287844D01*
X179051231Y-148355087D01*
X179049867Y-148355233D01*
X179046568Y-148416757D01*
X179005700Y-148473427D01*
X178940681Y-148499007D01*
X178929633Y-148499500D01*
X178667927Y-148499500D01*
X178566067Y-148526793D01*
X178566066Y-148526793D01*
X178536499Y-148543864D01*
X178530597Y-148545295D01*
X178526011Y-148549270D01*
X178497042Y-148553435D01*
X178468599Y-148560335D01*
X178462863Y-148558349D01*
X178456853Y-148559214D01*
X178430227Y-148547054D01*
X178402572Y-148537483D01*
X178398819Y-148532710D01*
X178393297Y-148530189D01*
X178377473Y-148505566D01*
X178359382Y-148482561D01*
X178357965Y-148475211D01*
X178355523Y-148471411D01*
X178350500Y-148436476D01*
X178350500Y-148398963D01*
X178370185Y-148331924D01*
X178422989Y-148286169D01*
X178458317Y-148276024D01*
X178463551Y-148275334D01*
X178473173Y-148274068D01*
X178580404Y-148224065D01*
X178664065Y-148140404D01*
X178714068Y-148033173D01*
X178720500Y-147984316D01*
X178720500Y-147635684D01*
X178714068Y-147586827D01*
X178664065Y-147479596D01*
X178580404Y-147395935D01*
X178572733Y-147388264D01*
X178575561Y-147385435D01*
X178544843Y-147347023D01*
X178537635Y-147277526D01*
X178569143Y-147215165D01*
X178572903Y-147211906D01*
X178572733Y-147211736D01*
X178616958Y-147167511D01*
X178664065Y-147120404D01*
X178714068Y-147013173D01*
X178720500Y-146964316D01*
X178720500Y-146615684D01*
X178714068Y-146566827D01*
X178664065Y-146459596D01*
X178580404Y-146375935D01*
X178473173Y-146325932D01*
X178473171Y-146325931D01*
X178473172Y-146325931D01*
X178424317Y-146319500D01*
X178424316Y-146319500D01*
X177975684Y-146319500D01*
X177975683Y-146319500D01*
X177926828Y-146325931D01*
X177819595Y-146375935D01*
X177784019Y-146411511D01*
X177722696Y-146444996D01*
X177653004Y-146440010D01*
X177608658Y-146411510D01*
X177577513Y-146380365D01*
X177473171Y-146329355D01*
X177462929Y-146327863D01*
X177405528Y-146319500D01*
X176995049Y-146319500D01*
X176928010Y-146299815D01*
X176897051Y-146267682D01*
X176895516Y-146268874D01*
X176890731Y-146262705D01*
X176777294Y-146149268D01*
X176777285Y-146149261D01*
X176639191Y-146067593D01*
X176639188Y-146067592D01*
X176485130Y-146022834D01*
X176450000Y-146020068D01*
X176450000Y-146666000D01*
X176430315Y-146733039D01*
X176377511Y-146778794D01*
X176326000Y-146790000D01*
X176200000Y-146790000D01*
X176200000Y-146916000D01*
X176180315Y-146983039D01*
X176127511Y-147028794D01*
X176076000Y-147040000D01*
X175387156Y-147040000D01*
X175427595Y-147179194D01*
X175509261Y-147317285D01*
X175509268Y-147317294D01*
X175622705Y-147430731D01*
X175622711Y-147430736D01*
X175632575Y-147436569D01*
X175680260Y-147487637D01*
X175692766Y-147556379D01*
X175688505Y-147577994D01*
X175685932Y-147586822D01*
X175679500Y-147635683D01*
X175679500Y-147984316D01*
X175685931Y-148033171D01*
X175691238Y-148044552D01*
X175735935Y-148140404D01*
X175819596Y-148224065D01*
X175926827Y-148274068D01*
X175926829Y-148274068D01*
X175927740Y-148274334D01*
X175929012Y-148275087D01*
X175935426Y-148278078D01*
X175935131Y-148278709D01*
X175980729Y-148305701D01*
X176263181Y-148588152D01*
X176277884Y-148615079D01*
X176294477Y-148640898D01*
X176295368Y-148647098D01*
X176296666Y-148649475D01*
X176299500Y-148675833D01*
X176299500Y-148901000D01*
X176279815Y-148968039D01*
X176227011Y-149013794D01*
X176175500Y-149025000D01*
X176052155Y-149025000D01*
X175992627Y-149031401D01*
X175992620Y-149031403D01*
X175857913Y-149081645D01*
X175857906Y-149081649D01*
X175742812Y-149167809D01*
X175742809Y-149167812D01*
X175656649Y-149282906D01*
X175656645Y-149282913D01*
X175612975Y-149400000D01*
X175400000Y-149400000D01*
X175400000Y-151500000D01*
X175700000Y-151500000D01*
X175700000Y-151547844D01*
X175706401Y-151607372D01*
X175706403Y-151607379D01*
X175756645Y-151742086D01*
X175756647Y-151742088D01*
X175842809Y-151857186D01*
X175842811Y-151857188D01*
X175849809Y-151862427D01*
X175891681Y-151918359D01*
X175899500Y-151961695D01*
X175899500Y-152494752D01*
X175911130Y-152553223D01*
X175915059Y-152562706D01*
X175916686Y-152570888D01*
X175919477Y-152575230D01*
X175924500Y-152610165D01*
X175924500Y-152656560D01*
X175904815Y-152723599D01*
X175852011Y-152769354D01*
X175788423Y-152778889D01*
X175788366Y-152779765D01*
X175784342Y-152779501D01*
X175784338Y-152779502D01*
X175784323Y-152779500D01*
X175784316Y-152779500D01*
X175435684Y-152779500D01*
X175435683Y-152779500D01*
X175386822Y-152785932D01*
X175377994Y-152788505D01*
X175308124Y-152788362D01*
X175249424Y-152750468D01*
X175236569Y-152732575D01*
X175230736Y-152722711D01*
X175230731Y-152722705D01*
X175117294Y-152609268D01*
X175117285Y-152609261D01*
X174979191Y-152527593D01*
X174979188Y-152527591D01*
X174840001Y-152487153D01*
X174840000Y-152487154D01*
X174840000Y-154371880D01*
X174847166Y-154385004D01*
X174850000Y-154411362D01*
X174850000Y-156112843D01*
X174989194Y-156072404D01*
X175127285Y-155990738D01*
X175127294Y-155990731D01*
X175240731Y-155877294D01*
X175240735Y-155877288D01*
X175246568Y-155867426D01*
X175297634Y-155819740D01*
X175366376Y-155807233D01*
X175388002Y-155811496D01*
X175396827Y-155814068D01*
X175445683Y-155820500D01*
X175445684Y-155820500D01*
X175794317Y-155820500D01*
X175810601Y-155818356D01*
X175843173Y-155814068D01*
X175950404Y-155764065D01*
X176034065Y-155680404D01*
X176084068Y-155573173D01*
X176090500Y-155524316D01*
X176090500Y-155270477D01*
X176110185Y-155203438D01*
X176126819Y-155182796D01*
X176233931Y-155075684D01*
X176389557Y-154920059D01*
X176416422Y-154855200D01*
X176431500Y-154818800D01*
X176431500Y-154320849D01*
X176451185Y-154253810D01*
X176467819Y-154233168D01*
X176759808Y-153941179D01*
X177064242Y-153636745D01*
X177125561Y-153603263D01*
X177195252Y-153608247D01*
X177222644Y-153622576D01*
X177231756Y-153628903D01*
X177262489Y-153659636D01*
X177308189Y-153681977D01*
X177315954Y-153687369D01*
X177332178Y-153707505D01*
X177351271Y-153724948D01*
X177353743Y-153734268D01*
X177359792Y-153741775D01*
X177362555Y-153767485D01*
X177369186Y-153792482D01*
X177366227Y-153801657D01*
X177367258Y-153811245D01*
X177355680Y-153834370D01*
X177347746Y-153858981D01*
X177336647Y-153872389D01*
X177335980Y-153873722D01*
X177335123Y-153874230D01*
X177332911Y-153876903D01*
X177079519Y-154130296D01*
X177079518Y-154130298D01*
X177026792Y-154221620D01*
X177026793Y-154221621D01*
X176999500Y-154323481D01*
X176999500Y-155707356D01*
X176999502Y-155707382D01*
X177002413Y-155732487D01*
X177002415Y-155732491D01*
X177047793Y-155835264D01*
X177112348Y-155899819D01*
X177145833Y-155961142D01*
X177140849Y-156030834D01*
X177112348Y-156075181D01*
X177047794Y-156139734D01*
X177002415Y-156242506D01*
X177002415Y-156242508D01*
X176999500Y-156267631D01*
X176999500Y-156350500D01*
X176979815Y-156417539D01*
X176927011Y-156463294D01*
X176875500Y-156474500D01*
X176559773Y-156474500D01*
X176457910Y-156501793D01*
X176366587Y-156554520D01*
X176366584Y-156554522D01*
X175224926Y-157696181D01*
X175163603Y-157729666D01*
X175137245Y-157732500D01*
X173960247Y-157732500D01*
X173901770Y-157744131D01*
X173901769Y-157744132D01*
X173835447Y-157788447D01*
X173791132Y-157854769D01*
X173791131Y-157854770D01*
X173779500Y-157913247D01*
X173779500Y-158595500D01*
X173759815Y-158662539D01*
X173707011Y-158708294D01*
X173655500Y-158719500D01*
X172364500Y-158719500D01*
X172355814Y-158716949D01*
X172346853Y-158718238D01*
X172322812Y-158707259D01*
X172297461Y-158699815D01*
X172291533Y-158692974D01*
X172283297Y-158689213D01*
X172269007Y-158666978D01*
X172251706Y-158647011D01*
X172249418Y-158636496D01*
X172245523Y-158630435D01*
X172240500Y-158595500D01*
X172240500Y-158571765D01*
X172260185Y-158504726D01*
X172312989Y-158458971D01*
X172340306Y-158450148D01*
X172531835Y-158412051D01*
X172713914Y-158336632D01*
X172877782Y-158227139D01*
X173017139Y-158087782D01*
X173126632Y-157923914D01*
X173202051Y-157741835D01*
X173222701Y-157638023D01*
X173240500Y-157548543D01*
X173240500Y-157351456D01*
X173202052Y-157158171D01*
X173202051Y-157158165D01*
X173173831Y-157090035D01*
X173166362Y-157020566D01*
X173197638Y-156958087D01*
X173200681Y-156954932D01*
X174062616Y-156092998D01*
X174123937Y-156059515D01*
X174193629Y-156064499D01*
X174204171Y-156069534D01*
X174210805Y-156072405D01*
X174349999Y-156112844D01*
X174350000Y-156112844D01*
X174350000Y-155228119D01*
X174342834Y-155214996D01*
X174340000Y-155188638D01*
X174340000Y-152487154D01*
X174339998Y-152487153D01*
X174285094Y-152503105D01*
X174215225Y-152502905D01*
X174156555Y-152464962D01*
X174127712Y-152401324D01*
X174126500Y-152384028D01*
X174126500Y-151514477D01*
X174146185Y-151447438D01*
X174162819Y-151426796D01*
X174459615Y-151130000D01*
X174933557Y-150656059D01*
X174953820Y-150607139D01*
X174975500Y-150554800D01*
X174975500Y-146965478D01*
X174995185Y-146898439D01*
X175011817Y-146877798D01*
X175033557Y-146856059D01*
X175052166Y-146811133D01*
X175075500Y-146754800D01*
X175075500Y-146540000D01*
X175387156Y-146540000D01*
X175950000Y-146540000D01*
X175950000Y-146020068D01*
X175949999Y-146020068D01*
X175914869Y-146022834D01*
X175914868Y-146022834D01*
X175760811Y-146067592D01*
X175760808Y-146067593D01*
X175622714Y-146149261D01*
X175622705Y-146149268D01*
X175509268Y-146262705D01*
X175509261Y-146262714D01*
X175427595Y-146400805D01*
X175387156Y-146540000D01*
X175075500Y-146540000D01*
X175075500Y-146277897D01*
X175077883Y-146253703D01*
X175079500Y-146245574D01*
X175079500Y-144950000D01*
X175801210Y-144950000D01*
X175802854Y-144970910D01*
X175847968Y-145126195D01*
X175930278Y-145265374D01*
X175930285Y-145265383D01*
X176044616Y-145379714D01*
X176044625Y-145379721D01*
X176183804Y-145462031D01*
X176330000Y-145504504D01*
X176330000Y-144950000D01*
X175801210Y-144950000D01*
X175079500Y-144950000D01*
X175079500Y-144661477D01*
X175099185Y-144594438D01*
X175115819Y-144573796D01*
X175249211Y-144440404D01*
X175388557Y-144301058D01*
X175409499Y-144250500D01*
X175430500Y-144199800D01*
X175430500Y-141437676D01*
X175450185Y-141370637D01*
X175502989Y-141324882D01*
X175572147Y-141314938D01*
X175635703Y-141343963D01*
X175642181Y-141349995D01*
X175692686Y-141400500D01*
X175806814Y-141466392D01*
X175934108Y-141500500D01*
X175934110Y-141500500D01*
X176065890Y-141500500D01*
X176065892Y-141500500D01*
X176193186Y-141466392D01*
X176193187Y-141466391D01*
X176201037Y-141464288D01*
X176201776Y-141467046D01*
X176257503Y-141461049D01*
X176319986Y-141492317D01*
X176355645Y-141552401D01*
X176359500Y-141583081D01*
X176359500Y-142369752D01*
X176371131Y-142428229D01*
X176371132Y-142428230D01*
X176415447Y-142494552D01*
X176481769Y-142538867D01*
X176481770Y-142538868D01*
X176540247Y-142550499D01*
X176540250Y-142550500D01*
X176540252Y-142550500D01*
X177579750Y-142550500D01*
X177579751Y-142550499D01*
X177594568Y-142547552D01*
X177638229Y-142538868D01*
X177638229Y-142538867D01*
X177638231Y-142538867D01*
X177704552Y-142494552D01*
X177743937Y-142435608D01*
X177750028Y-142430518D01*
X177753326Y-142423297D01*
X177776453Y-142408433D01*
X177797549Y-142390804D01*
X177806923Y-142388852D01*
X177812104Y-142385523D01*
X177847039Y-142380500D01*
X178080656Y-142380500D01*
X178147695Y-142400185D01*
X178193450Y-142452989D01*
X178203394Y-142522147D01*
X178174369Y-142585703D01*
X178154968Y-142603766D01*
X178102809Y-142642812D01*
X178016649Y-142757906D01*
X178016646Y-142757911D01*
X177964091Y-142898819D01*
X177949583Y-142918198D01*
X177938778Y-142939858D01*
X177929022Y-142945664D01*
X177922219Y-142954752D01*
X177899539Y-142963210D01*
X177878737Y-142975592D01*
X177867390Y-142975202D01*
X177856755Y-142979169D01*
X177833101Y-142974023D01*
X177808909Y-142973192D01*
X177793157Y-142965334D01*
X177788482Y-142964317D01*
X177777327Y-142957437D01*
X177718966Y-142917033D01*
X177707216Y-142907228D01*
X177638231Y-142861132D01*
X177638229Y-142861131D01*
X177579752Y-142849500D01*
X177579748Y-142849500D01*
X177554909Y-142849500D01*
X177537262Y-142848238D01*
X177511265Y-142844500D01*
X177024000Y-142844500D01*
X177023992Y-142844500D01*
X176984111Y-142848789D01*
X176970855Y-142849500D01*
X176540247Y-142849500D01*
X176481770Y-142861131D01*
X176481769Y-142861132D01*
X176415447Y-142905447D01*
X176371132Y-142971769D01*
X176371131Y-142971770D01*
X176359500Y-143030247D01*
X176359500Y-143793822D01*
X176339815Y-143860861D01*
X176287011Y-143906616D01*
X176270095Y-143912898D01*
X176183809Y-143937966D01*
X176183804Y-143937968D01*
X176044625Y-144020278D01*
X176044616Y-144020285D01*
X175930285Y-144134616D01*
X175930278Y-144134625D01*
X175847968Y-144273804D01*
X175847966Y-144273809D01*
X175802855Y-144429081D01*
X175802854Y-144429087D01*
X175801209Y-144449999D01*
X175801210Y-144450000D01*
X176456000Y-144450000D01*
X176523039Y-144469685D01*
X176568794Y-144522489D01*
X176580000Y-144574000D01*
X176580000Y-144700000D01*
X176706000Y-144700000D01*
X176773039Y-144719685D01*
X176818794Y-144772489D01*
X176830000Y-144824000D01*
X176830000Y-145504504D01*
X176833825Y-145507376D01*
X176890115Y-145507537D01*
X176948786Y-145545478D01*
X176974617Y-145594320D01*
X177001108Y-145693186D01*
X177067000Y-145807314D01*
X177160186Y-145900500D01*
X177274314Y-145966392D01*
X177401608Y-146000500D01*
X177401610Y-146000500D01*
X177533390Y-146000500D01*
X177533392Y-146000500D01*
X177660686Y-145966392D01*
X177774814Y-145900500D01*
X177868000Y-145807314D01*
X177933892Y-145693186D01*
X177968000Y-145565892D01*
X177968000Y-145434108D01*
X177933892Y-145306814D01*
X177932816Y-145304951D01*
X177923581Y-145288955D01*
X177907106Y-145221055D01*
X177929956Y-145155028D01*
X177956654Y-145127686D01*
X177981629Y-145108991D01*
X178653801Y-144436819D01*
X178715124Y-144403334D01*
X178741482Y-144400500D01*
X178920438Y-144400500D01*
X179624834Y-144400500D01*
X179672291Y-144409941D01*
X179681771Y-144413868D01*
X179740247Y-144425499D01*
X179740250Y-144425500D01*
X179740252Y-144425500D01*
X180379750Y-144425500D01*
X180379751Y-144425499D01*
X180399418Y-144421587D01*
X180438228Y-144413868D01*
X180438229Y-144413867D01*
X180438231Y-144413867D01*
X180438231Y-144413866D01*
X180447709Y-144409941D01*
X180455888Y-144408313D01*
X180460231Y-144405523D01*
X180495166Y-144400500D01*
X180604669Y-144400500D01*
X180671708Y-144420185D01*
X180692350Y-144436819D01*
X180695935Y-144440404D01*
X180779596Y-144524065D01*
X180886827Y-144574068D01*
X180935683Y-144580500D01*
X180935684Y-144580500D01*
X180996361Y-144580500D01*
X181036033Y-144588391D01*
X181036161Y-144587917D01*
X181043395Y-144589855D01*
X181043815Y-144589939D01*
X181044005Y-144590017D01*
X181044012Y-144590021D01*
X181120438Y-144610500D01*
X181120440Y-144610500D01*
X181199560Y-144610500D01*
X181199562Y-144610500D01*
X181275988Y-144590021D01*
X181275996Y-144590016D01*
X181276185Y-144589939D01*
X181276604Y-144589855D01*
X181283839Y-144587917D01*
X181283966Y-144588391D01*
X181323639Y-144580500D01*
X181384317Y-144580500D01*
X181400601Y-144578356D01*
X181433173Y-144574068D01*
X181540404Y-144524065D01*
X181624065Y-144440404D01*
X181674068Y-144333173D01*
X181680500Y-144284316D01*
X181680500Y-143935684D01*
X181674068Y-143886827D01*
X181624065Y-143779596D01*
X181540404Y-143695935D01*
X181532733Y-143688264D01*
X181535561Y-143685435D01*
X181504843Y-143647023D01*
X181497635Y-143577526D01*
X181529143Y-143515165D01*
X181532903Y-143511906D01*
X181532733Y-143511736D01*
X181573752Y-143470717D01*
X181624065Y-143420404D01*
X181674068Y-143313173D01*
X181680500Y-143264316D01*
X181680500Y-142924500D01*
X181700185Y-142857461D01*
X181752989Y-142811706D01*
X181804500Y-142800500D01*
X183237867Y-142800500D01*
X183304906Y-142820185D01*
X183350661Y-142872989D01*
X183360605Y-142942147D01*
X183357642Y-142956591D01*
X183339820Y-143023106D01*
X183339820Y-143154890D01*
X183373928Y-143282184D01*
X183432887Y-143384305D01*
X183449500Y-143446303D01*
X183449500Y-144997273D01*
X183449500Y-145102727D01*
X183454774Y-145122410D01*
X183476793Y-145204589D01*
X183503156Y-145250250D01*
X183529520Y-145295913D01*
X183779519Y-145545912D01*
X183779520Y-145545913D01*
X183854087Y-145620480D01*
X183878295Y-145634457D01*
X183926511Y-145685023D01*
X183939733Y-145753630D01*
X183932477Y-145785176D01*
X183892403Y-145892619D01*
X183892401Y-145892627D01*
X183886000Y-145952155D01*
X183886000Y-146050000D01*
X185037000Y-146050000D01*
X185104039Y-146069685D01*
X185149794Y-146122489D01*
X185161000Y-146174000D01*
X185161000Y-146300000D01*
X185287000Y-146300000D01*
X185354039Y-146319685D01*
X185399794Y-146372489D01*
X185411000Y-146424000D01*
X185411000Y-147100000D01*
X185596000Y-147100000D01*
X185663039Y-147119685D01*
X185708794Y-147172489D01*
X185720000Y-147224000D01*
X185720000Y-147300000D01*
X187420000Y-147300000D01*
X187420000Y-147152172D01*
X187419999Y-147152155D01*
X187413598Y-147092627D01*
X187413596Y-147092620D01*
X187363354Y-146957913D01*
X187363350Y-146957906D01*
X187277190Y-146842812D01*
X187170188Y-146762709D01*
X187167451Y-146759053D01*
X187163297Y-146757156D01*
X187146705Y-146731338D01*
X187128318Y-146706775D01*
X187127302Y-146701147D01*
X187125523Y-146698378D01*
X187120500Y-146663443D01*
X187120500Y-146415544D01*
X187140185Y-146348505D01*
X187192989Y-146302750D01*
X187262147Y-146292806D01*
X187325703Y-146321831D01*
X187332181Y-146327863D01*
X187734788Y-146730470D01*
X187787867Y-146761115D01*
X187795663Y-146765616D01*
X187843879Y-146816183D01*
X187845882Y-146820250D01*
X187852326Y-146833960D01*
X187861133Y-146878231D01*
X187901626Y-146938833D01*
X187905582Y-146947247D01*
X187909568Y-146972957D01*
X187917343Y-146997786D01*
X187914835Y-147006925D01*
X187916288Y-147016292D01*
X187905741Y-147040075D01*
X187898859Y-147065166D01*
X187896465Y-147068891D01*
X187861132Y-147121769D01*
X187861131Y-147121770D01*
X187849500Y-147180247D01*
X187849500Y-147919752D01*
X187861131Y-147978229D01*
X187861132Y-147978230D01*
X187905447Y-148044552D01*
X187971769Y-148088867D01*
X187971770Y-148088868D01*
X188030247Y-148100499D01*
X188030250Y-148100500D01*
X188030252Y-148100500D01*
X188769750Y-148100500D01*
X188769751Y-148100499D01*
X188784568Y-148097552D01*
X188828229Y-148088868D01*
X188828229Y-148088867D01*
X188828231Y-148088867D01*
X188894552Y-148044552D01*
X188938867Y-147978231D01*
X188938867Y-147978229D01*
X188938868Y-147978229D01*
X188950499Y-147919752D01*
X188950500Y-147919750D01*
X188950500Y-147440477D01*
X188970185Y-147373438D01*
X188986819Y-147352796D01*
X189139622Y-147199993D01*
X189333557Y-147006059D01*
X189359034Y-146944552D01*
X189375500Y-146904800D01*
X189375500Y-144845200D01*
X189371077Y-144834522D01*
X189365146Y-144820202D01*
X189365145Y-144820201D01*
X189333558Y-144743942D01*
X189211819Y-144622203D01*
X189178334Y-144560880D01*
X189175500Y-144534522D01*
X189175500Y-144212964D01*
X189195185Y-144145925D01*
X189211819Y-144125283D01*
X189227338Y-144109764D01*
X189260489Y-144076613D01*
X189319799Y-143973886D01*
X189350500Y-143859309D01*
X189350500Y-143740691D01*
X189319799Y-143626114D01*
X189260489Y-143523387D01*
X189176613Y-143439511D01*
X189073886Y-143380201D01*
X188959309Y-143349500D01*
X188840691Y-143349500D01*
X188726114Y-143380201D01*
X188726112Y-143380201D01*
X188726112Y-143380202D01*
X188623387Y-143439511D01*
X188623384Y-143439513D01*
X188592181Y-143470717D01*
X188530858Y-143504202D01*
X188461166Y-143499218D01*
X188405233Y-143457346D01*
X188380816Y-143391882D01*
X188380500Y-143383036D01*
X188380500Y-143075683D01*
X188374068Y-143026828D01*
X188374068Y-143026827D01*
X188324065Y-142919596D01*
X188240404Y-142835935D01*
X188240401Y-142835933D01*
X188232622Y-142830487D01*
X188188996Y-142775911D01*
X188181802Y-142706413D01*
X188213323Y-142644058D01*
X188216033Y-142641260D01*
X188229215Y-142628079D01*
X188272707Y-142529580D01*
X188275500Y-142505505D01*
X188275499Y-141919496D01*
X188272707Y-141895420D01*
X188233706Y-141807091D01*
X188229218Y-141796926D01*
X188229216Y-141796923D01*
X188229215Y-141796921D01*
X188202304Y-141770010D01*
X188168819Y-141708687D01*
X188173803Y-141638995D01*
X188215675Y-141583062D01*
X188242534Y-141567767D01*
X188283784Y-141550681D01*
X188283786Y-141550680D01*
X188406509Y-141456510D01*
X188406510Y-141456509D01*
X188500680Y-141333786D01*
X188500683Y-141333780D01*
X188559877Y-141190871D01*
X188559879Y-141190866D01*
X188575000Y-141076011D01*
X188575000Y-140962500D01*
X188024000Y-140962500D01*
X188015314Y-140959949D01*
X188006353Y-140961238D01*
X187982312Y-140950259D01*
X187956961Y-140942815D01*
X187951033Y-140935974D01*
X187942797Y-140932213D01*
X187928507Y-140909978D01*
X187911206Y-140890011D01*
X187908918Y-140879496D01*
X187905023Y-140873435D01*
X187900000Y-140838500D01*
X187900000Y-140787500D01*
X187899499Y-140787500D01*
X187832460Y-140767815D01*
X187786705Y-140715011D01*
X187775499Y-140663500D01*
X187775499Y-140612500D01*
X188075000Y-140612500D01*
X188574999Y-140612500D01*
X188574999Y-140498986D01*
X188559881Y-140384140D01*
X188559877Y-140384128D01*
X188500683Y-140241219D01*
X188500680Y-140241213D01*
X188406510Y-140118490D01*
X188406509Y-140118489D01*
X188283786Y-140024319D01*
X188283780Y-140024316D01*
X188140868Y-139965121D01*
X188075000Y-139956448D01*
X188075000Y-140612500D01*
X187775499Y-140612500D01*
X187775499Y-140494503D01*
X187775499Y-140494496D01*
X187772707Y-140470420D01*
X187770589Y-140465623D01*
X187735566Y-140386303D01*
X187725000Y-140336217D01*
X187725000Y-139956450D01*
X187706480Y-139940209D01*
X187702369Y-139939568D01*
X187681363Y-139920920D01*
X187658353Y-139904801D01*
X187654404Y-139896988D01*
X187650118Y-139893183D01*
X187640471Y-139874372D01*
X187637492Y-139867094D01*
X187619799Y-139801063D01*
X187587728Y-139745515D01*
X187584551Y-139737753D01*
X187581789Y-139711010D01*
X187575450Y-139684882D01*
X187578254Y-139676779D01*
X187577374Y-139668253D01*
X187589507Y-139644264D01*
X187598302Y-139618855D01*
X187605040Y-139613555D01*
X187608910Y-139605906D01*
X187632087Y-139592284D01*
X187653222Y-139575664D01*
X187662312Y-139574522D01*
X187669148Y-139570505D01*
X187688230Y-139571266D01*
X187715494Y-139567842D01*
X187735684Y-139570500D01*
X188084317Y-139570500D01*
X188104506Y-139567842D01*
X188133173Y-139564068D01*
X188240404Y-139514065D01*
X188324065Y-139430404D01*
X188374068Y-139323173D01*
X188380500Y-139274316D01*
X188380500Y-138825684D01*
X188379283Y-138816443D01*
X188376987Y-138799000D01*
X188374068Y-138776827D01*
X188324065Y-138669596D01*
X188275684Y-138621215D01*
X188242200Y-138559893D01*
X188247184Y-138490201D01*
X188275684Y-138445855D01*
X188303224Y-138418316D01*
X188353972Y-138309487D01*
X188360500Y-138259901D01*
X188360499Y-137840100D01*
X188353972Y-137790513D01*
X188303224Y-137681684D01*
X188218316Y-137596776D01*
X188218315Y-137596775D01*
X188209429Y-137590553D01*
X188211692Y-137587321D01*
X188174606Y-137554617D01*
X188157225Y-137509096D01*
X188155500Y-137498861D01*
X188155500Y-137475200D01*
X188148775Y-137458966D01*
X188146440Y-137445109D01*
X188148978Y-137423811D01*
X188146685Y-137402487D01*
X188153030Y-137389810D01*
X188154708Y-137375731D01*
X188168358Y-137359185D01*
X188177958Y-137340007D01*
X188190149Y-137332772D01*
X188199173Y-137321836D01*
X188219602Y-137315296D01*
X188238046Y-137304353D01*
X188263965Y-137301096D01*
X188265717Y-137300536D01*
X188266583Y-137300767D01*
X188268715Y-137300500D01*
X188494750Y-137300500D01*
X188494751Y-137300499D01*
X188509568Y-137297552D01*
X188553229Y-137288868D01*
X188553229Y-137288867D01*
X188553231Y-137288867D01*
X188607394Y-137252676D01*
X188629707Y-137237767D01*
X188632272Y-137241607D01*
X188671183Y-137219895D01*
X188730741Y-137221038D01*
X188840691Y-137250500D01*
X188840694Y-137250500D01*
X188959306Y-137250500D01*
X188959309Y-137250500D01*
X189073886Y-137219799D01*
X189176613Y-137160489D01*
X189260489Y-137076613D01*
X189319799Y-136973886D01*
X189350500Y-136859309D01*
X189350500Y-136740691D01*
X189319799Y-136626114D01*
X189260489Y-136523387D01*
X189176613Y-136439511D01*
X189073886Y-136380201D01*
X188959309Y-136349500D01*
X188840691Y-136349500D01*
X188726114Y-136380201D01*
X188726113Y-136380201D01*
X188726111Y-136380202D01*
X188675310Y-136409532D01*
X188607410Y-136426004D01*
X188565946Y-136412340D01*
X188564511Y-136415806D01*
X188553226Y-136411131D01*
X188494752Y-136399500D01*
X188494748Y-136399500D01*
X186805252Y-136399500D01*
X186805247Y-136399500D01*
X186746770Y-136411131D01*
X186746769Y-136411132D01*
X186680447Y-136455447D01*
X186636132Y-136521769D01*
X186636131Y-136521770D01*
X186624500Y-136580247D01*
X186624500Y-137119749D01*
X186628445Y-137139584D01*
X186622216Y-137209176D01*
X186579352Y-137264352D01*
X186541424Y-137282849D01*
X186523806Y-137287967D01*
X186523804Y-137287968D01*
X186384625Y-137370278D01*
X186384614Y-137370286D01*
X186369445Y-137385456D01*
X186308121Y-137418940D01*
X186238430Y-137413954D01*
X186182497Y-137372081D01*
X186159293Y-137317170D01*
X186134714Y-137161978D01*
X186134713Y-137161977D01*
X186074883Y-136977841D01*
X185986991Y-136805343D01*
X185964359Y-136774192D01*
X185964358Y-136774192D01*
X185434292Y-137304259D01*
X185419563Y-137249288D01*
X185351104Y-137130713D01*
X185254287Y-137033896D01*
X185135712Y-136965437D01*
X185080738Y-136950706D01*
X185610806Y-136420639D01*
X185610806Y-136420638D01*
X185579662Y-136398011D01*
X185407159Y-136310116D01*
X185357870Y-136294101D01*
X185300195Y-136254662D01*
X185272997Y-136190304D01*
X185284912Y-136121457D01*
X185332157Y-136069982D01*
X185399731Y-136052221D01*
X185430784Y-136057094D01*
X185499871Y-136077166D01*
X185499877Y-136077167D01*
X185535000Y-136079931D01*
X185535000Y-136079930D01*
X186035000Y-136079930D01*
X186070122Y-136077167D01*
X186070128Y-136077166D01*
X186224188Y-136032407D01*
X186224191Y-136032406D01*
X186362285Y-135950738D01*
X186362294Y-135950731D01*
X186475731Y-135837294D01*
X186475738Y-135837285D01*
X186557404Y-135699194D01*
X186597844Y-135560000D01*
X186035000Y-135560000D01*
X186035000Y-136079930D01*
X185535000Y-136079930D01*
X185535000Y-135434000D01*
X185554685Y-135366961D01*
X185607489Y-135321206D01*
X185659000Y-135310000D01*
X185785000Y-135310000D01*
X185785000Y-135184000D01*
X185804685Y-135116961D01*
X185857489Y-135071206D01*
X185909000Y-135060000D01*
X186611000Y-135060000D01*
X186678039Y-135079685D01*
X186723794Y-135132489D01*
X186735000Y-135184000D01*
X186735000Y-135295465D01*
X186777180Y-135299999D01*
X186777182Y-135300000D01*
X187400000Y-135300000D01*
X187900000Y-135300000D01*
X188522828Y-135300000D01*
X188522844Y-135299999D01*
X188582372Y-135293598D01*
X188582379Y-135293596D01*
X188717086Y-135243354D01*
X188717093Y-135243350D01*
X188832187Y-135157190D01*
X188832190Y-135157187D01*
X188918350Y-135042093D01*
X188918354Y-135042086D01*
X188968596Y-134907379D01*
X188968598Y-134907372D01*
X188974999Y-134847844D01*
X188975000Y-134847827D01*
X188975000Y-134800000D01*
X187900000Y-134800000D01*
X187900000Y-135300000D01*
X187400000Y-135300000D01*
X187400000Y-134300000D01*
X187900000Y-134300000D01*
X188975000Y-134300000D01*
X188975000Y-134252172D01*
X188974999Y-134252155D01*
X188968598Y-134192627D01*
X188968596Y-134192620D01*
X188918354Y-134057913D01*
X188918350Y-134057906D01*
X188832190Y-133942812D01*
X188832187Y-133942809D01*
X188717093Y-133856649D01*
X188717086Y-133856645D01*
X188582379Y-133806403D01*
X188582372Y-133806401D01*
X188522844Y-133800000D01*
X187900000Y-133800000D01*
X187900000Y-134300000D01*
X187400000Y-134300000D01*
X187400000Y-133800000D01*
X186777155Y-133800000D01*
X186717627Y-133806401D01*
X186717620Y-133806403D01*
X186582913Y-133856645D01*
X186582906Y-133856649D01*
X186467813Y-133942809D01*
X186451331Y-133964825D01*
X186395396Y-134006694D01*
X186325704Y-134011676D01*
X186264382Y-133978189D01*
X186250488Y-133961630D01*
X186249067Y-133959601D01*
X186249065Y-133959596D01*
X186165404Y-133875935D01*
X186058173Y-133825932D01*
X186058171Y-133825931D01*
X186058172Y-133825931D01*
X186009317Y-133819500D01*
X186009316Y-133819500D01*
X185733920Y-133819500D01*
X185666881Y-133799815D01*
X185621126Y-133747011D01*
X185610302Y-133685770D01*
X185610806Y-133679358D01*
X185080739Y-133149292D01*
X185135712Y-133134563D01*
X185254287Y-133066104D01*
X185351104Y-132969287D01*
X185419563Y-132850712D01*
X185434292Y-132795740D01*
X185964359Y-133325807D01*
X185964360Y-133325806D01*
X185986985Y-133294665D01*
X185986993Y-133294652D01*
X186074883Y-133122158D01*
X186134713Y-132938022D01*
X186165000Y-132746802D01*
X186165000Y-132553197D01*
X186134713Y-132361977D01*
X186074883Y-132177841D01*
X185986991Y-132005343D01*
X185964359Y-131974192D01*
X185434292Y-132504259D01*
X185419563Y-132449288D01*
X185351104Y-132330713D01*
X185254287Y-132233896D01*
X185135712Y-132165437D01*
X185080738Y-132150706D01*
X185610806Y-131620639D01*
X185610806Y-131620638D01*
X185579662Y-131598011D01*
X185407158Y-131510116D01*
X185223022Y-131450286D01*
X185031802Y-131420000D01*
X184838198Y-131420000D01*
X184646977Y-131450286D01*
X184462841Y-131510116D01*
X184290342Y-131598008D01*
X184246343Y-131629974D01*
X184180536Y-131653451D01*
X184160208Y-131652943D01*
X184132833Y-131650000D01*
X183800000Y-131650000D01*
X183800000Y-133014134D01*
X183781019Y-133078774D01*
X183795112Y-133122150D01*
X183795115Y-133122156D01*
X183870040Y-133269205D01*
X183882936Y-133337874D01*
X183856660Y-133402615D01*
X183799553Y-133442872D01*
X183759555Y-133449500D01*
X183195247Y-133449500D01*
X183136771Y-133461131D01*
X183127291Y-133465059D01*
X183079834Y-133474500D01*
X182490166Y-133474500D01*
X182442709Y-133465059D01*
X182433228Y-133461131D01*
X182374752Y-133449500D01*
X182374748Y-133449500D01*
X181952575Y-133449500D01*
X181951699Y-133449497D01*
X181940272Y-133449416D01*
X181936853Y-133448500D01*
X181810503Y-133448500D01*
X181810078Y-133448497D01*
X181777016Y-133438534D01*
X181743915Y-133428815D01*
X181743616Y-133428470D01*
X181743180Y-133428339D01*
X181720735Y-133402064D01*
X181698160Y-133376011D01*
X181698095Y-133375560D01*
X181697799Y-133375214D01*
X181693129Y-133341024D01*
X181688216Y-133306853D01*
X181688388Y-133306310D01*
X181688344Y-133305987D01*
X181688804Y-133304998D01*
X181700469Y-133268205D01*
X181774885Y-133122156D01*
X181774887Y-133122150D01*
X181789819Y-133076194D01*
X181770202Y-133021213D01*
X181770000Y-133014134D01*
X181770000Y-132950000D01*
X182070000Y-132950000D01*
X182402828Y-132950000D01*
X182402844Y-132949999D01*
X182462372Y-132943598D01*
X182462379Y-132943596D01*
X182597086Y-132893354D01*
X182597089Y-132893352D01*
X182710688Y-132808312D01*
X182776153Y-132783894D01*
X182844426Y-132798745D01*
X182859312Y-132808312D01*
X182972910Y-132893352D01*
X182972913Y-132893354D01*
X183107620Y-132943596D01*
X183107627Y-132943598D01*
X183167155Y-132949999D01*
X183167172Y-132950000D01*
X183500000Y-132950000D01*
X183500000Y-132450000D01*
X182070000Y-132450000D01*
X182070000Y-132950000D01*
X181770000Y-132950000D01*
X181770000Y-131650000D01*
X181437164Y-131650000D01*
X181409789Y-131652943D01*
X181341030Y-131640536D01*
X181323652Y-131629971D01*
X181279664Y-131598012D01*
X181107158Y-131510116D01*
X180923022Y-131450286D01*
X180731802Y-131420000D01*
X180538198Y-131420000D01*
X180346977Y-131450286D01*
X180162841Y-131510116D01*
X179990337Y-131598011D01*
X179959192Y-131620639D01*
X179959191Y-131620639D01*
X180489260Y-132150707D01*
X180434288Y-132165437D01*
X180315713Y-132233896D01*
X180218896Y-132330713D01*
X180150437Y-132449288D01*
X180135707Y-132504260D01*
X179756819Y-132125372D01*
X179723334Y-132064049D01*
X179720500Y-132037691D01*
X179720500Y-131869477D01*
X179720500Y-131869472D01*
X179710645Y-131801830D01*
X179659636Y-131697489D01*
X179659634Y-131697487D01*
X179659634Y-131697486D01*
X179577511Y-131615363D01*
X179561744Y-131607655D01*
X179510163Y-131560526D01*
X179492250Y-131492992D01*
X179513692Y-131426494D01*
X179528522Y-131408579D01*
X179560489Y-131376613D01*
X179619799Y-131273886D01*
X179650500Y-131159309D01*
X179650500Y-131040691D01*
X179619799Y-130926114D01*
X179560489Y-130823387D01*
X179476613Y-130739511D01*
X179373886Y-130680201D01*
X179259309Y-130649500D01*
X179140691Y-130649500D01*
X179026114Y-130680201D01*
X179026112Y-130680201D01*
X179026112Y-130680202D01*
X178923387Y-130739511D01*
X178923384Y-130739513D01*
X178839513Y-130823384D01*
X178839511Y-130823387D01*
X178780201Y-130926114D01*
X178749500Y-131040691D01*
X178749500Y-131159309D01*
X178780201Y-131273886D01*
X178839511Y-131376613D01*
X178839513Y-131376615D01*
X178871473Y-131408575D01*
X178904958Y-131469898D01*
X178899974Y-131539590D01*
X178861866Y-131592591D01*
X178850911Y-131601469D01*
X178822489Y-131615364D01*
X178774272Y-131663580D01*
X178769234Y-131667664D01*
X178742726Y-131678730D01*
X178717517Y-131692495D01*
X178710889Y-131692020D01*
X178704757Y-131694581D01*
X178676472Y-131689559D01*
X178647825Y-131687510D01*
X178641295Y-131683313D01*
X178635964Y-131682367D01*
X178627206Y-131674259D01*
X178603479Y-131659010D01*
X178580404Y-131635935D01*
X178547602Y-131620639D01*
X178473173Y-131585932D01*
X178473171Y-131585931D01*
X178473172Y-131585931D01*
X178424317Y-131579500D01*
X178424316Y-131579500D01*
X177975684Y-131579500D01*
X177975683Y-131579500D01*
X177926828Y-131585931D01*
X177819595Y-131635935D01*
X177735935Y-131719595D01*
X177685931Y-131826828D01*
X177679500Y-131875683D01*
X177679500Y-132224316D01*
X177685931Y-132273173D01*
X177688505Y-132282003D01*
X177688363Y-132351873D01*
X177656634Y-132404878D01*
X177486677Y-132572898D01*
X177469457Y-132582172D01*
X177455161Y-132595521D01*
X177439329Y-132598400D01*
X177425163Y-132606031D01*
X177405661Y-132604524D01*
X177386419Y-132608024D01*
X177371545Y-132601887D01*
X177355501Y-132600648D01*
X177339909Y-132588835D01*
X177321830Y-132581377D01*
X177312634Y-132568172D01*
X177299809Y-132558456D01*
X177293079Y-132540092D01*
X177281901Y-132524041D01*
X177277669Y-132498044D01*
X177275767Y-132492853D01*
X177276378Y-132490115D01*
X177275500Y-132484716D01*
X177275500Y-131843023D01*
X177295185Y-131775984D01*
X177311819Y-131755342D01*
X179355343Y-129711819D01*
X179416666Y-129678334D01*
X179443024Y-129675500D01*
X179854799Y-129675500D01*
X179854800Y-129675500D01*
X179956058Y-129633557D01*
X180033557Y-129556058D01*
X180033556Y-129556058D01*
X180092116Y-129497498D01*
X180164614Y-129425000D01*
X180703374Y-129425000D01*
X180714478Y-129509340D01*
X180714478Y-129509342D01*
X180771156Y-129646175D01*
X180861320Y-129763679D01*
X180978824Y-129853843D01*
X181115658Y-129910521D01*
X181225622Y-129924999D01*
X181225637Y-129925000D01*
X181255000Y-129925000D01*
X181255000Y-129425000D01*
X180703374Y-129425000D01*
X180164614Y-129425000D01*
X180426798Y-129162817D01*
X180453730Y-129148111D01*
X180479543Y-129131523D01*
X180485743Y-129130631D01*
X180488120Y-129129334D01*
X180514478Y-129126500D01*
X180604657Y-129126500D01*
X180671696Y-129146185D01*
G37*
%TD.AperFunction*%
%TA.AperFunction,Conductor*%
G36*
X180796652Y-145380471D02*
G01*
X180837180Y-145437385D01*
X180844000Y-145477941D01*
X180844000Y-145529084D01*
X180843500Y-145539262D01*
X180843500Y-145786000D01*
X180840949Y-145794685D01*
X180842238Y-145803647D01*
X180831259Y-145827687D01*
X180823815Y-145853039D01*
X180816974Y-145858966D01*
X180813213Y-145867203D01*
X180790978Y-145881492D01*
X180771011Y-145898794D01*
X180760496Y-145901081D01*
X180754435Y-145904977D01*
X180719500Y-145910000D01*
X180668500Y-145910000D01*
X180601461Y-145890315D01*
X180555706Y-145837511D01*
X180544500Y-145786000D01*
X180544500Y-145567141D01*
X180561113Y-145505141D01*
X180612613Y-145415941D01*
X180663180Y-145367725D01*
X180731787Y-145354503D01*
X180796652Y-145380471D01*
G37*
%TD.AperFunction*%
%TA.AperFunction,Conductor*%
G36*
X185086011Y-141077871D02*
G01*
X185112370Y-141079757D01*
X185121423Y-141085575D01*
X185128464Y-141087107D01*
X185156718Y-141108258D01*
X185231684Y-141183224D01*
X185340513Y-141233972D01*
X185390099Y-141240500D01*
X185699521Y-141240499D01*
X185766560Y-141260183D01*
X185787202Y-141276818D01*
X186186460Y-141676076D01*
X186219945Y-141737399D01*
X186214961Y-141807091D01*
X186186460Y-141851438D01*
X186114513Y-141923384D01*
X186114511Y-141923387D01*
X186055201Y-142026114D01*
X186024500Y-142140691D01*
X186024500Y-142259309D01*
X186055201Y-142373886D01*
X186114511Y-142476613D01*
X186198387Y-142560489D01*
X186301114Y-142619799D01*
X186415691Y-142650500D01*
X186415694Y-142650500D01*
X186445669Y-142650500D01*
X186459575Y-142654583D01*
X186474047Y-142653791D01*
X186492428Y-142664230D01*
X186512708Y-142670185D01*
X186522197Y-142681136D01*
X186534802Y-142688295D01*
X186544622Y-142707016D01*
X186558463Y-142722989D01*
X186560525Y-142737332D01*
X186567259Y-142750169D01*
X186565398Y-142771226D01*
X186568407Y-142792147D01*
X186562273Y-142806612D01*
X186561111Y-142819768D01*
X186548570Y-142838927D01*
X186543681Y-142850458D01*
X186538886Y-142856644D01*
X186475935Y-142919596D01*
X186454535Y-142965486D01*
X186446033Y-142976458D01*
X186428516Y-142989119D01*
X186414231Y-143005344D01*
X186400625Y-143009280D01*
X186389408Y-143017389D01*
X186368675Y-143018524D01*
X186348021Y-143024500D01*
X186247066Y-143024500D01*
X186180027Y-143004815D01*
X186134272Y-142952011D01*
X186125449Y-142924691D01*
X186124868Y-142921770D01*
X186124867Y-142921769D01*
X186080552Y-142855447D01*
X186014230Y-142811132D01*
X186014229Y-142811131D01*
X185955752Y-142799500D01*
X185955748Y-142799500D01*
X184759721Y-142799500D01*
X184692682Y-142779815D01*
X184646927Y-142727011D01*
X184636983Y-142657853D01*
X184645160Y-142628047D01*
X184675499Y-142554802D01*
X184675500Y-142554800D01*
X184675500Y-141465477D01*
X184695185Y-141398438D01*
X184711819Y-141377796D01*
X184844415Y-141245200D01*
X184981359Y-141108255D01*
X184989301Y-141103919D01*
X184994727Y-141096672D01*
X185019486Y-141087437D01*
X185042679Y-141074773D01*
X185051708Y-141075418D01*
X185060191Y-141072255D01*
X185086011Y-141077871D01*
G37*
%TD.AperFunction*%
%TA.AperFunction,Conductor*%
G36*
X181459723Y-141227254D02*
G01*
X181515658Y-141269123D01*
X181540077Y-141334587D01*
X181538011Y-141367626D01*
X181535500Y-141380250D01*
X181535500Y-142498008D01*
X181515815Y-142565047D01*
X181463011Y-142610802D01*
X181395322Y-142620948D01*
X181384318Y-142619500D01*
X181384316Y-142619500D01*
X180935684Y-142619500D01*
X180935683Y-142619500D01*
X180886828Y-142625931D01*
X180779595Y-142675935D01*
X180695935Y-142759595D01*
X180686366Y-142780116D01*
X180675183Y-142792815D01*
X180668264Y-142808252D01*
X180652575Y-142818490D01*
X180640192Y-142832554D01*
X180623920Y-142837191D01*
X180609752Y-142846438D01*
X180591015Y-142846569D01*
X180572998Y-142851704D01*
X180556365Y-142846811D01*
X180539884Y-142846927D01*
X180510531Y-142833329D01*
X180507678Y-142832490D01*
X180504625Y-142830558D01*
X180504552Y-142830448D01*
X180438231Y-142786133D01*
X180432676Y-142785028D01*
X180418193Y-142775863D01*
X180401881Y-142757303D01*
X180382641Y-142741797D01*
X180379220Y-142731518D01*
X180372069Y-142723381D01*
X180368381Y-142698947D01*
X180360579Y-142675502D01*
X180360500Y-142671081D01*
X180360500Y-142532496D01*
X180380185Y-142465457D01*
X180432097Y-142420113D01*
X180468316Y-142403224D01*
X180553224Y-142318316D01*
X180603972Y-142209487D01*
X180610500Y-142159901D01*
X180610499Y-141800100D01*
X180609230Y-141790463D01*
X180619994Y-141721433D01*
X180660350Y-141675962D01*
X180659215Y-141674499D01*
X180665383Y-141669714D01*
X180779714Y-141555383D01*
X180779721Y-141555374D01*
X180862031Y-141416195D01*
X180863859Y-141409905D01*
X180901466Y-141351020D01*
X180964938Y-141321813D01*
X180982936Y-141320500D01*
X181164317Y-141320500D01*
X181180601Y-141318356D01*
X181213173Y-141314068D01*
X181320404Y-141264065D01*
X181328711Y-141255757D01*
X181390031Y-141222272D01*
X181459723Y-141227254D01*
G37*
%TD.AperFunction*%
%TA.AperFunction,Conductor*%
G36*
X178522826Y-140170185D02*
G01*
X178568581Y-140222989D01*
X178578525Y-140292147D01*
X178549500Y-140355703D01*
X178540038Y-140364664D01*
X178540138Y-140364764D01*
X178420285Y-140484616D01*
X178420278Y-140484625D01*
X178337968Y-140623804D01*
X178295496Y-140770000D01*
X179850000Y-140770000D01*
X179863181Y-140756819D01*
X179924504Y-140723334D01*
X179950862Y-140720500D01*
X180226000Y-140720500D01*
X180234685Y-140723050D01*
X180243647Y-140721762D01*
X180267687Y-140732740D01*
X180293039Y-140740185D01*
X180298966Y-140747025D01*
X180307203Y-140750787D01*
X180321492Y-140773021D01*
X180338794Y-140792989D01*
X180341081Y-140803503D01*
X180344977Y-140809565D01*
X180350000Y-140844500D01*
X180350000Y-140896000D01*
X180330315Y-140963039D01*
X180277511Y-141008794D01*
X180226000Y-141020000D01*
X180100000Y-141020000D01*
X180100000Y-141146000D01*
X180080315Y-141213039D01*
X180027511Y-141258794D01*
X179976000Y-141270000D01*
X178295496Y-141270000D01*
X178339337Y-141420906D01*
X178339137Y-141490775D01*
X178301194Y-141549445D01*
X178237556Y-141578288D01*
X178220260Y-141579500D01*
X177884500Y-141579500D01*
X177817461Y-141559815D01*
X177771706Y-141507011D01*
X177760500Y-141455500D01*
X177760500Y-141430249D01*
X177760499Y-141430247D01*
X177748868Y-141371770D01*
X177748867Y-141371769D01*
X177704552Y-141305447D01*
X177638230Y-141261132D01*
X177626946Y-141256458D01*
X177627534Y-141255037D01*
X177577860Y-141229048D01*
X177543290Y-141168330D01*
X177544192Y-141107732D01*
X177575500Y-140990892D01*
X177575500Y-140859108D01*
X177541392Y-140731814D01*
X177535588Y-140721762D01*
X177530135Y-140712317D01*
X177475500Y-140617686D01*
X177382314Y-140524500D01*
X177288636Y-140470415D01*
X177261615Y-140454814D01*
X177244362Y-140436719D01*
X177224347Y-140421737D01*
X177220666Y-140411868D01*
X177213399Y-140404247D01*
X177208667Y-140379697D01*
X177199931Y-140356272D01*
X177202169Y-140345980D01*
X177200177Y-140335640D01*
X177209467Y-140312433D01*
X177214783Y-140287999D01*
X177224384Y-140275173D01*
X177226145Y-140270775D01*
X177235918Y-140259762D01*
X177308864Y-140186816D01*
X177370186Y-140153334D01*
X177396543Y-140150500D01*
X178455787Y-140150500D01*
X178522826Y-140170185D01*
G37*
%TD.AperFunction*%
%TA.AperFunction,Conductor*%
G36*
X183108773Y-136620185D02*
G01*
X183110595Y-136621377D01*
X183136769Y-136638867D01*
X183136771Y-136638867D01*
X183136772Y-136638868D01*
X183136770Y-136638868D01*
X183195247Y-136650499D01*
X183195250Y-136650500D01*
X183759555Y-136650500D01*
X183826594Y-136670185D01*
X183872349Y-136722989D01*
X183882293Y-136792147D01*
X183870040Y-136830795D01*
X183795115Y-136977843D01*
X183795112Y-136977849D01*
X183780180Y-137023806D01*
X183799798Y-137078784D01*
X183800000Y-137085865D01*
X183800000Y-138450000D01*
X184132828Y-138450000D01*
X184132841Y-138449999D01*
X184160205Y-138447057D01*
X184228965Y-138459461D01*
X184246347Y-138470028D01*
X184290336Y-138501987D01*
X184462841Y-138589883D01*
X184646977Y-138649713D01*
X184838198Y-138680000D01*
X185031802Y-138680000D01*
X185223022Y-138649713D01*
X185407158Y-138589883D01*
X185579652Y-138501993D01*
X185579665Y-138501985D01*
X185610806Y-138479360D01*
X185610807Y-138479359D01*
X185080739Y-137949292D01*
X185135712Y-137934563D01*
X185254287Y-137866104D01*
X185351104Y-137769287D01*
X185419563Y-137650712D01*
X185434292Y-137595740D01*
X185964358Y-138125806D01*
X186006271Y-138122508D01*
X186074648Y-138136872D01*
X186124405Y-138185923D01*
X186140000Y-138246123D01*
X186140000Y-138284624D01*
X186140001Y-138284647D01*
X186142854Y-138320910D01*
X186187969Y-138476196D01*
X186270278Y-138615374D01*
X186270285Y-138615383D01*
X186273516Y-138618614D01*
X186307001Y-138679937D01*
X186302017Y-138749629D01*
X186260145Y-138805562D01*
X186253782Y-138809187D01*
X186254097Y-138809658D01*
X186243940Y-138816444D01*
X186079942Y-138980443D01*
X186079939Y-138980446D01*
X186051872Y-139008511D01*
X185990548Y-139041994D01*
X185929602Y-139039904D01*
X185870920Y-139022856D01*
X185870908Y-139022854D01*
X185850000Y-139021209D01*
X185850000Y-139550000D01*
X185855611Y-139555611D01*
X185903539Y-139569685D01*
X185949294Y-139622489D01*
X185960500Y-139674000D01*
X185960500Y-139926000D01*
X185940815Y-139993039D01*
X185888011Y-140038794D01*
X185836500Y-140050000D01*
X184795496Y-140050000D01*
X184837968Y-140196195D01*
X184911475Y-140320488D01*
X184915838Y-140337684D01*
X184924890Y-140352940D01*
X184924251Y-140370842D01*
X184928658Y-140388212D01*
X184923030Y-140405038D01*
X184922398Y-140422765D01*
X184912180Y-140437481D01*
X184906498Y-140454474D01*
X184892642Y-140465623D01*
X184882552Y-140480158D01*
X184852199Y-140498169D01*
X184830217Y-140507275D01*
X184818810Y-140512000D01*
X184818803Y-140512003D01*
X184803364Y-140518397D01*
X184733894Y-140525862D01*
X184671417Y-140494583D01*
X184636841Y-140438427D01*
X184616468Y-140368302D01*
X184533193Y-140227491D01*
X184533187Y-140227483D01*
X184417516Y-140111812D01*
X184417508Y-140111806D01*
X184276695Y-140028530D01*
X184276692Y-140028528D01*
X184120001Y-139983005D01*
X184120000Y-139983006D01*
X184120000Y-140676000D01*
X184100315Y-140743039D01*
X184047511Y-140788794D01*
X183996000Y-140800000D01*
X183744000Y-140800000D01*
X183676961Y-140780315D01*
X183631206Y-140727511D01*
X183620000Y-140676000D01*
X183620000Y-139983006D01*
X183619998Y-139983005D01*
X183463307Y-140028528D01*
X183463304Y-140028530D01*
X183322491Y-140111806D01*
X183322483Y-140111812D01*
X183206807Y-140227488D01*
X183202048Y-140233624D01*
X183145405Y-140274529D01*
X183086198Y-140280326D01*
X183084153Y-140280028D01*
X183080528Y-140279500D01*
X182719472Y-140279500D01*
X182675325Y-140285932D01*
X182651828Y-140289355D01*
X182547485Y-140340365D01*
X182533839Y-140354012D01*
X182472515Y-140387496D01*
X182402824Y-140382510D01*
X182358479Y-140354010D01*
X182340404Y-140335935D01*
X182290004Y-140312433D01*
X182233173Y-140285932D01*
X182233171Y-140285931D01*
X182233172Y-140285931D01*
X182184317Y-140279500D01*
X182184316Y-140279500D01*
X181835684Y-140279500D01*
X181835683Y-140279500D01*
X181786828Y-140285931D01*
X181679595Y-140335935D01*
X181588264Y-140427267D01*
X181585440Y-140424443D01*
X181546958Y-140455183D01*
X181477458Y-140462352D01*
X181415114Y-140430808D01*
X181411901Y-140427101D01*
X181411736Y-140427267D01*
X181320404Y-140335935D01*
X181270004Y-140312433D01*
X181213173Y-140285932D01*
X181213171Y-140285931D01*
X181213172Y-140285931D01*
X181164317Y-140279500D01*
X181164316Y-140279500D01*
X180945833Y-140279500D01*
X180916392Y-140270855D01*
X180886406Y-140264332D01*
X180881390Y-140260577D01*
X180878794Y-140259815D01*
X180858152Y-140243181D01*
X180823952Y-140208981D01*
X180790467Y-140147658D01*
X180792558Y-140086701D01*
X180797144Y-140070915D01*
X180797145Y-140070912D01*
X180798790Y-140050000D01*
X180270000Y-140050000D01*
X180236819Y-140083181D01*
X180175496Y-140116666D01*
X180149138Y-140119500D01*
X179894000Y-140119500D01*
X179826961Y-140099815D01*
X179781206Y-140047011D01*
X179770000Y-139995500D01*
X179770000Y-139550000D01*
X180270000Y-139550000D01*
X180798790Y-139550000D01*
X184795496Y-139550000D01*
X185350000Y-139550000D01*
X185350000Y-139021210D01*
X185349999Y-139021209D01*
X185329087Y-139022854D01*
X185329081Y-139022855D01*
X185173809Y-139067966D01*
X185173804Y-139067968D01*
X185034625Y-139150278D01*
X185034616Y-139150285D01*
X184920285Y-139264616D01*
X184920278Y-139264625D01*
X184837968Y-139403804D01*
X184795496Y-139550000D01*
X180798790Y-139550000D01*
X180797145Y-139529089D01*
X180752031Y-139373804D01*
X180665748Y-139227907D01*
X180668193Y-139226460D01*
X180647579Y-139173974D01*
X180656531Y-139115544D01*
X180700521Y-139009342D01*
X180700521Y-139009340D01*
X180711626Y-138925000D01*
X180270000Y-138925000D01*
X180270000Y-139550000D01*
X179770000Y-139550000D01*
X179770000Y-138984000D01*
X179789685Y-138916961D01*
X179841154Y-138871825D01*
X179968516Y-138811825D01*
X179982543Y-138809637D01*
X179995004Y-138802834D01*
X180021362Y-138800000D01*
X180035000Y-138800000D01*
X180035000Y-138799000D01*
X180054685Y-138731961D01*
X180107489Y-138686206D01*
X180159000Y-138675000D01*
X180763370Y-138675000D01*
X180923022Y-138649713D01*
X181107158Y-138589883D01*
X181279652Y-138501993D01*
X181279658Y-138501989D01*
X181323650Y-138470028D01*
X181389456Y-138446548D01*
X181409792Y-138447057D01*
X181437155Y-138449999D01*
X181437172Y-138450000D01*
X181770000Y-138450000D01*
X182070000Y-138450000D01*
X182188674Y-138450000D01*
X182255713Y-138469685D01*
X182301468Y-138522489D01*
X182311412Y-138591647D01*
X182308450Y-138606088D01*
X182274500Y-138732791D01*
X182274500Y-138867209D01*
X182298398Y-138956398D01*
X182309290Y-138997047D01*
X182309291Y-138997048D01*
X182376495Y-139113450D01*
X182376497Y-139113453D01*
X182376498Y-139113454D01*
X182471546Y-139208502D01*
X182471547Y-139208503D01*
X182471549Y-139208504D01*
X182522952Y-139238181D01*
X182587954Y-139275710D01*
X182717791Y-139310500D01*
X182717794Y-139310500D01*
X182852206Y-139310500D01*
X182852209Y-139310500D01*
X182982046Y-139275710D01*
X183098454Y-139208502D01*
X183193502Y-139113454D01*
X183260710Y-138997046D01*
X183295500Y-138867209D01*
X183295500Y-138732791D01*
X183261551Y-138606092D01*
X183263214Y-138536244D01*
X183302376Y-138478381D01*
X183366605Y-138450877D01*
X183381326Y-138450000D01*
X183500000Y-138450000D01*
X183500000Y-137950000D01*
X182070000Y-137950000D01*
X182070000Y-138450000D01*
X181770000Y-138450000D01*
X181770000Y-137650000D01*
X182070000Y-137650000D01*
X183500000Y-137650000D01*
X183500000Y-137150000D01*
X183167155Y-137150000D01*
X183107627Y-137156401D01*
X183107620Y-137156403D01*
X182972913Y-137206645D01*
X182972911Y-137206647D01*
X182859311Y-137291688D01*
X182793847Y-137316105D01*
X182725574Y-137301254D01*
X182710689Y-137291688D01*
X182597088Y-137206647D01*
X182597086Y-137206645D01*
X182462379Y-137156403D01*
X182462372Y-137156401D01*
X182402844Y-137150000D01*
X182070000Y-137150000D01*
X182070000Y-137650000D01*
X181770000Y-137650000D01*
X181770000Y-137085865D01*
X181771317Y-137081377D01*
X181771262Y-137080991D01*
X181771735Y-137079953D01*
X181788980Y-137021224D01*
X181774887Y-136977849D01*
X181774884Y-136977843D01*
X181699960Y-136830795D01*
X181687064Y-136762126D01*
X181713340Y-136697385D01*
X181770447Y-136657128D01*
X181810445Y-136650500D01*
X182374750Y-136650500D01*
X182374751Y-136650499D01*
X182394418Y-136646587D01*
X182433228Y-136638868D01*
X182433228Y-136638867D01*
X182433231Y-136638867D01*
X182459375Y-136621397D01*
X182526052Y-136600520D01*
X182528266Y-136600500D01*
X183041734Y-136600500D01*
X183108773Y-136620185D01*
G37*
%TD.AperFunction*%
%TA.AperFunction,Conductor*%
G36*
X178623834Y-137136494D02*
G01*
X178679767Y-137178366D01*
X178704184Y-137243830D01*
X178704500Y-137252676D01*
X178704500Y-139312598D01*
X178695855Y-139342038D01*
X178689332Y-139372025D01*
X178685577Y-139377040D01*
X178684815Y-139379637D01*
X178668181Y-139400279D01*
X178655279Y-139413181D01*
X178593956Y-139446666D01*
X178567598Y-139449500D01*
X178248832Y-139449500D01*
X178181793Y-139429815D01*
X178136038Y-139377011D01*
X178125893Y-139309317D01*
X178130500Y-139274319D01*
X178130500Y-138825694D01*
X178130500Y-138825684D01*
X178130498Y-138825674D01*
X178130417Y-138824430D01*
X178130500Y-138824058D01*
X178130500Y-138821625D01*
X178131044Y-138821625D01*
X178145669Y-138756245D01*
X178166470Y-138728626D01*
X178279717Y-138615379D01*
X178279721Y-138615374D01*
X178362031Y-138476195D01*
X178362033Y-138476190D01*
X178407144Y-138320918D01*
X178407145Y-138320912D01*
X178408790Y-138300000D01*
X177754000Y-138300000D01*
X177686961Y-138280315D01*
X177641206Y-138227511D01*
X177630000Y-138176000D01*
X177630000Y-137924000D01*
X177649685Y-137856961D01*
X177702489Y-137811206D01*
X177754000Y-137800000D01*
X178408790Y-137800000D01*
X178407145Y-137779089D01*
X178362031Y-137623804D01*
X178279721Y-137484625D01*
X178279714Y-137484616D01*
X178272887Y-137477789D01*
X178239402Y-137416466D01*
X178244386Y-137346774D01*
X178286258Y-137290841D01*
X178328475Y-137270333D01*
X178343186Y-137266392D01*
X178457314Y-137200500D01*
X178492819Y-137164995D01*
X178554142Y-137131510D01*
X178623834Y-137136494D01*
G37*
%TD.AperFunction*%
%TA.AperFunction,Conductor*%
G36*
X177345160Y-132796692D02*
G01*
X177376342Y-132820000D01*
X178076000Y-132820000D01*
X178143039Y-132839685D01*
X178188794Y-132892489D01*
X178200000Y-132944000D01*
X178200000Y-133070000D01*
X178326000Y-133070000D01*
X178393039Y-133089685D01*
X178438794Y-133142489D01*
X178450000Y-133194000D01*
X178450000Y-133839930D01*
X178485122Y-133837167D01*
X178485128Y-133837166D01*
X178610207Y-133800827D01*
X178680076Y-133801026D01*
X178738746Y-133838968D01*
X178767590Y-133902606D01*
X178757844Y-133970868D01*
X178748844Y-133990828D01*
X178739535Y-134000138D01*
X178696682Y-134074361D01*
X178678038Y-134143942D01*
X178674500Y-134157147D01*
X178674500Y-136107147D01*
X178674500Y-136192853D01*
X178696682Y-136275639D01*
X178696684Y-136275644D01*
X178697886Y-136278544D01*
X178698294Y-136281653D01*
X178698786Y-136283489D01*
X178698543Y-136283553D01*
X178699977Y-136294472D01*
X178705855Y-136306970D01*
X178704621Y-136329852D01*
X178706251Y-136342262D01*
X178705189Y-136350282D01*
X178704500Y-136352856D01*
X178704500Y-136355492D01*
X178703428Y-136363593D01*
X178692448Y-136388366D01*
X178684815Y-136414363D01*
X178678502Y-136419832D01*
X178675118Y-136427470D01*
X178652485Y-136442377D01*
X178632011Y-136460118D01*
X178623745Y-136461306D01*
X178616768Y-136465902D01*
X178589669Y-136466206D01*
X178562853Y-136470062D01*
X178555255Y-136466592D01*
X178546902Y-136466686D01*
X178523943Y-136452292D01*
X178499297Y-136441037D01*
X178492819Y-136435005D01*
X178457316Y-136399502D01*
X178457314Y-136399500D01*
X178400250Y-136366554D01*
X178343187Y-136333608D01*
X178279539Y-136316554D01*
X178215892Y-136299500D01*
X178084108Y-136299500D01*
X177956814Y-136333608D01*
X177956813Y-136333608D01*
X177956811Y-136333609D01*
X177956810Y-136333609D01*
X177858007Y-136390653D01*
X177790106Y-136407126D01*
X177771817Y-136404884D01*
X177744748Y-136399500D01*
X176055252Y-136399500D01*
X176055247Y-136399500D01*
X175996770Y-136411131D01*
X175996770Y-136411132D01*
X175974390Y-136426086D01*
X175907713Y-136446963D01*
X175840333Y-136428478D01*
X175793643Y-136376499D01*
X175781500Y-136322983D01*
X175781500Y-135402771D01*
X175801185Y-135335732D01*
X175853989Y-135289977D01*
X175923147Y-135280033D01*
X175948835Y-135286590D01*
X175967619Y-135293596D01*
X175967627Y-135293598D01*
X176027155Y-135299999D01*
X176027172Y-135300000D01*
X176650000Y-135300000D01*
X177150000Y-135300000D01*
X177772828Y-135300000D01*
X177772844Y-135299999D01*
X177832372Y-135293598D01*
X177832379Y-135293596D01*
X177967086Y-135243354D01*
X177967093Y-135243350D01*
X178082187Y-135157190D01*
X178082190Y-135157187D01*
X178168350Y-135042093D01*
X178168354Y-135042086D01*
X178218596Y-134907379D01*
X178218598Y-134907372D01*
X178224999Y-134847844D01*
X178225000Y-134847827D01*
X178225000Y-134800000D01*
X177150000Y-134800000D01*
X177150000Y-135300000D01*
X176650000Y-135300000D01*
X176650000Y-133840132D01*
X176519996Y-133800000D01*
X177150000Y-133800000D01*
X177150000Y-134300000D01*
X178225000Y-134300000D01*
X178225000Y-134252172D01*
X178224999Y-134252155D01*
X178218598Y-134192627D01*
X178218596Y-134192620D01*
X178168354Y-134057913D01*
X178168352Y-134057911D01*
X178102543Y-133970000D01*
X178074000Y-133970000D01*
X178006961Y-133950315D01*
X177961206Y-133897511D01*
X177950000Y-133846000D01*
X177950000Y-133320000D01*
X177387156Y-133320000D01*
X177427595Y-133459194D01*
X177509264Y-133597290D01*
X177511367Y-133600001D01*
X177512353Y-133602513D01*
X177513235Y-133604004D01*
X177512994Y-133604146D01*
X177536901Y-133665037D01*
X177523221Y-133733554D01*
X177474669Y-133783799D01*
X177413387Y-133800000D01*
X177150000Y-133800000D01*
X176519996Y-133800000D01*
X176502124Y-133794483D01*
X176487959Y-133785100D01*
X176471661Y-133780315D01*
X176459438Y-133766209D01*
X176443874Y-133755900D01*
X176437030Y-133740348D01*
X176425906Y-133727511D01*
X176423249Y-133709035D01*
X176415730Y-133691949D01*
X176418379Y-133675168D01*
X176415962Y-133658353D01*
X176423716Y-133641373D01*
X176426628Y-133622934D01*
X176437930Y-133610249D01*
X176444987Y-133594797D01*
X176451019Y-133588319D01*
X176637274Y-133402064D01*
X177214147Y-132825191D01*
X177275468Y-132791708D01*
X177345160Y-132796692D01*
G37*
%TD.AperFunction*%
%TA.AperFunction,Conductor*%
G36*
X190505203Y-127288043D02*
G01*
X190511681Y-127294075D01*
X190588181Y-127370575D01*
X190621666Y-127431898D01*
X190624500Y-127458256D01*
X190624500Y-130444802D01*
X190654154Y-130516391D01*
X190666442Y-130546056D01*
X190666444Y-130546059D01*
X191621547Y-131501163D01*
X191655032Y-131562486D01*
X191650048Y-131632178D01*
X191648428Y-131636296D01*
X191639020Y-131659010D01*
X191597949Y-131758165D01*
X191597948Y-131758168D01*
X191597948Y-131758169D01*
X191597947Y-131758170D01*
X191559500Y-131951456D01*
X191559500Y-131951459D01*
X191559500Y-132148541D01*
X191559500Y-132148543D01*
X191559499Y-132148543D01*
X191597947Y-132341829D01*
X191597950Y-132341839D01*
X191673364Y-132523907D01*
X191673371Y-132523920D01*
X191782860Y-132687781D01*
X191782863Y-132687785D01*
X191922214Y-132827136D01*
X191922218Y-132827139D01*
X192086079Y-132936628D01*
X192086092Y-132936635D01*
X192268160Y-133012049D01*
X192268165Y-133012051D01*
X192459691Y-133050148D01*
X192521602Y-133082533D01*
X192556176Y-133143248D01*
X192559500Y-133171765D01*
X192559500Y-133468234D01*
X192539815Y-133535273D01*
X192487011Y-133581028D01*
X192459692Y-133589851D01*
X192268170Y-133627947D01*
X192268160Y-133627950D01*
X192086092Y-133703364D01*
X192086079Y-133703371D01*
X191922218Y-133812860D01*
X191922214Y-133812863D01*
X191887181Y-133847897D01*
X191825858Y-133881382D01*
X191756166Y-133876398D01*
X191700233Y-133834526D01*
X191675816Y-133769062D01*
X191675500Y-133760216D01*
X191675500Y-133350507D01*
X191675499Y-133350503D01*
X191640483Y-133265968D01*
X191640482Y-133265966D01*
X191633557Y-133249247D01*
X191335819Y-132951509D01*
X191302334Y-132890186D01*
X191299500Y-132863828D01*
X191299500Y-132119201D01*
X191299500Y-132119200D01*
X191293535Y-132104800D01*
X191257558Y-132017942D01*
X189477738Y-130238122D01*
X189444253Y-130176799D01*
X189449237Y-130107107D01*
X189491109Y-130051174D01*
X189533323Y-130030667D01*
X189573886Y-130019799D01*
X189676613Y-129960489D01*
X189760489Y-129876613D01*
X189819799Y-129773886D01*
X189850500Y-129659309D01*
X189850500Y-129540691D01*
X189819799Y-129426114D01*
X189760489Y-129323387D01*
X189676613Y-129239511D01*
X189573886Y-129180201D01*
X189459309Y-129149500D01*
X189390478Y-129149500D01*
X189323439Y-129129815D01*
X189302797Y-129113181D01*
X189101297Y-128911681D01*
X189067812Y-128850358D01*
X189072796Y-128780666D01*
X189114668Y-128724733D01*
X189131571Y-128718428D01*
X189150000Y-128700000D01*
X189650000Y-128700000D01*
X189847828Y-128700000D01*
X189847844Y-128699999D01*
X189907372Y-128693598D01*
X189907379Y-128693596D01*
X190042086Y-128643354D01*
X190042093Y-128643350D01*
X190157187Y-128557190D01*
X190157190Y-128557187D01*
X190243350Y-128442093D01*
X190243354Y-128442086D01*
X190293596Y-128307379D01*
X190293598Y-128307372D01*
X190299999Y-128247844D01*
X190300000Y-128247827D01*
X190300000Y-128050000D01*
X189650000Y-128050000D01*
X189650000Y-128700000D01*
X189150000Y-128700000D01*
X189150000Y-127924000D01*
X189169685Y-127856961D01*
X189222489Y-127811206D01*
X189274000Y-127800000D01*
X189400000Y-127800000D01*
X189400000Y-127674000D01*
X189419685Y-127606961D01*
X189472489Y-127561206D01*
X189524000Y-127550000D01*
X190300000Y-127550000D01*
X190300000Y-127381756D01*
X190319685Y-127314717D01*
X190372489Y-127268962D01*
X190441647Y-127259018D01*
X190505203Y-127288043D01*
G37*
%TD.AperFunction*%
%TA.AperFunction,Conductor*%
G36*
X174503803Y-113020185D02*
G01*
X174549558Y-113072989D01*
X174559502Y-113142147D01*
X174552946Y-113167833D01*
X174506403Y-113292620D01*
X174506401Y-113292627D01*
X174500000Y-113352155D01*
X174500000Y-113550000D01*
X176328638Y-113550000D01*
X176395677Y-113569685D01*
X176416319Y-113586319D01*
X176430000Y-113600000D01*
X188370000Y-113600000D01*
X188383681Y-113586319D01*
X188445004Y-113552834D01*
X188471362Y-113550000D01*
X190300000Y-113550000D01*
X190300000Y-113352172D01*
X190299999Y-113352155D01*
X190293598Y-113292627D01*
X190293596Y-113292620D01*
X190247054Y-113167833D01*
X190242070Y-113098142D01*
X190275555Y-113036818D01*
X190336878Y-113003334D01*
X190363236Y-113000500D01*
X192435500Y-113000500D01*
X192444185Y-113003050D01*
X192453147Y-113001762D01*
X192477187Y-113012740D01*
X192502539Y-113020185D01*
X192508466Y-113027025D01*
X192516703Y-113030787D01*
X192530992Y-113053021D01*
X192548294Y-113072989D01*
X192550581Y-113083503D01*
X192554477Y-113089565D01*
X192559500Y-113124500D01*
X192559500Y-113145500D01*
X192539815Y-113212539D01*
X192487011Y-113258294D01*
X192435500Y-113269500D01*
X191740247Y-113269500D01*
X191681770Y-113281131D01*
X191681769Y-113281132D01*
X191615447Y-113325447D01*
X191571132Y-113391769D01*
X191571131Y-113391770D01*
X191559500Y-113450247D01*
X191559500Y-114829522D01*
X191539815Y-114896561D01*
X191523181Y-114917203D01*
X191052204Y-115388181D01*
X190990881Y-115421666D01*
X190964523Y-115424500D01*
X190056971Y-115424500D01*
X190050106Y-115422484D01*
X190043058Y-115423717D01*
X190017023Y-115412770D01*
X189989932Y-115404815D01*
X189983679Y-115398749D01*
X189978651Y-115396635D01*
X189957273Y-115373133D01*
X189954739Y-115370675D01*
X189954269Y-115369990D01*
X189944552Y-115355448D01*
X189944061Y-115355120D01*
X189937235Y-115345175D01*
X189929787Y-115322393D01*
X189918301Y-115301358D01*
X189919128Y-115289789D01*
X189915524Y-115278764D01*
X189921575Y-115255571D01*
X189923285Y-115231666D01*
X189930907Y-115219805D01*
X189933164Y-115211158D01*
X189939158Y-115205636D01*
X189937767Y-115204707D01*
X189958735Y-115173324D01*
X189988867Y-115128231D01*
X189988867Y-115128229D01*
X189988868Y-115128229D01*
X190000499Y-115069752D01*
X190000500Y-115069750D01*
X190000500Y-114736556D01*
X190020185Y-114669517D01*
X190050189Y-114637290D01*
X190157187Y-114557190D01*
X190157190Y-114557187D01*
X190243350Y-114442093D01*
X190243354Y-114442086D01*
X190293596Y-114307379D01*
X190293598Y-114307372D01*
X190299999Y-114247844D01*
X190300000Y-114247827D01*
X190300000Y-114050000D01*
X188550000Y-114050000D01*
X188550000Y-114673667D01*
X188530315Y-114740706D01*
X188513681Y-114761348D01*
X188210574Y-115064454D01*
X188149251Y-115097939D01*
X188141430Y-115099302D01*
X188140691Y-115099500D01*
X188026114Y-115130201D01*
X188026112Y-115130201D01*
X188026112Y-115130202D01*
X187923387Y-115189511D01*
X187923384Y-115189513D01*
X187839513Y-115273384D01*
X187839511Y-115273387D01*
X187824435Y-115299500D01*
X187780201Y-115376114D01*
X187749500Y-115490691D01*
X187749500Y-115609309D01*
X187780201Y-115723886D01*
X187839511Y-115826613D01*
X187923387Y-115910489D01*
X188026114Y-115969799D01*
X188140691Y-116000500D01*
X188140694Y-116000500D01*
X188259306Y-116000500D01*
X188259309Y-116000500D01*
X188373886Y-115969799D01*
X188373888Y-115969797D01*
X188373890Y-115969797D01*
X188381400Y-115966687D01*
X188381906Y-115967909D01*
X188441608Y-115953417D01*
X188507639Y-115976259D01*
X188550838Y-116031173D01*
X188557490Y-116100725D01*
X188551909Y-116120609D01*
X188506403Y-116242616D01*
X188506401Y-116242627D01*
X188500000Y-116302155D01*
X188500000Y-116350000D01*
X190300000Y-116350000D01*
X190300000Y-116302172D01*
X190299999Y-116302155D01*
X190293598Y-116242627D01*
X190293596Y-116242619D01*
X190256379Y-116142833D01*
X190251395Y-116073141D01*
X190284880Y-116011818D01*
X190346204Y-115978334D01*
X190372561Y-115975500D01*
X191184799Y-115975500D01*
X191184800Y-115975500D01*
X191286058Y-115933557D01*
X191363557Y-115856058D01*
X191363556Y-115856058D01*
X191422125Y-115797489D01*
X191912796Y-115306819D01*
X191974119Y-115273334D01*
X192000477Y-115270500D01*
X192435500Y-115270500D01*
X192502539Y-115290185D01*
X192548294Y-115342989D01*
X192559500Y-115394500D01*
X192559500Y-115688234D01*
X192539815Y-115755273D01*
X192487011Y-115801028D01*
X192459692Y-115809851D01*
X192268170Y-115847947D01*
X192268160Y-115847950D01*
X192086092Y-115923364D01*
X192086079Y-115923371D01*
X191922218Y-116032860D01*
X191922214Y-116032863D01*
X191782863Y-116172214D01*
X191782860Y-116172218D01*
X191673371Y-116336079D01*
X191673364Y-116336092D01*
X191597950Y-116518160D01*
X191597947Y-116518170D01*
X191559500Y-116711456D01*
X191559500Y-116711459D01*
X191559500Y-116908541D01*
X191559500Y-116908543D01*
X191559499Y-116908543D01*
X191597947Y-117101829D01*
X191597950Y-117101839D01*
X191648427Y-117223702D01*
X191655896Y-117293171D01*
X191624620Y-117355650D01*
X191621547Y-117358835D01*
X191042204Y-117938181D01*
X190980881Y-117971666D01*
X190954523Y-117974500D01*
X190372561Y-117974500D01*
X190305522Y-117954815D01*
X190259767Y-117902011D01*
X190249823Y-117832853D01*
X190256379Y-117807167D01*
X190293596Y-117707380D01*
X190293598Y-117707372D01*
X190299999Y-117647844D01*
X190300000Y-117647827D01*
X190300000Y-117600000D01*
X188500000Y-117600000D01*
X188500000Y-117647844D01*
X188506401Y-117707372D01*
X188506403Y-117707379D01*
X188556645Y-117842086D01*
X188556649Y-117842093D01*
X188642809Y-117957187D01*
X188642812Y-117957190D01*
X188749811Y-118037290D01*
X188791682Y-118093223D01*
X188799500Y-118136556D01*
X188799500Y-118469752D01*
X188811131Y-118528229D01*
X188811132Y-118528230D01*
X188862233Y-118604707D01*
X188858918Y-118606921D01*
X188881699Y-118648642D01*
X188876715Y-118718334D01*
X188860243Y-118743963D01*
X188862233Y-118745293D01*
X188811132Y-118821769D01*
X188811131Y-118821770D01*
X188799500Y-118880247D01*
X188799500Y-119319752D01*
X188811131Y-119378229D01*
X188811132Y-119378230D01*
X188862233Y-119454707D01*
X188858918Y-119456921D01*
X188881699Y-119498642D01*
X188876715Y-119568334D01*
X188860243Y-119593963D01*
X188862233Y-119595293D01*
X188811132Y-119671769D01*
X188811131Y-119671770D01*
X188799500Y-119730247D01*
X188799500Y-120169752D01*
X188811131Y-120228229D01*
X188811132Y-120228230D01*
X188862233Y-120304707D01*
X188858918Y-120306921D01*
X188881699Y-120348642D01*
X188876715Y-120418334D01*
X188860243Y-120443963D01*
X188862233Y-120445293D01*
X188811132Y-120521769D01*
X188811131Y-120521770D01*
X188799500Y-120580247D01*
X188799500Y-121019752D01*
X188811131Y-121078229D01*
X188811132Y-121078230D01*
X188862233Y-121154707D01*
X188858918Y-121156921D01*
X188881699Y-121198642D01*
X188876715Y-121268334D01*
X188860243Y-121293963D01*
X188862233Y-121295293D01*
X188811132Y-121371769D01*
X188811131Y-121371770D01*
X188799500Y-121430247D01*
X188799500Y-121869752D01*
X188811131Y-121928229D01*
X188811132Y-121928230D01*
X188862233Y-122004707D01*
X188858918Y-122006921D01*
X188881699Y-122048642D01*
X188876715Y-122118334D01*
X188860243Y-122143963D01*
X188862233Y-122145293D01*
X188811132Y-122221769D01*
X188811131Y-122221770D01*
X188799500Y-122280247D01*
X188799500Y-122719752D01*
X188811131Y-122778229D01*
X188811132Y-122778230D01*
X188862233Y-122854707D01*
X188858918Y-122856921D01*
X188881699Y-122898642D01*
X188876715Y-122968334D01*
X188873841Y-122975372D01*
X188862592Y-123000673D01*
X188855448Y-123005448D01*
X188811133Y-123071769D01*
X188799500Y-123130252D01*
X188799500Y-123142596D01*
X188789805Y-123164405D01*
X188779623Y-123176397D01*
X188773731Y-123190985D01*
X188757473Y-123202486D01*
X188744585Y-123217667D01*
X188729536Y-123222251D01*
X188716692Y-123231338D01*
X188696796Y-123232224D01*
X188677747Y-123238027D01*
X188662607Y-123233746D01*
X188646892Y-123234447D01*
X188628583Y-123224128D01*
X188610512Y-123219019D01*
X188601562Y-123208897D01*
X188588816Y-123201714D01*
X188576615Y-123189513D01*
X188576613Y-123189511D01*
X188473886Y-123130201D01*
X188359309Y-123099500D01*
X188240691Y-123099500D01*
X188126114Y-123130201D01*
X188126112Y-123130201D01*
X188126112Y-123130202D01*
X188023387Y-123189511D01*
X188023384Y-123189513D01*
X187939513Y-123273384D01*
X187939511Y-123273387D01*
X187880687Y-123375273D01*
X187880201Y-123376114D01*
X187849500Y-123490691D01*
X187849500Y-123609309D01*
X187880201Y-123723886D01*
X187939511Y-123826613D01*
X188023387Y-123910489D01*
X188076339Y-123941061D01*
X188079027Y-123942613D01*
X188127242Y-123993181D01*
X188140464Y-124061788D01*
X188114496Y-124126653D01*
X188079027Y-124157387D01*
X188023387Y-124189511D01*
X188023384Y-124189513D01*
X187939513Y-124273384D01*
X187939511Y-124273387D01*
X187893577Y-124352947D01*
X187880201Y-124376114D01*
X187849500Y-124490691D01*
X187849500Y-124609309D01*
X187880201Y-124723886D01*
X187939511Y-124826613D01*
X187939513Y-124826615D01*
X187991128Y-124878230D01*
X188024613Y-124939553D01*
X188019629Y-125009245D01*
X187991129Y-125053591D01*
X187939514Y-125105206D01*
X187939511Y-125105210D01*
X187904373Y-125166071D01*
X187880201Y-125207937D01*
X187849500Y-125322514D01*
X187849500Y-125441132D01*
X187880201Y-125555709D01*
X187939511Y-125658436D01*
X188023387Y-125742312D01*
X188023393Y-125742315D01*
X188023808Y-125742634D01*
X188024076Y-125743001D01*
X188029134Y-125748059D01*
X188028345Y-125748847D01*
X188065014Y-125799060D01*
X188069173Y-125868805D01*
X188036009Y-125928694D01*
X187986649Y-125978054D01*
X187986646Y-125978058D01*
X187927336Y-126080785D01*
X187896635Y-126195362D01*
X187896635Y-126313980D01*
X187927336Y-126428557D01*
X187986646Y-126531284D01*
X188070522Y-126615160D01*
X188173249Y-126674470D01*
X188287826Y-126705171D01*
X188287829Y-126705171D01*
X188360582Y-126705171D01*
X188390022Y-126713815D01*
X188420009Y-126720339D01*
X188425024Y-126724093D01*
X188427621Y-126724856D01*
X188448263Y-126741490D01*
X188612545Y-126905772D01*
X188646030Y-126967095D01*
X188641046Y-127036787D01*
X188624131Y-127067764D01*
X188562711Y-127149811D01*
X188506777Y-127191682D01*
X188463444Y-127199500D01*
X188130247Y-127199500D01*
X188071770Y-127211131D01*
X188071769Y-127211132D01*
X187995293Y-127262233D01*
X187993078Y-127258918D01*
X187951358Y-127281699D01*
X187881666Y-127276715D01*
X187856036Y-127260243D01*
X187854707Y-127262233D01*
X187778230Y-127211132D01*
X187778229Y-127211131D01*
X187719752Y-127199500D01*
X187719748Y-127199500D01*
X187280252Y-127199500D01*
X187280247Y-127199500D01*
X187221770Y-127211131D01*
X187221769Y-127211132D01*
X187145293Y-127262233D01*
X187143078Y-127258918D01*
X187101358Y-127281699D01*
X187031666Y-127276715D01*
X187006036Y-127260243D01*
X187004707Y-127262233D01*
X186928230Y-127211132D01*
X186928229Y-127211131D01*
X186869752Y-127199500D01*
X186869748Y-127199500D01*
X186430252Y-127199500D01*
X186430247Y-127199500D01*
X186371770Y-127211131D01*
X186371769Y-127211132D01*
X186295293Y-127262233D01*
X186293078Y-127258918D01*
X186251358Y-127281699D01*
X186181666Y-127276715D01*
X186156036Y-127260243D01*
X186154707Y-127262233D01*
X186078230Y-127211132D01*
X186078229Y-127211131D01*
X186019752Y-127199500D01*
X186019748Y-127199500D01*
X185580252Y-127199500D01*
X185580247Y-127199500D01*
X185521770Y-127211131D01*
X185521769Y-127211132D01*
X185445293Y-127262233D01*
X185443078Y-127258918D01*
X185401358Y-127281699D01*
X185331666Y-127276715D01*
X185306036Y-127260243D01*
X185304707Y-127262233D01*
X185228230Y-127211132D01*
X185228229Y-127211131D01*
X185169752Y-127199500D01*
X185169748Y-127199500D01*
X184730252Y-127199500D01*
X184730247Y-127199500D01*
X184671770Y-127211131D01*
X184671769Y-127211132D01*
X184595293Y-127262233D01*
X184593078Y-127258918D01*
X184551358Y-127281699D01*
X184481666Y-127276715D01*
X184456036Y-127260243D01*
X184454707Y-127262233D01*
X184378230Y-127211132D01*
X184378229Y-127211131D01*
X184319752Y-127199500D01*
X184319748Y-127199500D01*
X183880252Y-127199500D01*
X183880247Y-127199500D01*
X183821770Y-127211131D01*
X183821769Y-127211132D01*
X183745293Y-127262233D01*
X183743078Y-127258918D01*
X183701358Y-127281699D01*
X183631666Y-127276715D01*
X183606036Y-127260243D01*
X183604707Y-127262233D01*
X183528230Y-127211132D01*
X183528229Y-127211131D01*
X183469752Y-127199500D01*
X183469748Y-127199500D01*
X183030252Y-127199500D01*
X183030247Y-127199500D01*
X182971770Y-127211131D01*
X182971769Y-127211132D01*
X182895293Y-127262233D01*
X182893078Y-127258918D01*
X182851358Y-127281699D01*
X182781666Y-127276715D01*
X182756036Y-127260243D01*
X182754707Y-127262233D01*
X182678230Y-127211132D01*
X182678229Y-127211131D01*
X182619752Y-127199500D01*
X182619748Y-127199500D01*
X182180252Y-127199500D01*
X182180247Y-127199500D01*
X182121770Y-127211131D01*
X182121769Y-127211132D01*
X182045293Y-127262233D01*
X182043078Y-127258918D01*
X182001358Y-127281699D01*
X181931666Y-127276715D01*
X181906036Y-127260243D01*
X181904707Y-127262233D01*
X181828230Y-127211132D01*
X181828229Y-127211131D01*
X181769752Y-127199500D01*
X181769748Y-127199500D01*
X181330252Y-127199500D01*
X181330247Y-127199500D01*
X181271770Y-127211131D01*
X181271769Y-127211132D01*
X181195293Y-127262233D01*
X181193078Y-127258918D01*
X181151358Y-127281699D01*
X181081666Y-127276715D01*
X181056036Y-127260243D01*
X181054707Y-127262233D01*
X180978230Y-127211132D01*
X180978229Y-127211131D01*
X180919752Y-127199500D01*
X180919748Y-127199500D01*
X180480252Y-127199500D01*
X180480247Y-127199500D01*
X180421770Y-127211131D01*
X180421769Y-127211132D01*
X180345293Y-127262233D01*
X180343078Y-127258918D01*
X180301358Y-127281699D01*
X180231666Y-127276715D01*
X180206036Y-127260243D01*
X180204707Y-127262233D01*
X180128230Y-127211132D01*
X180128229Y-127211131D01*
X180069752Y-127199500D01*
X180069748Y-127199500D01*
X179630252Y-127199500D01*
X179630247Y-127199500D01*
X179571770Y-127211131D01*
X179571769Y-127211132D01*
X179495293Y-127262233D01*
X179493078Y-127258918D01*
X179451358Y-127281699D01*
X179381666Y-127276715D01*
X179356036Y-127260243D01*
X179354707Y-127262233D01*
X179278230Y-127211132D01*
X179278229Y-127211131D01*
X179219752Y-127199500D01*
X179219748Y-127199500D01*
X178780252Y-127199500D01*
X178780247Y-127199500D01*
X178721770Y-127211131D01*
X178721769Y-127211132D01*
X178645293Y-127262233D01*
X178643078Y-127258918D01*
X178601358Y-127281699D01*
X178531666Y-127276715D01*
X178506036Y-127260243D01*
X178504707Y-127262233D01*
X178428230Y-127211132D01*
X178428229Y-127211131D01*
X178369752Y-127199500D01*
X178369748Y-127199500D01*
X177930252Y-127199500D01*
X177930247Y-127199500D01*
X177871770Y-127211131D01*
X177871769Y-127211132D01*
X177795293Y-127262233D01*
X177793078Y-127258918D01*
X177751358Y-127281699D01*
X177681666Y-127276715D01*
X177656036Y-127260243D01*
X177654707Y-127262233D01*
X177578230Y-127211132D01*
X177578229Y-127211131D01*
X177519752Y-127199500D01*
X177519748Y-127199500D01*
X177080252Y-127199500D01*
X177080247Y-127199500D01*
X177021770Y-127211131D01*
X177021769Y-127211132D01*
X176945293Y-127262233D01*
X176943078Y-127258918D01*
X176901358Y-127281699D01*
X176831666Y-127276715D01*
X176806036Y-127260243D01*
X176804707Y-127262233D01*
X176728230Y-127211132D01*
X176728229Y-127211131D01*
X176669752Y-127199500D01*
X176669748Y-127199500D01*
X176336556Y-127199500D01*
X176269517Y-127179815D01*
X176237290Y-127149811D01*
X176157190Y-127042813D01*
X176065648Y-126974284D01*
X176023777Y-126918350D01*
X176018793Y-126848658D01*
X176052276Y-126787338D01*
X176302796Y-126536819D01*
X176364119Y-126503334D01*
X176390477Y-126500500D01*
X176459306Y-126500500D01*
X176459309Y-126500500D01*
X176573886Y-126469799D01*
X176676613Y-126410489D01*
X176760489Y-126326613D01*
X176819799Y-126223886D01*
X176850500Y-126109309D01*
X176850500Y-125990691D01*
X176819799Y-125876114D01*
X176760489Y-125773387D01*
X176676613Y-125689511D01*
X176573886Y-125630201D01*
X176459309Y-125599500D01*
X176340691Y-125599500D01*
X176235505Y-125627684D01*
X176226110Y-125630202D01*
X176159557Y-125668627D01*
X176154981Y-125669737D01*
X176151490Y-125672897D01*
X176121349Y-125677896D01*
X176091657Y-125685100D01*
X176087206Y-125683559D01*
X176082562Y-125684330D01*
X176054501Y-125672240D01*
X176025630Y-125662247D01*
X176021521Y-125658029D01*
X176018395Y-125656683D01*
X175995896Y-125631730D01*
X175994712Y-125630515D01*
X175988886Y-125621866D01*
X175988867Y-125621769D01*
X175944552Y-125555448D01*
X175943817Y-125554957D01*
X175936622Y-125544275D01*
X175929533Y-125521928D01*
X175918301Y-125501358D01*
X175919166Y-125489248D01*
X175915496Y-125477676D01*
X175921612Y-125455048D01*
X175923285Y-125431666D01*
X175931308Y-125419181D01*
X175933729Y-125410227D01*
X175938952Y-125405499D01*
X175937767Y-125404707D01*
X175953869Y-125380609D01*
X176007482Y-125335804D01*
X176056971Y-125325500D01*
X179516324Y-125325500D01*
X179583363Y-125345185D01*
X179604005Y-125361819D01*
X179692686Y-125450500D01*
X179806814Y-125516392D01*
X179934108Y-125550500D01*
X179934110Y-125550500D01*
X180065890Y-125550500D01*
X180065892Y-125550500D01*
X180193186Y-125516392D01*
X180307314Y-125450500D01*
X180400500Y-125357314D01*
X180466392Y-125243186D01*
X180500500Y-125115892D01*
X180500500Y-124984108D01*
X180466392Y-124856814D01*
X180400500Y-124742686D01*
X180370495Y-124712681D01*
X180337010Y-124651358D01*
X180341994Y-124581666D01*
X180370495Y-124537319D01*
X180379273Y-124528541D01*
X180400500Y-124507314D01*
X180466392Y-124393186D01*
X180500500Y-124265892D01*
X180500500Y-124134108D01*
X180466392Y-124006814D01*
X180400500Y-123892686D01*
X180307314Y-123799500D01*
X180222444Y-123750500D01*
X180193187Y-123733608D01*
X180129539Y-123716554D01*
X180065892Y-123699500D01*
X179934108Y-123699500D01*
X179806812Y-123733608D01*
X179692686Y-123799500D01*
X179692683Y-123799502D01*
X179604005Y-123888181D01*
X179542682Y-123921666D01*
X179516324Y-123924500D01*
X176589075Y-123924500D01*
X176563078Y-123935268D01*
X176549093Y-123941061D01*
X176540918Y-123942687D01*
X176536578Y-123945477D01*
X176501643Y-123950500D01*
X176298358Y-123950500D01*
X176250905Y-123941061D01*
X176210925Y-123924500D01*
X176210923Y-123924500D01*
X176056971Y-123924500D01*
X176050106Y-123922484D01*
X176043058Y-123923717D01*
X176017023Y-123912770D01*
X175989932Y-123904815D01*
X175983679Y-123898749D01*
X175978651Y-123896635D01*
X175957273Y-123873133D01*
X175954739Y-123870675D01*
X175954269Y-123869990D01*
X175944552Y-123855448D01*
X175944061Y-123855120D01*
X175937235Y-123845175D01*
X175929787Y-123822393D01*
X175918301Y-123801358D01*
X175919128Y-123789789D01*
X175915524Y-123778764D01*
X175921575Y-123755571D01*
X175923285Y-123731666D01*
X175930907Y-123719805D01*
X175933164Y-123711158D01*
X175939158Y-123705636D01*
X175937767Y-123704707D01*
X175972409Y-123652861D01*
X175988867Y-123628231D01*
X175988867Y-123628229D01*
X175988868Y-123628229D01*
X176000499Y-123569752D01*
X176000500Y-123569750D01*
X176000500Y-123130249D01*
X176000499Y-123130247D01*
X175988868Y-123071770D01*
X175988867Y-123071769D01*
X175937767Y-122995293D01*
X175941081Y-122993078D01*
X175918301Y-122951358D01*
X175923285Y-122881666D01*
X175939756Y-122856036D01*
X175937767Y-122854707D01*
X175965743Y-122812838D01*
X175988867Y-122778231D01*
X175988867Y-122778229D01*
X175988868Y-122778229D01*
X176000499Y-122719752D01*
X176000500Y-122719750D01*
X176000500Y-122280249D01*
X176000499Y-122280247D01*
X175988868Y-122221770D01*
X175988867Y-122221769D01*
X175937767Y-122145293D01*
X175941081Y-122143078D01*
X175918301Y-122101358D01*
X175923285Y-122031666D01*
X175939756Y-122006036D01*
X175937767Y-122004707D01*
X175969160Y-121957724D01*
X175988867Y-121928231D01*
X175988867Y-121928229D01*
X175988868Y-121928229D01*
X176000499Y-121869752D01*
X176000500Y-121869750D01*
X176000500Y-121430249D01*
X176000499Y-121430247D01*
X175988868Y-121371770D01*
X175988867Y-121371769D01*
X175937767Y-121295293D01*
X175941081Y-121293078D01*
X175918301Y-121251358D01*
X175923285Y-121181666D01*
X175939756Y-121156036D01*
X175937767Y-121154707D01*
X175963704Y-121115890D01*
X175988867Y-121078231D01*
X175988867Y-121078229D01*
X175988868Y-121078229D01*
X176000499Y-121019752D01*
X176000500Y-121019750D01*
X176000500Y-120580249D01*
X176000499Y-120580247D01*
X175988868Y-120521770D01*
X175988867Y-120521769D01*
X175937767Y-120445293D01*
X175941081Y-120443078D01*
X175918301Y-120401358D01*
X175923285Y-120331666D01*
X175939756Y-120306036D01*
X175937767Y-120304707D01*
X175966424Y-120261819D01*
X175988867Y-120228231D01*
X175988867Y-120228229D01*
X175988868Y-120228229D01*
X176000499Y-120169752D01*
X176000500Y-120169750D01*
X176000500Y-119730249D01*
X176000499Y-119730247D01*
X175988868Y-119671770D01*
X175988867Y-119671769D01*
X175937767Y-119595293D01*
X175941081Y-119593078D01*
X175918301Y-119551358D01*
X175923285Y-119481666D01*
X175939756Y-119456036D01*
X175937767Y-119454707D01*
X175966424Y-119411819D01*
X175988867Y-119378231D01*
X175988867Y-119378229D01*
X175988868Y-119378229D01*
X176000499Y-119319752D01*
X176000500Y-119319750D01*
X176000500Y-118880250D01*
X175990301Y-118828980D01*
X175996528Y-118759388D01*
X176039390Y-118704210D01*
X176105280Y-118680965D01*
X176173277Y-118697032D01*
X176173918Y-118697400D01*
X176206810Y-118716390D01*
X176206811Y-118716390D01*
X176206814Y-118716392D01*
X176334108Y-118750500D01*
X176334110Y-118750500D01*
X176465890Y-118750500D01*
X176465892Y-118750500D01*
X176593186Y-118716392D01*
X176688501Y-118661361D01*
X176756399Y-118644889D01*
X176822426Y-118667741D01*
X176865617Y-118722662D01*
X176874500Y-118768749D01*
X176874500Y-120545107D01*
X176854815Y-120612146D01*
X176822739Y-120642732D01*
X176824135Y-120644552D01*
X176817683Y-120649502D01*
X176724502Y-120742683D01*
X176724500Y-120742686D01*
X176658608Y-120856812D01*
X176632401Y-120954620D01*
X176624500Y-120984108D01*
X176624500Y-121115892D01*
X176635494Y-121156921D01*
X176658608Y-121243187D01*
X176677806Y-121276438D01*
X176724500Y-121357314D01*
X176817686Y-121450500D01*
X176931814Y-121516392D01*
X177059108Y-121550500D01*
X177059110Y-121550500D01*
X177190890Y-121550500D01*
X177190892Y-121550500D01*
X177318186Y-121516392D01*
X177432314Y-121450500D01*
X177525500Y-121357314D01*
X177591392Y-121243186D01*
X177625500Y-121115892D01*
X177625500Y-120984108D01*
X177591392Y-120856814D01*
X177525500Y-120742686D01*
X177461818Y-120679004D01*
X177428334Y-120617680D01*
X177425500Y-120591323D01*
X177425500Y-117745201D01*
X177425500Y-117745200D01*
X177383557Y-117643942D01*
X177383557Y-117643941D01*
X176906058Y-117166443D01*
X176877435Y-117154587D01*
X176877432Y-117154585D01*
X176877431Y-117154585D01*
X176804802Y-117124500D01*
X176804800Y-117124500D01*
X176056971Y-117124500D01*
X176050106Y-117122484D01*
X176043058Y-117123717D01*
X176017023Y-117112770D01*
X175989932Y-117104815D01*
X175983679Y-117098749D01*
X175978651Y-117096635D01*
X175957273Y-117073133D01*
X175954739Y-117070675D01*
X175954269Y-117069990D01*
X175944552Y-117055448D01*
X175944061Y-117055120D01*
X175937235Y-117045175D01*
X175929787Y-117022393D01*
X175918301Y-117001358D01*
X175919128Y-116989789D01*
X175915524Y-116978764D01*
X175921575Y-116955571D01*
X175923285Y-116931666D01*
X175930907Y-116919805D01*
X175933164Y-116911158D01*
X175939158Y-116905636D01*
X175937767Y-116904707D01*
X175961867Y-116868638D01*
X175988867Y-116828231D01*
X175988867Y-116828229D01*
X175988868Y-116828229D01*
X175994912Y-116797844D01*
X188500000Y-116797844D01*
X188506401Y-116857372D01*
X188506403Y-116857382D01*
X188534110Y-116931668D01*
X188539094Y-117001359D01*
X188534110Y-117018332D01*
X188506403Y-117092617D01*
X188506401Y-117092627D01*
X188500000Y-117152155D01*
X188500000Y-117200000D01*
X189200000Y-117200000D01*
X189600000Y-117200000D01*
X190300000Y-117200000D01*
X190300000Y-117152172D01*
X190299999Y-117152155D01*
X190293598Y-117092628D01*
X190265888Y-117018334D01*
X190260904Y-116948642D01*
X190265888Y-116931666D01*
X190293598Y-116857371D01*
X190299999Y-116797844D01*
X190300000Y-116797827D01*
X190300000Y-116750000D01*
X189600000Y-116750000D01*
X189600000Y-117200000D01*
X189200000Y-117200000D01*
X189200000Y-116750000D01*
X188500000Y-116750000D01*
X188500000Y-116797844D01*
X175994912Y-116797844D01*
X176000499Y-116769752D01*
X176000500Y-116769750D01*
X176000500Y-116436556D01*
X176020185Y-116369517D01*
X176050189Y-116337290D01*
X176157187Y-116257190D01*
X176157190Y-116257187D01*
X176243350Y-116142093D01*
X176243354Y-116142086D01*
X176293596Y-116007379D01*
X176293598Y-116007372D01*
X176299999Y-115947844D01*
X176300000Y-115947827D01*
X176300000Y-115900000D01*
X175524000Y-115900000D01*
X175456961Y-115880315D01*
X175411206Y-115827511D01*
X175400000Y-115776000D01*
X175400000Y-115700000D01*
X175324000Y-115700000D01*
X175256961Y-115680315D01*
X175211206Y-115627511D01*
X175200000Y-115576000D01*
X175200000Y-115500000D01*
X175600000Y-115500000D01*
X176300000Y-115500000D01*
X176300000Y-115452172D01*
X176299999Y-115452155D01*
X176293598Y-115392628D01*
X176265888Y-115318334D01*
X176260904Y-115248642D01*
X176265888Y-115231666D01*
X176293598Y-115157371D01*
X176299999Y-115097844D01*
X176300000Y-115097827D01*
X176300000Y-115050000D01*
X175600000Y-115050000D01*
X175600000Y-115500000D01*
X175200000Y-115500000D01*
X175200000Y-115050000D01*
X174500000Y-115050000D01*
X174500000Y-115097844D01*
X174506401Y-115157372D01*
X174506403Y-115157382D01*
X174534110Y-115231668D01*
X174539094Y-115301359D01*
X174534110Y-115318332D01*
X174506403Y-115392617D01*
X174506401Y-115392627D01*
X174500000Y-115452155D01*
X174500000Y-115529098D01*
X174480315Y-115596137D01*
X174427511Y-115641892D01*
X174358353Y-115651836D01*
X174294797Y-115622811D01*
X174288319Y-115616779D01*
X174218316Y-115546776D01*
X174109487Y-115496028D01*
X174109485Y-115496027D01*
X174109486Y-115496027D01*
X174059902Y-115489500D01*
X173700102Y-115489500D01*
X173691746Y-115490600D01*
X173690459Y-115490769D01*
X173621425Y-115480001D01*
X173583658Y-115452468D01*
X173526936Y-115391736D01*
X173512160Y-115362332D01*
X173496392Y-115333456D01*
X173496548Y-115331267D01*
X173495563Y-115329306D01*
X173499029Y-115296578D01*
X173501376Y-115263764D01*
X173501377Y-115263764D01*
X173533595Y-115177383D01*
X173533598Y-115177372D01*
X173539999Y-115117844D01*
X173540000Y-115117827D01*
X173540000Y-114700000D01*
X176650000Y-114700000D01*
X176697828Y-114700000D01*
X176697844Y-114699999D01*
X176757371Y-114693598D01*
X176831666Y-114665888D01*
X176901358Y-114660904D01*
X176918334Y-114665888D01*
X176992628Y-114693598D01*
X176992627Y-114693598D01*
X177052155Y-114699999D01*
X177052172Y-114700000D01*
X177100000Y-114700000D01*
X177500000Y-114700000D01*
X177547828Y-114700000D01*
X177547844Y-114699999D01*
X177607371Y-114693598D01*
X177681666Y-114665888D01*
X177751358Y-114660904D01*
X177768334Y-114665888D01*
X177842628Y-114693598D01*
X177842627Y-114693598D01*
X177902155Y-114699999D01*
X177902172Y-114700000D01*
X177950000Y-114700000D01*
X178350000Y-114700000D01*
X178397828Y-114700000D01*
X178397844Y-114699999D01*
X178457371Y-114693598D01*
X178531666Y-114665888D01*
X178601358Y-114660904D01*
X178618334Y-114665888D01*
X178692628Y-114693598D01*
X178692627Y-114693598D01*
X178752155Y-114699999D01*
X178752172Y-114700000D01*
X178800000Y-114700000D01*
X179200000Y-114700000D01*
X179247828Y-114700000D01*
X179247844Y-114699999D01*
X179307371Y-114693598D01*
X179381666Y-114665888D01*
X179451358Y-114660904D01*
X179468334Y-114665888D01*
X179542628Y-114693598D01*
X179542627Y-114693598D01*
X179602155Y-114699999D01*
X179602172Y-114700000D01*
X179650000Y-114700000D01*
X180050000Y-114700000D01*
X180097828Y-114700000D01*
X180097844Y-114699999D01*
X180157371Y-114693598D01*
X180231666Y-114665888D01*
X180301358Y-114660904D01*
X180318334Y-114665888D01*
X180392628Y-114693598D01*
X180392627Y-114693598D01*
X180452155Y-114699999D01*
X180452172Y-114700000D01*
X180500000Y-114700000D01*
X180900000Y-114700000D01*
X180947828Y-114700000D01*
X180947844Y-114699999D01*
X181007371Y-114693598D01*
X181081666Y-114665888D01*
X181151358Y-114660904D01*
X181168334Y-114665888D01*
X181242628Y-114693598D01*
X181242627Y-114693598D01*
X181302155Y-114699999D01*
X181302172Y-114700000D01*
X181350000Y-114700000D01*
X181750000Y-114700000D01*
X181797828Y-114700000D01*
X181797844Y-114699999D01*
X181857371Y-114693598D01*
X181931666Y-114665888D01*
X182001358Y-114660904D01*
X182018334Y-114665888D01*
X182092628Y-114693598D01*
X182092627Y-114693598D01*
X182152155Y-114699999D01*
X182152172Y-114700000D01*
X182200000Y-114700000D01*
X182600000Y-114700000D01*
X182647828Y-114700000D01*
X182647844Y-114699999D01*
X182707371Y-114693598D01*
X182781666Y-114665888D01*
X182851358Y-114660904D01*
X182868334Y-114665888D01*
X182942628Y-114693598D01*
X182942627Y-114693598D01*
X183002155Y-114699999D01*
X183002172Y-114700000D01*
X183050000Y-114700000D01*
X183450000Y-114700000D01*
X183497828Y-114700000D01*
X183497844Y-114699999D01*
X183557371Y-114693598D01*
X183631666Y-114665888D01*
X183701358Y-114660904D01*
X183718334Y-114665888D01*
X183792628Y-114693598D01*
X183792627Y-114693598D01*
X183852155Y-114699999D01*
X183852172Y-114700000D01*
X183900000Y-114700000D01*
X184300000Y-114700000D01*
X184347828Y-114700000D01*
X184347844Y-114699999D01*
X184407371Y-114693598D01*
X184481666Y-114665888D01*
X184551358Y-114660904D01*
X184568334Y-114665888D01*
X184642628Y-114693598D01*
X184642627Y-114693598D01*
X184702155Y-114699999D01*
X184702172Y-114700000D01*
X184750000Y-114700000D01*
X185150000Y-114700000D01*
X185197828Y-114700000D01*
X185197844Y-114699999D01*
X185257371Y-114693598D01*
X185331666Y-114665888D01*
X185401358Y-114660904D01*
X185418334Y-114665888D01*
X185492628Y-114693598D01*
X185492627Y-114693598D01*
X185552155Y-114699999D01*
X185552172Y-114700000D01*
X185600000Y-114700000D01*
X186000000Y-114700000D01*
X186047828Y-114700000D01*
X186047844Y-114699999D01*
X186107371Y-114693598D01*
X186181666Y-114665888D01*
X186251358Y-114660904D01*
X186268334Y-114665888D01*
X186342628Y-114693598D01*
X186342627Y-114693598D01*
X186402155Y-114699999D01*
X186402172Y-114700000D01*
X186450000Y-114700000D01*
X186850000Y-114700000D01*
X186897828Y-114700000D01*
X186897844Y-114699999D01*
X186957371Y-114693598D01*
X187031666Y-114665888D01*
X187101358Y-114660904D01*
X187118334Y-114665888D01*
X187192628Y-114693598D01*
X187192627Y-114693598D01*
X187252155Y-114699999D01*
X187252172Y-114700000D01*
X187300000Y-114700000D01*
X187700000Y-114700000D01*
X187747828Y-114700000D01*
X187747844Y-114699999D01*
X187807371Y-114693598D01*
X187881666Y-114665888D01*
X187951358Y-114660904D01*
X187968334Y-114665888D01*
X188042628Y-114693598D01*
X188042627Y-114693598D01*
X188102155Y-114699999D01*
X188102172Y-114700000D01*
X188150000Y-114700000D01*
X188150000Y-114000000D01*
X187700000Y-114000000D01*
X187700000Y-114700000D01*
X187300000Y-114700000D01*
X187300000Y-114000000D01*
X186850000Y-114000000D01*
X186850000Y-114700000D01*
X186450000Y-114700000D01*
X186450000Y-114000000D01*
X186000000Y-114000000D01*
X186000000Y-114700000D01*
X185600000Y-114700000D01*
X185600000Y-114000000D01*
X185150000Y-114000000D01*
X185150000Y-114700000D01*
X184750000Y-114700000D01*
X184750000Y-114000000D01*
X184300000Y-114000000D01*
X184300000Y-114700000D01*
X183900000Y-114700000D01*
X183900000Y-114000000D01*
X183450000Y-114000000D01*
X183450000Y-114700000D01*
X183050000Y-114700000D01*
X183050000Y-114000000D01*
X182600000Y-114000000D01*
X182600000Y-114700000D01*
X182200000Y-114700000D01*
X182200000Y-114000000D01*
X181750000Y-114000000D01*
X181750000Y-114700000D01*
X181350000Y-114700000D01*
X181350000Y-114000000D01*
X180900000Y-114000000D01*
X180900000Y-114700000D01*
X180500000Y-114700000D01*
X180500000Y-114000000D01*
X180050000Y-114000000D01*
X180050000Y-114700000D01*
X179650000Y-114700000D01*
X179650000Y-114000000D01*
X179200000Y-114000000D01*
X179200000Y-114700000D01*
X178800000Y-114700000D01*
X178800000Y-114000000D01*
X178350000Y-114000000D01*
X178350000Y-114700000D01*
X177950000Y-114700000D01*
X177950000Y-114000000D01*
X177500000Y-114000000D01*
X177500000Y-114700000D01*
X177100000Y-114700000D01*
X177100000Y-114000000D01*
X176650000Y-114000000D01*
X176650000Y-114700000D01*
X173540000Y-114700000D01*
X173540000Y-114520000D01*
X172555686Y-114520000D01*
X172560080Y-114515606D01*
X172612741Y-114424394D01*
X172640000Y-114322661D01*
X172640000Y-114247844D01*
X174500000Y-114247844D01*
X174506401Y-114307372D01*
X174506403Y-114307382D01*
X174534110Y-114381668D01*
X174539094Y-114451359D01*
X174534110Y-114468332D01*
X174506403Y-114542617D01*
X174506401Y-114542627D01*
X174500000Y-114602155D01*
X174500000Y-114650000D01*
X175150000Y-114650000D01*
X175650000Y-114650000D01*
X176250000Y-114650000D01*
X176250000Y-114050000D01*
X175650000Y-114050000D01*
X175650000Y-114650000D01*
X175150000Y-114650000D01*
X175150000Y-114050000D01*
X174500000Y-114050000D01*
X174500000Y-114247844D01*
X172640000Y-114247844D01*
X172640000Y-114217339D01*
X172612741Y-114115606D01*
X172560080Y-114024394D01*
X172555686Y-114020000D01*
X173540000Y-114020000D01*
X173540000Y-113422172D01*
X173539999Y-113422155D01*
X173533598Y-113362627D01*
X173533596Y-113362620D01*
X173483354Y-113227913D01*
X173483352Y-113227910D01*
X173461569Y-113198812D01*
X173437151Y-113133348D01*
X173452002Y-113065075D01*
X173501406Y-113015669D01*
X173560835Y-113000500D01*
X174436764Y-113000500D01*
X174503803Y-113020185D01*
G37*
%TD.AperFunction*%
%TA.AperFunction,Conductor*%
G36*
X173125677Y-116019685D02*
G01*
X173146319Y-116036319D01*
X173153681Y-116043681D01*
X173187166Y-116105004D01*
X173190000Y-116131362D01*
X173190000Y-117804503D01*
X173272371Y-117780574D01*
X173342241Y-117780773D01*
X173400911Y-117818715D01*
X173426740Y-117867554D01*
X173433608Y-117893186D01*
X173499500Y-118007314D01*
X173592686Y-118100500D01*
X173706814Y-118166392D01*
X173834108Y-118200500D01*
X173834110Y-118200500D01*
X173965890Y-118200500D01*
X173965892Y-118200500D01*
X174093186Y-118166392D01*
X174207314Y-118100500D01*
X174300500Y-118007314D01*
X174366392Y-117893186D01*
X174400500Y-117765892D01*
X174400500Y-117634108D01*
X174366392Y-117506814D01*
X174339058Y-117459471D01*
X174322586Y-117391573D01*
X174334062Y-117345073D01*
X174373972Y-117259487D01*
X174380500Y-117209901D01*
X174380499Y-117074499D01*
X174383049Y-117065814D01*
X174381761Y-117056853D01*
X174392738Y-117032815D01*
X174400183Y-117007461D01*
X174407025Y-117001532D01*
X174410786Y-116993297D01*
X174433017Y-116979010D01*
X174452987Y-116961706D01*
X174463502Y-116959418D01*
X174469564Y-116955523D01*
X174504499Y-116950500D01*
X174696496Y-116950500D01*
X174763535Y-116970185D01*
X174809290Y-117022989D01*
X174819234Y-117092147D01*
X174811199Y-117121432D01*
X174799500Y-117180247D01*
X174799500Y-117619752D01*
X174811131Y-117678229D01*
X174811132Y-117678230D01*
X174862233Y-117754707D01*
X174858918Y-117756921D01*
X174881699Y-117798642D01*
X174876715Y-117868334D01*
X174860243Y-117893963D01*
X174862233Y-117895293D01*
X174811132Y-117971769D01*
X174811131Y-117971770D01*
X174799500Y-118030247D01*
X174799500Y-118475500D01*
X174779815Y-118542539D01*
X174727011Y-118588294D01*
X174675500Y-118599500D01*
X174634108Y-118599500D01*
X174506812Y-118633608D01*
X174392686Y-118699500D01*
X174392683Y-118699502D01*
X174299502Y-118792683D01*
X174299500Y-118792686D01*
X174233608Y-118906812D01*
X174199500Y-119034108D01*
X174199500Y-119159520D01*
X174190856Y-119188956D01*
X174184333Y-119218946D01*
X174180577Y-119223963D01*
X174179815Y-119226559D01*
X174163182Y-119247201D01*
X174043942Y-119366443D01*
X173966443Y-119443942D01*
X173924500Y-119545199D01*
X173924500Y-119834521D01*
X173904815Y-119901560D01*
X173888181Y-119922202D01*
X173407708Y-120402675D01*
X172838333Y-120972049D01*
X172777010Y-121005534D01*
X172707318Y-121000550D01*
X172703200Y-120998929D01*
X172531839Y-120927950D01*
X172531829Y-120927947D01*
X172340308Y-120889851D01*
X172278397Y-120857466D01*
X172243823Y-120796750D01*
X172240500Y-120768234D01*
X172240500Y-120474500D01*
X172260185Y-120407461D01*
X172312989Y-120361706D01*
X172364500Y-120350500D01*
X173059750Y-120350500D01*
X173059751Y-120350499D01*
X173074568Y-120347552D01*
X173118229Y-120338868D01*
X173118231Y-120338867D01*
X173184552Y-120294552D01*
X173228867Y-120228231D01*
X173228867Y-120228230D01*
X173228868Y-120228229D01*
X173240499Y-120169752D01*
X173240500Y-120169750D01*
X173240500Y-118530249D01*
X173240499Y-118530247D01*
X173228868Y-118471770D01*
X173228867Y-118471769D01*
X173184552Y-118405447D01*
X173118230Y-118361132D01*
X173118229Y-118361131D01*
X173059752Y-118349500D01*
X173059748Y-118349500D01*
X172364500Y-118349500D01*
X172297461Y-118329815D01*
X172251706Y-118277011D01*
X172240500Y-118225500D01*
X172240500Y-117800052D01*
X172260185Y-117733013D01*
X172312989Y-117687258D01*
X172382147Y-117677314D01*
X172427622Y-117693320D01*
X172543806Y-117762032D01*
X172690000Y-117804504D01*
X172690000Y-116926433D01*
X172672834Y-116894996D01*
X172670000Y-116868638D01*
X172670000Y-116124000D01*
X172689685Y-116056961D01*
X172742489Y-116011206D01*
X172794000Y-116000000D01*
X173058638Y-116000000D01*
X173125677Y-116019685D01*
G37*
%TD.AperFunction*%
%TD*%
%TA.AperFunction,Conductor*%
%TO.N,Net-(IC1-SW)*%
G36*
X177578304Y-143069685D02*
G01*
X177581847Y-143072048D01*
X178146582Y-143463018D01*
X178150921Y-143468388D01*
X178157203Y-143471257D01*
X178172598Y-143495212D01*
X178190497Y-143517362D01*
X178192147Y-143525632D01*
X178194977Y-143530035D01*
X178200000Y-143564970D01*
X178200000Y-143614836D01*
X178180315Y-143681875D01*
X178127511Y-143727630D01*
X178120514Y-143730571D01*
X177872400Y-143826000D01*
X177571488Y-143941735D01*
X177526976Y-143950000D01*
X177024000Y-143950000D01*
X176956961Y-143930315D01*
X176911206Y-143877511D01*
X176900000Y-143826000D01*
X176900000Y-143174000D01*
X176919685Y-143106961D01*
X176972489Y-143061206D01*
X177024000Y-143050000D01*
X177511265Y-143050000D01*
X177578304Y-143069685D01*
G37*
%TD.AperFunction*%
%TD*%
%TA.AperFunction,Conductor*%
%TO.N,V_SYS*%
G36*
X178543039Y-144019685D02*
G01*
X178588794Y-144072489D01*
X178600000Y-144124000D01*
X178600000Y-144148638D01*
X178580315Y-144215677D01*
X178563681Y-144236319D01*
X177836319Y-144963681D01*
X177809391Y-144978384D01*
X177783573Y-144994977D01*
X177777372Y-144995868D01*
X177774996Y-144997166D01*
X177748638Y-145000000D01*
X177524000Y-145000000D01*
X177456961Y-144980315D01*
X177411206Y-144927511D01*
X177400000Y-144876000D01*
X177400000Y-144524000D01*
X177419685Y-144456961D01*
X177472489Y-144411206D01*
X177524000Y-144400000D01*
X177800000Y-144400000D01*
X178266035Y-144027172D01*
X178330681Y-144000664D01*
X178343497Y-144000000D01*
X178476000Y-144000000D01*
X178543039Y-144019685D01*
G37*
%TD.AperFunction*%
%TD*%
%TA.AperFunction,Conductor*%
%TO.N,GND*%
G36*
X178550000Y-143000000D02*
G01*
X178550000Y-143200000D01*
X178400000Y-143200000D01*
X178150000Y-143100000D01*
X178450000Y-142800000D01*
X178550000Y-143000000D01*
G37*
%TD.AperFunction*%
%TD*%
M02*
