%TF.GenerationSoftware,KiCad,Pcbnew,9.0.7-9.0.7~ubuntu22.04.1*%
%TF.CreationDate,2026-02-08T22:50:42-07:00*%
%TF.ProjectId,ESP32-S3-MINI-1_UU,45535033-322d-4533-932d-4d494e492d31,rev?*%
%TF.SameCoordinates,Original*%
%TF.FileFunction,Copper,L2,Bot*%
%TF.FilePolarity,Positive*%
%FSLAX46Y46*%
G04 Gerber Fmt 4.6, Leading zero omitted, Abs format (unit mm)*
G04 Created by KiCad (PCBNEW 9.0.7-9.0.7~ubuntu22.04.1) date 2026-02-08 22:50:42*
%MOMM*%
%LPD*%
G01*
G04 APERTURE LIST*
%TA.AperFunction,ComponentPad*%
%ADD10R,1.600000X1.600000*%
%TD*%
%TA.AperFunction,ComponentPad*%
%ADD11C,1.600000*%
%TD*%
%TA.AperFunction,ComponentPad*%
%ADD12C,1.460000*%
%TD*%
%TA.AperFunction,ViaPad*%
%ADD13C,0.600000*%
%TD*%
%TA.AperFunction,ViaPad*%
%ADD14C,0.500000*%
%TD*%
%TA.AperFunction,Conductor*%
%ADD15C,0.150000*%
%TD*%
%TA.AperFunction,Conductor*%
%ADD16C,0.400000*%
%TD*%
%TA.AperFunction,Conductor*%
%ADD17C,0.200000*%
%TD*%
G04 APERTURE END LIST*
D10*
%TO.P,J5,1,1*%
%TO.N,3V3*%
X189840000Y-74360000D03*
D11*
%TO.P,J5,2,2*%
%TO.N,LED*%
X189840000Y-76900000D03*
%TO.P,J5,3,3*%
%TO.N,IO3*%
X189840000Y-79440000D03*
%TO.P,J5,4,4*%
%TO.N,IO4*%
X189840000Y-81980000D03*
%TO.P,J5,5,5*%
%TO.N,IO5*%
X189840000Y-84520000D03*
%TO.P,J5,6,6*%
%TO.N,IO6*%
X189840000Y-87060000D03*
%TO.P,J5,7,7*%
%TO.N,IO7*%
X189840000Y-89600000D03*
%TO.P,J5,8,8*%
%TO.N,IO10*%
X189840000Y-92140000D03*
%TO.P,J5,9,9*%
%TO.N,IO11*%
X189840000Y-94680000D03*
%TO.P,J5,10,10*%
%TO.N,IO12*%
X189840000Y-97220000D03*
%TO.P,J5,11,11*%
%TO.N,IO13*%
X189840000Y-99760000D03*
%TO.P,J5,12,12*%
%TO.N,IO14*%
X189840000Y-102300000D03*
%TO.P,J5,13,13*%
%TO.N,IO15*%
X189840000Y-104840000D03*
%TO.P,J5,14,14*%
%TO.N,IO16*%
X189840000Y-107380000D03*
%TO.P,J5,15,15*%
%TO.N,IO17*%
X189840000Y-109920000D03*
%TO.P,J5,16,16*%
%TO.N,IO18*%
X189840000Y-112460000D03*
%TO.P,J5,17,17*%
%TO.N,V_USB*%
X189840000Y-115000000D03*
%TD*%
D10*
%TO.P,J6,1,1*%
%TO.N,GND*%
X210160000Y-69280000D03*
D11*
%TO.P,J6,2,2*%
%TO.N,IO46*%
X210160000Y-71820000D03*
%TO.P,J6,3,3*%
%TO.N,IO45*%
X210160000Y-74360000D03*
%TO.P,J6,4,4*%
%TO.N,RX*%
X210160000Y-76900000D03*
%TO.P,J6,5,5*%
%TO.N,TX*%
X210160000Y-79440000D03*
%TO.P,J6,6,6*%
%TO.N,MTMS*%
X210160000Y-81980000D03*
%TO.P,J6,7,7*%
%TO.N,MTDI*%
X210160000Y-84520000D03*
%TO.P,J6,8,8*%
%TO.N,MTDO*%
X210160000Y-87060000D03*
%TO.P,J6,9,9*%
%TO.N,MTCK*%
X210160000Y-89600000D03*
%TO.P,J6,10,10*%
%TO.N,IO38*%
X210160000Y-92140000D03*
%TO.P,J6,11,11*%
%TO.N,IO37*%
X210160000Y-94680000D03*
%TO.P,J6,12,12*%
%TO.N,IO36*%
X210160000Y-97220000D03*
%TO.P,J6,13,13*%
%TO.N,IO35*%
X210160000Y-99760000D03*
%TO.P,J6,14,14*%
%TO.N,IO34*%
X210160000Y-102300000D03*
%TO.P,J6,15,15*%
%TO.N,IO33*%
X210160000Y-104840000D03*
%TO.P,J6,16,16*%
%TO.N,IO47*%
X210160000Y-107380000D03*
%TO.P,J6,17,17*%
%TO.N,IO26*%
X210160000Y-109920000D03*
%TO.P,J6,18,18*%
%TO.N,IO21*%
X210160000Y-112460000D03*
%TO.P,J6,19,19*%
%TO.N,GND*%
X210160000Y-115000000D03*
%TD*%
D10*
%TO.P,J4,1,1*%
%TO.N,GND*%
X189875000Y-69270000D03*
%TD*%
D12*
%TO.P,J2,MH1,MH1*%
%TO.N,GND*%
X198235000Y-93150000D03*
%TO.P,J2,MH2,MH2*%
X198235000Y-88350000D03*
%TO.P,J2,MH3,MH3*%
X202535000Y-88350000D03*
%TO.P,J2,MH4,MH4*%
X202535000Y-93150000D03*
%TD*%
D13*
%TO.N,GND*%
X194300000Y-111100000D03*
D14*
X196300000Y-86400000D03*
D13*
X203293413Y-97306587D03*
X194100000Y-101750000D03*
X195750000Y-98850000D03*
X198250000Y-111450000D03*
X192100000Y-114500000D03*
X198050000Y-105521130D03*
X207750000Y-114750000D03*
D14*
X194250000Y-71000000D03*
D13*
X198250000Y-95500000D03*
D14*
X196000000Y-93750000D03*
X195900000Y-82500000D03*
D13*
X197800000Y-108100000D03*
X200500000Y-100400000D03*
D14*
X202500000Y-86500000D03*
D13*
X202500000Y-95500000D03*
X197800000Y-109700000D03*
X203385000Y-91750000D03*
X198290000Y-98000000D03*
X196635000Y-90240000D03*
D14*
X195250000Y-96100000D03*
X196000000Y-104750000D03*
X205000000Y-103750000D03*
X207000000Y-84475000D03*
X202500000Y-104500000D03*
D13*
X200385000Y-88750000D03*
X200385000Y-92750000D03*
D14*
X197250000Y-101750000D03*
X194500000Y-89500000D03*
X198250000Y-86500000D03*
D13*
X205900000Y-78400000D03*
X205500000Y-101500000D03*
%TO.N,VSYS*%
X196800000Y-109620000D03*
X196800000Y-108200000D03*
X195067500Y-101750000D03*
%TO.N,V_USB*%
X197000000Y-112480000D03*
X193600000Y-96700000D03*
D14*
%TO.N,IO36*%
X205900000Y-81081823D03*
%TO.N,IO35*%
X205947135Y-81954671D03*
%TO.N,BAT_ALRT*%
X196000000Y-96100000D03*
X196500000Y-101750000D03*
X194374000Y-78500000D03*
X195775000Y-77500000D03*
X196000000Y-97412500D03*
X194000000Y-73950000D03*
%TO.N,LED*%
X196800000Y-87125641D03*
D13*
X192300000Y-74800000D03*
D14*
%TO.N,IO37*%
X205900000Y-80250000D03*
D13*
%TO.N,3V3*%
X201450000Y-100400000D03*
X201850000Y-96750000D03*
X193600000Y-95475000D03*
X194675000Y-96750000D03*
X191549000Y-74300000D03*
D14*
%TO.N,SCL*%
X196300000Y-80750000D03*
X203986000Y-97912500D03*
X196259998Y-106001619D03*
%TO.N,SDA*%
X197052983Y-107441051D03*
X196600000Y-79900000D03*
X204788255Y-95663204D03*
X203900000Y-100000000D03*
D13*
%TO.N,D+*%
X202385000Y-90500000D03*
X200850000Y-85750000D03*
X198385000Y-91000000D03*
D14*
%TO.N,RGB*%
X206125000Y-84475000D03*
X206250000Y-101000000D03*
D13*
%TO.N,D-*%
X202385000Y-91300000D03*
X200000000Y-85750000D03*
X198385000Y-90100000D03*
%TO.N,Net-(S1-NO)*%
X195750000Y-92500000D03*
D14*
X194725000Y-76750000D03*
%TO.N,Net-(S2-NO)*%
X205800000Y-71250000D03*
X206500000Y-92500000D03*
%TO.N,IO12*%
X192000000Y-87300000D03*
%TO.N,IO11*%
X193000000Y-84750000D03*
X194000000Y-81750000D03*
X191876000Y-86545238D03*
%TO.N,IO38*%
X205900000Y-79250000D03*
%TD*%
D15*
%TO.N,BAT_ALRT*%
X196500000Y-101750000D02*
X196500000Y-98000000D01*
X196500000Y-98000000D02*
X196000000Y-97500000D01*
X196000000Y-97500000D02*
X196000000Y-97412500D01*
D16*
%TO.N,VSYS*%
X196800000Y-108200000D02*
X195067500Y-106467500D01*
X196800000Y-108200000D02*
X196800000Y-109620000D01*
X195067500Y-106467500D02*
X195067500Y-101750000D01*
%TO.N,V_USB*%
X197000000Y-112480000D02*
X197000000Y-112840000D01*
X189951000Y-114799000D02*
X189875000Y-114799000D01*
X197000000Y-112840000D02*
X196140000Y-113700000D01*
X191050000Y-113700000D02*
X189951000Y-114799000D01*
X193250000Y-97050000D02*
X193600000Y-96700000D01*
X197000000Y-111450000D02*
X193250000Y-107700000D01*
X193250000Y-107700000D02*
X193250000Y-97050000D01*
X197000000Y-112480000D02*
X197000000Y-111450000D01*
X196140000Y-113700000D02*
X191050000Y-113700000D01*
D15*
%TO.N,IO36*%
X207898000Y-82898000D02*
X207898000Y-90905777D01*
X208899000Y-96149000D02*
X209970000Y-97220000D01*
X208649000Y-91656777D02*
X208649000Y-93000000D01*
X208000000Y-91007778D02*
X208649000Y-91656777D01*
X207898000Y-90905777D02*
X208000000Y-91007778D01*
X206600000Y-81600000D02*
X207898000Y-82898000D01*
X209970000Y-97220000D02*
X210125000Y-97220000D01*
X208899000Y-93250000D02*
X208899000Y-96149000D01*
X205899488Y-81081311D02*
X206418177Y-81600000D01*
X206418177Y-81600000D02*
X206600000Y-81600000D01*
X208649000Y-93000000D02*
X208899000Y-93250000D01*
%TO.N,IO35*%
X208500000Y-96516000D02*
X208500000Y-93347389D01*
X207546999Y-91051164D02*
X207547000Y-90750000D01*
X208298000Y-93145389D02*
X208298000Y-91802166D01*
X207547000Y-90750000D02*
X207547000Y-83047000D01*
X208298000Y-91802166D02*
X207546999Y-91051164D01*
X209032500Y-98667500D02*
X209032500Y-97048500D01*
X207547000Y-83047000D02*
X207000000Y-82500000D01*
X208500000Y-93347389D02*
X208298000Y-93145389D01*
X206492464Y-82500000D02*
X205947135Y-81954671D01*
X207000000Y-82500000D02*
X206492464Y-82500000D01*
X210125000Y-99760000D02*
X209032500Y-98667500D01*
X209032500Y-97048500D02*
X208500000Y-96516000D01*
%TO.N,BAT_ALRT*%
X195775000Y-75525000D02*
X195775000Y-77500000D01*
X195399000Y-85145388D02*
X194548000Y-84294388D01*
X194548000Y-79173000D02*
X194374000Y-78999000D01*
X196000000Y-96100000D02*
X196000000Y-96000000D01*
X194000000Y-73950000D02*
X194050000Y-74000000D01*
X195000000Y-92435412D02*
X195399000Y-92036412D01*
X194050000Y-74000000D02*
X194250000Y-74000000D01*
X194548000Y-84294388D02*
X194548000Y-79173000D01*
X194250000Y-74000000D02*
X195775000Y-75525000D01*
X194374000Y-78999000D02*
X194374000Y-78500000D01*
X196000000Y-96000000D02*
X195000000Y-95000000D01*
X195399000Y-92036412D02*
X195399000Y-85145388D01*
X195000000Y-95000000D02*
X195000000Y-92435412D01*
%TO.N,LED*%
X197000000Y-85750000D02*
X195250000Y-84000000D01*
D17*
X192300000Y-74800000D02*
X192250000Y-74750000D01*
D15*
X196800000Y-87125641D02*
X197000000Y-86925641D01*
X195250000Y-76500000D02*
X193550000Y-74800000D01*
X195250000Y-84000000D02*
X195250000Y-76500000D01*
X193550000Y-74800000D02*
X192300000Y-74800000D01*
X197000000Y-86925641D02*
X197000000Y-85750000D01*
%TO.N,IO37*%
X206500000Y-80750000D02*
X208249000Y-82499000D01*
X209000000Y-91511389D02*
X209000000Y-92750000D01*
X209250000Y-93805000D02*
X210125000Y-94680000D01*
X209000000Y-92750000D02*
X209250000Y-93000000D01*
X206310640Y-80750000D02*
X206500000Y-80750000D01*
X209250000Y-93000000D02*
X209250000Y-93805000D01*
X208249000Y-82499000D02*
X208249000Y-90760389D01*
X208249000Y-90760389D02*
X209000000Y-91511389D01*
X205943192Y-80382552D02*
X206310640Y-80750000D01*
D16*
%TO.N,3V3*%
X193600000Y-87350000D02*
X193600000Y-95475000D01*
X191549000Y-74300000D02*
X191549000Y-85299000D01*
X194675000Y-96550000D02*
X193600000Y-95475000D01*
X194675000Y-96625000D02*
X194675000Y-96750000D01*
X191549000Y-85299000D02*
X193600000Y-87350000D01*
X189935000Y-74300000D02*
X189875000Y-74360000D01*
X201850000Y-96750000D02*
X194800000Y-96750000D01*
X202500000Y-97400000D02*
X202500000Y-98900000D01*
X201850000Y-96750000D02*
X202500000Y-97400000D01*
X202500000Y-98900000D02*
X201450000Y-99950000D01*
X201450000Y-99950000D02*
X201450000Y-100400000D01*
X194675000Y-96750000D02*
X194675000Y-96550000D01*
X194800000Y-96750000D02*
X194675000Y-96625000D01*
X191549000Y-74300000D02*
X189935000Y-74300000D01*
D15*
%TO.N,SCL*%
X201250000Y-80750000D02*
X204187255Y-83687255D01*
X204187255Y-83687255D02*
X204187255Y-97112745D01*
X196300000Y-80750000D02*
X201250000Y-80750000D01*
X204000000Y-97300000D02*
X204187255Y-97112745D01*
X196259998Y-105440002D02*
X198800000Y-102900000D01*
X204000000Y-97786000D02*
X204000000Y-97300000D01*
X196259998Y-106001619D02*
X196259998Y-105440002D01*
X201300000Y-102900000D02*
X203200000Y-101000000D01*
X203200000Y-101000000D02*
X203200000Y-99500000D01*
X196350000Y-80800000D02*
X196300000Y-80750000D01*
D17*
X203986000Y-97800000D02*
X204000000Y-97786000D01*
D15*
X198800000Y-102900000D02*
X201300000Y-102900000D01*
X203986000Y-98714000D02*
X203986000Y-97912500D01*
X203200000Y-99500000D02*
X203986000Y-98714000D01*
%TO.N,SDA*%
X197052983Y-105703559D02*
X197052983Y-107441051D01*
X199056542Y-103700000D02*
X197052983Y-105703559D01*
X199100000Y-103700000D02*
X199056542Y-103700000D01*
X203900000Y-101400000D02*
X201600000Y-103700000D01*
X203900000Y-100000000D02*
X203900000Y-101400000D01*
X201116450Y-79900000D02*
X204800000Y-83583550D01*
X201600000Y-103700000D02*
X199100000Y-103700000D01*
X197052983Y-107441051D02*
X197100000Y-107394034D01*
D17*
X204800000Y-95651459D02*
X204800000Y-95500000D01*
D15*
X204800000Y-99100000D02*
X204800000Y-95500000D01*
X204800000Y-83583550D02*
X204800000Y-95500000D01*
X203900000Y-100000000D02*
X204800000Y-99100000D01*
D17*
X204788255Y-95663204D02*
X204800000Y-95651459D01*
D15*
X196600000Y-79900000D02*
X201116450Y-79900000D01*
%TO.N,D+*%
X201181000Y-88681000D02*
X201181000Y-86081000D01*
X202385000Y-90500000D02*
X202385000Y-89885000D01*
X202385000Y-89885000D02*
X201181000Y-88681000D01*
D17*
X200500000Y-90500000D02*
X202385000Y-90500000D01*
X200000000Y-91000000D02*
X200500000Y-90500000D01*
D15*
X201181000Y-86081000D02*
X200850000Y-85750000D01*
D17*
X198385000Y-91000000D02*
X200000000Y-91000000D01*
D15*
%TO.N,RGB*%
X206250000Y-93493877D02*
X207026000Y-92717877D01*
X205951000Y-84649000D02*
X206125000Y-84475000D01*
X207000000Y-92250000D02*
X205951000Y-91201000D01*
X207026000Y-92717877D02*
X207026000Y-92282123D01*
X206250000Y-101000000D02*
X206250000Y-93493877D01*
X205951000Y-91201000D02*
X205951000Y-84649000D01*
X206125000Y-84475000D02*
X206125000Y-84605000D01*
X207026000Y-92282123D02*
X207000000Y-92256123D01*
X207000000Y-92256123D02*
X207000000Y-92250000D01*
D17*
X206200000Y-84400000D02*
X206125000Y-84475000D01*
D15*
%TO.N,D-*%
X199589000Y-86161000D02*
X200000000Y-85750000D01*
X199589000Y-88796000D02*
X199589000Y-86161000D01*
X198385000Y-90000000D02*
X199589000Y-88796000D01*
D17*
X198385000Y-90100000D02*
X198385000Y-90000000D01*
D15*
%TO.N,Net-(S1-NO)*%
X194899000Y-77649000D02*
X194899000Y-84149000D01*
X194899000Y-84149000D02*
X195750000Y-85000000D01*
X194725000Y-76750000D02*
X194725000Y-77475000D01*
X194725000Y-77475000D02*
X194899000Y-77649000D01*
X195750000Y-85000000D02*
X195750000Y-92500000D01*
%TO.N,Net-(S2-NO)*%
X206500000Y-92400000D02*
X205600000Y-91500000D01*
D17*
X205750000Y-71351000D02*
X205800000Y-71301000D01*
D15*
X205600000Y-83100000D02*
X205000000Y-82500000D01*
X205000000Y-71951000D02*
X205600000Y-71351000D01*
X205000000Y-82500000D02*
X205000000Y-71951000D01*
X206500000Y-92500000D02*
X206500000Y-92400000D01*
D17*
X205750000Y-71250000D02*
X205801000Y-71301000D01*
D15*
X205600000Y-91500000D02*
X205600000Y-83100000D01*
%TO.N,IO12*%
X191751000Y-87549000D02*
X191751000Y-93349000D01*
X191000000Y-94100000D02*
X191000000Y-96100000D01*
X190900000Y-96200000D02*
X190895000Y-96200000D01*
X191000000Y-96100000D02*
X190900000Y-96200000D01*
X192000000Y-87300000D02*
X191751000Y-87549000D01*
X190895000Y-96200000D02*
X189875000Y-97220000D01*
X191751000Y-93349000D02*
X191000000Y-94100000D01*
%TO.N,IO11*%
X193000000Y-82750000D02*
X194000000Y-81750000D01*
X191400000Y-87021238D02*
X191400000Y-93155000D01*
X191876000Y-86545238D02*
X191400000Y-87021238D01*
X191400000Y-93155000D02*
X189875000Y-94680000D01*
X193000000Y-84750000D02*
X193000000Y-82750000D01*
%TO.N,IO38*%
X208600000Y-81950000D02*
X208600000Y-90615000D01*
X205900000Y-79250000D02*
X208600000Y-81950000D01*
X205750000Y-79250000D02*
X206000000Y-79250000D01*
X208600000Y-90615000D02*
X210125000Y-92140000D01*
%TD*%
%TA.AperFunction,Conductor*%
%TO.N,GND*%
G36*
X203564359Y-89025807D02*
G01*
X203564360Y-89025806D01*
X203586985Y-88994665D01*
X203586993Y-88994652D01*
X203677097Y-88817815D01*
X203679149Y-88818860D01*
X203717006Y-88771856D01*
X203783293Y-88749772D01*
X203850998Y-88767032D01*
X203898623Y-88818155D01*
X203911755Y-88873692D01*
X203911755Y-92626307D01*
X203892070Y-92693346D01*
X203839266Y-92739101D01*
X203770108Y-92749045D01*
X203706552Y-92720020D01*
X203678673Y-92681381D01*
X203677097Y-92682185D01*
X203586991Y-92505343D01*
X203564359Y-92474192D01*
X203034292Y-93004259D01*
X203019563Y-92949288D01*
X202951104Y-92830713D01*
X202854287Y-92733896D01*
X202735712Y-92665437D01*
X202680739Y-92650707D01*
X203210806Y-92120639D01*
X203210806Y-92120638D01*
X203179662Y-92098011D01*
X203007158Y-92010116D01*
X202823022Y-91950286D01*
X202726799Y-91935046D01*
X202663664Y-91905117D01*
X202626733Y-91845805D01*
X202627731Y-91775943D01*
X202666341Y-91717710D01*
X202684199Y-91705185D01*
X202692314Y-91700500D01*
X202785500Y-91607314D01*
X202851392Y-91493186D01*
X202885500Y-91365892D01*
X202885500Y-91234108D01*
X202851392Y-91106814D01*
X202850902Y-91105966D01*
X202838955Y-91085273D01*
X202785500Y-90992686D01*
X202780495Y-90987681D01*
X202747010Y-90926358D01*
X202751994Y-90856666D01*
X202780495Y-90812319D01*
X202785500Y-90807314D01*
X202851392Y-90693186D01*
X202885500Y-90565892D01*
X202885500Y-90434108D01*
X202851392Y-90306814D01*
X202785500Y-90192686D01*
X202696819Y-90104005D01*
X202663334Y-90042682D01*
X202660500Y-90016324D01*
X202660500Y-89830201D01*
X202660499Y-89830197D01*
X202627567Y-89750693D01*
X202621672Y-89736463D01*
X202614200Y-89666994D01*
X202645472Y-89604513D01*
X202705560Y-89568858D01*
X202716834Y-89566532D01*
X202823021Y-89549714D01*
X202823022Y-89549713D01*
X203007158Y-89489883D01*
X203179652Y-89401993D01*
X203179665Y-89401985D01*
X203210806Y-89379360D01*
X203210807Y-89379359D01*
X202680739Y-88849292D01*
X202735712Y-88834563D01*
X202854287Y-88766104D01*
X202951104Y-88669287D01*
X203019563Y-88550712D01*
X203034292Y-88495740D01*
X203564359Y-89025807D01*
G37*
%TD.AperFunction*%
%TA.AperFunction,Conductor*%
G36*
X200846664Y-87615175D02*
G01*
X200893356Y-87667153D01*
X200905500Y-87720672D01*
X200905500Y-88735800D01*
X200941562Y-88822861D01*
X200947443Y-88837059D01*
X202056104Y-89945719D01*
X202060441Y-89953663D01*
X202067689Y-89959088D01*
X202076925Y-89983850D01*
X202089589Y-90007042D01*
X202088943Y-90016070D01*
X202092107Y-90024552D01*
X202086490Y-90050374D01*
X202084605Y-90076734D01*
X202078787Y-90085786D01*
X202077256Y-90092826D01*
X202056105Y-90121080D01*
X202014006Y-90163180D01*
X201952684Y-90196666D01*
X201926324Y-90199500D01*
X200460438Y-90199500D01*
X200384010Y-90219978D01*
X200315489Y-90259540D01*
X200315486Y-90259542D01*
X199911848Y-90663181D01*
X199850525Y-90696666D01*
X199824167Y-90699500D01*
X198843676Y-90699500D01*
X198814235Y-90690855D01*
X198784249Y-90684332D01*
X198779233Y-90680577D01*
X198776637Y-90679815D01*
X198755995Y-90663181D01*
X198730495Y-90637681D01*
X198697010Y-90576358D01*
X198701994Y-90506666D01*
X198730495Y-90462319D01*
X198743292Y-90449522D01*
X198785500Y-90407314D01*
X198851392Y-90293186D01*
X198885500Y-90165892D01*
X198885500Y-90034108D01*
X198873388Y-89988905D01*
X198875051Y-89919056D01*
X198905482Y-89869132D01*
X199107621Y-89666994D01*
X199822557Y-88952059D01*
X199838091Y-88914557D01*
X199864500Y-88850800D01*
X199864500Y-87720672D01*
X199884185Y-87653633D01*
X199936989Y-87607878D01*
X200006147Y-87597934D01*
X200049588Y-87614580D01*
X200050182Y-87613471D01*
X200055563Y-87616347D01*
X200162133Y-87660489D01*
X200182130Y-87668772D01*
X200182134Y-87668772D01*
X200182135Y-87668773D01*
X200316496Y-87695500D01*
X200316499Y-87695500D01*
X200453503Y-87695500D01*
X200560622Y-87674192D01*
X200587870Y-87668772D01*
X200714443Y-87616344D01*
X200714448Y-87616340D01*
X200719818Y-87613471D01*
X200720661Y-87615048D01*
X200779284Y-87596692D01*
X200846664Y-87615175D01*
G37*
%TD.AperFunction*%
%TA.AperFunction,Conductor*%
G36*
X208803039Y-68720185D02*
G01*
X208848794Y-68772989D01*
X208860000Y-68824500D01*
X208860000Y-69030000D01*
X209844314Y-69030000D01*
X209839920Y-69034394D01*
X209787259Y-69125606D01*
X209760000Y-69227339D01*
X209760000Y-69332661D01*
X209787259Y-69434394D01*
X209839920Y-69525606D01*
X209844314Y-69530000D01*
X208860000Y-69530000D01*
X208860000Y-70127844D01*
X208866401Y-70187372D01*
X208866403Y-70187379D01*
X208916645Y-70322086D01*
X208916649Y-70322093D01*
X209002809Y-70437187D01*
X209002812Y-70437190D01*
X209117906Y-70523350D01*
X209117913Y-70523354D01*
X209252620Y-70573596D01*
X209252627Y-70573598D01*
X209312155Y-70579999D01*
X209312172Y-70580000D01*
X210006513Y-70580000D01*
X210073552Y-70599685D01*
X210119307Y-70652489D01*
X210129251Y-70721647D01*
X210100226Y-70785203D01*
X210041448Y-70822977D01*
X210030705Y-70825617D01*
X209868170Y-70857947D01*
X209868160Y-70857950D01*
X209686092Y-70933364D01*
X209686079Y-70933371D01*
X209522218Y-71042860D01*
X209522214Y-71042863D01*
X209382863Y-71182214D01*
X209382860Y-71182218D01*
X209273371Y-71346079D01*
X209273364Y-71346092D01*
X209197950Y-71528160D01*
X209197947Y-71528170D01*
X209159500Y-71721456D01*
X209159500Y-71721459D01*
X209159500Y-71918541D01*
X209159500Y-71918543D01*
X209159499Y-71918543D01*
X209197947Y-72111829D01*
X209197950Y-72111839D01*
X209273364Y-72293907D01*
X209273371Y-72293920D01*
X209382860Y-72457781D01*
X209382863Y-72457785D01*
X209522214Y-72597136D01*
X209522218Y-72597139D01*
X209686079Y-72706628D01*
X209686092Y-72706635D01*
X209868160Y-72782049D01*
X209868165Y-72782051D01*
X210059691Y-72820148D01*
X210121602Y-72852533D01*
X210156176Y-72913248D01*
X210159500Y-72941765D01*
X210159500Y-73238234D01*
X210139815Y-73305273D01*
X210087011Y-73351028D01*
X210059692Y-73359851D01*
X209868170Y-73397947D01*
X209868160Y-73397950D01*
X209686092Y-73473364D01*
X209686079Y-73473371D01*
X209522218Y-73582860D01*
X209522214Y-73582863D01*
X209382863Y-73722214D01*
X209382860Y-73722218D01*
X209273371Y-73886079D01*
X209273364Y-73886092D01*
X209197950Y-74068160D01*
X209197947Y-74068170D01*
X209159500Y-74261456D01*
X209159500Y-74261459D01*
X209159500Y-74458541D01*
X209159500Y-74458543D01*
X209159499Y-74458543D01*
X209197947Y-74651829D01*
X209197950Y-74651839D01*
X209273364Y-74833907D01*
X209273371Y-74833920D01*
X209382860Y-74997781D01*
X209382863Y-74997785D01*
X209522214Y-75137136D01*
X209522218Y-75137139D01*
X209686079Y-75246628D01*
X209686092Y-75246635D01*
X209825918Y-75304552D01*
X209868165Y-75322051D01*
X210059691Y-75360148D01*
X210121602Y-75392533D01*
X210156176Y-75453248D01*
X210159500Y-75481765D01*
X210159500Y-75778234D01*
X210139815Y-75845273D01*
X210087011Y-75891028D01*
X210059692Y-75899851D01*
X209868170Y-75937947D01*
X209868160Y-75937950D01*
X209686092Y-76013364D01*
X209686079Y-76013371D01*
X209522218Y-76122860D01*
X209522214Y-76122863D01*
X209382863Y-76262214D01*
X209382860Y-76262218D01*
X209273371Y-76426079D01*
X209273364Y-76426092D01*
X209197950Y-76608160D01*
X209197947Y-76608170D01*
X209159500Y-76801456D01*
X209159500Y-76801459D01*
X209159500Y-76998541D01*
X209159500Y-76998543D01*
X209159499Y-76998543D01*
X209197947Y-77191829D01*
X209197950Y-77191839D01*
X209273364Y-77373907D01*
X209273371Y-77373920D01*
X209382860Y-77537781D01*
X209382863Y-77537785D01*
X209522214Y-77677136D01*
X209522218Y-77677139D01*
X209686079Y-77786628D01*
X209686092Y-77786635D01*
X209864394Y-77860489D01*
X209868165Y-77862051D01*
X210059691Y-77900148D01*
X210121602Y-77932533D01*
X210156176Y-77993248D01*
X210159500Y-78021765D01*
X210159500Y-78318234D01*
X210139815Y-78385273D01*
X210087011Y-78431028D01*
X210059692Y-78439851D01*
X209868170Y-78477947D01*
X209868160Y-78477950D01*
X209686092Y-78553364D01*
X209686079Y-78553371D01*
X209522218Y-78662860D01*
X209522214Y-78662863D01*
X209382863Y-78802214D01*
X209382860Y-78802218D01*
X209273371Y-78966079D01*
X209273364Y-78966092D01*
X209197950Y-79148160D01*
X209197947Y-79148170D01*
X209159500Y-79341456D01*
X209159500Y-79341459D01*
X209159500Y-79538541D01*
X209159500Y-79538543D01*
X209159499Y-79538543D01*
X209197947Y-79731829D01*
X209197950Y-79731839D01*
X209273364Y-79913907D01*
X209273371Y-79913920D01*
X209382860Y-80077781D01*
X209382863Y-80077785D01*
X209522214Y-80217136D01*
X209522218Y-80217139D01*
X209686079Y-80326628D01*
X209686092Y-80326635D01*
X209837895Y-80389513D01*
X209868165Y-80402051D01*
X210059691Y-80440148D01*
X210121602Y-80472533D01*
X210156176Y-80533248D01*
X210159500Y-80561765D01*
X210159500Y-80858234D01*
X210139815Y-80925273D01*
X210087011Y-80971028D01*
X210059692Y-80979851D01*
X209868170Y-81017947D01*
X209868160Y-81017950D01*
X209686092Y-81093364D01*
X209686079Y-81093371D01*
X209522218Y-81202860D01*
X209522214Y-81202863D01*
X209382863Y-81342214D01*
X209382860Y-81342218D01*
X209273371Y-81506079D01*
X209273364Y-81506092D01*
X209197950Y-81688160D01*
X209197947Y-81688170D01*
X209159500Y-81881456D01*
X209159500Y-81881459D01*
X209159500Y-82078541D01*
X209159500Y-82078543D01*
X209159499Y-82078543D01*
X209197947Y-82271829D01*
X209197950Y-82271839D01*
X209273364Y-82453907D01*
X209273371Y-82453920D01*
X209382860Y-82617781D01*
X209382863Y-82617785D01*
X209522214Y-82757136D01*
X209522218Y-82757139D01*
X209686079Y-82866628D01*
X209686092Y-82866635D01*
X209804009Y-82915477D01*
X209868165Y-82942051D01*
X210059691Y-82980148D01*
X210121602Y-83012533D01*
X210156176Y-83073248D01*
X210159500Y-83101765D01*
X210159500Y-83398234D01*
X210139815Y-83465273D01*
X210087011Y-83511028D01*
X210059692Y-83519851D01*
X209868170Y-83557947D01*
X209868160Y-83557950D01*
X209686092Y-83633364D01*
X209686079Y-83633371D01*
X209522218Y-83742860D01*
X209522214Y-83742863D01*
X209382863Y-83882214D01*
X209382860Y-83882218D01*
X209273371Y-84046079D01*
X209273364Y-84046092D01*
X209197950Y-84228160D01*
X209197947Y-84228170D01*
X209159500Y-84421456D01*
X209159500Y-84421459D01*
X209159500Y-84618541D01*
X209159500Y-84618543D01*
X209159499Y-84618543D01*
X209197947Y-84811829D01*
X209197950Y-84811839D01*
X209273364Y-84993907D01*
X209273371Y-84993920D01*
X209382860Y-85157781D01*
X209382863Y-85157785D01*
X209522214Y-85297136D01*
X209522218Y-85297139D01*
X209686079Y-85406628D01*
X209686092Y-85406635D01*
X209799451Y-85453589D01*
X209868165Y-85482051D01*
X210059691Y-85520148D01*
X210121602Y-85552533D01*
X210156176Y-85613248D01*
X210159500Y-85641765D01*
X210159500Y-85938234D01*
X210139815Y-86005273D01*
X210087011Y-86051028D01*
X210059692Y-86059851D01*
X209868170Y-86097947D01*
X209868160Y-86097950D01*
X209686092Y-86173364D01*
X209686079Y-86173371D01*
X209522218Y-86282860D01*
X209522214Y-86282863D01*
X209382863Y-86422214D01*
X209382860Y-86422218D01*
X209273371Y-86586079D01*
X209273364Y-86586092D01*
X209197950Y-86768160D01*
X209197947Y-86768170D01*
X209159500Y-86961456D01*
X209159500Y-86961459D01*
X209159500Y-87158541D01*
X209159500Y-87158543D01*
X209159499Y-87158543D01*
X209197947Y-87351829D01*
X209197950Y-87351839D01*
X209273364Y-87533907D01*
X209273371Y-87533920D01*
X209382860Y-87697781D01*
X209382863Y-87697785D01*
X209522214Y-87837136D01*
X209522218Y-87837139D01*
X209686079Y-87946628D01*
X209686092Y-87946635D01*
X209868160Y-88022049D01*
X209868165Y-88022051D01*
X210059691Y-88060148D01*
X210121602Y-88092533D01*
X210156176Y-88153248D01*
X210159500Y-88181765D01*
X210159500Y-88478234D01*
X210139815Y-88545273D01*
X210087011Y-88591028D01*
X210059692Y-88599851D01*
X209868170Y-88637947D01*
X209868160Y-88637950D01*
X209686092Y-88713364D01*
X209686079Y-88713371D01*
X209522218Y-88822860D01*
X209522214Y-88822863D01*
X209382863Y-88962214D01*
X209382861Y-88962217D01*
X209273371Y-89126079D01*
X209273364Y-89126092D01*
X209197950Y-89308160D01*
X209197947Y-89308170D01*
X209159500Y-89501456D01*
X209159500Y-89501459D01*
X209159500Y-89698541D01*
X209159500Y-89698543D01*
X209159499Y-89698543D01*
X209197947Y-89891829D01*
X209197950Y-89891839D01*
X209273364Y-90073907D01*
X209273371Y-90073920D01*
X209382860Y-90237781D01*
X209382863Y-90237785D01*
X209522214Y-90377136D01*
X209522218Y-90377139D01*
X209686079Y-90486628D01*
X209686092Y-90486635D01*
X209808176Y-90537203D01*
X209868165Y-90562051D01*
X210059691Y-90600148D01*
X210121602Y-90632533D01*
X210156176Y-90693248D01*
X210159500Y-90721765D01*
X210159500Y-91018234D01*
X210139815Y-91085273D01*
X210087011Y-91131028D01*
X210059692Y-91139851D01*
X209868170Y-91177947D01*
X209868160Y-91177950D01*
X209721548Y-91238679D01*
X209652079Y-91246148D01*
X209589600Y-91214873D01*
X209586415Y-91211799D01*
X208911819Y-90537203D01*
X208878334Y-90475880D01*
X208875500Y-90449522D01*
X208875500Y-81895201D01*
X208875499Y-81895198D01*
X208867340Y-81875500D01*
X208867340Y-81875499D01*
X208833560Y-81793944D01*
X206386819Y-79347203D01*
X206353334Y-79285880D01*
X206350500Y-79259522D01*
X206350500Y-79190693D01*
X206350500Y-79190691D01*
X206319799Y-79076114D01*
X206260489Y-78973387D01*
X206176613Y-78889511D01*
X206073886Y-78830201D01*
X205959309Y-78799500D01*
X205840691Y-78799500D01*
X205726114Y-78830201D01*
X205726112Y-78830201D01*
X205726112Y-78830202D01*
X205623387Y-78889511D01*
X205623384Y-78889513D01*
X205539513Y-78973384D01*
X205539511Y-78973387D01*
X205506887Y-79029893D01*
X205456319Y-79078108D01*
X205387712Y-79091330D01*
X205322847Y-79065362D01*
X205282319Y-79008447D01*
X205275500Y-78967892D01*
X205275500Y-72116476D01*
X205295185Y-72049437D01*
X205311815Y-72028799D01*
X205610747Y-71729866D01*
X205672068Y-71696383D01*
X205730521Y-71697775D01*
X205734709Y-71698897D01*
X205740691Y-71700500D01*
X205740692Y-71700500D01*
X205859306Y-71700500D01*
X205859309Y-71700500D01*
X205973886Y-71669799D01*
X206076613Y-71610489D01*
X206160489Y-71526613D01*
X206219799Y-71423886D01*
X206250500Y-71309309D01*
X206250500Y-71190691D01*
X206219799Y-71076114D01*
X206160489Y-70973387D01*
X206076613Y-70889511D01*
X205973886Y-70830201D01*
X205859309Y-70799500D01*
X205740691Y-70799500D01*
X205626114Y-70830201D01*
X205626112Y-70830201D01*
X205626112Y-70830202D01*
X205523387Y-70889511D01*
X205523384Y-70889513D01*
X205439513Y-70973384D01*
X205439511Y-70973387D01*
X205380201Y-71076112D01*
X205350342Y-71187548D01*
X205318248Y-71243135D01*
X204843942Y-71717443D01*
X204766444Y-71794940D01*
X204724500Y-71896199D01*
X204724500Y-82554802D01*
X204766023Y-82655046D01*
X204766440Y-82656054D01*
X204766444Y-82656059D01*
X205288181Y-83177796D01*
X205321666Y-83239119D01*
X205324500Y-83265477D01*
X205324500Y-91554800D01*
X205351706Y-91620480D01*
X205366443Y-91656058D01*
X205366444Y-91656059D01*
X206020342Y-92309958D01*
X206053827Y-92371281D01*
X206052437Y-92429727D01*
X206049500Y-92440686D01*
X206049500Y-92440691D01*
X206049500Y-92559309D01*
X206080201Y-92673886D01*
X206139511Y-92776613D01*
X206223387Y-92860489D01*
X206246671Y-92873932D01*
X206254853Y-92878656D01*
X206303069Y-92929223D01*
X206316291Y-92997830D01*
X206290323Y-93062695D01*
X206280535Y-93073724D01*
X206093942Y-93260320D01*
X206016443Y-93337819D01*
X205974500Y-93439076D01*
X205974500Y-100587036D01*
X205954815Y-100654075D01*
X205938181Y-100674717D01*
X205889513Y-100723384D01*
X205889511Y-100723387D01*
X205830201Y-100826114D01*
X205799500Y-100940691D01*
X205799500Y-101059309D01*
X205830201Y-101173886D01*
X205889511Y-101276613D01*
X205973387Y-101360489D01*
X206076114Y-101419799D01*
X206190691Y-101450500D01*
X206190694Y-101450500D01*
X206309306Y-101450500D01*
X206309309Y-101450500D01*
X206423886Y-101419799D01*
X206526613Y-101360489D01*
X206610489Y-101276613D01*
X206669799Y-101173886D01*
X206700500Y-101059309D01*
X206700500Y-100940691D01*
X206669799Y-100826114D01*
X206610489Y-100723387D01*
X206561819Y-100674717D01*
X206528334Y-100613394D01*
X206525500Y-100587036D01*
X206525500Y-93659354D01*
X206545185Y-93592315D01*
X206561819Y-93571673D01*
X206886690Y-93246802D01*
X207259558Y-92873935D01*
X207259558Y-92873933D01*
X207259560Y-92873932D01*
X207287153Y-92807313D01*
X207301500Y-92772677D01*
X207301500Y-92663077D01*
X207301500Y-92227323D01*
X207290951Y-92201855D01*
X207259558Y-92126065D01*
X207241110Y-92107617D01*
X207235405Y-92096708D01*
X207233558Y-92093945D01*
X207233557Y-92093942D01*
X207156058Y-92016443D01*
X206262819Y-91123204D01*
X206229334Y-91061881D01*
X206226500Y-91035523D01*
X206226500Y-85007636D01*
X206246185Y-84940597D01*
X206292681Y-84900307D01*
X206291847Y-84898863D01*
X206298886Y-84894799D01*
X206401613Y-84835489D01*
X206485489Y-84751613D01*
X206544799Y-84648886D01*
X206575500Y-84534309D01*
X206575500Y-84415691D01*
X206544799Y-84301114D01*
X206485489Y-84198387D01*
X206401613Y-84114511D01*
X206298886Y-84055201D01*
X206184309Y-84024500D01*
X206065691Y-84024500D01*
X206065686Y-84024500D01*
X206031591Y-84033636D01*
X205961741Y-84031972D01*
X205903880Y-83992809D01*
X205876377Y-83928580D01*
X205875500Y-83913861D01*
X205875500Y-83045201D01*
X205875500Y-83045200D01*
X205833557Y-82943942D01*
X205833557Y-82943941D01*
X205311819Y-82422203D01*
X205278334Y-82360880D01*
X205275500Y-82334522D01*
X205275500Y-82130564D01*
X205295185Y-82063525D01*
X205347989Y-82017770D01*
X205417147Y-82007826D01*
X205480703Y-82036851D01*
X205518477Y-82095629D01*
X205519262Y-82098426D01*
X205523131Y-82112863D01*
X205527336Y-82128558D01*
X205551147Y-82169799D01*
X205586646Y-82231284D01*
X205670522Y-82315160D01*
X205773249Y-82374470D01*
X205887826Y-82405171D01*
X205887829Y-82405171D01*
X205956657Y-82405171D01*
X206023696Y-82424856D01*
X206044338Y-82441490D01*
X206336408Y-82733560D01*
X206414721Y-82765997D01*
X206437664Y-82775500D01*
X206834523Y-82775500D01*
X206901562Y-82795185D01*
X206922204Y-82811819D01*
X207235181Y-83124796D01*
X207268666Y-83186119D01*
X207271500Y-83212477D01*
X207271500Y-90695199D01*
X207271499Y-91105961D01*
X207271500Y-91105966D01*
X207313438Y-91207218D01*
X207313441Y-91207221D01*
X207313442Y-91207222D01*
X207986182Y-91879963D01*
X208019666Y-91941284D01*
X208022500Y-91967642D01*
X208022500Y-93200189D01*
X208060774Y-93292589D01*
X208064443Y-93301447D01*
X208190671Y-93427675D01*
X208193002Y-93430286D01*
X208206539Y-93458805D01*
X208221666Y-93486508D01*
X208222245Y-93491893D01*
X208222963Y-93493406D01*
X208222660Y-93495756D01*
X208224500Y-93512866D01*
X208224500Y-96570800D01*
X208250723Y-96634107D01*
X208256176Y-96647270D01*
X208256176Y-96647272D01*
X208260455Y-96657601D01*
X208266443Y-96672058D01*
X208266445Y-96672060D01*
X208720681Y-97126296D01*
X208754166Y-97187619D01*
X208757000Y-97213977D01*
X208757000Y-98722300D01*
X208798943Y-98823558D01*
X208798944Y-98823559D01*
X209211296Y-99235911D01*
X209244781Y-99297234D01*
X209239797Y-99366926D01*
X209238177Y-99371043D01*
X209197948Y-99468168D01*
X209197947Y-99468171D01*
X209159500Y-99661456D01*
X209159500Y-99661459D01*
X209159500Y-99858541D01*
X209159500Y-99858543D01*
X209159499Y-99858543D01*
X209197947Y-100051829D01*
X209197950Y-100051839D01*
X209273364Y-100233907D01*
X209273371Y-100233920D01*
X209382860Y-100397781D01*
X209382863Y-100397785D01*
X209522214Y-100537136D01*
X209522218Y-100537139D01*
X209686079Y-100646628D01*
X209686092Y-100646635D01*
X209832584Y-100707313D01*
X209868165Y-100722051D01*
X210059691Y-100760148D01*
X210121602Y-100792533D01*
X210156176Y-100853248D01*
X210159500Y-100881765D01*
X210159500Y-101178234D01*
X210139815Y-101245273D01*
X210087011Y-101291028D01*
X210059692Y-101299851D01*
X209868170Y-101337947D01*
X209868160Y-101337950D01*
X209686092Y-101413364D01*
X209686079Y-101413371D01*
X209522218Y-101522860D01*
X209522214Y-101522863D01*
X209382863Y-101662214D01*
X209382860Y-101662218D01*
X209273371Y-101826079D01*
X209273364Y-101826092D01*
X209197950Y-102008160D01*
X209197947Y-102008170D01*
X209159500Y-102201456D01*
X209159500Y-102201459D01*
X209159500Y-102398541D01*
X209159500Y-102398543D01*
X209159499Y-102398543D01*
X209197947Y-102591829D01*
X209197950Y-102591839D01*
X209273364Y-102773907D01*
X209273371Y-102773920D01*
X209382860Y-102937781D01*
X209382863Y-102937785D01*
X209522214Y-103077136D01*
X209522218Y-103077139D01*
X209686079Y-103186628D01*
X209686092Y-103186635D01*
X209868160Y-103262049D01*
X209868165Y-103262051D01*
X210059691Y-103300148D01*
X210121602Y-103332533D01*
X210156176Y-103393248D01*
X210159500Y-103421765D01*
X210159500Y-103718234D01*
X210139815Y-103785273D01*
X210087011Y-103831028D01*
X210059692Y-103839851D01*
X209868170Y-103877947D01*
X209868160Y-103877950D01*
X209686092Y-103953364D01*
X209686079Y-103953371D01*
X209522218Y-104062860D01*
X209522214Y-104062863D01*
X209382863Y-104202214D01*
X209382860Y-104202218D01*
X209273371Y-104366079D01*
X209273364Y-104366092D01*
X209197950Y-104548160D01*
X209197947Y-104548170D01*
X209159500Y-104741456D01*
X209159500Y-104741459D01*
X209159500Y-104938541D01*
X209159500Y-104938543D01*
X209159499Y-104938543D01*
X209197947Y-105131829D01*
X209197950Y-105131839D01*
X209273364Y-105313907D01*
X209273371Y-105313920D01*
X209382860Y-105477781D01*
X209382863Y-105477785D01*
X209522214Y-105617136D01*
X209522218Y-105617139D01*
X209686079Y-105726628D01*
X209686092Y-105726635D01*
X209868160Y-105802049D01*
X209868165Y-105802051D01*
X210059691Y-105840148D01*
X210121602Y-105872533D01*
X210156176Y-105933248D01*
X210159500Y-105961765D01*
X210159500Y-106258234D01*
X210139815Y-106325273D01*
X210087011Y-106371028D01*
X210059692Y-106379851D01*
X209868170Y-106417947D01*
X209868160Y-106417950D01*
X209686092Y-106493364D01*
X209686079Y-106493371D01*
X209522218Y-106602860D01*
X209522214Y-106602863D01*
X209382863Y-106742214D01*
X209382860Y-106742218D01*
X209273371Y-106906079D01*
X209273364Y-106906092D01*
X209197950Y-107088160D01*
X209197947Y-107088170D01*
X209159500Y-107281456D01*
X209159500Y-107281459D01*
X209159500Y-107478541D01*
X209159500Y-107478543D01*
X209159499Y-107478543D01*
X209197947Y-107671829D01*
X209197950Y-107671839D01*
X209273364Y-107853907D01*
X209273371Y-107853920D01*
X209382860Y-108017781D01*
X209382863Y-108017785D01*
X209522214Y-108157136D01*
X209522218Y-108157139D01*
X209686079Y-108266628D01*
X209686092Y-108266635D01*
X209868160Y-108342049D01*
X209868165Y-108342051D01*
X210059691Y-108380148D01*
X210121602Y-108412533D01*
X210156176Y-108473248D01*
X210159500Y-108501765D01*
X210159500Y-108798234D01*
X210139815Y-108865273D01*
X210087011Y-108911028D01*
X210059692Y-108919851D01*
X209868170Y-108957947D01*
X209868160Y-108957950D01*
X209686092Y-109033364D01*
X209686079Y-109033371D01*
X209522218Y-109142860D01*
X209522214Y-109142863D01*
X209382863Y-109282214D01*
X209382860Y-109282218D01*
X209273371Y-109446079D01*
X209273364Y-109446092D01*
X209197950Y-109628160D01*
X209197947Y-109628170D01*
X209159500Y-109821456D01*
X209159500Y-109821459D01*
X209159500Y-110018541D01*
X209159500Y-110018543D01*
X209159499Y-110018543D01*
X209197947Y-110211829D01*
X209197950Y-110211839D01*
X209273364Y-110393907D01*
X209273371Y-110393920D01*
X209382860Y-110557781D01*
X209382863Y-110557785D01*
X209522214Y-110697136D01*
X209522218Y-110697139D01*
X209686079Y-110806628D01*
X209686092Y-110806635D01*
X209868160Y-110882049D01*
X209868165Y-110882051D01*
X210059691Y-110920148D01*
X210121602Y-110952533D01*
X210156176Y-111013248D01*
X210159500Y-111041765D01*
X210159500Y-111338234D01*
X210139815Y-111405273D01*
X210087011Y-111451028D01*
X210059692Y-111459851D01*
X209868170Y-111497947D01*
X209868160Y-111497950D01*
X209686092Y-111573364D01*
X209686079Y-111573371D01*
X209522218Y-111682860D01*
X209522214Y-111682863D01*
X209382863Y-111822214D01*
X209382860Y-111822218D01*
X209273371Y-111986079D01*
X209273364Y-111986092D01*
X209197950Y-112168160D01*
X209197947Y-112168170D01*
X209159500Y-112361456D01*
X209159500Y-112361459D01*
X209159500Y-112558541D01*
X209159500Y-112558543D01*
X209159499Y-112558543D01*
X209197947Y-112751829D01*
X209197950Y-112751839D01*
X209273364Y-112933907D01*
X209273371Y-112933920D01*
X209382860Y-113097781D01*
X209382863Y-113097785D01*
X209522214Y-113237136D01*
X209522218Y-113237139D01*
X209686079Y-113346628D01*
X209686092Y-113346635D01*
X209868160Y-113422049D01*
X209868165Y-113422051D01*
X210000674Y-113448409D01*
X210049061Y-113458034D01*
X210110972Y-113490419D01*
X210145546Y-113551134D01*
X210141807Y-113620904D01*
X210100940Y-113677576D01*
X210044269Y-113702124D01*
X209855581Y-113732010D01*
X209660968Y-113795244D01*
X209478644Y-113888143D01*
X209434077Y-113920523D01*
X209434077Y-113920524D01*
X210113554Y-114600000D01*
X210107339Y-114600000D01*
X210005606Y-114627259D01*
X209914394Y-114679920D01*
X209839920Y-114754394D01*
X209787259Y-114845606D01*
X209760000Y-114947339D01*
X209760000Y-114953553D01*
X209080524Y-114274077D01*
X209080523Y-114274077D01*
X209048143Y-114318644D01*
X208955244Y-114500968D01*
X208892009Y-114695582D01*
X208860000Y-114897682D01*
X208860000Y-115102317D01*
X208892009Y-115304417D01*
X208956749Y-115503660D01*
X208955603Y-115504032D01*
X208962464Y-115567921D01*
X208931181Y-115630396D01*
X208871088Y-115666041D01*
X208840166Y-115669889D01*
X190847072Y-115630517D01*
X190780075Y-115610685D01*
X190734436Y-115557782D01*
X190724644Y-115488601D01*
X190732779Y-115459071D01*
X190802051Y-115291835D01*
X190829390Y-115154394D01*
X190840500Y-115098543D01*
X190840500Y-114901456D01*
X190802052Y-114708170D01*
X190802051Y-114708169D01*
X190802051Y-114708165D01*
X190776986Y-114647654D01*
X190769518Y-114578188D01*
X190800792Y-114515709D01*
X190803835Y-114512555D01*
X191179573Y-114136819D01*
X191240896Y-114103334D01*
X191267254Y-114100500D01*
X196192725Y-114100500D01*
X196192727Y-114100500D01*
X196294588Y-114073207D01*
X196385913Y-114020480D01*
X197235703Y-113170687D01*
X197235708Y-113170684D01*
X197245911Y-113160480D01*
X197245913Y-113160480D01*
X197320480Y-113085913D01*
X197373207Y-112994587D01*
X197376667Y-112981672D01*
X197386122Y-112946391D01*
X197392198Y-112923710D01*
X197400501Y-112892727D01*
X197400501Y-112820537D01*
X197417113Y-112758538D01*
X197466392Y-112673186D01*
X197500500Y-112545892D01*
X197500500Y-112414108D01*
X197466392Y-112286814D01*
X197417113Y-112201460D01*
X197400500Y-112139460D01*
X197400500Y-111397275D01*
X197400500Y-111397273D01*
X197373207Y-111295413D01*
X197373207Y-111295412D01*
X197320480Y-111204087D01*
X193686819Y-107570426D01*
X193653334Y-107509103D01*
X193650500Y-107482745D01*
X193650500Y-101684108D01*
X194567000Y-101684108D01*
X194567000Y-101815892D01*
X194601108Y-101943186D01*
X194650387Y-102028540D01*
X194667000Y-102090539D01*
X194667000Y-106520226D01*
X194694293Y-106622089D01*
X194720656Y-106667750D01*
X194747020Y-106713413D01*
X194747022Y-106713415D01*
X196276005Y-108242398D01*
X196280637Y-108249330D01*
X196284875Y-108252273D01*
X196292081Y-108266458D01*
X196302885Y-108282626D01*
X196305996Y-108290136D01*
X196333608Y-108393186D01*
X196386952Y-108485580D01*
X196390061Y-108493086D01*
X196392256Y-108513505D01*
X196399500Y-108540539D01*
X196399500Y-109279460D01*
X196382887Y-109341460D01*
X196333609Y-109426810D01*
X196333609Y-109426811D01*
X196299500Y-109554108D01*
X196299500Y-109685891D01*
X196333608Y-109813187D01*
X196338384Y-109821459D01*
X196399500Y-109927314D01*
X196492686Y-110020500D01*
X196606814Y-110086392D01*
X196734108Y-110120500D01*
X196734110Y-110120500D01*
X196865890Y-110120500D01*
X196865892Y-110120500D01*
X196993186Y-110086392D01*
X197107314Y-110020500D01*
X197200500Y-109927314D01*
X197266392Y-109813186D01*
X197300500Y-109685892D01*
X197300500Y-109554108D01*
X197266392Y-109426814D01*
X197217113Y-109341460D01*
X197200500Y-109279460D01*
X197200500Y-108540539D01*
X197217112Y-108478540D01*
X197266392Y-108393186D01*
X197300500Y-108265892D01*
X197300500Y-108134108D01*
X197266392Y-108006814D01*
X197266390Y-108006810D01*
X197255307Y-107987613D01*
X197238834Y-107919713D01*
X197261687Y-107853686D01*
X197300691Y-107818228D01*
X197329596Y-107801540D01*
X197413472Y-107717664D01*
X197472782Y-107614937D01*
X197503483Y-107500360D01*
X197503483Y-107381742D01*
X197472782Y-107267165D01*
X197413472Y-107164438D01*
X197364802Y-107115768D01*
X197331317Y-107054445D01*
X197328483Y-107028087D01*
X197328483Y-105869036D01*
X197348168Y-105801997D01*
X197364802Y-105781355D01*
X199134339Y-104011819D01*
X199195662Y-103978334D01*
X199222020Y-103975500D01*
X201654799Y-103975500D01*
X201654800Y-103975500D01*
X201756058Y-103933557D01*
X201833557Y-103856058D01*
X201833556Y-103856058D01*
X201892125Y-103797489D01*
X201892124Y-103797489D01*
X204133557Y-101556059D01*
X204155084Y-101504087D01*
X204175500Y-101454800D01*
X204175500Y-100412964D01*
X204195185Y-100345925D01*
X204211819Y-100325283D01*
X204260489Y-100276613D01*
X204319799Y-100173886D01*
X204350500Y-100059309D01*
X204350500Y-99990477D01*
X204370185Y-99923438D01*
X204386819Y-99902796D01*
X204675500Y-99614115D01*
X205033557Y-99256059D01*
X205063597Y-99183535D01*
X205075500Y-99154800D01*
X205075500Y-96064423D01*
X205095185Y-95997384D01*
X205111819Y-95976742D01*
X205127980Y-95960581D01*
X205148744Y-95939817D01*
X205208054Y-95837090D01*
X205238755Y-95722513D01*
X205238755Y-95603895D01*
X205208054Y-95489318D01*
X205148744Y-95386591D01*
X205111819Y-95349666D01*
X205078334Y-95288343D01*
X205075500Y-95261985D01*
X205075500Y-83528751D01*
X205075500Y-83528750D01*
X205033557Y-83427492D01*
X205033557Y-83427491D01*
X201272508Y-79666443D01*
X201242678Y-79654087D01*
X201242675Y-79654085D01*
X201242674Y-79654085D01*
X201171252Y-79624500D01*
X201171250Y-79624500D01*
X197012964Y-79624500D01*
X196945925Y-79604815D01*
X196925283Y-79588181D01*
X196876615Y-79539513D01*
X196876613Y-79539511D01*
X196773886Y-79480201D01*
X196659309Y-79449500D01*
X196540691Y-79449500D01*
X196426114Y-79480201D01*
X196426112Y-79480201D01*
X196426112Y-79480202D01*
X196323387Y-79539511D01*
X196323384Y-79539513D01*
X196239513Y-79623384D01*
X196239511Y-79623387D01*
X196180201Y-79726114D01*
X196149500Y-79840691D01*
X196149500Y-79959309D01*
X196180201Y-80073886D01*
X196220312Y-80143359D01*
X196236785Y-80211259D01*
X196213933Y-80277286D01*
X196159012Y-80320477D01*
X196145023Y-80325134D01*
X196126112Y-80330201D01*
X196023387Y-80389511D01*
X196023384Y-80389513D01*
X195939513Y-80473384D01*
X195939511Y-80473387D01*
X195908780Y-80526615D01*
X195880201Y-80576114D01*
X195849500Y-80690691D01*
X195849500Y-80809309D01*
X195880201Y-80923886D01*
X195939511Y-81026613D01*
X196023387Y-81110489D01*
X196126114Y-81169799D01*
X196240691Y-81200500D01*
X196240694Y-81200500D01*
X196359306Y-81200500D01*
X196359309Y-81200500D01*
X196473886Y-81169799D01*
X196576613Y-81110489D01*
X196625283Y-81061819D01*
X196686606Y-81028334D01*
X196712964Y-81025500D01*
X201084523Y-81025500D01*
X201151562Y-81045185D01*
X201172204Y-81061819D01*
X203875436Y-83765051D01*
X203908921Y-83826374D01*
X203911755Y-83852732D01*
X203911755Y-87826307D01*
X203892070Y-87893346D01*
X203839266Y-87939101D01*
X203770108Y-87949045D01*
X203706552Y-87920020D01*
X203678673Y-87881381D01*
X203677097Y-87882185D01*
X203586991Y-87705343D01*
X203564359Y-87674192D01*
X203564358Y-87674192D01*
X203034292Y-88204259D01*
X203019563Y-88149288D01*
X202951104Y-88030713D01*
X202854287Y-87933896D01*
X202735712Y-87865437D01*
X202680739Y-87850707D01*
X203210806Y-87320639D01*
X203210806Y-87320638D01*
X203179662Y-87298011D01*
X203007158Y-87210116D01*
X202823022Y-87150286D01*
X202631802Y-87120000D01*
X202438198Y-87120000D01*
X202246977Y-87150286D01*
X202062841Y-87210116D01*
X201890337Y-87298011D01*
X201859192Y-87320639D01*
X201859191Y-87320639D01*
X202389260Y-87850707D01*
X202334288Y-87865437D01*
X202215713Y-87933896D01*
X202118896Y-88030713D01*
X202050437Y-88149288D01*
X202035707Y-88204260D01*
X201492819Y-87661371D01*
X201478115Y-87634443D01*
X201461523Y-87608625D01*
X201460631Y-87602424D01*
X201459334Y-87600048D01*
X201456500Y-87573690D01*
X201456500Y-86026201D01*
X201456500Y-86026200D01*
X201438837Y-85983558D01*
X201414558Y-85924942D01*
X201376777Y-85887161D01*
X201369267Y-85875112D01*
X201363546Y-85854582D01*
X201353334Y-85835880D01*
X201350500Y-85809522D01*
X201350500Y-85684110D01*
X201350500Y-85684108D01*
X201316392Y-85556814D01*
X201250500Y-85442686D01*
X201157314Y-85349500D01*
X201100250Y-85316554D01*
X201043187Y-85283608D01*
X200953224Y-85259503D01*
X200915892Y-85249500D01*
X200784108Y-85249500D01*
X200656812Y-85283608D01*
X200542686Y-85349500D01*
X200542683Y-85349502D01*
X200512681Y-85379505D01*
X200451358Y-85412990D01*
X200381666Y-85408006D01*
X200337319Y-85379505D01*
X200307316Y-85349502D01*
X200307314Y-85349500D01*
X200250250Y-85316554D01*
X200193187Y-85283608D01*
X200103224Y-85259503D01*
X200065892Y-85249500D01*
X199934108Y-85249500D01*
X199806812Y-85283608D01*
X199692686Y-85349500D01*
X199692683Y-85349502D01*
X199599502Y-85442683D01*
X199599500Y-85442686D01*
X199533608Y-85556812D01*
X199499500Y-85684108D01*
X199499500Y-85809521D01*
X199490855Y-85838960D01*
X199484333Y-85868946D01*
X199480577Y-85873963D01*
X199479815Y-85876560D01*
X199463183Y-85897201D01*
X199432943Y-85927442D01*
X199355443Y-86004942D01*
X199313500Y-86106199D01*
X199313500Y-87573689D01*
X199293815Y-87640728D01*
X199277181Y-87661370D01*
X198734292Y-88204260D01*
X198719563Y-88149288D01*
X198651104Y-88030713D01*
X198554287Y-87933896D01*
X198435712Y-87865437D01*
X198380739Y-87850707D01*
X198910806Y-87320639D01*
X198910806Y-87320638D01*
X198879662Y-87298011D01*
X198707158Y-87210116D01*
X198523022Y-87150286D01*
X198331802Y-87120000D01*
X198138198Y-87120000D01*
X197946977Y-87150286D01*
X197762841Y-87210116D01*
X197590337Y-87298011D01*
X197559192Y-87320639D01*
X197559191Y-87320639D01*
X198089260Y-87850707D01*
X198034288Y-87865437D01*
X197915713Y-87933896D01*
X197818896Y-88030713D01*
X197750437Y-88149288D01*
X197735707Y-88204260D01*
X197215336Y-87683888D01*
X197181333Y-87708630D01*
X197095116Y-87877841D01*
X197035286Y-88061977D01*
X197005000Y-88253197D01*
X197005000Y-88446802D01*
X197035286Y-88638022D01*
X197095116Y-88822158D01*
X197183011Y-88994662D01*
X197205638Y-89025806D01*
X197205639Y-89025806D01*
X197735707Y-88495738D01*
X197750437Y-88550712D01*
X197818896Y-88669287D01*
X197915713Y-88766104D01*
X198034288Y-88834563D01*
X198089259Y-88849292D01*
X197559192Y-89379358D01*
X197559192Y-89379359D01*
X197590343Y-89401991D01*
X197762841Y-89489883D01*
X197946977Y-89549713D01*
X197946975Y-89549713D01*
X197948754Y-89549995D01*
X197949374Y-89550289D01*
X197951714Y-89550851D01*
X197951596Y-89551342D01*
X198011889Y-89579925D01*
X198048819Y-89639237D01*
X198047821Y-89709100D01*
X198017037Y-89760148D01*
X197984503Y-89792682D01*
X197984500Y-89792686D01*
X197918608Y-89906812D01*
X197906055Y-89953663D01*
X197884500Y-90034108D01*
X197884500Y-90165892D01*
X197892746Y-90196666D01*
X197918608Y-90293187D01*
X197926475Y-90306812D01*
X197984500Y-90407314D01*
X197984502Y-90407316D01*
X198039505Y-90462319D01*
X198072990Y-90523642D01*
X198068006Y-90593334D01*
X198039505Y-90637681D01*
X197984502Y-90692683D01*
X197984500Y-90692686D01*
X197918608Y-90806812D01*
X197884500Y-90934108D01*
X197884500Y-91065891D01*
X197918608Y-91193187D01*
X197945902Y-91240460D01*
X197984500Y-91307314D01*
X198077686Y-91400500D01*
X198191814Y-91466392D01*
X198319108Y-91500500D01*
X198319110Y-91500500D01*
X198450890Y-91500500D01*
X198450892Y-91500500D01*
X198578186Y-91466392D01*
X198692314Y-91400500D01*
X198755995Y-91336819D01*
X198817318Y-91303334D01*
X198843676Y-91300500D01*
X200039560Y-91300500D01*
X200039562Y-91300500D01*
X200115989Y-91280021D01*
X200184511Y-91240460D01*
X200240460Y-91184511D01*
X200588152Y-90836819D01*
X200649475Y-90803334D01*
X200675833Y-90800500D01*
X201880685Y-90800500D01*
X201947724Y-90820185D01*
X201993479Y-90872989D01*
X202003423Y-90942147D01*
X201988072Y-90986501D01*
X201984502Y-90992683D01*
X201984500Y-90992686D01*
X201969750Y-91018234D01*
X201918608Y-91106812D01*
X201884500Y-91234108D01*
X201884500Y-91365891D01*
X201918608Y-91493187D01*
X201951554Y-91550250D01*
X201984500Y-91607314D01*
X202077686Y-91700500D01*
X202107495Y-91717710D01*
X202174296Y-91756278D01*
X202222512Y-91806845D01*
X202235734Y-91875452D01*
X202209766Y-91940317D01*
X202152852Y-91980845D01*
X202150615Y-91981596D01*
X202062840Y-92010116D01*
X201890337Y-92098011D01*
X201859192Y-92120639D01*
X201859191Y-92120639D01*
X202389260Y-92650707D01*
X202334288Y-92665437D01*
X202215713Y-92733896D01*
X202118896Y-92830713D01*
X202050437Y-92949288D01*
X202035707Y-93004260D01*
X201505639Y-92474191D01*
X201505639Y-92474192D01*
X201483011Y-92505337D01*
X201395116Y-92677841D01*
X201335286Y-92861977D01*
X201305000Y-93053197D01*
X201305000Y-93246802D01*
X201335286Y-93438022D01*
X201395116Y-93622158D01*
X201483011Y-93794662D01*
X201505638Y-93825806D01*
X201505639Y-93825806D01*
X202035707Y-93295738D01*
X202050437Y-93350712D01*
X202118896Y-93469287D01*
X202215713Y-93566104D01*
X202334288Y-93634563D01*
X202389259Y-93649292D01*
X201859192Y-94179358D01*
X201859192Y-94179359D01*
X201890343Y-94201991D01*
X202062841Y-94289883D01*
X202246977Y-94349713D01*
X202438198Y-94380000D01*
X202631802Y-94380000D01*
X202823022Y-94349713D01*
X203007158Y-94289883D01*
X203179652Y-94201993D01*
X203179665Y-94201985D01*
X203210806Y-94179360D01*
X203210807Y-94179359D01*
X202680740Y-93649292D01*
X202735712Y-93634563D01*
X202854287Y-93566104D01*
X202951104Y-93469287D01*
X203019563Y-93350712D01*
X203034292Y-93295740D01*
X203564359Y-93825807D01*
X203564360Y-93825806D01*
X203586985Y-93794665D01*
X203586993Y-93794652D01*
X203677097Y-93617815D01*
X203679149Y-93618860D01*
X203717006Y-93571856D01*
X203783293Y-93549772D01*
X203850998Y-93567032D01*
X203898623Y-93618155D01*
X203911755Y-93673692D01*
X203911755Y-96947266D01*
X203903110Y-96976705D01*
X203896588Y-97006691D01*
X203892832Y-97011708D01*
X203892070Y-97014305D01*
X203875438Y-97034946D01*
X203843943Y-97066442D01*
X203766443Y-97143942D01*
X203724500Y-97245199D01*
X203724500Y-97485535D01*
X203704815Y-97552574D01*
X203688182Y-97573216D01*
X203625511Y-97635887D01*
X203594780Y-97689115D01*
X203566201Y-97738614D01*
X203535500Y-97853191D01*
X203535500Y-97971809D01*
X203566201Y-98086386D01*
X203625511Y-98189113D01*
X203625513Y-98189115D01*
X203674181Y-98237783D01*
X203707666Y-98299106D01*
X203710500Y-98325464D01*
X203710500Y-98548523D01*
X203690815Y-98615562D01*
X203674181Y-98636204D01*
X203043942Y-99266443D01*
X203031236Y-99279149D01*
X203018531Y-99291853D01*
X203018520Y-99291864D01*
X202966443Y-99343942D01*
X202962774Y-99352798D01*
X202962774Y-99352799D01*
X202924500Y-99445199D01*
X202924500Y-100834522D01*
X202904815Y-100901561D01*
X202888181Y-100922203D01*
X201222204Y-102588181D01*
X201160881Y-102621666D01*
X201134523Y-102624500D01*
X198745198Y-102624500D01*
X198673599Y-102654158D01*
X198643939Y-102666443D01*
X196103940Y-105206445D01*
X196026442Y-105283942D01*
X195984498Y-105385201D01*
X195984498Y-105588655D01*
X195964813Y-105655694D01*
X195948179Y-105676336D01*
X195899511Y-105725003D01*
X195899509Y-105725006D01*
X195846007Y-105817674D01*
X195840199Y-105827733D01*
X195809498Y-105942310D01*
X195809498Y-106060928D01*
X195840199Y-106175505D01*
X195899509Y-106278232D01*
X195983385Y-106362108D01*
X196086112Y-106421418D01*
X196200689Y-106452119D01*
X196200692Y-106452119D01*
X196319304Y-106452119D01*
X196319307Y-106452119D01*
X196433884Y-106421418D01*
X196536611Y-106362108D01*
X196565802Y-106332917D01*
X196627125Y-106299432D01*
X196696817Y-106304416D01*
X196752750Y-106346288D01*
X196777167Y-106411752D01*
X196777483Y-106420598D01*
X196777483Y-107028087D01*
X196757798Y-107095126D01*
X196753501Y-107101384D01*
X196747886Y-107109045D01*
X196692494Y-107164438D01*
X196637540Y-107259618D01*
X196633546Y-107265070D01*
X196610938Y-107282355D01*
X196590347Y-107301989D01*
X196583544Y-107303299D01*
X196578041Y-107307508D01*
X196549678Y-107309826D01*
X196521740Y-107315211D01*
X196515309Y-107312636D01*
X196508404Y-107313201D01*
X196483291Y-107299818D01*
X196456875Y-107289243D01*
X196447004Y-107280481D01*
X196446743Y-107280342D01*
X196446640Y-107280157D01*
X196445847Y-107279454D01*
X195504319Y-106337926D01*
X195470834Y-106276603D01*
X195468000Y-106250245D01*
X195468000Y-102090539D01*
X195484612Y-102028540D01*
X195533892Y-101943186D01*
X195568000Y-101815892D01*
X195568000Y-101684108D01*
X195533892Y-101556814D01*
X195468000Y-101442686D01*
X195374814Y-101349500D01*
X195288212Y-101299500D01*
X195260687Y-101283608D01*
X195197039Y-101266554D01*
X195133392Y-101249500D01*
X195001608Y-101249500D01*
X194874312Y-101283608D01*
X194760186Y-101349500D01*
X194760183Y-101349502D01*
X194667002Y-101442683D01*
X194667000Y-101442686D01*
X194601108Y-101556812D01*
X194572866Y-101662214D01*
X194567000Y-101684108D01*
X193650500Y-101684108D01*
X193650500Y-97299772D01*
X193670185Y-97232733D01*
X193722989Y-97186978D01*
X193742396Y-97180000D01*
X193793186Y-97166392D01*
X193907314Y-97100500D01*
X194000500Y-97007314D01*
X194015679Y-96981022D01*
X194066246Y-96932808D01*
X194134853Y-96919584D01*
X194199718Y-96945552D01*
X194230453Y-96981023D01*
X194274500Y-97057314D01*
X194367686Y-97150500D01*
X194430868Y-97186978D01*
X194481810Y-97216390D01*
X194481814Y-97216392D01*
X194609108Y-97250500D01*
X194609110Y-97250500D01*
X194740890Y-97250500D01*
X194740892Y-97250500D01*
X194868186Y-97216392D01*
X194918022Y-97187619D01*
X194953540Y-97167113D01*
X195015540Y-97150500D01*
X195442211Y-97150500D01*
X195509250Y-97170185D01*
X195555005Y-97222989D01*
X195564949Y-97292147D01*
X195561986Y-97306592D01*
X195549500Y-97353191D01*
X195549500Y-97471809D01*
X195580201Y-97586386D01*
X195639511Y-97689113D01*
X195723387Y-97772989D01*
X195826114Y-97832299D01*
X195940691Y-97863000D01*
X195940694Y-97863000D01*
X195948542Y-97865103D01*
X195947909Y-97867463D01*
X196000495Y-97890719D01*
X196008105Y-97897720D01*
X196188181Y-98077796D01*
X196221666Y-98139119D01*
X196224500Y-98165477D01*
X196224500Y-101337036D01*
X196204815Y-101404075D01*
X196188181Y-101424717D01*
X196139513Y-101473384D01*
X196139511Y-101473387D01*
X196080201Y-101576114D01*
X196049500Y-101690691D01*
X196049500Y-101809309D01*
X196080201Y-101923886D01*
X196139511Y-102026613D01*
X196223387Y-102110489D01*
X196326114Y-102169799D01*
X196440691Y-102200500D01*
X196440694Y-102200500D01*
X196559306Y-102200500D01*
X196559309Y-102200500D01*
X196673886Y-102169799D01*
X196776613Y-102110489D01*
X196860489Y-102026613D01*
X196919799Y-101923886D01*
X196950500Y-101809309D01*
X196950500Y-101690691D01*
X196919799Y-101576114D01*
X196860489Y-101473387D01*
X196811819Y-101424717D01*
X196778334Y-101363394D01*
X196775500Y-101337036D01*
X196775500Y-97945201D01*
X196775499Y-97945198D01*
X196757601Y-97901988D01*
X196757600Y-97901986D01*
X196743300Y-97867463D01*
X196733558Y-97843942D01*
X196482298Y-97592682D01*
X196448813Y-97531359D01*
X196446152Y-97511550D01*
X196445113Y-97491911D01*
X196450500Y-97471809D01*
X196450500Y-97353191D01*
X196434648Y-97294033D01*
X196433962Y-97281049D01*
X196439142Y-97259196D01*
X196439677Y-97236743D01*
X196447046Y-97225854D01*
X196450079Y-97213063D01*
X196466251Y-97197479D01*
X196478840Y-97178881D01*
X196490924Y-97173705D01*
X196500393Y-97164583D01*
X196522424Y-97160216D01*
X196543068Y-97151377D01*
X196557789Y-97150500D01*
X201509460Y-97150500D01*
X201571460Y-97167113D01*
X201606978Y-97187619D01*
X201656814Y-97216392D01*
X201752014Y-97241900D01*
X201807600Y-97273993D01*
X202063181Y-97529574D01*
X202096666Y-97590897D01*
X202099500Y-97617255D01*
X202099500Y-98682745D01*
X202079815Y-98749784D01*
X202063181Y-98770426D01*
X201129522Y-99704084D01*
X201129518Y-99704090D01*
X201076792Y-99795412D01*
X201076793Y-99795413D01*
X201049500Y-99897273D01*
X201049500Y-100059460D01*
X201032887Y-100121460D01*
X200983609Y-100206810D01*
X200983609Y-100206811D01*
X200949500Y-100334108D01*
X200949500Y-100465891D01*
X200983608Y-100593187D01*
X201010354Y-100639511D01*
X201049500Y-100707314D01*
X201142686Y-100800500D01*
X201256814Y-100866392D01*
X201384108Y-100900500D01*
X201384110Y-100900500D01*
X201515890Y-100900500D01*
X201515892Y-100900500D01*
X201643186Y-100866392D01*
X201757314Y-100800500D01*
X201850500Y-100707314D01*
X201916392Y-100593186D01*
X201950500Y-100465892D01*
X201950500Y-100334108D01*
X201916392Y-100206814D01*
X201916389Y-100206808D01*
X201906569Y-100189799D01*
X201890095Y-100121899D01*
X201912947Y-100055872D01*
X201926268Y-100040123D01*
X202820480Y-99145913D01*
X202873207Y-99054588D01*
X202900500Y-98952727D01*
X202900500Y-98847273D01*
X202900500Y-97347273D01*
X202878842Y-97266443D01*
X202878842Y-97266441D01*
X202873208Y-97245414D01*
X202873207Y-97245412D01*
X202820480Y-97154087D01*
X202373993Y-96707600D01*
X202341900Y-96652014D01*
X202316392Y-96556814D01*
X202250500Y-96442686D01*
X202157314Y-96349500D01*
X202078156Y-96303798D01*
X202043187Y-96283608D01*
X201979539Y-96266554D01*
X201915892Y-96249500D01*
X201784108Y-96249500D01*
X201656814Y-96283608D01*
X201656813Y-96283608D01*
X201656811Y-96283609D01*
X201656810Y-96283609D01*
X201571460Y-96332887D01*
X201509460Y-96349500D01*
X196561138Y-96349500D01*
X196494099Y-96329815D01*
X196448344Y-96277011D01*
X196438400Y-96207853D01*
X196441360Y-96193416D01*
X196450500Y-96159309D01*
X196450500Y-96040691D01*
X196419799Y-95926114D01*
X196360489Y-95823387D01*
X196276613Y-95739511D01*
X196225249Y-95709856D01*
X196173887Y-95680201D01*
X196063817Y-95650708D01*
X196008230Y-95618614D01*
X195311819Y-94922203D01*
X195278334Y-94860880D01*
X195275500Y-94834522D01*
X195275500Y-94432791D01*
X199874500Y-94432791D01*
X199874500Y-94567209D01*
X199900592Y-94664586D01*
X199909290Y-94697047D01*
X199909291Y-94697048D01*
X199976495Y-94813450D01*
X199976497Y-94813453D01*
X199976498Y-94813454D01*
X200071546Y-94908502D01*
X200187954Y-94975710D01*
X200317791Y-95010500D01*
X200317794Y-95010500D01*
X200452206Y-95010500D01*
X200452209Y-95010500D01*
X200582046Y-94975710D01*
X200698454Y-94908502D01*
X200793502Y-94813454D01*
X200860710Y-94697046D01*
X200895500Y-94567209D01*
X200895500Y-94432791D01*
X200860710Y-94302954D01*
X200860706Y-94302947D01*
X200797866Y-94194103D01*
X200797865Y-94194102D01*
X200793504Y-94186549D01*
X200793500Y-94186544D01*
X200698455Y-94091499D01*
X200698450Y-94091495D01*
X200582048Y-94024291D01*
X200582047Y-94024290D01*
X200549586Y-94015592D01*
X200452209Y-93989500D01*
X200317791Y-93989500D01*
X200239888Y-94010374D01*
X200187952Y-94024290D01*
X200187951Y-94024291D01*
X200071549Y-94091495D01*
X200071544Y-94091499D01*
X199976499Y-94186544D01*
X199976495Y-94186549D01*
X199909291Y-94302951D01*
X199909290Y-94302952D01*
X199908277Y-94306733D01*
X199874500Y-94432791D01*
X195275500Y-94432791D01*
X195275500Y-93053197D01*
X197005000Y-93053197D01*
X197005000Y-93246802D01*
X197035286Y-93438022D01*
X197095116Y-93622158D01*
X197183011Y-93794662D01*
X197205638Y-93825806D01*
X197205639Y-93825806D01*
X197735707Y-93295738D01*
X197750437Y-93350712D01*
X197818896Y-93469287D01*
X197915713Y-93566104D01*
X198034288Y-93634563D01*
X198089259Y-93649292D01*
X197559192Y-94179358D01*
X197559192Y-94179359D01*
X197590343Y-94201991D01*
X197762841Y-94289883D01*
X197946977Y-94349713D01*
X198138198Y-94380000D01*
X198331802Y-94380000D01*
X198523022Y-94349713D01*
X198655301Y-94306733D01*
X198655302Y-94306733D01*
X198707160Y-94289883D01*
X198879652Y-94201993D01*
X198879665Y-94201985D01*
X198910806Y-94179360D01*
X198910807Y-94179359D01*
X198380740Y-93649292D01*
X198435712Y-93634563D01*
X198554287Y-93566104D01*
X198651104Y-93469287D01*
X198719563Y-93350712D01*
X198734292Y-93295740D01*
X199264359Y-93825807D01*
X199264360Y-93825806D01*
X199286985Y-93794665D01*
X199286993Y-93794652D01*
X199374883Y-93622158D01*
X199434713Y-93438022D01*
X199465000Y-93246802D01*
X199465000Y-93053197D01*
X199434713Y-92861977D01*
X199374883Y-92677841D01*
X199286991Y-92505343D01*
X199264359Y-92474192D01*
X198734292Y-93004259D01*
X198719563Y-92949288D01*
X198651104Y-92830713D01*
X198554287Y-92733896D01*
X198435712Y-92665437D01*
X198380739Y-92650707D01*
X198910806Y-92120639D01*
X198910806Y-92120638D01*
X198879662Y-92098011D01*
X198707158Y-92010116D01*
X198523022Y-91950286D01*
X198331802Y-91920000D01*
X198138198Y-91920000D01*
X197946977Y-91950286D01*
X197762841Y-92010116D01*
X197590337Y-92098011D01*
X197559192Y-92120639D01*
X197559191Y-92120639D01*
X198089260Y-92650707D01*
X198034288Y-92665437D01*
X197915713Y-92733896D01*
X197818896Y-92830713D01*
X197750437Y-92949288D01*
X197735707Y-93004260D01*
X197205639Y-92474191D01*
X197205639Y-92474192D01*
X197183011Y-92505337D01*
X197095116Y-92677841D01*
X197035286Y-92861977D01*
X197005000Y-93053197D01*
X195275500Y-93053197D01*
X195275500Y-93018749D01*
X195295185Y-92951710D01*
X195347989Y-92905955D01*
X195417147Y-92896011D01*
X195461497Y-92911360D01*
X195556814Y-92966392D01*
X195684108Y-93000500D01*
X195684110Y-93000500D01*
X195815890Y-93000500D01*
X195815892Y-93000500D01*
X195943186Y-92966392D01*
X196057314Y-92900500D01*
X196150500Y-92807314D01*
X196216392Y-92693186D01*
X196250500Y-92565892D01*
X196250500Y-92434108D01*
X196216392Y-92306814D01*
X196150500Y-92192686D01*
X196058436Y-92100622D01*
X196055337Y-92097005D01*
X196042878Y-92069317D01*
X196028334Y-92042682D01*
X196027530Y-92035210D01*
X196026666Y-92033289D01*
X196027048Y-92030728D01*
X196025500Y-92016324D01*
X196025500Y-85464477D01*
X196045185Y-85397438D01*
X196097989Y-85351683D01*
X196167147Y-85341739D01*
X196230703Y-85370764D01*
X196237181Y-85376796D01*
X196688181Y-85827796D01*
X196721666Y-85889119D01*
X196724500Y-85915477D01*
X196724500Y-86584330D01*
X196704815Y-86651369D01*
X196652011Y-86697124D01*
X196632602Y-86704103D01*
X196626114Y-86705841D01*
X196523387Y-86765152D01*
X196523384Y-86765154D01*
X196439513Y-86849025D01*
X196439511Y-86849028D01*
X196380445Y-86951333D01*
X196380201Y-86951755D01*
X196349500Y-87066332D01*
X196349500Y-87184950D01*
X196380201Y-87299527D01*
X196439511Y-87402254D01*
X196523387Y-87486130D01*
X196626114Y-87545440D01*
X196740691Y-87576141D01*
X196740694Y-87576141D01*
X196859306Y-87576141D01*
X196859309Y-87576141D01*
X196973886Y-87545440D01*
X197076613Y-87486130D01*
X197160489Y-87402254D01*
X197219799Y-87299527D01*
X197250500Y-87184950D01*
X197250500Y-87066332D01*
X197250500Y-87065461D01*
X197259938Y-87018009D01*
X197275500Y-86980441D01*
X197275500Y-86870841D01*
X197275500Y-85695200D01*
X197253367Y-85641765D01*
X197233560Y-85593944D01*
X195561819Y-83922203D01*
X195528334Y-83860880D01*
X195525500Y-83834522D01*
X195525500Y-78061138D01*
X195545185Y-77994099D01*
X195597989Y-77948344D01*
X195667147Y-77938400D01*
X195681583Y-77941360D01*
X195715691Y-77950500D01*
X195715694Y-77950500D01*
X195834306Y-77950500D01*
X195834309Y-77950500D01*
X195948886Y-77919799D01*
X196051613Y-77860489D01*
X196135489Y-77776613D01*
X196194799Y-77673886D01*
X196225500Y-77559309D01*
X196225500Y-77440691D01*
X196194799Y-77326114D01*
X196135489Y-77223387D01*
X196086819Y-77174717D01*
X196053334Y-77113394D01*
X196050500Y-77087036D01*
X196050500Y-75470201D01*
X196050498Y-75470196D01*
X196008560Y-75368944D01*
X196008558Y-75368942D01*
X194436902Y-73797287D01*
X194417196Y-73771606D01*
X194360489Y-73673387D01*
X194276613Y-73589511D01*
X194173886Y-73530201D01*
X194059309Y-73499500D01*
X193940691Y-73499500D01*
X193826114Y-73530201D01*
X193826112Y-73530201D01*
X193826112Y-73530202D01*
X193723387Y-73589511D01*
X193723384Y-73589513D01*
X193639513Y-73673384D01*
X193639511Y-73673387D01*
X193580201Y-73776114D01*
X193549500Y-73890691D01*
X193549500Y-74009309D01*
X193580201Y-74123886D01*
X193639511Y-74226613D01*
X193723387Y-74310489D01*
X193826114Y-74369799D01*
X193940691Y-74400500D01*
X193940694Y-74400500D01*
X194059306Y-74400500D01*
X194059309Y-74400500D01*
X194149138Y-74376430D01*
X194218983Y-74378093D01*
X194268909Y-74408524D01*
X195463181Y-75602796D01*
X195496666Y-75664119D01*
X195499500Y-75690477D01*
X195499500Y-76060521D01*
X195479815Y-76127560D01*
X195427011Y-76173315D01*
X195357853Y-76183259D01*
X195294297Y-76154234D01*
X195287819Y-76148202D01*
X193733890Y-74594275D01*
X193706058Y-74566443D01*
X193676228Y-74554087D01*
X193604800Y-74524500D01*
X193602217Y-74524500D01*
X192783676Y-74524500D01*
X192716637Y-74504815D01*
X192695995Y-74488181D01*
X192607316Y-74399502D01*
X192607314Y-74399500D01*
X192549103Y-74365892D01*
X192493187Y-74333608D01*
X192402011Y-74309178D01*
X192365892Y-74299500D01*
X192234108Y-74299500D01*
X192234106Y-74299500D01*
X192197987Y-74309178D01*
X192128137Y-74307514D01*
X192070275Y-74268351D01*
X192046121Y-74221498D01*
X192015392Y-74106814D01*
X191949500Y-73992686D01*
X191856314Y-73899500D01*
X191799250Y-73866554D01*
X191742187Y-73833608D01*
X191678539Y-73816554D01*
X191614892Y-73799500D01*
X191483108Y-73799500D01*
X191355814Y-73833608D01*
X191355813Y-73833608D01*
X191355811Y-73833609D01*
X191355810Y-73833609D01*
X191270460Y-73882887D01*
X191254971Y-73887037D01*
X191243395Y-73894477D01*
X191208460Y-73899500D01*
X190964500Y-73899500D01*
X190897461Y-73879815D01*
X190851706Y-73827011D01*
X190840500Y-73775500D01*
X190840500Y-73540249D01*
X190840499Y-73540247D01*
X190828868Y-73481770D01*
X190828867Y-73481769D01*
X190784552Y-73415447D01*
X190718230Y-73371132D01*
X190718229Y-73371131D01*
X190659752Y-73359500D01*
X190659748Y-73359500D01*
X189964500Y-73359500D01*
X189897461Y-73339815D01*
X189851706Y-73287011D01*
X189840500Y-73235500D01*
X189840500Y-69670000D01*
X189927661Y-69670000D01*
X190029394Y-69642741D01*
X190120606Y-69590080D01*
X190125000Y-69585686D01*
X190125000Y-70570000D01*
X190722828Y-70570000D01*
X190722844Y-70569999D01*
X190782372Y-70563598D01*
X190782379Y-70563596D01*
X190917086Y-70513354D01*
X190917093Y-70513350D01*
X191032187Y-70427190D01*
X191032190Y-70427187D01*
X191118350Y-70312093D01*
X191118354Y-70312086D01*
X191168596Y-70177379D01*
X191168598Y-70177372D01*
X191174999Y-70117844D01*
X191175000Y-70117827D01*
X191175000Y-69520000D01*
X190190686Y-69520000D01*
X190195080Y-69515606D01*
X190247741Y-69424394D01*
X190275000Y-69322661D01*
X190275000Y-69217339D01*
X190247741Y-69115606D01*
X190195080Y-69024394D01*
X190190686Y-69020000D01*
X191175000Y-69020000D01*
X191175000Y-68824500D01*
X191194685Y-68757461D01*
X191247489Y-68711706D01*
X191299000Y-68700500D01*
X208736000Y-68700500D01*
X208803039Y-68720185D01*
G37*
%TD.AperFunction*%
%TA.AperFunction,Conductor*%
G36*
X192551046Y-86867488D02*
G01*
X192553158Y-86869551D01*
X193163181Y-87479574D01*
X193196666Y-87540897D01*
X193199500Y-87567255D01*
X193199500Y-95134460D01*
X193182887Y-95196460D01*
X193133609Y-95281810D01*
X193133609Y-95281811D01*
X193133608Y-95281813D01*
X193133608Y-95281814D01*
X193123081Y-95321103D01*
X193099500Y-95409108D01*
X193099500Y-95540891D01*
X193133608Y-95668187D01*
X193145608Y-95688971D01*
X193199500Y-95782314D01*
X193292686Y-95875500D01*
X193406814Y-95941392D01*
X193502014Y-95966900D01*
X193515899Y-95974916D01*
X193529346Y-95977842D01*
X193557600Y-95998993D01*
X193558902Y-96000295D01*
X193592387Y-96061618D01*
X193587403Y-96131310D01*
X193545531Y-96187243D01*
X193503315Y-96207750D01*
X193406814Y-96233608D01*
X193406812Y-96233608D01*
X193406812Y-96233609D01*
X193292686Y-96299500D01*
X193292683Y-96299502D01*
X193199502Y-96392683D01*
X193199500Y-96392686D01*
X193133608Y-96506812D01*
X193108099Y-96602014D01*
X193076006Y-96657601D01*
X192929519Y-96804088D01*
X192929518Y-96804090D01*
X192876792Y-96895412D01*
X192869346Y-96923205D01*
X192869346Y-96923206D01*
X192849500Y-96997273D01*
X192849500Y-107752726D01*
X192876793Y-107854589D01*
X192880408Y-107860850D01*
X192929520Y-107945913D01*
X192929522Y-107945915D01*
X196563181Y-111579574D01*
X196596666Y-111640897D01*
X196599500Y-111667255D01*
X196599500Y-112139460D01*
X196582887Y-112201460D01*
X196533609Y-112286810D01*
X196533609Y-112286811D01*
X196499500Y-112414108D01*
X196499500Y-112545891D01*
X196529198Y-112656728D01*
X196527535Y-112726578D01*
X196497104Y-112776502D01*
X196010426Y-113263181D01*
X195949103Y-113296666D01*
X195922745Y-113299500D01*
X191110339Y-113299500D01*
X191110323Y-113299499D01*
X191102727Y-113299499D01*
X190997273Y-113299499D01*
X190929366Y-113317695D01*
X190895412Y-113326793D01*
X190804084Y-113379522D01*
X190729518Y-113454089D01*
X190190230Y-113993375D01*
X190183262Y-113997179D01*
X190178619Y-114003619D01*
X190153036Y-114013684D01*
X190128907Y-114026860D01*
X190119331Y-114026945D01*
X190113601Y-114029200D01*
X190078358Y-114027311D01*
X189940309Y-113999851D01*
X189878398Y-113967466D01*
X189843823Y-113906750D01*
X189840500Y-113878234D01*
X189840500Y-113581765D01*
X189860185Y-113514726D01*
X189912989Y-113468971D01*
X189940306Y-113460148D01*
X190131835Y-113422051D01*
X190313914Y-113346632D01*
X190477782Y-113237139D01*
X190617139Y-113097782D01*
X190726632Y-112933914D01*
X190802051Y-112751835D01*
X190840500Y-112558541D01*
X190840500Y-112361459D01*
X190840500Y-112361456D01*
X190802052Y-112168170D01*
X190802051Y-112168169D01*
X190802051Y-112168165D01*
X190790161Y-112139460D01*
X190726635Y-111986092D01*
X190726628Y-111986079D01*
X190617139Y-111822218D01*
X190617136Y-111822214D01*
X190477785Y-111682863D01*
X190477781Y-111682860D01*
X190313920Y-111573371D01*
X190313907Y-111573364D01*
X190131839Y-111497950D01*
X190131829Y-111497947D01*
X189940308Y-111459851D01*
X189878397Y-111427466D01*
X189843823Y-111366750D01*
X189840500Y-111338234D01*
X189840500Y-111041765D01*
X189860185Y-110974726D01*
X189912989Y-110928971D01*
X189940306Y-110920148D01*
X190131835Y-110882051D01*
X190313914Y-110806632D01*
X190477782Y-110697139D01*
X190617139Y-110557782D01*
X190726632Y-110393914D01*
X190802051Y-110211835D01*
X190820219Y-110120499D01*
X190840500Y-110018543D01*
X190840500Y-109821456D01*
X190802052Y-109628170D01*
X190802051Y-109628169D01*
X190802051Y-109628165D01*
X190771376Y-109554108D01*
X190726635Y-109446092D01*
X190726628Y-109446079D01*
X190617139Y-109282218D01*
X190617136Y-109282214D01*
X190477785Y-109142863D01*
X190477781Y-109142860D01*
X190313920Y-109033371D01*
X190313907Y-109033364D01*
X190131839Y-108957950D01*
X190131829Y-108957947D01*
X189940308Y-108919851D01*
X189878397Y-108887466D01*
X189843823Y-108826750D01*
X189840500Y-108798234D01*
X189840500Y-108501765D01*
X189860185Y-108434726D01*
X189912989Y-108388971D01*
X189940306Y-108380148D01*
X190131835Y-108342051D01*
X190313914Y-108266632D01*
X190477782Y-108157139D01*
X190617139Y-108017782D01*
X190726632Y-107853914D01*
X190726727Y-107853686D01*
X190783068Y-107717664D01*
X190802051Y-107671835D01*
X190836160Y-107500360D01*
X190840500Y-107478543D01*
X190840500Y-107281456D01*
X190802052Y-107088170D01*
X190802051Y-107088169D01*
X190802051Y-107088165D01*
X190798902Y-107080562D01*
X190726635Y-106906092D01*
X190726628Y-106906079D01*
X190617139Y-106742218D01*
X190617136Y-106742214D01*
X190477785Y-106602863D01*
X190477781Y-106602860D01*
X190313920Y-106493371D01*
X190313907Y-106493364D01*
X190131839Y-106417950D01*
X190131829Y-106417947D01*
X189940308Y-106379851D01*
X189878397Y-106347466D01*
X189843823Y-106286750D01*
X189840500Y-106258234D01*
X189840500Y-105961765D01*
X189860185Y-105894726D01*
X189912989Y-105848971D01*
X189940306Y-105840148D01*
X190131835Y-105802051D01*
X190313914Y-105726632D01*
X190477782Y-105617139D01*
X190617139Y-105477782D01*
X190726632Y-105313914D01*
X190802051Y-105131835D01*
X190840500Y-104938541D01*
X190840500Y-104741459D01*
X190840500Y-104741456D01*
X190802052Y-104548170D01*
X190802051Y-104548169D01*
X190802051Y-104548165D01*
X190802049Y-104548160D01*
X190726635Y-104366092D01*
X190726628Y-104366079D01*
X190617139Y-104202218D01*
X190617136Y-104202214D01*
X190477785Y-104062863D01*
X190477781Y-104062860D01*
X190313920Y-103953371D01*
X190313907Y-103953364D01*
X190131839Y-103877950D01*
X190131829Y-103877947D01*
X189940308Y-103839851D01*
X189878397Y-103807466D01*
X189843823Y-103746750D01*
X189840500Y-103718234D01*
X189840500Y-103421765D01*
X189860185Y-103354726D01*
X189912989Y-103308971D01*
X189940306Y-103300148D01*
X190131835Y-103262051D01*
X190313914Y-103186632D01*
X190477782Y-103077139D01*
X190617139Y-102937782D01*
X190726632Y-102773914D01*
X190802051Y-102591835D01*
X190840500Y-102398541D01*
X190840500Y-102201459D01*
X190840500Y-102201456D01*
X190802052Y-102008170D01*
X190802051Y-102008169D01*
X190802051Y-102008165D01*
X190767142Y-101923886D01*
X190726635Y-101826092D01*
X190726628Y-101826079D01*
X190617139Y-101662218D01*
X190617136Y-101662214D01*
X190477785Y-101522863D01*
X190477781Y-101522860D01*
X190313920Y-101413371D01*
X190313907Y-101413364D01*
X190131839Y-101337950D01*
X190131829Y-101337947D01*
X189940308Y-101299851D01*
X189878397Y-101267466D01*
X189843823Y-101206750D01*
X189840500Y-101178234D01*
X189840500Y-100881765D01*
X189860185Y-100814726D01*
X189912989Y-100768971D01*
X189940306Y-100760148D01*
X190131835Y-100722051D01*
X190313914Y-100646632D01*
X190477782Y-100537139D01*
X190617139Y-100397782D01*
X190726632Y-100233914D01*
X190802051Y-100051835D01*
X190824159Y-99940691D01*
X190840500Y-99858543D01*
X190840500Y-99661456D01*
X190802052Y-99468170D01*
X190802051Y-99468169D01*
X190802051Y-99468165D01*
X190760117Y-99366926D01*
X190726635Y-99286092D01*
X190726628Y-99286079D01*
X190617139Y-99122218D01*
X190617136Y-99122214D01*
X190477785Y-98982863D01*
X190477781Y-98982860D01*
X190313920Y-98873371D01*
X190313907Y-98873364D01*
X190131839Y-98797950D01*
X190131829Y-98797947D01*
X189940308Y-98759851D01*
X189878397Y-98727466D01*
X189843823Y-98666750D01*
X189840500Y-98638234D01*
X189840500Y-98341765D01*
X189860185Y-98274726D01*
X189912989Y-98228971D01*
X189940306Y-98220148D01*
X190131835Y-98182051D01*
X190313914Y-98106632D01*
X190477782Y-97997139D01*
X190617139Y-97857782D01*
X190726632Y-97693914D01*
X190802051Y-97511835D01*
X190833608Y-97353191D01*
X190840500Y-97318543D01*
X190840500Y-97121456D01*
X190802052Y-96928170D01*
X190802051Y-96928169D01*
X190802051Y-96928165D01*
X190761821Y-96831042D01*
X190754353Y-96761576D01*
X190785628Y-96699096D01*
X190788674Y-96695939D01*
X191032412Y-96452201D01*
X191033754Y-96450881D01*
X191048336Y-96436754D01*
X191056058Y-96433557D01*
X191133557Y-96356058D01*
X191133556Y-96356058D01*
X191233557Y-96256059D01*
X191256984Y-96199500D01*
X191275500Y-96154800D01*
X191275500Y-94265477D01*
X191295185Y-94198438D01*
X191311819Y-94177796D01*
X191984554Y-93505062D01*
X191984554Y-93505061D01*
X191984557Y-93505059D01*
X191996841Y-93475400D01*
X192026500Y-93403800D01*
X192026500Y-87854439D01*
X192046185Y-87787400D01*
X192098989Y-87741645D01*
X192118399Y-87734666D01*
X192173886Y-87719799D01*
X192276613Y-87660489D01*
X192360489Y-87576613D01*
X192419799Y-87473886D01*
X192450500Y-87359309D01*
X192450500Y-87240691D01*
X192419799Y-87126114D01*
X192360489Y-87023387D01*
X192360487Y-87023385D01*
X192358090Y-87019233D01*
X192341617Y-86951333D01*
X192364469Y-86885306D01*
X192419390Y-86842115D01*
X192488943Y-86835473D01*
X192551046Y-86867488D01*
G37*
%TD.AperFunction*%
%TA.AperFunction,Conductor*%
G36*
X193451562Y-75095185D02*
G01*
X193472204Y-75111819D01*
X194525266Y-76164882D01*
X194558751Y-76226205D01*
X194553767Y-76295897D01*
X194511895Y-76351830D01*
X194499588Y-76359949D01*
X194448387Y-76389511D01*
X194448384Y-76389513D01*
X194364513Y-76473384D01*
X194364511Y-76473387D01*
X194305201Y-76576114D01*
X194274500Y-76690691D01*
X194274500Y-76809309D01*
X194305201Y-76923886D01*
X194364511Y-77026613D01*
X194364513Y-77026615D01*
X194413181Y-77075283D01*
X194446666Y-77136606D01*
X194449500Y-77162964D01*
X194449500Y-77529800D01*
X194476176Y-77594200D01*
X194476175Y-77594200D01*
X194491441Y-77631055D01*
X194491444Y-77631059D01*
X194587181Y-77726796D01*
X194601884Y-77753723D01*
X194618477Y-77779542D01*
X194619368Y-77785742D01*
X194620666Y-77788119D01*
X194623500Y-77814477D01*
X194623500Y-77938861D01*
X194603815Y-78005900D01*
X194551011Y-78051655D01*
X194481853Y-78061599D01*
X194467409Y-78058636D01*
X194433313Y-78049500D01*
X194433309Y-78049500D01*
X194314691Y-78049500D01*
X194200114Y-78080201D01*
X194200112Y-78080201D01*
X194200112Y-78080202D01*
X194097387Y-78139511D01*
X194097384Y-78139513D01*
X194013513Y-78223384D01*
X194013511Y-78223387D01*
X193958751Y-78318234D01*
X193954201Y-78326114D01*
X193923500Y-78440691D01*
X193923500Y-78559309D01*
X193954201Y-78673886D01*
X194013511Y-78776613D01*
X194013513Y-78776615D01*
X194062181Y-78825283D01*
X194095666Y-78886606D01*
X194098500Y-78912964D01*
X194098500Y-79053802D01*
X194129734Y-79129205D01*
X194137588Y-79148165D01*
X194140443Y-79155058D01*
X194239025Y-79253640D01*
X194241667Y-79256648D01*
X194254769Y-79284836D01*
X194269666Y-79312118D01*
X194270332Y-79318321D01*
X194271117Y-79320008D01*
X194270779Y-79322473D01*
X194272500Y-79338477D01*
X194272500Y-81195024D01*
X194252815Y-81262063D01*
X194200011Y-81307818D01*
X194130853Y-81317762D01*
X194116408Y-81314799D01*
X194059310Y-81299500D01*
X194059309Y-81299500D01*
X193940691Y-81299500D01*
X193826114Y-81330201D01*
X193826112Y-81330201D01*
X193826112Y-81330202D01*
X193723387Y-81389511D01*
X193723384Y-81389513D01*
X193639513Y-81473384D01*
X193639511Y-81473387D01*
X193580201Y-81576114D01*
X193549500Y-81690691D01*
X193549500Y-81690693D01*
X193549500Y-81759521D01*
X193529815Y-81826560D01*
X193513181Y-81847202D01*
X192843942Y-82516443D01*
X192766444Y-82593940D01*
X192724500Y-82695199D01*
X192724500Y-84337036D01*
X192704815Y-84404075D01*
X192688181Y-84424717D01*
X192639513Y-84473384D01*
X192639511Y-84473387D01*
X192580201Y-84576114D01*
X192549500Y-84690691D01*
X192549500Y-84809309D01*
X192580201Y-84923886D01*
X192639511Y-85026613D01*
X192723387Y-85110489D01*
X192826114Y-85169799D01*
X192940691Y-85200500D01*
X192940694Y-85200500D01*
X193059306Y-85200500D01*
X193059309Y-85200500D01*
X193173886Y-85169799D01*
X193276613Y-85110489D01*
X193360489Y-85026613D01*
X193419799Y-84923886D01*
X193450500Y-84809309D01*
X193450500Y-84690691D01*
X193419799Y-84576114D01*
X193360489Y-84473387D01*
X193311819Y-84424717D01*
X193278334Y-84363394D01*
X193275500Y-84337036D01*
X193275500Y-82915477D01*
X193295185Y-82848438D01*
X193311819Y-82827796D01*
X193902796Y-82236819D01*
X193923278Y-82225634D01*
X193941216Y-82210705D01*
X193956368Y-82207565D01*
X193964119Y-82203334D01*
X193975271Y-82201436D01*
X193982846Y-82200500D01*
X194059309Y-82200500D01*
X194124738Y-82182968D01*
X194133294Y-82181911D01*
X194159602Y-82186228D01*
X194186256Y-82186863D01*
X194193549Y-82191799D01*
X194202242Y-82193226D01*
X194222038Y-82211080D01*
X194244119Y-82226025D01*
X194247586Y-82234123D01*
X194254126Y-82240021D01*
X194261127Y-82265742D01*
X194271623Y-82290253D01*
X194272500Y-82304975D01*
X194272500Y-84349188D01*
X194309935Y-84439562D01*
X194314444Y-84450448D01*
X195087181Y-85223184D01*
X195120666Y-85284507D01*
X195123500Y-85310865D01*
X195123500Y-91870934D01*
X195103815Y-91937973D01*
X195087181Y-91958615D01*
X194843942Y-92201855D01*
X194766444Y-92279352D01*
X194724500Y-92380611D01*
X194724500Y-95054800D01*
X194765555Y-95153913D01*
X194765553Y-95153913D01*
X194765557Y-95153919D01*
X194766443Y-95156058D01*
X194766444Y-95156060D01*
X195520342Y-95909958D01*
X195553827Y-95971281D01*
X195556615Y-95994266D01*
X195557105Y-96012304D01*
X195549500Y-96040691D01*
X195549500Y-96159309D01*
X195562418Y-96207521D01*
X195562816Y-96222127D01*
X195557471Y-96242347D01*
X195556974Y-96263256D01*
X195548724Y-96275444D01*
X195544963Y-96289677D01*
X195529534Y-96303798D01*
X195517812Y-96321119D01*
X195504280Y-96326913D01*
X195493423Y-96336851D01*
X195472809Y-96340389D01*
X195453583Y-96348623D01*
X195438862Y-96349500D01*
X195091476Y-96349500D01*
X195024437Y-96329815D01*
X195001941Y-96309118D01*
X195001226Y-96309834D01*
X194995481Y-96304089D01*
X194995480Y-96304087D01*
X194920913Y-96229520D01*
X194920912Y-96229519D01*
X194916582Y-96225189D01*
X194916571Y-96225179D01*
X194123993Y-95432600D01*
X194119361Y-95425668D01*
X194115122Y-95422725D01*
X194107912Y-95408534D01*
X194097113Y-95392371D01*
X194094003Y-95384863D01*
X194066392Y-95281814D01*
X194013050Y-95189424D01*
X194009939Y-95181912D01*
X194007743Y-95161493D01*
X194000500Y-95134460D01*
X194000500Y-87297275D01*
X194000500Y-87297273D01*
X193973207Y-87195413D01*
X193973207Y-87195412D01*
X193920480Y-87104087D01*
X191985819Y-85169426D01*
X191952334Y-85108103D01*
X191949500Y-85081745D01*
X191949500Y-75385839D01*
X191969185Y-75318800D01*
X192021989Y-75273045D01*
X192091147Y-75263101D01*
X192105594Y-75266064D01*
X192106810Y-75266389D01*
X192106814Y-75266392D01*
X192234108Y-75300500D01*
X192234111Y-75300500D01*
X192365890Y-75300500D01*
X192365892Y-75300500D01*
X192493186Y-75266392D01*
X192607314Y-75200500D01*
X192695995Y-75111819D01*
X192757318Y-75078334D01*
X192783676Y-75075500D01*
X193384523Y-75075500D01*
X193451562Y-75095185D01*
G37*
%TD.AperFunction*%
%TD*%
M02*
