%TF.GenerationSoftware,KiCad,Pcbnew,9.0.7-9.0.7~ubuntu22.04.1*%
%TF.CreationDate,2026-02-08T23:02:33-07:00*%
%TF.ProjectId,ESP32-S3-MINI-1_UU,45535033-322d-4533-932d-4d494e492d31,rev?*%
%TF.SameCoordinates,Original*%
%TF.FileFunction,Legend,Bot*%
%TF.FilePolarity,Positive*%
%FSLAX46Y46*%
G04 Gerber Fmt 4.6, Leading zero omitted, Abs format (unit mm)*
G04 Created by KiCad (PCBNEW 9.0.7-9.0.7~ubuntu22.04.1) date 2026-02-08 23:02:33*
%MOMM*%
%LPD*%
G01*
G04 APERTURE LIST*
%ADD10C,0.050000*%
%ADD11C,0.100000*%
G04 APERTURE END LIST*
D10*
X208571867Y-112483828D02*
X208548058Y-112460019D01*
X208548058Y-112460019D02*
X208500439Y-112436209D01*
X208500439Y-112436209D02*
X208381391Y-112436209D01*
X208381391Y-112436209D02*
X208333772Y-112460019D01*
X208333772Y-112460019D02*
X208309963Y-112483828D01*
X208309963Y-112483828D02*
X208286153Y-112531447D01*
X208286153Y-112531447D02*
X208286153Y-112579066D01*
X208286153Y-112579066D02*
X208309963Y-112650495D01*
X208309963Y-112650495D02*
X208595677Y-112936209D01*
X208595677Y-112936209D02*
X208286153Y-112936209D01*
X207976630Y-112436209D02*
X207929011Y-112436209D01*
X207929011Y-112436209D02*
X207881392Y-112460019D01*
X207881392Y-112460019D02*
X207857582Y-112483828D01*
X207857582Y-112483828D02*
X207833773Y-112531447D01*
X207833773Y-112531447D02*
X207809963Y-112626685D01*
X207809963Y-112626685D02*
X207809963Y-112745733D01*
X207809963Y-112745733D02*
X207833773Y-112840971D01*
X207833773Y-112840971D02*
X207857582Y-112888590D01*
X207857582Y-112888590D02*
X207881392Y-112912400D01*
X207881392Y-112912400D02*
X207929011Y-112936209D01*
X207929011Y-112936209D02*
X207976630Y-112936209D01*
X207976630Y-112936209D02*
X208024249Y-112912400D01*
X208024249Y-112912400D02*
X208048058Y-112888590D01*
X208048058Y-112888590D02*
X208071868Y-112840971D01*
X208071868Y-112840971D02*
X208095677Y-112745733D01*
X208095677Y-112745733D02*
X208095677Y-112626685D01*
X208095677Y-112626685D02*
X208071868Y-112531447D01*
X208071868Y-112531447D02*
X208048058Y-112483828D01*
X208048058Y-112483828D02*
X208024249Y-112460019D01*
X208024249Y-112460019D02*
X207976630Y-112436209D01*
X207619487Y-112483828D02*
X207595678Y-112460019D01*
X207595678Y-112460019D02*
X207548059Y-112436209D01*
X207548059Y-112436209D02*
X207429011Y-112436209D01*
X207429011Y-112436209D02*
X207381392Y-112460019D01*
X207381392Y-112460019D02*
X207357583Y-112483828D01*
X207357583Y-112483828D02*
X207333773Y-112531447D01*
X207333773Y-112531447D02*
X207333773Y-112579066D01*
X207333773Y-112579066D02*
X207357583Y-112650495D01*
X207357583Y-112650495D02*
X207643297Y-112936209D01*
X207643297Y-112936209D02*
X207333773Y-112936209D01*
X206905202Y-112436209D02*
X207000440Y-112436209D01*
X207000440Y-112436209D02*
X207048059Y-112460019D01*
X207048059Y-112460019D02*
X207071869Y-112483828D01*
X207071869Y-112483828D02*
X207119488Y-112555257D01*
X207119488Y-112555257D02*
X207143297Y-112650495D01*
X207143297Y-112650495D02*
X207143297Y-112840971D01*
X207143297Y-112840971D02*
X207119488Y-112888590D01*
X207119488Y-112888590D02*
X207095678Y-112912400D01*
X207095678Y-112912400D02*
X207048059Y-112936209D01*
X207048059Y-112936209D02*
X206952821Y-112936209D01*
X206952821Y-112936209D02*
X206905202Y-112912400D01*
X206905202Y-112912400D02*
X206881393Y-112888590D01*
X206881393Y-112888590D02*
X206857583Y-112840971D01*
X206857583Y-112840971D02*
X206857583Y-112721923D01*
X206857583Y-112721923D02*
X206881393Y-112674304D01*
X206881393Y-112674304D02*
X206905202Y-112650495D01*
X206905202Y-112650495D02*
X206952821Y-112626685D01*
X206952821Y-112626685D02*
X207048059Y-112626685D01*
X207048059Y-112626685D02*
X207095678Y-112650495D01*
X207095678Y-112650495D02*
X207119488Y-112674304D01*
X207119488Y-112674304D02*
X207143297Y-112721923D01*
D11*
X208496115Y-113172419D02*
X208496115Y-113981942D01*
X208496115Y-113981942D02*
X208448496Y-114077180D01*
X208448496Y-114077180D02*
X208400877Y-114124800D01*
X208400877Y-114124800D02*
X208305639Y-114172419D01*
X208305639Y-114172419D02*
X208115163Y-114172419D01*
X208115163Y-114172419D02*
X208019925Y-114124800D01*
X208019925Y-114124800D02*
X207972306Y-114077180D01*
X207972306Y-114077180D02*
X207924687Y-113981942D01*
X207924687Y-113981942D02*
X207924687Y-113172419D01*
X207448496Y-113172419D02*
X207448496Y-113981942D01*
X207448496Y-113981942D02*
X207400877Y-114077180D01*
X207400877Y-114077180D02*
X207353258Y-114124800D01*
X207353258Y-114124800D02*
X207258020Y-114172419D01*
X207258020Y-114172419D02*
X207067544Y-114172419D01*
X207067544Y-114172419D02*
X206972306Y-114124800D01*
X206972306Y-114124800D02*
X206924687Y-114077180D01*
X206924687Y-114077180D02*
X206877068Y-113981942D01*
X206877068Y-113981942D02*
X206877068Y-113172419D01*
M02*
