%TF.GenerationSoftware,KiCad,Pcbnew,9.0.7-9.0.7~ubuntu22.04.1*%
%TF.CreationDate,2026-02-09T13:55:57-07:00*%
%TF.ProjectId,ESP32-S3-MINI-1_UU,45535033-322d-4533-932d-4d494e492d31,rev?*%
%TF.SameCoordinates,Original*%
%TF.FileFunction,Legend,Bot*%
%TF.FilePolarity,Positive*%
%FSLAX46Y46*%
G04 Gerber Fmt 4.6, Leading zero omitted, Abs format (unit mm)*
G04 Created by KiCad (PCBNEW 9.0.7-9.0.7~ubuntu22.04.1) date 2026-02-09 13:55:57*
%MOMM*%
%LPD*%
G01*
G04 APERTURE LIST*
%ADD10C,0.100000*%
%ADD11C,0.050000*%
G04 APERTURE END LIST*
D10*
X204000000Y-87000000D02*
X206300000Y-87000000D01*
X193500000Y-86900000D02*
X193500000Y-84500000D01*
X193500000Y-84500000D02*
X196000000Y-84500000D01*
X206300000Y-87000000D02*
X206300000Y-84800000D01*
X196000000Y-86900000D02*
X193500000Y-86900000D01*
X204000000Y-84800000D02*
X204000000Y-87000000D01*
X196000000Y-84500000D02*
X196000000Y-86900000D01*
X206300000Y-84800000D02*
X204000000Y-84800000D01*
D11*
X205971867Y-85083828D02*
X205948058Y-85060019D01*
X205948058Y-85060019D02*
X205900439Y-85036209D01*
X205900439Y-85036209D02*
X205781391Y-85036209D01*
X205781391Y-85036209D02*
X205733772Y-85060019D01*
X205733772Y-85060019D02*
X205709963Y-85083828D01*
X205709963Y-85083828D02*
X205686153Y-85131447D01*
X205686153Y-85131447D02*
X205686153Y-85179066D01*
X205686153Y-85179066D02*
X205709963Y-85250495D01*
X205709963Y-85250495D02*
X205995677Y-85536209D01*
X205995677Y-85536209D02*
X205686153Y-85536209D01*
X205376630Y-85036209D02*
X205329011Y-85036209D01*
X205329011Y-85036209D02*
X205281392Y-85060019D01*
X205281392Y-85060019D02*
X205257582Y-85083828D01*
X205257582Y-85083828D02*
X205233773Y-85131447D01*
X205233773Y-85131447D02*
X205209963Y-85226685D01*
X205209963Y-85226685D02*
X205209963Y-85345733D01*
X205209963Y-85345733D02*
X205233773Y-85440971D01*
X205233773Y-85440971D02*
X205257582Y-85488590D01*
X205257582Y-85488590D02*
X205281392Y-85512400D01*
X205281392Y-85512400D02*
X205329011Y-85536209D01*
X205329011Y-85536209D02*
X205376630Y-85536209D01*
X205376630Y-85536209D02*
X205424249Y-85512400D01*
X205424249Y-85512400D02*
X205448058Y-85488590D01*
X205448058Y-85488590D02*
X205471868Y-85440971D01*
X205471868Y-85440971D02*
X205495677Y-85345733D01*
X205495677Y-85345733D02*
X205495677Y-85226685D01*
X205495677Y-85226685D02*
X205471868Y-85131447D01*
X205471868Y-85131447D02*
X205448058Y-85083828D01*
X205448058Y-85083828D02*
X205424249Y-85060019D01*
X205424249Y-85060019D02*
X205376630Y-85036209D01*
X205019487Y-85083828D02*
X204995678Y-85060019D01*
X204995678Y-85060019D02*
X204948059Y-85036209D01*
X204948059Y-85036209D02*
X204829011Y-85036209D01*
X204829011Y-85036209D02*
X204781392Y-85060019D01*
X204781392Y-85060019D02*
X204757583Y-85083828D01*
X204757583Y-85083828D02*
X204733773Y-85131447D01*
X204733773Y-85131447D02*
X204733773Y-85179066D01*
X204733773Y-85179066D02*
X204757583Y-85250495D01*
X204757583Y-85250495D02*
X205043297Y-85536209D01*
X205043297Y-85536209D02*
X204733773Y-85536209D01*
X204305202Y-85036209D02*
X204400440Y-85036209D01*
X204400440Y-85036209D02*
X204448059Y-85060019D01*
X204448059Y-85060019D02*
X204471869Y-85083828D01*
X204471869Y-85083828D02*
X204519488Y-85155257D01*
X204519488Y-85155257D02*
X204543297Y-85250495D01*
X204543297Y-85250495D02*
X204543297Y-85440971D01*
X204543297Y-85440971D02*
X204519488Y-85488590D01*
X204519488Y-85488590D02*
X204495678Y-85512400D01*
X204495678Y-85512400D02*
X204448059Y-85536209D01*
X204448059Y-85536209D02*
X204352821Y-85536209D01*
X204352821Y-85536209D02*
X204305202Y-85512400D01*
X204305202Y-85512400D02*
X204281393Y-85488590D01*
X204281393Y-85488590D02*
X204257583Y-85440971D01*
X204257583Y-85440971D02*
X204257583Y-85321923D01*
X204257583Y-85321923D02*
X204281393Y-85274304D01*
X204281393Y-85274304D02*
X204305202Y-85250495D01*
X204305202Y-85250495D02*
X204352821Y-85226685D01*
X204352821Y-85226685D02*
X204448059Y-85226685D01*
X204448059Y-85226685D02*
X204495678Y-85250495D01*
X204495678Y-85250495D02*
X204519488Y-85274304D01*
X204519488Y-85274304D02*
X204543297Y-85321923D01*
D10*
X205896115Y-85772419D02*
X205896115Y-86581942D01*
X205896115Y-86581942D02*
X205848496Y-86677180D01*
X205848496Y-86677180D02*
X205800877Y-86724800D01*
X205800877Y-86724800D02*
X205705639Y-86772419D01*
X205705639Y-86772419D02*
X205515163Y-86772419D01*
X205515163Y-86772419D02*
X205419925Y-86724800D01*
X205419925Y-86724800D02*
X205372306Y-86677180D01*
X205372306Y-86677180D02*
X205324687Y-86581942D01*
X205324687Y-86581942D02*
X205324687Y-85772419D01*
X204848496Y-85772419D02*
X204848496Y-86581942D01*
X204848496Y-86581942D02*
X204800877Y-86677180D01*
X204800877Y-86677180D02*
X204753258Y-86724800D01*
X204753258Y-86724800D02*
X204658020Y-86772419D01*
X204658020Y-86772419D02*
X204467544Y-86772419D01*
X204467544Y-86772419D02*
X204372306Y-86724800D01*
X204372306Y-86724800D02*
X204324687Y-86677180D01*
X204324687Y-86677180D02*
X204277068Y-86581942D01*
X204277068Y-86581942D02*
X204277068Y-85772419D01*
X195791665Y-84861760D02*
X195624998Y-84861760D01*
X195586308Y-85123665D02*
X195824403Y-85123665D01*
X195824403Y-85123665D02*
X195761903Y-84623665D01*
X195761903Y-84623665D02*
X195523808Y-84623665D01*
X195392855Y-85099856D02*
X195324403Y-85123665D01*
X195324403Y-85123665D02*
X195205355Y-85123665D01*
X195205355Y-85123665D02*
X195154760Y-85099856D01*
X195154760Y-85099856D02*
X195127974Y-85076046D01*
X195127974Y-85076046D02*
X195098213Y-85028427D01*
X195098213Y-85028427D02*
X195092260Y-84980808D01*
X195092260Y-84980808D02*
X195110117Y-84933189D01*
X195110117Y-84933189D02*
X195130951Y-84909379D01*
X195130951Y-84909379D02*
X195175594Y-84885570D01*
X195175594Y-84885570D02*
X195267855Y-84861760D01*
X195267855Y-84861760D02*
X195312498Y-84837951D01*
X195312498Y-84837951D02*
X195333332Y-84814141D01*
X195333332Y-84814141D02*
X195351189Y-84766522D01*
X195351189Y-84766522D02*
X195345236Y-84718903D01*
X195345236Y-84718903D02*
X195315474Y-84671284D01*
X195315474Y-84671284D02*
X195288689Y-84647475D01*
X195288689Y-84647475D02*
X195238094Y-84623665D01*
X195238094Y-84623665D02*
X195119046Y-84623665D01*
X195119046Y-84623665D02*
X195050594Y-84647475D01*
X194895832Y-85123665D02*
X194833332Y-84623665D01*
X194833332Y-84623665D02*
X194642856Y-84623665D01*
X194642856Y-84623665D02*
X194598213Y-84647475D01*
X194598213Y-84647475D02*
X194577380Y-84671284D01*
X194577380Y-84671284D02*
X194559523Y-84718903D01*
X194559523Y-84718903D02*
X194568451Y-84790332D01*
X194568451Y-84790332D02*
X194598213Y-84837951D01*
X194598213Y-84837951D02*
X194624999Y-84861760D01*
X194624999Y-84861760D02*
X194675594Y-84885570D01*
X194675594Y-84885570D02*
X194866070Y-84885570D01*
X194380951Y-84623665D02*
X194071427Y-84623665D01*
X194071427Y-84623665D02*
X194261904Y-84814141D01*
X194261904Y-84814141D02*
X194190475Y-84814141D01*
X194190475Y-84814141D02*
X194145832Y-84837951D01*
X194145832Y-84837951D02*
X194124999Y-84861760D01*
X194124999Y-84861760D02*
X194107142Y-84909379D01*
X194107142Y-84909379D02*
X194122023Y-85028427D01*
X194122023Y-85028427D02*
X194151784Y-85076046D01*
X194151784Y-85076046D02*
X194178570Y-85099856D01*
X194178570Y-85099856D02*
X194229165Y-85123665D01*
X194229165Y-85123665D02*
X194372023Y-85123665D01*
X194372023Y-85123665D02*
X194416665Y-85099856D01*
X194416665Y-85099856D02*
X194437499Y-85076046D01*
X193886904Y-84671284D02*
X193860118Y-84647475D01*
X193860118Y-84647475D02*
X193809523Y-84623665D01*
X193809523Y-84623665D02*
X193690475Y-84623665D01*
X193690475Y-84623665D02*
X193645833Y-84647475D01*
X193645833Y-84647475D02*
X193624999Y-84671284D01*
X193624999Y-84671284D02*
X193607142Y-84718903D01*
X193607142Y-84718903D02*
X193613094Y-84766522D01*
X193613094Y-84766522D02*
X193645833Y-84837951D01*
X193645833Y-84837951D02*
X193967261Y-85123665D01*
X193967261Y-85123665D02*
X193657737Y-85123665D01*
X195130951Y-85904828D02*
X195062499Y-85928637D01*
X195062499Y-85928637D02*
X194943451Y-85928637D01*
X194943451Y-85928637D02*
X194892856Y-85904828D01*
X194892856Y-85904828D02*
X194866070Y-85881018D01*
X194866070Y-85881018D02*
X194836309Y-85833399D01*
X194836309Y-85833399D02*
X194830356Y-85785780D01*
X194830356Y-85785780D02*
X194848213Y-85738161D01*
X194848213Y-85738161D02*
X194869047Y-85714351D01*
X194869047Y-85714351D02*
X194913690Y-85690542D01*
X194913690Y-85690542D02*
X195005951Y-85666732D01*
X195005951Y-85666732D02*
X195050594Y-85642923D01*
X195050594Y-85642923D02*
X195071428Y-85619113D01*
X195071428Y-85619113D02*
X195089285Y-85571494D01*
X195089285Y-85571494D02*
X195083332Y-85523875D01*
X195083332Y-85523875D02*
X195053570Y-85476256D01*
X195053570Y-85476256D02*
X195026785Y-85452447D01*
X195026785Y-85452447D02*
X194976190Y-85428637D01*
X194976190Y-85428637D02*
X194857142Y-85428637D01*
X194857142Y-85428637D02*
X194788690Y-85452447D01*
X194619047Y-85428637D02*
X194309523Y-85428637D01*
X194309523Y-85428637D02*
X194500000Y-85619113D01*
X194500000Y-85619113D02*
X194428571Y-85619113D01*
X194428571Y-85619113D02*
X194383928Y-85642923D01*
X194383928Y-85642923D02*
X194363095Y-85666732D01*
X194363095Y-85666732D02*
X194345238Y-85714351D01*
X194345238Y-85714351D02*
X194360119Y-85833399D01*
X194360119Y-85833399D02*
X194389880Y-85881018D01*
X194389880Y-85881018D02*
X194416666Y-85904828D01*
X194416666Y-85904828D02*
X194467261Y-85928637D01*
X194467261Y-85928637D02*
X194610119Y-85928637D01*
X194610119Y-85928637D02*
X194654761Y-85904828D01*
X194654761Y-85904828D02*
X194675595Y-85881018D01*
X195419642Y-86733609D02*
X195357142Y-86233609D01*
X195357142Y-86233609D02*
X195235118Y-86590752D01*
X195235118Y-86590752D02*
X195023809Y-86233609D01*
X195023809Y-86233609D02*
X195086309Y-86733609D01*
X194848213Y-86733609D02*
X194785713Y-86233609D01*
X194610118Y-86733609D02*
X194547618Y-86233609D01*
X194547618Y-86233609D02*
X194324404Y-86733609D01*
X194324404Y-86733609D02*
X194261904Y-86233609D01*
X194086308Y-86733609D02*
X194023808Y-86233609D01*
M02*
