%TF.GenerationSoftware,KiCad,Pcbnew,9.0.7-9.0.7~ubuntu22.04.1*%
%TF.CreationDate,2026-02-09T21:17:05-07:00*%
%TF.ProjectId,ESP32-S3-MINI-1_UU,45535033-322d-4533-932d-4d494e492d31,rev?*%
%TF.SameCoordinates,Original*%
%TF.FileFunction,Legend,Top*%
%TF.FilePolarity,Positive*%
%FSLAX46Y46*%
G04 Gerber Fmt 4.6, Leading zero omitted, Abs format (unit mm)*
G04 Created by KiCad (PCBNEW 9.0.7-9.0.7~ubuntu22.04.1) date 2026-02-09 21:17:05*
%MOMM*%
%LPD*%
G01*
G04 APERTURE LIST*
%ADD10C,0.100000*%
%ADD11C,0.200000*%
%ADD12C,0.120000*%
%ADD13C,0.127000*%
%ADD14C,0.250000*%
%ADD15C,0.254000*%
%ADD16C,0.203200*%
G04 APERTURE END LIST*
D10*
X203900000Y-101000000D02*
X206200000Y-101000000D01*
X206300000Y-87000000D02*
X204000000Y-87000000D01*
X196000000Y-84500000D02*
X193400000Y-84500000D01*
X204050000Y-95400000D02*
X206350000Y-95400000D01*
X196000000Y-86900000D02*
X196000000Y-84500000D01*
X204000000Y-84800000D02*
X206300000Y-84800000D01*
X194000000Y-103400000D02*
X198400000Y-103400000D01*
X193550000Y-95500000D02*
X195850000Y-95500000D01*
X204050000Y-98500000D02*
X206350000Y-98500000D01*
X206500000Y-87500000D02*
X206500000Y-107000000D01*
X204000000Y-87000000D02*
X204000000Y-84800000D01*
X193400000Y-84500000D02*
X193400000Y-86900000D01*
X193250000Y-87500000D02*
X193250000Y-107000000D01*
X206300000Y-84800000D02*
X206300000Y-87000000D01*
X193400000Y-86900000D02*
X196000000Y-86900000D01*
X191166390Y-102146741D02*
X191166390Y-101861027D01*
X191166390Y-102003884D02*
X191666390Y-102003884D01*
X191666390Y-102003884D02*
X191594961Y-101956265D01*
X191594961Y-101956265D02*
X191547342Y-101908646D01*
X191547342Y-101908646D02*
X191523533Y-101861027D01*
X191499723Y-102575312D02*
X191166390Y-102575312D01*
X191690200Y-102456264D02*
X191333057Y-102337217D01*
X191333057Y-102337217D02*
X191333057Y-102646740D01*
X208357419Y-69953258D02*
X208333609Y-70000877D01*
X208333609Y-70000877D02*
X208333609Y-70072306D01*
X208333609Y-70072306D02*
X208357419Y-70143734D01*
X208357419Y-70143734D02*
X208405038Y-70191353D01*
X208405038Y-70191353D02*
X208452657Y-70215163D01*
X208452657Y-70215163D02*
X208547895Y-70238972D01*
X208547895Y-70238972D02*
X208619323Y-70238972D01*
X208619323Y-70238972D02*
X208714561Y-70215163D01*
X208714561Y-70215163D02*
X208762180Y-70191353D01*
X208762180Y-70191353D02*
X208809800Y-70143734D01*
X208809800Y-70143734D02*
X208833609Y-70072306D01*
X208833609Y-70072306D02*
X208833609Y-70024687D01*
X208833609Y-70024687D02*
X208809800Y-69953258D01*
X208809800Y-69953258D02*
X208785990Y-69929449D01*
X208785990Y-69929449D02*
X208619323Y-69929449D01*
X208619323Y-69929449D02*
X208619323Y-70024687D01*
X208833609Y-69715163D02*
X208333609Y-69715163D01*
X208333609Y-69715163D02*
X208833609Y-69429449D01*
X208833609Y-69429449D02*
X208333609Y-69429449D01*
X208833609Y-69191353D02*
X208333609Y-69191353D01*
X208333609Y-69191353D02*
X208333609Y-69072305D01*
X208333609Y-69072305D02*
X208357419Y-69000877D01*
X208357419Y-69000877D02*
X208405038Y-68953258D01*
X208405038Y-68953258D02*
X208452657Y-68929448D01*
X208452657Y-68929448D02*
X208547895Y-68905639D01*
X208547895Y-68905639D02*
X208619323Y-68905639D01*
X208619323Y-68905639D02*
X208714561Y-68929448D01*
X208714561Y-68929448D02*
X208762180Y-68953258D01*
X208762180Y-68953258D02*
X208809800Y-69000877D01*
X208809800Y-69000877D02*
X208833609Y-69072305D01*
X208833609Y-69072305D02*
X208833609Y-69191353D01*
X208833609Y-85315163D02*
X208333609Y-85315163D01*
X208333609Y-85315163D02*
X208690752Y-85148496D01*
X208690752Y-85148496D02*
X208333609Y-84981830D01*
X208333609Y-84981830D02*
X208833609Y-84981830D01*
X208333609Y-84815162D02*
X208333609Y-84529448D01*
X208833609Y-84672305D02*
X208333609Y-84672305D01*
X208833609Y-84362782D02*
X208333609Y-84362782D01*
X208333609Y-84362782D02*
X208333609Y-84243734D01*
X208333609Y-84243734D02*
X208357419Y-84172306D01*
X208357419Y-84172306D02*
X208405038Y-84124687D01*
X208405038Y-84124687D02*
X208452657Y-84100877D01*
X208452657Y-84100877D02*
X208547895Y-84077068D01*
X208547895Y-84077068D02*
X208619323Y-84077068D01*
X208619323Y-84077068D02*
X208714561Y-84100877D01*
X208714561Y-84100877D02*
X208762180Y-84124687D01*
X208762180Y-84124687D02*
X208809800Y-84172306D01*
X208809800Y-84172306D02*
X208833609Y-84243734D01*
X208833609Y-84243734D02*
X208833609Y-84362782D01*
X208833609Y-83862782D02*
X208333609Y-83862782D01*
X191518771Y-76561027D02*
X191542580Y-76584836D01*
X191542580Y-76584836D02*
X191566390Y-76632455D01*
X191566390Y-76632455D02*
X191566390Y-76751503D01*
X191566390Y-76751503D02*
X191542580Y-76799122D01*
X191542580Y-76799122D02*
X191518771Y-76822931D01*
X191518771Y-76822931D02*
X191471152Y-76846741D01*
X191471152Y-76846741D02*
X191423533Y-76846741D01*
X191423533Y-76846741D02*
X191352104Y-76822931D01*
X191352104Y-76822931D02*
X191066390Y-76537217D01*
X191066390Y-76537217D02*
X191066390Y-76846741D01*
X191566390Y-89437217D02*
X191566390Y-89770550D01*
X191566390Y-89770550D02*
X191066390Y-89556265D01*
X208333609Y-99962782D02*
X208333609Y-99653258D01*
X208333609Y-99653258D02*
X208524085Y-99819925D01*
X208524085Y-99819925D02*
X208524085Y-99748496D01*
X208524085Y-99748496D02*
X208547895Y-99700877D01*
X208547895Y-99700877D02*
X208571704Y-99677068D01*
X208571704Y-99677068D02*
X208619323Y-99653258D01*
X208619323Y-99653258D02*
X208738371Y-99653258D01*
X208738371Y-99653258D02*
X208785990Y-99677068D01*
X208785990Y-99677068D02*
X208809800Y-99700877D01*
X208809800Y-99700877D02*
X208833609Y-99748496D01*
X208833609Y-99748496D02*
X208833609Y-99891353D01*
X208833609Y-99891353D02*
X208809800Y-99938972D01*
X208809800Y-99938972D02*
X208785990Y-99962782D01*
X208333609Y-99200878D02*
X208333609Y-99438973D01*
X208333609Y-99438973D02*
X208571704Y-99462782D01*
X208571704Y-99462782D02*
X208547895Y-99438973D01*
X208547895Y-99438973D02*
X208524085Y-99391354D01*
X208524085Y-99391354D02*
X208524085Y-99272306D01*
X208524085Y-99272306D02*
X208547895Y-99224687D01*
X208547895Y-99224687D02*
X208571704Y-99200878D01*
X208571704Y-99200878D02*
X208619323Y-99177068D01*
X208619323Y-99177068D02*
X208738371Y-99177068D01*
X208738371Y-99177068D02*
X208785990Y-99200878D01*
X208785990Y-99200878D02*
X208809800Y-99224687D01*
X208809800Y-99224687D02*
X208833609Y-99272306D01*
X208833609Y-99272306D02*
X208833609Y-99391354D01*
X208833609Y-99391354D02*
X208809800Y-99438973D01*
X208809800Y-99438973D02*
X208785990Y-99462782D01*
X191166390Y-94646741D02*
X191166390Y-94361027D01*
X191166390Y-94503884D02*
X191666390Y-94503884D01*
X191666390Y-94503884D02*
X191594961Y-94456265D01*
X191594961Y-94456265D02*
X191547342Y-94408646D01*
X191547342Y-94408646D02*
X191523533Y-94361027D01*
X191166390Y-95122931D02*
X191166390Y-94837217D01*
X191166390Y-94980074D02*
X191666390Y-94980074D01*
X191666390Y-94980074D02*
X191594961Y-94932455D01*
X191594961Y-94932455D02*
X191547342Y-94884836D01*
X191547342Y-94884836D02*
X191523533Y-94837217D01*
X191166390Y-107246741D02*
X191166390Y-106961027D01*
X191166390Y-107103884D02*
X191666390Y-107103884D01*
X191666390Y-107103884D02*
X191594961Y-107056265D01*
X191594961Y-107056265D02*
X191547342Y-107008646D01*
X191547342Y-107008646D02*
X191523533Y-106961027D01*
X191666390Y-107675312D02*
X191666390Y-107580074D01*
X191666390Y-107580074D02*
X191642580Y-107532455D01*
X191642580Y-107532455D02*
X191618771Y-107508645D01*
X191618771Y-107508645D02*
X191547342Y-107461026D01*
X191547342Y-107461026D02*
X191452104Y-107437217D01*
X191452104Y-107437217D02*
X191261628Y-107437217D01*
X191261628Y-107437217D02*
X191214009Y-107461026D01*
X191214009Y-107461026D02*
X191190200Y-107484836D01*
X191190200Y-107484836D02*
X191166390Y-107532455D01*
X191166390Y-107532455D02*
X191166390Y-107627693D01*
X191166390Y-107627693D02*
X191190200Y-107675312D01*
X191190200Y-107675312D02*
X191214009Y-107699121D01*
X191214009Y-107699121D02*
X191261628Y-107722931D01*
X191261628Y-107722931D02*
X191380676Y-107722931D01*
X191380676Y-107722931D02*
X191428295Y-107699121D01*
X191428295Y-107699121D02*
X191452104Y-107675312D01*
X191452104Y-107675312D02*
X191475914Y-107627693D01*
X191475914Y-107627693D02*
X191475914Y-107532455D01*
X191475914Y-107532455D02*
X191452104Y-107484836D01*
X191452104Y-107484836D02*
X191428295Y-107461026D01*
X191428295Y-107461026D02*
X191380676Y-107437217D01*
X191566390Y-84522931D02*
X191566390Y-84284836D01*
X191566390Y-84284836D02*
X191328295Y-84261027D01*
X191328295Y-84261027D02*
X191352104Y-84284836D01*
X191352104Y-84284836D02*
X191375914Y-84332455D01*
X191375914Y-84332455D02*
X191375914Y-84451503D01*
X191375914Y-84451503D02*
X191352104Y-84499122D01*
X191352104Y-84499122D02*
X191328295Y-84522931D01*
X191328295Y-84522931D02*
X191280676Y-84546741D01*
X191280676Y-84546741D02*
X191161628Y-84546741D01*
X191161628Y-84546741D02*
X191114009Y-84522931D01*
X191114009Y-84522931D02*
X191090200Y-84499122D01*
X191090200Y-84499122D02*
X191066390Y-84451503D01*
X191066390Y-84451503D02*
X191066390Y-84332455D01*
X191066390Y-84332455D02*
X191090200Y-84284836D01*
X191090200Y-84284836D02*
X191114009Y-84261027D01*
X194266390Y-87470550D02*
X194504485Y-87303884D01*
X194266390Y-87184836D02*
X194766390Y-87184836D01*
X194766390Y-87184836D02*
X194766390Y-87375312D01*
X194766390Y-87375312D02*
X194742580Y-87422931D01*
X194742580Y-87422931D02*
X194718771Y-87446741D01*
X194718771Y-87446741D02*
X194671152Y-87470550D01*
X194671152Y-87470550D02*
X194599723Y-87470550D01*
X194599723Y-87470550D02*
X194552104Y-87446741D01*
X194552104Y-87446741D02*
X194528295Y-87422931D01*
X194528295Y-87422931D02*
X194504485Y-87375312D01*
X194504485Y-87375312D02*
X194504485Y-87184836D01*
X194528295Y-87684836D02*
X194528295Y-87851503D01*
X194266390Y-87922931D02*
X194266390Y-87684836D01*
X194266390Y-87684836D02*
X194766390Y-87684836D01*
X194766390Y-87684836D02*
X194766390Y-87922931D01*
X194290200Y-88113408D02*
X194266390Y-88184836D01*
X194266390Y-88184836D02*
X194266390Y-88303884D01*
X194266390Y-88303884D02*
X194290200Y-88351503D01*
X194290200Y-88351503D02*
X194314009Y-88375312D01*
X194314009Y-88375312D02*
X194361628Y-88399122D01*
X194361628Y-88399122D02*
X194409247Y-88399122D01*
X194409247Y-88399122D02*
X194456866Y-88375312D01*
X194456866Y-88375312D02*
X194480676Y-88351503D01*
X194480676Y-88351503D02*
X194504485Y-88303884D01*
X194504485Y-88303884D02*
X194528295Y-88208646D01*
X194528295Y-88208646D02*
X194552104Y-88161027D01*
X194552104Y-88161027D02*
X194575914Y-88137217D01*
X194575914Y-88137217D02*
X194623533Y-88113408D01*
X194623533Y-88113408D02*
X194671152Y-88113408D01*
X194671152Y-88113408D02*
X194718771Y-88137217D01*
X194718771Y-88137217D02*
X194742580Y-88161027D01*
X194742580Y-88161027D02*
X194766390Y-88208646D01*
X194766390Y-88208646D02*
X194766390Y-88327693D01*
X194766390Y-88327693D02*
X194742580Y-88399122D01*
X194528295Y-88613407D02*
X194528295Y-88780074D01*
X194266390Y-88851502D02*
X194266390Y-88613407D01*
X194266390Y-88613407D02*
X194766390Y-88613407D01*
X194766390Y-88613407D02*
X194766390Y-88851502D01*
X194766390Y-88994360D02*
X194766390Y-89280074D01*
X194266390Y-89137217D02*
X194766390Y-89137217D01*
X208281228Y-110138972D02*
X208257419Y-110115163D01*
X208257419Y-110115163D02*
X208233609Y-110067544D01*
X208233609Y-110067544D02*
X208233609Y-109948496D01*
X208233609Y-109948496D02*
X208257419Y-109900877D01*
X208257419Y-109900877D02*
X208281228Y-109877068D01*
X208281228Y-109877068D02*
X208328847Y-109853258D01*
X208328847Y-109853258D02*
X208376466Y-109853258D01*
X208376466Y-109853258D02*
X208447895Y-109877068D01*
X208447895Y-109877068D02*
X208733609Y-110162782D01*
X208733609Y-110162782D02*
X208733609Y-109853258D01*
X208233609Y-109424687D02*
X208233609Y-109519925D01*
X208233609Y-109519925D02*
X208257419Y-109567544D01*
X208257419Y-109567544D02*
X208281228Y-109591354D01*
X208281228Y-109591354D02*
X208352657Y-109638973D01*
X208352657Y-109638973D02*
X208447895Y-109662782D01*
X208447895Y-109662782D02*
X208638371Y-109662782D01*
X208638371Y-109662782D02*
X208685990Y-109638973D01*
X208685990Y-109638973D02*
X208709800Y-109615163D01*
X208709800Y-109615163D02*
X208733609Y-109567544D01*
X208733609Y-109567544D02*
X208733609Y-109472306D01*
X208733609Y-109472306D02*
X208709800Y-109424687D01*
X208709800Y-109424687D02*
X208685990Y-109400878D01*
X208685990Y-109400878D02*
X208638371Y-109377068D01*
X208638371Y-109377068D02*
X208519323Y-109377068D01*
X208519323Y-109377068D02*
X208471704Y-109400878D01*
X208471704Y-109400878D02*
X208447895Y-109424687D01*
X208447895Y-109424687D02*
X208424085Y-109472306D01*
X208424085Y-109472306D02*
X208424085Y-109567544D01*
X208424085Y-109567544D02*
X208447895Y-109615163D01*
X208447895Y-109615163D02*
X208471704Y-109638973D01*
X208471704Y-109638973D02*
X208519323Y-109662782D01*
X208500276Y-71900877D02*
X208833609Y-71900877D01*
X208309800Y-72019925D02*
X208666942Y-72138972D01*
X208666942Y-72138972D02*
X208666942Y-71829449D01*
X208333609Y-71424687D02*
X208333609Y-71519925D01*
X208333609Y-71519925D02*
X208357419Y-71567544D01*
X208357419Y-71567544D02*
X208381228Y-71591354D01*
X208381228Y-71591354D02*
X208452657Y-71638973D01*
X208452657Y-71638973D02*
X208547895Y-71662782D01*
X208547895Y-71662782D02*
X208738371Y-71662782D01*
X208738371Y-71662782D02*
X208785990Y-71638973D01*
X208785990Y-71638973D02*
X208809800Y-71615163D01*
X208809800Y-71615163D02*
X208833609Y-71567544D01*
X208833609Y-71567544D02*
X208833609Y-71472306D01*
X208833609Y-71472306D02*
X208809800Y-71424687D01*
X208809800Y-71424687D02*
X208785990Y-71400878D01*
X208785990Y-71400878D02*
X208738371Y-71377068D01*
X208738371Y-71377068D02*
X208619323Y-71377068D01*
X208619323Y-71377068D02*
X208571704Y-71400878D01*
X208571704Y-71400878D02*
X208547895Y-71424687D01*
X208547895Y-71424687D02*
X208524085Y-71472306D01*
X208524085Y-71472306D02*
X208524085Y-71567544D01*
X208524085Y-71567544D02*
X208547895Y-71615163D01*
X208547895Y-71615163D02*
X208571704Y-71638973D01*
X208571704Y-71638973D02*
X208619323Y-71662782D01*
X208833609Y-82715163D02*
X208333609Y-82715163D01*
X208333609Y-82715163D02*
X208690752Y-82548496D01*
X208690752Y-82548496D02*
X208333609Y-82381830D01*
X208333609Y-82381830D02*
X208833609Y-82381830D01*
X208333609Y-82215162D02*
X208333609Y-81929448D01*
X208833609Y-82072305D02*
X208333609Y-82072305D01*
X208833609Y-81762782D02*
X208333609Y-81762782D01*
X208333609Y-81762782D02*
X208690752Y-81596115D01*
X208690752Y-81596115D02*
X208333609Y-81429449D01*
X208333609Y-81429449D02*
X208833609Y-81429449D01*
X208809800Y-81215162D02*
X208833609Y-81143734D01*
X208833609Y-81143734D02*
X208833609Y-81024686D01*
X208833609Y-81024686D02*
X208809800Y-80977067D01*
X208809800Y-80977067D02*
X208785990Y-80953258D01*
X208785990Y-80953258D02*
X208738371Y-80929448D01*
X208738371Y-80929448D02*
X208690752Y-80929448D01*
X208690752Y-80929448D02*
X208643133Y-80953258D01*
X208643133Y-80953258D02*
X208619323Y-80977067D01*
X208619323Y-80977067D02*
X208595514Y-81024686D01*
X208595514Y-81024686D02*
X208571704Y-81119924D01*
X208571704Y-81119924D02*
X208547895Y-81167543D01*
X208547895Y-81167543D02*
X208524085Y-81191353D01*
X208524085Y-81191353D02*
X208476466Y-81215162D01*
X208476466Y-81215162D02*
X208428847Y-81215162D01*
X208428847Y-81215162D02*
X208381228Y-81191353D01*
X208381228Y-81191353D02*
X208357419Y-81167543D01*
X208357419Y-81167543D02*
X208333609Y-81119924D01*
X208333609Y-81119924D02*
X208333609Y-81000877D01*
X208333609Y-81000877D02*
X208357419Y-80929448D01*
X191566390Y-79237217D02*
X191566390Y-79546741D01*
X191566390Y-79546741D02*
X191375914Y-79380074D01*
X191375914Y-79380074D02*
X191375914Y-79451503D01*
X191375914Y-79451503D02*
X191352104Y-79499122D01*
X191352104Y-79499122D02*
X191328295Y-79522931D01*
X191328295Y-79522931D02*
X191280676Y-79546741D01*
X191280676Y-79546741D02*
X191161628Y-79546741D01*
X191161628Y-79546741D02*
X191114009Y-79522931D01*
X191114009Y-79522931D02*
X191090200Y-79499122D01*
X191090200Y-79499122D02*
X191066390Y-79451503D01*
X191066390Y-79451503D02*
X191066390Y-79308646D01*
X191066390Y-79308646D02*
X191090200Y-79261027D01*
X191090200Y-79261027D02*
X191114009Y-79237217D01*
X191166390Y-92146741D02*
X191166390Y-91861027D01*
X191166390Y-92003884D02*
X191666390Y-92003884D01*
X191666390Y-92003884D02*
X191594961Y-91956265D01*
X191594961Y-91956265D02*
X191547342Y-91908646D01*
X191547342Y-91908646D02*
X191523533Y-91861027D01*
X191666390Y-92456264D02*
X191666390Y-92503883D01*
X191666390Y-92503883D02*
X191642580Y-92551502D01*
X191642580Y-92551502D02*
X191618771Y-92575312D01*
X191618771Y-92575312D02*
X191571152Y-92599121D01*
X191571152Y-92599121D02*
X191475914Y-92622931D01*
X191475914Y-92622931D02*
X191356866Y-92622931D01*
X191356866Y-92622931D02*
X191261628Y-92599121D01*
X191261628Y-92599121D02*
X191214009Y-92575312D01*
X191214009Y-92575312D02*
X191190200Y-92551502D01*
X191190200Y-92551502D02*
X191166390Y-92503883D01*
X191166390Y-92503883D02*
X191166390Y-92456264D01*
X191166390Y-92456264D02*
X191190200Y-92408645D01*
X191190200Y-92408645D02*
X191214009Y-92384836D01*
X191214009Y-92384836D02*
X191261628Y-92361026D01*
X191261628Y-92361026D02*
X191356866Y-92337217D01*
X191356866Y-92337217D02*
X191475914Y-92337217D01*
X191475914Y-92337217D02*
X191571152Y-92361026D01*
X191571152Y-92361026D02*
X191618771Y-92384836D01*
X191618771Y-92384836D02*
X191642580Y-92408645D01*
X191642580Y-92408645D02*
X191666390Y-92456264D01*
X191166390Y-97246741D02*
X191166390Y-96961027D01*
X191166390Y-97103884D02*
X191666390Y-97103884D01*
X191666390Y-97103884D02*
X191594961Y-97056265D01*
X191594961Y-97056265D02*
X191547342Y-97008646D01*
X191547342Y-97008646D02*
X191523533Y-96961027D01*
X191618771Y-97437217D02*
X191642580Y-97461026D01*
X191642580Y-97461026D02*
X191666390Y-97508645D01*
X191666390Y-97508645D02*
X191666390Y-97627693D01*
X191666390Y-97627693D02*
X191642580Y-97675312D01*
X191642580Y-97675312D02*
X191618771Y-97699121D01*
X191618771Y-97699121D02*
X191571152Y-97722931D01*
X191571152Y-97722931D02*
X191523533Y-97722931D01*
X191523533Y-97722931D02*
X191452104Y-97699121D01*
X191452104Y-97699121D02*
X191166390Y-97413407D01*
X191166390Y-97413407D02*
X191166390Y-97722931D01*
X208381228Y-112738972D02*
X208357419Y-112715163D01*
X208357419Y-112715163D02*
X208333609Y-112667544D01*
X208333609Y-112667544D02*
X208333609Y-112548496D01*
X208333609Y-112548496D02*
X208357419Y-112500877D01*
X208357419Y-112500877D02*
X208381228Y-112477068D01*
X208381228Y-112477068D02*
X208428847Y-112453258D01*
X208428847Y-112453258D02*
X208476466Y-112453258D01*
X208476466Y-112453258D02*
X208547895Y-112477068D01*
X208547895Y-112477068D02*
X208833609Y-112762782D01*
X208833609Y-112762782D02*
X208833609Y-112453258D01*
X208833609Y-111977068D02*
X208833609Y-112262782D01*
X208833609Y-112119925D02*
X208333609Y-112119925D01*
X208333609Y-112119925D02*
X208405038Y-112167544D01*
X208405038Y-112167544D02*
X208452657Y-112215163D01*
X208452657Y-112215163D02*
X208476466Y-112262782D01*
X191166390Y-112346741D02*
X191166390Y-112061027D01*
X191166390Y-112203884D02*
X191666390Y-112203884D01*
X191666390Y-112203884D02*
X191594961Y-112156265D01*
X191594961Y-112156265D02*
X191547342Y-112108646D01*
X191547342Y-112108646D02*
X191523533Y-112061027D01*
X191452104Y-112632455D02*
X191475914Y-112584836D01*
X191475914Y-112584836D02*
X191499723Y-112561026D01*
X191499723Y-112561026D02*
X191547342Y-112537217D01*
X191547342Y-112537217D02*
X191571152Y-112537217D01*
X191571152Y-112537217D02*
X191618771Y-112561026D01*
X191618771Y-112561026D02*
X191642580Y-112584836D01*
X191642580Y-112584836D02*
X191666390Y-112632455D01*
X191666390Y-112632455D02*
X191666390Y-112727693D01*
X191666390Y-112727693D02*
X191642580Y-112775312D01*
X191642580Y-112775312D02*
X191618771Y-112799121D01*
X191618771Y-112799121D02*
X191571152Y-112822931D01*
X191571152Y-112822931D02*
X191547342Y-112822931D01*
X191547342Y-112822931D02*
X191499723Y-112799121D01*
X191499723Y-112799121D02*
X191475914Y-112775312D01*
X191475914Y-112775312D02*
X191452104Y-112727693D01*
X191452104Y-112727693D02*
X191452104Y-112632455D01*
X191452104Y-112632455D02*
X191428295Y-112584836D01*
X191428295Y-112584836D02*
X191404485Y-112561026D01*
X191404485Y-112561026D02*
X191356866Y-112537217D01*
X191356866Y-112537217D02*
X191261628Y-112537217D01*
X191261628Y-112537217D02*
X191214009Y-112561026D01*
X191214009Y-112561026D02*
X191190200Y-112584836D01*
X191190200Y-112584836D02*
X191166390Y-112632455D01*
X191166390Y-112632455D02*
X191166390Y-112727693D01*
X191166390Y-112727693D02*
X191190200Y-112775312D01*
X191190200Y-112775312D02*
X191214009Y-112799121D01*
X191214009Y-112799121D02*
X191261628Y-112822931D01*
X191261628Y-112822931D02*
X191356866Y-112822931D01*
X191356866Y-112822931D02*
X191404485Y-112799121D01*
X191404485Y-112799121D02*
X191428295Y-112775312D01*
X191428295Y-112775312D02*
X191452104Y-112727693D01*
X208833609Y-87715163D02*
X208333609Y-87715163D01*
X208333609Y-87715163D02*
X208690752Y-87548496D01*
X208690752Y-87548496D02*
X208333609Y-87381830D01*
X208333609Y-87381830D02*
X208833609Y-87381830D01*
X208333609Y-87215162D02*
X208333609Y-86929448D01*
X208833609Y-87072305D02*
X208333609Y-87072305D01*
X208833609Y-86762782D02*
X208333609Y-86762782D01*
X208333609Y-86762782D02*
X208333609Y-86643734D01*
X208333609Y-86643734D02*
X208357419Y-86572306D01*
X208357419Y-86572306D02*
X208405038Y-86524687D01*
X208405038Y-86524687D02*
X208452657Y-86500877D01*
X208452657Y-86500877D02*
X208547895Y-86477068D01*
X208547895Y-86477068D02*
X208619323Y-86477068D01*
X208619323Y-86477068D02*
X208714561Y-86500877D01*
X208714561Y-86500877D02*
X208762180Y-86524687D01*
X208762180Y-86524687D02*
X208809800Y-86572306D01*
X208809800Y-86572306D02*
X208833609Y-86643734D01*
X208833609Y-86643734D02*
X208833609Y-86762782D01*
X208333609Y-86167544D02*
X208333609Y-86072306D01*
X208333609Y-86072306D02*
X208357419Y-86024687D01*
X208357419Y-86024687D02*
X208405038Y-85977068D01*
X208405038Y-85977068D02*
X208500276Y-85953258D01*
X208500276Y-85953258D02*
X208666942Y-85953258D01*
X208666942Y-85953258D02*
X208762180Y-85977068D01*
X208762180Y-85977068D02*
X208809800Y-86024687D01*
X208809800Y-86024687D02*
X208833609Y-86072306D01*
X208833609Y-86072306D02*
X208833609Y-86167544D01*
X208833609Y-86167544D02*
X208809800Y-86215163D01*
X208809800Y-86215163D02*
X208762180Y-86262782D01*
X208762180Y-86262782D02*
X208666942Y-86286591D01*
X208666942Y-86286591D02*
X208500276Y-86286591D01*
X208500276Y-86286591D02*
X208405038Y-86262782D01*
X208405038Y-86262782D02*
X208357419Y-86215163D01*
X208357419Y-86215163D02*
X208333609Y-86167544D01*
X208333609Y-94962782D02*
X208333609Y-94653258D01*
X208333609Y-94653258D02*
X208524085Y-94819925D01*
X208524085Y-94819925D02*
X208524085Y-94748496D01*
X208524085Y-94748496D02*
X208547895Y-94700877D01*
X208547895Y-94700877D02*
X208571704Y-94677068D01*
X208571704Y-94677068D02*
X208619323Y-94653258D01*
X208619323Y-94653258D02*
X208738371Y-94653258D01*
X208738371Y-94653258D02*
X208785990Y-94677068D01*
X208785990Y-94677068D02*
X208809800Y-94700877D01*
X208809800Y-94700877D02*
X208833609Y-94748496D01*
X208833609Y-94748496D02*
X208833609Y-94891353D01*
X208833609Y-94891353D02*
X208809800Y-94938972D01*
X208809800Y-94938972D02*
X208785990Y-94962782D01*
X208333609Y-94486592D02*
X208333609Y-94153259D01*
X208333609Y-94153259D02*
X208833609Y-94367544D01*
X191694226Y-72747217D02*
X191694226Y-73056741D01*
X191694226Y-73056741D02*
X191503750Y-72890074D01*
X191503750Y-72890074D02*
X191503750Y-72961503D01*
X191503750Y-72961503D02*
X191479940Y-73009122D01*
X191479940Y-73009122D02*
X191456131Y-73032931D01*
X191456131Y-73032931D02*
X191408512Y-73056741D01*
X191408512Y-73056741D02*
X191289464Y-73056741D01*
X191289464Y-73056741D02*
X191241845Y-73032931D01*
X191241845Y-73032931D02*
X191218036Y-73009122D01*
X191218036Y-73009122D02*
X191194226Y-72961503D01*
X191194226Y-72961503D02*
X191194226Y-72818646D01*
X191194226Y-72818646D02*
X191218036Y-72771027D01*
X191218036Y-72771027D02*
X191241845Y-72747217D01*
X191694226Y-73199598D02*
X191194226Y-73366264D01*
X191194226Y-73366264D02*
X191694226Y-73532931D01*
X191694226Y-73651978D02*
X191694226Y-73961502D01*
X191694226Y-73961502D02*
X191503750Y-73794835D01*
X191503750Y-73794835D02*
X191503750Y-73866264D01*
X191503750Y-73866264D02*
X191479940Y-73913883D01*
X191479940Y-73913883D02*
X191456131Y-73937692D01*
X191456131Y-73937692D02*
X191408512Y-73961502D01*
X191408512Y-73961502D02*
X191289464Y-73961502D01*
X191289464Y-73961502D02*
X191241845Y-73937692D01*
X191241845Y-73937692D02*
X191218036Y-73913883D01*
X191218036Y-73913883D02*
X191194226Y-73866264D01*
X191194226Y-73866264D02*
X191194226Y-73723407D01*
X191194226Y-73723407D02*
X191218036Y-73675788D01*
X191218036Y-73675788D02*
X191241845Y-73651978D01*
X204361027Y-85081228D02*
X204384836Y-85057419D01*
X204384836Y-85057419D02*
X204432455Y-85033609D01*
X204432455Y-85033609D02*
X204551503Y-85033609D01*
X204551503Y-85033609D02*
X204599122Y-85057419D01*
X204599122Y-85057419D02*
X204622931Y-85081228D01*
X204622931Y-85081228D02*
X204646741Y-85128847D01*
X204646741Y-85128847D02*
X204646741Y-85176466D01*
X204646741Y-85176466D02*
X204622931Y-85247895D01*
X204622931Y-85247895D02*
X204337217Y-85533609D01*
X204337217Y-85533609D02*
X204646741Y-85533609D01*
X204956264Y-85033609D02*
X205003883Y-85033609D01*
X205003883Y-85033609D02*
X205051502Y-85057419D01*
X205051502Y-85057419D02*
X205075312Y-85081228D01*
X205075312Y-85081228D02*
X205099121Y-85128847D01*
X205099121Y-85128847D02*
X205122931Y-85224085D01*
X205122931Y-85224085D02*
X205122931Y-85343133D01*
X205122931Y-85343133D02*
X205099121Y-85438371D01*
X205099121Y-85438371D02*
X205075312Y-85485990D01*
X205075312Y-85485990D02*
X205051502Y-85509800D01*
X205051502Y-85509800D02*
X205003883Y-85533609D01*
X205003883Y-85533609D02*
X204956264Y-85533609D01*
X204956264Y-85533609D02*
X204908645Y-85509800D01*
X204908645Y-85509800D02*
X204884836Y-85485990D01*
X204884836Y-85485990D02*
X204861026Y-85438371D01*
X204861026Y-85438371D02*
X204837217Y-85343133D01*
X204837217Y-85343133D02*
X204837217Y-85224085D01*
X204837217Y-85224085D02*
X204861026Y-85128847D01*
X204861026Y-85128847D02*
X204884836Y-85081228D01*
X204884836Y-85081228D02*
X204908645Y-85057419D01*
X204908645Y-85057419D02*
X204956264Y-85033609D01*
X205313407Y-85081228D02*
X205337216Y-85057419D01*
X205337216Y-85057419D02*
X205384835Y-85033609D01*
X205384835Y-85033609D02*
X205503883Y-85033609D01*
X205503883Y-85033609D02*
X205551502Y-85057419D01*
X205551502Y-85057419D02*
X205575311Y-85081228D01*
X205575311Y-85081228D02*
X205599121Y-85128847D01*
X205599121Y-85128847D02*
X205599121Y-85176466D01*
X205599121Y-85176466D02*
X205575311Y-85247895D01*
X205575311Y-85247895D02*
X205289597Y-85533609D01*
X205289597Y-85533609D02*
X205599121Y-85533609D01*
X206027692Y-85033609D02*
X205932454Y-85033609D01*
X205932454Y-85033609D02*
X205884835Y-85057419D01*
X205884835Y-85057419D02*
X205861025Y-85081228D01*
X205861025Y-85081228D02*
X205813406Y-85152657D01*
X205813406Y-85152657D02*
X205789597Y-85247895D01*
X205789597Y-85247895D02*
X205789597Y-85438371D01*
X205789597Y-85438371D02*
X205813406Y-85485990D01*
X205813406Y-85485990D02*
X205837216Y-85509800D01*
X205837216Y-85509800D02*
X205884835Y-85533609D01*
X205884835Y-85533609D02*
X205980073Y-85533609D01*
X205980073Y-85533609D02*
X206027692Y-85509800D01*
X206027692Y-85509800D02*
X206051501Y-85485990D01*
X206051501Y-85485990D02*
X206075311Y-85438371D01*
X206075311Y-85438371D02*
X206075311Y-85319323D01*
X206075311Y-85319323D02*
X206051501Y-85271704D01*
X206051501Y-85271704D02*
X206027692Y-85247895D01*
X206027692Y-85247895D02*
X205980073Y-85224085D01*
X205980073Y-85224085D02*
X205884835Y-85224085D01*
X205884835Y-85224085D02*
X205837216Y-85247895D01*
X205837216Y-85247895D02*
X205813406Y-85271704D01*
X205813406Y-85271704D02*
X205789597Y-85319323D01*
X194214009Y-104770550D02*
X194190200Y-104746741D01*
X194190200Y-104746741D02*
X194166390Y-104675312D01*
X194166390Y-104675312D02*
X194166390Y-104627693D01*
X194166390Y-104627693D02*
X194190200Y-104556265D01*
X194190200Y-104556265D02*
X194237819Y-104508646D01*
X194237819Y-104508646D02*
X194285438Y-104484836D01*
X194285438Y-104484836D02*
X194380676Y-104461027D01*
X194380676Y-104461027D02*
X194452104Y-104461027D01*
X194452104Y-104461027D02*
X194547342Y-104484836D01*
X194547342Y-104484836D02*
X194594961Y-104508646D01*
X194594961Y-104508646D02*
X194642580Y-104556265D01*
X194642580Y-104556265D02*
X194666390Y-104627693D01*
X194666390Y-104627693D02*
X194666390Y-104675312D01*
X194666390Y-104675312D02*
X194642580Y-104746741D01*
X194642580Y-104746741D02*
X194618771Y-104770550D01*
X194166390Y-104984836D02*
X194666390Y-104984836D01*
X194428295Y-104984836D02*
X194428295Y-105270550D01*
X194166390Y-105270550D02*
X194666390Y-105270550D01*
X194166390Y-105794360D02*
X194404485Y-105627694D01*
X194166390Y-105508646D02*
X194666390Y-105508646D01*
X194666390Y-105508646D02*
X194666390Y-105699122D01*
X194666390Y-105699122D02*
X194642580Y-105746741D01*
X194642580Y-105746741D02*
X194618771Y-105770551D01*
X194618771Y-105770551D02*
X194571152Y-105794360D01*
X194571152Y-105794360D02*
X194499723Y-105794360D01*
X194499723Y-105794360D02*
X194452104Y-105770551D01*
X194452104Y-105770551D02*
X194428295Y-105746741D01*
X194428295Y-105746741D02*
X194404485Y-105699122D01*
X194404485Y-105699122D02*
X194404485Y-105508646D01*
X194642580Y-106270551D02*
X194666390Y-106222932D01*
X194666390Y-106222932D02*
X194666390Y-106151503D01*
X194666390Y-106151503D02*
X194642580Y-106080075D01*
X194642580Y-106080075D02*
X194594961Y-106032456D01*
X194594961Y-106032456D02*
X194547342Y-106008646D01*
X194547342Y-106008646D02*
X194452104Y-105984837D01*
X194452104Y-105984837D02*
X194380676Y-105984837D01*
X194380676Y-105984837D02*
X194285438Y-106008646D01*
X194285438Y-106008646D02*
X194237819Y-106032456D01*
X194237819Y-106032456D02*
X194190200Y-106080075D01*
X194190200Y-106080075D02*
X194166390Y-106151503D01*
X194166390Y-106151503D02*
X194166390Y-106199122D01*
X194166390Y-106199122D02*
X194190200Y-106270551D01*
X194190200Y-106270551D02*
X194214009Y-106294360D01*
X194214009Y-106294360D02*
X194380676Y-106294360D01*
X194380676Y-106294360D02*
X194380676Y-106199122D01*
X192466390Y-87922931D02*
X192466390Y-87684836D01*
X192466390Y-87684836D02*
X192966390Y-87684836D01*
X192728295Y-88089598D02*
X192728295Y-88256265D01*
X192466390Y-88327693D02*
X192466390Y-88089598D01*
X192466390Y-88089598D02*
X192966390Y-88089598D01*
X192966390Y-88089598D02*
X192966390Y-88327693D01*
X192466390Y-88541979D02*
X192966390Y-88541979D01*
X192966390Y-88541979D02*
X192966390Y-88661027D01*
X192966390Y-88661027D02*
X192942580Y-88732455D01*
X192942580Y-88732455D02*
X192894961Y-88780074D01*
X192894961Y-88780074D02*
X192847342Y-88803884D01*
X192847342Y-88803884D02*
X192752104Y-88827693D01*
X192752104Y-88827693D02*
X192680676Y-88827693D01*
X192680676Y-88827693D02*
X192585438Y-88803884D01*
X192585438Y-88803884D02*
X192537819Y-88780074D01*
X192537819Y-88780074D02*
X192490200Y-88732455D01*
X192490200Y-88732455D02*
X192466390Y-88661027D01*
X192466390Y-88661027D02*
X192466390Y-88541979D01*
X207333609Y-104429449D02*
X207095514Y-104596115D01*
X207333609Y-104715163D02*
X206833609Y-104715163D01*
X206833609Y-104715163D02*
X206833609Y-104524687D01*
X206833609Y-104524687D02*
X206857419Y-104477068D01*
X206857419Y-104477068D02*
X206881228Y-104453258D01*
X206881228Y-104453258D02*
X206928847Y-104429449D01*
X206928847Y-104429449D02*
X207000276Y-104429449D01*
X207000276Y-104429449D02*
X207047895Y-104453258D01*
X207047895Y-104453258D02*
X207071704Y-104477068D01*
X207071704Y-104477068D02*
X207095514Y-104524687D01*
X207095514Y-104524687D02*
X207095514Y-104715163D01*
X206857419Y-103953258D02*
X206833609Y-104000877D01*
X206833609Y-104000877D02*
X206833609Y-104072306D01*
X206833609Y-104072306D02*
X206857419Y-104143734D01*
X206857419Y-104143734D02*
X206905038Y-104191353D01*
X206905038Y-104191353D02*
X206952657Y-104215163D01*
X206952657Y-104215163D02*
X207047895Y-104238972D01*
X207047895Y-104238972D02*
X207119323Y-104238972D01*
X207119323Y-104238972D02*
X207214561Y-104215163D01*
X207214561Y-104215163D02*
X207262180Y-104191353D01*
X207262180Y-104191353D02*
X207309800Y-104143734D01*
X207309800Y-104143734D02*
X207333609Y-104072306D01*
X207333609Y-104072306D02*
X207333609Y-104024687D01*
X207333609Y-104024687D02*
X207309800Y-103953258D01*
X207309800Y-103953258D02*
X207285990Y-103929449D01*
X207285990Y-103929449D02*
X207119323Y-103929449D01*
X207119323Y-103929449D02*
X207119323Y-104024687D01*
X207071704Y-103548496D02*
X207095514Y-103477068D01*
X207095514Y-103477068D02*
X207119323Y-103453258D01*
X207119323Y-103453258D02*
X207166942Y-103429449D01*
X207166942Y-103429449D02*
X207238371Y-103429449D01*
X207238371Y-103429449D02*
X207285990Y-103453258D01*
X207285990Y-103453258D02*
X207309800Y-103477068D01*
X207309800Y-103477068D02*
X207333609Y-103524687D01*
X207333609Y-103524687D02*
X207333609Y-103715163D01*
X207333609Y-103715163D02*
X206833609Y-103715163D01*
X206833609Y-103715163D02*
X206833609Y-103548496D01*
X206833609Y-103548496D02*
X206857419Y-103500877D01*
X206857419Y-103500877D02*
X206881228Y-103477068D01*
X206881228Y-103477068D02*
X206928847Y-103453258D01*
X206928847Y-103453258D02*
X206976466Y-103453258D01*
X206976466Y-103453258D02*
X207024085Y-103477068D01*
X207024085Y-103477068D02*
X207047895Y-103500877D01*
X207047895Y-103500877D02*
X207071704Y-103548496D01*
X207071704Y-103548496D02*
X207071704Y-103715163D01*
X208333609Y-79786591D02*
X208333609Y-79500877D01*
X208833609Y-79643734D02*
X208333609Y-79643734D01*
X208333609Y-79381830D02*
X208833609Y-79048497D01*
X208333609Y-79048497D02*
X208833609Y-79381830D01*
X191642580Y-69146741D02*
X191666390Y-69099122D01*
X191666390Y-69099122D02*
X191666390Y-69027693D01*
X191666390Y-69027693D02*
X191642580Y-68956265D01*
X191642580Y-68956265D02*
X191594961Y-68908646D01*
X191594961Y-68908646D02*
X191547342Y-68884836D01*
X191547342Y-68884836D02*
X191452104Y-68861027D01*
X191452104Y-68861027D02*
X191380676Y-68861027D01*
X191380676Y-68861027D02*
X191285438Y-68884836D01*
X191285438Y-68884836D02*
X191237819Y-68908646D01*
X191237819Y-68908646D02*
X191190200Y-68956265D01*
X191190200Y-68956265D02*
X191166390Y-69027693D01*
X191166390Y-69027693D02*
X191166390Y-69075312D01*
X191166390Y-69075312D02*
X191190200Y-69146741D01*
X191190200Y-69146741D02*
X191214009Y-69170550D01*
X191214009Y-69170550D02*
X191380676Y-69170550D01*
X191380676Y-69170550D02*
X191380676Y-69075312D01*
X191166390Y-69384836D02*
X191666390Y-69384836D01*
X191666390Y-69384836D02*
X191166390Y-69670550D01*
X191166390Y-69670550D02*
X191666390Y-69670550D01*
X191166390Y-69908646D02*
X191666390Y-69908646D01*
X191666390Y-69908646D02*
X191666390Y-70027694D01*
X191666390Y-70027694D02*
X191642580Y-70099122D01*
X191642580Y-70099122D02*
X191594961Y-70146741D01*
X191594961Y-70146741D02*
X191547342Y-70170551D01*
X191547342Y-70170551D02*
X191452104Y-70194360D01*
X191452104Y-70194360D02*
X191380676Y-70194360D01*
X191380676Y-70194360D02*
X191285438Y-70170551D01*
X191285438Y-70170551D02*
X191237819Y-70146741D01*
X191237819Y-70146741D02*
X191190200Y-70099122D01*
X191190200Y-70099122D02*
X191166390Y-70027694D01*
X191166390Y-70027694D02*
X191166390Y-69908646D01*
X208333609Y-97462782D02*
X208333609Y-97153258D01*
X208333609Y-97153258D02*
X208524085Y-97319925D01*
X208524085Y-97319925D02*
X208524085Y-97248496D01*
X208524085Y-97248496D02*
X208547895Y-97200877D01*
X208547895Y-97200877D02*
X208571704Y-97177068D01*
X208571704Y-97177068D02*
X208619323Y-97153258D01*
X208619323Y-97153258D02*
X208738371Y-97153258D01*
X208738371Y-97153258D02*
X208785990Y-97177068D01*
X208785990Y-97177068D02*
X208809800Y-97200877D01*
X208809800Y-97200877D02*
X208833609Y-97248496D01*
X208833609Y-97248496D02*
X208833609Y-97391353D01*
X208833609Y-97391353D02*
X208809800Y-97438972D01*
X208809800Y-97438972D02*
X208785990Y-97462782D01*
X208333609Y-96724687D02*
X208333609Y-96819925D01*
X208333609Y-96819925D02*
X208357419Y-96867544D01*
X208357419Y-96867544D02*
X208381228Y-96891354D01*
X208381228Y-96891354D02*
X208452657Y-96938973D01*
X208452657Y-96938973D02*
X208547895Y-96962782D01*
X208547895Y-96962782D02*
X208738371Y-96962782D01*
X208738371Y-96962782D02*
X208785990Y-96938973D01*
X208785990Y-96938973D02*
X208809800Y-96915163D01*
X208809800Y-96915163D02*
X208833609Y-96867544D01*
X208833609Y-96867544D02*
X208833609Y-96772306D01*
X208833609Y-96772306D02*
X208809800Y-96724687D01*
X208809800Y-96724687D02*
X208785990Y-96700878D01*
X208785990Y-96700878D02*
X208738371Y-96677068D01*
X208738371Y-96677068D02*
X208619323Y-96677068D01*
X208619323Y-96677068D02*
X208571704Y-96700878D01*
X208571704Y-96700878D02*
X208547895Y-96724687D01*
X208547895Y-96724687D02*
X208524085Y-96772306D01*
X208524085Y-96772306D02*
X208524085Y-96867544D01*
X208524085Y-96867544D02*
X208547895Y-96915163D01*
X208547895Y-96915163D02*
X208571704Y-96938973D01*
X208571704Y-96938973D02*
X208619323Y-96962782D01*
X208400276Y-107400877D02*
X208733609Y-107400877D01*
X208209800Y-107519925D02*
X208566942Y-107638972D01*
X208566942Y-107638972D02*
X208566942Y-107329449D01*
X208233609Y-107186592D02*
X208233609Y-106853259D01*
X208233609Y-106853259D02*
X208733609Y-107067544D01*
X206833609Y-97786591D02*
X206833609Y-97500877D01*
X207333609Y-97643734D02*
X206833609Y-97643734D01*
X207071704Y-97334211D02*
X207071704Y-97167544D01*
X207333609Y-97096116D02*
X207333609Y-97334211D01*
X207333609Y-97334211D02*
X206833609Y-97334211D01*
X206833609Y-97334211D02*
X206833609Y-97096116D01*
X207333609Y-96881830D02*
X206833609Y-96881830D01*
X206833609Y-96881830D02*
X207190752Y-96715163D01*
X207190752Y-96715163D02*
X206833609Y-96548497D01*
X206833609Y-96548497D02*
X207333609Y-96548497D01*
X207333609Y-96310401D02*
X206833609Y-96310401D01*
X206833609Y-96310401D02*
X206833609Y-96119925D01*
X206833609Y-96119925D02*
X206857419Y-96072306D01*
X206857419Y-96072306D02*
X206881228Y-96048496D01*
X206881228Y-96048496D02*
X206928847Y-96024687D01*
X206928847Y-96024687D02*
X207000276Y-96024687D01*
X207000276Y-96024687D02*
X207047895Y-96048496D01*
X207047895Y-96048496D02*
X207071704Y-96072306D01*
X207071704Y-96072306D02*
X207095514Y-96119925D01*
X207095514Y-96119925D02*
X207095514Y-96310401D01*
X208833609Y-90315163D02*
X208333609Y-90315163D01*
X208333609Y-90315163D02*
X208690752Y-90148496D01*
X208690752Y-90148496D02*
X208333609Y-89981830D01*
X208333609Y-89981830D02*
X208833609Y-89981830D01*
X208333609Y-89815162D02*
X208333609Y-89529448D01*
X208833609Y-89672305D02*
X208333609Y-89672305D01*
X208785990Y-89077068D02*
X208809800Y-89100877D01*
X208809800Y-89100877D02*
X208833609Y-89172306D01*
X208833609Y-89172306D02*
X208833609Y-89219925D01*
X208833609Y-89219925D02*
X208809800Y-89291353D01*
X208809800Y-89291353D02*
X208762180Y-89338972D01*
X208762180Y-89338972D02*
X208714561Y-89362782D01*
X208714561Y-89362782D02*
X208619323Y-89386591D01*
X208619323Y-89386591D02*
X208547895Y-89386591D01*
X208547895Y-89386591D02*
X208452657Y-89362782D01*
X208452657Y-89362782D02*
X208405038Y-89338972D01*
X208405038Y-89338972D02*
X208357419Y-89291353D01*
X208357419Y-89291353D02*
X208333609Y-89219925D01*
X208333609Y-89219925D02*
X208333609Y-89172306D01*
X208333609Y-89172306D02*
X208357419Y-89100877D01*
X208357419Y-89100877D02*
X208381228Y-89077068D01*
X208833609Y-88862782D02*
X208333609Y-88862782D01*
X208833609Y-88577068D02*
X208547895Y-88791353D01*
X208333609Y-88577068D02*
X208619323Y-88862782D01*
X192728295Y-105551503D02*
X192704485Y-105622931D01*
X192704485Y-105622931D02*
X192680676Y-105646741D01*
X192680676Y-105646741D02*
X192633057Y-105670550D01*
X192633057Y-105670550D02*
X192561628Y-105670550D01*
X192561628Y-105670550D02*
X192514009Y-105646741D01*
X192514009Y-105646741D02*
X192490200Y-105622931D01*
X192490200Y-105622931D02*
X192466390Y-105575312D01*
X192466390Y-105575312D02*
X192466390Y-105384836D01*
X192466390Y-105384836D02*
X192966390Y-105384836D01*
X192966390Y-105384836D02*
X192966390Y-105551503D01*
X192966390Y-105551503D02*
X192942580Y-105599122D01*
X192942580Y-105599122D02*
X192918771Y-105622931D01*
X192918771Y-105622931D02*
X192871152Y-105646741D01*
X192871152Y-105646741D02*
X192823533Y-105646741D01*
X192823533Y-105646741D02*
X192775914Y-105622931D01*
X192775914Y-105622931D02*
X192752104Y-105599122D01*
X192752104Y-105599122D02*
X192728295Y-105551503D01*
X192728295Y-105551503D02*
X192728295Y-105384836D01*
X192609247Y-105861027D02*
X192609247Y-106099122D01*
X192466390Y-105813408D02*
X192966390Y-105980074D01*
X192966390Y-105980074D02*
X192466390Y-106146741D01*
X192966390Y-106241979D02*
X192966390Y-106527693D01*
X192466390Y-106384836D02*
X192966390Y-106384836D01*
X208333609Y-92462782D02*
X208333609Y-92153258D01*
X208333609Y-92153258D02*
X208524085Y-92319925D01*
X208524085Y-92319925D02*
X208524085Y-92248496D01*
X208524085Y-92248496D02*
X208547895Y-92200877D01*
X208547895Y-92200877D02*
X208571704Y-92177068D01*
X208571704Y-92177068D02*
X208619323Y-92153258D01*
X208619323Y-92153258D02*
X208738371Y-92153258D01*
X208738371Y-92153258D02*
X208785990Y-92177068D01*
X208785990Y-92177068D02*
X208809800Y-92200877D01*
X208809800Y-92200877D02*
X208833609Y-92248496D01*
X208833609Y-92248496D02*
X208833609Y-92391353D01*
X208833609Y-92391353D02*
X208809800Y-92438972D01*
X208809800Y-92438972D02*
X208785990Y-92462782D01*
X208547895Y-91867544D02*
X208524085Y-91915163D01*
X208524085Y-91915163D02*
X208500276Y-91938973D01*
X208500276Y-91938973D02*
X208452657Y-91962782D01*
X208452657Y-91962782D02*
X208428847Y-91962782D01*
X208428847Y-91962782D02*
X208381228Y-91938973D01*
X208381228Y-91938973D02*
X208357419Y-91915163D01*
X208357419Y-91915163D02*
X208333609Y-91867544D01*
X208333609Y-91867544D02*
X208333609Y-91772306D01*
X208333609Y-91772306D02*
X208357419Y-91724687D01*
X208357419Y-91724687D02*
X208381228Y-91700878D01*
X208381228Y-91700878D02*
X208428847Y-91677068D01*
X208428847Y-91677068D02*
X208452657Y-91677068D01*
X208452657Y-91677068D02*
X208500276Y-91700878D01*
X208500276Y-91700878D02*
X208524085Y-91724687D01*
X208524085Y-91724687D02*
X208547895Y-91772306D01*
X208547895Y-91772306D02*
X208547895Y-91867544D01*
X208547895Y-91867544D02*
X208571704Y-91915163D01*
X208571704Y-91915163D02*
X208595514Y-91938973D01*
X208595514Y-91938973D02*
X208643133Y-91962782D01*
X208643133Y-91962782D02*
X208738371Y-91962782D01*
X208738371Y-91962782D02*
X208785990Y-91938973D01*
X208785990Y-91938973D02*
X208809800Y-91915163D01*
X208809800Y-91915163D02*
X208833609Y-91867544D01*
X208833609Y-91867544D02*
X208833609Y-91772306D01*
X208833609Y-91772306D02*
X208809800Y-91724687D01*
X208809800Y-91724687D02*
X208785990Y-91700878D01*
X208785990Y-91700878D02*
X208738371Y-91677068D01*
X208738371Y-91677068D02*
X208643133Y-91677068D01*
X208643133Y-91677068D02*
X208595514Y-91700878D01*
X208595514Y-91700878D02*
X208571704Y-91724687D01*
X208571704Y-91724687D02*
X208547895Y-91772306D01*
X191166390Y-104646741D02*
X191166390Y-104361027D01*
X191166390Y-104503884D02*
X191666390Y-104503884D01*
X191666390Y-104503884D02*
X191594961Y-104456265D01*
X191594961Y-104456265D02*
X191547342Y-104408646D01*
X191547342Y-104408646D02*
X191523533Y-104361027D01*
X191666390Y-105099121D02*
X191666390Y-104861026D01*
X191666390Y-104861026D02*
X191428295Y-104837217D01*
X191428295Y-104837217D02*
X191452104Y-104861026D01*
X191452104Y-104861026D02*
X191475914Y-104908645D01*
X191475914Y-104908645D02*
X191475914Y-105027693D01*
X191475914Y-105027693D02*
X191452104Y-105075312D01*
X191452104Y-105075312D02*
X191428295Y-105099121D01*
X191428295Y-105099121D02*
X191380676Y-105122931D01*
X191380676Y-105122931D02*
X191261628Y-105122931D01*
X191261628Y-105122931D02*
X191214009Y-105099121D01*
X191214009Y-105099121D02*
X191190200Y-105075312D01*
X191190200Y-105075312D02*
X191166390Y-105027693D01*
X191166390Y-105027693D02*
X191166390Y-104908645D01*
X191166390Y-104908645D02*
X191190200Y-104861026D01*
X191190200Y-104861026D02*
X191214009Y-104837217D01*
X191399723Y-82099122D02*
X191066390Y-82099122D01*
X191590200Y-81980074D02*
X191233057Y-81861027D01*
X191233057Y-81861027D02*
X191233057Y-82170550D01*
X191666390Y-113313408D02*
X191166390Y-113480074D01*
X191166390Y-113480074D02*
X191666390Y-113646741D01*
X191118771Y-113694360D02*
X191118771Y-114075312D01*
X191666390Y-114194359D02*
X191261628Y-114194359D01*
X191261628Y-114194359D02*
X191214009Y-114218169D01*
X191214009Y-114218169D02*
X191190200Y-114241978D01*
X191190200Y-114241978D02*
X191166390Y-114289597D01*
X191166390Y-114289597D02*
X191166390Y-114384835D01*
X191166390Y-114384835D02*
X191190200Y-114432454D01*
X191190200Y-114432454D02*
X191214009Y-114456264D01*
X191214009Y-114456264D02*
X191261628Y-114480073D01*
X191261628Y-114480073D02*
X191666390Y-114480073D01*
X191190200Y-114694360D02*
X191166390Y-114765788D01*
X191166390Y-114765788D02*
X191166390Y-114884836D01*
X191166390Y-114884836D02*
X191190200Y-114932455D01*
X191190200Y-114932455D02*
X191214009Y-114956264D01*
X191214009Y-114956264D02*
X191261628Y-114980074D01*
X191261628Y-114980074D02*
X191309247Y-114980074D01*
X191309247Y-114980074D02*
X191356866Y-114956264D01*
X191356866Y-114956264D02*
X191380676Y-114932455D01*
X191380676Y-114932455D02*
X191404485Y-114884836D01*
X191404485Y-114884836D02*
X191428295Y-114789598D01*
X191428295Y-114789598D02*
X191452104Y-114741979D01*
X191452104Y-114741979D02*
X191475914Y-114718169D01*
X191475914Y-114718169D02*
X191523533Y-114694360D01*
X191523533Y-114694360D02*
X191571152Y-114694360D01*
X191571152Y-114694360D02*
X191618771Y-114718169D01*
X191618771Y-114718169D02*
X191642580Y-114741979D01*
X191642580Y-114741979D02*
X191666390Y-114789598D01*
X191666390Y-114789598D02*
X191666390Y-114908645D01*
X191666390Y-114908645D02*
X191642580Y-114980074D01*
X191428295Y-115361026D02*
X191404485Y-115432454D01*
X191404485Y-115432454D02*
X191380676Y-115456264D01*
X191380676Y-115456264D02*
X191333057Y-115480073D01*
X191333057Y-115480073D02*
X191261628Y-115480073D01*
X191261628Y-115480073D02*
X191214009Y-115456264D01*
X191214009Y-115456264D02*
X191190200Y-115432454D01*
X191190200Y-115432454D02*
X191166390Y-115384835D01*
X191166390Y-115384835D02*
X191166390Y-115194359D01*
X191166390Y-115194359D02*
X191666390Y-115194359D01*
X191666390Y-115194359D02*
X191666390Y-115361026D01*
X191666390Y-115361026D02*
X191642580Y-115408645D01*
X191642580Y-115408645D02*
X191618771Y-115432454D01*
X191618771Y-115432454D02*
X191571152Y-115456264D01*
X191571152Y-115456264D02*
X191523533Y-115456264D01*
X191523533Y-115456264D02*
X191475914Y-115432454D01*
X191475914Y-115432454D02*
X191452104Y-115408645D01*
X191452104Y-115408645D02*
X191428295Y-115361026D01*
X191428295Y-115361026D02*
X191428295Y-115194359D01*
X208233609Y-102662782D02*
X208233609Y-102353258D01*
X208233609Y-102353258D02*
X208424085Y-102519925D01*
X208424085Y-102519925D02*
X208424085Y-102448496D01*
X208424085Y-102448496D02*
X208447895Y-102400877D01*
X208447895Y-102400877D02*
X208471704Y-102377068D01*
X208471704Y-102377068D02*
X208519323Y-102353258D01*
X208519323Y-102353258D02*
X208638371Y-102353258D01*
X208638371Y-102353258D02*
X208685990Y-102377068D01*
X208685990Y-102377068D02*
X208709800Y-102400877D01*
X208709800Y-102400877D02*
X208733609Y-102448496D01*
X208733609Y-102448496D02*
X208733609Y-102591353D01*
X208733609Y-102591353D02*
X208709800Y-102638972D01*
X208709800Y-102638972D02*
X208685990Y-102662782D01*
X208400276Y-101924687D02*
X208733609Y-101924687D01*
X208209800Y-102043735D02*
X208566942Y-102162782D01*
X208566942Y-102162782D02*
X208566942Y-101853259D01*
X191166390Y-99646741D02*
X191166390Y-99361027D01*
X191166390Y-99503884D02*
X191666390Y-99503884D01*
X191666390Y-99503884D02*
X191594961Y-99456265D01*
X191594961Y-99456265D02*
X191547342Y-99408646D01*
X191547342Y-99408646D02*
X191523533Y-99361027D01*
X191666390Y-99813407D02*
X191666390Y-100122931D01*
X191666390Y-100122931D02*
X191475914Y-99956264D01*
X191475914Y-99956264D02*
X191475914Y-100027693D01*
X191475914Y-100027693D02*
X191452104Y-100075312D01*
X191452104Y-100075312D02*
X191428295Y-100099121D01*
X191428295Y-100099121D02*
X191380676Y-100122931D01*
X191380676Y-100122931D02*
X191261628Y-100122931D01*
X191261628Y-100122931D02*
X191214009Y-100099121D01*
X191214009Y-100099121D02*
X191190200Y-100075312D01*
X191190200Y-100075312D02*
X191166390Y-100027693D01*
X191166390Y-100027693D02*
X191166390Y-99884836D01*
X191166390Y-99884836D02*
X191190200Y-99837217D01*
X191190200Y-99837217D02*
X191214009Y-99813407D01*
X191166390Y-109846741D02*
X191166390Y-109561027D01*
X191166390Y-109703884D02*
X191666390Y-109703884D01*
X191666390Y-109703884D02*
X191594961Y-109656265D01*
X191594961Y-109656265D02*
X191547342Y-109608646D01*
X191547342Y-109608646D02*
X191523533Y-109561027D01*
X191666390Y-110013407D02*
X191666390Y-110346740D01*
X191666390Y-110346740D02*
X191166390Y-110132455D01*
X192528295Y-109651503D02*
X192504485Y-109722931D01*
X192504485Y-109722931D02*
X192480676Y-109746741D01*
X192480676Y-109746741D02*
X192433057Y-109770550D01*
X192433057Y-109770550D02*
X192361628Y-109770550D01*
X192361628Y-109770550D02*
X192314009Y-109746741D01*
X192314009Y-109746741D02*
X192290200Y-109722931D01*
X192290200Y-109722931D02*
X192266390Y-109675312D01*
X192266390Y-109675312D02*
X192266390Y-109484836D01*
X192266390Y-109484836D02*
X192766390Y-109484836D01*
X192766390Y-109484836D02*
X192766390Y-109651503D01*
X192766390Y-109651503D02*
X192742580Y-109699122D01*
X192742580Y-109699122D02*
X192718771Y-109722931D01*
X192718771Y-109722931D02*
X192671152Y-109746741D01*
X192671152Y-109746741D02*
X192623533Y-109746741D01*
X192623533Y-109746741D02*
X192575914Y-109722931D01*
X192575914Y-109722931D02*
X192552104Y-109699122D01*
X192552104Y-109699122D02*
X192528295Y-109651503D01*
X192528295Y-109651503D02*
X192528295Y-109484836D01*
X192409247Y-109961027D02*
X192409247Y-110199122D01*
X192266390Y-109913408D02*
X192766390Y-110080074D01*
X192766390Y-110080074D02*
X192266390Y-110246741D01*
X192766390Y-110341979D02*
X192766390Y-110627693D01*
X192266390Y-110484836D02*
X192766390Y-110484836D01*
X192218771Y-110675312D02*
X192218771Y-111056264D01*
X192314009Y-111461025D02*
X192290200Y-111437216D01*
X192290200Y-111437216D02*
X192266390Y-111365787D01*
X192266390Y-111365787D02*
X192266390Y-111318168D01*
X192266390Y-111318168D02*
X192290200Y-111246740D01*
X192290200Y-111246740D02*
X192337819Y-111199121D01*
X192337819Y-111199121D02*
X192385438Y-111175311D01*
X192385438Y-111175311D02*
X192480676Y-111151502D01*
X192480676Y-111151502D02*
X192552104Y-111151502D01*
X192552104Y-111151502D02*
X192647342Y-111175311D01*
X192647342Y-111175311D02*
X192694961Y-111199121D01*
X192694961Y-111199121D02*
X192742580Y-111246740D01*
X192742580Y-111246740D02*
X192766390Y-111318168D01*
X192766390Y-111318168D02*
X192766390Y-111365787D01*
X192766390Y-111365787D02*
X192742580Y-111437216D01*
X192742580Y-111437216D02*
X192718771Y-111461025D01*
X192266390Y-111675311D02*
X192766390Y-111675311D01*
X192528295Y-111675311D02*
X192528295Y-111961025D01*
X192266390Y-111961025D02*
X192766390Y-111961025D01*
X192266390Y-112484835D02*
X192504485Y-112318169D01*
X192266390Y-112199121D02*
X192766390Y-112199121D01*
X192766390Y-112199121D02*
X192766390Y-112389597D01*
X192766390Y-112389597D02*
X192742580Y-112437216D01*
X192742580Y-112437216D02*
X192718771Y-112461026D01*
X192718771Y-112461026D02*
X192671152Y-112484835D01*
X192671152Y-112484835D02*
X192599723Y-112484835D01*
X192599723Y-112484835D02*
X192552104Y-112461026D01*
X192552104Y-112461026D02*
X192528295Y-112437216D01*
X192528295Y-112437216D02*
X192504485Y-112389597D01*
X192504485Y-112389597D02*
X192504485Y-112199121D01*
X192742580Y-112961026D02*
X192766390Y-112913407D01*
X192766390Y-112913407D02*
X192766390Y-112841978D01*
X192766390Y-112841978D02*
X192742580Y-112770550D01*
X192742580Y-112770550D02*
X192694961Y-112722931D01*
X192694961Y-112722931D02*
X192647342Y-112699121D01*
X192647342Y-112699121D02*
X192552104Y-112675312D01*
X192552104Y-112675312D02*
X192480676Y-112675312D01*
X192480676Y-112675312D02*
X192385438Y-112699121D01*
X192385438Y-112699121D02*
X192337819Y-112722931D01*
X192337819Y-112722931D02*
X192290200Y-112770550D01*
X192290200Y-112770550D02*
X192266390Y-112841978D01*
X192266390Y-112841978D02*
X192266390Y-112889597D01*
X192266390Y-112889597D02*
X192290200Y-112961026D01*
X192290200Y-112961026D02*
X192314009Y-112984835D01*
X192314009Y-112984835D02*
X192480676Y-112984835D01*
X192480676Y-112984835D02*
X192480676Y-112889597D01*
X193628572Y-84861760D02*
X193795239Y-84861760D01*
X193866667Y-85123665D02*
X193628572Y-85123665D01*
X193628572Y-85123665D02*
X193628572Y-84623665D01*
X193628572Y-84623665D02*
X193866667Y-84623665D01*
X194057144Y-85099856D02*
X194128572Y-85123665D01*
X194128572Y-85123665D02*
X194247620Y-85123665D01*
X194247620Y-85123665D02*
X194295239Y-85099856D01*
X194295239Y-85099856D02*
X194319048Y-85076046D01*
X194319048Y-85076046D02*
X194342858Y-85028427D01*
X194342858Y-85028427D02*
X194342858Y-84980808D01*
X194342858Y-84980808D02*
X194319048Y-84933189D01*
X194319048Y-84933189D02*
X194295239Y-84909379D01*
X194295239Y-84909379D02*
X194247620Y-84885570D01*
X194247620Y-84885570D02*
X194152382Y-84861760D01*
X194152382Y-84861760D02*
X194104763Y-84837951D01*
X194104763Y-84837951D02*
X194080953Y-84814141D01*
X194080953Y-84814141D02*
X194057144Y-84766522D01*
X194057144Y-84766522D02*
X194057144Y-84718903D01*
X194057144Y-84718903D02*
X194080953Y-84671284D01*
X194080953Y-84671284D02*
X194104763Y-84647475D01*
X194104763Y-84647475D02*
X194152382Y-84623665D01*
X194152382Y-84623665D02*
X194271429Y-84623665D01*
X194271429Y-84623665D02*
X194342858Y-84647475D01*
X194557143Y-85123665D02*
X194557143Y-84623665D01*
X194557143Y-84623665D02*
X194747619Y-84623665D01*
X194747619Y-84623665D02*
X194795238Y-84647475D01*
X194795238Y-84647475D02*
X194819048Y-84671284D01*
X194819048Y-84671284D02*
X194842857Y-84718903D01*
X194842857Y-84718903D02*
X194842857Y-84790332D01*
X194842857Y-84790332D02*
X194819048Y-84837951D01*
X194819048Y-84837951D02*
X194795238Y-84861760D01*
X194795238Y-84861760D02*
X194747619Y-84885570D01*
X194747619Y-84885570D02*
X194557143Y-84885570D01*
X195009524Y-84623665D02*
X195319048Y-84623665D01*
X195319048Y-84623665D02*
X195152381Y-84814141D01*
X195152381Y-84814141D02*
X195223810Y-84814141D01*
X195223810Y-84814141D02*
X195271429Y-84837951D01*
X195271429Y-84837951D02*
X195295238Y-84861760D01*
X195295238Y-84861760D02*
X195319048Y-84909379D01*
X195319048Y-84909379D02*
X195319048Y-85028427D01*
X195319048Y-85028427D02*
X195295238Y-85076046D01*
X195295238Y-85076046D02*
X195271429Y-85099856D01*
X195271429Y-85099856D02*
X195223810Y-85123665D01*
X195223810Y-85123665D02*
X195080953Y-85123665D01*
X195080953Y-85123665D02*
X195033334Y-85099856D01*
X195033334Y-85099856D02*
X195009524Y-85076046D01*
X195509524Y-84671284D02*
X195533333Y-84647475D01*
X195533333Y-84647475D02*
X195580952Y-84623665D01*
X195580952Y-84623665D02*
X195700000Y-84623665D01*
X195700000Y-84623665D02*
X195747619Y-84647475D01*
X195747619Y-84647475D02*
X195771428Y-84671284D01*
X195771428Y-84671284D02*
X195795238Y-84718903D01*
X195795238Y-84718903D02*
X195795238Y-84766522D01*
X195795238Y-84766522D02*
X195771428Y-84837951D01*
X195771428Y-84837951D02*
X195485714Y-85123665D01*
X195485714Y-85123665D02*
X195795238Y-85123665D01*
X194319048Y-85904828D02*
X194390476Y-85928637D01*
X194390476Y-85928637D02*
X194509524Y-85928637D01*
X194509524Y-85928637D02*
X194557143Y-85904828D01*
X194557143Y-85904828D02*
X194580952Y-85881018D01*
X194580952Y-85881018D02*
X194604762Y-85833399D01*
X194604762Y-85833399D02*
X194604762Y-85785780D01*
X194604762Y-85785780D02*
X194580952Y-85738161D01*
X194580952Y-85738161D02*
X194557143Y-85714351D01*
X194557143Y-85714351D02*
X194509524Y-85690542D01*
X194509524Y-85690542D02*
X194414286Y-85666732D01*
X194414286Y-85666732D02*
X194366667Y-85642923D01*
X194366667Y-85642923D02*
X194342857Y-85619113D01*
X194342857Y-85619113D02*
X194319048Y-85571494D01*
X194319048Y-85571494D02*
X194319048Y-85523875D01*
X194319048Y-85523875D02*
X194342857Y-85476256D01*
X194342857Y-85476256D02*
X194366667Y-85452447D01*
X194366667Y-85452447D02*
X194414286Y-85428637D01*
X194414286Y-85428637D02*
X194533333Y-85428637D01*
X194533333Y-85428637D02*
X194604762Y-85452447D01*
X194771428Y-85428637D02*
X195080952Y-85428637D01*
X195080952Y-85428637D02*
X194914285Y-85619113D01*
X194914285Y-85619113D02*
X194985714Y-85619113D01*
X194985714Y-85619113D02*
X195033333Y-85642923D01*
X195033333Y-85642923D02*
X195057142Y-85666732D01*
X195057142Y-85666732D02*
X195080952Y-85714351D01*
X195080952Y-85714351D02*
X195080952Y-85833399D01*
X195080952Y-85833399D02*
X195057142Y-85881018D01*
X195057142Y-85881018D02*
X195033333Y-85904828D01*
X195033333Y-85904828D02*
X194985714Y-85928637D01*
X194985714Y-85928637D02*
X194842857Y-85928637D01*
X194842857Y-85928637D02*
X194795238Y-85904828D01*
X194795238Y-85904828D02*
X194771428Y-85881018D01*
X194033333Y-86733609D02*
X194033333Y-86233609D01*
X194033333Y-86233609D02*
X194200000Y-86590752D01*
X194200000Y-86590752D02*
X194366666Y-86233609D01*
X194366666Y-86233609D02*
X194366666Y-86733609D01*
X194604762Y-86733609D02*
X194604762Y-86233609D01*
X194842857Y-86733609D02*
X194842857Y-86233609D01*
X194842857Y-86233609D02*
X195128571Y-86733609D01*
X195128571Y-86733609D02*
X195128571Y-86233609D01*
X195366667Y-86733609D02*
X195366667Y-86233609D01*
X202933609Y-87515163D02*
X203338371Y-87515163D01*
X203338371Y-87515163D02*
X203385990Y-87491353D01*
X203385990Y-87491353D02*
X203409800Y-87467544D01*
X203409800Y-87467544D02*
X203433609Y-87419925D01*
X203433609Y-87419925D02*
X203433609Y-87324687D01*
X203433609Y-87324687D02*
X203409800Y-87277068D01*
X203409800Y-87277068D02*
X203385990Y-87253258D01*
X203385990Y-87253258D02*
X203338371Y-87229449D01*
X203338371Y-87229449D02*
X202933609Y-87229449D01*
X203409800Y-87015162D02*
X203433609Y-86943734D01*
X203433609Y-86943734D02*
X203433609Y-86824686D01*
X203433609Y-86824686D02*
X203409800Y-86777067D01*
X203409800Y-86777067D02*
X203385990Y-86753258D01*
X203385990Y-86753258D02*
X203338371Y-86729448D01*
X203338371Y-86729448D02*
X203290752Y-86729448D01*
X203290752Y-86729448D02*
X203243133Y-86753258D01*
X203243133Y-86753258D02*
X203219323Y-86777067D01*
X203219323Y-86777067D02*
X203195514Y-86824686D01*
X203195514Y-86824686D02*
X203171704Y-86919924D01*
X203171704Y-86919924D02*
X203147895Y-86967543D01*
X203147895Y-86967543D02*
X203124085Y-86991353D01*
X203124085Y-86991353D02*
X203076466Y-87015162D01*
X203076466Y-87015162D02*
X203028847Y-87015162D01*
X203028847Y-87015162D02*
X202981228Y-86991353D01*
X202981228Y-86991353D02*
X202957419Y-86967543D01*
X202957419Y-86967543D02*
X202933609Y-86919924D01*
X202933609Y-86919924D02*
X202933609Y-86800877D01*
X202933609Y-86800877D02*
X202957419Y-86729448D01*
X203171704Y-86348496D02*
X203195514Y-86277068D01*
X203195514Y-86277068D02*
X203219323Y-86253258D01*
X203219323Y-86253258D02*
X203266942Y-86229449D01*
X203266942Y-86229449D02*
X203338371Y-86229449D01*
X203338371Y-86229449D02*
X203385990Y-86253258D01*
X203385990Y-86253258D02*
X203409800Y-86277068D01*
X203409800Y-86277068D02*
X203433609Y-86324687D01*
X203433609Y-86324687D02*
X203433609Y-86515163D01*
X203433609Y-86515163D02*
X202933609Y-86515163D01*
X202933609Y-86515163D02*
X202933609Y-86348496D01*
X202933609Y-86348496D02*
X202957419Y-86300877D01*
X202957419Y-86300877D02*
X202981228Y-86277068D01*
X202981228Y-86277068D02*
X203028847Y-86253258D01*
X203028847Y-86253258D02*
X203076466Y-86253258D01*
X203076466Y-86253258D02*
X203124085Y-86277068D01*
X203124085Y-86277068D02*
X203147895Y-86300877D01*
X203147895Y-86300877D02*
X203171704Y-86348496D01*
X203171704Y-86348496D02*
X203171704Y-86515163D01*
X202981228Y-85658020D02*
X202957419Y-85634211D01*
X202957419Y-85634211D02*
X202933609Y-85586592D01*
X202933609Y-85586592D02*
X202933609Y-85467544D01*
X202933609Y-85467544D02*
X202957419Y-85419925D01*
X202957419Y-85419925D02*
X202981228Y-85396116D01*
X202981228Y-85396116D02*
X203028847Y-85372306D01*
X203028847Y-85372306D02*
X203076466Y-85372306D01*
X203076466Y-85372306D02*
X203147895Y-85396116D01*
X203147895Y-85396116D02*
X203433609Y-85681830D01*
X203433609Y-85681830D02*
X203433609Y-85372306D01*
X203385990Y-85158021D02*
X203409800Y-85134211D01*
X203409800Y-85134211D02*
X203433609Y-85158021D01*
X203433609Y-85158021D02*
X203409800Y-85181830D01*
X203409800Y-85181830D02*
X203385990Y-85158021D01*
X203385990Y-85158021D02*
X203433609Y-85158021D01*
X202933609Y-84824688D02*
X202933609Y-84777069D01*
X202933609Y-84777069D02*
X202957419Y-84729450D01*
X202957419Y-84729450D02*
X202981228Y-84705640D01*
X202981228Y-84705640D02*
X203028847Y-84681831D01*
X203028847Y-84681831D02*
X203124085Y-84658021D01*
X203124085Y-84658021D02*
X203243133Y-84658021D01*
X203243133Y-84658021D02*
X203338371Y-84681831D01*
X203338371Y-84681831D02*
X203385990Y-84705640D01*
X203385990Y-84705640D02*
X203409800Y-84729450D01*
X203409800Y-84729450D02*
X203433609Y-84777069D01*
X203433609Y-84777069D02*
X203433609Y-84824688D01*
X203433609Y-84824688D02*
X203409800Y-84872307D01*
X203409800Y-84872307D02*
X203385990Y-84896116D01*
X203385990Y-84896116D02*
X203338371Y-84919926D01*
X203338371Y-84919926D02*
X203243133Y-84943735D01*
X203243133Y-84943735D02*
X203124085Y-84943735D01*
X203124085Y-84943735D02*
X203028847Y-84919926D01*
X203028847Y-84919926D02*
X202981228Y-84896116D01*
X202981228Y-84896116D02*
X202957419Y-84872307D01*
X202957419Y-84872307D02*
X202933609Y-84824688D01*
X191366390Y-87099122D02*
X191366390Y-87003884D01*
X191366390Y-87003884D02*
X191342580Y-86956265D01*
X191342580Y-86956265D02*
X191318771Y-86932455D01*
X191318771Y-86932455D02*
X191247342Y-86884836D01*
X191247342Y-86884836D02*
X191152104Y-86861027D01*
X191152104Y-86861027D02*
X190961628Y-86861027D01*
X190961628Y-86861027D02*
X190914009Y-86884836D01*
X190914009Y-86884836D02*
X190890200Y-86908646D01*
X190890200Y-86908646D02*
X190866390Y-86956265D01*
X190866390Y-86956265D02*
X190866390Y-87051503D01*
X190866390Y-87051503D02*
X190890200Y-87099122D01*
X190890200Y-87099122D02*
X190914009Y-87122931D01*
X190914009Y-87122931D02*
X190961628Y-87146741D01*
X190961628Y-87146741D02*
X191080676Y-87146741D01*
X191080676Y-87146741D02*
X191128295Y-87122931D01*
X191128295Y-87122931D02*
X191152104Y-87099122D01*
X191152104Y-87099122D02*
X191175914Y-87051503D01*
X191175914Y-87051503D02*
X191175914Y-86956265D01*
X191175914Y-86956265D02*
X191152104Y-86908646D01*
X191152104Y-86908646D02*
X191128295Y-86884836D01*
X191128295Y-86884836D02*
X191080676Y-86861027D01*
X208833609Y-76829449D02*
X208595514Y-76996115D01*
X208833609Y-77115163D02*
X208333609Y-77115163D01*
X208333609Y-77115163D02*
X208333609Y-76924687D01*
X208333609Y-76924687D02*
X208357419Y-76877068D01*
X208357419Y-76877068D02*
X208381228Y-76853258D01*
X208381228Y-76853258D02*
X208428847Y-76829449D01*
X208428847Y-76829449D02*
X208500276Y-76829449D01*
X208500276Y-76829449D02*
X208547895Y-76853258D01*
X208547895Y-76853258D02*
X208571704Y-76877068D01*
X208571704Y-76877068D02*
X208595514Y-76924687D01*
X208595514Y-76924687D02*
X208595514Y-77115163D01*
X208333609Y-76662782D02*
X208833609Y-76329449D01*
X208333609Y-76329449D02*
X208833609Y-76662782D01*
X205171704Y-89048496D02*
X205195514Y-88977068D01*
X205195514Y-88977068D02*
X205219323Y-88953258D01*
X205219323Y-88953258D02*
X205266942Y-88929449D01*
X205266942Y-88929449D02*
X205338371Y-88929449D01*
X205338371Y-88929449D02*
X205385990Y-88953258D01*
X205385990Y-88953258D02*
X205409800Y-88977068D01*
X205409800Y-88977068D02*
X205433609Y-89024687D01*
X205433609Y-89024687D02*
X205433609Y-89215163D01*
X205433609Y-89215163D02*
X204933609Y-89215163D01*
X204933609Y-89215163D02*
X204933609Y-89048496D01*
X204933609Y-89048496D02*
X204957419Y-89000877D01*
X204957419Y-89000877D02*
X204981228Y-88977068D01*
X204981228Y-88977068D02*
X205028847Y-88953258D01*
X205028847Y-88953258D02*
X205076466Y-88953258D01*
X205076466Y-88953258D02*
X205124085Y-88977068D01*
X205124085Y-88977068D02*
X205147895Y-89000877D01*
X205147895Y-89000877D02*
X205171704Y-89048496D01*
X205171704Y-89048496D02*
X205171704Y-89215163D01*
X204933609Y-88619925D02*
X204933609Y-88524687D01*
X204933609Y-88524687D02*
X204957419Y-88477068D01*
X204957419Y-88477068D02*
X205005038Y-88429449D01*
X205005038Y-88429449D02*
X205100276Y-88405639D01*
X205100276Y-88405639D02*
X205266942Y-88405639D01*
X205266942Y-88405639D02*
X205362180Y-88429449D01*
X205362180Y-88429449D02*
X205409800Y-88477068D01*
X205409800Y-88477068D02*
X205433609Y-88524687D01*
X205433609Y-88524687D02*
X205433609Y-88619925D01*
X205433609Y-88619925D02*
X205409800Y-88667544D01*
X205409800Y-88667544D02*
X205362180Y-88715163D01*
X205362180Y-88715163D02*
X205266942Y-88738972D01*
X205266942Y-88738972D02*
X205100276Y-88738972D01*
X205100276Y-88738972D02*
X205005038Y-88715163D01*
X205005038Y-88715163D02*
X204957419Y-88667544D01*
X204957419Y-88667544D02*
X204933609Y-88619925D01*
X204933609Y-88096115D02*
X204933609Y-88000877D01*
X204933609Y-88000877D02*
X204957419Y-87953258D01*
X204957419Y-87953258D02*
X205005038Y-87905639D01*
X205005038Y-87905639D02*
X205100276Y-87881829D01*
X205100276Y-87881829D02*
X205266942Y-87881829D01*
X205266942Y-87881829D02*
X205362180Y-87905639D01*
X205362180Y-87905639D02*
X205409800Y-87953258D01*
X205409800Y-87953258D02*
X205433609Y-88000877D01*
X205433609Y-88000877D02*
X205433609Y-88096115D01*
X205433609Y-88096115D02*
X205409800Y-88143734D01*
X205409800Y-88143734D02*
X205362180Y-88191353D01*
X205362180Y-88191353D02*
X205266942Y-88215162D01*
X205266942Y-88215162D02*
X205100276Y-88215162D01*
X205100276Y-88215162D02*
X205005038Y-88191353D01*
X205005038Y-88191353D02*
X204957419Y-88143734D01*
X204957419Y-88143734D02*
X204933609Y-88096115D01*
X204933609Y-87738971D02*
X204933609Y-87453257D01*
X205433609Y-87596114D02*
X204933609Y-87596114D01*
X208333609Y-105162782D02*
X208333609Y-104853258D01*
X208333609Y-104853258D02*
X208524085Y-105019925D01*
X208524085Y-105019925D02*
X208524085Y-104948496D01*
X208524085Y-104948496D02*
X208547895Y-104900877D01*
X208547895Y-104900877D02*
X208571704Y-104877068D01*
X208571704Y-104877068D02*
X208619323Y-104853258D01*
X208619323Y-104853258D02*
X208738371Y-104853258D01*
X208738371Y-104853258D02*
X208785990Y-104877068D01*
X208785990Y-104877068D02*
X208809800Y-104900877D01*
X208809800Y-104900877D02*
X208833609Y-104948496D01*
X208833609Y-104948496D02*
X208833609Y-105091353D01*
X208833609Y-105091353D02*
X208809800Y-105138972D01*
X208809800Y-105138972D02*
X208785990Y-105162782D01*
X208333609Y-104686592D02*
X208333609Y-104377068D01*
X208333609Y-104377068D02*
X208524085Y-104543735D01*
X208524085Y-104543735D02*
X208524085Y-104472306D01*
X208524085Y-104472306D02*
X208547895Y-104424687D01*
X208547895Y-104424687D02*
X208571704Y-104400878D01*
X208571704Y-104400878D02*
X208619323Y-104377068D01*
X208619323Y-104377068D02*
X208738371Y-104377068D01*
X208738371Y-104377068D02*
X208785990Y-104400878D01*
X208785990Y-104400878D02*
X208809800Y-104424687D01*
X208809800Y-104424687D02*
X208833609Y-104472306D01*
X208833609Y-104472306D02*
X208833609Y-104615163D01*
X208833609Y-104615163D02*
X208809800Y-104662782D01*
X208809800Y-104662782D02*
X208785990Y-104686592D01*
X208357419Y-115053258D02*
X208333609Y-115100877D01*
X208333609Y-115100877D02*
X208333609Y-115172306D01*
X208333609Y-115172306D02*
X208357419Y-115243734D01*
X208357419Y-115243734D02*
X208405038Y-115291353D01*
X208405038Y-115291353D02*
X208452657Y-115315163D01*
X208452657Y-115315163D02*
X208547895Y-115338972D01*
X208547895Y-115338972D02*
X208619323Y-115338972D01*
X208619323Y-115338972D02*
X208714561Y-115315163D01*
X208714561Y-115315163D02*
X208762180Y-115291353D01*
X208762180Y-115291353D02*
X208809800Y-115243734D01*
X208809800Y-115243734D02*
X208833609Y-115172306D01*
X208833609Y-115172306D02*
X208833609Y-115124687D01*
X208833609Y-115124687D02*
X208809800Y-115053258D01*
X208809800Y-115053258D02*
X208785990Y-115029449D01*
X208785990Y-115029449D02*
X208619323Y-115029449D01*
X208619323Y-115029449D02*
X208619323Y-115124687D01*
X208833609Y-114815163D02*
X208333609Y-114815163D01*
X208333609Y-114815163D02*
X208833609Y-114529449D01*
X208833609Y-114529449D02*
X208333609Y-114529449D01*
X208833609Y-114291353D02*
X208333609Y-114291353D01*
X208333609Y-114291353D02*
X208333609Y-114172305D01*
X208333609Y-114172305D02*
X208357419Y-114100877D01*
X208357419Y-114100877D02*
X208405038Y-114053258D01*
X208405038Y-114053258D02*
X208452657Y-114029448D01*
X208452657Y-114029448D02*
X208547895Y-114005639D01*
X208547895Y-114005639D02*
X208619323Y-114005639D01*
X208619323Y-114005639D02*
X208714561Y-114029448D01*
X208714561Y-114029448D02*
X208762180Y-114053258D01*
X208762180Y-114053258D02*
X208809800Y-114100877D01*
X208809800Y-114100877D02*
X208833609Y-114172305D01*
X208833609Y-114172305D02*
X208833609Y-114291353D01*
X192966390Y-99113408D02*
X192466390Y-99280074D01*
X192466390Y-99280074D02*
X192966390Y-99446741D01*
X192418771Y-99494360D02*
X192418771Y-99875312D01*
X192466390Y-100280073D02*
X192704485Y-100113407D01*
X192466390Y-99994359D02*
X192966390Y-99994359D01*
X192966390Y-99994359D02*
X192966390Y-100184835D01*
X192966390Y-100184835D02*
X192942580Y-100232454D01*
X192942580Y-100232454D02*
X192918771Y-100256264D01*
X192918771Y-100256264D02*
X192871152Y-100280073D01*
X192871152Y-100280073D02*
X192799723Y-100280073D01*
X192799723Y-100280073D02*
X192752104Y-100256264D01*
X192752104Y-100256264D02*
X192728295Y-100232454D01*
X192728295Y-100232454D02*
X192704485Y-100184835D01*
X192704485Y-100184835D02*
X192704485Y-99994359D01*
X192728295Y-100494359D02*
X192728295Y-100661026D01*
X192466390Y-100732454D02*
X192466390Y-100494359D01*
X192466390Y-100494359D02*
X192966390Y-100494359D01*
X192966390Y-100494359D02*
X192966390Y-100732454D01*
X192942580Y-101208645D02*
X192966390Y-101161026D01*
X192966390Y-101161026D02*
X192966390Y-101089597D01*
X192966390Y-101089597D02*
X192942580Y-101018169D01*
X192942580Y-101018169D02*
X192894961Y-100970550D01*
X192894961Y-100970550D02*
X192847342Y-100946740D01*
X192847342Y-100946740D02*
X192752104Y-100922931D01*
X192752104Y-100922931D02*
X192680676Y-100922931D01*
X192680676Y-100922931D02*
X192585438Y-100946740D01*
X192585438Y-100946740D02*
X192537819Y-100970550D01*
X192537819Y-100970550D02*
X192490200Y-101018169D01*
X192490200Y-101018169D02*
X192466390Y-101089597D01*
X192466390Y-101089597D02*
X192466390Y-101137216D01*
X192466390Y-101137216D02*
X192490200Y-101208645D01*
X192490200Y-101208645D02*
X192514009Y-101232454D01*
X192514009Y-101232454D02*
X192680676Y-101232454D01*
X192680676Y-101232454D02*
X192680676Y-101137216D01*
D11*
X204369673Y-85767219D02*
X204369673Y-86576742D01*
X204369673Y-86576742D02*
X204417292Y-86671980D01*
X204417292Y-86671980D02*
X204464911Y-86719600D01*
X204464911Y-86719600D02*
X204560149Y-86767219D01*
X204560149Y-86767219D02*
X204750625Y-86767219D01*
X204750625Y-86767219D02*
X204845863Y-86719600D01*
X204845863Y-86719600D02*
X204893482Y-86671980D01*
X204893482Y-86671980D02*
X204941101Y-86576742D01*
X204941101Y-86576742D02*
X204941101Y-85767219D01*
X205417292Y-85767219D02*
X205417292Y-86576742D01*
X205417292Y-86576742D02*
X205464911Y-86671980D01*
X205464911Y-86671980D02*
X205512530Y-86719600D01*
X205512530Y-86719600D02*
X205607768Y-86767219D01*
X205607768Y-86767219D02*
X205798244Y-86767219D01*
X205798244Y-86767219D02*
X205893482Y-86719600D01*
X205893482Y-86719600D02*
X205941101Y-86671980D01*
X205941101Y-86671980D02*
X205988720Y-86576742D01*
X205988720Y-86576742D02*
X205988720Y-85767219D01*
D12*
%TO.C,C11*%
X205392164Y-105640000D02*
X205607836Y-105640000D01*
X205392164Y-106360000D02*
X205607836Y-106360000D01*
%TO.C,R14*%
X205153641Y-98620000D02*
X204846359Y-98620000D01*
X205153641Y-99380000D02*
X204846359Y-99380000D01*
%TO.C,R9*%
X195080000Y-107853641D02*
X195080000Y-107546359D01*
X195840000Y-107853641D02*
X195840000Y-107546359D01*
%TO.C,TH1*%
X192980000Y-114246359D02*
X192980000Y-114553641D01*
X193740000Y-114246359D02*
X193740000Y-114553641D01*
%TO.C,D7*%
X201000000Y-84600000D02*
X202360000Y-84600000D01*
X201000000Y-85400000D02*
X202360000Y-85400000D01*
X202360000Y-85400000D02*
X202360000Y-84600000D01*
%TO.C,D8*%
X198540000Y-84600000D02*
X198540000Y-85400000D01*
X199900000Y-84600000D02*
X198540000Y-84600000D01*
X199900000Y-85400000D02*
X198540000Y-85400000D01*
D11*
%TO.C,L1*%
X194200000Y-98862500D02*
X194800000Y-98862500D01*
D12*
%TO.C,C8*%
X195700000Y-112107836D02*
X195700000Y-111892164D01*
X196420000Y-112107836D02*
X196420000Y-111892164D01*
%TO.C,C12*%
X205107836Y-93390000D02*
X204892164Y-93390000D01*
X205107836Y-94110000D02*
X204892164Y-94110000D01*
D13*
%TO.C,D6*%
X203900000Y-103150000D02*
X206100000Y-103150000D01*
X203900000Y-104350000D02*
X203900000Y-104150000D01*
X206100000Y-104350000D02*
X206100000Y-104150000D01*
X206100000Y-105350000D02*
X203900000Y-105350000D01*
D11*
X206700200Y-104277000D02*
G75*
G02*
X206500200Y-104277000I-100000J0D01*
G01*
X206500200Y-104277000D02*
G75*
G02*
X206700200Y-104277000I100000J0D01*
G01*
D12*
%TO.C,C5*%
X194695336Y-100502500D02*
X194479664Y-100502500D01*
X194695336Y-101222500D02*
X194479664Y-101222500D01*
D10*
%TO.C,D4*%
X201525000Y-96500000D02*
G75*
G02*
X201425000Y-96500000I-50000J0D01*
G01*
X201425000Y-96500000D02*
G75*
G02*
X201525000Y-96500000I50000J0D01*
G01*
D12*
%TO.C,R2*%
X193980000Y-114246359D02*
X193980000Y-114553641D01*
X194740000Y-114246359D02*
X194740000Y-114553641D01*
%TO.C,R4*%
X203005000Y-90346359D02*
X203005000Y-90653641D01*
X203765000Y-90346359D02*
X203765000Y-90653641D01*
D10*
%TO.C,D5*%
X196850000Y-89325000D02*
G75*
G02*
X196750000Y-89325000I-50000J0D01*
G01*
X196750000Y-89325000D02*
G75*
G02*
X196850000Y-89325000I50000J0D01*
G01*
D12*
%TO.C,R12*%
X195420000Y-88106359D02*
X195420000Y-88413641D01*
X196180000Y-88106359D02*
X196180000Y-88413641D01*
D14*
%TO.C,IC2*%
X195785000Y-109625000D02*
G75*
G02*
X195535000Y-109625000I-125000J0D01*
G01*
X195535000Y-109625000D02*
G75*
G02*
X195785000Y-109625000I125000J0D01*
G01*
D12*
%TO.C,R3*%
X194980000Y-114246359D02*
X194980000Y-114553641D01*
X195740000Y-114246359D02*
X195740000Y-114553641D01*
%TO.C,R13*%
X194596359Y-94370000D02*
X194903641Y-94370000D01*
X194596359Y-95130000D02*
X194903641Y-95130000D01*
%TO.C,C9*%
X197027164Y-95140000D02*
X197242836Y-95140000D01*
X197027164Y-95860000D02*
X197242836Y-95860000D01*
D15*
%TO.C,J3*%
X199599000Y-98595000D02*
X199599000Y-102405000D01*
X202139000Y-97325000D02*
X202901000Y-97325000D01*
X202139000Y-103675000D02*
X202901000Y-103675000D01*
X202901000Y-97325000D02*
X202901000Y-98087000D01*
X202901000Y-103675000D02*
X202901000Y-102913000D01*
D12*
%TO.C,C14*%
X202840000Y-96087836D02*
X202840000Y-95872164D01*
X203560000Y-96087836D02*
X203560000Y-95872164D01*
%TO.C,U3*%
D11*
X199137827Y-107541370D02*
G75*
G02*
X198937827Y-107541370I-100000J0D01*
G01*
X198937827Y-107541370D02*
G75*
G02*
X199137827Y-107541370I100000J0D01*
G01*
D12*
%TO.C,R16*%
X205153641Y-99620000D02*
X204846359Y-99620000D01*
X205153641Y-100380000D02*
X204846359Y-100380000D01*
%TO.C,C15*%
X199740000Y-106622164D02*
X199740000Y-106837836D01*
X200460000Y-106622164D02*
X200460000Y-106837836D01*
%TO.C,R5*%
X196870000Y-90903641D02*
X196870000Y-90596359D01*
X197630000Y-90903641D02*
X197630000Y-90596359D01*
%TO.C,D1*%
X196715000Y-94150000D02*
X198075000Y-94150000D01*
X196715000Y-94950000D02*
X198075000Y-94950000D01*
X198075000Y-94950000D02*
X198075000Y-94150000D01*
%TO.C,C7*%
X200890000Y-105107836D02*
X200890000Y-104892164D01*
X201610000Y-105107836D02*
X201610000Y-104892164D01*
D16*
%TO.C,J1*%
X198250000Y-107700000D02*
X198250000Y-111300000D01*
X199250000Y-107700000D02*
X198250000Y-107700000D01*
X199250000Y-110300000D02*
X199250000Y-107700000D01*
X200250000Y-110300000D02*
X199250000Y-110300000D01*
X200250000Y-115300000D02*
X204250000Y-115300000D01*
X205250000Y-107700000D02*
X205250000Y-110300000D01*
X205250000Y-110300000D02*
X204250000Y-110300000D01*
X206250000Y-107700000D02*
X205250000Y-107700000D01*
X206250000Y-111300000D02*
X206250000Y-107700000D01*
D12*
%TO.C,C4*%
X191127836Y-71890000D02*
X190912164Y-71890000D01*
X191127836Y-72610000D02*
X190912164Y-72610000D01*
%TO.C,R1*%
X198370000Y-100296359D02*
X198370000Y-100603641D01*
X199130000Y-100296359D02*
X199130000Y-100603641D01*
D10*
%TO.C,D3*%
X196410000Y-113310000D02*
G75*
G02*
X196310000Y-113310000I-50000J0D01*
G01*
X196310000Y-113310000D02*
G75*
G02*
X196410000Y-113310000I50000J0D01*
G01*
D12*
%TO.C,C6*%
X195700000Y-109992164D02*
X195700000Y-110207836D01*
X196420000Y-109992164D02*
X196420000Y-110207836D01*
%TO.C,C1*%
X197182164Y-97140000D02*
X197397836Y-97140000D01*
X197182164Y-97860000D02*
X197397836Y-97860000D01*
%TO.C,R10*%
X196980000Y-114553641D02*
X196980000Y-114246359D01*
X197740000Y-114553641D02*
X197740000Y-114246359D01*
%TO.C,R15*%
X205653641Y-101870000D02*
X205346359Y-101870000D01*
X205653641Y-102630000D02*
X205346359Y-102630000D01*
%TO.C,U2*%
X191925000Y-63350000D02*
X191925000Y-65800000D01*
X191925000Y-63350000D02*
X194375000Y-63350000D01*
X192200000Y-63600000D02*
X207800000Y-63600000D01*
X192200000Y-84300000D02*
X192200000Y-63600000D01*
X207800000Y-63600000D02*
X207800000Y-84300000D01*
X207800000Y-84300000D02*
X192200000Y-84300000D01*
X192025000Y-70550000D02*
X191689000Y-70790000D01*
X191689000Y-70310000D01*
X192025000Y-70550000D01*
G36*
X192025000Y-70550000D02*
G01*
X191689000Y-70790000D01*
X191689000Y-70310000D01*
X192025000Y-70550000D01*
G37*
%TO.C,C13*%
X205587836Y-106640000D02*
X205372164Y-106640000D01*
X205587836Y-107360000D02*
X205372164Y-107360000D01*
D11*
%TO.C,S1*%
X193650000Y-90800000D02*
X193650000Y-92000000D01*
D10*
X194500000Y-89450000D02*
X194500000Y-89450000D01*
X194500000Y-89550000D02*
X194500000Y-89550000D01*
D11*
X195350000Y-90800000D02*
X195350000Y-92000000D01*
D10*
X194500000Y-89450000D02*
G75*
G02*
X194500000Y-89550000I0J-50000D01*
G01*
X194500000Y-89550000D02*
G75*
G02*
X194500000Y-89450000I0J50000D01*
G01*
D12*
%TO.C,C10*%
X194642164Y-93390000D02*
X194857836Y-93390000D01*
X194642164Y-94110000D02*
X194857836Y-94110000D01*
%TO.C,R11*%
X198346359Y-96120000D02*
X198653641Y-96120000D01*
X198346359Y-96880000D02*
X198653641Y-96880000D01*
%TO.C,U4*%
X204065000Y-97200000D02*
X204065000Y-96600000D01*
X204065000Y-97200000D02*
X204065000Y-97800000D01*
X205935000Y-97200000D02*
X205935000Y-96600000D01*
X205935000Y-97200000D02*
X205935000Y-97800000D01*
D11*
X204147500Y-98470000D02*
G75*
G02*
X203947500Y-98470000I-100000J0D01*
G01*
X203947500Y-98470000D02*
G75*
G02*
X204147500Y-98470000I100000J0D01*
G01*
D12*
%TO.C,R17*%
X204846359Y-94370000D02*
X205153641Y-94370000D01*
X204846359Y-95130000D02*
X205153641Y-95130000D01*
%TO.C,C3*%
X191107836Y-70890000D02*
X190892164Y-70890000D01*
X191107836Y-71610000D02*
X190892164Y-71610000D01*
%TO.C,C2*%
X197162164Y-98140000D02*
X197377836Y-98140000D01*
X197162164Y-98860000D02*
X197377836Y-98860000D01*
D11*
%TO.C,J2*%
X198805000Y-86280000D02*
X198805000Y-86280000D01*
X198805000Y-86280000D02*
X198805000Y-86280000D01*
X198805000Y-86280000D02*
X198805000Y-87000000D01*
X198805000Y-86280000D02*
X201965000Y-86280000D01*
X198805000Y-87000000D02*
X198805000Y-86280000D01*
X198805000Y-87000000D02*
X198805000Y-87000000D01*
X198805000Y-89750000D02*
X198805000Y-89750000D01*
X198805000Y-89750000D02*
X198805000Y-91750000D01*
X198805000Y-91750000D02*
X198805000Y-89750000D01*
X198805000Y-91750000D02*
X198805000Y-91750000D01*
X198805000Y-94750000D02*
X198805000Y-94750000D01*
X198805000Y-94750000D02*
X198805000Y-95220000D01*
X198805000Y-95220000D02*
X198805000Y-94750000D01*
X198805000Y-95220000D02*
X198805000Y-95220000D01*
X198805000Y-95220000D02*
X198805000Y-95220000D01*
X198805000Y-95220000D02*
X201965000Y-95220000D01*
X199520000Y-95750000D02*
X199520000Y-95750000D01*
X199520000Y-95850000D02*
X199520000Y-95750000D01*
X199520000Y-95850000D02*
X199520000Y-95850000D01*
X201965000Y-86280000D02*
X198805000Y-86280000D01*
X201965000Y-86280000D02*
X201965000Y-86280000D01*
X201965000Y-86280000D02*
X201965000Y-86280000D01*
X201965000Y-86280000D02*
X201965000Y-87000000D01*
X201965000Y-87000000D02*
X201965000Y-86280000D01*
X201965000Y-87000000D02*
X201965000Y-87000000D01*
X201965000Y-90000000D02*
X201965000Y-90000000D01*
X201965000Y-90000000D02*
X201965000Y-91750000D01*
X201965000Y-91750000D02*
X201965000Y-90000000D01*
X201965000Y-91750000D02*
X201965000Y-91750000D01*
X201965000Y-94500000D02*
X201965000Y-94500000D01*
X201965000Y-94500000D02*
X201965000Y-95220000D01*
X201965000Y-95220000D02*
X198805000Y-95220000D01*
X201965000Y-95220000D02*
X201965000Y-94500000D01*
X201965000Y-95220000D02*
X201965000Y-95220000D01*
X201965000Y-95220000D02*
X201965000Y-95220000D01*
X199520000Y-95750000D02*
G75*
G02*
X199520000Y-95850000I0J-50000D01*
G01*
X199520000Y-95850000D02*
G75*
G02*
X199520000Y-95750000I0J50000D01*
G01*
D12*
%TO.C,R8*%
X193080000Y-107853641D02*
X193080000Y-107546359D01*
X193840000Y-107853641D02*
X193840000Y-107546359D01*
D11*
%TO.C,S2*%
X204400000Y-90800000D02*
X204400000Y-92000000D01*
D10*
X205250000Y-89450000D02*
X205250000Y-89450000D01*
X205250000Y-89550000D02*
X205250000Y-89550000D01*
D11*
X206100000Y-90800000D02*
X206100000Y-92000000D01*
D10*
X205250000Y-89450000D02*
G75*
G02*
X205250000Y-89550000I0J-50000D01*
G01*
X205250000Y-89550000D02*
G75*
G02*
X205250000Y-89450000I0J50000D01*
G01*
%TO.C,IC1*%
X198250000Y-100750000D02*
X198250000Y-100750000D01*
X198350000Y-100750000D02*
X198350000Y-100750000D01*
X198250000Y-100750000D02*
G75*
G02*
X198350000Y-100750000I50000J0D01*
G01*
X198350000Y-100750000D02*
G75*
G02*
X198250000Y-100750000I-50000J0D01*
G01*
%TO.C,D2*%
X194510000Y-108790000D02*
G75*
G02*
X194410000Y-108790000I-50000J0D01*
G01*
X194410000Y-108790000D02*
G75*
G02*
X194510000Y-108790000I50000J0D01*
G01*
%TD*%
M02*
