%TF.GenerationSoftware,KiCad,Pcbnew,9.0.7-9.0.7~ubuntu22.04.1*%
%TF.CreationDate,2026-02-09T13:55:57-07:00*%
%TF.ProjectId,ESP32-S3-MINI-1_UU,45535033-322d-4533-932d-4d494e492d31,rev?*%
%TF.SameCoordinates,Original*%
%TF.FileFunction,Soldermask,Bot*%
%TF.FilePolarity,Negative*%
%FSLAX46Y46*%
G04 Gerber Fmt 4.6, Leading zero omitted, Abs format (unit mm)*
G04 Created by KiCad (PCBNEW 9.0.7-9.0.7~ubuntu22.04.1) date 2026-02-09 13:55:57*
%MOMM*%
%LPD*%
G01*
G04 APERTURE LIST*
%ADD10R,1.600000X1.600000*%
%ADD11C,1.600000*%
%ADD12C,0.520000*%
%ADD13C,0.890000*%
%ADD14C,1.460000*%
G04 APERTURE END LIST*
D10*
%TO.C,J5*%
X189840000Y-74360000D03*
D11*
X189840000Y-76900000D03*
X189840000Y-79440000D03*
X189840000Y-81980000D03*
X189840000Y-84520000D03*
X189840000Y-87060000D03*
X189840000Y-89600000D03*
X189840000Y-92140000D03*
X189840000Y-94680000D03*
X189840000Y-97220000D03*
X189840000Y-99760000D03*
X189840000Y-102300000D03*
X189840000Y-104840000D03*
X189840000Y-107380000D03*
X189840000Y-109920000D03*
X189840000Y-112460000D03*
X189840000Y-115000000D03*
%TD*%
D10*
%TO.C,J6*%
X210160000Y-69280000D03*
D11*
X210160000Y-71820000D03*
X210160000Y-74360000D03*
X210160000Y-76900000D03*
X210160000Y-79440000D03*
X210160000Y-81980000D03*
X210160000Y-84520000D03*
X210160000Y-87060000D03*
X210160000Y-89600000D03*
X210160000Y-92140000D03*
X210160000Y-94680000D03*
X210160000Y-97220000D03*
X210160000Y-99760000D03*
X210160000Y-102300000D03*
X210160000Y-104840000D03*
X210160000Y-107380000D03*
X210160000Y-109920000D03*
X210160000Y-112460000D03*
X210160000Y-115000000D03*
%TD*%
D10*
%TO.C,J4*%
X189875000Y-69270000D03*
%TD*%
D12*
%TO.C,J2*%
X200385000Y-94500000D03*
D13*
X200385000Y-87000000D03*
D14*
X198235000Y-93150000D03*
X198235000Y-88350000D03*
X202535000Y-88350000D03*
X202535000Y-93150000D03*
%TD*%
M02*
