M48
; DRILL file {KiCad 9.0.7-9.0.7~ubuntu22.04.1} date 2026-02-08T17:14:13-0700
; FORMAT={-:-/ absolute / metric / decimal}
; #@! TF.CreationDate,2026-02-08T17:14:13-07:00
; #@! TF.GenerationSoftware,Kicad,Pcbnew,9.0.7-9.0.7~ubuntu22.04.1
; #@! TF.FileFunction,Plated,1,2,PTH
FMAT,2
METRIC
; #@! TA.AperFunction,Plated,PTH,ViaDrill
T1C0.300
; #@! TA.AperFunction,Plated,PTH,ComponentDrill
T2C0.800
; #@! TA.AperFunction,Plated,PTH,ComponentDrill
T3C1.040
%
G90
G05
T1
X191.549Y-74.3
X191.876Y-86.545
X192.0Y-87.3
X192.1Y-114.5
X192.3Y-74.8
X193.0Y-84.75
X193.6Y-95.475
X193.6Y-96.7
X194.0Y-73.95
X194.0Y-81.75
X194.1Y-101.75
X194.25Y-71.0
X194.26Y-111.1
X194.374Y-78.5
X194.5Y-89.5
X194.675Y-96.75
X194.725Y-76.75
X195.067Y-101.75
X195.25Y-96.1
X195.75Y-92.5
X195.75Y-98.85
X195.775Y-77.5
X195.9Y-82.5
X196.0Y-93.75
X196.0Y-96.1
X196.0Y-97.412
X196.0Y-104.75
X196.26Y-106.002
X196.3Y-80.75
X196.3Y-86.4
X196.5Y-102.5
X196.6Y-79.9
X196.635Y-90.24
X196.8Y-87.126
X196.8Y-108.2
X196.8Y-109.62
X197.0Y-112.48
X197.053Y-107.441
X197.25Y-101.75
X197.8Y-108.1
X197.8Y-109.7
X198.05Y-105.521
X198.25Y-86.5
X198.25Y-95.5
X198.25Y-111.45
X198.29Y-98.0
X198.385Y-90.1
X198.385Y-91.0
X200.0Y-85.75
X200.385Y-88.75
X200.385Y-92.75
X200.5Y-100.4
X200.85Y-85.75
X201.45Y-100.4
X201.85Y-96.75
X202.25Y-104.25
X202.385Y-90.5
X202.385Y-91.3
X202.5Y-86.5
X202.5Y-95.5
X203.293Y-97.307
X203.385Y-91.75
X203.9Y-100.0
X203.986Y-97.912
X204.788Y-95.663
X205.0Y-103.75
X205.5Y-101.5
X205.8Y-71.25
X205.9Y-78.4
X205.9Y-79.25
X205.9Y-80.25
X205.9Y-81.082
X205.947Y-81.955
X206.125Y-84.475
X206.25Y-101.0
X206.5Y-92.5
X207.0Y-84.475
X207.75Y-114.75
T2
X189.84Y-74.36
X189.84Y-76.9
X189.84Y-79.44
X189.84Y-81.98
X189.84Y-84.52
X189.84Y-87.06
X189.84Y-89.6
X189.84Y-92.14
X189.84Y-94.68
X189.84Y-97.22
X189.84Y-99.76
X189.84Y-102.3
X189.84Y-104.84
X189.84Y-107.38
X189.84Y-109.92
X189.84Y-112.46
X189.84Y-115.0
X189.875Y-69.27
X210.16Y-69.28
X210.16Y-71.82
X210.16Y-74.36
X210.16Y-76.9
X210.16Y-79.44
X210.16Y-81.98
X210.16Y-84.52
X210.16Y-87.06
X210.16Y-89.6
X210.16Y-92.14
X210.16Y-94.68
X210.16Y-97.22
X210.16Y-99.76
X210.16Y-102.3
X210.16Y-104.84
X210.16Y-107.38
X210.16Y-109.92
X210.16Y-112.46
X210.16Y-115.0
T3
X198.235Y-88.35
X198.235Y-93.15
X202.535Y-88.35
X202.535Y-93.15
M30
