%TF.GenerationSoftware,KiCad,Pcbnew,9.0.7-9.0.7~ubuntu22.04.1*%
%TF.CreationDate,2026-02-09T21:17:05-07:00*%
%TF.ProjectId,ESP32-S3-MINI-1_UU,45535033-322d-4533-932d-4d494e492d31,rev?*%
%TF.SameCoordinates,Original*%
%TF.FileFunction,Legend,Bot*%
%TF.FilePolarity,Positive*%
%FSLAX46Y46*%
G04 Gerber Fmt 4.6, Leading zero omitted, Abs format (unit mm)*
G04 Created by KiCad (PCBNEW 9.0.7-9.0.7~ubuntu22.04.1) date 2026-02-09 21:17:05*
%MOMM*%
%LPD*%
G01*
G04 APERTURE LIST*
%ADD10C,0.100000*%
%ADD11C,0.200000*%
G04 APERTURE END LIST*
D10*
X204000000Y-87000000D02*
X206300000Y-87000000D01*
X193500000Y-86900000D02*
X193500000Y-84500000D01*
X193500000Y-84500000D02*
X196000000Y-84500000D01*
X206300000Y-87000000D02*
X206300000Y-84800000D01*
X196000000Y-86900000D02*
X193500000Y-86900000D01*
X204000000Y-84800000D02*
X204000000Y-87000000D01*
X196000000Y-84500000D02*
X196000000Y-86900000D01*
X206300000Y-84800000D02*
X204000000Y-84800000D01*
X206038972Y-85081228D02*
X206015163Y-85057419D01*
X206015163Y-85057419D02*
X205967544Y-85033609D01*
X205967544Y-85033609D02*
X205848496Y-85033609D01*
X205848496Y-85033609D02*
X205800877Y-85057419D01*
X205800877Y-85057419D02*
X205777068Y-85081228D01*
X205777068Y-85081228D02*
X205753258Y-85128847D01*
X205753258Y-85128847D02*
X205753258Y-85176466D01*
X205753258Y-85176466D02*
X205777068Y-85247895D01*
X205777068Y-85247895D02*
X206062782Y-85533609D01*
X206062782Y-85533609D02*
X205753258Y-85533609D01*
X205443735Y-85033609D02*
X205396116Y-85033609D01*
X205396116Y-85033609D02*
X205348497Y-85057419D01*
X205348497Y-85057419D02*
X205324687Y-85081228D01*
X205324687Y-85081228D02*
X205300878Y-85128847D01*
X205300878Y-85128847D02*
X205277068Y-85224085D01*
X205277068Y-85224085D02*
X205277068Y-85343133D01*
X205277068Y-85343133D02*
X205300878Y-85438371D01*
X205300878Y-85438371D02*
X205324687Y-85485990D01*
X205324687Y-85485990D02*
X205348497Y-85509800D01*
X205348497Y-85509800D02*
X205396116Y-85533609D01*
X205396116Y-85533609D02*
X205443735Y-85533609D01*
X205443735Y-85533609D02*
X205491354Y-85509800D01*
X205491354Y-85509800D02*
X205515163Y-85485990D01*
X205515163Y-85485990D02*
X205538973Y-85438371D01*
X205538973Y-85438371D02*
X205562782Y-85343133D01*
X205562782Y-85343133D02*
X205562782Y-85224085D01*
X205562782Y-85224085D02*
X205538973Y-85128847D01*
X205538973Y-85128847D02*
X205515163Y-85081228D01*
X205515163Y-85081228D02*
X205491354Y-85057419D01*
X205491354Y-85057419D02*
X205443735Y-85033609D01*
X205086592Y-85081228D02*
X205062783Y-85057419D01*
X205062783Y-85057419D02*
X205015164Y-85033609D01*
X205015164Y-85033609D02*
X204896116Y-85033609D01*
X204896116Y-85033609D02*
X204848497Y-85057419D01*
X204848497Y-85057419D02*
X204824688Y-85081228D01*
X204824688Y-85081228D02*
X204800878Y-85128847D01*
X204800878Y-85128847D02*
X204800878Y-85176466D01*
X204800878Y-85176466D02*
X204824688Y-85247895D01*
X204824688Y-85247895D02*
X205110402Y-85533609D01*
X205110402Y-85533609D02*
X204800878Y-85533609D01*
X204372307Y-85033609D02*
X204467545Y-85033609D01*
X204467545Y-85033609D02*
X204515164Y-85057419D01*
X204515164Y-85057419D02*
X204538974Y-85081228D01*
X204538974Y-85081228D02*
X204586593Y-85152657D01*
X204586593Y-85152657D02*
X204610402Y-85247895D01*
X204610402Y-85247895D02*
X204610402Y-85438371D01*
X204610402Y-85438371D02*
X204586593Y-85485990D01*
X204586593Y-85485990D02*
X204562783Y-85509800D01*
X204562783Y-85509800D02*
X204515164Y-85533609D01*
X204515164Y-85533609D02*
X204419926Y-85533609D01*
X204419926Y-85533609D02*
X204372307Y-85509800D01*
X204372307Y-85509800D02*
X204348498Y-85485990D01*
X204348498Y-85485990D02*
X204324688Y-85438371D01*
X204324688Y-85438371D02*
X204324688Y-85319323D01*
X204324688Y-85319323D02*
X204348498Y-85271704D01*
X204348498Y-85271704D02*
X204372307Y-85247895D01*
X204372307Y-85247895D02*
X204419926Y-85224085D01*
X204419926Y-85224085D02*
X204515164Y-85224085D01*
X204515164Y-85224085D02*
X204562783Y-85247895D01*
X204562783Y-85247895D02*
X204586593Y-85271704D01*
X204586593Y-85271704D02*
X204610402Y-85319323D01*
D11*
X205930326Y-85767219D02*
X205930326Y-86576742D01*
X205930326Y-86576742D02*
X205882707Y-86671980D01*
X205882707Y-86671980D02*
X205835088Y-86719600D01*
X205835088Y-86719600D02*
X205739850Y-86767219D01*
X205739850Y-86767219D02*
X205549374Y-86767219D01*
X205549374Y-86767219D02*
X205454136Y-86719600D01*
X205454136Y-86719600D02*
X205406517Y-86671980D01*
X205406517Y-86671980D02*
X205358898Y-86576742D01*
X205358898Y-86576742D02*
X205358898Y-85767219D01*
X204882707Y-85767219D02*
X204882707Y-86576742D01*
X204882707Y-86576742D02*
X204835088Y-86671980D01*
X204835088Y-86671980D02*
X204787469Y-86719600D01*
X204787469Y-86719600D02*
X204692231Y-86767219D01*
X204692231Y-86767219D02*
X204501755Y-86767219D01*
X204501755Y-86767219D02*
X204406517Y-86719600D01*
X204406517Y-86719600D02*
X204358898Y-86671980D01*
X204358898Y-86671980D02*
X204311279Y-86576742D01*
X204311279Y-86576742D02*
X204311279Y-85767219D01*
D10*
X195821427Y-84861760D02*
X195654760Y-84861760D01*
X195583332Y-85123665D02*
X195821427Y-85123665D01*
X195821427Y-85123665D02*
X195821427Y-84623665D01*
X195821427Y-84623665D02*
X195583332Y-84623665D01*
X195392855Y-85099856D02*
X195321427Y-85123665D01*
X195321427Y-85123665D02*
X195202379Y-85123665D01*
X195202379Y-85123665D02*
X195154760Y-85099856D01*
X195154760Y-85099856D02*
X195130951Y-85076046D01*
X195130951Y-85076046D02*
X195107141Y-85028427D01*
X195107141Y-85028427D02*
X195107141Y-84980808D01*
X195107141Y-84980808D02*
X195130951Y-84933189D01*
X195130951Y-84933189D02*
X195154760Y-84909379D01*
X195154760Y-84909379D02*
X195202379Y-84885570D01*
X195202379Y-84885570D02*
X195297617Y-84861760D01*
X195297617Y-84861760D02*
X195345236Y-84837951D01*
X195345236Y-84837951D02*
X195369046Y-84814141D01*
X195369046Y-84814141D02*
X195392855Y-84766522D01*
X195392855Y-84766522D02*
X195392855Y-84718903D01*
X195392855Y-84718903D02*
X195369046Y-84671284D01*
X195369046Y-84671284D02*
X195345236Y-84647475D01*
X195345236Y-84647475D02*
X195297617Y-84623665D01*
X195297617Y-84623665D02*
X195178570Y-84623665D01*
X195178570Y-84623665D02*
X195107141Y-84647475D01*
X194892856Y-85123665D02*
X194892856Y-84623665D01*
X194892856Y-84623665D02*
X194702380Y-84623665D01*
X194702380Y-84623665D02*
X194654761Y-84647475D01*
X194654761Y-84647475D02*
X194630951Y-84671284D01*
X194630951Y-84671284D02*
X194607142Y-84718903D01*
X194607142Y-84718903D02*
X194607142Y-84790332D01*
X194607142Y-84790332D02*
X194630951Y-84837951D01*
X194630951Y-84837951D02*
X194654761Y-84861760D01*
X194654761Y-84861760D02*
X194702380Y-84885570D01*
X194702380Y-84885570D02*
X194892856Y-84885570D01*
X194440475Y-84623665D02*
X194130951Y-84623665D01*
X194130951Y-84623665D02*
X194297618Y-84814141D01*
X194297618Y-84814141D02*
X194226189Y-84814141D01*
X194226189Y-84814141D02*
X194178570Y-84837951D01*
X194178570Y-84837951D02*
X194154761Y-84861760D01*
X194154761Y-84861760D02*
X194130951Y-84909379D01*
X194130951Y-84909379D02*
X194130951Y-85028427D01*
X194130951Y-85028427D02*
X194154761Y-85076046D01*
X194154761Y-85076046D02*
X194178570Y-85099856D01*
X194178570Y-85099856D02*
X194226189Y-85123665D01*
X194226189Y-85123665D02*
X194369046Y-85123665D01*
X194369046Y-85123665D02*
X194416665Y-85099856D01*
X194416665Y-85099856D02*
X194440475Y-85076046D01*
X193940475Y-84671284D02*
X193916666Y-84647475D01*
X193916666Y-84647475D02*
X193869047Y-84623665D01*
X193869047Y-84623665D02*
X193749999Y-84623665D01*
X193749999Y-84623665D02*
X193702380Y-84647475D01*
X193702380Y-84647475D02*
X193678571Y-84671284D01*
X193678571Y-84671284D02*
X193654761Y-84718903D01*
X193654761Y-84718903D02*
X193654761Y-84766522D01*
X193654761Y-84766522D02*
X193678571Y-84837951D01*
X193678571Y-84837951D02*
X193964285Y-85123665D01*
X193964285Y-85123665D02*
X193654761Y-85123665D01*
X195130951Y-85904828D02*
X195059523Y-85928637D01*
X195059523Y-85928637D02*
X194940475Y-85928637D01*
X194940475Y-85928637D02*
X194892856Y-85904828D01*
X194892856Y-85904828D02*
X194869047Y-85881018D01*
X194869047Y-85881018D02*
X194845237Y-85833399D01*
X194845237Y-85833399D02*
X194845237Y-85785780D01*
X194845237Y-85785780D02*
X194869047Y-85738161D01*
X194869047Y-85738161D02*
X194892856Y-85714351D01*
X194892856Y-85714351D02*
X194940475Y-85690542D01*
X194940475Y-85690542D02*
X195035713Y-85666732D01*
X195035713Y-85666732D02*
X195083332Y-85642923D01*
X195083332Y-85642923D02*
X195107142Y-85619113D01*
X195107142Y-85619113D02*
X195130951Y-85571494D01*
X195130951Y-85571494D02*
X195130951Y-85523875D01*
X195130951Y-85523875D02*
X195107142Y-85476256D01*
X195107142Y-85476256D02*
X195083332Y-85452447D01*
X195083332Y-85452447D02*
X195035713Y-85428637D01*
X195035713Y-85428637D02*
X194916666Y-85428637D01*
X194916666Y-85428637D02*
X194845237Y-85452447D01*
X194678571Y-85428637D02*
X194369047Y-85428637D01*
X194369047Y-85428637D02*
X194535714Y-85619113D01*
X194535714Y-85619113D02*
X194464285Y-85619113D01*
X194464285Y-85619113D02*
X194416666Y-85642923D01*
X194416666Y-85642923D02*
X194392857Y-85666732D01*
X194392857Y-85666732D02*
X194369047Y-85714351D01*
X194369047Y-85714351D02*
X194369047Y-85833399D01*
X194369047Y-85833399D02*
X194392857Y-85881018D01*
X194392857Y-85881018D02*
X194416666Y-85904828D01*
X194416666Y-85904828D02*
X194464285Y-85928637D01*
X194464285Y-85928637D02*
X194607142Y-85928637D01*
X194607142Y-85928637D02*
X194654761Y-85904828D01*
X194654761Y-85904828D02*
X194678571Y-85881018D01*
X195416666Y-86733609D02*
X195416666Y-86233609D01*
X195416666Y-86233609D02*
X195249999Y-86590752D01*
X195249999Y-86590752D02*
X195083333Y-86233609D01*
X195083333Y-86233609D02*
X195083333Y-86733609D01*
X194845237Y-86733609D02*
X194845237Y-86233609D01*
X194607142Y-86733609D02*
X194607142Y-86233609D01*
X194607142Y-86233609D02*
X194321428Y-86733609D01*
X194321428Y-86733609D02*
X194321428Y-86233609D01*
X194083332Y-86733609D02*
X194083332Y-86233609D01*
M02*
