M48
; DRILL file {KiCad 9.0.7-9.0.7~ubuntu22.04.1} date 2026-02-16T21:50:11-0700
; FORMAT={-:-/ absolute / metric / decimal}
; #@! TF.CreationDate,2026-02-16T21:50:11-07:00
; #@! TF.GenerationSoftware,Kicad,Pcbnew,9.0.7-9.0.7~ubuntu22.04.1
; #@! TF.FileFunction,Plated,1,2,PTH
FMAT,2
METRIC
; #@! TA.AperFunction,Plated,PTH,ViaDrill
T1C0.300
; #@! TA.AperFunction,Plated,PTH,ComponentDrill
T2C0.800
; #@! TA.AperFunction,Plated,PTH,ComponentDrill
T3C1.040
%
G90
G05
T1
X173.9Y-117.7
X174.276Y-131.2
X174.35Y-132.0
X174.56Y-119.1
X175.4Y-129.05
X175.96Y-147.7
X176.0Y-139.775
X176.0Y-141.0
X176.4Y-116.7
X176.4Y-118.25
X176.4Y-123.3
X176.4Y-126.05
X176.46Y-126.8
X176.61Y-145.25
X177.075Y-141.05
X177.11Y-133.35
X177.125Y-121.05
X177.96Y-140.7
X178.06Y-142.75
X178.15Y-136.8
X178.4Y-138.05
X178.96Y-149.2
X179.16Y-126.8
X179.2Y-131.04
X179.26Y-123.6
X180.06Y-124.2
X180.06Y-125.05
X180.137Y-134.8
X180.65Y-130.8
X180.66Y-139.8
X180.785Y-134.4
X180.785Y-135.3
X180.96Y-125.6
X181.16Y-141.9
X181.76Y-148.65
X182.4Y-130.05
X182.785Y-133.05
X182.785Y-137.05
X183.25Y-130.05
X183.26Y-144.3
X183.26Y-145.3
X183.36Y-148.9
X184.66Y-139.8
X184.66Y-142.1
X184.735Y-140.8
X184.785Y-134.8
X184.785Y-135.6
X184.9Y-130.8
X185.785Y-136.05
X185.859Y-141.701
X186.3Y-144.3
X186.46Y-142.213
X186.5Y-126.1
X186.56Y-149.2
X186.9Y-115.6
X187.188Y-139.963
X188.2Y-115.55
X188.3Y-122.7
X188.3Y-123.55
X188.3Y-124.55
X188.3Y-125.382
X188.347Y-126.255
X188.501Y-145.3
X188.585Y-132.6
X188.9Y-136.8
X189.01Y-144.15
X189.26Y-137.7
X189.339Y-143.079
X189.4Y-128.775
X189.4Y-129.6
X189.822Y-147.8
X190.5Y-113.8
X190.6Y-117.6
X190.96Y-149.7
T2
X172.24Y-114.27
X172.24Y-119.36
X172.24Y-121.9
X172.24Y-124.44
X172.24Y-126.98
X172.24Y-129.52
X172.24Y-132.06
X172.24Y-134.6
X172.24Y-137.14
X172.24Y-139.68
X172.24Y-142.22
X172.24Y-144.76
X172.24Y-147.3
X172.24Y-149.84
X174.78Y-151.1
X177.32Y-151.1
X179.86Y-151.1
X182.4Y-151.1
X184.94Y-151.1
X187.48Y-151.1
X190.02Y-151.1
X192.56Y-114.26
X192.56Y-116.8
X192.56Y-119.34
X192.56Y-121.88
X192.56Y-124.42
X192.56Y-126.96
X192.56Y-129.5
X192.56Y-132.04
X192.56Y-134.58
X192.56Y-137.12
X192.56Y-139.66
X192.56Y-142.2
X192.56Y-144.74
X192.56Y-147.28
X192.56Y-149.82
T3
X180.635Y-132.65
X180.635Y-137.45
X184.935Y-132.65
X184.935Y-137.45
M30
