%TF.GenerationSoftware,KiCad,Pcbnew,9.0.7-9.0.7~ubuntu22.04.1*%
%TF.CreationDate,2026-02-16T12:55:31-07:00*%
%TF.ProjectId,ESP32-S3-MINI-1U_UU,45535033-322d-4533-932d-4d494e492d31,rev?*%
%TF.SameCoordinates,Original*%
%TF.FileFunction,Copper,L2,Bot*%
%TF.FilePolarity,Positive*%
%FSLAX46Y46*%
G04 Gerber Fmt 4.6, Leading zero omitted, Abs format (unit mm)*
G04 Created by KiCad (PCBNEW 9.0.7-9.0.7~ubuntu22.04.1) date 2026-02-16 12:55:31*
%MOMM*%
%LPD*%
G01*
G04 APERTURE LIST*
%TA.AperFunction,ComponentPad*%
%ADD10R,1.600000X1.600000*%
%TD*%
%TA.AperFunction,ComponentPad*%
%ADD11C,1.600000*%
%TD*%
%TA.AperFunction,ComponentPad*%
%ADD12C,1.460000*%
%TD*%
%TA.AperFunction,ViaPad*%
%ADD13C,0.500000*%
%TD*%
%TA.AperFunction,ViaPad*%
%ADD14C,0.600000*%
%TD*%
%TA.AperFunction,Conductor*%
%ADD15C,0.150000*%
%TD*%
%TA.AperFunction,Conductor*%
%ADD16C,0.400000*%
%TD*%
%TA.AperFunction,Conductor*%
%ADD17C,0.200000*%
%TD*%
G04 APERTURE END LIST*
D10*
%TO.P,J1,1,1*%
%TO.N,IO16*%
X174780000Y-151100000D03*
D11*
%TO.P,J1,2,2*%
%TO.N,IO17*%
X177320000Y-151100000D03*
%TO.P,J1,3,3*%
%TO.N,IO18*%
X179860000Y-151100000D03*
%TO.P,J1,4,4*%
%TO.N,5V*%
X182400000Y-151100000D03*
%TO.P,J1,5,5*%
%TO.N,GND*%
X184940000Y-151100000D03*
%TO.P,J1,6,6*%
%TO.N,IO21*%
X187480000Y-151100000D03*
%TO.P,J1,7,7*%
%TO.N,IO26*%
X190020000Y-151100000D03*
%TD*%
D10*
%TO.P,J6,1,1*%
%TO.N,IO46*%
X192560000Y-114260000D03*
D11*
%TO.P,J6,2,2*%
%TO.N,IO45*%
X192560000Y-116800000D03*
%TO.P,J6,3,3*%
%TO.N,RX*%
X192560000Y-119340000D03*
%TO.P,J6,4,4*%
%TO.N,TX*%
X192560000Y-121880000D03*
%TO.P,J6,5,5*%
%TO.N,MTMS*%
X192560000Y-124420000D03*
%TO.P,J6,6,6*%
%TO.N,MTDI*%
X192560000Y-126960000D03*
%TO.P,J6,7,7*%
%TO.N,MTDO*%
X192560000Y-129500000D03*
%TO.P,J6,8,8*%
%TO.N,MTCK*%
X192560000Y-132040000D03*
%TO.P,J6,9,9*%
%TO.N,IO38*%
X192560000Y-134580000D03*
%TO.P,J6,10,10*%
%TO.N,IO37*%
X192560000Y-137120000D03*
%TO.P,J6,11,11*%
%TO.N,IO36*%
X192560000Y-139660000D03*
%TO.P,J6,12,12*%
%TO.N,IO35*%
X192560000Y-142200000D03*
%TO.P,J6,13,13*%
%TO.N,IO34*%
X192560000Y-144740000D03*
%TO.P,J6,14,14*%
%TO.N,IO33*%
X192560000Y-147280000D03*
%TO.P,J6,15,15*%
%TO.N,IO47*%
X192560000Y-149820000D03*
%TD*%
D10*
%TO.P,J5,1,1*%
%TO.N,3V3*%
X172240000Y-119360000D03*
D11*
%TO.P,J5,2,2*%
%TO.N,LED*%
X172240000Y-121900000D03*
%TO.P,J5,3,3*%
%TO.N,IO3*%
X172240000Y-124440000D03*
%TO.P,J5,4,4*%
%TO.N,IO4*%
X172240000Y-126980000D03*
%TO.P,J5,5,5*%
%TO.N,IO5*%
X172240000Y-129520000D03*
%TO.P,J5,6,6*%
%TO.N,IO6*%
X172240000Y-132060000D03*
%TO.P,J5,7,7*%
%TO.N,IO7*%
X172240000Y-134600000D03*
%TO.P,J5,8,8*%
%TO.N,IO10*%
X172240000Y-137140000D03*
%TO.P,J5,9,9*%
%TO.N,IO11*%
X172240000Y-139680000D03*
%TO.P,J5,10,10*%
%TO.N,IO12*%
X172240000Y-142220000D03*
%TO.P,J5,11,11*%
%TO.N,IO13*%
X172240000Y-144760000D03*
%TO.P,J5,12,12*%
%TO.N,IO14*%
X172240000Y-147300000D03*
%TO.P,J5,13,13*%
%TO.N,IO15*%
X172240000Y-149840000D03*
%TD*%
D10*
%TO.P,J4,1,1*%
%TO.N,GND*%
X172240000Y-114270000D03*
%TD*%
D12*
%TO.P,J2,MH1,MH1*%
%TO.N,GND*%
X180635000Y-137450000D03*
%TO.P,J2,MH2,MH2*%
X180635000Y-132650000D03*
%TO.P,J2,MH3,MH3*%
X184935000Y-132650000D03*
%TO.P,J2,MH4,MH4*%
X184935000Y-137450000D03*
%TD*%
D13*
%TO.N,GND*%
X180960000Y-125600000D03*
X176610000Y-145250000D03*
D14*
X178060000Y-142750000D03*
D13*
X188585000Y-132600000D03*
X183260000Y-144300000D03*
X184660000Y-142100000D03*
X189338768Y-143078768D03*
X176400000Y-116700000D03*
X186900000Y-115600000D03*
X186560000Y-149200000D03*
D14*
X180660000Y-139800000D03*
D13*
X190960000Y-149700000D03*
X178400000Y-138050000D03*
X179160000Y-126800000D03*
X179260000Y-123600000D03*
X189260000Y-137700000D03*
X184900000Y-130800000D03*
X190500000Y-113800000D03*
D14*
X184660000Y-139800000D03*
D13*
X178960000Y-149200000D03*
D14*
X185785000Y-136050000D03*
X181160000Y-141900000D03*
D13*
X177960000Y-140700000D03*
X190600000Y-117600000D03*
X176400000Y-123300000D03*
X186500000Y-126100000D03*
X180136646Y-134800000D03*
X189822000Y-147800000D03*
X189400000Y-128775000D03*
D14*
X182785000Y-133050000D03*
D13*
X176460000Y-126800000D03*
D14*
X182785000Y-137050000D03*
D13*
X177110000Y-133350000D03*
X180650000Y-130800000D03*
D14*
X188300000Y-122700000D03*
D13*
X188501000Y-145300000D03*
X185858768Y-141701232D03*
%TO.N,IO1*%
X176400000Y-118250000D03*
X183360000Y-148900000D03*
%TO.N,IO36*%
X188300000Y-125381823D03*
%TO.N,IO35*%
X188347135Y-126254671D03*
%TO.N,LED*%
X179200000Y-131040000D03*
X174560000Y-119100000D03*
%TO.N,IO37*%
X188300000Y-124550000D03*
%TO.N,3V3*%
X183260000Y-145300000D03*
X184735000Y-140800000D03*
D14*
X176000000Y-139775000D03*
X177075000Y-141050000D03*
X173900000Y-117700000D03*
D13*
%TO.N,SCL*%
X180060000Y-125050000D03*
X186460000Y-142212500D03*
%TO.N,SDA*%
X180060000Y-124200000D03*
X187188255Y-139963204D03*
X186300000Y-144300000D03*
%TO.N,D+*%
X184785000Y-134800000D03*
D14*
X183250000Y-130050000D03*
D13*
X180785000Y-135300000D03*
%TO.N,RGB*%
X189400000Y-129600000D03*
X189010000Y-144150000D03*
%TO.N,D-*%
X184785000Y-135600000D03*
D14*
X182400000Y-130050000D03*
D13*
X180785000Y-134400000D03*
D14*
%TO.N,Net-(S1-NO)*%
X178150000Y-136800000D03*
D13*
X177125000Y-121050000D03*
%TO.N,Net-(S2-NO)*%
X188200000Y-115550000D03*
X188900000Y-136800000D03*
%TO.N,IO12*%
X174349914Y-132000000D03*
%TO.N,IO11*%
X175400000Y-129050000D03*
X176400000Y-126050000D03*
X174276000Y-131200000D03*
%TO.N,IO38*%
X188300000Y-123550000D03*
%TO.N,V_USB*%
X175960000Y-147700000D03*
X181760000Y-148650002D03*
D14*
X176000000Y-141000000D03*
%TD*%
D15*
%TO.N,IO1*%
X185260000Y-145000000D02*
X185260000Y-139900000D01*
X183360000Y-146900000D02*
X185260000Y-145000000D01*
X183360000Y-148900000D02*
X183360000Y-146900000D01*
X176410000Y-118250000D02*
X176400000Y-118250000D01*
X178560000Y-125100000D02*
X178560000Y-120400000D01*
X185260000Y-139900000D02*
X186860000Y-138300000D01*
X186860000Y-138300000D02*
X186860000Y-129300000D01*
X186860000Y-129300000D02*
X183760000Y-126200000D01*
X183760000Y-126200000D02*
X179660000Y-126200000D01*
X176400000Y-118250000D02*
X176450000Y-118300000D01*
X178560000Y-120400000D02*
X176410000Y-118250000D01*
X179660000Y-126200000D02*
X178560000Y-125100000D01*
%TO.N,IO36*%
X191251000Y-137491000D02*
X191251000Y-138491000D01*
X188818177Y-125900000D02*
X189160000Y-125900000D01*
X191251000Y-138491000D02*
X192420000Y-139660000D01*
X191060000Y-135967777D02*
X191060000Y-137300000D01*
X190298000Y-135205777D02*
X191060000Y-135967777D01*
X189160000Y-125900000D02*
X190298000Y-127038000D01*
X188299488Y-125381311D02*
X188818177Y-125900000D01*
X191060000Y-137300000D02*
X191251000Y-137491000D01*
X192420000Y-139660000D02*
X192484000Y-139660000D01*
X190298000Y-127038000D02*
X190298000Y-135205777D01*
%TO.N,IO35*%
X190698000Y-136102166D02*
X190698000Y-137445389D01*
X190900000Y-140640000D02*
X192460000Y-142200000D01*
X190900000Y-137647389D02*
X190900000Y-140640000D01*
X190698000Y-137445389D02*
X190900000Y-137647389D01*
X189946999Y-135351164D02*
X190698000Y-136102166D01*
X188347135Y-126254671D02*
X188892464Y-126800000D01*
X188892464Y-126800000D02*
X189560000Y-126800000D01*
X189560000Y-126800000D02*
X189947000Y-127187000D01*
X189947000Y-135050000D02*
X189946999Y-135351164D01*
X192370000Y-141520000D02*
X192525000Y-141520000D01*
X192460000Y-142200000D02*
X192484000Y-142200000D01*
X189947000Y-127187000D02*
X189947000Y-135050000D01*
%TO.N,LED*%
X179200000Y-131040000D02*
X179200000Y-129736388D01*
X179200000Y-129736388D02*
X178209000Y-128745388D01*
X178209000Y-121359000D02*
X175950000Y-119100000D01*
X178209000Y-128745388D02*
X178209000Y-121359000D01*
X175950000Y-119100000D02*
X174651299Y-119100000D01*
%TO.N,IO37*%
X190649000Y-135060389D02*
X191411000Y-135822389D01*
X188710640Y-125050000D02*
X188900000Y-125050000D01*
X191411000Y-136131000D02*
X192400000Y-137120000D01*
X190649000Y-126799000D02*
X190649000Y-135060389D01*
X188343192Y-124682552D02*
X188710640Y-125050000D01*
X191411000Y-135822389D02*
X191411000Y-136131000D01*
X188900000Y-125050000D02*
X190649000Y-126799000D01*
X192400000Y-137120000D02*
X192484000Y-137120000D01*
D16*
%TO.N,3V3*%
X177075000Y-141050000D02*
X177075000Y-140982500D01*
X173900000Y-119300000D02*
X172592000Y-119300000D01*
X177075000Y-140982500D02*
X176000000Y-139907500D01*
X177075000Y-143415000D02*
X177075000Y-141050000D01*
X173900000Y-128640000D02*
X176000000Y-130740000D01*
X173900000Y-117700000D02*
X173900000Y-119300000D01*
X176000000Y-130740000D02*
X176000000Y-139775000D01*
X176000000Y-139907500D02*
X176000000Y-139775000D01*
X177075000Y-143415000D02*
X178960000Y-145300000D01*
D15*
X184060000Y-144500000D02*
X183260000Y-145300000D01*
D16*
X183260000Y-145300000D02*
X178960000Y-145300000D01*
D15*
X184735000Y-140800000D02*
X184685000Y-140800000D01*
X184685000Y-140800000D02*
X184060000Y-141425000D01*
D16*
X173900000Y-119349000D02*
X173900000Y-128649000D01*
X173900000Y-117700000D02*
X173949000Y-117749000D01*
D15*
X184060000Y-141425000D02*
X184060000Y-144500000D01*
D17*
%TO.N,SCL*%
X186386000Y-142100000D02*
X186400000Y-142086000D01*
D15*
X183753612Y-125050000D02*
X180060000Y-125050000D01*
X186460000Y-139900000D02*
X187709000Y-138651000D01*
X187709000Y-138651000D02*
X187709000Y-129005388D01*
X187709000Y-129005388D02*
X183753612Y-125050000D01*
X186460000Y-142026000D02*
X186460000Y-139900000D01*
%TO.N,SDA*%
X183400000Y-124200000D02*
X188060000Y-128860000D01*
X180060000Y-124200000D02*
X183400000Y-124200000D01*
D17*
X187200000Y-139951459D02*
X187200000Y-139800000D01*
D15*
X187200000Y-143400000D02*
X187200000Y-139800000D01*
X188060000Y-128860000D02*
X188060000Y-138940000D01*
X186300000Y-144300000D02*
X187200000Y-143400000D01*
D17*
X187188255Y-139963204D02*
X187200000Y-139951459D01*
D15*
X188060000Y-138940000D02*
X187200000Y-139800000D01*
%TO.N,D+*%
X183581000Y-132981000D02*
X183581000Y-130381000D01*
X184785000Y-134800000D02*
X184785000Y-134185000D01*
X184785000Y-134185000D02*
X183581000Y-132981000D01*
X182900000Y-134800000D02*
X184785000Y-134800000D01*
X182400000Y-135300000D02*
X182900000Y-134800000D01*
X183581000Y-130381000D02*
X183250000Y-130050000D01*
X180785000Y-135300000D02*
X182400000Y-135300000D01*
%TO.N,RGB*%
X189960000Y-143200000D02*
X189960000Y-135860554D01*
X189595999Y-135496552D02*
X189596000Y-129871000D01*
X189300000Y-129600000D02*
X189400000Y-129600000D01*
D17*
X189400000Y-129500000D02*
X189400000Y-129600000D01*
D15*
X189010000Y-144150000D02*
X189960000Y-143200000D01*
X189960000Y-135860554D02*
X189595999Y-135496552D01*
X189596000Y-129871000D02*
X189426000Y-129701000D01*
%TO.N,D-*%
X181989000Y-130461000D02*
X182400000Y-130050000D01*
X181989000Y-133096000D02*
X181989000Y-130461000D01*
X180785000Y-134300000D02*
X181989000Y-133096000D01*
D17*
X180785000Y-134400000D02*
X180785000Y-134300000D01*
D15*
%TO.N,Net-(S1-NO)*%
X177125000Y-121050000D02*
X177125000Y-121065000D01*
X177125000Y-121065000D02*
X177858000Y-121798000D01*
X177858000Y-121798000D02*
X177858000Y-128890777D01*
X178150000Y-129182776D02*
X178150000Y-136800000D01*
X177858000Y-128890777D02*
X178150000Y-129182776D01*
D17*
%TO.N,Net-(S2-NO)*%
X188150000Y-115651000D02*
X188200000Y-115601000D01*
D15*
X187200000Y-116451000D02*
X188000000Y-115651000D01*
X188900000Y-136700000D02*
X189260000Y-136340000D01*
X187200000Y-126600000D02*
X187200000Y-116451000D01*
X189245000Y-130188877D02*
X188874000Y-129817877D01*
X189244999Y-130188878D02*
X189245000Y-130188877D01*
X189260000Y-135656942D02*
X189244999Y-135641940D01*
X188900000Y-136800000D02*
X188900000Y-136700000D01*
X189244999Y-135641940D02*
X189244999Y-130188878D01*
D17*
X188150000Y-115550000D02*
X188201000Y-115601000D01*
D15*
X188874000Y-129817877D02*
X188874000Y-128274000D01*
X188874000Y-128274000D02*
X187200000Y-126600000D01*
X189260000Y-136340000D02*
X189260000Y-135656942D01*
%TO.N,IO12*%
X174151000Y-132249000D02*
X174151000Y-138349000D01*
X173400000Y-139100000D02*
X173400000Y-141050000D01*
X174336172Y-132063829D02*
X174151000Y-132249000D01*
X172316000Y-142134000D02*
X172316000Y-142210000D01*
X173400000Y-141050000D02*
X172316000Y-142134000D01*
X174151000Y-138349000D02*
X173400000Y-139100000D01*
%TO.N,IO11*%
X174276000Y-131200000D02*
X174276000Y-131252604D01*
X175400000Y-127050000D02*
X176400000Y-126050000D01*
X173800000Y-131728604D02*
X173800000Y-138110000D01*
X174276000Y-131252604D02*
X173800000Y-131728604D01*
X175400000Y-129050000D02*
X175400000Y-127050000D01*
X173800000Y-138110000D02*
X172316000Y-139594000D01*
%TO.N,IO46*%
X192484000Y-113656000D02*
X192484000Y-113580000D01*
%TO.N,IO38*%
X188300000Y-123550000D02*
X188300000Y-123640000D01*
X191000000Y-133020000D02*
X192484000Y-134504000D01*
X188150000Y-123550000D02*
X188400000Y-123550000D01*
X191000000Y-126340000D02*
X191000000Y-133020000D01*
X188300000Y-123640000D02*
X191000000Y-126340000D01*
%TO.N,V_USB*%
X181710002Y-148650002D02*
X181360000Y-148300000D01*
D16*
X175960000Y-147700000D02*
X175960000Y-141040000D01*
D15*
X181760000Y-148650002D02*
X181710002Y-148650002D01*
X181360000Y-148300000D02*
X176560000Y-148300000D01*
D16*
X175960000Y-141040000D02*
X176000000Y-141000000D01*
D15*
X176560000Y-148300000D02*
X175960000Y-147700000D01*
%TD*%
%TA.AperFunction,Conductor*%
%TO.N,GND*%
G36*
X192502539Y-113020185D02*
G01*
X192548294Y-113072989D01*
X192559500Y-113124500D01*
X192559500Y-113135500D01*
X192539815Y-113202539D01*
X192487011Y-113248294D01*
X192435500Y-113259500D01*
X191740247Y-113259500D01*
X191681770Y-113271131D01*
X191681769Y-113271132D01*
X191615447Y-113315447D01*
X191571132Y-113381769D01*
X191571131Y-113381770D01*
X191559500Y-113440247D01*
X191559500Y-115079752D01*
X191571131Y-115138229D01*
X191571132Y-115138230D01*
X191615447Y-115204552D01*
X191681769Y-115248867D01*
X191681770Y-115248868D01*
X191740247Y-115260499D01*
X191740250Y-115260500D01*
X191740252Y-115260500D01*
X192435500Y-115260500D01*
X192502539Y-115280185D01*
X192548294Y-115332989D01*
X192559500Y-115384500D01*
X192559500Y-115678234D01*
X192539815Y-115745273D01*
X192487011Y-115791028D01*
X192459692Y-115799851D01*
X192268170Y-115837947D01*
X192268160Y-115837950D01*
X192086092Y-115913364D01*
X192086079Y-115913371D01*
X191922218Y-116022860D01*
X191922214Y-116022863D01*
X191782863Y-116162214D01*
X191782860Y-116162218D01*
X191673371Y-116326079D01*
X191673364Y-116326092D01*
X191597950Y-116508160D01*
X191597947Y-116508170D01*
X191559500Y-116701456D01*
X191559500Y-116701459D01*
X191559500Y-116898541D01*
X191559500Y-116898543D01*
X191559499Y-116898543D01*
X191597947Y-117091829D01*
X191597950Y-117091839D01*
X191673364Y-117273907D01*
X191673371Y-117273920D01*
X191782860Y-117437781D01*
X191782863Y-117437785D01*
X191922214Y-117577136D01*
X191922218Y-117577139D01*
X192086079Y-117686628D01*
X192086092Y-117686635D01*
X192268160Y-117762049D01*
X192268165Y-117762051D01*
X192459691Y-117800148D01*
X192521602Y-117832533D01*
X192556176Y-117893248D01*
X192559500Y-117921765D01*
X192559500Y-118218234D01*
X192539815Y-118285273D01*
X192487011Y-118331028D01*
X192459692Y-118339851D01*
X192268170Y-118377947D01*
X192268160Y-118377950D01*
X192086092Y-118453364D01*
X192086079Y-118453371D01*
X191922218Y-118562860D01*
X191922214Y-118562863D01*
X191782863Y-118702214D01*
X191782860Y-118702218D01*
X191673371Y-118866079D01*
X191673364Y-118866092D01*
X191597950Y-119048160D01*
X191597947Y-119048170D01*
X191559500Y-119241456D01*
X191559500Y-119241459D01*
X191559500Y-119438541D01*
X191559500Y-119438543D01*
X191559499Y-119438543D01*
X191597947Y-119631829D01*
X191597950Y-119631839D01*
X191673364Y-119813907D01*
X191673371Y-119813920D01*
X191782860Y-119977781D01*
X191782863Y-119977785D01*
X191922214Y-120117136D01*
X191922218Y-120117139D01*
X192086079Y-120226628D01*
X192086092Y-120226635D01*
X192177049Y-120264310D01*
X192268165Y-120302051D01*
X192459691Y-120340148D01*
X192521602Y-120372533D01*
X192556176Y-120433248D01*
X192559500Y-120461765D01*
X192559500Y-120758234D01*
X192539815Y-120825273D01*
X192487011Y-120871028D01*
X192459692Y-120879851D01*
X192268170Y-120917947D01*
X192268160Y-120917950D01*
X192086092Y-120993364D01*
X192086079Y-120993371D01*
X191922218Y-121102860D01*
X191922214Y-121102863D01*
X191782863Y-121242214D01*
X191782860Y-121242218D01*
X191673371Y-121406079D01*
X191673364Y-121406092D01*
X191597950Y-121588160D01*
X191597947Y-121588170D01*
X191559500Y-121781456D01*
X191559500Y-121781459D01*
X191559500Y-121978541D01*
X191559500Y-121978543D01*
X191559499Y-121978543D01*
X191597947Y-122171829D01*
X191597950Y-122171839D01*
X191673364Y-122353907D01*
X191673371Y-122353920D01*
X191782860Y-122517781D01*
X191782863Y-122517785D01*
X191922214Y-122657136D01*
X191922218Y-122657139D01*
X192086079Y-122766628D01*
X192086092Y-122766635D01*
X192268160Y-122842049D01*
X192268165Y-122842051D01*
X192459691Y-122880148D01*
X192521602Y-122912533D01*
X192556176Y-122973248D01*
X192559500Y-123001765D01*
X192559500Y-123298234D01*
X192539815Y-123365273D01*
X192487011Y-123411028D01*
X192459692Y-123419851D01*
X192268170Y-123457947D01*
X192268160Y-123457950D01*
X192086092Y-123533364D01*
X192086079Y-123533371D01*
X191922218Y-123642860D01*
X191922214Y-123642863D01*
X191782863Y-123782214D01*
X191782860Y-123782218D01*
X191673371Y-123946079D01*
X191673364Y-123946092D01*
X191597950Y-124128160D01*
X191597947Y-124128170D01*
X191559500Y-124321456D01*
X191559500Y-124321459D01*
X191559500Y-124518541D01*
X191559500Y-124518543D01*
X191559499Y-124518543D01*
X191597947Y-124711829D01*
X191597950Y-124711839D01*
X191673364Y-124893907D01*
X191673371Y-124893920D01*
X191782860Y-125057781D01*
X191782863Y-125057785D01*
X191922214Y-125197136D01*
X191922218Y-125197139D01*
X192086079Y-125306628D01*
X192086092Y-125306635D01*
X192219320Y-125361819D01*
X192268165Y-125382051D01*
X192459691Y-125420148D01*
X192521602Y-125452533D01*
X192556176Y-125513248D01*
X192559500Y-125541765D01*
X192559500Y-125838234D01*
X192539815Y-125905273D01*
X192487011Y-125951028D01*
X192459692Y-125959851D01*
X192268170Y-125997947D01*
X192268160Y-125997950D01*
X192086092Y-126073364D01*
X192086079Y-126073371D01*
X191922218Y-126182860D01*
X191922214Y-126182863D01*
X191782863Y-126322214D01*
X191782860Y-126322218D01*
X191673371Y-126486079D01*
X191673364Y-126486092D01*
X191597950Y-126668160D01*
X191597947Y-126668170D01*
X191559500Y-126861456D01*
X191559500Y-126861459D01*
X191559500Y-127058541D01*
X191559500Y-127058543D01*
X191559499Y-127058543D01*
X191597947Y-127251829D01*
X191597950Y-127251839D01*
X191673364Y-127433907D01*
X191673371Y-127433920D01*
X191782860Y-127597781D01*
X191782863Y-127597785D01*
X191922214Y-127737136D01*
X191922218Y-127737139D01*
X192086079Y-127846628D01*
X192086092Y-127846635D01*
X192268160Y-127922049D01*
X192268165Y-127922051D01*
X192459691Y-127960148D01*
X192521602Y-127992533D01*
X192556176Y-128053248D01*
X192559500Y-128081765D01*
X192559500Y-128378234D01*
X192539815Y-128445273D01*
X192487011Y-128491028D01*
X192459692Y-128499851D01*
X192268170Y-128537947D01*
X192268160Y-128537950D01*
X192086092Y-128613364D01*
X192086079Y-128613371D01*
X191922218Y-128722860D01*
X191922214Y-128722863D01*
X191782863Y-128862214D01*
X191782860Y-128862218D01*
X191673371Y-129026079D01*
X191673364Y-129026092D01*
X191597950Y-129208160D01*
X191597947Y-129208170D01*
X191559500Y-129401456D01*
X191559500Y-129401459D01*
X191559500Y-129598541D01*
X191559500Y-129598543D01*
X191559499Y-129598543D01*
X191597947Y-129791829D01*
X191597950Y-129791839D01*
X191673364Y-129973907D01*
X191673371Y-129973920D01*
X191782860Y-130137781D01*
X191782863Y-130137785D01*
X191922214Y-130277136D01*
X191922218Y-130277139D01*
X192086079Y-130386628D01*
X192086092Y-130386635D01*
X192165485Y-130419520D01*
X192268165Y-130462051D01*
X192459691Y-130500148D01*
X192521602Y-130532533D01*
X192556176Y-130593248D01*
X192559500Y-130621765D01*
X192559500Y-130918234D01*
X192539815Y-130985273D01*
X192487011Y-131031028D01*
X192459692Y-131039851D01*
X192268170Y-131077947D01*
X192268160Y-131077950D01*
X192086092Y-131153364D01*
X192086079Y-131153371D01*
X191922218Y-131262860D01*
X191922214Y-131262863D01*
X191782863Y-131402214D01*
X191782860Y-131402218D01*
X191673371Y-131566079D01*
X191673364Y-131566092D01*
X191597950Y-131748160D01*
X191597947Y-131748170D01*
X191559500Y-131941456D01*
X191559500Y-131941459D01*
X191559500Y-132138541D01*
X191559500Y-132138543D01*
X191559499Y-132138543D01*
X191597947Y-132331829D01*
X191597950Y-132331839D01*
X191673364Y-132513907D01*
X191673371Y-132513920D01*
X191782860Y-132677781D01*
X191782863Y-132677785D01*
X191922214Y-132817136D01*
X191922218Y-132817139D01*
X192086079Y-132926628D01*
X192086092Y-132926635D01*
X192219477Y-132981884D01*
X192268165Y-133002051D01*
X192459691Y-133040148D01*
X192521602Y-133072533D01*
X192556176Y-133133248D01*
X192559500Y-133161765D01*
X192559500Y-133458234D01*
X192539815Y-133525273D01*
X192487011Y-133571028D01*
X192459692Y-133579851D01*
X192268170Y-133617947D01*
X192268165Y-133617949D01*
X192146294Y-133668428D01*
X192076825Y-133675895D01*
X192014346Y-133644620D01*
X192011162Y-133641547D01*
X191311819Y-132942204D01*
X191278334Y-132880881D01*
X191275500Y-132854523D01*
X191275500Y-126285201D01*
X191275499Y-126285198D01*
X191250103Y-126223886D01*
X191250103Y-126223885D01*
X191233560Y-126183947D01*
X191233558Y-126183942D01*
X188781769Y-123732154D01*
X188748285Y-123670832D01*
X188749558Y-123617381D01*
X188749439Y-123617366D01*
X188749585Y-123616253D01*
X188749677Y-123612376D01*
X188750500Y-123609309D01*
X188750500Y-123490691D01*
X188719799Y-123376114D01*
X188660489Y-123273387D01*
X188576613Y-123189511D01*
X188473886Y-123130201D01*
X188359309Y-123099500D01*
X188240691Y-123099500D01*
X188126114Y-123130201D01*
X188126112Y-123130201D01*
X188126112Y-123130202D01*
X188023387Y-123189511D01*
X188023384Y-123189513D01*
X187939513Y-123273384D01*
X187939511Y-123273387D01*
X187880201Y-123376114D01*
X187849500Y-123490691D01*
X187849500Y-123609309D01*
X187880201Y-123723886D01*
X187939511Y-123826613D01*
X188023387Y-123910489D01*
X188079027Y-123942613D01*
X188127242Y-123993181D01*
X188140464Y-124061788D01*
X188114496Y-124126653D01*
X188079027Y-124157387D01*
X188023387Y-124189511D01*
X188023384Y-124189513D01*
X187939513Y-124273384D01*
X187939511Y-124273387D01*
X187880201Y-124376114D01*
X187849500Y-124490691D01*
X187849500Y-124609309D01*
X187880201Y-124723886D01*
X187939511Y-124826613D01*
X187939513Y-124826615D01*
X187991128Y-124878230D01*
X188024613Y-124939553D01*
X188019629Y-125009245D01*
X187991129Y-125053591D01*
X187939514Y-125105206D01*
X187939511Y-125105210D01*
X187880201Y-125207937D01*
X187849500Y-125322514D01*
X187849500Y-125441132D01*
X187880201Y-125555709D01*
X187939511Y-125658436D01*
X188023387Y-125742312D01*
X188023393Y-125742315D01*
X188023808Y-125742634D01*
X188024076Y-125743001D01*
X188029134Y-125748059D01*
X188028345Y-125748847D01*
X188065014Y-125799060D01*
X188069173Y-125868805D01*
X188036009Y-125928694D01*
X187986649Y-125978054D01*
X187986646Y-125978058D01*
X187931617Y-126073371D01*
X187927336Y-126080785D01*
X187896635Y-126195362D01*
X187896635Y-126313980D01*
X187927336Y-126428557D01*
X187986646Y-126531284D01*
X188070522Y-126615160D01*
X188173249Y-126674470D01*
X188287826Y-126705171D01*
X188287829Y-126705171D01*
X188356657Y-126705171D01*
X188423696Y-126724856D01*
X188444338Y-126741490D01*
X188736408Y-127033560D01*
X188814721Y-127065997D01*
X188837664Y-127075500D01*
X189394523Y-127075500D01*
X189423963Y-127084144D01*
X189453950Y-127090668D01*
X189458965Y-127094422D01*
X189461562Y-127095185D01*
X189482204Y-127111819D01*
X189635181Y-127264796D01*
X189668666Y-127326119D01*
X189671500Y-127352477D01*
X189671500Y-129044756D01*
X189651815Y-129111795D01*
X189599011Y-129157550D01*
X189529853Y-129167494D01*
X189515408Y-129164531D01*
X189459310Y-129149500D01*
X189459309Y-129149500D01*
X189340691Y-129149500D01*
X189340686Y-129149500D01*
X189305591Y-129158904D01*
X189235741Y-129157240D01*
X189177880Y-129118077D01*
X189150377Y-129053848D01*
X189149500Y-129039129D01*
X189149500Y-128219201D01*
X189149498Y-128219196D01*
X189107560Y-128117944D01*
X187511819Y-126522203D01*
X187478334Y-126460880D01*
X187475500Y-126434522D01*
X187475500Y-116616476D01*
X187495185Y-116549437D01*
X187511815Y-116528799D01*
X188010747Y-116029866D01*
X188072068Y-115996383D01*
X188130521Y-115997775D01*
X188134709Y-115998897D01*
X188140691Y-116000500D01*
X188140692Y-116000500D01*
X188259306Y-116000500D01*
X188259309Y-116000500D01*
X188373886Y-115969799D01*
X188476613Y-115910489D01*
X188560489Y-115826613D01*
X188619799Y-115723886D01*
X188650500Y-115609309D01*
X188650500Y-115490691D01*
X188619799Y-115376114D01*
X188560489Y-115273387D01*
X188476613Y-115189511D01*
X188373886Y-115130201D01*
X188259309Y-115099500D01*
X188140691Y-115099500D01*
X188026114Y-115130201D01*
X188026112Y-115130201D01*
X188026112Y-115130202D01*
X187923387Y-115189511D01*
X187923384Y-115189513D01*
X187839513Y-115273384D01*
X187839511Y-115273387D01*
X187780201Y-115376112D01*
X187750342Y-115487549D01*
X187718248Y-115543136D01*
X187043942Y-116217443D01*
X186966444Y-116294940D01*
X186966443Y-116294941D01*
X186966443Y-116294942D01*
X186924500Y-116396200D01*
X186924500Y-126654800D01*
X186966443Y-126756058D01*
X186966444Y-126756059D01*
X188562181Y-128351796D01*
X188595666Y-128413119D01*
X188598500Y-128439477D01*
X188598500Y-129872677D01*
X188638791Y-129969946D01*
X188638789Y-129969946D01*
X188638793Y-129969951D01*
X188640443Y-129973935D01*
X188640444Y-129973937D01*
X188933180Y-130266672D01*
X188966665Y-130327995D01*
X188969499Y-130354353D01*
X188969499Y-135652610D01*
X188969498Y-135696731D01*
X188969499Y-135696733D01*
X188969499Y-135696740D01*
X188971549Y-135701691D01*
X188971550Y-135701694D01*
X188975058Y-135710161D01*
X188984500Y-135757621D01*
X188984500Y-136174523D01*
X188964815Y-136241562D01*
X188948180Y-136262205D01*
X188891769Y-136318615D01*
X188836183Y-136350708D01*
X188726112Y-136380201D01*
X188623387Y-136439511D01*
X188623384Y-136439513D01*
X188547181Y-136515717D01*
X188485858Y-136549202D01*
X188416166Y-136544218D01*
X188360233Y-136502346D01*
X188335816Y-136436882D01*
X188335500Y-136428036D01*
X188335500Y-128805201D01*
X188335500Y-128805200D01*
X188293557Y-128703942D01*
X188293557Y-128703941D01*
X183556058Y-123966443D01*
X183526228Y-123954087D01*
X183526225Y-123954085D01*
X183526224Y-123954085D01*
X183454802Y-123924500D01*
X183454800Y-123924500D01*
X180472964Y-123924500D01*
X180405925Y-123904815D01*
X180385283Y-123888181D01*
X180336615Y-123839513D01*
X180336613Y-123839511D01*
X180233886Y-123780201D01*
X180119309Y-123749500D01*
X180000691Y-123749500D01*
X179886114Y-123780201D01*
X179886112Y-123780201D01*
X179886112Y-123780202D01*
X179783387Y-123839511D01*
X179783384Y-123839513D01*
X179699513Y-123923384D01*
X179699511Y-123923387D01*
X179674863Y-123966079D01*
X179640201Y-124026114D01*
X179609500Y-124140691D01*
X179609500Y-124259309D01*
X179640201Y-124373886D01*
X179699511Y-124476613D01*
X179699513Y-124476615D01*
X179760217Y-124537319D01*
X179793702Y-124598642D01*
X179788718Y-124668334D01*
X179760217Y-124712681D01*
X179699513Y-124773384D01*
X179699511Y-124773387D01*
X179668780Y-124826615D01*
X179640201Y-124876114D01*
X179609500Y-124990691D01*
X179609500Y-125109309D01*
X179640201Y-125223886D01*
X179699511Y-125326613D01*
X179783387Y-125410489D01*
X179886114Y-125469799D01*
X180000691Y-125500500D01*
X180000694Y-125500500D01*
X180119306Y-125500500D01*
X180119309Y-125500500D01*
X180233886Y-125469799D01*
X180336613Y-125410489D01*
X180385283Y-125361819D01*
X180446606Y-125328334D01*
X180472964Y-125325500D01*
X183588135Y-125325500D01*
X183655174Y-125345185D01*
X183675816Y-125361819D01*
X187397181Y-129083184D01*
X187430666Y-129144507D01*
X187433500Y-129170865D01*
X187433500Y-138485522D01*
X187413815Y-138552561D01*
X187397181Y-138573203D01*
X186303942Y-139666443D01*
X186226444Y-139743940D01*
X186184500Y-139845199D01*
X186184500Y-141799536D01*
X186164815Y-141866575D01*
X186148181Y-141887217D01*
X186099513Y-141935884D01*
X186099511Y-141935887D01*
X186040201Y-142038614D01*
X186009500Y-142153191D01*
X186009500Y-142271809D01*
X186040201Y-142386386D01*
X186099511Y-142489113D01*
X186183387Y-142572989D01*
X186286114Y-142632299D01*
X186400691Y-142663000D01*
X186400694Y-142663000D01*
X186519306Y-142663000D01*
X186519309Y-142663000D01*
X186633886Y-142632299D01*
X186633888Y-142632297D01*
X186633890Y-142632297D01*
X186633891Y-142632296D01*
X186738499Y-142571900D01*
X186806399Y-142555426D01*
X186872426Y-142578278D01*
X186915617Y-142633199D01*
X186924500Y-142679286D01*
X186924500Y-143234521D01*
X186904815Y-143301560D01*
X186888181Y-143322202D01*
X186397202Y-143813181D01*
X186335879Y-143846666D01*
X186309521Y-143849500D01*
X186240691Y-143849500D01*
X186126114Y-143880201D01*
X186126112Y-143880201D01*
X186126112Y-143880202D01*
X186023387Y-143939511D01*
X186023384Y-143939513D01*
X185939513Y-144023384D01*
X185939511Y-144023387D01*
X185900652Y-144090693D01*
X185880201Y-144126114D01*
X185849500Y-144240691D01*
X185849500Y-144359309D01*
X185880201Y-144473886D01*
X185939511Y-144576613D01*
X186023387Y-144660489D01*
X186126114Y-144719799D01*
X186240691Y-144750500D01*
X186240694Y-144750500D01*
X186359306Y-144750500D01*
X186359309Y-144750500D01*
X186473886Y-144719799D01*
X186576613Y-144660489D01*
X186660489Y-144576613D01*
X186719799Y-144473886D01*
X186750500Y-144359309D01*
X186750500Y-144290477D01*
X186770185Y-144223438D01*
X186786819Y-144202796D01*
X187109414Y-143880202D01*
X187433557Y-143556059D01*
X187445841Y-143526400D01*
X187475500Y-143454800D01*
X187475500Y-140364423D01*
X187495185Y-140297384D01*
X187511819Y-140276742D01*
X187548744Y-140239817D01*
X187608054Y-140137090D01*
X187638755Y-140022513D01*
X187638755Y-139903895D01*
X187624943Y-139852348D01*
X187626606Y-139782501D01*
X187657035Y-139732578D01*
X188293558Y-139096058D01*
X188293558Y-139096056D01*
X188293560Y-139096055D01*
X188326389Y-139016796D01*
X188335500Y-138994800D01*
X188335500Y-138885200D01*
X188335500Y-137171964D01*
X188355185Y-137104925D01*
X188407989Y-137059170D01*
X188477147Y-137049226D01*
X188540703Y-137078251D01*
X188547181Y-137084283D01*
X188623387Y-137160489D01*
X188726114Y-137219799D01*
X188840691Y-137250500D01*
X188840694Y-137250500D01*
X188959306Y-137250500D01*
X188959309Y-137250500D01*
X189073886Y-137219799D01*
X189176613Y-137160489D01*
X189260489Y-137076613D01*
X189319799Y-136973886D01*
X189350500Y-136859309D01*
X189350500Y-136740691D01*
X189347563Y-136729730D01*
X189349226Y-136659884D01*
X189379657Y-136609958D01*
X189472819Y-136516796D01*
X189534142Y-136483311D01*
X189603834Y-136488295D01*
X189659767Y-136530167D01*
X189684184Y-136595631D01*
X189684500Y-136604477D01*
X189684500Y-143034522D01*
X189664815Y-143101561D01*
X189648181Y-143122203D01*
X189107203Y-143663181D01*
X189045880Y-143696666D01*
X189019522Y-143699500D01*
X188950691Y-143699500D01*
X188836114Y-143730201D01*
X188836112Y-143730201D01*
X188836112Y-143730202D01*
X188733387Y-143789511D01*
X188733384Y-143789513D01*
X188649513Y-143873384D01*
X188649511Y-143873387D01*
X188597852Y-143962863D01*
X188590201Y-143976114D01*
X188559500Y-144090691D01*
X188559500Y-144209309D01*
X188590201Y-144323886D01*
X188649511Y-144426613D01*
X188733387Y-144510489D01*
X188836114Y-144569799D01*
X188950691Y-144600500D01*
X188950694Y-144600500D01*
X189069306Y-144600500D01*
X189069309Y-144600500D01*
X189183886Y-144569799D01*
X189286613Y-144510489D01*
X189370489Y-144426613D01*
X189429799Y-144323886D01*
X189460500Y-144209309D01*
X189460500Y-144140476D01*
X189480185Y-144073437D01*
X189496819Y-144052795D01*
X190193555Y-143356060D01*
X190193555Y-143356059D01*
X190193557Y-143356058D01*
X190235500Y-143254800D01*
X190235500Y-137667582D01*
X190255185Y-137600543D01*
X190307989Y-137554788D01*
X190377147Y-137544844D01*
X190440703Y-137573869D01*
X190448483Y-137581223D01*
X190461712Y-137594854D01*
X190464443Y-137601447D01*
X190588824Y-137725828D01*
X190589483Y-137726507D01*
X190605348Y-137756624D01*
X190621666Y-137786508D01*
X190621813Y-137787880D01*
X190622047Y-137788324D01*
X190621964Y-137789280D01*
X190624500Y-137812866D01*
X190624500Y-140694802D01*
X190649058Y-140754088D01*
X190649057Y-140754088D01*
X190666441Y-140796055D01*
X190666444Y-140796059D01*
X191592258Y-141721873D01*
X191625743Y-141783196D01*
X191620759Y-141852888D01*
X191619139Y-141857003D01*
X191597950Y-141908159D01*
X191597947Y-141908171D01*
X191559500Y-142101456D01*
X191559500Y-142101459D01*
X191559500Y-142298541D01*
X191559500Y-142298543D01*
X191559499Y-142298543D01*
X191597947Y-142491829D01*
X191597950Y-142491839D01*
X191673364Y-142673907D01*
X191673371Y-142673920D01*
X191782860Y-142837781D01*
X191782863Y-142837785D01*
X191922214Y-142977136D01*
X191922218Y-142977139D01*
X192086079Y-143086628D01*
X192086092Y-143086635D01*
X192268160Y-143162049D01*
X192268165Y-143162051D01*
X192459691Y-143200148D01*
X192521602Y-143232533D01*
X192556176Y-143293248D01*
X192559500Y-143321765D01*
X192559500Y-143618234D01*
X192539815Y-143685273D01*
X192487011Y-143731028D01*
X192459692Y-143739851D01*
X192268170Y-143777947D01*
X192268160Y-143777950D01*
X192086092Y-143853364D01*
X192086079Y-143853371D01*
X191922218Y-143962860D01*
X191922214Y-143962863D01*
X191782863Y-144102214D01*
X191782860Y-144102218D01*
X191673371Y-144266079D01*
X191673364Y-144266092D01*
X191597950Y-144448160D01*
X191597947Y-144448170D01*
X191559500Y-144641456D01*
X191559500Y-144641459D01*
X191559500Y-144838541D01*
X191559500Y-144838543D01*
X191559499Y-144838543D01*
X191597947Y-145031829D01*
X191597950Y-145031839D01*
X191673364Y-145213907D01*
X191673371Y-145213920D01*
X191782860Y-145377781D01*
X191782863Y-145377785D01*
X191922214Y-145517136D01*
X191922218Y-145517139D01*
X192086079Y-145626628D01*
X192086092Y-145626635D01*
X192264423Y-145700501D01*
X192268165Y-145702051D01*
X192459691Y-145740148D01*
X192521602Y-145772533D01*
X192556176Y-145833248D01*
X192559500Y-145861765D01*
X192559500Y-146158234D01*
X192539815Y-146225273D01*
X192487011Y-146271028D01*
X192459692Y-146279851D01*
X192268170Y-146317947D01*
X192268160Y-146317950D01*
X192086092Y-146393364D01*
X192086079Y-146393371D01*
X191922218Y-146502860D01*
X191922214Y-146502863D01*
X191782863Y-146642214D01*
X191782860Y-146642218D01*
X191673371Y-146806079D01*
X191673364Y-146806092D01*
X191597950Y-146988160D01*
X191597947Y-146988170D01*
X191559500Y-147181456D01*
X191559500Y-147181459D01*
X191559500Y-147378541D01*
X191559500Y-147378543D01*
X191559499Y-147378543D01*
X191597947Y-147571829D01*
X191597950Y-147571839D01*
X191673364Y-147753907D01*
X191673371Y-147753920D01*
X191782860Y-147917781D01*
X191782863Y-147917785D01*
X191922214Y-148057136D01*
X191922218Y-148057139D01*
X192086079Y-148166628D01*
X192086092Y-148166635D01*
X192268160Y-148242049D01*
X192268165Y-148242051D01*
X192459691Y-148280148D01*
X192521602Y-148312533D01*
X192556176Y-148373248D01*
X192559500Y-148401765D01*
X192559500Y-148698234D01*
X192539815Y-148765273D01*
X192487011Y-148811028D01*
X192459692Y-148819851D01*
X192268170Y-148857947D01*
X192268160Y-148857950D01*
X192086092Y-148933364D01*
X192086079Y-148933371D01*
X191922218Y-149042860D01*
X191922214Y-149042863D01*
X191782863Y-149182214D01*
X191782860Y-149182218D01*
X191673371Y-149346079D01*
X191673364Y-149346092D01*
X191597950Y-149528160D01*
X191597947Y-149528170D01*
X191559500Y-149721456D01*
X191559500Y-149721459D01*
X191559500Y-149918541D01*
X191559500Y-149918543D01*
X191559499Y-149918543D01*
X191597947Y-150111829D01*
X191597950Y-150111839D01*
X191673364Y-150293907D01*
X191673371Y-150293920D01*
X191782860Y-150457781D01*
X191782863Y-150457785D01*
X191922214Y-150597136D01*
X191922218Y-150597139D01*
X192086079Y-150706628D01*
X192086092Y-150706635D01*
X192182206Y-150746446D01*
X192268165Y-150782051D01*
X192459691Y-150820148D01*
X192487814Y-150834858D01*
X192516703Y-150848052D01*
X192518560Y-150850941D01*
X192521602Y-150852533D01*
X192537308Y-150880115D01*
X192554477Y-150906830D01*
X192555137Y-150911424D01*
X192556176Y-150913248D01*
X192559500Y-150941765D01*
X192559500Y-150975500D01*
X192539815Y-151042539D01*
X192487011Y-151088294D01*
X192435500Y-151099500D01*
X191141766Y-151099500D01*
X191074727Y-151079815D01*
X191028972Y-151027011D01*
X191020149Y-150999692D01*
X190982052Y-150808170D01*
X190982051Y-150808169D01*
X190982051Y-150808165D01*
X190971234Y-150782051D01*
X190906635Y-150626092D01*
X190906628Y-150626079D01*
X190797139Y-150462218D01*
X190797136Y-150462214D01*
X190657785Y-150322863D01*
X190657781Y-150322860D01*
X190493920Y-150213371D01*
X190493907Y-150213364D01*
X190311839Y-150137950D01*
X190311829Y-150137947D01*
X190118543Y-150099500D01*
X190118541Y-150099500D01*
X189921459Y-150099500D01*
X189921457Y-150099500D01*
X189728170Y-150137947D01*
X189728160Y-150137950D01*
X189546092Y-150213364D01*
X189546079Y-150213371D01*
X189382218Y-150322860D01*
X189382214Y-150322863D01*
X189242863Y-150462214D01*
X189242860Y-150462218D01*
X189133371Y-150626079D01*
X189133364Y-150626092D01*
X189057950Y-150808160D01*
X189057947Y-150808170D01*
X189019851Y-150999692D01*
X188987466Y-151061603D01*
X188926750Y-151096177D01*
X188898234Y-151099500D01*
X188601766Y-151099500D01*
X188534727Y-151079815D01*
X188488972Y-151027011D01*
X188480149Y-150999692D01*
X188442052Y-150808170D01*
X188442051Y-150808169D01*
X188442051Y-150808165D01*
X188431234Y-150782051D01*
X188366635Y-150626092D01*
X188366628Y-150626079D01*
X188257139Y-150462218D01*
X188257136Y-150462214D01*
X188117785Y-150322863D01*
X188117781Y-150322860D01*
X187953920Y-150213371D01*
X187953907Y-150213364D01*
X187771839Y-150137950D01*
X187771829Y-150137947D01*
X187578543Y-150099500D01*
X187578541Y-150099500D01*
X187381459Y-150099500D01*
X187381457Y-150099500D01*
X187188170Y-150137947D01*
X187188160Y-150137950D01*
X187006092Y-150213364D01*
X187006079Y-150213371D01*
X186842218Y-150322860D01*
X186842214Y-150322863D01*
X186702863Y-150462214D01*
X186702860Y-150462218D01*
X186593371Y-150626079D01*
X186593364Y-150626092D01*
X186517950Y-150808160D01*
X186517947Y-150808170D01*
X186481965Y-150989062D01*
X186449580Y-151050973D01*
X186388864Y-151085547D01*
X186319094Y-151081806D01*
X186262423Y-151040940D01*
X186237875Y-150984268D01*
X186207990Y-150795582D01*
X186144755Y-150600968D01*
X186051859Y-150418650D01*
X186019474Y-150374077D01*
X186019474Y-150374076D01*
X185340000Y-151053553D01*
X185340000Y-151047339D01*
X185312741Y-150945606D01*
X185260080Y-150854394D01*
X185185606Y-150779920D01*
X185094394Y-150727259D01*
X184992661Y-150700000D01*
X184986446Y-150700000D01*
X185665922Y-150020524D01*
X185665921Y-150020523D01*
X185621359Y-149988147D01*
X185621350Y-149988141D01*
X185439031Y-149895244D01*
X185244417Y-149832009D01*
X185042317Y-149800000D01*
X184837683Y-149800000D01*
X184635582Y-149832009D01*
X184440968Y-149895244D01*
X184258644Y-149988143D01*
X184214077Y-150020523D01*
X184214077Y-150020524D01*
X184893554Y-150700000D01*
X184887339Y-150700000D01*
X184785606Y-150727259D01*
X184694394Y-150779920D01*
X184619920Y-150854394D01*
X184567259Y-150945606D01*
X184540000Y-151047339D01*
X184540000Y-151053553D01*
X183860524Y-150374077D01*
X183860523Y-150374077D01*
X183828143Y-150418644D01*
X183735244Y-150600968D01*
X183672010Y-150795581D01*
X183642124Y-150984269D01*
X183612194Y-151047403D01*
X183552883Y-151084334D01*
X183483020Y-151083336D01*
X183424788Y-151044726D01*
X183398034Y-150989061D01*
X183388409Y-150940674D01*
X183362051Y-150808165D01*
X183351234Y-150782051D01*
X183286635Y-150626092D01*
X183286628Y-150626079D01*
X183177139Y-150462218D01*
X183177136Y-150462214D01*
X183037785Y-150322863D01*
X183037781Y-150322860D01*
X182873920Y-150213371D01*
X182873907Y-150213364D01*
X182799016Y-150182344D01*
X182691839Y-150137950D01*
X182691829Y-150137947D01*
X182498543Y-150099500D01*
X182498541Y-150099500D01*
X182301459Y-150099500D01*
X182301457Y-150099500D01*
X182108170Y-150137947D01*
X182108160Y-150137950D01*
X181926092Y-150213364D01*
X181926079Y-150213371D01*
X181762218Y-150322860D01*
X181762214Y-150322863D01*
X181622863Y-150462214D01*
X181622860Y-150462218D01*
X181513371Y-150626079D01*
X181513364Y-150626092D01*
X181437950Y-150808160D01*
X181437947Y-150808170D01*
X181399851Y-150999692D01*
X181367466Y-151061603D01*
X181306750Y-151096177D01*
X181278234Y-151099500D01*
X180981766Y-151099500D01*
X180914727Y-151079815D01*
X180868972Y-151027011D01*
X180860149Y-150999692D01*
X180822052Y-150808170D01*
X180822051Y-150808169D01*
X180822051Y-150808165D01*
X180811234Y-150782051D01*
X180746635Y-150626092D01*
X180746628Y-150626079D01*
X180637139Y-150462218D01*
X180637136Y-150462214D01*
X180497785Y-150322863D01*
X180497781Y-150322860D01*
X180333920Y-150213371D01*
X180333907Y-150213364D01*
X180151839Y-150137950D01*
X180151829Y-150137947D01*
X179958543Y-150099500D01*
X179958541Y-150099500D01*
X179761459Y-150099500D01*
X179761457Y-150099500D01*
X179568170Y-150137947D01*
X179568160Y-150137950D01*
X179386092Y-150213364D01*
X179386079Y-150213371D01*
X179222218Y-150322860D01*
X179222214Y-150322863D01*
X179082863Y-150462214D01*
X179082860Y-150462218D01*
X178973371Y-150626079D01*
X178973364Y-150626092D01*
X178897950Y-150808160D01*
X178897947Y-150808170D01*
X178859851Y-150999692D01*
X178827466Y-151061603D01*
X178766750Y-151096177D01*
X178738234Y-151099500D01*
X178441766Y-151099500D01*
X178374727Y-151079815D01*
X178328972Y-151027011D01*
X178320149Y-150999692D01*
X178282052Y-150808170D01*
X178282051Y-150808169D01*
X178282051Y-150808165D01*
X178271234Y-150782051D01*
X178206635Y-150626092D01*
X178206628Y-150626079D01*
X178097139Y-150462218D01*
X178097136Y-150462214D01*
X177957785Y-150322863D01*
X177957781Y-150322860D01*
X177793920Y-150213371D01*
X177793907Y-150213364D01*
X177611839Y-150137950D01*
X177611829Y-150137947D01*
X177418543Y-150099500D01*
X177418541Y-150099500D01*
X177221459Y-150099500D01*
X177221457Y-150099500D01*
X177028170Y-150137947D01*
X177028160Y-150137950D01*
X176846092Y-150213364D01*
X176846079Y-150213371D01*
X176682218Y-150322860D01*
X176682214Y-150322863D01*
X176542863Y-150462214D01*
X176542860Y-150462218D01*
X176433371Y-150626079D01*
X176433364Y-150626092D01*
X176357950Y-150808160D01*
X176357947Y-150808170D01*
X176319851Y-150999692D01*
X176287466Y-151061603D01*
X176226750Y-151096177D01*
X176198234Y-151099500D01*
X175904500Y-151099500D01*
X175837461Y-151079815D01*
X175791706Y-151027011D01*
X175780500Y-150975500D01*
X175780500Y-150280249D01*
X175780499Y-150280247D01*
X175768868Y-150221770D01*
X175768867Y-150221769D01*
X175724552Y-150155447D01*
X175658230Y-150111132D01*
X175658229Y-150111131D01*
X175599752Y-150099500D01*
X175599748Y-150099500D01*
X173960252Y-150099500D01*
X173960247Y-150099500D01*
X173901770Y-150111131D01*
X173901769Y-150111132D01*
X173835447Y-150155447D01*
X173791132Y-150221769D01*
X173791131Y-150221770D01*
X173779500Y-150280247D01*
X173779500Y-150975500D01*
X173759815Y-151042539D01*
X173707011Y-151088294D01*
X173655500Y-151099500D01*
X172364500Y-151099500D01*
X172355814Y-151096949D01*
X172346853Y-151098238D01*
X172322812Y-151087259D01*
X172297461Y-151079815D01*
X172291533Y-151072974D01*
X172283297Y-151069213D01*
X172269007Y-151046978D01*
X172251706Y-151027011D01*
X172249418Y-151016496D01*
X172245523Y-151010435D01*
X172240500Y-150975500D01*
X172240500Y-150961765D01*
X172260185Y-150894726D01*
X172312989Y-150848971D01*
X172340306Y-150840148D01*
X172531835Y-150802051D01*
X172672655Y-150743721D01*
X172713907Y-150726635D01*
X172713907Y-150726634D01*
X172713914Y-150726632D01*
X172877782Y-150617139D01*
X173017139Y-150477782D01*
X173126632Y-150313914D01*
X173202051Y-150131835D01*
X173214632Y-150068582D01*
X173240500Y-149938543D01*
X173240500Y-149741456D01*
X173202052Y-149548170D01*
X173202051Y-149548169D01*
X173202051Y-149548165D01*
X173193765Y-149528160D01*
X173126635Y-149366092D01*
X173126628Y-149366079D01*
X173017139Y-149202218D01*
X173017136Y-149202214D01*
X172877785Y-149062863D01*
X172877781Y-149062860D01*
X172713920Y-148953371D01*
X172713907Y-148953364D01*
X172531839Y-148877950D01*
X172531829Y-148877947D01*
X172340308Y-148839851D01*
X172278397Y-148807466D01*
X172243823Y-148746750D01*
X172240500Y-148718234D01*
X172240500Y-148421765D01*
X172260185Y-148354726D01*
X172312989Y-148308971D01*
X172340306Y-148300148D01*
X172531835Y-148262051D01*
X172713914Y-148186632D01*
X172877782Y-148077139D01*
X173017139Y-147937782D01*
X173126632Y-147773914D01*
X173202051Y-147591835D01*
X173240500Y-147398541D01*
X173240500Y-147201459D01*
X173240500Y-147201456D01*
X173202052Y-147008170D01*
X173202051Y-147008169D01*
X173202051Y-147008165D01*
X173189472Y-146977796D01*
X173126635Y-146826092D01*
X173126628Y-146826079D01*
X173017139Y-146662218D01*
X173017136Y-146662214D01*
X172877785Y-146522863D01*
X172877781Y-146522860D01*
X172713920Y-146413371D01*
X172713907Y-146413364D01*
X172531839Y-146337950D01*
X172531829Y-146337947D01*
X172340308Y-146299851D01*
X172278397Y-146267466D01*
X172243823Y-146206750D01*
X172240500Y-146178234D01*
X172240500Y-145881765D01*
X172260185Y-145814726D01*
X172312989Y-145768971D01*
X172340306Y-145760148D01*
X172531835Y-145722051D01*
X172713914Y-145646632D01*
X172877782Y-145537139D01*
X173017139Y-145397782D01*
X173126632Y-145233914D01*
X173202051Y-145051835D01*
X173235061Y-144885884D01*
X173240500Y-144858543D01*
X173240500Y-144661456D01*
X173202052Y-144468170D01*
X173202051Y-144468169D01*
X173202051Y-144468165D01*
X173156962Y-144359309D01*
X173126635Y-144286092D01*
X173126628Y-144286079D01*
X173017139Y-144122218D01*
X173017136Y-144122214D01*
X172877785Y-143982863D01*
X172877781Y-143982860D01*
X172713920Y-143873371D01*
X172713907Y-143873364D01*
X172531839Y-143797950D01*
X172531829Y-143797947D01*
X172340308Y-143759851D01*
X172278397Y-143727466D01*
X172243823Y-143666750D01*
X172240500Y-143638234D01*
X172240500Y-143341765D01*
X172260185Y-143274726D01*
X172312989Y-143228971D01*
X172340306Y-143220148D01*
X172531835Y-143182051D01*
X172713914Y-143106632D01*
X172877782Y-142997139D01*
X173017139Y-142857782D01*
X173126632Y-142693914D01*
X173202051Y-142511835D01*
X173214632Y-142448582D01*
X173240500Y-142318543D01*
X173240500Y-142121456D01*
X173202052Y-141928170D01*
X173202051Y-141928169D01*
X173202051Y-141928165D01*
X173148641Y-141799222D01*
X173141173Y-141729757D01*
X173172448Y-141667277D01*
X173175490Y-141664124D01*
X173633558Y-141206058D01*
X173633558Y-141206056D01*
X173633560Y-141206055D01*
X173666408Y-141126750D01*
X173675500Y-141104800D01*
X173675500Y-140995200D01*
X173675500Y-139265477D01*
X173695185Y-139198438D01*
X173711819Y-139177796D01*
X174384554Y-138505062D01*
X174384554Y-138505061D01*
X174384557Y-138505059D01*
X174396841Y-138475400D01*
X174426500Y-138403800D01*
X174426500Y-132541018D01*
X174446185Y-132473979D01*
X174498989Y-132428224D01*
X174518408Y-132421243D01*
X174523800Y-132419799D01*
X174626527Y-132360489D01*
X174710403Y-132276613D01*
X174769713Y-132173886D01*
X174800414Y-132059309D01*
X174800414Y-131940691D01*
X174769713Y-131826114D01*
X174710403Y-131723387D01*
X174637740Y-131650724D01*
X174604255Y-131589401D01*
X174609239Y-131519709D01*
X174632380Y-131483702D01*
X174631542Y-131483059D01*
X174636481Y-131476620D01*
X174636489Y-131476613D01*
X174695799Y-131373886D01*
X174726500Y-131259309D01*
X174726500Y-131140691D01*
X174695799Y-131026114D01*
X174636489Y-130923387D01*
X174552613Y-130839511D01*
X174449886Y-130780201D01*
X174335309Y-130749500D01*
X174216691Y-130749500D01*
X174102114Y-130780201D01*
X174102112Y-130780201D01*
X174102112Y-130780202D01*
X173999387Y-130839511D01*
X173999384Y-130839513D01*
X173915513Y-130923384D01*
X173915511Y-130923387D01*
X173856201Y-131026114D01*
X173825500Y-131140691D01*
X173825500Y-131140693D01*
X173825500Y-131262124D01*
X173816856Y-131291560D01*
X173810333Y-131321550D01*
X173806577Y-131326567D01*
X173805815Y-131329163D01*
X173789182Y-131349805D01*
X173643942Y-131495047D01*
X173566443Y-131572546D01*
X173524500Y-131673803D01*
X173524500Y-137944522D01*
X173504815Y-138011561D01*
X173488181Y-138032203D01*
X172781765Y-138738618D01*
X172720442Y-138772103D01*
X172650750Y-138767119D01*
X172646632Y-138765498D01*
X172531839Y-138717950D01*
X172531829Y-138717947D01*
X172340308Y-138679851D01*
X172278397Y-138647466D01*
X172243823Y-138586750D01*
X172240500Y-138558234D01*
X172240500Y-138261765D01*
X172260185Y-138194726D01*
X172312989Y-138148971D01*
X172340306Y-138140148D01*
X172531835Y-138102051D01*
X172713914Y-138026632D01*
X172877782Y-137917139D01*
X173017139Y-137777782D01*
X173126632Y-137613914D01*
X173202051Y-137431835D01*
X173217693Y-137353197D01*
X173240500Y-137238543D01*
X173240500Y-137041456D01*
X173202052Y-136848170D01*
X173202051Y-136848169D01*
X173202051Y-136848165D01*
X173157534Y-136740691D01*
X173126635Y-136666092D01*
X173126628Y-136666079D01*
X173017139Y-136502218D01*
X173017136Y-136502214D01*
X172877785Y-136362863D01*
X172877781Y-136362860D01*
X172713920Y-136253371D01*
X172713907Y-136253364D01*
X172531839Y-136177950D01*
X172531829Y-136177947D01*
X172340308Y-136139851D01*
X172278397Y-136107466D01*
X172243823Y-136046750D01*
X172240500Y-136018234D01*
X172240500Y-135721765D01*
X172260185Y-135654726D01*
X172312989Y-135608971D01*
X172340306Y-135600148D01*
X172531835Y-135562051D01*
X172713914Y-135486632D01*
X172877782Y-135377139D01*
X173017139Y-135237782D01*
X173126632Y-135073914D01*
X173202051Y-134891835D01*
X173228178Y-134760489D01*
X173240500Y-134698543D01*
X173240500Y-134501456D01*
X173202052Y-134308170D01*
X173202051Y-134308169D01*
X173202051Y-134308165D01*
X173168064Y-134226112D01*
X173126635Y-134126092D01*
X173126628Y-134126079D01*
X173017139Y-133962218D01*
X173017136Y-133962214D01*
X172877785Y-133822863D01*
X172877781Y-133822860D01*
X172713920Y-133713371D01*
X172713907Y-133713364D01*
X172531839Y-133637950D01*
X172531829Y-133637947D01*
X172340308Y-133599851D01*
X172278397Y-133567466D01*
X172243823Y-133506750D01*
X172240500Y-133478234D01*
X172240500Y-133181765D01*
X172260185Y-133114726D01*
X172312989Y-133068971D01*
X172340306Y-133060148D01*
X172531835Y-133022051D01*
X172713914Y-132946632D01*
X172877782Y-132837139D01*
X173017139Y-132697782D01*
X173126632Y-132533914D01*
X173202051Y-132351835D01*
X173236661Y-132177841D01*
X173240500Y-132158543D01*
X173240500Y-131961456D01*
X173202052Y-131768170D01*
X173202051Y-131768169D01*
X173202051Y-131768165D01*
X173193765Y-131748160D01*
X173126635Y-131586092D01*
X173126628Y-131586079D01*
X173017139Y-131422218D01*
X173017136Y-131422214D01*
X172877785Y-131282863D01*
X172877781Y-131282860D01*
X172713920Y-131173371D01*
X172713907Y-131173364D01*
X172531839Y-131097950D01*
X172531829Y-131097947D01*
X172340308Y-131059851D01*
X172278397Y-131027466D01*
X172243823Y-130966750D01*
X172240500Y-130938234D01*
X172240500Y-130641765D01*
X172260185Y-130574726D01*
X172312989Y-130528971D01*
X172340306Y-130520148D01*
X172531835Y-130482051D01*
X172713914Y-130406632D01*
X172877782Y-130297139D01*
X173017139Y-130157782D01*
X173126632Y-129993914D01*
X173202051Y-129811835D01*
X173228205Y-129680350D01*
X173240500Y-129618543D01*
X173240500Y-129421456D01*
X173202052Y-129228170D01*
X173202051Y-129228169D01*
X173202051Y-129228165D01*
X173178317Y-129170865D01*
X173126635Y-129046092D01*
X173126628Y-129046079D01*
X173017139Y-128882218D01*
X173017136Y-128882214D01*
X172877785Y-128742863D01*
X172877781Y-128742860D01*
X172713920Y-128633371D01*
X172713907Y-128633364D01*
X172531839Y-128557950D01*
X172531829Y-128557947D01*
X172340308Y-128519851D01*
X172278397Y-128487466D01*
X172243823Y-128426750D01*
X172240500Y-128398234D01*
X172240500Y-128101765D01*
X172260185Y-128034726D01*
X172312989Y-127988971D01*
X172340306Y-127980148D01*
X172531835Y-127942051D01*
X172713914Y-127866632D01*
X172877782Y-127757139D01*
X173017139Y-127617782D01*
X173126632Y-127453914D01*
X173202051Y-127271835D01*
X173223478Y-127164115D01*
X173240500Y-127078543D01*
X173240500Y-126881456D01*
X173202052Y-126688170D01*
X173202051Y-126688169D01*
X173202051Y-126688165D01*
X173171811Y-126615159D01*
X173126635Y-126506092D01*
X173126628Y-126506079D01*
X173017139Y-126342218D01*
X173017136Y-126342214D01*
X172877785Y-126202863D01*
X172877781Y-126202860D01*
X172713920Y-126093371D01*
X172713907Y-126093364D01*
X172531839Y-126017950D01*
X172531829Y-126017947D01*
X172340308Y-125979851D01*
X172278397Y-125947466D01*
X172243823Y-125886750D01*
X172240500Y-125858234D01*
X172240500Y-125561765D01*
X172260185Y-125494726D01*
X172312989Y-125448971D01*
X172340306Y-125440148D01*
X172531835Y-125402051D01*
X172713914Y-125326632D01*
X172877782Y-125217139D01*
X173017139Y-125077782D01*
X173126632Y-124913914D01*
X173202051Y-124731835D01*
X173218059Y-124651358D01*
X173240500Y-124538543D01*
X173240500Y-124341456D01*
X173202052Y-124148170D01*
X173202051Y-124148169D01*
X173202051Y-124148165D01*
X173183497Y-124103371D01*
X173126635Y-123966092D01*
X173126628Y-123966079D01*
X173017139Y-123802218D01*
X173017136Y-123802214D01*
X172877785Y-123662863D01*
X172877781Y-123662860D01*
X172713920Y-123553371D01*
X172713907Y-123553364D01*
X172531839Y-123477950D01*
X172531829Y-123477947D01*
X172340308Y-123439851D01*
X172278397Y-123407466D01*
X172243823Y-123346750D01*
X172240500Y-123318234D01*
X172240500Y-123021765D01*
X172260185Y-122954726D01*
X172312989Y-122908971D01*
X172340306Y-122900148D01*
X172531835Y-122862051D01*
X172713914Y-122786632D01*
X172877782Y-122677139D01*
X173017139Y-122537782D01*
X173126632Y-122373914D01*
X173202051Y-122191835D01*
X173240500Y-121998541D01*
X173240500Y-121801459D01*
X173240500Y-121801456D01*
X173202052Y-121608170D01*
X173202051Y-121608169D01*
X173202051Y-121608165D01*
X173146112Y-121473115D01*
X173126635Y-121426092D01*
X173126628Y-121426079D01*
X173017139Y-121262218D01*
X173017136Y-121262214D01*
X172877785Y-121122863D01*
X172877781Y-121122860D01*
X172713920Y-121013371D01*
X172713907Y-121013364D01*
X172531839Y-120937950D01*
X172531829Y-120937947D01*
X172340308Y-120899851D01*
X172278397Y-120867466D01*
X172243823Y-120806750D01*
X172240500Y-120778234D01*
X172240500Y-120484500D01*
X172260185Y-120417461D01*
X172312989Y-120371706D01*
X172364500Y-120360500D01*
X173059750Y-120360500D01*
X173059751Y-120360499D01*
X173074568Y-120357552D01*
X173118229Y-120348868D01*
X173118229Y-120348867D01*
X173118231Y-120348867D01*
X173184552Y-120304552D01*
X173228867Y-120238231D01*
X173228867Y-120238229D01*
X173228868Y-120238229D01*
X173240499Y-120179752D01*
X173240500Y-120179750D01*
X173240500Y-119824500D01*
X173243050Y-119815814D01*
X173241762Y-119806853D01*
X173252740Y-119782812D01*
X173260185Y-119757461D01*
X173267025Y-119751533D01*
X173270787Y-119743297D01*
X173293021Y-119729007D01*
X173312989Y-119711706D01*
X173323503Y-119709418D01*
X173329565Y-119705523D01*
X173364500Y-119700500D01*
X173375500Y-119700500D01*
X173442539Y-119720185D01*
X173488294Y-119772989D01*
X173499500Y-119824500D01*
X173499500Y-128701727D01*
X173526793Y-128803587D01*
X173579520Y-128894913D01*
X173654087Y-128969480D01*
X173661242Y-128973611D01*
X173686925Y-128993318D01*
X175563181Y-130869574D01*
X175596666Y-130930897D01*
X175599500Y-130957255D01*
X175599500Y-139434460D01*
X175582887Y-139496460D01*
X175533609Y-139581810D01*
X175533609Y-139581811D01*
X175533608Y-139581813D01*
X175533608Y-139581814D01*
X175499500Y-139709108D01*
X175499500Y-139840892D01*
X175516381Y-139903895D01*
X175533608Y-139968187D01*
X175539156Y-139977796D01*
X175599500Y-140082314D01*
X175692686Y-140175500D01*
X175699653Y-140179522D01*
X175725336Y-140199229D01*
X175854418Y-140328311D01*
X175887903Y-140389634D01*
X175882919Y-140459326D01*
X175841047Y-140515259D01*
X175814186Y-140530555D01*
X175806812Y-140533609D01*
X175692686Y-140599500D01*
X175692683Y-140599502D01*
X175599502Y-140692683D01*
X175599500Y-140692686D01*
X175533608Y-140806812D01*
X175499500Y-140934108D01*
X175499500Y-141065891D01*
X175533608Y-141193188D01*
X175542886Y-141209256D01*
X175559500Y-141271258D01*
X175559500Y-147459461D01*
X175542889Y-147521458D01*
X175540202Y-147526111D01*
X175540201Y-147526112D01*
X175527952Y-147571829D01*
X175509500Y-147640691D01*
X175509500Y-147759309D01*
X175540201Y-147873886D01*
X175599511Y-147976613D01*
X175683387Y-148060489D01*
X175786114Y-148119799D01*
X175900691Y-148150500D01*
X175900694Y-148150500D01*
X175969522Y-148150500D01*
X176036561Y-148170185D01*
X176057203Y-148186819D01*
X176403938Y-148533555D01*
X176403939Y-148533555D01*
X176403941Y-148533557D01*
X176415661Y-148538411D01*
X176418318Y-148539512D01*
X176505197Y-148575499D01*
X176505198Y-148575499D01*
X176505200Y-148575500D01*
X181185500Y-148575500D01*
X181252539Y-148595185D01*
X181298294Y-148647989D01*
X181309500Y-148699500D01*
X181309500Y-148709311D01*
X181340201Y-148823888D01*
X181399511Y-148926615D01*
X181483387Y-149010491D01*
X181586114Y-149069801D01*
X181700691Y-149100502D01*
X181700694Y-149100502D01*
X181819306Y-149100502D01*
X181819309Y-149100502D01*
X181933886Y-149069801D01*
X182036613Y-149010491D01*
X182120489Y-148926615D01*
X182179799Y-148823888D01*
X182210500Y-148709311D01*
X182210500Y-148590693D01*
X182179799Y-148476116D01*
X182120489Y-148373389D01*
X182036613Y-148289513D01*
X181933886Y-148230203D01*
X181819309Y-148199502D01*
X181700691Y-148199502D01*
X181700480Y-148199502D01*
X181676219Y-148192378D01*
X181651123Y-148189256D01*
X181640139Y-148181783D01*
X181633441Y-148179817D01*
X181621074Y-148170742D01*
X181616765Y-148167150D01*
X181516058Y-148066443D01*
X181493596Y-148057139D01*
X181476147Y-148049911D01*
X181414802Y-148024500D01*
X181414800Y-148024500D01*
X176725478Y-148024500D01*
X176658439Y-148004815D01*
X176637797Y-147988181D01*
X176446819Y-147797203D01*
X176413334Y-147735880D01*
X176410500Y-147709522D01*
X176410500Y-147640693D01*
X176410500Y-147640691D01*
X176379799Y-147526114D01*
X176377111Y-147521458D01*
X176360500Y-147459461D01*
X176360500Y-141398676D01*
X176360865Y-141397431D01*
X176360525Y-141396180D01*
X176370686Y-141363985D01*
X176380185Y-141331637D01*
X176381164Y-141330788D01*
X176381555Y-141329550D01*
X176396819Y-141310995D01*
X176400500Y-141307314D01*
X176415679Y-141281022D01*
X176466246Y-141232808D01*
X176534853Y-141219584D01*
X176599718Y-141245552D01*
X176630452Y-141281020D01*
X176657887Y-141328540D01*
X176674500Y-141390539D01*
X176674500Y-143467726D01*
X176701793Y-143569589D01*
X176728156Y-143615250D01*
X176754520Y-143660913D01*
X178639518Y-145545910D01*
X178639520Y-145545913D01*
X178714087Y-145620480D01*
X178724743Y-145626632D01*
X178805413Y-145673207D01*
X178907273Y-145700501D01*
X178907275Y-145700501D01*
X179020323Y-145700501D01*
X179020339Y-145700500D01*
X183019462Y-145700500D01*
X183081463Y-145717114D01*
X183086109Y-145719796D01*
X183086110Y-145719797D01*
X183086114Y-145719799D01*
X183200691Y-145750500D01*
X183200694Y-145750500D01*
X183319306Y-145750500D01*
X183319309Y-145750500D01*
X183433886Y-145719799D01*
X183536613Y-145660489D01*
X183620489Y-145576613D01*
X183679799Y-145473886D01*
X183710500Y-145359309D01*
X183710500Y-145290476D01*
X183730185Y-145223437D01*
X183746819Y-145202795D01*
X184004415Y-144945200D01*
X184293557Y-144656058D01*
X184335500Y-144554800D01*
X184335500Y-144445200D01*
X184335500Y-141590476D01*
X184355185Y-141523437D01*
X184371815Y-141502799D01*
X184587795Y-141286818D01*
X184610947Y-141274176D01*
X184632062Y-141258348D01*
X184643832Y-141256220D01*
X184649118Y-141253334D01*
X184666544Y-141250822D01*
X184674695Y-141250233D01*
X184675691Y-141250500D01*
X184794309Y-141250500D01*
X184839804Y-141238309D01*
X184851568Y-141237460D01*
X184874646Y-141242463D01*
X184898256Y-141243026D01*
X184908162Y-141249730D01*
X184919851Y-141252265D01*
X184936559Y-141268949D01*
X184956119Y-141282188D01*
X184960828Y-141293184D01*
X184969291Y-141301636D01*
X184974326Y-141324707D01*
X184983623Y-141346417D01*
X184984500Y-141361138D01*
X184984500Y-144834522D01*
X184964815Y-144901561D01*
X184948181Y-144922203D01*
X183203942Y-146666443D01*
X183126444Y-146743940D01*
X183084500Y-146845199D01*
X183084500Y-148487036D01*
X183064815Y-148554075D01*
X183048181Y-148574717D01*
X182999513Y-148623384D01*
X182999511Y-148623387D01*
X182944751Y-148718234D01*
X182940201Y-148726114D01*
X182909500Y-148840691D01*
X182909500Y-148959309D01*
X182940201Y-149073886D01*
X182999511Y-149176613D01*
X183083387Y-149260489D01*
X183186114Y-149319799D01*
X183300691Y-149350500D01*
X183300694Y-149350500D01*
X183419306Y-149350500D01*
X183419309Y-149350500D01*
X183533886Y-149319799D01*
X183636613Y-149260489D01*
X183720489Y-149176613D01*
X183779799Y-149073886D01*
X183810500Y-148959309D01*
X183810500Y-148840691D01*
X183779799Y-148726114D01*
X183720489Y-148623387D01*
X183671819Y-148574717D01*
X183638334Y-148513394D01*
X183635500Y-148487036D01*
X183635500Y-147065477D01*
X183655185Y-146998438D01*
X183671819Y-146977796D01*
X184491381Y-146158234D01*
X185493558Y-145156058D01*
X185493558Y-145156056D01*
X185493560Y-145156055D01*
X185514529Y-145105429D01*
X185535500Y-145054800D01*
X185535500Y-144945200D01*
X185535500Y-140065477D01*
X185555185Y-139998438D01*
X185571819Y-139977796D01*
X186284138Y-139265477D01*
X187093558Y-138456058D01*
X187093558Y-138456056D01*
X187093560Y-138456055D01*
X187120299Y-138391498D01*
X187135500Y-138354800D01*
X187135500Y-138245200D01*
X187135500Y-129245200D01*
X187093557Y-129143942D01*
X187016058Y-129066443D01*
X183916058Y-125966443D01*
X183899296Y-125959500D01*
X183814800Y-125924500D01*
X179825477Y-125924500D01*
X179758438Y-125904815D01*
X179737796Y-125888181D01*
X178871819Y-125022204D01*
X178838334Y-124960881D01*
X178835500Y-124934523D01*
X178835500Y-120345201D01*
X178835499Y-120345197D01*
X178801994Y-120264310D01*
X178793557Y-120243942D01*
X178793557Y-120243941D01*
X176886819Y-118337203D01*
X176853334Y-118275880D01*
X176850500Y-118249522D01*
X176850500Y-118190693D01*
X176850500Y-118190691D01*
X176819799Y-118076114D01*
X176760489Y-117973387D01*
X176676613Y-117889511D01*
X176573886Y-117830201D01*
X176459309Y-117799500D01*
X176340691Y-117799500D01*
X176226114Y-117830201D01*
X176226112Y-117830201D01*
X176226112Y-117830202D01*
X176123387Y-117889511D01*
X176123384Y-117889513D01*
X176039513Y-117973384D01*
X176039511Y-117973387D01*
X175980201Y-118076114D01*
X175949500Y-118190691D01*
X175949500Y-118309309D01*
X175980201Y-118423886D01*
X176039511Y-118526613D01*
X176123387Y-118610489D01*
X176226114Y-118669799D01*
X176340691Y-118700500D01*
X176420812Y-118700500D01*
X176422075Y-118700526D01*
X176454222Y-118710688D01*
X176486562Y-118720185D01*
X176488047Y-118721382D01*
X176488695Y-118721587D01*
X176489492Y-118722546D01*
X176507204Y-118736819D01*
X178248181Y-120477796D01*
X178281666Y-120539119D01*
X178284500Y-120565477D01*
X178284500Y-120745522D01*
X178264815Y-120812561D01*
X178212011Y-120858316D01*
X178142853Y-120868260D01*
X178079297Y-120839235D01*
X178072819Y-120833203D01*
X176133890Y-118894275D01*
X176106058Y-118866443D01*
X176076228Y-118854087D01*
X176004800Y-118824500D01*
X176002217Y-118824500D01*
X174972964Y-118824500D01*
X174905925Y-118804815D01*
X174885283Y-118788181D01*
X174836615Y-118739513D01*
X174836613Y-118739511D01*
X174733886Y-118680201D01*
X174619309Y-118649500D01*
X174500691Y-118649500D01*
X174456593Y-118661316D01*
X174386743Y-118659653D01*
X174328881Y-118620490D01*
X174301377Y-118556261D01*
X174300500Y-118541541D01*
X174300500Y-118040539D01*
X174317112Y-117978540D01*
X174366392Y-117893186D01*
X174400500Y-117765892D01*
X174400500Y-117634108D01*
X174366392Y-117506814D01*
X174300500Y-117392686D01*
X174207314Y-117299500D01*
X174150250Y-117266554D01*
X174093187Y-117233608D01*
X174029539Y-117216554D01*
X173965892Y-117199500D01*
X173834108Y-117199500D01*
X173706812Y-117233608D01*
X173592686Y-117299500D01*
X173592683Y-117299502D01*
X173499502Y-117392683D01*
X173499500Y-117392686D01*
X173433608Y-117506812D01*
X173399500Y-117634108D01*
X173399500Y-117765892D01*
X173433608Y-117893186D01*
X173482887Y-117978540D01*
X173499500Y-118040539D01*
X173499500Y-118775500D01*
X173496949Y-118784185D01*
X173498238Y-118793147D01*
X173487259Y-118817187D01*
X173479815Y-118842539D01*
X173472974Y-118848466D01*
X173469213Y-118856703D01*
X173446978Y-118870992D01*
X173427011Y-118888294D01*
X173416496Y-118890581D01*
X173410435Y-118894477D01*
X173375500Y-118899500D01*
X173364500Y-118899500D01*
X173297461Y-118879815D01*
X173251706Y-118827011D01*
X173240500Y-118775500D01*
X173240500Y-118540249D01*
X173240499Y-118540247D01*
X173228868Y-118481770D01*
X173228867Y-118481769D01*
X173184552Y-118415447D01*
X173118230Y-118371132D01*
X173118229Y-118371131D01*
X173059752Y-118359500D01*
X173059748Y-118359500D01*
X172364500Y-118359500D01*
X172297461Y-118339815D01*
X172251706Y-118287011D01*
X172240500Y-118235500D01*
X172240500Y-115694000D01*
X172260185Y-115626961D01*
X172312989Y-115581206D01*
X172364500Y-115570000D01*
X173087828Y-115570000D01*
X173087844Y-115569999D01*
X173147372Y-115563598D01*
X173147379Y-115563596D01*
X173282086Y-115513354D01*
X173282093Y-115513350D01*
X173397187Y-115427190D01*
X173397190Y-115427187D01*
X173483350Y-115312093D01*
X173483354Y-115312086D01*
X173533596Y-115177379D01*
X173533598Y-115177372D01*
X173539999Y-115117844D01*
X173540000Y-115117827D01*
X173540000Y-114520000D01*
X172555686Y-114520000D01*
X172560080Y-114515606D01*
X172612741Y-114424394D01*
X172640000Y-114322661D01*
X172640000Y-114217339D01*
X172612741Y-114115606D01*
X172560080Y-114024394D01*
X172555686Y-114020000D01*
X173540000Y-114020000D01*
X173540000Y-113422172D01*
X173539999Y-113422155D01*
X173533598Y-113362627D01*
X173533596Y-113362620D01*
X173483354Y-113227913D01*
X173483352Y-113227910D01*
X173461569Y-113198812D01*
X173437151Y-113133348D01*
X173452002Y-113065075D01*
X173501406Y-113015669D01*
X173560835Y-113000500D01*
X192435500Y-113000500D01*
X192502539Y-113020185D01*
G37*
%TD.AperFunction*%
%TA.AperFunction,Conductor*%
G36*
X183246664Y-131915175D02*
G01*
X183293356Y-131967153D01*
X183305500Y-132020672D01*
X183305500Y-133035800D01*
X183319240Y-133068971D01*
X183321654Y-133074797D01*
X183321655Y-133074800D01*
X183347443Y-133137058D01*
X184473181Y-134262796D01*
X184487884Y-134289723D01*
X184504477Y-134315542D01*
X184505368Y-134321742D01*
X184506666Y-134324119D01*
X184509500Y-134350477D01*
X184509500Y-134387036D01*
X184489815Y-134454075D01*
X184473181Y-134474717D01*
X184459717Y-134488181D01*
X184398394Y-134521666D01*
X184372036Y-134524500D01*
X182954800Y-134524500D01*
X182845200Y-134524500D01*
X182845198Y-134524500D01*
X182845196Y-134524501D01*
X182743944Y-134566439D01*
X182743942Y-134566441D01*
X182322204Y-134988181D01*
X182260881Y-135021666D01*
X182234523Y-135024500D01*
X181197964Y-135024500D01*
X181168523Y-135015855D01*
X181138537Y-135009332D01*
X181133521Y-135005577D01*
X181130925Y-135004815D01*
X181110283Y-134988181D01*
X181059783Y-134937681D01*
X181026298Y-134876358D01*
X181031282Y-134806666D01*
X181059783Y-134762319D01*
X181081411Y-134740691D01*
X181145489Y-134676613D01*
X181204799Y-134573886D01*
X181235500Y-134459309D01*
X181235500Y-134340691D01*
X181232564Y-134329734D01*
X181234223Y-134259887D01*
X181264654Y-134209959D01*
X182222557Y-133252059D01*
X182238091Y-133214557D01*
X182264500Y-133150800D01*
X182264500Y-132020672D01*
X182284185Y-131953633D01*
X182336989Y-131907878D01*
X182406147Y-131897934D01*
X182449588Y-131914580D01*
X182450182Y-131913471D01*
X182455563Y-131916347D01*
X182578221Y-131967153D01*
X182582130Y-131968772D01*
X182582134Y-131968772D01*
X182582135Y-131968773D01*
X182716496Y-131995500D01*
X182716499Y-131995500D01*
X182853503Y-131995500D01*
X182960627Y-131974191D01*
X182987870Y-131968772D01*
X183114443Y-131916344D01*
X183114448Y-131916340D01*
X183119818Y-131913471D01*
X183120661Y-131915048D01*
X183179284Y-131896692D01*
X183246664Y-131915175D01*
G37*
%TD.AperFunction*%
%TA.AperFunction,Conductor*%
G36*
X175851562Y-119395185D02*
G01*
X175872204Y-119411819D01*
X176925266Y-120464882D01*
X176958751Y-120526205D01*
X176953767Y-120595897D01*
X176911895Y-120651830D01*
X176899588Y-120659949D01*
X176848387Y-120689511D01*
X176848384Y-120689513D01*
X176764513Y-120773384D01*
X176764511Y-120773387D01*
X176709736Y-120868260D01*
X176705201Y-120876114D01*
X176674500Y-120990691D01*
X176674500Y-121109309D01*
X176705201Y-121223886D01*
X176764511Y-121326613D01*
X176848387Y-121410489D01*
X176951114Y-121469799D01*
X177065691Y-121500500D01*
X177119523Y-121500500D01*
X177186562Y-121520185D01*
X177207204Y-121536819D01*
X177546181Y-121875796D01*
X177579666Y-121937119D01*
X177582500Y-121963477D01*
X177582500Y-128945575D01*
X177582501Y-128945580D01*
X177607068Y-129004892D01*
X177607069Y-129004892D01*
X177607069Y-129004893D01*
X177624443Y-129046836D01*
X177838182Y-129260574D01*
X177871666Y-129321895D01*
X177874500Y-129348254D01*
X177874500Y-136316324D01*
X177854815Y-136383363D01*
X177838181Y-136404005D01*
X177749502Y-136492683D01*
X177749500Y-136492686D01*
X177683608Y-136606812D01*
X177649500Y-136734108D01*
X177649500Y-136865891D01*
X177683608Y-136993187D01*
X177715963Y-137049226D01*
X177749500Y-137107314D01*
X177842686Y-137200500D01*
X177956814Y-137266392D01*
X178084108Y-137300500D01*
X178084110Y-137300500D01*
X178215890Y-137300500D01*
X178215892Y-137300500D01*
X178343186Y-137266392D01*
X178457314Y-137200500D01*
X178550500Y-137107314D01*
X178616392Y-136993186D01*
X178650500Y-136865892D01*
X178650500Y-136734108D01*
X178616392Y-136606814D01*
X178609935Y-136595631D01*
X178577732Y-136539853D01*
X178577731Y-136539852D01*
X178550500Y-136492686D01*
X178458436Y-136400622D01*
X178455337Y-136397005D01*
X178442878Y-136369317D01*
X178428334Y-136342682D01*
X178427530Y-136335210D01*
X178426666Y-136333289D01*
X178427048Y-136330728D01*
X178425500Y-136316324D01*
X178425500Y-132553197D01*
X179405000Y-132553197D01*
X179405000Y-132746802D01*
X179435286Y-132938022D01*
X179495116Y-133122158D01*
X179583011Y-133294662D01*
X179605638Y-133325806D01*
X179605639Y-133325806D01*
X180135707Y-132795738D01*
X180150437Y-132850712D01*
X180218896Y-132969287D01*
X180315713Y-133066104D01*
X180434288Y-133134563D01*
X180489259Y-133149292D01*
X179959192Y-133679358D01*
X179959192Y-133679359D01*
X179990343Y-133701991D01*
X180162841Y-133789883D01*
X180346977Y-133849713D01*
X180346978Y-133849714D01*
X180409796Y-133859663D01*
X180472931Y-133889592D01*
X180509863Y-133948903D01*
X180508865Y-134018766D01*
X180478081Y-134069817D01*
X180424511Y-134123387D01*
X180365201Y-134226114D01*
X180334500Y-134340691D01*
X180334500Y-134459309D01*
X180365201Y-134573886D01*
X180424511Y-134676613D01*
X180424513Y-134676615D01*
X180510217Y-134762319D01*
X180543702Y-134823642D01*
X180538718Y-134893334D01*
X180510217Y-134937681D01*
X180424513Y-135023384D01*
X180424511Y-135023387D01*
X180373166Y-135112319D01*
X180365201Y-135126114D01*
X180334500Y-135240691D01*
X180334500Y-135359309D01*
X180365201Y-135473886D01*
X180424511Y-135576613D01*
X180508387Y-135660489D01*
X180611114Y-135719799D01*
X180725691Y-135750500D01*
X180725694Y-135750500D01*
X180844306Y-135750500D01*
X180844309Y-135750500D01*
X180958886Y-135719799D01*
X181061613Y-135660489D01*
X181110283Y-135611819D01*
X181171606Y-135578334D01*
X181197964Y-135575500D01*
X182454799Y-135575500D01*
X182454800Y-135575500D01*
X182556058Y-135533557D01*
X182633557Y-135456058D01*
X182633556Y-135456058D01*
X182977798Y-135111817D01*
X183039121Y-135078334D01*
X183065478Y-135075500D01*
X184372036Y-135075500D01*
X184401476Y-135084144D01*
X184431463Y-135090668D01*
X184436478Y-135094422D01*
X184439075Y-135095185D01*
X184459716Y-135111818D01*
X184460217Y-135112319D01*
X184493702Y-135173642D01*
X184488718Y-135243334D01*
X184460217Y-135287681D01*
X184424513Y-135323384D01*
X184424511Y-135323387D01*
X184381723Y-135397498D01*
X184365201Y-135426114D01*
X184334500Y-135540691D01*
X184334500Y-135659309D01*
X184365201Y-135773886D01*
X184424511Y-135876613D01*
X184508387Y-135960489D01*
X184611114Y-136019799D01*
X184615180Y-136020888D01*
X184618225Y-136022744D01*
X184618618Y-136022907D01*
X184618592Y-136022968D01*
X184674839Y-136057250D01*
X184705370Y-136120096D01*
X184697078Y-136189472D01*
X184652594Y-136243351D01*
X184621407Y-136258594D01*
X184462839Y-136310116D01*
X184290337Y-136398011D01*
X184259192Y-136420639D01*
X184259191Y-136420639D01*
X184789260Y-136950707D01*
X184734288Y-136965437D01*
X184615713Y-137033896D01*
X184518896Y-137130713D01*
X184450437Y-137249288D01*
X184435707Y-137304260D01*
X183905639Y-136774191D01*
X183905639Y-136774192D01*
X183883011Y-136805337D01*
X183795116Y-136977841D01*
X183735286Y-137161977D01*
X183705000Y-137353197D01*
X183705000Y-137546802D01*
X183735286Y-137738022D01*
X183795116Y-137922158D01*
X183883011Y-138094662D01*
X183905638Y-138125806D01*
X183905639Y-138125806D01*
X184435707Y-137595738D01*
X184450437Y-137650712D01*
X184518896Y-137769287D01*
X184615713Y-137866104D01*
X184734288Y-137934563D01*
X184789259Y-137949292D01*
X184259192Y-138479358D01*
X184259192Y-138479359D01*
X184290343Y-138501991D01*
X184462841Y-138589883D01*
X184646977Y-138649713D01*
X184838198Y-138680000D01*
X185031802Y-138680000D01*
X185223022Y-138649713D01*
X185407158Y-138589883D01*
X185579652Y-138501993D01*
X185579665Y-138501985D01*
X185610806Y-138479360D01*
X185610807Y-138479359D01*
X185080740Y-137949292D01*
X185135712Y-137934563D01*
X185254287Y-137866104D01*
X185351104Y-137769287D01*
X185419563Y-137650712D01*
X185434292Y-137595740D01*
X185964359Y-138125807D01*
X185964360Y-138125806D01*
X185986985Y-138094665D01*
X185986993Y-138094652D01*
X186074883Y-137922158D01*
X186134713Y-137738022D01*
X186165000Y-137546802D01*
X186165000Y-137353197D01*
X186134713Y-137161977D01*
X186074883Y-136977841D01*
X185986991Y-136805343D01*
X185964359Y-136774192D01*
X185964358Y-136774192D01*
X185434292Y-137304259D01*
X185419563Y-137249288D01*
X185351104Y-137130713D01*
X185254287Y-137033896D01*
X185135712Y-136965437D01*
X185080739Y-136950707D01*
X185610806Y-136420639D01*
X185610806Y-136420638D01*
X185579662Y-136398011D01*
X185407158Y-136310116D01*
X185223022Y-136250286D01*
X185048326Y-136222617D01*
X184985191Y-136192688D01*
X184948260Y-136133376D01*
X184949258Y-136063514D01*
X184987868Y-136005281D01*
X185005719Y-135992759D01*
X185061613Y-135960489D01*
X185145489Y-135876613D01*
X185204799Y-135773886D01*
X185235500Y-135659309D01*
X185235500Y-135540691D01*
X185204799Y-135426114D01*
X185145489Y-135323387D01*
X185109783Y-135287681D01*
X185076298Y-135226358D01*
X185081282Y-135156666D01*
X185109783Y-135112319D01*
X185126917Y-135095185D01*
X185145489Y-135076613D01*
X185204799Y-134973886D01*
X185235500Y-134859309D01*
X185235500Y-134740691D01*
X185204799Y-134626114D01*
X185145489Y-134523387D01*
X185096819Y-134474717D01*
X185063334Y-134413394D01*
X185060500Y-134387036D01*
X185060500Y-134130201D01*
X185060499Y-134130197D01*
X185027567Y-134050693D01*
X185021672Y-134036463D01*
X185014200Y-133966994D01*
X185045472Y-133904513D01*
X185105560Y-133868858D01*
X185116834Y-133866532D01*
X185223021Y-133849714D01*
X185223022Y-133849713D01*
X185407158Y-133789883D01*
X185579652Y-133701993D01*
X185579665Y-133701985D01*
X185610806Y-133679360D01*
X185610807Y-133679359D01*
X185080739Y-133149292D01*
X185135712Y-133134563D01*
X185254287Y-133066104D01*
X185351104Y-132969287D01*
X185419563Y-132850712D01*
X185434292Y-132795740D01*
X185964359Y-133325807D01*
X185964360Y-133325806D01*
X185986985Y-133294665D01*
X185986993Y-133294652D01*
X186074883Y-133122158D01*
X186134713Y-132938022D01*
X186165000Y-132746802D01*
X186165000Y-132553197D01*
X186134713Y-132361977D01*
X186074883Y-132177841D01*
X185986991Y-132005343D01*
X185964359Y-131974192D01*
X185434292Y-132504259D01*
X185419563Y-132449288D01*
X185351104Y-132330713D01*
X185254287Y-132233896D01*
X185135712Y-132165437D01*
X185080739Y-132150707D01*
X185610806Y-131620639D01*
X185610806Y-131620638D01*
X185579662Y-131598011D01*
X185407158Y-131510116D01*
X185223022Y-131450286D01*
X185031802Y-131420000D01*
X184838198Y-131420000D01*
X184646977Y-131450286D01*
X184462841Y-131510116D01*
X184290337Y-131598011D01*
X184259192Y-131620639D01*
X184259191Y-131620639D01*
X184789260Y-132150707D01*
X184734288Y-132165437D01*
X184615713Y-132233896D01*
X184518896Y-132330713D01*
X184450437Y-132449288D01*
X184435707Y-132504260D01*
X183892819Y-131961371D01*
X183859334Y-131900048D01*
X183856500Y-131873690D01*
X183856500Y-130326202D01*
X183856500Y-130326200D01*
X183847695Y-130304942D01*
X183814558Y-130224942D01*
X183786819Y-130197203D01*
X183753334Y-130135880D01*
X183750500Y-130109522D01*
X183750500Y-129984110D01*
X183750500Y-129984108D01*
X183716392Y-129856814D01*
X183650500Y-129742686D01*
X183557314Y-129649500D01*
X183500250Y-129616554D01*
X183443187Y-129583608D01*
X183366962Y-129563184D01*
X183315892Y-129549500D01*
X183184108Y-129549500D01*
X183056812Y-129583608D01*
X182942686Y-129649500D01*
X182942683Y-129649502D01*
X182912681Y-129679505D01*
X182851358Y-129712990D01*
X182781666Y-129708006D01*
X182737319Y-129679505D01*
X182707316Y-129649502D01*
X182707314Y-129649500D01*
X182650250Y-129616554D01*
X182593187Y-129583608D01*
X182516962Y-129563184D01*
X182465892Y-129549500D01*
X182334108Y-129549500D01*
X182206812Y-129583608D01*
X182092686Y-129649500D01*
X182092683Y-129649502D01*
X181999502Y-129742683D01*
X181999500Y-129742686D01*
X181933608Y-129856812D01*
X181899500Y-129984108D01*
X181899500Y-130109521D01*
X181890855Y-130138960D01*
X181884333Y-130168946D01*
X181880577Y-130173963D01*
X181879815Y-130176560D01*
X181863183Y-130197201D01*
X181832943Y-130227442D01*
X181755443Y-130304942D01*
X181713500Y-130406199D01*
X181713500Y-131873689D01*
X181693815Y-131940728D01*
X181677181Y-131961370D01*
X181134292Y-132504260D01*
X181119563Y-132449288D01*
X181051104Y-132330713D01*
X180954287Y-132233896D01*
X180835712Y-132165437D01*
X180780739Y-132150707D01*
X181310806Y-131620639D01*
X181310806Y-131620638D01*
X181279662Y-131598011D01*
X181107158Y-131510116D01*
X180923022Y-131450286D01*
X180731802Y-131420000D01*
X180538198Y-131420000D01*
X180346977Y-131450286D01*
X180162841Y-131510116D01*
X179990337Y-131598011D01*
X179959192Y-131620639D01*
X179959191Y-131620639D01*
X180489260Y-132150707D01*
X180434288Y-132165437D01*
X180315713Y-132233896D01*
X180218896Y-132330713D01*
X180150437Y-132449288D01*
X180135707Y-132504260D01*
X179605639Y-131974191D01*
X179605639Y-131974192D01*
X179583011Y-132005337D01*
X179495116Y-132177841D01*
X179435286Y-132361977D01*
X179405000Y-132553197D01*
X178425500Y-132553197D01*
X178425500Y-129650865D01*
X178445185Y-129583826D01*
X178497989Y-129538071D01*
X178567147Y-129528127D01*
X178630703Y-129557152D01*
X178637181Y-129563184D01*
X178888181Y-129814184D01*
X178921666Y-129875507D01*
X178924500Y-129901865D01*
X178924500Y-130627036D01*
X178904815Y-130694075D01*
X178888181Y-130714717D01*
X178839513Y-130763384D01*
X178839511Y-130763387D01*
X178780201Y-130866114D01*
X178749500Y-130980691D01*
X178749500Y-131099309D01*
X178780201Y-131213886D01*
X178839511Y-131316613D01*
X178923387Y-131400489D01*
X179026114Y-131459799D01*
X179140691Y-131490500D01*
X179140694Y-131490500D01*
X179259306Y-131490500D01*
X179259309Y-131490500D01*
X179373886Y-131459799D01*
X179476613Y-131400489D01*
X179560489Y-131316613D01*
X179619799Y-131213886D01*
X179650500Y-131099309D01*
X179650500Y-130980691D01*
X179619799Y-130866114D01*
X179560489Y-130763387D01*
X179511819Y-130714717D01*
X179478334Y-130653394D01*
X179475500Y-130627036D01*
X179475500Y-129681589D01*
X179475500Y-129681588D01*
X179464404Y-129654800D01*
X179433558Y-129580330D01*
X178520819Y-128667591D01*
X178487334Y-128606268D01*
X178484500Y-128579910D01*
X178484500Y-125713477D01*
X178504185Y-125646438D01*
X178556989Y-125600683D01*
X178626147Y-125590739D01*
X178689703Y-125619764D01*
X178696181Y-125625796D01*
X179426443Y-126356058D01*
X179503942Y-126433557D01*
X179605200Y-126475500D01*
X183594523Y-126475500D01*
X183661562Y-126495185D01*
X183682204Y-126511819D01*
X186548181Y-129377796D01*
X186581666Y-129439119D01*
X186584500Y-129465477D01*
X186584500Y-138134522D01*
X186564815Y-138201561D01*
X186548181Y-138222203D01*
X185103942Y-139666443D01*
X185026444Y-139743940D01*
X184984500Y-139845199D01*
X184984500Y-140238861D01*
X184964815Y-140305900D01*
X184912011Y-140351655D01*
X184842853Y-140361599D01*
X184828409Y-140358636D01*
X184794313Y-140349500D01*
X184794309Y-140349500D01*
X184675691Y-140349500D01*
X184561114Y-140380201D01*
X184561112Y-140380201D01*
X184561112Y-140380202D01*
X184458387Y-140439511D01*
X184458384Y-140439513D01*
X184374513Y-140523384D01*
X184374511Y-140523387D01*
X184330566Y-140599502D01*
X184315201Y-140626114D01*
X184284500Y-140740691D01*
X184284500Y-140740693D01*
X184284500Y-140759522D01*
X184264815Y-140826561D01*
X184248181Y-140847203D01*
X183903942Y-141191443D01*
X183826444Y-141268940D01*
X183784500Y-141370199D01*
X183784500Y-144334522D01*
X183764815Y-144401561D01*
X183748181Y-144422203D01*
X183357203Y-144813181D01*
X183295880Y-144846666D01*
X183269522Y-144849500D01*
X183200691Y-144849500D01*
X183131944Y-144867920D01*
X183086112Y-144880201D01*
X183086109Y-144880203D01*
X183081463Y-144882886D01*
X183019462Y-144899500D01*
X179177254Y-144899500D01*
X179110215Y-144879815D01*
X179089573Y-144863181D01*
X177511819Y-143285426D01*
X177478334Y-143224103D01*
X177475500Y-143197745D01*
X177475500Y-141390539D01*
X177492112Y-141328540D01*
X177541392Y-141243186D01*
X177575500Y-141115892D01*
X177575500Y-140984108D01*
X177541392Y-140856814D01*
X177475500Y-140742686D01*
X177382314Y-140649500D01*
X177295712Y-140599500D01*
X177268185Y-140583607D01*
X177268181Y-140583605D01*
X177265185Y-140582803D01*
X177262500Y-140581253D01*
X177260680Y-140580499D01*
X177260779Y-140580259D01*
X177209603Y-140550711D01*
X176536819Y-139877927D01*
X176503334Y-139816604D01*
X176500500Y-139790246D01*
X176500500Y-139709110D01*
X176500500Y-139709108D01*
X176466392Y-139581814D01*
X176454638Y-139561456D01*
X176417113Y-139496460D01*
X176400500Y-139434460D01*
X176400500Y-138732791D01*
X182274500Y-138732791D01*
X182274500Y-138867209D01*
X182300592Y-138964586D01*
X182309290Y-138997047D01*
X182309291Y-138997048D01*
X182376495Y-139113450D01*
X182376497Y-139113453D01*
X182376498Y-139113454D01*
X182471546Y-139208502D01*
X182587954Y-139275710D01*
X182717791Y-139310500D01*
X182717794Y-139310500D01*
X182852206Y-139310500D01*
X182852209Y-139310500D01*
X182982046Y-139275710D01*
X183098454Y-139208502D01*
X183193502Y-139113454D01*
X183260710Y-138997046D01*
X183295500Y-138867209D01*
X183295500Y-138732791D01*
X183260710Y-138602954D01*
X183260706Y-138602947D01*
X183197866Y-138494103D01*
X183197865Y-138494102D01*
X183193504Y-138486549D01*
X183193500Y-138486544D01*
X183098455Y-138391499D01*
X183098450Y-138391495D01*
X182982048Y-138324291D01*
X182982047Y-138324290D01*
X182949586Y-138315592D01*
X182852209Y-138289500D01*
X182717791Y-138289500D01*
X182639888Y-138310374D01*
X182587952Y-138324290D01*
X182587951Y-138324291D01*
X182471549Y-138391495D01*
X182471544Y-138391499D01*
X182376499Y-138486544D01*
X182376495Y-138486549D01*
X182309291Y-138602951D01*
X182309290Y-138602952D01*
X182294138Y-138659500D01*
X182274500Y-138732791D01*
X176400500Y-138732791D01*
X176400500Y-137353197D01*
X179405000Y-137353197D01*
X179405000Y-137546802D01*
X179435286Y-137738022D01*
X179495116Y-137922158D01*
X179583011Y-138094662D01*
X179605638Y-138125806D01*
X179605639Y-138125806D01*
X180135707Y-137595738D01*
X180150437Y-137650712D01*
X180218896Y-137769287D01*
X180315713Y-137866104D01*
X180434288Y-137934563D01*
X180489259Y-137949292D01*
X179959192Y-138479358D01*
X179959192Y-138479359D01*
X179990343Y-138501991D01*
X180162841Y-138589883D01*
X180346977Y-138649713D01*
X180538198Y-138680000D01*
X180731802Y-138680000D01*
X180923022Y-138649713D01*
X181055301Y-138606733D01*
X181055302Y-138606733D01*
X181107160Y-138589883D01*
X181279652Y-138501993D01*
X181279665Y-138501985D01*
X181310806Y-138479360D01*
X181310807Y-138479359D01*
X180780740Y-137949292D01*
X180835712Y-137934563D01*
X180954287Y-137866104D01*
X181051104Y-137769287D01*
X181119563Y-137650712D01*
X181134292Y-137595740D01*
X181664359Y-138125807D01*
X181664360Y-138125806D01*
X181686985Y-138094665D01*
X181686993Y-138094652D01*
X181774883Y-137922158D01*
X181834713Y-137738022D01*
X181865000Y-137546802D01*
X181865000Y-137353197D01*
X181834713Y-137161977D01*
X181774883Y-136977841D01*
X181686991Y-136805343D01*
X181664359Y-136774192D01*
X181664358Y-136774192D01*
X181134292Y-137304259D01*
X181119563Y-137249288D01*
X181051104Y-137130713D01*
X180954287Y-137033896D01*
X180835712Y-136965437D01*
X180780739Y-136950707D01*
X181310806Y-136420639D01*
X181310806Y-136420638D01*
X181279662Y-136398011D01*
X181107158Y-136310116D01*
X180923022Y-136250286D01*
X180731802Y-136220000D01*
X180538198Y-136220000D01*
X180346977Y-136250286D01*
X180162841Y-136310116D01*
X179990337Y-136398011D01*
X179959192Y-136420639D01*
X179959191Y-136420639D01*
X180489260Y-136950707D01*
X180434288Y-136965437D01*
X180315713Y-137033896D01*
X180218896Y-137130713D01*
X180150437Y-137249288D01*
X180135707Y-137304260D01*
X179605639Y-136774191D01*
X179605639Y-136774192D01*
X179583011Y-136805337D01*
X179495116Y-136977841D01*
X179435286Y-137161977D01*
X179405000Y-137353197D01*
X176400500Y-137353197D01*
X176400500Y-130687275D01*
X176400500Y-130687273D01*
X176373207Y-130585413D01*
X176320480Y-130494087D01*
X176245913Y-130419520D01*
X175506743Y-129680350D01*
X175473258Y-129619027D01*
X175478242Y-129549335D01*
X175520114Y-129493402D01*
X175562329Y-129472895D01*
X175573886Y-129469799D01*
X175676613Y-129410489D01*
X175760489Y-129326613D01*
X175819799Y-129223886D01*
X175850500Y-129109309D01*
X175850500Y-128990691D01*
X175819799Y-128876114D01*
X175760489Y-128773387D01*
X175711819Y-128724717D01*
X175678334Y-128663394D01*
X175675500Y-128637036D01*
X175675500Y-127215477D01*
X175695185Y-127148438D01*
X175711819Y-127127796D01*
X176302796Y-126536819D01*
X176364119Y-126503334D01*
X176390477Y-126500500D01*
X176459306Y-126500500D01*
X176459309Y-126500500D01*
X176573886Y-126469799D01*
X176676613Y-126410489D01*
X176760489Y-126326613D01*
X176819799Y-126223886D01*
X176850500Y-126109309D01*
X176850500Y-125990691D01*
X176819799Y-125876114D01*
X176760489Y-125773387D01*
X176676613Y-125689511D01*
X176573886Y-125630201D01*
X176459309Y-125599500D01*
X176340691Y-125599500D01*
X176226114Y-125630201D01*
X176226112Y-125630201D01*
X176226112Y-125630202D01*
X176123387Y-125689511D01*
X176123384Y-125689513D01*
X176039513Y-125773384D01*
X176039511Y-125773387D01*
X175980201Y-125876114D01*
X175949500Y-125990691D01*
X175949500Y-125990693D01*
X175949500Y-126059521D01*
X175929815Y-126126560D01*
X175913181Y-126147202D01*
X175243942Y-126816443D01*
X175166444Y-126893940D01*
X175124500Y-126995199D01*
X175124500Y-128637036D01*
X175104815Y-128704075D01*
X175088181Y-128724717D01*
X175039513Y-128773384D01*
X175039511Y-128773387D01*
X174980200Y-128876114D01*
X174977104Y-128887671D01*
X174940738Y-128947331D01*
X174877890Y-128977859D01*
X174808515Y-128969562D01*
X174769649Y-128943256D01*
X174336819Y-128510426D01*
X174303334Y-128449103D01*
X174300500Y-128422745D01*
X174300500Y-119658458D01*
X174320185Y-119591419D01*
X174372989Y-119545664D01*
X174442147Y-119535720D01*
X174456587Y-119538682D01*
X174500691Y-119550500D01*
X174500693Y-119550500D01*
X174619306Y-119550500D01*
X174619309Y-119550500D01*
X174733886Y-119519799D01*
X174836613Y-119460489D01*
X174885283Y-119411819D01*
X174946606Y-119378334D01*
X174972964Y-119375500D01*
X175784523Y-119375500D01*
X175851562Y-119395185D01*
G37*
%TD.AperFunction*%
%TD*%
M02*
