%TF.GenerationSoftware,KiCad,Pcbnew,9.0.7-9.0.7~ubuntu22.04.1*%
%TF.CreationDate,2026-02-12T22:58:37-07:00*%
%TF.ProjectId,ESP32-S3-MINI-1U_UU,45535033-322d-4533-932d-4d494e492d31,rev?*%
%TF.SameCoordinates,Original*%
%TF.FileFunction,Soldermask,Bot*%
%TF.FilePolarity,Negative*%
%FSLAX46Y46*%
G04 Gerber Fmt 4.6, Leading zero omitted, Abs format (unit mm)*
G04 Created by KiCad (PCBNEW 9.0.7-9.0.7~ubuntu22.04.1) date 2026-02-12 22:58:37*
%MOMM*%
%LPD*%
G01*
G04 APERTURE LIST*
%ADD10R,1.600000X1.600000*%
%ADD11C,1.600000*%
%ADD12C,0.520000*%
%ADD13C,0.890000*%
%ADD14C,1.460000*%
G04 APERTURE END LIST*
D10*
%TO.C,J1*%
X242220000Y-147100000D03*
D11*
X244760000Y-147100000D03*
X247300000Y-147100000D03*
X249840000Y-147100000D03*
X252380000Y-147100000D03*
X254920000Y-147100000D03*
X257460000Y-147100000D03*
%TD*%
D10*
%TO.C,J6*%
X260000000Y-110260000D03*
D11*
X260000000Y-112800000D03*
X260000000Y-115340000D03*
X260000000Y-117880000D03*
X260000000Y-120420000D03*
X260000000Y-122960000D03*
X260000000Y-125500000D03*
X260000000Y-128040000D03*
X260000000Y-130580000D03*
X260000000Y-133120000D03*
X260000000Y-135660000D03*
X260000000Y-138200000D03*
X260000000Y-140740000D03*
X260000000Y-143280000D03*
X260000000Y-145820000D03*
%TD*%
D10*
%TO.C,J5*%
X239680000Y-115360000D03*
D11*
X239680000Y-117900000D03*
X239680000Y-120440000D03*
X239680000Y-122980000D03*
X239680000Y-125520000D03*
X239680000Y-128060000D03*
X239680000Y-130600000D03*
X239680000Y-133140000D03*
X239680000Y-135680000D03*
X239680000Y-138220000D03*
X239680000Y-140760000D03*
X239680000Y-143300000D03*
X239680000Y-145840000D03*
%TD*%
D10*
%TO.C,J4*%
X239680000Y-110270000D03*
%TD*%
D12*
%TO.C,J2*%
X250225000Y-134800000D03*
D13*
X250225000Y-127300000D03*
D14*
X248075000Y-133450000D03*
X248075000Y-128650000D03*
X252375000Y-128650000D03*
X252375000Y-133450000D03*
%TD*%
M02*
