%TF.GenerationSoftware,KiCad,Pcbnew,9.0.7-9.0.7~ubuntu22.04.1*%
%TF.CreationDate,2026-02-12T22:58:37-07:00*%
%TF.ProjectId,ESP32-S3-MINI-1U_UU,45535033-322d-4533-932d-4d494e492d31,rev?*%
%TF.SameCoordinates,Original*%
%TF.FileFunction,Copper,L2,Bot*%
%TF.FilePolarity,Positive*%
%FSLAX46Y46*%
G04 Gerber Fmt 4.6, Leading zero omitted, Abs format (unit mm)*
G04 Created by KiCad (PCBNEW 9.0.7-9.0.7~ubuntu22.04.1) date 2026-02-12 22:58:37*
%MOMM*%
%LPD*%
G01*
G04 APERTURE LIST*
%TA.AperFunction,ComponentPad*%
%ADD10R,1.600000X1.600000*%
%TD*%
%TA.AperFunction,ComponentPad*%
%ADD11C,1.600000*%
%TD*%
%TA.AperFunction,ComponentPad*%
%ADD12C,1.460000*%
%TD*%
%TA.AperFunction,ViaPad*%
%ADD13C,0.500000*%
%TD*%
%TA.AperFunction,ViaPad*%
%ADD14C,0.600000*%
%TD*%
%TA.AperFunction,Conductor*%
%ADD15C,0.400000*%
%TD*%
%TA.AperFunction,Conductor*%
%ADD16C,0.150000*%
%TD*%
%TA.AperFunction,Conductor*%
%ADD17C,0.200000*%
%TD*%
G04 APERTURE END LIST*
D10*
%TO.P,J1,1,1*%
%TO.N,IO16*%
X242220000Y-147100000D03*
D11*
%TO.P,J1,2,2*%
%TO.N,IO17*%
X244760000Y-147100000D03*
%TO.P,J1,3,3*%
%TO.N,IO18*%
X247300000Y-147100000D03*
%TO.P,J1,4,4*%
%TO.N,5V*%
X249840000Y-147100000D03*
%TO.P,J1,5,5*%
%TO.N,GND*%
X252380000Y-147100000D03*
%TO.P,J1,6,6*%
%TO.N,IO21*%
X254920000Y-147100000D03*
%TO.P,J1,7,7*%
%TO.N,IO26*%
X257460000Y-147100000D03*
%TD*%
D10*
%TO.P,J6,1,1*%
%TO.N,IO46*%
X260000000Y-110260000D03*
D11*
%TO.P,J6,2,2*%
%TO.N,IO45*%
X260000000Y-112800000D03*
%TO.P,J6,3,3*%
%TO.N,RX*%
X260000000Y-115340000D03*
%TO.P,J6,4,4*%
%TO.N,TX*%
X260000000Y-117880000D03*
%TO.P,J6,5,5*%
%TO.N,MTMS*%
X260000000Y-120420000D03*
%TO.P,J6,6,6*%
%TO.N,MTDI*%
X260000000Y-122960000D03*
%TO.P,J6,7,7*%
%TO.N,MTDO*%
X260000000Y-125500000D03*
%TO.P,J6,8,8*%
%TO.N,MTCK*%
X260000000Y-128040000D03*
%TO.P,J6,9,9*%
%TO.N,IO38*%
X260000000Y-130580000D03*
%TO.P,J6,10,10*%
%TO.N,IO37*%
X260000000Y-133120000D03*
%TO.P,J6,11,11*%
%TO.N,IO36*%
X260000000Y-135660000D03*
%TO.P,J6,12,12*%
%TO.N,IO35*%
X260000000Y-138200000D03*
%TO.P,J6,13,13*%
%TO.N,IO34*%
X260000000Y-140740000D03*
%TO.P,J6,14,14*%
%TO.N,IO33*%
X260000000Y-143280000D03*
%TO.P,J6,15,15*%
%TO.N,IO47*%
X260000000Y-145820000D03*
%TD*%
D10*
%TO.P,J5,1,1*%
%TO.N,3V3*%
X239680000Y-115360000D03*
D11*
%TO.P,J5,2,2*%
%TO.N,LED*%
X239680000Y-117900000D03*
%TO.P,J5,3,3*%
%TO.N,IO3*%
X239680000Y-120440000D03*
%TO.P,J5,4,4*%
%TO.N,IO4*%
X239680000Y-122980000D03*
%TO.P,J5,5,5*%
%TO.N,IO5*%
X239680000Y-125520000D03*
%TO.P,J5,6,6*%
%TO.N,IO6*%
X239680000Y-128060000D03*
%TO.P,J5,7,7*%
%TO.N,IO7*%
X239680000Y-130600000D03*
%TO.P,J5,8,8*%
%TO.N,IO10*%
X239680000Y-133140000D03*
%TO.P,J5,9,9*%
%TO.N,IO11*%
X239680000Y-135680000D03*
%TO.P,J5,10,10*%
%TO.N,IO12*%
X239680000Y-138220000D03*
%TO.P,J5,11,11*%
%TO.N,IO13*%
X239680000Y-140760000D03*
%TO.P,J5,12,12*%
%TO.N,IO14*%
X239680000Y-143300000D03*
%TO.P,J5,13,13*%
%TO.N,IO15*%
X239680000Y-145840000D03*
%TD*%
D10*
%TO.P,J4,1,1*%
%TO.N,GND*%
X239680000Y-110270000D03*
%TD*%
D12*
%TO.P,J2,MH1,MH1*%
%TO.N,GND*%
X248075000Y-133450000D03*
%TO.P,J2,MH2,MH2*%
X248075000Y-128650000D03*
%TO.P,J2,MH3,MH3*%
X252375000Y-128650000D03*
%TO.P,J2,MH4,MH4*%
X252375000Y-133450000D03*
%TD*%
D13*
%TO.N,LED*%
X242000000Y-115100000D03*
%TO.N,GND*%
X248400000Y-121600000D03*
X244050000Y-141250000D03*
D14*
X245500000Y-138750000D03*
D13*
X256025000Y-128600000D03*
X250700000Y-140300000D03*
X252100000Y-138100000D03*
X256778768Y-139078768D03*
X243840000Y-112700000D03*
X254340000Y-111600000D03*
X254000000Y-145200000D03*
D14*
X248100000Y-135800000D03*
D13*
X258400000Y-145700000D03*
X245840000Y-134050000D03*
X246600000Y-122800000D03*
X246700000Y-119600000D03*
X256700000Y-133700000D03*
X252340000Y-126800000D03*
X257940000Y-109800000D03*
D14*
X252100000Y-135800000D03*
D13*
X246400000Y-145200000D03*
D14*
X253225000Y-132050000D03*
X248600000Y-137900000D03*
D13*
X245400000Y-136700000D03*
X258040000Y-113600000D03*
X243840000Y-119300000D03*
X253940000Y-122100000D03*
X247576646Y-130800000D03*
X257262000Y-143800000D03*
X256840000Y-124775000D03*
D14*
X250225000Y-129050000D03*
D13*
X243900000Y-122800000D03*
D14*
X250225000Y-133050000D03*
D13*
X244550000Y-129350000D03*
X248090000Y-126800000D03*
D14*
X255740000Y-118700000D03*
D13*
X255941000Y-141300000D03*
X253298768Y-137701232D03*
%TO.N,IO1*%
X243840000Y-114250000D03*
X250800000Y-144900000D03*
%TO.N,IO36*%
X255740000Y-121381823D03*
%TO.N,IO35*%
X255787135Y-122254671D03*
%TO.N,LED*%
X246200000Y-126700000D03*
%TO.N,IO37*%
X255740000Y-120550000D03*
%TO.N,3V3*%
X250700000Y-141300000D03*
X252175000Y-136800000D03*
D14*
X243440000Y-135775000D03*
X244515000Y-137050000D03*
X241340000Y-113700000D03*
D13*
%TO.N,SCL*%
X247500000Y-121050000D03*
X253900000Y-138212500D03*
%TO.N,SDA*%
X247500000Y-120200000D03*
X254628255Y-135963204D03*
X253740000Y-140300000D03*
%TO.N,D+*%
X252225000Y-130800000D03*
D14*
X250690000Y-126050000D03*
D13*
X248225000Y-131300000D03*
%TO.N,RGB*%
X256840000Y-125600000D03*
X256450000Y-140150000D03*
%TO.N,D-*%
X252225000Y-131600000D03*
D14*
X249840000Y-126050000D03*
D13*
X248225000Y-130400000D03*
D14*
%TO.N,Net-(S1-NO)*%
X245590000Y-132800000D03*
D13*
X244565000Y-117050000D03*
%TO.N,Net-(S2-NO)*%
X255640000Y-111550000D03*
X256340000Y-132800000D03*
%TO.N,IO12*%
X241789914Y-127989914D03*
%TO.N,IO11*%
X242840000Y-125050000D03*
X243840000Y-122050000D03*
X241716000Y-127200000D03*
%TO.N,IO38*%
X255740000Y-119550000D03*
%TO.N,V_USB*%
X243400000Y-143700000D03*
X249200000Y-144650002D03*
D14*
X243440000Y-137000000D03*
%TD*%
D15*
%TO.N,3V3*%
X243440000Y-126740000D02*
X243440000Y-135775000D01*
X241340000Y-124640000D02*
X243440000Y-126740000D01*
D16*
%TO.N,IO1*%
X252700000Y-141000000D02*
X252700000Y-135900000D01*
X250800000Y-142900000D02*
X252700000Y-141000000D01*
X250800000Y-144900000D02*
X250800000Y-142900000D01*
X243850000Y-114250000D02*
X243840000Y-114250000D01*
X246000000Y-121100000D02*
X246000000Y-116400000D01*
X252700000Y-135900000D02*
X254300000Y-134300000D01*
X254300000Y-134300000D02*
X254300000Y-125300000D01*
X254300000Y-125300000D02*
X251200000Y-122200000D01*
X251200000Y-122200000D02*
X247100000Y-122200000D01*
X243840000Y-114250000D02*
X243890000Y-114300000D01*
X246000000Y-116400000D02*
X243850000Y-114250000D01*
X247100000Y-122200000D02*
X246000000Y-121100000D01*
%TO.N,IO36*%
X258691000Y-133491000D02*
X258691000Y-134491000D01*
X256258177Y-121900000D02*
X256600000Y-121900000D01*
X258691000Y-134491000D02*
X259860000Y-135660000D01*
X258500000Y-131967777D02*
X258500000Y-133300000D01*
X257738000Y-131205777D02*
X258500000Y-131967777D01*
X256600000Y-121900000D02*
X257738000Y-123038000D01*
X255739488Y-121381311D02*
X256258177Y-121900000D01*
X258500000Y-133300000D02*
X258691000Y-133491000D01*
X259860000Y-135660000D02*
X259924000Y-135660000D01*
X257738000Y-123038000D02*
X257738000Y-131205777D01*
%TO.N,IO35*%
X258138000Y-132102166D02*
X258138000Y-133445389D01*
X258340000Y-136640000D02*
X259900000Y-138200000D01*
X258340000Y-133647389D02*
X258340000Y-136640000D01*
X258138000Y-133445389D02*
X258340000Y-133647389D01*
X257386999Y-131351164D02*
X258138000Y-132102166D01*
X255787135Y-122254671D02*
X256332464Y-122800000D01*
X256332464Y-122800000D02*
X257000000Y-122800000D01*
X257000000Y-122800000D02*
X257387000Y-123187000D01*
X257387000Y-131050000D02*
X257386999Y-131351164D01*
X259810000Y-137520000D02*
X259965000Y-137520000D01*
X259900000Y-138200000D02*
X259924000Y-138200000D01*
X257387000Y-123187000D02*
X257387000Y-131050000D01*
%TO.N,LED*%
X246271232Y-126628768D02*
X246200000Y-126557536D01*
X246228768Y-126628768D02*
X246271232Y-126628768D01*
%TO.N,IO37*%
X258089000Y-131060389D02*
X258851000Y-131822389D01*
X256150640Y-121050000D02*
X256340000Y-121050000D01*
X258851000Y-132131000D02*
X259840000Y-133120000D01*
X258089000Y-122799000D02*
X258089000Y-131060389D01*
X255783192Y-120682552D02*
X256150640Y-121050000D01*
X258851000Y-131822389D02*
X258851000Y-132131000D01*
X256340000Y-121050000D02*
X258089000Y-122799000D01*
X259840000Y-133120000D02*
X259924000Y-133120000D01*
D15*
%TO.N,3V3*%
X244515000Y-137050000D02*
X244515000Y-136982500D01*
X241340000Y-115300000D02*
X240032000Y-115300000D01*
X244515000Y-136982500D02*
X243440000Y-135907500D01*
X244515000Y-139415000D02*
X244515000Y-137050000D01*
X241340000Y-113700000D02*
X241340000Y-115300000D01*
X243440000Y-135907500D02*
X243440000Y-135775000D01*
X244515000Y-139415000D02*
X246400000Y-141300000D01*
D16*
X251500000Y-140500000D02*
X250700000Y-141300000D01*
D15*
X250700000Y-141300000D02*
X246400000Y-141300000D01*
D16*
X252175000Y-136800000D02*
X252125000Y-136800000D01*
X252125000Y-136800000D02*
X251500000Y-137425000D01*
D15*
X241340000Y-115349000D02*
X241340000Y-124649000D01*
X241340000Y-113700000D02*
X241389000Y-113749000D01*
D16*
X251500000Y-137425000D02*
X251500000Y-140500000D01*
D17*
%TO.N,SCL*%
X253826000Y-138100000D02*
X253840000Y-138086000D01*
D16*
X251193612Y-121050000D02*
X247500000Y-121050000D01*
X253900000Y-135900000D02*
X255149000Y-134651000D01*
X255149000Y-134651000D02*
X255149000Y-125005388D01*
X255149000Y-125005388D02*
X251193612Y-121050000D01*
X253900000Y-138026000D02*
X253900000Y-135900000D01*
%TO.N,SDA*%
X250840000Y-120200000D02*
X255500000Y-124860000D01*
X247500000Y-120200000D02*
X250840000Y-120200000D01*
D17*
X254640000Y-135951459D02*
X254640000Y-135800000D01*
D16*
X254640000Y-139400000D02*
X254640000Y-135800000D01*
X255500000Y-124860000D02*
X255500000Y-134940000D01*
X253740000Y-140300000D02*
X254640000Y-139400000D01*
D17*
X254628255Y-135963204D02*
X254640000Y-135951459D01*
D16*
X255500000Y-134940000D02*
X254640000Y-135800000D01*
%TO.N,D+*%
X251021000Y-128981000D02*
X251021000Y-126381000D01*
X252225000Y-130800000D02*
X252225000Y-130185000D01*
X252225000Y-130185000D02*
X251021000Y-128981000D01*
X250340000Y-130800000D02*
X252225000Y-130800000D01*
X249840000Y-131300000D02*
X250340000Y-130800000D01*
X251021000Y-126381000D02*
X250690000Y-126050000D01*
X248225000Y-131300000D02*
X249840000Y-131300000D01*
%TO.N,RGB*%
X257400000Y-139200000D02*
X257400000Y-131860554D01*
X257035999Y-131496552D02*
X257036000Y-125871000D01*
X256740000Y-125600000D02*
X256840000Y-125600000D01*
D17*
X256840000Y-125500000D02*
X256840000Y-125600000D01*
D16*
X256450000Y-140150000D02*
X257400000Y-139200000D01*
X257400000Y-131860554D02*
X257035999Y-131496552D01*
X257036000Y-125871000D02*
X256866000Y-125701000D01*
%TO.N,D-*%
X249429000Y-126461000D02*
X249840000Y-126050000D01*
X249429000Y-129096000D02*
X249429000Y-126461000D01*
X248225000Y-130300000D02*
X249429000Y-129096000D01*
D17*
X248225000Y-130400000D02*
X248225000Y-130300000D01*
D16*
%TO.N,Net-(S1-NO)*%
X244565000Y-117050000D02*
X244565000Y-117065000D01*
X244565000Y-117065000D02*
X245298000Y-117798000D01*
X245298000Y-117798000D02*
X245298000Y-124890777D01*
X245590000Y-125182776D02*
X245590000Y-132800000D01*
X245298000Y-124890777D02*
X245590000Y-125182776D01*
D17*
%TO.N,Net-(S2-NO)*%
X255590000Y-111651000D02*
X255640000Y-111601000D01*
D16*
X254640000Y-112451000D02*
X255440000Y-111651000D01*
X256340000Y-132700000D02*
X256700000Y-132340000D01*
X254640000Y-122600000D02*
X254640000Y-112451000D01*
X256685000Y-126188877D02*
X256314000Y-125817877D01*
X256684999Y-126188878D02*
X256685000Y-126188877D01*
X256700000Y-131656942D02*
X256684999Y-131641940D01*
X256340000Y-132800000D02*
X256340000Y-132700000D01*
X256684999Y-131641940D02*
X256684999Y-126188878D01*
D17*
X255590000Y-111550000D02*
X255641000Y-111601000D01*
D16*
X256314000Y-125817877D02*
X256314000Y-124274000D01*
X256314000Y-124274000D02*
X254640000Y-122600000D01*
X256700000Y-132340000D02*
X256700000Y-131656942D01*
%TO.N,IO12*%
X241591000Y-128249000D02*
X241591000Y-134349000D01*
X240840000Y-135100000D02*
X240840000Y-137050000D01*
X241776172Y-128063829D02*
X241591000Y-128249000D01*
X239756000Y-138134000D02*
X239756000Y-138210000D01*
X240840000Y-137050000D02*
X239756000Y-138134000D01*
X241591000Y-134349000D02*
X240840000Y-135100000D01*
%TO.N,IO11*%
X241716000Y-127200000D02*
X241716000Y-127252604D01*
X242840000Y-123050000D02*
X243840000Y-122050000D01*
X241240000Y-127728604D02*
X241240000Y-134110000D01*
X241716000Y-127252604D02*
X241240000Y-127728604D01*
X242840000Y-125050000D02*
X242840000Y-123050000D01*
X241240000Y-134110000D02*
X239756000Y-135594000D01*
%TO.N,IO46*%
X259924000Y-109656000D02*
X259924000Y-109580000D01*
%TO.N,IO38*%
X255740000Y-119550000D02*
X255740000Y-119640000D01*
X258440000Y-129020000D02*
X259924000Y-130504000D01*
X255590000Y-119550000D02*
X255840000Y-119550000D01*
X258440000Y-122340000D02*
X258440000Y-129020000D01*
X255740000Y-119640000D02*
X258440000Y-122340000D01*
%TO.N,V_USB*%
X249150002Y-144650002D02*
X248800000Y-144300000D01*
D15*
X243400000Y-143700000D02*
X243400000Y-137040000D01*
D16*
X249200000Y-144650002D02*
X249150002Y-144650002D01*
X248800000Y-144300000D02*
X244000000Y-144300000D01*
D15*
X243400000Y-137040000D02*
X243440000Y-137000000D01*
D16*
X244000000Y-144300000D02*
X243400000Y-143700000D01*
%TO.N,LED*%
X242091299Y-115100000D02*
X243390000Y-115100000D01*
X243390000Y-115100000D02*
X245649000Y-117359000D01*
X245649000Y-117359000D02*
X245649000Y-124745388D01*
X245649000Y-124745388D02*
X246200000Y-125296388D01*
X246200000Y-125296388D02*
X246200000Y-126700000D01*
%TD*%
%TA.AperFunction,Conductor*%
%TO.N,GND*%
G36*
X259942539Y-109020185D02*
G01*
X259988294Y-109072989D01*
X259999500Y-109124500D01*
X259999500Y-109135500D01*
X259979815Y-109202539D01*
X259927011Y-109248294D01*
X259875500Y-109259500D01*
X259180247Y-109259500D01*
X259121770Y-109271131D01*
X259121769Y-109271132D01*
X259055447Y-109315447D01*
X259011132Y-109381769D01*
X259011131Y-109381770D01*
X258999500Y-109440247D01*
X258999500Y-111079752D01*
X259011131Y-111138229D01*
X259011132Y-111138230D01*
X259055447Y-111204552D01*
X259121769Y-111248867D01*
X259121770Y-111248868D01*
X259180247Y-111260499D01*
X259180250Y-111260500D01*
X259180252Y-111260500D01*
X259875500Y-111260500D01*
X259942539Y-111280185D01*
X259988294Y-111332989D01*
X259999500Y-111384500D01*
X259999500Y-111678234D01*
X259979815Y-111745273D01*
X259927011Y-111791028D01*
X259899692Y-111799851D01*
X259708170Y-111837947D01*
X259708160Y-111837950D01*
X259526092Y-111913364D01*
X259526079Y-111913371D01*
X259362218Y-112022860D01*
X259362214Y-112022863D01*
X259222863Y-112162214D01*
X259222860Y-112162218D01*
X259113371Y-112326079D01*
X259113364Y-112326092D01*
X259037950Y-112508160D01*
X259037947Y-112508170D01*
X258999500Y-112701456D01*
X258999500Y-112701459D01*
X258999500Y-112898541D01*
X258999500Y-112898543D01*
X258999499Y-112898543D01*
X259037947Y-113091829D01*
X259037950Y-113091839D01*
X259113364Y-113273907D01*
X259113371Y-113273920D01*
X259222860Y-113437781D01*
X259222863Y-113437785D01*
X259362214Y-113577136D01*
X259362218Y-113577139D01*
X259526079Y-113686628D01*
X259526092Y-113686635D01*
X259708160Y-113762049D01*
X259708165Y-113762051D01*
X259899691Y-113800148D01*
X259961602Y-113832533D01*
X259996176Y-113893248D01*
X259999500Y-113921765D01*
X259999500Y-114218234D01*
X259979815Y-114285273D01*
X259927011Y-114331028D01*
X259899692Y-114339851D01*
X259708170Y-114377947D01*
X259708160Y-114377950D01*
X259526092Y-114453364D01*
X259526079Y-114453371D01*
X259362218Y-114562860D01*
X259362214Y-114562863D01*
X259222863Y-114702214D01*
X259222860Y-114702218D01*
X259113371Y-114866079D01*
X259113364Y-114866092D01*
X259037950Y-115048160D01*
X259037947Y-115048170D01*
X258999500Y-115241456D01*
X258999500Y-115241459D01*
X258999500Y-115438541D01*
X258999500Y-115438543D01*
X258999499Y-115438543D01*
X259037947Y-115631829D01*
X259037950Y-115631839D01*
X259113364Y-115813907D01*
X259113371Y-115813920D01*
X259222860Y-115977781D01*
X259222863Y-115977785D01*
X259362214Y-116117136D01*
X259362218Y-116117139D01*
X259526079Y-116226628D01*
X259526092Y-116226635D01*
X259617049Y-116264310D01*
X259708165Y-116302051D01*
X259899691Y-116340148D01*
X259961602Y-116372533D01*
X259996176Y-116433248D01*
X259999500Y-116461765D01*
X259999500Y-116758234D01*
X259979815Y-116825273D01*
X259927011Y-116871028D01*
X259899692Y-116879851D01*
X259708170Y-116917947D01*
X259708160Y-116917950D01*
X259526092Y-116993364D01*
X259526079Y-116993371D01*
X259362218Y-117102860D01*
X259362214Y-117102863D01*
X259222863Y-117242214D01*
X259222860Y-117242218D01*
X259113371Y-117406079D01*
X259113364Y-117406092D01*
X259037950Y-117588160D01*
X259037947Y-117588170D01*
X258999500Y-117781456D01*
X258999500Y-117781459D01*
X258999500Y-117978541D01*
X258999500Y-117978543D01*
X258999499Y-117978543D01*
X259037947Y-118171829D01*
X259037950Y-118171839D01*
X259113364Y-118353907D01*
X259113371Y-118353920D01*
X259222860Y-118517781D01*
X259222863Y-118517785D01*
X259362214Y-118657136D01*
X259362218Y-118657139D01*
X259526079Y-118766628D01*
X259526092Y-118766635D01*
X259708160Y-118842049D01*
X259708165Y-118842051D01*
X259899691Y-118880148D01*
X259961602Y-118912533D01*
X259996176Y-118973248D01*
X259999500Y-119001765D01*
X259999500Y-119298234D01*
X259979815Y-119365273D01*
X259927011Y-119411028D01*
X259899692Y-119419851D01*
X259708170Y-119457947D01*
X259708160Y-119457950D01*
X259526092Y-119533364D01*
X259526079Y-119533371D01*
X259362218Y-119642860D01*
X259362214Y-119642863D01*
X259222863Y-119782214D01*
X259222860Y-119782218D01*
X259113371Y-119946079D01*
X259113364Y-119946092D01*
X259037950Y-120128160D01*
X259037947Y-120128170D01*
X258999500Y-120321456D01*
X258999500Y-120321459D01*
X258999500Y-120518541D01*
X258999500Y-120518543D01*
X258999499Y-120518543D01*
X259037947Y-120711829D01*
X259037950Y-120711839D01*
X259113364Y-120893907D01*
X259113371Y-120893920D01*
X259222860Y-121057781D01*
X259222863Y-121057785D01*
X259362214Y-121197136D01*
X259362218Y-121197139D01*
X259526079Y-121306628D01*
X259526092Y-121306635D01*
X259659320Y-121361819D01*
X259708165Y-121382051D01*
X259899691Y-121420148D01*
X259961602Y-121452533D01*
X259996176Y-121513248D01*
X259999500Y-121541765D01*
X259999500Y-121838234D01*
X259979815Y-121905273D01*
X259927011Y-121951028D01*
X259899692Y-121959851D01*
X259708170Y-121997947D01*
X259708160Y-121997950D01*
X259526092Y-122073364D01*
X259526079Y-122073371D01*
X259362218Y-122182860D01*
X259362214Y-122182863D01*
X259222863Y-122322214D01*
X259222860Y-122322218D01*
X259113371Y-122486079D01*
X259113364Y-122486092D01*
X259037950Y-122668160D01*
X259037947Y-122668170D01*
X258999500Y-122861456D01*
X258999500Y-122861459D01*
X258999500Y-123058541D01*
X258999500Y-123058543D01*
X258999499Y-123058543D01*
X259037947Y-123251829D01*
X259037950Y-123251839D01*
X259113364Y-123433907D01*
X259113371Y-123433920D01*
X259222860Y-123597781D01*
X259222863Y-123597785D01*
X259362214Y-123737136D01*
X259362218Y-123737139D01*
X259526079Y-123846628D01*
X259526092Y-123846635D01*
X259708160Y-123922049D01*
X259708165Y-123922051D01*
X259899691Y-123960148D01*
X259961602Y-123992533D01*
X259996176Y-124053248D01*
X259999500Y-124081765D01*
X259999500Y-124378234D01*
X259979815Y-124445273D01*
X259927011Y-124491028D01*
X259899692Y-124499851D01*
X259708170Y-124537947D01*
X259708160Y-124537950D01*
X259526092Y-124613364D01*
X259526079Y-124613371D01*
X259362218Y-124722860D01*
X259362214Y-124722863D01*
X259222863Y-124862214D01*
X259222860Y-124862218D01*
X259113371Y-125026079D01*
X259113364Y-125026092D01*
X259037950Y-125208160D01*
X259037947Y-125208170D01*
X258999500Y-125401456D01*
X258999500Y-125401459D01*
X258999500Y-125598541D01*
X258999500Y-125598543D01*
X258999499Y-125598543D01*
X259037947Y-125791829D01*
X259037950Y-125791839D01*
X259113364Y-125973907D01*
X259113371Y-125973920D01*
X259222860Y-126137781D01*
X259222863Y-126137785D01*
X259362214Y-126277136D01*
X259362218Y-126277139D01*
X259526079Y-126386628D01*
X259526092Y-126386635D01*
X259680278Y-126450500D01*
X259708165Y-126462051D01*
X259899691Y-126500148D01*
X259961602Y-126532533D01*
X259996176Y-126593248D01*
X259999500Y-126621765D01*
X259999500Y-126918234D01*
X259979815Y-126985273D01*
X259927011Y-127031028D01*
X259899692Y-127039851D01*
X259708170Y-127077947D01*
X259708160Y-127077950D01*
X259526092Y-127153364D01*
X259526079Y-127153371D01*
X259362218Y-127262860D01*
X259362214Y-127262863D01*
X259222863Y-127402214D01*
X259222860Y-127402218D01*
X259113371Y-127566079D01*
X259113364Y-127566092D01*
X259037950Y-127748160D01*
X259037947Y-127748170D01*
X258999500Y-127941456D01*
X258999500Y-127941459D01*
X258999500Y-128138541D01*
X258999500Y-128138543D01*
X258999499Y-128138543D01*
X259037947Y-128331829D01*
X259037950Y-128331839D01*
X259113364Y-128513907D01*
X259113371Y-128513920D01*
X259222860Y-128677781D01*
X259222863Y-128677785D01*
X259362214Y-128817136D01*
X259362218Y-128817139D01*
X259526079Y-128926628D01*
X259526092Y-128926635D01*
X259659477Y-128981884D01*
X259708165Y-129002051D01*
X259899691Y-129040148D01*
X259961602Y-129072533D01*
X259996176Y-129133248D01*
X259999500Y-129161765D01*
X259999500Y-129458234D01*
X259979815Y-129525273D01*
X259927011Y-129571028D01*
X259899692Y-129579851D01*
X259708170Y-129617947D01*
X259708165Y-129617949D01*
X259586294Y-129668428D01*
X259516825Y-129675895D01*
X259454346Y-129644620D01*
X259451162Y-129641547D01*
X258751819Y-128942204D01*
X258718334Y-128880881D01*
X258715500Y-128854523D01*
X258715500Y-122285201D01*
X258715499Y-122285198D01*
X258690103Y-122223886D01*
X258690103Y-122223885D01*
X258673560Y-122183947D01*
X258673558Y-122183942D01*
X256221769Y-119732154D01*
X256188285Y-119670832D01*
X256189558Y-119617381D01*
X256189439Y-119617366D01*
X256189585Y-119616253D01*
X256189677Y-119612376D01*
X256190500Y-119609309D01*
X256190500Y-119490691D01*
X256159799Y-119376114D01*
X256100489Y-119273387D01*
X256016613Y-119189511D01*
X255913886Y-119130201D01*
X255799309Y-119099500D01*
X255680691Y-119099500D01*
X255566114Y-119130201D01*
X255566112Y-119130201D01*
X255566112Y-119130202D01*
X255463387Y-119189511D01*
X255463384Y-119189513D01*
X255379513Y-119273384D01*
X255379511Y-119273387D01*
X255320201Y-119376114D01*
X255289500Y-119490691D01*
X255289500Y-119609309D01*
X255320201Y-119723886D01*
X255379511Y-119826613D01*
X255463387Y-119910489D01*
X255519027Y-119942613D01*
X255567242Y-119993181D01*
X255580464Y-120061788D01*
X255554496Y-120126653D01*
X255519027Y-120157387D01*
X255463387Y-120189511D01*
X255463384Y-120189513D01*
X255379513Y-120273384D01*
X255379511Y-120273387D01*
X255320201Y-120376114D01*
X255289500Y-120490691D01*
X255289500Y-120609309D01*
X255320201Y-120723886D01*
X255379511Y-120826613D01*
X255379513Y-120826615D01*
X255431128Y-120878230D01*
X255464613Y-120939553D01*
X255459629Y-121009245D01*
X255431129Y-121053591D01*
X255379514Y-121105206D01*
X255379511Y-121105210D01*
X255320201Y-121207937D01*
X255289500Y-121322514D01*
X255289500Y-121441132D01*
X255320201Y-121555709D01*
X255379511Y-121658436D01*
X255463387Y-121742312D01*
X255463393Y-121742315D01*
X255463808Y-121742634D01*
X255464076Y-121743001D01*
X255469134Y-121748059D01*
X255468345Y-121748847D01*
X255505014Y-121799060D01*
X255509173Y-121868805D01*
X255476009Y-121928694D01*
X255426649Y-121978054D01*
X255426646Y-121978058D01*
X255371617Y-122073371D01*
X255367336Y-122080785D01*
X255336635Y-122195362D01*
X255336635Y-122313980D01*
X255367336Y-122428557D01*
X255426646Y-122531284D01*
X255510522Y-122615160D01*
X255613249Y-122674470D01*
X255727826Y-122705171D01*
X255727829Y-122705171D01*
X255796657Y-122705171D01*
X255863696Y-122724856D01*
X255884338Y-122741490D01*
X256176408Y-123033560D01*
X256254721Y-123065997D01*
X256277664Y-123075500D01*
X256834523Y-123075500D01*
X256863963Y-123084144D01*
X256893950Y-123090668D01*
X256898965Y-123094422D01*
X256901562Y-123095185D01*
X256922204Y-123111819D01*
X257075181Y-123264796D01*
X257108666Y-123326119D01*
X257111500Y-123352477D01*
X257111500Y-125044756D01*
X257091815Y-125111795D01*
X257039011Y-125157550D01*
X256969853Y-125167494D01*
X256955408Y-125164531D01*
X256899310Y-125149500D01*
X256899309Y-125149500D01*
X256780691Y-125149500D01*
X256780686Y-125149500D01*
X256745591Y-125158904D01*
X256675741Y-125157240D01*
X256617880Y-125118077D01*
X256590377Y-125053848D01*
X256589500Y-125039129D01*
X256589500Y-124219201D01*
X256589498Y-124219196D01*
X256547560Y-124117944D01*
X254951819Y-122522203D01*
X254918334Y-122460880D01*
X254915500Y-122434522D01*
X254915500Y-112616476D01*
X254935185Y-112549437D01*
X254951815Y-112528799D01*
X255450747Y-112029866D01*
X255512068Y-111996383D01*
X255570521Y-111997775D01*
X255574709Y-111998897D01*
X255580691Y-112000500D01*
X255580692Y-112000500D01*
X255699306Y-112000500D01*
X255699309Y-112000500D01*
X255813886Y-111969799D01*
X255916613Y-111910489D01*
X256000489Y-111826613D01*
X256059799Y-111723886D01*
X256090500Y-111609309D01*
X256090500Y-111490691D01*
X256059799Y-111376114D01*
X256000489Y-111273387D01*
X255916613Y-111189511D01*
X255813886Y-111130201D01*
X255699309Y-111099500D01*
X255580691Y-111099500D01*
X255466114Y-111130201D01*
X255466112Y-111130201D01*
X255466112Y-111130202D01*
X255363387Y-111189511D01*
X255363384Y-111189513D01*
X255279513Y-111273384D01*
X255279511Y-111273387D01*
X255220201Y-111376112D01*
X255190342Y-111487549D01*
X255158248Y-111543136D01*
X254483942Y-112217443D01*
X254406444Y-112294940D01*
X254406443Y-112294941D01*
X254406443Y-112294942D01*
X254364500Y-112396200D01*
X254364500Y-122654800D01*
X254406443Y-122756058D01*
X254406444Y-122756059D01*
X256002181Y-124351796D01*
X256035666Y-124413119D01*
X256038500Y-124439477D01*
X256038500Y-125872677D01*
X256080141Y-125973207D01*
X256080431Y-125973907D01*
X256080443Y-125973935D01*
X256373180Y-126266672D01*
X256406665Y-126327995D01*
X256409499Y-126354353D01*
X256409499Y-131652610D01*
X256409498Y-131696731D01*
X256409499Y-131696733D01*
X256409499Y-131696740D01*
X256411549Y-131701691D01*
X256411550Y-131701694D01*
X256415058Y-131710161D01*
X256424500Y-131757621D01*
X256424500Y-132174523D01*
X256404815Y-132241562D01*
X256388180Y-132262205D01*
X256331769Y-132318615D01*
X256276183Y-132350708D01*
X256166112Y-132380201D01*
X256063387Y-132439511D01*
X256063384Y-132439513D01*
X255987181Y-132515717D01*
X255925858Y-132549202D01*
X255856166Y-132544218D01*
X255800233Y-132502346D01*
X255775816Y-132436882D01*
X255775500Y-132428036D01*
X255775500Y-124805201D01*
X255775500Y-124805200D01*
X255733557Y-124703942D01*
X255733557Y-124703941D01*
X250996058Y-119966443D01*
X250966228Y-119954087D01*
X250966225Y-119954085D01*
X250966224Y-119954085D01*
X250894802Y-119924500D01*
X250894800Y-119924500D01*
X247912964Y-119924500D01*
X247845925Y-119904815D01*
X247825283Y-119888181D01*
X247776615Y-119839513D01*
X247776613Y-119839511D01*
X247673886Y-119780201D01*
X247559309Y-119749500D01*
X247440691Y-119749500D01*
X247326114Y-119780201D01*
X247326112Y-119780201D01*
X247326112Y-119780202D01*
X247223387Y-119839511D01*
X247223384Y-119839513D01*
X247139513Y-119923384D01*
X247139511Y-119923387D01*
X247114863Y-119966079D01*
X247080201Y-120026114D01*
X247049500Y-120140691D01*
X247049500Y-120259309D01*
X247080201Y-120373886D01*
X247139511Y-120476613D01*
X247139513Y-120476615D01*
X247200217Y-120537319D01*
X247233702Y-120598642D01*
X247228718Y-120668334D01*
X247200217Y-120712681D01*
X247139513Y-120773384D01*
X247139511Y-120773387D01*
X247108780Y-120826615D01*
X247080201Y-120876114D01*
X247049500Y-120990691D01*
X247049500Y-121109309D01*
X247080201Y-121223886D01*
X247139511Y-121326613D01*
X247223387Y-121410489D01*
X247326114Y-121469799D01*
X247440691Y-121500500D01*
X247440694Y-121500500D01*
X247559306Y-121500500D01*
X247559309Y-121500500D01*
X247673886Y-121469799D01*
X247776613Y-121410489D01*
X247825283Y-121361819D01*
X247886606Y-121328334D01*
X247912964Y-121325500D01*
X251028135Y-121325500D01*
X251095174Y-121345185D01*
X251115816Y-121361819D01*
X254837181Y-125083184D01*
X254870666Y-125144507D01*
X254873500Y-125170865D01*
X254873500Y-134485522D01*
X254853815Y-134552561D01*
X254837181Y-134573203D01*
X253743942Y-135666443D01*
X253666444Y-135743940D01*
X253624500Y-135845199D01*
X253624500Y-137799536D01*
X253604815Y-137866575D01*
X253588181Y-137887217D01*
X253539513Y-137935884D01*
X253539511Y-137935887D01*
X253480201Y-138038614D01*
X253449500Y-138153191D01*
X253449500Y-138271809D01*
X253480201Y-138386386D01*
X253539511Y-138489113D01*
X253623387Y-138572989D01*
X253726114Y-138632299D01*
X253840691Y-138663000D01*
X253840694Y-138663000D01*
X253959306Y-138663000D01*
X253959309Y-138663000D01*
X254073886Y-138632299D01*
X254073888Y-138632297D01*
X254073890Y-138632297D01*
X254073891Y-138632296D01*
X254178499Y-138571900D01*
X254246399Y-138555426D01*
X254312426Y-138578278D01*
X254355617Y-138633199D01*
X254364500Y-138679286D01*
X254364500Y-139234521D01*
X254344815Y-139301560D01*
X254328181Y-139322202D01*
X253837202Y-139813181D01*
X253775879Y-139846666D01*
X253749521Y-139849500D01*
X253680691Y-139849500D01*
X253566114Y-139880201D01*
X253566112Y-139880201D01*
X253566112Y-139880202D01*
X253463387Y-139939511D01*
X253463384Y-139939513D01*
X253379513Y-140023384D01*
X253379511Y-140023387D01*
X253340652Y-140090693D01*
X253320201Y-140126114D01*
X253289500Y-140240691D01*
X253289500Y-140359309D01*
X253320201Y-140473886D01*
X253379511Y-140576613D01*
X253463387Y-140660489D01*
X253566114Y-140719799D01*
X253680691Y-140750500D01*
X253680694Y-140750500D01*
X253799306Y-140750500D01*
X253799309Y-140750500D01*
X253913886Y-140719799D01*
X254016613Y-140660489D01*
X254100489Y-140576613D01*
X254159799Y-140473886D01*
X254190500Y-140359309D01*
X254190500Y-140290477D01*
X254210185Y-140223438D01*
X254226819Y-140202796D01*
X254549414Y-139880202D01*
X254873557Y-139556059D01*
X254885841Y-139526400D01*
X254915500Y-139454800D01*
X254915500Y-136364423D01*
X254935185Y-136297384D01*
X254951819Y-136276742D01*
X254988744Y-136239817D01*
X255048054Y-136137090D01*
X255078755Y-136022513D01*
X255078755Y-135903895D01*
X255064943Y-135852348D01*
X255066606Y-135782501D01*
X255097035Y-135732578D01*
X255733558Y-135096058D01*
X255733558Y-135096056D01*
X255733560Y-135096055D01*
X255766389Y-135016796D01*
X255775500Y-134994800D01*
X255775500Y-134885200D01*
X255775500Y-133171964D01*
X255795185Y-133104925D01*
X255847989Y-133059170D01*
X255917147Y-133049226D01*
X255980703Y-133078251D01*
X255987181Y-133084283D01*
X256063387Y-133160489D01*
X256166114Y-133219799D01*
X256280691Y-133250500D01*
X256280694Y-133250500D01*
X256399306Y-133250500D01*
X256399309Y-133250500D01*
X256513886Y-133219799D01*
X256616613Y-133160489D01*
X256700489Y-133076613D01*
X256759799Y-132973886D01*
X256790500Y-132859309D01*
X256790500Y-132740691D01*
X256787563Y-132729730D01*
X256789226Y-132659884D01*
X256819657Y-132609958D01*
X256912819Y-132516796D01*
X256974142Y-132483311D01*
X257043834Y-132488295D01*
X257099767Y-132530167D01*
X257124184Y-132595631D01*
X257124500Y-132604477D01*
X257124500Y-139034522D01*
X257104815Y-139101561D01*
X257088181Y-139122203D01*
X256547203Y-139663181D01*
X256485880Y-139696666D01*
X256459522Y-139699500D01*
X256390691Y-139699500D01*
X256276114Y-139730201D01*
X256276112Y-139730201D01*
X256276112Y-139730202D01*
X256173387Y-139789511D01*
X256173384Y-139789513D01*
X256089513Y-139873384D01*
X256089511Y-139873387D01*
X256037852Y-139962863D01*
X256030201Y-139976114D01*
X255999500Y-140090691D01*
X255999500Y-140209309D01*
X256030201Y-140323886D01*
X256089511Y-140426613D01*
X256173387Y-140510489D01*
X256276114Y-140569799D01*
X256390691Y-140600500D01*
X256390694Y-140600500D01*
X256509306Y-140600500D01*
X256509309Y-140600500D01*
X256623886Y-140569799D01*
X256726613Y-140510489D01*
X256810489Y-140426613D01*
X256869799Y-140323886D01*
X256900500Y-140209309D01*
X256900500Y-140140476D01*
X256920185Y-140073437D01*
X256936819Y-140052795D01*
X257633555Y-139356060D01*
X257633555Y-139356059D01*
X257633557Y-139356058D01*
X257675500Y-139254800D01*
X257675500Y-133667582D01*
X257695185Y-133600543D01*
X257747989Y-133554788D01*
X257817147Y-133544844D01*
X257880703Y-133573869D01*
X257888483Y-133581223D01*
X257901712Y-133594854D01*
X257904443Y-133601447D01*
X258028824Y-133725828D01*
X258029483Y-133726507D01*
X258045348Y-133756624D01*
X258061666Y-133786508D01*
X258061813Y-133787880D01*
X258062047Y-133788324D01*
X258061964Y-133789280D01*
X258064500Y-133812866D01*
X258064500Y-136694802D01*
X258089058Y-136754088D01*
X258089057Y-136754088D01*
X258106441Y-136796055D01*
X258106444Y-136796059D01*
X259032258Y-137721873D01*
X259065743Y-137783196D01*
X259060759Y-137852888D01*
X259059139Y-137857003D01*
X259037950Y-137908159D01*
X259037947Y-137908171D01*
X258999500Y-138101456D01*
X258999500Y-138101459D01*
X258999500Y-138298541D01*
X258999500Y-138298543D01*
X258999499Y-138298543D01*
X259037947Y-138491829D01*
X259037950Y-138491839D01*
X259113364Y-138673907D01*
X259113371Y-138673920D01*
X259222860Y-138837781D01*
X259222863Y-138837785D01*
X259362214Y-138977136D01*
X259362218Y-138977139D01*
X259526079Y-139086628D01*
X259526092Y-139086635D01*
X259708160Y-139162049D01*
X259708165Y-139162051D01*
X259899691Y-139200148D01*
X259961602Y-139232533D01*
X259996176Y-139293248D01*
X259999500Y-139321765D01*
X259999500Y-139618234D01*
X259979815Y-139685273D01*
X259927011Y-139731028D01*
X259899692Y-139739851D01*
X259708170Y-139777947D01*
X259708160Y-139777950D01*
X259526092Y-139853364D01*
X259526079Y-139853371D01*
X259362218Y-139962860D01*
X259362214Y-139962863D01*
X259222863Y-140102214D01*
X259222860Y-140102218D01*
X259113371Y-140266079D01*
X259113364Y-140266092D01*
X259037950Y-140448160D01*
X259037947Y-140448170D01*
X258999500Y-140641456D01*
X258999500Y-140641459D01*
X258999500Y-140838541D01*
X258999500Y-140838543D01*
X258999499Y-140838543D01*
X259037947Y-141031829D01*
X259037950Y-141031839D01*
X259113364Y-141213907D01*
X259113371Y-141213920D01*
X259222860Y-141377781D01*
X259222863Y-141377785D01*
X259362214Y-141517136D01*
X259362218Y-141517139D01*
X259526079Y-141626628D01*
X259526092Y-141626635D01*
X259704423Y-141700501D01*
X259708165Y-141702051D01*
X259899691Y-141740148D01*
X259961602Y-141772533D01*
X259996176Y-141833248D01*
X259999500Y-141861765D01*
X259999500Y-142158234D01*
X259979815Y-142225273D01*
X259927011Y-142271028D01*
X259899692Y-142279851D01*
X259708170Y-142317947D01*
X259708160Y-142317950D01*
X259526092Y-142393364D01*
X259526079Y-142393371D01*
X259362218Y-142502860D01*
X259362214Y-142502863D01*
X259222863Y-142642214D01*
X259222860Y-142642218D01*
X259113371Y-142806079D01*
X259113364Y-142806092D01*
X259037950Y-142988160D01*
X259037947Y-142988170D01*
X258999500Y-143181456D01*
X258999500Y-143181459D01*
X258999500Y-143378541D01*
X258999500Y-143378543D01*
X258999499Y-143378543D01*
X259037947Y-143571829D01*
X259037950Y-143571839D01*
X259113364Y-143753907D01*
X259113371Y-143753920D01*
X259222860Y-143917781D01*
X259222863Y-143917785D01*
X259362214Y-144057136D01*
X259362218Y-144057139D01*
X259526079Y-144166628D01*
X259526092Y-144166635D01*
X259708160Y-144242049D01*
X259708165Y-144242051D01*
X259899691Y-144280148D01*
X259961602Y-144312533D01*
X259996176Y-144373248D01*
X259999500Y-144401765D01*
X259999500Y-144698234D01*
X259979815Y-144765273D01*
X259927011Y-144811028D01*
X259899692Y-144819851D01*
X259708170Y-144857947D01*
X259708160Y-144857950D01*
X259526092Y-144933364D01*
X259526079Y-144933371D01*
X259362218Y-145042860D01*
X259362214Y-145042863D01*
X259222863Y-145182214D01*
X259222860Y-145182218D01*
X259113371Y-145346079D01*
X259113364Y-145346092D01*
X259037950Y-145528160D01*
X259037947Y-145528170D01*
X258999500Y-145721456D01*
X258999500Y-145721459D01*
X258999500Y-145918541D01*
X258999500Y-145918543D01*
X258999499Y-145918543D01*
X259037947Y-146111829D01*
X259037950Y-146111839D01*
X259113364Y-146293907D01*
X259113371Y-146293920D01*
X259222860Y-146457781D01*
X259222863Y-146457785D01*
X259362214Y-146597136D01*
X259362218Y-146597139D01*
X259526079Y-146706628D01*
X259526092Y-146706635D01*
X259622206Y-146746446D01*
X259708165Y-146782051D01*
X259899691Y-146820148D01*
X259927814Y-146834858D01*
X259956703Y-146848052D01*
X259958560Y-146850941D01*
X259961602Y-146852533D01*
X259977308Y-146880115D01*
X259994477Y-146906830D01*
X259995137Y-146911424D01*
X259996176Y-146913248D01*
X259999500Y-146941765D01*
X259999500Y-146975500D01*
X259979815Y-147042539D01*
X259927011Y-147088294D01*
X259875500Y-147099500D01*
X258581766Y-147099500D01*
X258514727Y-147079815D01*
X258468972Y-147027011D01*
X258460149Y-146999692D01*
X258422052Y-146808170D01*
X258422051Y-146808169D01*
X258422051Y-146808165D01*
X258411234Y-146782051D01*
X258346635Y-146626092D01*
X258346628Y-146626079D01*
X258237139Y-146462218D01*
X258237136Y-146462214D01*
X258097785Y-146322863D01*
X258097781Y-146322860D01*
X257933920Y-146213371D01*
X257933907Y-146213364D01*
X257751839Y-146137950D01*
X257751829Y-146137947D01*
X257558543Y-146099500D01*
X257558541Y-146099500D01*
X257361459Y-146099500D01*
X257361457Y-146099500D01*
X257168170Y-146137947D01*
X257168160Y-146137950D01*
X256986092Y-146213364D01*
X256986079Y-146213371D01*
X256822218Y-146322860D01*
X256822214Y-146322863D01*
X256682863Y-146462214D01*
X256682860Y-146462218D01*
X256573371Y-146626079D01*
X256573364Y-146626092D01*
X256497950Y-146808160D01*
X256497947Y-146808170D01*
X256459851Y-146999692D01*
X256427466Y-147061603D01*
X256366750Y-147096177D01*
X256338234Y-147099500D01*
X256041766Y-147099500D01*
X255974727Y-147079815D01*
X255928972Y-147027011D01*
X255920149Y-146999692D01*
X255882052Y-146808170D01*
X255882051Y-146808169D01*
X255882051Y-146808165D01*
X255871234Y-146782051D01*
X255806635Y-146626092D01*
X255806628Y-146626079D01*
X255697139Y-146462218D01*
X255697136Y-146462214D01*
X255557785Y-146322863D01*
X255557781Y-146322860D01*
X255393920Y-146213371D01*
X255393907Y-146213364D01*
X255211839Y-146137950D01*
X255211829Y-146137947D01*
X255018543Y-146099500D01*
X255018541Y-146099500D01*
X254821459Y-146099500D01*
X254821457Y-146099500D01*
X254628170Y-146137947D01*
X254628160Y-146137950D01*
X254446092Y-146213364D01*
X254446079Y-146213371D01*
X254282218Y-146322860D01*
X254282214Y-146322863D01*
X254142863Y-146462214D01*
X254142860Y-146462218D01*
X254033371Y-146626079D01*
X254033364Y-146626092D01*
X253957950Y-146808160D01*
X253957947Y-146808170D01*
X253921965Y-146989062D01*
X253889580Y-147050973D01*
X253828864Y-147085547D01*
X253759094Y-147081806D01*
X253702423Y-147040940D01*
X253677875Y-146984268D01*
X253647990Y-146795582D01*
X253584755Y-146600968D01*
X253491859Y-146418650D01*
X253459474Y-146374077D01*
X253459474Y-146374076D01*
X252780000Y-147053553D01*
X252780000Y-147047339D01*
X252752741Y-146945606D01*
X252700080Y-146854394D01*
X252625606Y-146779920D01*
X252534394Y-146727259D01*
X252432661Y-146700000D01*
X252426446Y-146700000D01*
X253105922Y-146020524D01*
X253105921Y-146020523D01*
X253061359Y-145988147D01*
X253061350Y-145988141D01*
X252879031Y-145895244D01*
X252684417Y-145832009D01*
X252482317Y-145800000D01*
X252277683Y-145800000D01*
X252075582Y-145832009D01*
X251880968Y-145895244D01*
X251698644Y-145988143D01*
X251654077Y-146020523D01*
X251654077Y-146020524D01*
X252333554Y-146700000D01*
X252327339Y-146700000D01*
X252225606Y-146727259D01*
X252134394Y-146779920D01*
X252059920Y-146854394D01*
X252007259Y-146945606D01*
X251980000Y-147047339D01*
X251980000Y-147053553D01*
X251300524Y-146374077D01*
X251300523Y-146374077D01*
X251268143Y-146418644D01*
X251175244Y-146600968D01*
X251112010Y-146795581D01*
X251082124Y-146984269D01*
X251052194Y-147047403D01*
X250992883Y-147084334D01*
X250923020Y-147083336D01*
X250864788Y-147044726D01*
X250838034Y-146989061D01*
X250828409Y-146940674D01*
X250802051Y-146808165D01*
X250791234Y-146782051D01*
X250726635Y-146626092D01*
X250726628Y-146626079D01*
X250617139Y-146462218D01*
X250617136Y-146462214D01*
X250477785Y-146322863D01*
X250477781Y-146322860D01*
X250313920Y-146213371D01*
X250313907Y-146213364D01*
X250239016Y-146182344D01*
X250131839Y-146137950D01*
X250131829Y-146137947D01*
X249938543Y-146099500D01*
X249938541Y-146099500D01*
X249741459Y-146099500D01*
X249741457Y-146099500D01*
X249548170Y-146137947D01*
X249548160Y-146137950D01*
X249366092Y-146213364D01*
X249366079Y-146213371D01*
X249202218Y-146322860D01*
X249202214Y-146322863D01*
X249062863Y-146462214D01*
X249062860Y-146462218D01*
X248953371Y-146626079D01*
X248953364Y-146626092D01*
X248877950Y-146808160D01*
X248877947Y-146808170D01*
X248839851Y-146999692D01*
X248807466Y-147061603D01*
X248746750Y-147096177D01*
X248718234Y-147099500D01*
X248421766Y-147099500D01*
X248354727Y-147079815D01*
X248308972Y-147027011D01*
X248300149Y-146999692D01*
X248262052Y-146808170D01*
X248262051Y-146808169D01*
X248262051Y-146808165D01*
X248251234Y-146782051D01*
X248186635Y-146626092D01*
X248186628Y-146626079D01*
X248077139Y-146462218D01*
X248077136Y-146462214D01*
X247937785Y-146322863D01*
X247937781Y-146322860D01*
X247773920Y-146213371D01*
X247773907Y-146213364D01*
X247591839Y-146137950D01*
X247591829Y-146137947D01*
X247398543Y-146099500D01*
X247398541Y-146099500D01*
X247201459Y-146099500D01*
X247201457Y-146099500D01*
X247008170Y-146137947D01*
X247008160Y-146137950D01*
X246826092Y-146213364D01*
X246826079Y-146213371D01*
X246662218Y-146322860D01*
X246662214Y-146322863D01*
X246522863Y-146462214D01*
X246522860Y-146462218D01*
X246413371Y-146626079D01*
X246413364Y-146626092D01*
X246337950Y-146808160D01*
X246337947Y-146808170D01*
X246299851Y-146999692D01*
X246267466Y-147061603D01*
X246206750Y-147096177D01*
X246178234Y-147099500D01*
X245881766Y-147099500D01*
X245814727Y-147079815D01*
X245768972Y-147027011D01*
X245760149Y-146999692D01*
X245722052Y-146808170D01*
X245722051Y-146808169D01*
X245722051Y-146808165D01*
X245711234Y-146782051D01*
X245646635Y-146626092D01*
X245646628Y-146626079D01*
X245537139Y-146462218D01*
X245537136Y-146462214D01*
X245397785Y-146322863D01*
X245397781Y-146322860D01*
X245233920Y-146213371D01*
X245233907Y-146213364D01*
X245051839Y-146137950D01*
X245051829Y-146137947D01*
X244858543Y-146099500D01*
X244858541Y-146099500D01*
X244661459Y-146099500D01*
X244661457Y-146099500D01*
X244468170Y-146137947D01*
X244468160Y-146137950D01*
X244286092Y-146213364D01*
X244286079Y-146213371D01*
X244122218Y-146322860D01*
X244122214Y-146322863D01*
X243982863Y-146462214D01*
X243982860Y-146462218D01*
X243873371Y-146626079D01*
X243873364Y-146626092D01*
X243797950Y-146808160D01*
X243797947Y-146808170D01*
X243759851Y-146999692D01*
X243727466Y-147061603D01*
X243666750Y-147096177D01*
X243638234Y-147099500D01*
X243344500Y-147099500D01*
X243277461Y-147079815D01*
X243231706Y-147027011D01*
X243220500Y-146975500D01*
X243220500Y-146280249D01*
X243220499Y-146280247D01*
X243208868Y-146221770D01*
X243208867Y-146221769D01*
X243164552Y-146155447D01*
X243098230Y-146111132D01*
X243098229Y-146111131D01*
X243039752Y-146099500D01*
X243039748Y-146099500D01*
X241400252Y-146099500D01*
X241400247Y-146099500D01*
X241341770Y-146111131D01*
X241341769Y-146111132D01*
X241275447Y-146155447D01*
X241231132Y-146221769D01*
X241231131Y-146221770D01*
X241219500Y-146280247D01*
X241219500Y-146975500D01*
X241199815Y-147042539D01*
X241147011Y-147088294D01*
X241095500Y-147099500D01*
X239804500Y-147099500D01*
X239795814Y-147096949D01*
X239786853Y-147098238D01*
X239762812Y-147087259D01*
X239737461Y-147079815D01*
X239731533Y-147072974D01*
X239723297Y-147069213D01*
X239709007Y-147046978D01*
X239691706Y-147027011D01*
X239689418Y-147016496D01*
X239685523Y-147010435D01*
X239680500Y-146975500D01*
X239680500Y-146961765D01*
X239700185Y-146894726D01*
X239752989Y-146848971D01*
X239780306Y-146840148D01*
X239971835Y-146802051D01*
X240112655Y-146743721D01*
X240153907Y-146726635D01*
X240153907Y-146726634D01*
X240153914Y-146726632D01*
X240317782Y-146617139D01*
X240457139Y-146477782D01*
X240566632Y-146313914D01*
X240642051Y-146131835D01*
X240654632Y-146068582D01*
X240680500Y-145938543D01*
X240680500Y-145741456D01*
X240642052Y-145548170D01*
X240642051Y-145548169D01*
X240642051Y-145548165D01*
X240633765Y-145528160D01*
X240566635Y-145366092D01*
X240566628Y-145366079D01*
X240457139Y-145202218D01*
X240457136Y-145202214D01*
X240317785Y-145062863D01*
X240317781Y-145062860D01*
X240153920Y-144953371D01*
X240153907Y-144953364D01*
X239971839Y-144877950D01*
X239971829Y-144877947D01*
X239780308Y-144839851D01*
X239718397Y-144807466D01*
X239683823Y-144746750D01*
X239680500Y-144718234D01*
X239680500Y-144421765D01*
X239700185Y-144354726D01*
X239752989Y-144308971D01*
X239780306Y-144300148D01*
X239971835Y-144262051D01*
X240153914Y-144186632D01*
X240317782Y-144077139D01*
X240457139Y-143937782D01*
X240566632Y-143773914D01*
X240642051Y-143591835D01*
X240680500Y-143398541D01*
X240680500Y-143201459D01*
X240680500Y-143201456D01*
X240642052Y-143008170D01*
X240642051Y-143008169D01*
X240642051Y-143008165D01*
X240629472Y-142977796D01*
X240566635Y-142826092D01*
X240566628Y-142826079D01*
X240457139Y-142662218D01*
X240457136Y-142662214D01*
X240317785Y-142522863D01*
X240317781Y-142522860D01*
X240153920Y-142413371D01*
X240153907Y-142413364D01*
X239971839Y-142337950D01*
X239971829Y-142337947D01*
X239780308Y-142299851D01*
X239718397Y-142267466D01*
X239683823Y-142206750D01*
X239680500Y-142178234D01*
X239680500Y-141881765D01*
X239700185Y-141814726D01*
X239752989Y-141768971D01*
X239780306Y-141760148D01*
X239971835Y-141722051D01*
X240153914Y-141646632D01*
X240317782Y-141537139D01*
X240457139Y-141397782D01*
X240566632Y-141233914D01*
X240642051Y-141051835D01*
X240675061Y-140885884D01*
X240680500Y-140858543D01*
X240680500Y-140661456D01*
X240642052Y-140468170D01*
X240642051Y-140468169D01*
X240642051Y-140468165D01*
X240596962Y-140359309D01*
X240566635Y-140286092D01*
X240566628Y-140286079D01*
X240457139Y-140122218D01*
X240457136Y-140122214D01*
X240317785Y-139982863D01*
X240317781Y-139982860D01*
X240153920Y-139873371D01*
X240153907Y-139873364D01*
X239971839Y-139797950D01*
X239971829Y-139797947D01*
X239780308Y-139759851D01*
X239718397Y-139727466D01*
X239683823Y-139666750D01*
X239680500Y-139638234D01*
X239680500Y-139341765D01*
X239700185Y-139274726D01*
X239752989Y-139228971D01*
X239780306Y-139220148D01*
X239971835Y-139182051D01*
X240153914Y-139106632D01*
X240317782Y-138997139D01*
X240457139Y-138857782D01*
X240566632Y-138693914D01*
X240642051Y-138511835D01*
X240654632Y-138448582D01*
X240680500Y-138318543D01*
X240680500Y-138121456D01*
X240642052Y-137928170D01*
X240642051Y-137928169D01*
X240642051Y-137928165D01*
X240588641Y-137799222D01*
X240581173Y-137729757D01*
X240612448Y-137667277D01*
X240615490Y-137664124D01*
X241073558Y-137206058D01*
X241073558Y-137206056D01*
X241073560Y-137206055D01*
X241106408Y-137126750D01*
X241115500Y-137104800D01*
X241115500Y-136995200D01*
X241115500Y-135265477D01*
X241135185Y-135198438D01*
X241151819Y-135177796D01*
X241824554Y-134505062D01*
X241824554Y-134505061D01*
X241824557Y-134505059D01*
X241836841Y-134475400D01*
X241866500Y-134403800D01*
X241866500Y-128530932D01*
X241886185Y-128463893D01*
X241938989Y-128418138D01*
X241958408Y-128411157D01*
X241963800Y-128409713D01*
X242066527Y-128350403D01*
X242150403Y-128266527D01*
X242209713Y-128163800D01*
X242240414Y-128049223D01*
X242240414Y-127930605D01*
X242209713Y-127816028D01*
X242150403Y-127713301D01*
X242082710Y-127645608D01*
X242049225Y-127584285D01*
X242054209Y-127514593D01*
X242072023Y-127482430D01*
X242076481Y-127476620D01*
X242076489Y-127476613D01*
X242135799Y-127373886D01*
X242166500Y-127259309D01*
X242166500Y-127140691D01*
X242135799Y-127026114D01*
X242076489Y-126923387D01*
X241992613Y-126839511D01*
X241889886Y-126780201D01*
X241775309Y-126749500D01*
X241656691Y-126749500D01*
X241542114Y-126780201D01*
X241542112Y-126780201D01*
X241542112Y-126780202D01*
X241439387Y-126839511D01*
X241439384Y-126839513D01*
X241355513Y-126923384D01*
X241355511Y-126923387D01*
X241324780Y-126976615D01*
X241296201Y-127026114D01*
X241265500Y-127140691D01*
X241265500Y-127140693D01*
X241265500Y-127262124D01*
X241256856Y-127291560D01*
X241250333Y-127321550D01*
X241246577Y-127326567D01*
X241245815Y-127329163D01*
X241229182Y-127349805D01*
X241083942Y-127495047D01*
X241006443Y-127572546D01*
X240964500Y-127673803D01*
X240964500Y-133944522D01*
X240944815Y-134011561D01*
X240928181Y-134032203D01*
X240221765Y-134738618D01*
X240160442Y-134772103D01*
X240090750Y-134767119D01*
X240086632Y-134765498D01*
X239971839Y-134717950D01*
X239971829Y-134717947D01*
X239780308Y-134679851D01*
X239718397Y-134647466D01*
X239683823Y-134586750D01*
X239680500Y-134558234D01*
X239680500Y-134261765D01*
X239700185Y-134194726D01*
X239752989Y-134148971D01*
X239780306Y-134140148D01*
X239971835Y-134102051D01*
X240153914Y-134026632D01*
X240317782Y-133917139D01*
X240457139Y-133777782D01*
X240566632Y-133613914D01*
X240642051Y-133431835D01*
X240657693Y-133353197D01*
X240680500Y-133238543D01*
X240680500Y-133041456D01*
X240642052Y-132848170D01*
X240642051Y-132848169D01*
X240642051Y-132848165D01*
X240597534Y-132740691D01*
X240566635Y-132666092D01*
X240566628Y-132666079D01*
X240457139Y-132502218D01*
X240457136Y-132502214D01*
X240317785Y-132362863D01*
X240317781Y-132362860D01*
X240153920Y-132253371D01*
X240153907Y-132253364D01*
X239971839Y-132177950D01*
X239971829Y-132177947D01*
X239780308Y-132139851D01*
X239718397Y-132107466D01*
X239683823Y-132046750D01*
X239680500Y-132018234D01*
X239680500Y-131721765D01*
X239700185Y-131654726D01*
X239752989Y-131608971D01*
X239780306Y-131600148D01*
X239971835Y-131562051D01*
X240153914Y-131486632D01*
X240317782Y-131377139D01*
X240457139Y-131237782D01*
X240566632Y-131073914D01*
X240642051Y-130891835D01*
X240668178Y-130760489D01*
X240680500Y-130698543D01*
X240680500Y-130501456D01*
X240642052Y-130308170D01*
X240642051Y-130308169D01*
X240642051Y-130308165D01*
X240608064Y-130226112D01*
X240566635Y-130126092D01*
X240566628Y-130126079D01*
X240457139Y-129962218D01*
X240457136Y-129962214D01*
X240317785Y-129822863D01*
X240317781Y-129822860D01*
X240153920Y-129713371D01*
X240153907Y-129713364D01*
X239971839Y-129637950D01*
X239971829Y-129637947D01*
X239780308Y-129599851D01*
X239718397Y-129567466D01*
X239683823Y-129506750D01*
X239680500Y-129478234D01*
X239680500Y-129181765D01*
X239700185Y-129114726D01*
X239752989Y-129068971D01*
X239780306Y-129060148D01*
X239971835Y-129022051D01*
X240153914Y-128946632D01*
X240317782Y-128837139D01*
X240457139Y-128697782D01*
X240566632Y-128533914D01*
X240642051Y-128351835D01*
X240676661Y-128177841D01*
X240680500Y-128158543D01*
X240680500Y-127961456D01*
X240642052Y-127768170D01*
X240642051Y-127768169D01*
X240642051Y-127768165D01*
X240602966Y-127673804D01*
X240566635Y-127586092D01*
X240566628Y-127586079D01*
X240457139Y-127422218D01*
X240457136Y-127422214D01*
X240317785Y-127282863D01*
X240317781Y-127282860D01*
X240153920Y-127173371D01*
X240153907Y-127173364D01*
X239971839Y-127097950D01*
X239971829Y-127097947D01*
X239780308Y-127059851D01*
X239718397Y-127027466D01*
X239683823Y-126966750D01*
X239680500Y-126938234D01*
X239680500Y-126641765D01*
X239700185Y-126574726D01*
X239752989Y-126528971D01*
X239780306Y-126520148D01*
X239971835Y-126482051D01*
X240153914Y-126406632D01*
X240317782Y-126297139D01*
X240457139Y-126157782D01*
X240566632Y-125993914D01*
X240642051Y-125811835D01*
X240668205Y-125680350D01*
X240680500Y-125618543D01*
X240680500Y-125421456D01*
X240642052Y-125228170D01*
X240642051Y-125228169D01*
X240642051Y-125228165D01*
X240618317Y-125170865D01*
X240566635Y-125046092D01*
X240566628Y-125046079D01*
X240457139Y-124882218D01*
X240457136Y-124882214D01*
X240317785Y-124742863D01*
X240317781Y-124742860D01*
X240153920Y-124633371D01*
X240153907Y-124633364D01*
X239971839Y-124557950D01*
X239971829Y-124557947D01*
X239780308Y-124519851D01*
X239718397Y-124487466D01*
X239683823Y-124426750D01*
X239680500Y-124398234D01*
X239680500Y-124101765D01*
X239700185Y-124034726D01*
X239752989Y-123988971D01*
X239780306Y-123980148D01*
X239971835Y-123942051D01*
X240153914Y-123866632D01*
X240317782Y-123757139D01*
X240457139Y-123617782D01*
X240566632Y-123453914D01*
X240642051Y-123271835D01*
X240663478Y-123164115D01*
X240680500Y-123078543D01*
X240680500Y-122881456D01*
X240642052Y-122688170D01*
X240642051Y-122688169D01*
X240642051Y-122688165D01*
X240611811Y-122615159D01*
X240566635Y-122506092D01*
X240566628Y-122506079D01*
X240457139Y-122342218D01*
X240457136Y-122342214D01*
X240317785Y-122202863D01*
X240317781Y-122202860D01*
X240153920Y-122093371D01*
X240153907Y-122093364D01*
X239971839Y-122017950D01*
X239971829Y-122017947D01*
X239780308Y-121979851D01*
X239718397Y-121947466D01*
X239683823Y-121886750D01*
X239680500Y-121858234D01*
X239680500Y-121561765D01*
X239700185Y-121494726D01*
X239752989Y-121448971D01*
X239780306Y-121440148D01*
X239971835Y-121402051D01*
X240153914Y-121326632D01*
X240317782Y-121217139D01*
X240457139Y-121077782D01*
X240566632Y-120913914D01*
X240642051Y-120731835D01*
X240658059Y-120651358D01*
X240680500Y-120538543D01*
X240680500Y-120341456D01*
X240642052Y-120148170D01*
X240642051Y-120148169D01*
X240642051Y-120148165D01*
X240623497Y-120103371D01*
X240566635Y-119966092D01*
X240566628Y-119966079D01*
X240457139Y-119802218D01*
X240457136Y-119802214D01*
X240317785Y-119662863D01*
X240317781Y-119662860D01*
X240153920Y-119553371D01*
X240153907Y-119553364D01*
X239971839Y-119477950D01*
X239971829Y-119477947D01*
X239780308Y-119439851D01*
X239718397Y-119407466D01*
X239683823Y-119346750D01*
X239680500Y-119318234D01*
X239680500Y-119021765D01*
X239700185Y-118954726D01*
X239752989Y-118908971D01*
X239780306Y-118900148D01*
X239971835Y-118862051D01*
X240153914Y-118786632D01*
X240317782Y-118677139D01*
X240457139Y-118537782D01*
X240566632Y-118373914D01*
X240642051Y-118191835D01*
X240680500Y-117998541D01*
X240680500Y-117801459D01*
X240680500Y-117801456D01*
X240642052Y-117608170D01*
X240642051Y-117608169D01*
X240642051Y-117608165D01*
X240586112Y-117473115D01*
X240566635Y-117426092D01*
X240566628Y-117426079D01*
X240457139Y-117262218D01*
X240457136Y-117262214D01*
X240317785Y-117122863D01*
X240317781Y-117122860D01*
X240153920Y-117013371D01*
X240153907Y-117013364D01*
X239971839Y-116937950D01*
X239971829Y-116937947D01*
X239780308Y-116899851D01*
X239718397Y-116867466D01*
X239683823Y-116806750D01*
X239680500Y-116778234D01*
X239680500Y-116484500D01*
X239700185Y-116417461D01*
X239752989Y-116371706D01*
X239804500Y-116360500D01*
X240499750Y-116360500D01*
X240499751Y-116360499D01*
X240514568Y-116357552D01*
X240558229Y-116348868D01*
X240558229Y-116348867D01*
X240558231Y-116348867D01*
X240624552Y-116304552D01*
X240668867Y-116238231D01*
X240668867Y-116238229D01*
X240668868Y-116238229D01*
X240680499Y-116179752D01*
X240680500Y-116179750D01*
X240680500Y-115824500D01*
X240683050Y-115815814D01*
X240681762Y-115806853D01*
X240692740Y-115782812D01*
X240700185Y-115757461D01*
X240707025Y-115751533D01*
X240710787Y-115743297D01*
X240733021Y-115729007D01*
X240752989Y-115711706D01*
X240763503Y-115709418D01*
X240769565Y-115705523D01*
X240804500Y-115700500D01*
X240815500Y-115700500D01*
X240882539Y-115720185D01*
X240928294Y-115772989D01*
X240939500Y-115824500D01*
X240939500Y-124701727D01*
X240966793Y-124803587D01*
X241019520Y-124894913D01*
X241094087Y-124969480D01*
X241101242Y-124973611D01*
X241126925Y-124993318D01*
X243003181Y-126869574D01*
X243036666Y-126930897D01*
X243039500Y-126957255D01*
X243039500Y-135434460D01*
X243022887Y-135496460D01*
X242973609Y-135581810D01*
X242973609Y-135581811D01*
X242973608Y-135581813D01*
X242973608Y-135581814D01*
X242939500Y-135709108D01*
X242939500Y-135840892D01*
X242956381Y-135903895D01*
X242973608Y-135968187D01*
X242979156Y-135977796D01*
X243039500Y-136082314D01*
X243132686Y-136175500D01*
X243139653Y-136179522D01*
X243165336Y-136199229D01*
X243294418Y-136328311D01*
X243327903Y-136389634D01*
X243322919Y-136459326D01*
X243281047Y-136515259D01*
X243254186Y-136530555D01*
X243246812Y-136533609D01*
X243132686Y-136599500D01*
X243132683Y-136599502D01*
X243039502Y-136692683D01*
X243039500Y-136692686D01*
X242973608Y-136806812D01*
X242939500Y-136934108D01*
X242939500Y-137065891D01*
X242973608Y-137193188D01*
X242982886Y-137209256D01*
X242999500Y-137271258D01*
X242999500Y-143459461D01*
X242982889Y-143521458D01*
X242980202Y-143526111D01*
X242980201Y-143526112D01*
X242967952Y-143571829D01*
X242949500Y-143640691D01*
X242949500Y-143759309D01*
X242980201Y-143873886D01*
X243039511Y-143976613D01*
X243123387Y-144060489D01*
X243226114Y-144119799D01*
X243340691Y-144150500D01*
X243340694Y-144150500D01*
X243409522Y-144150500D01*
X243476561Y-144170185D01*
X243497203Y-144186819D01*
X243843938Y-144533555D01*
X243843939Y-144533555D01*
X243843941Y-144533557D01*
X243855661Y-144538411D01*
X243858318Y-144539512D01*
X243945197Y-144575499D01*
X243945198Y-144575499D01*
X243945200Y-144575500D01*
X248625500Y-144575500D01*
X248692539Y-144595185D01*
X248738294Y-144647989D01*
X248749500Y-144699500D01*
X248749500Y-144709311D01*
X248780201Y-144823888D01*
X248839511Y-144926615D01*
X248923387Y-145010491D01*
X249026114Y-145069801D01*
X249140691Y-145100502D01*
X249140694Y-145100502D01*
X249259306Y-145100502D01*
X249259309Y-145100502D01*
X249373886Y-145069801D01*
X249476613Y-145010491D01*
X249560489Y-144926615D01*
X249619799Y-144823888D01*
X249650500Y-144709311D01*
X249650500Y-144590693D01*
X249619799Y-144476116D01*
X249560489Y-144373389D01*
X249476613Y-144289513D01*
X249373886Y-144230203D01*
X249259309Y-144199502D01*
X249140691Y-144199502D01*
X249140480Y-144199502D01*
X249116219Y-144192378D01*
X249091123Y-144189256D01*
X249080139Y-144181783D01*
X249073441Y-144179817D01*
X249061074Y-144170742D01*
X249056765Y-144167150D01*
X248956058Y-144066443D01*
X248933596Y-144057139D01*
X248916147Y-144049911D01*
X248854802Y-144024500D01*
X248854800Y-144024500D01*
X244165478Y-144024500D01*
X244098439Y-144004815D01*
X244077797Y-143988181D01*
X243886819Y-143797203D01*
X243853334Y-143735880D01*
X243850500Y-143709522D01*
X243850500Y-143640693D01*
X243850500Y-143640691D01*
X243819799Y-143526114D01*
X243817111Y-143521458D01*
X243800500Y-143459461D01*
X243800500Y-137398676D01*
X243800865Y-137397431D01*
X243800525Y-137396180D01*
X243810686Y-137363985D01*
X243820185Y-137331637D01*
X243821164Y-137330788D01*
X243821555Y-137329550D01*
X243836819Y-137310995D01*
X243840500Y-137307314D01*
X243855679Y-137281022D01*
X243906246Y-137232808D01*
X243974853Y-137219584D01*
X244039718Y-137245552D01*
X244070452Y-137281020D01*
X244097887Y-137328540D01*
X244114500Y-137390539D01*
X244114500Y-139467726D01*
X244141793Y-139569589D01*
X244168156Y-139615250D01*
X244194520Y-139660913D01*
X246079518Y-141545910D01*
X246079520Y-141545913D01*
X246154087Y-141620480D01*
X246164743Y-141626632D01*
X246245413Y-141673207D01*
X246347273Y-141700501D01*
X246347275Y-141700501D01*
X246460323Y-141700501D01*
X246460339Y-141700500D01*
X250459462Y-141700500D01*
X250521463Y-141717114D01*
X250526109Y-141719796D01*
X250526110Y-141719797D01*
X250526114Y-141719799D01*
X250640691Y-141750500D01*
X250640694Y-141750500D01*
X250759306Y-141750500D01*
X250759309Y-141750500D01*
X250873886Y-141719799D01*
X250976613Y-141660489D01*
X251060489Y-141576613D01*
X251119799Y-141473886D01*
X251150500Y-141359309D01*
X251150500Y-141290476D01*
X251170185Y-141223437D01*
X251186819Y-141202795D01*
X251444415Y-140945200D01*
X251733557Y-140656058D01*
X251775500Y-140554800D01*
X251775500Y-140445200D01*
X251775500Y-137590476D01*
X251795185Y-137523437D01*
X251811815Y-137502799D01*
X252027795Y-137286818D01*
X252050947Y-137274176D01*
X252072062Y-137258348D01*
X252083832Y-137256220D01*
X252089118Y-137253334D01*
X252106544Y-137250822D01*
X252114695Y-137250233D01*
X252115691Y-137250500D01*
X252234309Y-137250500D01*
X252279804Y-137238309D01*
X252291568Y-137237460D01*
X252314646Y-137242463D01*
X252338256Y-137243026D01*
X252348162Y-137249730D01*
X252359851Y-137252265D01*
X252376559Y-137268949D01*
X252396119Y-137282188D01*
X252400828Y-137293184D01*
X252409291Y-137301636D01*
X252414326Y-137324707D01*
X252423623Y-137346417D01*
X252424500Y-137361138D01*
X252424500Y-140834522D01*
X252404815Y-140901561D01*
X252388181Y-140922203D01*
X250643942Y-142666443D01*
X250566444Y-142743940D01*
X250524500Y-142845199D01*
X250524500Y-144487036D01*
X250504815Y-144554075D01*
X250488181Y-144574717D01*
X250439513Y-144623384D01*
X250439511Y-144623387D01*
X250384751Y-144718234D01*
X250380201Y-144726114D01*
X250349500Y-144840691D01*
X250349500Y-144959309D01*
X250380201Y-145073886D01*
X250439511Y-145176613D01*
X250523387Y-145260489D01*
X250626114Y-145319799D01*
X250740691Y-145350500D01*
X250740694Y-145350500D01*
X250859306Y-145350500D01*
X250859309Y-145350500D01*
X250973886Y-145319799D01*
X251076613Y-145260489D01*
X251160489Y-145176613D01*
X251219799Y-145073886D01*
X251250500Y-144959309D01*
X251250500Y-144840691D01*
X251219799Y-144726114D01*
X251160489Y-144623387D01*
X251111819Y-144574717D01*
X251078334Y-144513394D01*
X251075500Y-144487036D01*
X251075500Y-143065477D01*
X251095185Y-142998438D01*
X251111819Y-142977796D01*
X251931381Y-142158234D01*
X252933558Y-141156058D01*
X252933558Y-141156056D01*
X252933560Y-141156055D01*
X252954529Y-141105429D01*
X252975500Y-141054800D01*
X252975500Y-140945200D01*
X252975500Y-136065477D01*
X252995185Y-135998438D01*
X253011819Y-135977796D01*
X253724138Y-135265477D01*
X254533558Y-134456058D01*
X254533558Y-134456056D01*
X254533560Y-134456055D01*
X254560299Y-134391498D01*
X254575500Y-134354800D01*
X254575500Y-134245200D01*
X254575500Y-125245200D01*
X254533557Y-125143942D01*
X254456058Y-125066443D01*
X251356058Y-121966443D01*
X251339296Y-121959500D01*
X251254800Y-121924500D01*
X247265477Y-121924500D01*
X247198438Y-121904815D01*
X247177796Y-121888181D01*
X246311819Y-121022204D01*
X246278334Y-120960881D01*
X246275500Y-120934523D01*
X246275500Y-116345201D01*
X246275499Y-116345197D01*
X246241994Y-116264310D01*
X246233557Y-116243942D01*
X246233557Y-116243941D01*
X244326819Y-114337203D01*
X244293334Y-114275880D01*
X244290500Y-114249522D01*
X244290500Y-114190693D01*
X244290500Y-114190691D01*
X244259799Y-114076114D01*
X244200489Y-113973387D01*
X244116613Y-113889511D01*
X244013886Y-113830201D01*
X243899309Y-113799500D01*
X243780691Y-113799500D01*
X243666114Y-113830201D01*
X243666112Y-113830201D01*
X243666112Y-113830202D01*
X243563387Y-113889511D01*
X243563384Y-113889513D01*
X243479513Y-113973384D01*
X243479511Y-113973387D01*
X243420201Y-114076114D01*
X243389500Y-114190691D01*
X243389500Y-114309309D01*
X243420201Y-114423886D01*
X243479511Y-114526613D01*
X243563387Y-114610489D01*
X243666114Y-114669799D01*
X243780691Y-114700500D01*
X243860812Y-114700500D01*
X243862075Y-114700526D01*
X243894222Y-114710688D01*
X243926562Y-114720185D01*
X243928047Y-114721382D01*
X243928695Y-114721587D01*
X243929492Y-114722546D01*
X243947204Y-114736819D01*
X245688181Y-116477796D01*
X245721666Y-116539119D01*
X245724500Y-116565477D01*
X245724500Y-116745522D01*
X245704815Y-116812561D01*
X245652011Y-116858316D01*
X245582853Y-116868260D01*
X245519297Y-116839235D01*
X245512819Y-116833203D01*
X243573890Y-114894275D01*
X243546058Y-114866443D01*
X243516228Y-114854087D01*
X243444800Y-114824500D01*
X243442217Y-114824500D01*
X242412964Y-114824500D01*
X242345925Y-114804815D01*
X242325283Y-114788181D01*
X242276615Y-114739513D01*
X242276613Y-114739511D01*
X242173886Y-114680201D01*
X242059309Y-114649500D01*
X241940691Y-114649500D01*
X241896593Y-114661316D01*
X241826743Y-114659653D01*
X241768881Y-114620490D01*
X241741377Y-114556261D01*
X241740500Y-114541541D01*
X241740500Y-114040539D01*
X241757112Y-113978540D01*
X241806392Y-113893186D01*
X241840500Y-113765892D01*
X241840500Y-113634108D01*
X241806392Y-113506814D01*
X241740500Y-113392686D01*
X241647314Y-113299500D01*
X241590250Y-113266554D01*
X241533187Y-113233608D01*
X241469539Y-113216554D01*
X241405892Y-113199500D01*
X241274108Y-113199500D01*
X241146812Y-113233608D01*
X241032686Y-113299500D01*
X241032683Y-113299502D01*
X240939502Y-113392683D01*
X240939500Y-113392686D01*
X240873608Y-113506812D01*
X240839500Y-113634108D01*
X240839500Y-113765892D01*
X240873608Y-113893186D01*
X240922887Y-113978540D01*
X240939500Y-114040539D01*
X240939500Y-114775500D01*
X240936949Y-114784185D01*
X240938238Y-114793147D01*
X240927259Y-114817187D01*
X240919815Y-114842539D01*
X240912974Y-114848466D01*
X240909213Y-114856703D01*
X240886978Y-114870992D01*
X240867011Y-114888294D01*
X240856496Y-114890581D01*
X240850435Y-114894477D01*
X240815500Y-114899500D01*
X240804500Y-114899500D01*
X240737461Y-114879815D01*
X240691706Y-114827011D01*
X240680500Y-114775500D01*
X240680500Y-114540249D01*
X240680499Y-114540247D01*
X240668868Y-114481770D01*
X240668867Y-114481769D01*
X240624552Y-114415447D01*
X240558230Y-114371132D01*
X240558229Y-114371131D01*
X240499752Y-114359500D01*
X240499748Y-114359500D01*
X239804500Y-114359500D01*
X239737461Y-114339815D01*
X239691706Y-114287011D01*
X239680500Y-114235500D01*
X239680500Y-111694000D01*
X239700185Y-111626961D01*
X239752989Y-111581206D01*
X239804500Y-111570000D01*
X240527828Y-111570000D01*
X240527844Y-111569999D01*
X240587372Y-111563598D01*
X240587379Y-111563596D01*
X240722086Y-111513354D01*
X240722093Y-111513350D01*
X240837187Y-111427190D01*
X240837190Y-111427187D01*
X240923350Y-111312093D01*
X240923354Y-111312086D01*
X240973596Y-111177379D01*
X240973598Y-111177372D01*
X240979999Y-111117844D01*
X240980000Y-111117827D01*
X240980000Y-110520000D01*
X239995686Y-110520000D01*
X240000080Y-110515606D01*
X240052741Y-110424394D01*
X240080000Y-110322661D01*
X240080000Y-110217339D01*
X240052741Y-110115606D01*
X240000080Y-110024394D01*
X239995686Y-110020000D01*
X240980000Y-110020000D01*
X240980000Y-109422172D01*
X240979999Y-109422155D01*
X240973598Y-109362627D01*
X240973596Y-109362620D01*
X240923354Y-109227913D01*
X240923352Y-109227910D01*
X240901569Y-109198812D01*
X240877151Y-109133348D01*
X240892002Y-109065075D01*
X240941406Y-109015669D01*
X241000835Y-109000500D01*
X259875500Y-109000500D01*
X259942539Y-109020185D01*
G37*
%TD.AperFunction*%
%TA.AperFunction,Conductor*%
G36*
X250686664Y-127915175D02*
G01*
X250733356Y-127967153D01*
X250745500Y-128020672D01*
X250745500Y-129035800D01*
X250759240Y-129068971D01*
X250761654Y-129074797D01*
X250761655Y-129074800D01*
X250787443Y-129137058D01*
X251913181Y-130262796D01*
X251927884Y-130289723D01*
X251944477Y-130315542D01*
X251945368Y-130321742D01*
X251946666Y-130324119D01*
X251949500Y-130350477D01*
X251949500Y-130387036D01*
X251929815Y-130454075D01*
X251913181Y-130474717D01*
X251899717Y-130488181D01*
X251838394Y-130521666D01*
X251812036Y-130524500D01*
X250394800Y-130524500D01*
X250285200Y-130524500D01*
X250285198Y-130524500D01*
X250285196Y-130524501D01*
X250183944Y-130566439D01*
X250183942Y-130566441D01*
X249762204Y-130988181D01*
X249700881Y-131021666D01*
X249674523Y-131024500D01*
X248637964Y-131024500D01*
X248608523Y-131015855D01*
X248578537Y-131009332D01*
X248573521Y-131005577D01*
X248570925Y-131004815D01*
X248550283Y-130988181D01*
X248499783Y-130937681D01*
X248466298Y-130876358D01*
X248471282Y-130806666D01*
X248499783Y-130762319D01*
X248521411Y-130740691D01*
X248585489Y-130676613D01*
X248644799Y-130573886D01*
X248675500Y-130459309D01*
X248675500Y-130340691D01*
X248672564Y-130329734D01*
X248674223Y-130259887D01*
X248704654Y-130209959D01*
X249662557Y-129252059D01*
X249678091Y-129214557D01*
X249704500Y-129150800D01*
X249704500Y-128020672D01*
X249724185Y-127953633D01*
X249776989Y-127907878D01*
X249846147Y-127897934D01*
X249889588Y-127914580D01*
X249890182Y-127913471D01*
X249895563Y-127916347D01*
X250018221Y-127967153D01*
X250022130Y-127968772D01*
X250022134Y-127968772D01*
X250022135Y-127968773D01*
X250156496Y-127995500D01*
X250156499Y-127995500D01*
X250293503Y-127995500D01*
X250400627Y-127974191D01*
X250427870Y-127968772D01*
X250554443Y-127916344D01*
X250554448Y-127916340D01*
X250559818Y-127913471D01*
X250560661Y-127915048D01*
X250619284Y-127896692D01*
X250686664Y-127915175D01*
G37*
%TD.AperFunction*%
%TA.AperFunction,Conductor*%
G36*
X243291562Y-115395185D02*
G01*
X243312204Y-115411819D01*
X244365266Y-116464882D01*
X244398751Y-116526205D01*
X244393767Y-116595897D01*
X244351895Y-116651830D01*
X244339588Y-116659949D01*
X244288387Y-116689511D01*
X244288384Y-116689513D01*
X244204513Y-116773384D01*
X244204511Y-116773387D01*
X244149736Y-116868260D01*
X244145201Y-116876114D01*
X244114500Y-116990691D01*
X244114500Y-117109309D01*
X244145201Y-117223886D01*
X244204511Y-117326613D01*
X244288387Y-117410489D01*
X244391114Y-117469799D01*
X244505691Y-117500500D01*
X244559523Y-117500500D01*
X244626562Y-117520185D01*
X244647204Y-117536819D01*
X244986181Y-117875796D01*
X245019666Y-117937119D01*
X245022500Y-117963477D01*
X245022500Y-124945575D01*
X245022501Y-124945580D01*
X245047068Y-125004892D01*
X245047069Y-125004892D01*
X245047069Y-125004893D01*
X245064443Y-125046836D01*
X245278182Y-125260574D01*
X245311666Y-125321895D01*
X245314500Y-125348254D01*
X245314500Y-132316324D01*
X245294815Y-132383363D01*
X245278181Y-132404005D01*
X245189502Y-132492683D01*
X245189500Y-132492686D01*
X245123608Y-132606812D01*
X245089500Y-132734108D01*
X245089500Y-132865891D01*
X245123608Y-132993187D01*
X245155963Y-133049226D01*
X245189500Y-133107314D01*
X245282686Y-133200500D01*
X245396814Y-133266392D01*
X245524108Y-133300500D01*
X245524110Y-133300500D01*
X245655890Y-133300500D01*
X245655892Y-133300500D01*
X245783186Y-133266392D01*
X245897314Y-133200500D01*
X245990500Y-133107314D01*
X246056392Y-132993186D01*
X246090500Y-132865892D01*
X246090500Y-132734108D01*
X246056392Y-132606814D01*
X246049935Y-132595631D01*
X246017732Y-132539853D01*
X246017731Y-132539852D01*
X245990500Y-132492686D01*
X245898436Y-132400622D01*
X245895337Y-132397005D01*
X245882878Y-132369317D01*
X245868334Y-132342682D01*
X245867530Y-132335210D01*
X245866666Y-132333289D01*
X245867048Y-132330728D01*
X245865500Y-132316324D01*
X245865500Y-128553197D01*
X246845000Y-128553197D01*
X246845000Y-128746802D01*
X246875286Y-128938022D01*
X246935116Y-129122158D01*
X247023011Y-129294662D01*
X247045638Y-129325806D01*
X247045639Y-129325806D01*
X247575707Y-128795738D01*
X247590437Y-128850712D01*
X247658896Y-128969287D01*
X247755713Y-129066104D01*
X247874288Y-129134563D01*
X247929259Y-129149292D01*
X247399192Y-129679358D01*
X247399192Y-129679359D01*
X247430343Y-129701991D01*
X247602841Y-129789883D01*
X247786977Y-129849713D01*
X247786978Y-129849714D01*
X247849796Y-129859663D01*
X247912931Y-129889592D01*
X247949863Y-129948903D01*
X247948865Y-130018766D01*
X247918081Y-130069817D01*
X247864511Y-130123387D01*
X247805201Y-130226114D01*
X247774500Y-130340691D01*
X247774500Y-130459309D01*
X247805201Y-130573886D01*
X247864511Y-130676613D01*
X247864513Y-130676615D01*
X247950217Y-130762319D01*
X247983702Y-130823642D01*
X247978718Y-130893334D01*
X247950217Y-130937681D01*
X247864513Y-131023384D01*
X247864511Y-131023387D01*
X247813166Y-131112319D01*
X247805201Y-131126114D01*
X247774500Y-131240691D01*
X247774500Y-131359309D01*
X247805201Y-131473886D01*
X247864511Y-131576613D01*
X247948387Y-131660489D01*
X248051114Y-131719799D01*
X248165691Y-131750500D01*
X248165694Y-131750500D01*
X248284306Y-131750500D01*
X248284309Y-131750500D01*
X248398886Y-131719799D01*
X248501613Y-131660489D01*
X248550283Y-131611819D01*
X248611606Y-131578334D01*
X248637964Y-131575500D01*
X249894799Y-131575500D01*
X249894800Y-131575500D01*
X249996058Y-131533557D01*
X250073557Y-131456058D01*
X250073556Y-131456058D01*
X250417798Y-131111817D01*
X250479121Y-131078334D01*
X250505478Y-131075500D01*
X251812036Y-131075500D01*
X251841476Y-131084144D01*
X251871463Y-131090668D01*
X251876478Y-131094422D01*
X251879075Y-131095185D01*
X251899716Y-131111818D01*
X251900217Y-131112319D01*
X251933702Y-131173642D01*
X251928718Y-131243334D01*
X251900217Y-131287681D01*
X251864513Y-131323384D01*
X251864511Y-131323387D01*
X251821723Y-131397498D01*
X251805201Y-131426114D01*
X251774500Y-131540691D01*
X251774500Y-131659309D01*
X251805201Y-131773886D01*
X251864511Y-131876613D01*
X251948387Y-131960489D01*
X252051114Y-132019799D01*
X252055180Y-132020888D01*
X252058225Y-132022744D01*
X252058618Y-132022907D01*
X252058592Y-132022968D01*
X252114839Y-132057250D01*
X252145370Y-132120096D01*
X252137078Y-132189472D01*
X252092594Y-132243351D01*
X252061407Y-132258594D01*
X251902839Y-132310116D01*
X251730337Y-132398011D01*
X251699192Y-132420639D01*
X251699191Y-132420639D01*
X252229260Y-132950707D01*
X252174288Y-132965437D01*
X252055713Y-133033896D01*
X251958896Y-133130713D01*
X251890437Y-133249288D01*
X251875707Y-133304260D01*
X251345639Y-132774191D01*
X251345639Y-132774192D01*
X251323011Y-132805337D01*
X251235116Y-132977841D01*
X251175286Y-133161977D01*
X251145000Y-133353197D01*
X251145000Y-133546802D01*
X251175286Y-133738022D01*
X251235116Y-133922158D01*
X251323011Y-134094662D01*
X251345638Y-134125806D01*
X251345639Y-134125806D01*
X251875707Y-133595738D01*
X251890437Y-133650712D01*
X251958896Y-133769287D01*
X252055713Y-133866104D01*
X252174288Y-133934563D01*
X252229259Y-133949292D01*
X251699192Y-134479358D01*
X251699192Y-134479359D01*
X251730343Y-134501991D01*
X251902841Y-134589883D01*
X252086977Y-134649713D01*
X252278198Y-134680000D01*
X252471802Y-134680000D01*
X252663022Y-134649713D01*
X252847158Y-134589883D01*
X253019652Y-134501993D01*
X253019665Y-134501985D01*
X253050806Y-134479360D01*
X253050807Y-134479359D01*
X252520740Y-133949292D01*
X252575712Y-133934563D01*
X252694287Y-133866104D01*
X252791104Y-133769287D01*
X252859563Y-133650712D01*
X252874292Y-133595739D01*
X253404359Y-134125807D01*
X253404360Y-134125806D01*
X253426985Y-134094665D01*
X253426993Y-134094652D01*
X253514883Y-133922158D01*
X253574713Y-133738022D01*
X253605000Y-133546802D01*
X253605000Y-133353197D01*
X253574713Y-133161977D01*
X253514883Y-132977841D01*
X253426991Y-132805343D01*
X253404359Y-132774192D01*
X253404358Y-132774192D01*
X252874292Y-133304259D01*
X252859563Y-133249288D01*
X252791104Y-133130713D01*
X252694287Y-133033896D01*
X252575712Y-132965437D01*
X252520739Y-132950707D01*
X253050806Y-132420639D01*
X253050806Y-132420638D01*
X253019662Y-132398011D01*
X252847158Y-132310116D01*
X252663022Y-132250286D01*
X252488326Y-132222617D01*
X252425191Y-132192688D01*
X252388260Y-132133376D01*
X252389258Y-132063514D01*
X252427868Y-132005281D01*
X252445719Y-131992759D01*
X252501613Y-131960489D01*
X252585489Y-131876613D01*
X252644799Y-131773886D01*
X252675500Y-131659309D01*
X252675500Y-131540691D01*
X252644799Y-131426114D01*
X252585489Y-131323387D01*
X252549783Y-131287681D01*
X252516298Y-131226358D01*
X252521282Y-131156666D01*
X252549783Y-131112319D01*
X252566917Y-131095185D01*
X252585489Y-131076613D01*
X252644799Y-130973886D01*
X252675500Y-130859309D01*
X252675500Y-130740691D01*
X252644799Y-130626114D01*
X252585489Y-130523387D01*
X252536819Y-130474717D01*
X252503334Y-130413394D01*
X252500500Y-130387036D01*
X252500500Y-130130201D01*
X252500499Y-130130197D01*
X252467567Y-130050693D01*
X252461672Y-130036463D01*
X252454200Y-129966994D01*
X252485472Y-129904513D01*
X252545560Y-129868858D01*
X252556834Y-129866532D01*
X252663021Y-129849714D01*
X252663022Y-129849713D01*
X252847158Y-129789883D01*
X253019652Y-129701993D01*
X253019665Y-129701985D01*
X253050806Y-129679360D01*
X253050807Y-129679359D01*
X252520739Y-129149292D01*
X252575712Y-129134563D01*
X252694287Y-129066104D01*
X252791104Y-128969287D01*
X252859563Y-128850712D01*
X252874292Y-128795739D01*
X253404359Y-129325807D01*
X253404360Y-129325806D01*
X253426985Y-129294665D01*
X253426993Y-129294652D01*
X253514883Y-129122158D01*
X253574713Y-128938022D01*
X253605000Y-128746802D01*
X253605000Y-128553197D01*
X253574713Y-128361977D01*
X253514883Y-128177841D01*
X253426991Y-128005343D01*
X253404359Y-127974192D01*
X252874292Y-128504259D01*
X252859563Y-128449288D01*
X252791104Y-128330713D01*
X252694287Y-128233896D01*
X252575712Y-128165437D01*
X252520739Y-128150707D01*
X253050806Y-127620639D01*
X253050806Y-127620638D01*
X253019662Y-127598011D01*
X252847158Y-127510116D01*
X252663022Y-127450286D01*
X252471802Y-127420000D01*
X252278198Y-127420000D01*
X252086977Y-127450286D01*
X251902841Y-127510116D01*
X251730337Y-127598011D01*
X251699192Y-127620639D01*
X251699191Y-127620639D01*
X252229260Y-128150707D01*
X252174288Y-128165437D01*
X252055713Y-128233896D01*
X251958896Y-128330713D01*
X251890437Y-128449288D01*
X251875707Y-128504260D01*
X251332819Y-127961371D01*
X251299334Y-127900048D01*
X251296500Y-127873690D01*
X251296500Y-126326202D01*
X251296500Y-126326200D01*
X251287695Y-126304942D01*
X251254558Y-126224942D01*
X251226819Y-126197203D01*
X251193334Y-126135880D01*
X251190500Y-126109522D01*
X251190500Y-125984110D01*
X251190500Y-125984108D01*
X251156392Y-125856814D01*
X251090500Y-125742686D01*
X250997314Y-125649500D01*
X250940250Y-125616554D01*
X250883187Y-125583608D01*
X250819539Y-125566554D01*
X250755892Y-125549500D01*
X250624108Y-125549500D01*
X250496812Y-125583608D01*
X250382686Y-125649500D01*
X250382683Y-125649502D01*
X250352681Y-125679505D01*
X250291358Y-125712990D01*
X250221666Y-125708006D01*
X250177319Y-125679505D01*
X250147316Y-125649502D01*
X250147314Y-125649500D01*
X250090250Y-125616554D01*
X250033187Y-125583608D01*
X249969539Y-125566554D01*
X249905892Y-125549500D01*
X249774108Y-125549500D01*
X249646812Y-125583608D01*
X249532686Y-125649500D01*
X249532683Y-125649502D01*
X249439502Y-125742683D01*
X249439500Y-125742686D01*
X249373608Y-125856812D01*
X249339500Y-125984108D01*
X249339500Y-126109521D01*
X249330855Y-126138960D01*
X249324333Y-126168946D01*
X249320577Y-126173963D01*
X249319815Y-126176560D01*
X249303183Y-126197201D01*
X249272943Y-126227442D01*
X249195443Y-126304942D01*
X249153500Y-126406199D01*
X249153500Y-127873689D01*
X249133815Y-127940728D01*
X249117181Y-127961370D01*
X248574292Y-128504260D01*
X248559563Y-128449288D01*
X248491104Y-128330713D01*
X248394287Y-128233896D01*
X248275712Y-128165437D01*
X248220739Y-128150707D01*
X248750806Y-127620639D01*
X248750806Y-127620638D01*
X248719662Y-127598011D01*
X248547158Y-127510116D01*
X248363022Y-127450286D01*
X248171802Y-127420000D01*
X247978198Y-127420000D01*
X247786977Y-127450286D01*
X247602841Y-127510116D01*
X247430337Y-127598011D01*
X247399192Y-127620639D01*
X247399191Y-127620639D01*
X247929260Y-128150707D01*
X247874288Y-128165437D01*
X247755713Y-128233896D01*
X247658896Y-128330713D01*
X247590437Y-128449288D01*
X247575707Y-128504260D01*
X247045639Y-127974191D01*
X247045639Y-127974192D01*
X247023011Y-128005337D01*
X246935116Y-128177841D01*
X246875286Y-128361977D01*
X246845000Y-128553197D01*
X245865500Y-128553197D01*
X245865500Y-127238362D01*
X245885185Y-127171323D01*
X245937989Y-127125568D01*
X246007147Y-127115624D01*
X246021594Y-127118587D01*
X246026111Y-127119797D01*
X246026114Y-127119799D01*
X246140691Y-127150500D01*
X246140694Y-127150500D01*
X246259306Y-127150500D01*
X246259309Y-127150500D01*
X246373886Y-127119799D01*
X246476613Y-127060489D01*
X246560489Y-126976613D01*
X246619799Y-126873886D01*
X246650500Y-126759309D01*
X246650500Y-126640691D01*
X246619799Y-126526114D01*
X246560489Y-126423387D01*
X246511819Y-126374717D01*
X246478334Y-126313394D01*
X246475500Y-126287036D01*
X246475500Y-125241590D01*
X246475500Y-125241588D01*
X246469372Y-125226793D01*
X246433558Y-125140330D01*
X245960819Y-124667591D01*
X245927334Y-124606268D01*
X245924500Y-124579910D01*
X245924500Y-121713477D01*
X245944185Y-121646438D01*
X245996989Y-121600683D01*
X246066147Y-121590739D01*
X246129703Y-121619764D01*
X246136181Y-121625796D01*
X246866443Y-122356058D01*
X246943942Y-122433557D01*
X247045200Y-122475500D01*
X251034523Y-122475500D01*
X251101562Y-122495185D01*
X251122204Y-122511819D01*
X253988181Y-125377796D01*
X254021666Y-125439119D01*
X254024500Y-125465477D01*
X254024500Y-134134522D01*
X254004815Y-134201561D01*
X253988181Y-134222203D01*
X252543942Y-135666443D01*
X252466444Y-135743940D01*
X252424500Y-135845199D01*
X252424500Y-136238861D01*
X252404815Y-136305900D01*
X252352011Y-136351655D01*
X252282853Y-136361599D01*
X252268409Y-136358636D01*
X252234313Y-136349500D01*
X252234309Y-136349500D01*
X252115691Y-136349500D01*
X252001114Y-136380201D01*
X252001112Y-136380201D01*
X252001112Y-136380202D01*
X251898387Y-136439511D01*
X251898384Y-136439513D01*
X251814513Y-136523384D01*
X251814511Y-136523387D01*
X251770566Y-136599502D01*
X251755201Y-136626114D01*
X251724500Y-136740691D01*
X251724500Y-136740693D01*
X251724500Y-136759522D01*
X251704815Y-136826561D01*
X251688181Y-136847203D01*
X251343942Y-137191443D01*
X251266444Y-137268940D01*
X251224500Y-137370199D01*
X251224500Y-140334522D01*
X251204815Y-140401561D01*
X251188181Y-140422203D01*
X250797203Y-140813181D01*
X250735880Y-140846666D01*
X250709522Y-140849500D01*
X250640691Y-140849500D01*
X250571944Y-140867920D01*
X250526112Y-140880201D01*
X250526109Y-140880203D01*
X250521463Y-140882886D01*
X250459462Y-140899500D01*
X246617254Y-140899500D01*
X246550215Y-140879815D01*
X246529573Y-140863181D01*
X244951819Y-139285426D01*
X244918334Y-139224103D01*
X244915500Y-139197745D01*
X244915500Y-137390539D01*
X244932112Y-137328540D01*
X244981392Y-137243186D01*
X245015500Y-137115892D01*
X245015500Y-136984108D01*
X244981392Y-136856814D01*
X244915500Y-136742686D01*
X244822314Y-136649500D01*
X244735712Y-136599500D01*
X244708185Y-136583607D01*
X244708181Y-136583605D01*
X244705185Y-136582803D01*
X244702500Y-136581253D01*
X244700680Y-136580499D01*
X244700779Y-136580259D01*
X244649603Y-136550711D01*
X243976819Y-135877927D01*
X243943334Y-135816604D01*
X243940500Y-135790246D01*
X243940500Y-135709110D01*
X243940500Y-135709108D01*
X243906392Y-135581814D01*
X243894638Y-135561456D01*
X243857113Y-135496460D01*
X243840500Y-135434460D01*
X243840500Y-134732791D01*
X249714500Y-134732791D01*
X249714500Y-134867209D01*
X249740592Y-134964586D01*
X249749290Y-134997047D01*
X249749291Y-134997048D01*
X249816495Y-135113450D01*
X249816497Y-135113453D01*
X249816498Y-135113454D01*
X249911546Y-135208502D01*
X250027954Y-135275710D01*
X250157791Y-135310500D01*
X250157794Y-135310500D01*
X250292206Y-135310500D01*
X250292209Y-135310500D01*
X250422046Y-135275710D01*
X250538454Y-135208502D01*
X250633502Y-135113454D01*
X250700710Y-134997046D01*
X250735500Y-134867209D01*
X250735500Y-134732791D01*
X250700710Y-134602954D01*
X250700706Y-134602947D01*
X250637866Y-134494103D01*
X250637865Y-134494102D01*
X250633504Y-134486549D01*
X250633500Y-134486544D01*
X250538455Y-134391499D01*
X250538450Y-134391495D01*
X250422048Y-134324291D01*
X250422047Y-134324290D01*
X250389586Y-134315592D01*
X250292209Y-134289500D01*
X250157791Y-134289500D01*
X250079888Y-134310374D01*
X250027952Y-134324290D01*
X250027951Y-134324291D01*
X249911549Y-134391495D01*
X249911544Y-134391499D01*
X249816499Y-134486544D01*
X249816495Y-134486549D01*
X249749291Y-134602951D01*
X249749290Y-134602952D01*
X249734138Y-134659500D01*
X249714500Y-134732791D01*
X243840500Y-134732791D01*
X243840500Y-133353197D01*
X246845000Y-133353197D01*
X246845000Y-133546802D01*
X246875286Y-133738022D01*
X246935116Y-133922158D01*
X247023011Y-134094662D01*
X247045638Y-134125806D01*
X247045639Y-134125806D01*
X247575707Y-133595738D01*
X247590437Y-133650712D01*
X247658896Y-133769287D01*
X247755713Y-133866104D01*
X247874288Y-133934563D01*
X247929259Y-133949292D01*
X247399192Y-134479358D01*
X247399192Y-134479359D01*
X247430343Y-134501991D01*
X247602841Y-134589883D01*
X247786977Y-134649713D01*
X247978198Y-134680000D01*
X248171802Y-134680000D01*
X248363022Y-134649713D01*
X248495301Y-134606733D01*
X248495302Y-134606733D01*
X248547160Y-134589883D01*
X248719652Y-134501993D01*
X248719665Y-134501985D01*
X248750806Y-134479360D01*
X248750807Y-134479359D01*
X248220740Y-133949292D01*
X248275712Y-133934563D01*
X248394287Y-133866104D01*
X248491104Y-133769287D01*
X248559563Y-133650712D01*
X248574292Y-133595739D01*
X249104359Y-134125807D01*
X249104360Y-134125806D01*
X249126985Y-134094665D01*
X249126993Y-134094652D01*
X249214883Y-133922158D01*
X249274713Y-133738022D01*
X249305000Y-133546802D01*
X249305000Y-133353197D01*
X249274713Y-133161977D01*
X249214883Y-132977841D01*
X249126991Y-132805343D01*
X249104359Y-132774192D01*
X249104358Y-132774192D01*
X248574292Y-133304259D01*
X248559563Y-133249288D01*
X248491104Y-133130713D01*
X248394287Y-133033896D01*
X248275712Y-132965437D01*
X248220739Y-132950707D01*
X248750806Y-132420639D01*
X248750806Y-132420638D01*
X248719662Y-132398011D01*
X248547158Y-132310116D01*
X248363022Y-132250286D01*
X248171802Y-132220000D01*
X247978198Y-132220000D01*
X247786977Y-132250286D01*
X247602841Y-132310116D01*
X247430337Y-132398011D01*
X247399192Y-132420639D01*
X247399191Y-132420639D01*
X247929260Y-132950707D01*
X247874288Y-132965437D01*
X247755713Y-133033896D01*
X247658896Y-133130713D01*
X247590437Y-133249288D01*
X247575707Y-133304260D01*
X247045639Y-132774191D01*
X247045639Y-132774192D01*
X247023011Y-132805337D01*
X246935116Y-132977841D01*
X246875286Y-133161977D01*
X246845000Y-133353197D01*
X243840500Y-133353197D01*
X243840500Y-126687275D01*
X243840500Y-126687273D01*
X243813207Y-126585413D01*
X243760480Y-126494087D01*
X243685913Y-126419520D01*
X242946743Y-125680350D01*
X242913258Y-125619027D01*
X242918242Y-125549335D01*
X242960114Y-125493402D01*
X243002329Y-125472895D01*
X243013886Y-125469799D01*
X243116613Y-125410489D01*
X243200489Y-125326613D01*
X243259799Y-125223886D01*
X243290500Y-125109309D01*
X243290500Y-124990691D01*
X243259799Y-124876114D01*
X243200489Y-124773387D01*
X243151819Y-124724717D01*
X243118334Y-124663394D01*
X243115500Y-124637036D01*
X243115500Y-123215477D01*
X243135185Y-123148438D01*
X243151819Y-123127796D01*
X243742796Y-122536819D01*
X243804119Y-122503334D01*
X243830477Y-122500500D01*
X243899306Y-122500500D01*
X243899309Y-122500500D01*
X244013886Y-122469799D01*
X244116613Y-122410489D01*
X244200489Y-122326613D01*
X244259799Y-122223886D01*
X244290500Y-122109309D01*
X244290500Y-121990691D01*
X244259799Y-121876114D01*
X244200489Y-121773387D01*
X244116613Y-121689511D01*
X244013886Y-121630201D01*
X243899309Y-121599500D01*
X243780691Y-121599500D01*
X243666114Y-121630201D01*
X243666112Y-121630201D01*
X243666112Y-121630202D01*
X243563387Y-121689511D01*
X243563384Y-121689513D01*
X243479513Y-121773384D01*
X243479511Y-121773387D01*
X243420201Y-121876114D01*
X243389500Y-121990691D01*
X243389500Y-121990693D01*
X243389500Y-122059521D01*
X243369815Y-122126560D01*
X243353181Y-122147202D01*
X242683942Y-122816443D01*
X242606444Y-122893940D01*
X242564500Y-122995199D01*
X242564500Y-124637036D01*
X242544815Y-124704075D01*
X242528181Y-124724717D01*
X242479513Y-124773384D01*
X242479511Y-124773387D01*
X242420200Y-124876114D01*
X242417104Y-124887671D01*
X242380738Y-124947331D01*
X242317890Y-124977859D01*
X242248515Y-124969562D01*
X242209649Y-124943256D01*
X241776819Y-124510426D01*
X241743334Y-124449103D01*
X241740500Y-124422745D01*
X241740500Y-115658458D01*
X241760185Y-115591419D01*
X241812989Y-115545664D01*
X241882147Y-115535720D01*
X241896587Y-115538682D01*
X241940691Y-115550500D01*
X241940693Y-115550500D01*
X242059306Y-115550500D01*
X242059309Y-115550500D01*
X242173886Y-115519799D01*
X242276613Y-115460489D01*
X242325283Y-115411819D01*
X242386606Y-115378334D01*
X242412964Y-115375500D01*
X243224523Y-115375500D01*
X243291562Y-115395185D01*
G37*
%TD.AperFunction*%
%TD*%
M02*
