M48
; DRILL file {KiCad 9.0.7-9.0.7~ubuntu22.04.1} date 2026-02-12T22:58:49-0700
; FORMAT={-:-/ absolute / metric / decimal}
; #@! TF.CreationDate,2026-02-12T22:58:49-07:00
; #@! TF.GenerationSoftware,Kicad,Pcbnew,9.0.7-9.0.7~ubuntu22.04.1
; #@! TF.FileFunction,Plated,1,2,PTH
FMAT,2
METRIC
; #@! TA.AperFunction,Plated,PTH,ViaDrill
T1C0.300
; #@! TA.AperFunction,Plated,PTH,ComponentDrill
T2C0.800
; #@! TA.AperFunction,Plated,PTH,ComponentDrill
T3C1.040
%
G90
G05
T1
X241.34Y-113.7
X241.716Y-127.2
X241.79Y-127.99
X242.0Y-115.1
X242.84Y-125.05
X243.4Y-143.7
X243.44Y-135.775
X243.44Y-137.0
X243.84Y-112.7
X243.84Y-114.25
X243.84Y-119.3
X243.84Y-122.05
X243.9Y-122.8
X244.05Y-141.25
X244.515Y-137.05
X244.55Y-129.35
X244.565Y-117.05
X245.4Y-136.7
X245.5Y-138.75
X245.59Y-132.8
X245.84Y-134.05
X246.2Y-126.7
X246.4Y-145.2
X246.6Y-122.8
X246.7Y-119.6
X247.5Y-120.2
X247.5Y-121.05
X247.577Y-130.8
X248.09Y-126.8
X248.1Y-135.8
X248.225Y-130.4
X248.225Y-131.3
X248.4Y-121.6
X248.6Y-137.9
X249.2Y-144.65
X249.84Y-126.05
X250.225Y-129.05
X250.225Y-133.05
X250.69Y-126.05
X250.7Y-140.3
X250.7Y-141.3
X250.8Y-144.9
X252.1Y-135.8
X252.1Y-138.1
X252.175Y-136.8
X252.225Y-130.8
X252.225Y-131.6
X252.34Y-126.8
X253.225Y-132.05
X253.299Y-137.701
X253.74Y-140.3
X253.9Y-138.213
X253.94Y-122.1
X254.0Y-145.2
X254.34Y-111.6
X254.628Y-135.963
X255.64Y-111.55
X255.74Y-118.7
X255.74Y-119.55
X255.74Y-120.55
X255.74Y-121.382
X255.787Y-122.255
X255.941Y-141.3
X256.025Y-128.6
X256.34Y-132.8
X256.45Y-140.15
X256.7Y-133.7
X256.779Y-139.079
X256.84Y-124.775
X256.84Y-125.6
X257.262Y-143.8
X257.94Y-109.8
X258.04Y-113.6
X258.4Y-145.7
T2
X239.68Y-110.27
X239.68Y-115.36
X239.68Y-117.9
X239.68Y-120.44
X239.68Y-122.98
X239.68Y-125.52
X239.68Y-128.06
X239.68Y-130.6
X239.68Y-133.14
X239.68Y-135.68
X239.68Y-138.22
X239.68Y-140.76
X239.68Y-143.3
X239.68Y-145.84
X242.22Y-147.1
X244.76Y-147.1
X247.3Y-147.1
X249.84Y-147.1
X252.38Y-147.1
X254.92Y-147.1
X257.46Y-147.1
X260.0Y-110.26
X260.0Y-112.8
X260.0Y-115.34
X260.0Y-117.88
X260.0Y-120.42
X260.0Y-122.96
X260.0Y-125.5
X260.0Y-128.04
X260.0Y-130.58
X260.0Y-133.12
X260.0Y-135.66
X260.0Y-138.2
X260.0Y-140.74
X260.0Y-143.28
X260.0Y-145.82
T3
X248.075Y-128.65
X248.075Y-133.45
X252.375Y-128.65
X252.375Y-133.45
M30
