%TF.GenerationSoftware,KiCad,Pcbnew,9.0.7-9.0.7~ubuntu22.04.1*%
%TF.CreationDate,2026-02-25T11:11:37-07:00*%
%TF.ProjectId,ESP32-S3-MINI-1U_UU,45535033-322d-4533-932d-4d494e492d31,rev?*%
%TF.SameCoordinates,Original*%
%TF.FileFunction,Paste,Top*%
%TF.FilePolarity,Positive*%
%FSLAX46Y46*%
G04 Gerber Fmt 4.6, Leading zero omitted, Abs format (unit mm)*
G04 Created by KiCad (PCBNEW 9.0.7-9.0.7~ubuntu22.04.1) date 2026-02-25 11:11:37*
%MOMM*%
%LPD*%
G01*
G04 APERTURE LIST*
G04 Aperture macros list*
%AMRoundRect*
0 Rectangle with rounded corners*
0 $1 Rounding radius*
0 $2 $3 $4 $5 $6 $7 $8 $9 X,Y pos of 4 corners*
0 Add a 4 corners polygon primitive as box body*
4,1,4,$2,$3,$4,$5,$6,$7,$8,$9,$2,$3,0*
0 Add four circle primitives for the rounded corners*
1,1,$1+$1,$2,$3*
1,1,$1+$1,$4,$5*
1,1,$1+$1,$6,$7*
1,1,$1+$1,$8,$9*
0 Add four rect primitives between the rounded corners*
20,1,$1+$1,$2,$3,$4,$5,0*
20,1,$1+$1,$4,$5,$6,$7,0*
20,1,$1+$1,$6,$7,$8,$9,0*
20,1,$1+$1,$8,$9,$2,$3,0*%
%AMOutline5P*
0 Free polygon, 5 corners , with rotation*
0 The origin of the aperture is its center*
0 number of corners: always 5*
0 $1 to $10 corner X, Y*
0 $11 Rotation angle, in degrees counterclockwise*
0 create outline with 5 corners*
4,1,5,$1,$2,$3,$4,$5,$6,$7,$8,$9,$10,$1,$2,$11*%
%AMOutline6P*
0 Free polygon, 6 corners , with rotation*
0 The origin of the aperture is its center*
0 number of corners: always 6*
0 $1 to $12 corner X, Y*
0 $13 Rotation angle, in degrees counterclockwise*
0 create outline with 6 corners*
4,1,6,$1,$2,$3,$4,$5,$6,$7,$8,$9,$10,$11,$12,$1,$2,$13*%
%AMOutline7P*
0 Free polygon, 7 corners , with rotation*
0 The origin of the aperture is its center*
0 number of corners: always 7*
0 $1 to $14 corner X, Y*
0 $15 Rotation angle, in degrees counterclockwise*
0 create outline with 7 corners*
4,1,7,$1,$2,$3,$4,$5,$6,$7,$8,$9,$10,$11,$12,$13,$14,$1,$2,$15*%
%AMOutline8P*
0 Free polygon, 8 corners , with rotation*
0 The origin of the aperture is its center*
0 number of corners: always 8*
0 $1 to $16 corner X, Y*
0 $17 Rotation angle, in degrees counterclockwise*
0 create outline with 8 corners*
4,1,8,$1,$2,$3,$4,$5,$6,$7,$8,$9,$10,$11,$12,$13,$14,$15,$16,$1,$2,$17*%
G04 Aperture macros list end*
%ADD10RoundRect,0.140000X-0.140000X-0.170000X0.140000X-0.170000X0.140000X0.170000X-0.140000X0.170000X0*%
%ADD11RoundRect,0.135000X0.135000X0.185000X-0.135000X0.185000X-0.135000X-0.185000X0.135000X-0.185000X0*%
%ADD12RoundRect,0.062500X-0.117500X-0.062500X0.117500X-0.062500X0.117500X0.062500X-0.117500X0.062500X0*%
%ADD13RoundRect,0.062500X0.117500X0.062500X-0.117500X0.062500X-0.117500X-0.062500X0.117500X-0.062500X0*%
%ADD14R,1.000000X0.900000*%
%ADD15RoundRect,0.140000X0.140000X0.170000X-0.140000X0.170000X-0.140000X-0.170000X0.140000X-0.170000X0*%
%ADD16R,0.700000X0.700000*%
%ADD17RoundRect,0.147500X0.147500X0.172500X-0.147500X0.172500X-0.147500X-0.172500X0.147500X-0.172500X0*%
%ADD18RoundRect,0.135000X-0.185000X0.135000X-0.185000X-0.135000X0.185000X-0.135000X0.185000X0.135000X0*%
%ADD19RoundRect,0.147500X0.172500X-0.147500X0.172500X0.147500X-0.172500X0.147500X-0.172500X-0.147500X0*%
%ADD20RoundRect,0.135000X-0.135000X-0.185000X0.135000X-0.185000X0.135000X0.185000X-0.135000X0.185000X0*%
%ADD21R,1.550000X0.600000*%
%ADD22R,2.000000X1.200000*%
%ADD23RoundRect,0.140000X0.170000X-0.140000X0.170000X0.140000X-0.170000X0.140000X-0.170000X-0.140000X0*%
%ADD24RoundRect,0.135000X0.185000X-0.135000X0.185000X0.135000X-0.185000X0.135000X-0.185000X-0.135000X0*%
%ADD25R,0.800000X0.400000*%
%ADD26R,0.400000X0.800000*%
%ADD27Outline5P,-0.600000X0.204000X-0.204000X0.600000X0.600000X0.600000X0.600000X-0.600000X-0.600000X-0.600000X0.000000*%
%ADD28R,1.200000X1.200000*%
%ADD29R,0.800000X0.800000*%
%ADD30RoundRect,0.100000X0.100000X-0.562500X0.100000X0.562500X-0.100000X0.562500X-0.100000X-0.562500X0*%
%ADD31R,1.650000X0.500000*%
%ADD32RoundRect,0.087500X0.087500X-0.250000X0.087500X0.250000X-0.087500X0.250000X-0.087500X-0.250000X0*%
%ADD33R,0.870000X0.300000*%
%ADD34R,0.600000X0.250000*%
%ADD35R,1.000000X0.200000*%
G04 APERTURE END LIST*
D10*
%TO.C,C11*%
X186940000Y-145300000D03*
X187900000Y-145300000D03*
%TD*%
D11*
%TO.C,R14*%
X187910000Y-143300000D03*
X186890000Y-143300000D03*
%TD*%
D12*
%TO.C,D7*%
X184270000Y-129300000D03*
X183430000Y-129300000D03*
%TD*%
D13*
%TO.C,D8*%
X181380000Y-129300000D03*
X182220000Y-129300000D03*
%TD*%
D14*
%TO.C,L1*%
X177060000Y-143500000D03*
X177060000Y-141900000D03*
%TD*%
D15*
%TO.C,C12*%
X187880000Y-138050000D03*
X186920000Y-138050000D03*
%TD*%
D16*
%TO.C,D6*%
X186570000Y-146565000D03*
X186570000Y-147665000D03*
X188400000Y-147665000D03*
X188400000Y-146565000D03*
%TD*%
D15*
%TO.C,C5*%
X177540000Y-144700000D03*
X176580000Y-144700000D03*
%TD*%
D17*
%TO.C,D4*%
X183945000Y-140800000D03*
X182975000Y-140800000D03*
%TD*%
D18*
%TO.C,R4*%
X185850000Y-134540000D03*
X185850000Y-135560000D03*
%TD*%
D19*
%TO.C,D5*%
X179200000Y-133020000D03*
X179200000Y-132050000D03*
%TD*%
D18*
%TO.C,R12*%
X178200000Y-132050000D03*
X178200000Y-133070000D03*
%TD*%
D20*
%TO.C,R13*%
X176640000Y-139050000D03*
X177660000Y-139050000D03*
%TD*%
D10*
%TO.C,C9*%
X179060000Y-139800000D03*
X180020000Y-139800000D03*
%TD*%
D21*
%TO.C,J3*%
X185161000Y-146300000D03*
X185161000Y-145300000D03*
X185161000Y-144300000D03*
X185161000Y-143300000D03*
D22*
X182736000Y-147600000D03*
X182736000Y-142000000D03*
%TD*%
D23*
%TO.C,C14*%
X185600000Y-140760000D03*
X185600000Y-139800000D03*
%TD*%
D11*
%TO.C,R16*%
X187910000Y-144300000D03*
X186890000Y-144300000D03*
%TD*%
D24*
%TO.C,R5*%
X179650000Y-135560000D03*
X179650000Y-134540000D03*
%TD*%
D12*
%TO.C,D1*%
X180035000Y-138800000D03*
X179195000Y-138800000D03*
%TD*%
D25*
%TO.C,U1*%
X175400000Y-114850000D03*
X175400000Y-115700000D03*
X175400000Y-116550000D03*
X175400000Y-117400000D03*
X175400000Y-118250000D03*
X175400000Y-119100000D03*
X175400000Y-119950000D03*
X175400000Y-120800000D03*
X175400000Y-121650000D03*
X175400000Y-122500000D03*
X175400000Y-123350000D03*
X175400000Y-124200000D03*
X175400000Y-125050000D03*
X175400000Y-125900000D03*
X175400000Y-126750000D03*
D26*
X176450000Y-127800000D03*
X177300000Y-127800000D03*
X178150000Y-127800000D03*
X179000000Y-127800000D03*
X179850000Y-127800000D03*
X180700000Y-127800000D03*
X181550000Y-127800000D03*
X182400000Y-127800000D03*
X183250000Y-127800000D03*
X184100000Y-127800000D03*
X184950000Y-127800000D03*
X185800000Y-127800000D03*
X186650000Y-127800000D03*
X187500000Y-127800000D03*
X188350000Y-127800000D03*
D25*
X189400000Y-126750000D03*
X189400000Y-125900000D03*
X189400000Y-125050000D03*
X189400000Y-124200000D03*
X189400000Y-123350000D03*
X189400000Y-122500000D03*
X189400000Y-121650000D03*
X189400000Y-120800000D03*
X189400000Y-119950000D03*
X189400000Y-119100000D03*
X189400000Y-118250000D03*
X189400000Y-117400000D03*
X189400000Y-116550000D03*
X189400000Y-115700000D03*
X189400000Y-114850000D03*
D26*
X188350000Y-113800000D03*
X187500000Y-113800000D03*
X186650000Y-113800000D03*
X185800000Y-113800000D03*
X184950000Y-113800000D03*
X184100000Y-113800000D03*
X183250000Y-113800000D03*
X182400000Y-113800000D03*
X181550000Y-113800000D03*
X180700000Y-113800000D03*
X179850000Y-113800000D03*
X179000000Y-113800000D03*
X178150000Y-113800000D03*
X177300000Y-113800000D03*
X176450000Y-113800000D03*
D27*
X180750000Y-119150000D03*
D28*
X180750000Y-120800000D03*
X180750000Y-122450000D03*
X182400000Y-119150000D03*
X182400000Y-120800000D03*
X182400000Y-122450000D03*
X184050000Y-119150000D03*
X184050000Y-120800000D03*
X184050000Y-122450000D03*
D29*
X175400000Y-113800000D03*
X175400000Y-127800000D03*
X189400000Y-127800000D03*
X189400000Y-113800000D03*
%TD*%
D15*
%TO.C,C4*%
X173900000Y-117000000D03*
X172940000Y-117000000D03*
%TD*%
D18*
%TO.C,R1*%
X181160000Y-143290000D03*
X181160000Y-144310000D03*
%TD*%
D30*
%TO.C,U3*%
X179610000Y-148287500D03*
X180260000Y-148287500D03*
X180910000Y-148287500D03*
X180910000Y-146512500D03*
X180260000Y-146512500D03*
X179610000Y-146512500D03*
%TD*%
D23*
%TO.C,C1*%
X179160000Y-141980000D03*
X179160000Y-141020000D03*
%TD*%
D30*
%TO.C,U2*%
X177010000Y-148287500D03*
X177660000Y-148287500D03*
X178310000Y-148287500D03*
X178310000Y-146512500D03*
X177660000Y-146512500D03*
X177010000Y-146512500D03*
%TD*%
D31*
%TO.C,S1*%
X176900000Y-134550000D03*
X176900000Y-136850000D03*
%TD*%
D10*
%TO.C,C10*%
X176670000Y-138050000D03*
X177630000Y-138050000D03*
%TD*%
D20*
%TO.C,R11*%
X181040000Y-140800000D03*
X182060000Y-140800000D03*
%TD*%
D32*
%TO.C,U4*%
X186900000Y-142212500D03*
X187400000Y-142212500D03*
X187900000Y-142212500D03*
X187900000Y-140787500D03*
X187400000Y-140787500D03*
X186900000Y-140787500D03*
%TD*%
D20*
%TO.C,R17*%
X186890000Y-139050000D03*
X187910000Y-139050000D03*
%TD*%
D15*
%TO.C,C3*%
X173880000Y-116000000D03*
X172920000Y-116000000D03*
%TD*%
D23*
%TO.C,C2*%
X180160000Y-141980000D03*
X180160000Y-141020000D03*
%TD*%
D33*
%TO.C,J2*%
X181920000Y-137800000D03*
X181920000Y-136300000D03*
X181920000Y-135800000D03*
X181920000Y-135300000D03*
X181920000Y-134800000D03*
X181920000Y-134300000D03*
X181920000Y-133800000D03*
X181920000Y-132300000D03*
X183650000Y-132300000D03*
X183650000Y-133800000D03*
X183650000Y-134300000D03*
X183650000Y-134800000D03*
X183650000Y-135300000D03*
X183650000Y-135800000D03*
X183650000Y-136300000D03*
X183650000Y-137800000D03*
%TD*%
D31*
%TO.C,S2*%
X187650000Y-134550000D03*
X187650000Y-136850000D03*
%TD*%
D34*
%TO.C,IC1*%
X180060000Y-144100000D03*
X180060000Y-143600000D03*
X180060000Y-143100000D03*
D35*
X178960000Y-143100000D03*
X178960000Y-143600000D03*
X178960000Y-144100000D03*
%TD*%
M02*
