%TF.GenerationSoftware,KiCad,Pcbnew,9.0.7-9.0.7~ubuntu22.04.1*%
%TF.CreationDate,2026-02-12T22:58:37-07:00*%
%TF.ProjectId,ESP32-S3-MINI-1U_UU,45535033-322d-4533-932d-4d494e492d31,rev?*%
%TF.SameCoordinates,Original*%
%TF.FileFunction,Soldermask,Top*%
%TF.FilePolarity,Negative*%
%FSLAX46Y46*%
G04 Gerber Fmt 4.6, Leading zero omitted, Abs format (unit mm)*
G04 Created by KiCad (PCBNEW 9.0.7-9.0.7~ubuntu22.04.1) date 2026-02-12 22:58:37*
%MOMM*%
%LPD*%
G01*
G04 APERTURE LIST*
G04 Aperture macros list*
%AMRoundRect*
0 Rectangle with rounded corners*
0 $1 Rounding radius*
0 $2 $3 $4 $5 $6 $7 $8 $9 X,Y pos of 4 corners*
0 Add a 4 corners polygon primitive as box body*
4,1,4,$2,$3,$4,$5,$6,$7,$8,$9,$2,$3,0*
0 Add four circle primitives for the rounded corners*
1,1,$1+$1,$2,$3*
1,1,$1+$1,$4,$5*
1,1,$1+$1,$6,$7*
1,1,$1+$1,$8,$9*
0 Add four rect primitives between the rounded corners*
20,1,$1+$1,$2,$3,$4,$5,0*
20,1,$1+$1,$4,$5,$6,$7,0*
20,1,$1+$1,$6,$7,$8,$9,0*
20,1,$1+$1,$8,$9,$2,$3,0*%
%AMOutline5P*
0 Free polygon, 5 corners , with rotation*
0 The origin of the aperture is its center*
0 number of corners: always 5*
0 $1 to $10 corner X, Y*
0 $11 Rotation angle, in degrees counterclockwise*
0 create outline with 5 corners*
4,1,5,$1,$2,$3,$4,$5,$6,$7,$8,$9,$10,$1,$2,$11*%
%AMOutline6P*
0 Free polygon, 6 corners , with rotation*
0 The origin of the aperture is its center*
0 number of corners: always 6*
0 $1 to $12 corner X, Y*
0 $13 Rotation angle, in degrees counterclockwise*
0 create outline with 6 corners*
4,1,6,$1,$2,$3,$4,$5,$6,$7,$8,$9,$10,$11,$12,$1,$2,$13*%
%AMOutline7P*
0 Free polygon, 7 corners , with rotation*
0 The origin of the aperture is its center*
0 number of corners: always 7*
0 $1 to $14 corner X, Y*
0 $15 Rotation angle, in degrees counterclockwise*
0 create outline with 7 corners*
4,1,7,$1,$2,$3,$4,$5,$6,$7,$8,$9,$10,$11,$12,$13,$14,$1,$2,$15*%
%AMOutline8P*
0 Free polygon, 8 corners , with rotation*
0 The origin of the aperture is its center*
0 number of corners: always 8*
0 $1 to $16 corner X, Y*
0 $17 Rotation angle, in degrees counterclockwise*
0 create outline with 8 corners*
4,1,8,$1,$2,$3,$4,$5,$6,$7,$8,$9,$10,$11,$12,$13,$14,$15,$16,$1,$2,$17*%
G04 Aperture macros list end*
%ADD10RoundRect,0.140000X-0.140000X-0.170000X0.140000X-0.170000X0.140000X0.170000X-0.140000X0.170000X0*%
%ADD11RoundRect,0.135000X0.135000X0.185000X-0.135000X0.185000X-0.135000X-0.185000X0.135000X-0.185000X0*%
%ADD12R,1.600000X1.600000*%
%ADD13C,1.600000*%
%ADD14RoundRect,0.062500X-0.117500X-0.062500X0.117500X-0.062500X0.117500X0.062500X-0.117500X0.062500X0*%
%ADD15RoundRect,0.062500X0.117500X0.062500X-0.117500X0.062500X-0.117500X-0.062500X0.117500X-0.062500X0*%
%ADD16R,1.000000X0.900000*%
%ADD17RoundRect,0.140000X0.140000X0.170000X-0.140000X0.170000X-0.140000X-0.170000X0.140000X-0.170000X0*%
%ADD18R,0.700000X0.700000*%
%ADD19RoundRect,0.147500X0.147500X0.172500X-0.147500X0.172500X-0.147500X-0.172500X0.147500X-0.172500X0*%
%ADD20RoundRect,0.135000X-0.185000X0.135000X-0.185000X-0.135000X0.185000X-0.135000X0.185000X0.135000X0*%
%ADD21RoundRect,0.147500X0.172500X-0.147500X0.172500X0.147500X-0.172500X0.147500X-0.172500X-0.147500X0*%
%ADD22RoundRect,0.135000X-0.135000X-0.185000X0.135000X-0.185000X0.135000X0.185000X-0.135000X0.185000X0*%
%ADD23R,1.550000X0.600000*%
%ADD24R,2.000000X1.200000*%
%ADD25RoundRect,0.140000X0.170000X-0.140000X0.170000X0.140000X-0.170000X0.140000X-0.170000X-0.140000X0*%
%ADD26RoundRect,0.135000X0.185000X-0.135000X0.185000X0.135000X-0.185000X0.135000X-0.185000X-0.135000X0*%
%ADD27R,0.800000X0.400000*%
%ADD28R,0.400000X0.800000*%
%ADD29Outline5P,-0.600000X0.204000X-0.204000X0.600000X0.600000X0.600000X0.600000X-0.600000X-0.600000X-0.600000X0.000000*%
%ADD30R,1.200000X1.200000*%
%ADD31R,0.800000X0.800000*%
%ADD32RoundRect,0.100000X0.100000X-0.562500X0.100000X0.562500X-0.100000X0.562500X-0.100000X-0.562500X0*%
%ADD33R,1.650000X0.500000*%
%ADD34RoundRect,0.087500X0.087500X-0.250000X0.087500X0.250000X-0.087500X0.250000X-0.087500X-0.250000X0*%
%ADD35C,0.520000*%
%ADD36C,0.890000*%
%ADD37R,0.870000X0.300000*%
%ADD38C,1.460000*%
%ADD39R,0.600000X0.250000*%
%ADD40R,1.000000X0.200000*%
G04 APERTURE END LIST*
D10*
%TO.C,C11*%
X254380000Y-141300000D03*
X255340000Y-141300000D03*
%TD*%
D11*
%TO.C,R14*%
X255350000Y-139300000D03*
X254330000Y-139300000D03*
%TD*%
D12*
%TO.C,J1*%
X242220000Y-147100000D03*
D13*
X244760000Y-147100000D03*
X247300000Y-147100000D03*
X249840000Y-147100000D03*
X252380000Y-147100000D03*
X254920000Y-147100000D03*
X257460000Y-147100000D03*
%TD*%
D14*
%TO.C,D7*%
X251760000Y-125300000D03*
X250920000Y-125300000D03*
%TD*%
D15*
%TO.C,D8*%
X248820000Y-125300000D03*
X249660000Y-125300000D03*
%TD*%
D16*
%TO.C,L1*%
X244500000Y-139500000D03*
X244500000Y-137900000D03*
%TD*%
D17*
%TO.C,C12*%
X255320000Y-134050000D03*
X254360000Y-134050000D03*
%TD*%
D18*
%TO.C,D6*%
X254010000Y-142565000D03*
X254010000Y-143665000D03*
X255840000Y-143665000D03*
X255840000Y-142565000D03*
%TD*%
D17*
%TO.C,C5*%
X244980000Y-140700000D03*
X244020000Y-140700000D03*
%TD*%
D19*
%TO.C,D4*%
X251385000Y-136800000D03*
X250415000Y-136800000D03*
%TD*%
D20*
%TO.C,R4*%
X253225000Y-130290000D03*
X253225000Y-131310000D03*
%TD*%
D12*
%TO.C,J6*%
X260000000Y-110260000D03*
D13*
X260000000Y-112800000D03*
X260000000Y-115340000D03*
X260000000Y-117880000D03*
X260000000Y-120420000D03*
X260000000Y-122960000D03*
X260000000Y-125500000D03*
X260000000Y-128040000D03*
X260000000Y-130580000D03*
X260000000Y-133120000D03*
X260000000Y-135660000D03*
X260000000Y-138200000D03*
X260000000Y-140740000D03*
X260000000Y-143280000D03*
X260000000Y-145820000D03*
%TD*%
D12*
%TO.C,J5*%
X239680000Y-115360000D03*
D13*
X239680000Y-117900000D03*
X239680000Y-120440000D03*
X239680000Y-122980000D03*
X239680000Y-125520000D03*
X239680000Y-128060000D03*
X239680000Y-130600000D03*
X239680000Y-133140000D03*
X239680000Y-135680000D03*
X239680000Y-138220000D03*
X239680000Y-140760000D03*
X239680000Y-143300000D03*
X239680000Y-145840000D03*
%TD*%
D21*
%TO.C,D5*%
X246640000Y-129020000D03*
X246640000Y-128050000D03*
%TD*%
D20*
%TO.C,R12*%
X245640000Y-128050000D03*
X245640000Y-129070000D03*
%TD*%
D22*
%TO.C,R13*%
X244080000Y-135050000D03*
X245100000Y-135050000D03*
%TD*%
D10*
%TO.C,C9*%
X246500000Y-135800000D03*
X247460000Y-135800000D03*
%TD*%
D23*
%TO.C,J3*%
X252601000Y-142300000D03*
X252601000Y-141300000D03*
X252601000Y-140300000D03*
X252601000Y-139300000D03*
D24*
X250176000Y-143600000D03*
X250176000Y-138000000D03*
%TD*%
D25*
%TO.C,C14*%
X253040000Y-136760000D03*
X253040000Y-135800000D03*
%TD*%
D11*
%TO.C,R16*%
X255350000Y-140300000D03*
X254330000Y-140300000D03*
%TD*%
D26*
%TO.C,R5*%
X247090000Y-131560000D03*
X247090000Y-130540000D03*
%TD*%
D14*
%TO.C,D1*%
X247475000Y-134800000D03*
X246635000Y-134800000D03*
%TD*%
D27*
%TO.C,U1*%
X242840000Y-110850000D03*
X242840000Y-111700000D03*
X242840000Y-112550000D03*
X242840000Y-113400000D03*
X242840000Y-114250000D03*
X242840000Y-115100000D03*
X242840000Y-115950000D03*
X242840000Y-116800000D03*
X242840000Y-117650000D03*
X242840000Y-118500000D03*
X242840000Y-119350000D03*
X242840000Y-120200000D03*
X242840000Y-121050000D03*
X242840000Y-121900000D03*
X242840000Y-122750000D03*
D28*
X243890000Y-123800000D03*
X244740000Y-123800000D03*
X245590000Y-123800000D03*
X246440000Y-123800000D03*
X247290000Y-123800000D03*
X248140000Y-123800000D03*
X248990000Y-123800000D03*
X249840000Y-123800000D03*
X250690000Y-123800000D03*
X251540000Y-123800000D03*
X252390000Y-123800000D03*
X253240000Y-123800000D03*
X254090000Y-123800000D03*
X254940000Y-123800000D03*
X255790000Y-123800000D03*
D27*
X256840000Y-122750000D03*
X256840000Y-121900000D03*
X256840000Y-121050000D03*
X256840000Y-120200000D03*
X256840000Y-119350000D03*
X256840000Y-118500000D03*
X256840000Y-117650000D03*
X256840000Y-116800000D03*
X256840000Y-115950000D03*
X256840000Y-115100000D03*
X256840000Y-114250000D03*
X256840000Y-113400000D03*
X256840000Y-112550000D03*
X256840000Y-111700000D03*
X256840000Y-110850000D03*
D28*
X255790000Y-109800000D03*
X254940000Y-109800000D03*
X254090000Y-109800000D03*
X253240000Y-109800000D03*
X252390000Y-109800000D03*
X251540000Y-109800000D03*
X250690000Y-109800000D03*
X249840000Y-109800000D03*
X248990000Y-109800000D03*
X248140000Y-109800000D03*
X247290000Y-109800000D03*
X246440000Y-109800000D03*
X245590000Y-109800000D03*
X244740000Y-109800000D03*
X243890000Y-109800000D03*
D29*
X248190000Y-115150000D03*
D30*
X248190000Y-116800000D03*
X248190000Y-118450000D03*
X249840000Y-115150000D03*
X249840000Y-116800000D03*
X249840000Y-118450000D03*
X251490000Y-115150000D03*
X251490000Y-116800000D03*
X251490000Y-118450000D03*
D31*
X242840000Y-109800000D03*
X242840000Y-123800000D03*
X256840000Y-123800000D03*
X256840000Y-109800000D03*
%TD*%
D17*
%TO.C,C4*%
X241340000Y-113000000D03*
X240380000Y-113000000D03*
%TD*%
D20*
%TO.C,R1*%
X248600000Y-139290000D03*
X248600000Y-140310000D03*
%TD*%
D32*
%TO.C,U3*%
X247050000Y-144287500D03*
X247700000Y-144287500D03*
X248350000Y-144287500D03*
X248350000Y-142512500D03*
X247700000Y-142512500D03*
X247050000Y-142512500D03*
%TD*%
D25*
%TO.C,C1*%
X246600000Y-137980000D03*
X246600000Y-137020000D03*
%TD*%
D32*
%TO.C,U2*%
X244450000Y-144287500D03*
X245100000Y-144287500D03*
X245750000Y-144287500D03*
X245750000Y-142512500D03*
X245100000Y-142512500D03*
X244450000Y-142512500D03*
%TD*%
D33*
%TO.C,S1*%
X244340000Y-130550000D03*
X244340000Y-132850000D03*
%TD*%
D10*
%TO.C,C10*%
X244110000Y-134050000D03*
X245070000Y-134050000D03*
%TD*%
D22*
%TO.C,R11*%
X248480000Y-136800000D03*
X249500000Y-136800000D03*
%TD*%
D34*
%TO.C,U4*%
X254340000Y-138212500D03*
X254840000Y-138212500D03*
X255340000Y-138212500D03*
X255340000Y-136787500D03*
X254840000Y-136787500D03*
X254340000Y-136787500D03*
%TD*%
D22*
%TO.C,R17*%
X254330000Y-135050000D03*
X255350000Y-135050000D03*
%TD*%
D12*
%TO.C,J4*%
X239680000Y-110270000D03*
%TD*%
D17*
%TO.C,C3*%
X241320000Y-112000000D03*
X240360000Y-112000000D03*
%TD*%
D25*
%TO.C,C2*%
X247600000Y-137980000D03*
X247600000Y-137020000D03*
%TD*%
D35*
%TO.C,J2*%
X250225000Y-134800000D03*
D36*
X250225000Y-127300000D03*
D37*
X249360000Y-133800000D03*
X249360000Y-132300000D03*
X249360000Y-131800000D03*
X249360000Y-131300000D03*
X249360000Y-130800000D03*
X249360000Y-130300000D03*
X249360000Y-129800000D03*
X249360000Y-128300000D03*
X251090000Y-128300000D03*
X251090000Y-129800000D03*
X251090000Y-130300000D03*
X251090000Y-130800000D03*
X251090000Y-131300000D03*
X251090000Y-131800000D03*
X251090000Y-132300000D03*
X251090000Y-133800000D03*
D38*
X248075000Y-133450000D03*
X248075000Y-128650000D03*
X252375000Y-128650000D03*
X252375000Y-133450000D03*
%TD*%
D33*
%TO.C,S2*%
X255090000Y-130550000D03*
X255090000Y-132850000D03*
%TD*%
D39*
%TO.C,IC1*%
X247500000Y-140100000D03*
X247500000Y-139600000D03*
X247500000Y-139100000D03*
D40*
X246400000Y-139100000D03*
X246400000Y-139600000D03*
X246400000Y-140100000D03*
%TD*%
G36*
X251473125Y-144419685D02*
G01*
X251518880Y-144472489D01*
X251530086Y-144524000D01*
X251530086Y-145276000D01*
X251510401Y-145343039D01*
X251457597Y-145388794D01*
X251406086Y-145400000D01*
X250254086Y-145400000D01*
X250187047Y-145380315D01*
X250141292Y-145327511D01*
X250130086Y-145276000D01*
X250130086Y-144524000D01*
X250149771Y-144456961D01*
X250202575Y-144411206D01*
X250254086Y-144400000D01*
X251406086Y-144400000D01*
X251473125Y-144419685D01*
G37*
M02*
