%TF.GenerationSoftware,KiCad,Pcbnew,9.0.7-9.0.7~ubuntu22.04.1*%
%TF.CreationDate,2026-02-25T11:11:38-07:00*%
%TF.ProjectId,ESP32-S3-MINI-1U_UU,45535033-322d-4533-932d-4d494e492d31,rev?*%
%TF.SameCoordinates,Original*%
%TF.FileFunction,Soldermask,Bot*%
%TF.FilePolarity,Negative*%
%FSLAX46Y46*%
G04 Gerber Fmt 4.6, Leading zero omitted, Abs format (unit mm)*
G04 Created by KiCad (PCBNEW 9.0.7-9.0.7~ubuntu22.04.1) date 2026-02-25 11:11:38*
%MOMM*%
%LPD*%
G01*
G04 APERTURE LIST*
%ADD10R,1.600000X1.600000*%
%ADD11C,1.600000*%
%ADD12C,0.520000*%
%ADD13C,0.890000*%
%ADD14C,1.460000*%
G04 APERTURE END LIST*
D10*
%TO.C,J1*%
X174780000Y-151100000D03*
D11*
X177320000Y-151100000D03*
X179860000Y-151100000D03*
X182400000Y-151100000D03*
X184940000Y-151100000D03*
X187480000Y-151100000D03*
X190020000Y-151100000D03*
%TD*%
D10*
%TO.C,J6*%
X192560000Y-114260000D03*
D11*
X192560000Y-116800000D03*
X192560000Y-119340000D03*
X192560000Y-121880000D03*
X192560000Y-124420000D03*
X192560000Y-126960000D03*
X192560000Y-129500000D03*
X192560000Y-132040000D03*
X192560000Y-134580000D03*
X192560000Y-137120000D03*
X192560000Y-139660000D03*
X192560000Y-142200000D03*
X192560000Y-144740000D03*
X192560000Y-147280000D03*
X192560000Y-149820000D03*
%TD*%
D10*
%TO.C,J5*%
X172240000Y-119360000D03*
D11*
X172240000Y-121900000D03*
X172240000Y-124440000D03*
X172240000Y-126980000D03*
X172240000Y-129520000D03*
X172240000Y-132060000D03*
X172240000Y-134600000D03*
X172240000Y-137140000D03*
X172240000Y-139680000D03*
X172240000Y-142220000D03*
X172240000Y-144760000D03*
X172240000Y-147300000D03*
X172240000Y-149840000D03*
%TD*%
D10*
%TO.C,J4*%
X172240000Y-114270000D03*
%TD*%
D12*
%TO.C,J2*%
X182785000Y-138800000D03*
D13*
X182785000Y-131300000D03*
D14*
X180635000Y-137450000D03*
X180635000Y-132650000D03*
X184935000Y-132650000D03*
X184935000Y-137450000D03*
%TD*%
M02*
