%TF.GenerationSoftware,KiCad,Pcbnew,9.0.7-9.0.7~ubuntu22.04.1*%
%TF.CreationDate,2026-02-12T22:58:37-07:00*%
%TF.ProjectId,ESP32-S3-MINI-1U_UU,45535033-322d-4533-932d-4d494e492d31,rev?*%
%TF.SameCoordinates,Original*%
%TF.FileFunction,Legend,Bot*%
%TF.FilePolarity,Positive*%
%FSLAX46Y46*%
G04 Gerber Fmt 4.6, Leading zero omitted, Abs format (unit mm)*
G04 Created by KiCad (PCBNEW 9.0.7-9.0.7~ubuntu22.04.1) date 2026-02-12 22:58:37*
%MOMM*%
%LPD*%
G01*
G04 APERTURE LIST*
%ADD10C,0.100000*%
%ADD11C,0.200000*%
G04 APERTURE END LIST*
D10*
X252800000Y-144700000D02*
X255100000Y-144700000D01*
X255300000Y-144800000D02*
X255300000Y-142400000D01*
X255300000Y-142400000D02*
X257800000Y-142400000D01*
X255100000Y-144700000D02*
X255100000Y-142500000D01*
X257800000Y-144800000D02*
X255300000Y-144800000D01*
X252800000Y-142500000D02*
X252800000Y-144700000D01*
X257800000Y-142400000D02*
X257800000Y-144800000D01*
X255100000Y-142500000D02*
X252800000Y-142500000D01*
X241466390Y-125377068D02*
X241466390Y-125615163D01*
X241466390Y-125615163D02*
X241228295Y-125638972D01*
X241228295Y-125638972D02*
X241252104Y-125615163D01*
X241252104Y-125615163D02*
X241275914Y-125567544D01*
X241275914Y-125567544D02*
X241275914Y-125448496D01*
X241275914Y-125448496D02*
X241252104Y-125400877D01*
X241252104Y-125400877D02*
X241228295Y-125377068D01*
X241228295Y-125377068D02*
X241180676Y-125353258D01*
X241180676Y-125353258D02*
X241061628Y-125353258D01*
X241061628Y-125353258D02*
X241014009Y-125377068D01*
X241014009Y-125377068D02*
X240990200Y-125400877D01*
X240990200Y-125400877D02*
X240966390Y-125448496D01*
X240966390Y-125448496D02*
X240966390Y-125567544D01*
X240966390Y-125567544D02*
X240990200Y-125615163D01*
X240990200Y-125615163D02*
X241014009Y-125638972D01*
X255378972Y-145181228D02*
X255355163Y-145157419D01*
X255355163Y-145157419D02*
X255307544Y-145133609D01*
X255307544Y-145133609D02*
X255188496Y-145133609D01*
X255188496Y-145133609D02*
X255140877Y-145157419D01*
X255140877Y-145157419D02*
X255117068Y-145181228D01*
X255117068Y-145181228D02*
X255093258Y-145228847D01*
X255093258Y-145228847D02*
X255093258Y-145276466D01*
X255093258Y-145276466D02*
X255117068Y-145347895D01*
X255117068Y-145347895D02*
X255402782Y-145633609D01*
X255402782Y-145633609D02*
X255093258Y-145633609D01*
X254617068Y-145633609D02*
X254902782Y-145633609D01*
X254759925Y-145633609D02*
X254759925Y-145133609D01*
X254759925Y-145133609D02*
X254807544Y-145205038D01*
X254807544Y-145205038D02*
X254855163Y-145252657D01*
X254855163Y-145252657D02*
X254902782Y-145276466D01*
X258233609Y-130237217D02*
X258233609Y-130546741D01*
X258233609Y-130546741D02*
X258424085Y-130380074D01*
X258424085Y-130380074D02*
X258424085Y-130451503D01*
X258424085Y-130451503D02*
X258447895Y-130499122D01*
X258447895Y-130499122D02*
X258471704Y-130522931D01*
X258471704Y-130522931D02*
X258519323Y-130546741D01*
X258519323Y-130546741D02*
X258638371Y-130546741D01*
X258638371Y-130546741D02*
X258685990Y-130522931D01*
X258685990Y-130522931D02*
X258709800Y-130499122D01*
X258709800Y-130499122D02*
X258733609Y-130451503D01*
X258733609Y-130451503D02*
X258733609Y-130308646D01*
X258733609Y-130308646D02*
X258709800Y-130261027D01*
X258709800Y-130261027D02*
X258685990Y-130237217D01*
X258447895Y-130832455D02*
X258424085Y-130784836D01*
X258424085Y-130784836D02*
X258400276Y-130761026D01*
X258400276Y-130761026D02*
X258352657Y-130737217D01*
X258352657Y-130737217D02*
X258328847Y-130737217D01*
X258328847Y-130737217D02*
X258281228Y-130761026D01*
X258281228Y-130761026D02*
X258257419Y-130784836D01*
X258257419Y-130784836D02*
X258233609Y-130832455D01*
X258233609Y-130832455D02*
X258233609Y-130927693D01*
X258233609Y-130927693D02*
X258257419Y-130975312D01*
X258257419Y-130975312D02*
X258281228Y-130999121D01*
X258281228Y-130999121D02*
X258328847Y-131022931D01*
X258328847Y-131022931D02*
X258352657Y-131022931D01*
X258352657Y-131022931D02*
X258400276Y-130999121D01*
X258400276Y-130999121D02*
X258424085Y-130975312D01*
X258424085Y-130975312D02*
X258447895Y-130927693D01*
X258447895Y-130927693D02*
X258447895Y-130832455D01*
X258447895Y-130832455D02*
X258471704Y-130784836D01*
X258471704Y-130784836D02*
X258495514Y-130761026D01*
X258495514Y-130761026D02*
X258543133Y-130737217D01*
X258543133Y-130737217D02*
X258638371Y-130737217D01*
X258638371Y-130737217D02*
X258685990Y-130761026D01*
X258685990Y-130761026D02*
X258709800Y-130784836D01*
X258709800Y-130784836D02*
X258733609Y-130832455D01*
X258733609Y-130832455D02*
X258733609Y-130927693D01*
X258733609Y-130927693D02*
X258709800Y-130975312D01*
X258709800Y-130975312D02*
X258685990Y-130999121D01*
X258685990Y-130999121D02*
X258638371Y-131022931D01*
X258638371Y-131022931D02*
X258543133Y-131022931D01*
X258543133Y-131022931D02*
X258495514Y-130999121D01*
X258495514Y-130999121D02*
X258471704Y-130975312D01*
X258471704Y-130975312D02*
X258447895Y-130927693D01*
X257278972Y-145181228D02*
X257255163Y-145157419D01*
X257255163Y-145157419D02*
X257207544Y-145133609D01*
X257207544Y-145133609D02*
X257088496Y-145133609D01*
X257088496Y-145133609D02*
X257040877Y-145157419D01*
X257040877Y-145157419D02*
X257017068Y-145181228D01*
X257017068Y-145181228D02*
X256993258Y-145228847D01*
X256993258Y-145228847D02*
X256993258Y-145276466D01*
X256993258Y-145276466D02*
X257017068Y-145347895D01*
X257017068Y-145347895D02*
X257302782Y-145633609D01*
X257302782Y-145633609D02*
X256993258Y-145633609D01*
X256564687Y-145133609D02*
X256659925Y-145133609D01*
X256659925Y-145133609D02*
X256707544Y-145157419D01*
X256707544Y-145157419D02*
X256731354Y-145181228D01*
X256731354Y-145181228D02*
X256778973Y-145252657D01*
X256778973Y-145252657D02*
X256802782Y-145347895D01*
X256802782Y-145347895D02*
X256802782Y-145538371D01*
X256802782Y-145538371D02*
X256778973Y-145585990D01*
X256778973Y-145585990D02*
X256755163Y-145609800D01*
X256755163Y-145609800D02*
X256707544Y-145633609D01*
X256707544Y-145633609D02*
X256612306Y-145633609D01*
X256612306Y-145633609D02*
X256564687Y-145609800D01*
X256564687Y-145609800D02*
X256540878Y-145585990D01*
X256540878Y-145585990D02*
X256517068Y-145538371D01*
X256517068Y-145538371D02*
X256517068Y-145419323D01*
X256517068Y-145419323D02*
X256540878Y-145371704D01*
X256540878Y-145371704D02*
X256564687Y-145347895D01*
X256564687Y-145347895D02*
X256612306Y-145324085D01*
X256612306Y-145324085D02*
X256707544Y-145324085D01*
X256707544Y-145324085D02*
X256755163Y-145347895D01*
X256755163Y-145347895D02*
X256778973Y-145371704D01*
X256778973Y-145371704D02*
X256802782Y-145419323D01*
X254838972Y-142781228D02*
X254815163Y-142757419D01*
X254815163Y-142757419D02*
X254767544Y-142733609D01*
X254767544Y-142733609D02*
X254648496Y-142733609D01*
X254648496Y-142733609D02*
X254600877Y-142757419D01*
X254600877Y-142757419D02*
X254577068Y-142781228D01*
X254577068Y-142781228D02*
X254553258Y-142828847D01*
X254553258Y-142828847D02*
X254553258Y-142876466D01*
X254553258Y-142876466D02*
X254577068Y-142947895D01*
X254577068Y-142947895D02*
X254862782Y-143233609D01*
X254862782Y-143233609D02*
X254553258Y-143233609D01*
X254243735Y-142733609D02*
X254196116Y-142733609D01*
X254196116Y-142733609D02*
X254148497Y-142757419D01*
X254148497Y-142757419D02*
X254124687Y-142781228D01*
X254124687Y-142781228D02*
X254100878Y-142828847D01*
X254100878Y-142828847D02*
X254077068Y-142924085D01*
X254077068Y-142924085D02*
X254077068Y-143043133D01*
X254077068Y-143043133D02*
X254100878Y-143138371D01*
X254100878Y-143138371D02*
X254124687Y-143185990D01*
X254124687Y-143185990D02*
X254148497Y-143209800D01*
X254148497Y-143209800D02*
X254196116Y-143233609D01*
X254196116Y-143233609D02*
X254243735Y-143233609D01*
X254243735Y-143233609D02*
X254291354Y-143209800D01*
X254291354Y-143209800D02*
X254315163Y-143185990D01*
X254315163Y-143185990D02*
X254338973Y-143138371D01*
X254338973Y-143138371D02*
X254362782Y-143043133D01*
X254362782Y-143043133D02*
X254362782Y-142924085D01*
X254362782Y-142924085D02*
X254338973Y-142828847D01*
X254338973Y-142828847D02*
X254315163Y-142781228D01*
X254315163Y-142781228D02*
X254291354Y-142757419D01*
X254291354Y-142757419D02*
X254243735Y-142733609D01*
X253886592Y-142781228D02*
X253862783Y-142757419D01*
X253862783Y-142757419D02*
X253815164Y-142733609D01*
X253815164Y-142733609D02*
X253696116Y-142733609D01*
X253696116Y-142733609D02*
X253648497Y-142757419D01*
X253648497Y-142757419D02*
X253624688Y-142781228D01*
X253624688Y-142781228D02*
X253600878Y-142828847D01*
X253600878Y-142828847D02*
X253600878Y-142876466D01*
X253600878Y-142876466D02*
X253624688Y-142947895D01*
X253624688Y-142947895D02*
X253910402Y-143233609D01*
X253910402Y-143233609D02*
X253600878Y-143233609D01*
X253172307Y-142733609D02*
X253267545Y-142733609D01*
X253267545Y-142733609D02*
X253315164Y-142757419D01*
X253315164Y-142757419D02*
X253338974Y-142781228D01*
X253338974Y-142781228D02*
X253386593Y-142852657D01*
X253386593Y-142852657D02*
X253410402Y-142947895D01*
X253410402Y-142947895D02*
X253410402Y-143138371D01*
X253410402Y-143138371D02*
X253386593Y-143185990D01*
X253386593Y-143185990D02*
X253362783Y-143209800D01*
X253362783Y-143209800D02*
X253315164Y-143233609D01*
X253315164Y-143233609D02*
X253219926Y-143233609D01*
X253219926Y-143233609D02*
X253172307Y-143209800D01*
X253172307Y-143209800D02*
X253148498Y-143185990D01*
X253148498Y-143185990D02*
X253124688Y-143138371D01*
X253124688Y-143138371D02*
X253124688Y-143019323D01*
X253124688Y-143019323D02*
X253148498Y-142971704D01*
X253148498Y-142971704D02*
X253172307Y-142947895D01*
X253172307Y-142947895D02*
X253219926Y-142924085D01*
X253219926Y-142924085D02*
X253315164Y-142924085D01*
X253315164Y-142924085D02*
X253362783Y-142947895D01*
X253362783Y-142947895D02*
X253386593Y-142971704D01*
X253386593Y-142971704D02*
X253410402Y-143019323D01*
X242793258Y-145533609D02*
X243078972Y-145533609D01*
X242936115Y-145533609D02*
X242936115Y-145033609D01*
X242936115Y-145033609D02*
X242983734Y-145105038D01*
X242983734Y-145105038D02*
X243031353Y-145152657D01*
X243031353Y-145152657D02*
X243078972Y-145176466D01*
X242364687Y-145033609D02*
X242459925Y-145033609D01*
X242459925Y-145033609D02*
X242507544Y-145057419D01*
X242507544Y-145057419D02*
X242531354Y-145081228D01*
X242531354Y-145081228D02*
X242578973Y-145152657D01*
X242578973Y-145152657D02*
X242602782Y-145247895D01*
X242602782Y-145247895D02*
X242602782Y-145438371D01*
X242602782Y-145438371D02*
X242578973Y-145485990D01*
X242578973Y-145485990D02*
X242555163Y-145509800D01*
X242555163Y-145509800D02*
X242507544Y-145533609D01*
X242507544Y-145533609D02*
X242412306Y-145533609D01*
X242412306Y-145533609D02*
X242364687Y-145509800D01*
X242364687Y-145509800D02*
X242340878Y-145485990D01*
X242340878Y-145485990D02*
X242317068Y-145438371D01*
X242317068Y-145438371D02*
X242317068Y-145319323D01*
X242317068Y-145319323D02*
X242340878Y-145271704D01*
X242340878Y-145271704D02*
X242364687Y-145247895D01*
X242364687Y-145247895D02*
X242412306Y-145224085D01*
X242412306Y-145224085D02*
X242507544Y-145224085D01*
X242507544Y-145224085D02*
X242555163Y-145247895D01*
X242555163Y-145247895D02*
X242578973Y-145271704D01*
X242578973Y-145271704D02*
X242602782Y-145319323D01*
X241482580Y-110653258D02*
X241506390Y-110700877D01*
X241506390Y-110700877D02*
X241506390Y-110772306D01*
X241506390Y-110772306D02*
X241482580Y-110843734D01*
X241482580Y-110843734D02*
X241434961Y-110891353D01*
X241434961Y-110891353D02*
X241387342Y-110915163D01*
X241387342Y-110915163D02*
X241292104Y-110938972D01*
X241292104Y-110938972D02*
X241220676Y-110938972D01*
X241220676Y-110938972D02*
X241125438Y-110915163D01*
X241125438Y-110915163D02*
X241077819Y-110891353D01*
X241077819Y-110891353D02*
X241030200Y-110843734D01*
X241030200Y-110843734D02*
X241006390Y-110772306D01*
X241006390Y-110772306D02*
X241006390Y-110724687D01*
X241006390Y-110724687D02*
X241030200Y-110653258D01*
X241030200Y-110653258D02*
X241054009Y-110629449D01*
X241054009Y-110629449D02*
X241220676Y-110629449D01*
X241220676Y-110629449D02*
X241220676Y-110724687D01*
X241006390Y-110415163D02*
X241506390Y-110415163D01*
X241506390Y-110415163D02*
X241006390Y-110129449D01*
X241006390Y-110129449D02*
X241506390Y-110129449D01*
X241006390Y-109891353D02*
X241506390Y-109891353D01*
X241506390Y-109891353D02*
X241506390Y-109772305D01*
X241506390Y-109772305D02*
X241482580Y-109700877D01*
X241482580Y-109700877D02*
X241434961Y-109653258D01*
X241434961Y-109653258D02*
X241387342Y-109629448D01*
X241387342Y-109629448D02*
X241292104Y-109605639D01*
X241292104Y-109605639D02*
X241220676Y-109605639D01*
X241220676Y-109605639D02*
X241125438Y-109629448D01*
X241125438Y-109629448D02*
X241077819Y-109653258D01*
X241077819Y-109653258D02*
X241030200Y-109700877D01*
X241030200Y-109700877D02*
X241006390Y-109772305D01*
X241006390Y-109772305D02*
X241006390Y-109891353D01*
X252653258Y-145157419D02*
X252700877Y-145133609D01*
X252700877Y-145133609D02*
X252772306Y-145133609D01*
X252772306Y-145133609D02*
X252843734Y-145157419D01*
X252843734Y-145157419D02*
X252891353Y-145205038D01*
X252891353Y-145205038D02*
X252915163Y-145252657D01*
X252915163Y-145252657D02*
X252938972Y-145347895D01*
X252938972Y-145347895D02*
X252938972Y-145419323D01*
X252938972Y-145419323D02*
X252915163Y-145514561D01*
X252915163Y-145514561D02*
X252891353Y-145562180D01*
X252891353Y-145562180D02*
X252843734Y-145609800D01*
X252843734Y-145609800D02*
X252772306Y-145633609D01*
X252772306Y-145633609D02*
X252724687Y-145633609D01*
X252724687Y-145633609D02*
X252653258Y-145609800D01*
X252653258Y-145609800D02*
X252629449Y-145585990D01*
X252629449Y-145585990D02*
X252629449Y-145419323D01*
X252629449Y-145419323D02*
X252724687Y-145419323D01*
X252415163Y-145633609D02*
X252415163Y-145133609D01*
X252415163Y-145133609D02*
X252129449Y-145633609D01*
X252129449Y-145633609D02*
X252129449Y-145133609D01*
X251891353Y-145633609D02*
X251891353Y-145133609D01*
X251891353Y-145133609D02*
X251772305Y-145133609D01*
X251772305Y-145133609D02*
X251700877Y-145157419D01*
X251700877Y-145157419D02*
X251653258Y-145205038D01*
X251653258Y-145205038D02*
X251629448Y-145252657D01*
X251629448Y-145252657D02*
X251605639Y-145347895D01*
X251605639Y-145347895D02*
X251605639Y-145419323D01*
X251605639Y-145419323D02*
X251629448Y-145514561D01*
X251629448Y-145514561D02*
X251653258Y-145562180D01*
X251653258Y-145562180D02*
X251700877Y-145609800D01*
X251700877Y-145609800D02*
X251772305Y-145633609D01*
X251772305Y-145633609D02*
X251891353Y-145633609D01*
X258233609Y-117413408D02*
X258233609Y-117699122D01*
X258733609Y-117556265D02*
X258233609Y-117556265D01*
X258233609Y-117818169D02*
X258733609Y-118151502D01*
X258233609Y-118151502D02*
X258733609Y-117818169D01*
X247453258Y-145633609D02*
X247738972Y-145633609D01*
X247596115Y-145633609D02*
X247596115Y-145133609D01*
X247596115Y-145133609D02*
X247643734Y-145205038D01*
X247643734Y-145205038D02*
X247691353Y-145252657D01*
X247691353Y-145252657D02*
X247738972Y-145276466D01*
X247167544Y-145347895D02*
X247215163Y-145324085D01*
X247215163Y-145324085D02*
X247238973Y-145300276D01*
X247238973Y-145300276D02*
X247262782Y-145252657D01*
X247262782Y-145252657D02*
X247262782Y-145228847D01*
X247262782Y-145228847D02*
X247238973Y-145181228D01*
X247238973Y-145181228D02*
X247215163Y-145157419D01*
X247215163Y-145157419D02*
X247167544Y-145133609D01*
X247167544Y-145133609D02*
X247072306Y-145133609D01*
X247072306Y-145133609D02*
X247024687Y-145157419D01*
X247024687Y-145157419D02*
X247000878Y-145181228D01*
X247000878Y-145181228D02*
X246977068Y-145228847D01*
X246977068Y-145228847D02*
X246977068Y-145252657D01*
X246977068Y-145252657D02*
X247000878Y-145300276D01*
X247000878Y-145300276D02*
X247024687Y-145324085D01*
X247024687Y-145324085D02*
X247072306Y-145347895D01*
X247072306Y-145347895D02*
X247167544Y-145347895D01*
X247167544Y-145347895D02*
X247215163Y-145371704D01*
X247215163Y-145371704D02*
X247238973Y-145395514D01*
X247238973Y-145395514D02*
X247262782Y-145443133D01*
X247262782Y-145443133D02*
X247262782Y-145538371D01*
X247262782Y-145538371D02*
X247238973Y-145585990D01*
X247238973Y-145585990D02*
X247215163Y-145609800D01*
X247215163Y-145609800D02*
X247167544Y-145633609D01*
X247167544Y-145633609D02*
X247072306Y-145633609D01*
X247072306Y-145633609D02*
X247024687Y-145609800D01*
X247024687Y-145609800D02*
X247000878Y-145585990D01*
X247000878Y-145585990D02*
X246977068Y-145538371D01*
X246977068Y-145538371D02*
X246977068Y-145443133D01*
X246977068Y-145443133D02*
X247000878Y-145395514D01*
X247000878Y-145395514D02*
X247024687Y-145371704D01*
X247024687Y-145371704D02*
X247072306Y-145347895D01*
X258340276Y-144899122D02*
X258673609Y-144899122D01*
X258149800Y-144780074D02*
X258506942Y-144661027D01*
X258506942Y-144661027D02*
X258506942Y-144970550D01*
X258173609Y-145113407D02*
X258173609Y-145446740D01*
X258173609Y-145446740D02*
X258673609Y-145232455D01*
X240966390Y-138453258D02*
X240966390Y-138738972D01*
X240966390Y-138596115D02*
X241466390Y-138596115D01*
X241466390Y-138596115D02*
X241394961Y-138643734D01*
X241394961Y-138643734D02*
X241347342Y-138691353D01*
X241347342Y-138691353D02*
X241323533Y-138738972D01*
X241418771Y-138262782D02*
X241442580Y-138238973D01*
X241442580Y-138238973D02*
X241466390Y-138191354D01*
X241466390Y-138191354D02*
X241466390Y-138072306D01*
X241466390Y-138072306D02*
X241442580Y-138024687D01*
X241442580Y-138024687D02*
X241418771Y-138000878D01*
X241418771Y-138000878D02*
X241371152Y-137977068D01*
X241371152Y-137977068D02*
X241323533Y-137977068D01*
X241323533Y-137977068D02*
X241252104Y-138000878D01*
X241252104Y-138000878D02*
X240966390Y-138286592D01*
X240966390Y-138286592D02*
X240966390Y-137977068D01*
X241006390Y-145253258D02*
X241006390Y-145538972D01*
X241006390Y-145396115D02*
X241506390Y-145396115D01*
X241506390Y-145396115D02*
X241434961Y-145443734D01*
X241434961Y-145443734D02*
X241387342Y-145491353D01*
X241387342Y-145491353D02*
X241363533Y-145538972D01*
X241506390Y-144800878D02*
X241506390Y-145038973D01*
X241506390Y-145038973D02*
X241268295Y-145062782D01*
X241268295Y-145062782D02*
X241292104Y-145038973D01*
X241292104Y-145038973D02*
X241315914Y-144991354D01*
X241315914Y-144991354D02*
X241315914Y-144872306D01*
X241315914Y-144872306D02*
X241292104Y-144824687D01*
X241292104Y-144824687D02*
X241268295Y-144800878D01*
X241268295Y-144800878D02*
X241220676Y-144777068D01*
X241220676Y-144777068D02*
X241101628Y-144777068D01*
X241101628Y-144777068D02*
X241054009Y-144800878D01*
X241054009Y-144800878D02*
X241030200Y-144824687D01*
X241030200Y-144824687D02*
X241006390Y-144872306D01*
X241006390Y-144872306D02*
X241006390Y-144991354D01*
X241006390Y-144991354D02*
X241030200Y-145038973D01*
X241030200Y-145038973D02*
X241054009Y-145062782D01*
X241466390Y-116562782D02*
X241466390Y-116253258D01*
X241466390Y-116253258D02*
X241275914Y-116419925D01*
X241275914Y-116419925D02*
X241275914Y-116348496D01*
X241275914Y-116348496D02*
X241252104Y-116300877D01*
X241252104Y-116300877D02*
X241228295Y-116277068D01*
X241228295Y-116277068D02*
X241180676Y-116253258D01*
X241180676Y-116253258D02*
X241061628Y-116253258D01*
X241061628Y-116253258D02*
X241014009Y-116277068D01*
X241014009Y-116277068D02*
X240990200Y-116300877D01*
X240990200Y-116300877D02*
X240966390Y-116348496D01*
X240966390Y-116348496D02*
X240966390Y-116491353D01*
X240966390Y-116491353D02*
X240990200Y-116538972D01*
X240990200Y-116538972D02*
X241014009Y-116562782D01*
X241466390Y-116110401D02*
X240966390Y-115943735D01*
X240966390Y-115943735D02*
X241466390Y-115777068D01*
X241466390Y-115658021D02*
X241466390Y-115348497D01*
X241466390Y-115348497D02*
X241275914Y-115515164D01*
X241275914Y-115515164D02*
X241275914Y-115443735D01*
X241275914Y-115443735D02*
X241252104Y-115396116D01*
X241252104Y-115396116D02*
X241228295Y-115372307D01*
X241228295Y-115372307D02*
X241180676Y-115348497D01*
X241180676Y-115348497D02*
X241061628Y-115348497D01*
X241061628Y-115348497D02*
X241014009Y-115372307D01*
X241014009Y-115372307D02*
X240990200Y-115396116D01*
X240990200Y-115396116D02*
X240966390Y-115443735D01*
X240966390Y-115443735D02*
X240966390Y-115586592D01*
X240966390Y-115586592D02*
X240990200Y-115634211D01*
X240990200Y-115634211D02*
X241014009Y-115658021D01*
X240966390Y-115062783D02*
X240990200Y-115110402D01*
X240990200Y-115110402D02*
X241014009Y-115134212D01*
X241014009Y-115134212D02*
X241061628Y-115158021D01*
X241061628Y-115158021D02*
X241204485Y-115158021D01*
X241204485Y-115158021D02*
X241252104Y-115134212D01*
X241252104Y-115134212D02*
X241275914Y-115110402D01*
X241275914Y-115110402D02*
X241299723Y-115062783D01*
X241299723Y-115062783D02*
X241299723Y-114991355D01*
X241299723Y-114991355D02*
X241275914Y-114943736D01*
X241275914Y-114943736D02*
X241252104Y-114919926D01*
X241252104Y-114919926D02*
X241204485Y-114896117D01*
X241204485Y-114896117D02*
X241061628Y-114896117D01*
X241061628Y-114896117D02*
X241014009Y-114919926D01*
X241014009Y-114919926D02*
X240990200Y-114943736D01*
X240990200Y-114943736D02*
X240966390Y-114991355D01*
X240966390Y-114991355D02*
X240966390Y-115062783D01*
X241299723Y-114467545D02*
X240966390Y-114467545D01*
X241299723Y-114681831D02*
X241037819Y-114681831D01*
X241037819Y-114681831D02*
X240990200Y-114658021D01*
X240990200Y-114658021D02*
X240966390Y-114610402D01*
X240966390Y-114610402D02*
X240966390Y-114538974D01*
X240966390Y-114538974D02*
X240990200Y-114491355D01*
X240990200Y-114491355D02*
X241014009Y-114467545D01*
X241299723Y-114300878D02*
X241299723Y-114110402D01*
X241466390Y-114229450D02*
X241037819Y-114229450D01*
X241037819Y-114229450D02*
X240990200Y-114205640D01*
X240990200Y-114205640D02*
X240966390Y-114158021D01*
X240966390Y-114158021D02*
X240966390Y-114110402D01*
X241299723Y-122800877D02*
X240966390Y-122800877D01*
X241490200Y-122919925D02*
X241133057Y-123038972D01*
X241133057Y-123038972D02*
X241133057Y-122729449D01*
X258400276Y-112799122D02*
X258733609Y-112799122D01*
X258209800Y-112680074D02*
X258566942Y-112561027D01*
X258566942Y-112561027D02*
X258566942Y-112870550D01*
X258233609Y-113299121D02*
X258233609Y-113061026D01*
X258233609Y-113061026D02*
X258471704Y-113037217D01*
X258471704Y-113037217D02*
X258447895Y-113061026D01*
X258447895Y-113061026D02*
X258424085Y-113108645D01*
X258424085Y-113108645D02*
X258424085Y-113227693D01*
X258424085Y-113227693D02*
X258447895Y-113275312D01*
X258447895Y-113275312D02*
X258471704Y-113299121D01*
X258471704Y-113299121D02*
X258519323Y-113322931D01*
X258519323Y-113322931D02*
X258638371Y-113322931D01*
X258638371Y-113322931D02*
X258685990Y-113299121D01*
X258685990Y-113299121D02*
X258709800Y-113275312D01*
X258709800Y-113275312D02*
X258733609Y-113227693D01*
X258733609Y-113227693D02*
X258733609Y-113108645D01*
X258733609Y-113108645D02*
X258709800Y-113061026D01*
X258709800Y-113061026D02*
X258685990Y-113037217D01*
X258733609Y-115170550D02*
X258495514Y-115003884D01*
X258733609Y-114884836D02*
X258233609Y-114884836D01*
X258233609Y-114884836D02*
X258233609Y-115075312D01*
X258233609Y-115075312D02*
X258257419Y-115122931D01*
X258257419Y-115122931D02*
X258281228Y-115146741D01*
X258281228Y-115146741D02*
X258328847Y-115170550D01*
X258328847Y-115170550D02*
X258400276Y-115170550D01*
X258400276Y-115170550D02*
X258447895Y-115146741D01*
X258447895Y-115146741D02*
X258471704Y-115122931D01*
X258471704Y-115122931D02*
X258495514Y-115075312D01*
X258495514Y-115075312D02*
X258495514Y-114884836D01*
X258233609Y-115337217D02*
X258733609Y-115670550D01*
X258233609Y-115670550D02*
X258733609Y-115337217D01*
X241466390Y-128000877D02*
X241466390Y-128096115D01*
X241466390Y-128096115D02*
X241442580Y-128143734D01*
X241442580Y-128143734D02*
X241418771Y-128167544D01*
X241418771Y-128167544D02*
X241347342Y-128215163D01*
X241347342Y-128215163D02*
X241252104Y-128238972D01*
X241252104Y-128238972D02*
X241061628Y-128238972D01*
X241061628Y-128238972D02*
X241014009Y-128215163D01*
X241014009Y-128215163D02*
X240990200Y-128191353D01*
X240990200Y-128191353D02*
X240966390Y-128143734D01*
X240966390Y-128143734D02*
X240966390Y-128048496D01*
X240966390Y-128048496D02*
X240990200Y-128000877D01*
X240990200Y-128000877D02*
X241014009Y-127977068D01*
X241014009Y-127977068D02*
X241061628Y-127953258D01*
X241061628Y-127953258D02*
X241180676Y-127953258D01*
X241180676Y-127953258D02*
X241228295Y-127977068D01*
X241228295Y-127977068D02*
X241252104Y-128000877D01*
X241252104Y-128000877D02*
X241275914Y-128048496D01*
X241275914Y-128048496D02*
X241275914Y-128143734D01*
X241275914Y-128143734D02*
X241252104Y-128191353D01*
X241252104Y-128191353D02*
X241228295Y-128215163D01*
X241228295Y-128215163D02*
X241180676Y-128238972D01*
X258400276Y-110199122D02*
X258733609Y-110199122D01*
X258209800Y-110080074D02*
X258566942Y-109961027D01*
X258566942Y-109961027D02*
X258566942Y-110270550D01*
X258233609Y-110675312D02*
X258233609Y-110580074D01*
X258233609Y-110580074D02*
X258257419Y-110532455D01*
X258257419Y-110532455D02*
X258281228Y-110508645D01*
X258281228Y-110508645D02*
X258352657Y-110461026D01*
X258352657Y-110461026D02*
X258447895Y-110437217D01*
X258447895Y-110437217D02*
X258638371Y-110437217D01*
X258638371Y-110437217D02*
X258685990Y-110461026D01*
X258685990Y-110461026D02*
X258709800Y-110484836D01*
X258709800Y-110484836D02*
X258733609Y-110532455D01*
X258733609Y-110532455D02*
X258733609Y-110627693D01*
X258733609Y-110627693D02*
X258709800Y-110675312D01*
X258709800Y-110675312D02*
X258685990Y-110699121D01*
X258685990Y-110699121D02*
X258638371Y-110722931D01*
X258638371Y-110722931D02*
X258519323Y-110722931D01*
X258519323Y-110722931D02*
X258471704Y-110699121D01*
X258471704Y-110699121D02*
X258447895Y-110675312D01*
X258447895Y-110675312D02*
X258424085Y-110627693D01*
X258424085Y-110627693D02*
X258424085Y-110532455D01*
X258424085Y-110532455D02*
X258447895Y-110484836D01*
X258447895Y-110484836D02*
X258471704Y-110461026D01*
X258471704Y-110461026D02*
X258519323Y-110437217D01*
X258733609Y-124484836D02*
X258233609Y-124484836D01*
X258233609Y-124484836D02*
X258590752Y-124651503D01*
X258590752Y-124651503D02*
X258233609Y-124818169D01*
X258233609Y-124818169D02*
X258733609Y-124818169D01*
X258233609Y-124984837D02*
X258233609Y-125270551D01*
X258733609Y-125127694D02*
X258233609Y-125127694D01*
X258733609Y-125437217D02*
X258233609Y-125437217D01*
X258233609Y-125437217D02*
X258233609Y-125556265D01*
X258233609Y-125556265D02*
X258257419Y-125627693D01*
X258257419Y-125627693D02*
X258305038Y-125675312D01*
X258305038Y-125675312D02*
X258352657Y-125699122D01*
X258352657Y-125699122D02*
X258447895Y-125722931D01*
X258447895Y-125722931D02*
X258519323Y-125722931D01*
X258519323Y-125722931D02*
X258614561Y-125699122D01*
X258614561Y-125699122D02*
X258662180Y-125675312D01*
X258662180Y-125675312D02*
X258709800Y-125627693D01*
X258709800Y-125627693D02*
X258733609Y-125556265D01*
X258733609Y-125556265D02*
X258733609Y-125437217D01*
X258233609Y-126032455D02*
X258233609Y-126127693D01*
X258233609Y-126127693D02*
X258257419Y-126175312D01*
X258257419Y-126175312D02*
X258305038Y-126222931D01*
X258305038Y-126222931D02*
X258400276Y-126246741D01*
X258400276Y-126246741D02*
X258566942Y-126246741D01*
X258566942Y-126246741D02*
X258662180Y-126222931D01*
X258662180Y-126222931D02*
X258709800Y-126175312D01*
X258709800Y-126175312D02*
X258733609Y-126127693D01*
X258733609Y-126127693D02*
X258733609Y-126032455D01*
X258733609Y-126032455D02*
X258709800Y-125984836D01*
X258709800Y-125984836D02*
X258662180Y-125937217D01*
X258662180Y-125937217D02*
X258566942Y-125913408D01*
X258566942Y-125913408D02*
X258400276Y-125913408D01*
X258400276Y-125913408D02*
X258305038Y-125937217D01*
X258305038Y-125937217D02*
X258257419Y-125984836D01*
X258257419Y-125984836D02*
X258233609Y-126032455D01*
X250277068Y-145133609D02*
X250515163Y-145133609D01*
X250515163Y-145133609D02*
X250538972Y-145371704D01*
X250538972Y-145371704D02*
X250515163Y-145347895D01*
X250515163Y-145347895D02*
X250467544Y-145324085D01*
X250467544Y-145324085D02*
X250348496Y-145324085D01*
X250348496Y-145324085D02*
X250300877Y-145347895D01*
X250300877Y-145347895D02*
X250277068Y-145371704D01*
X250277068Y-145371704D02*
X250253258Y-145419323D01*
X250253258Y-145419323D02*
X250253258Y-145538371D01*
X250253258Y-145538371D02*
X250277068Y-145585990D01*
X250277068Y-145585990D02*
X250300877Y-145609800D01*
X250300877Y-145609800D02*
X250348496Y-145633609D01*
X250348496Y-145633609D02*
X250467544Y-145633609D01*
X250467544Y-145633609D02*
X250515163Y-145609800D01*
X250515163Y-145609800D02*
X250538972Y-145585990D01*
X250110401Y-145133609D02*
X249943735Y-145633609D01*
X249943735Y-145633609D02*
X249777068Y-145133609D01*
X249610402Y-145633609D02*
X249610402Y-145300276D01*
X249610402Y-145133609D02*
X249634211Y-145157419D01*
X249634211Y-145157419D02*
X249610402Y-145181228D01*
X249610402Y-145181228D02*
X249586592Y-145157419D01*
X249586592Y-145157419D02*
X249610402Y-145133609D01*
X249610402Y-145133609D02*
X249610402Y-145181228D01*
X249372307Y-145300276D02*
X249372307Y-145633609D01*
X249372307Y-145347895D02*
X249348497Y-145324085D01*
X249348497Y-145324085D02*
X249300878Y-145300276D01*
X249300878Y-145300276D02*
X249229450Y-145300276D01*
X249229450Y-145300276D02*
X249181831Y-145324085D01*
X249181831Y-145324085D02*
X249158021Y-145371704D01*
X249158021Y-145371704D02*
X249158021Y-145633609D01*
X258233609Y-135237217D02*
X258233609Y-135546741D01*
X258233609Y-135546741D02*
X258424085Y-135380074D01*
X258424085Y-135380074D02*
X258424085Y-135451503D01*
X258424085Y-135451503D02*
X258447895Y-135499122D01*
X258447895Y-135499122D02*
X258471704Y-135522931D01*
X258471704Y-135522931D02*
X258519323Y-135546741D01*
X258519323Y-135546741D02*
X258638371Y-135546741D01*
X258638371Y-135546741D02*
X258685990Y-135522931D01*
X258685990Y-135522931D02*
X258709800Y-135499122D01*
X258709800Y-135499122D02*
X258733609Y-135451503D01*
X258733609Y-135451503D02*
X258733609Y-135308646D01*
X258733609Y-135308646D02*
X258709800Y-135261027D01*
X258709800Y-135261027D02*
X258685990Y-135237217D01*
X258233609Y-135975312D02*
X258233609Y-135880074D01*
X258233609Y-135880074D02*
X258257419Y-135832455D01*
X258257419Y-135832455D02*
X258281228Y-135808645D01*
X258281228Y-135808645D02*
X258352657Y-135761026D01*
X258352657Y-135761026D02*
X258447895Y-135737217D01*
X258447895Y-135737217D02*
X258638371Y-135737217D01*
X258638371Y-135737217D02*
X258685990Y-135761026D01*
X258685990Y-135761026D02*
X258709800Y-135784836D01*
X258709800Y-135784836D02*
X258733609Y-135832455D01*
X258733609Y-135832455D02*
X258733609Y-135927693D01*
X258733609Y-135927693D02*
X258709800Y-135975312D01*
X258709800Y-135975312D02*
X258685990Y-135999121D01*
X258685990Y-135999121D02*
X258638371Y-136022931D01*
X258638371Y-136022931D02*
X258519323Y-136022931D01*
X258519323Y-136022931D02*
X258471704Y-135999121D01*
X258471704Y-135999121D02*
X258447895Y-135975312D01*
X258447895Y-135975312D02*
X258424085Y-135927693D01*
X258424085Y-135927693D02*
X258424085Y-135832455D01*
X258424085Y-135832455D02*
X258447895Y-135784836D01*
X258447895Y-135784836D02*
X258471704Y-135761026D01*
X258471704Y-135761026D02*
X258519323Y-135737217D01*
X241006390Y-133253258D02*
X241006390Y-133538972D01*
X241006390Y-133396115D02*
X241506390Y-133396115D01*
X241506390Y-133396115D02*
X241434961Y-133443734D01*
X241434961Y-133443734D02*
X241387342Y-133491353D01*
X241387342Y-133491353D02*
X241363533Y-133538972D01*
X241506390Y-132943735D02*
X241506390Y-132896116D01*
X241506390Y-132896116D02*
X241482580Y-132848497D01*
X241482580Y-132848497D02*
X241458771Y-132824687D01*
X241458771Y-132824687D02*
X241411152Y-132800878D01*
X241411152Y-132800878D02*
X241315914Y-132777068D01*
X241315914Y-132777068D02*
X241196866Y-132777068D01*
X241196866Y-132777068D02*
X241101628Y-132800878D01*
X241101628Y-132800878D02*
X241054009Y-132824687D01*
X241054009Y-132824687D02*
X241030200Y-132848497D01*
X241030200Y-132848497D02*
X241006390Y-132896116D01*
X241006390Y-132896116D02*
X241006390Y-132943735D01*
X241006390Y-132943735D02*
X241030200Y-132991354D01*
X241030200Y-132991354D02*
X241054009Y-133015163D01*
X241054009Y-133015163D02*
X241101628Y-133038973D01*
X241101628Y-133038973D02*
X241196866Y-133062782D01*
X241196866Y-133062782D02*
X241315914Y-133062782D01*
X241315914Y-133062782D02*
X241411152Y-133038973D01*
X241411152Y-133038973D02*
X241458771Y-133015163D01*
X241458771Y-133015163D02*
X241482580Y-132991354D01*
X241482580Y-132991354D02*
X241506390Y-132943735D01*
X244853258Y-145633609D02*
X245138972Y-145633609D01*
X244996115Y-145633609D02*
X244996115Y-145133609D01*
X244996115Y-145133609D02*
X245043734Y-145205038D01*
X245043734Y-145205038D02*
X245091353Y-145252657D01*
X245091353Y-145252657D02*
X245138972Y-145276466D01*
X244686592Y-145133609D02*
X244353259Y-145133609D01*
X244353259Y-145133609D02*
X244567544Y-145633609D01*
X258233609Y-137837217D02*
X258233609Y-138146741D01*
X258233609Y-138146741D02*
X258424085Y-137980074D01*
X258424085Y-137980074D02*
X258424085Y-138051503D01*
X258424085Y-138051503D02*
X258447895Y-138099122D01*
X258447895Y-138099122D02*
X258471704Y-138122931D01*
X258471704Y-138122931D02*
X258519323Y-138146741D01*
X258519323Y-138146741D02*
X258638371Y-138146741D01*
X258638371Y-138146741D02*
X258685990Y-138122931D01*
X258685990Y-138122931D02*
X258709800Y-138099122D01*
X258709800Y-138099122D02*
X258733609Y-138051503D01*
X258733609Y-138051503D02*
X258733609Y-137908646D01*
X258733609Y-137908646D02*
X258709800Y-137861027D01*
X258709800Y-137861027D02*
X258685990Y-137837217D01*
X258233609Y-138599121D02*
X258233609Y-138361026D01*
X258233609Y-138361026D02*
X258471704Y-138337217D01*
X258471704Y-138337217D02*
X258447895Y-138361026D01*
X258447895Y-138361026D02*
X258424085Y-138408645D01*
X258424085Y-138408645D02*
X258424085Y-138527693D01*
X258424085Y-138527693D02*
X258447895Y-138575312D01*
X258447895Y-138575312D02*
X258471704Y-138599121D01*
X258471704Y-138599121D02*
X258519323Y-138622931D01*
X258519323Y-138622931D02*
X258638371Y-138622931D01*
X258638371Y-138622931D02*
X258685990Y-138599121D01*
X258685990Y-138599121D02*
X258709800Y-138575312D01*
X258709800Y-138575312D02*
X258733609Y-138527693D01*
X258733609Y-138527693D02*
X258733609Y-138408645D01*
X258733609Y-138408645D02*
X258709800Y-138361026D01*
X258709800Y-138361026D02*
X258685990Y-138337217D01*
X258133609Y-142837217D02*
X258133609Y-143146741D01*
X258133609Y-143146741D02*
X258324085Y-142980074D01*
X258324085Y-142980074D02*
X258324085Y-143051503D01*
X258324085Y-143051503D02*
X258347895Y-143099122D01*
X258347895Y-143099122D02*
X258371704Y-143122931D01*
X258371704Y-143122931D02*
X258419323Y-143146741D01*
X258419323Y-143146741D02*
X258538371Y-143146741D01*
X258538371Y-143146741D02*
X258585990Y-143122931D01*
X258585990Y-143122931D02*
X258609800Y-143099122D01*
X258609800Y-143099122D02*
X258633609Y-143051503D01*
X258633609Y-143051503D02*
X258633609Y-142908646D01*
X258633609Y-142908646D02*
X258609800Y-142861027D01*
X258609800Y-142861027D02*
X258585990Y-142837217D01*
X258133609Y-143313407D02*
X258133609Y-143622931D01*
X258133609Y-143622931D02*
X258324085Y-143456264D01*
X258324085Y-143456264D02*
X258324085Y-143527693D01*
X258324085Y-143527693D02*
X258347895Y-143575312D01*
X258347895Y-143575312D02*
X258371704Y-143599121D01*
X258371704Y-143599121D02*
X258419323Y-143622931D01*
X258419323Y-143622931D02*
X258538371Y-143622931D01*
X258538371Y-143622931D02*
X258585990Y-143599121D01*
X258585990Y-143599121D02*
X258609800Y-143575312D01*
X258609800Y-143575312D02*
X258633609Y-143527693D01*
X258633609Y-143527693D02*
X258633609Y-143384836D01*
X258633609Y-143384836D02*
X258609800Y-143337217D01*
X258609800Y-143337217D02*
X258585990Y-143313407D01*
X241006390Y-135753258D02*
X241006390Y-136038972D01*
X241006390Y-135896115D02*
X241506390Y-135896115D01*
X241506390Y-135896115D02*
X241434961Y-135943734D01*
X241434961Y-135943734D02*
X241387342Y-135991353D01*
X241387342Y-135991353D02*
X241363533Y-136038972D01*
X241006390Y-135277068D02*
X241006390Y-135562782D01*
X241006390Y-135419925D02*
X241506390Y-135419925D01*
X241506390Y-135419925D02*
X241434961Y-135467544D01*
X241434961Y-135467544D02*
X241387342Y-135515163D01*
X241387342Y-135515163D02*
X241363533Y-135562782D01*
X241466390Y-120362782D02*
X241466390Y-120053258D01*
X241466390Y-120053258D02*
X241275914Y-120219925D01*
X241275914Y-120219925D02*
X241275914Y-120148496D01*
X241275914Y-120148496D02*
X241252104Y-120100877D01*
X241252104Y-120100877D02*
X241228295Y-120077068D01*
X241228295Y-120077068D02*
X241180676Y-120053258D01*
X241180676Y-120053258D02*
X241061628Y-120053258D01*
X241061628Y-120053258D02*
X241014009Y-120077068D01*
X241014009Y-120077068D02*
X240990200Y-120100877D01*
X240990200Y-120100877D02*
X240966390Y-120148496D01*
X240966390Y-120148496D02*
X240966390Y-120291353D01*
X240966390Y-120291353D02*
X240990200Y-120338972D01*
X240990200Y-120338972D02*
X241014009Y-120362782D01*
X240966390Y-140853258D02*
X240966390Y-141138972D01*
X240966390Y-140996115D02*
X241466390Y-140996115D01*
X241466390Y-140996115D02*
X241394961Y-141043734D01*
X241394961Y-141043734D02*
X241347342Y-141091353D01*
X241347342Y-141091353D02*
X241323533Y-141138972D01*
X241466390Y-140686592D02*
X241466390Y-140377068D01*
X241466390Y-140377068D02*
X241275914Y-140543735D01*
X241275914Y-140543735D02*
X241275914Y-140472306D01*
X241275914Y-140472306D02*
X241252104Y-140424687D01*
X241252104Y-140424687D02*
X241228295Y-140400878D01*
X241228295Y-140400878D02*
X241180676Y-140377068D01*
X241180676Y-140377068D02*
X241061628Y-140377068D01*
X241061628Y-140377068D02*
X241014009Y-140400878D01*
X241014009Y-140400878D02*
X240990200Y-140424687D01*
X240990200Y-140424687D02*
X240966390Y-140472306D01*
X240966390Y-140472306D02*
X240966390Y-140615163D01*
X240966390Y-140615163D02*
X240990200Y-140662782D01*
X240990200Y-140662782D02*
X241014009Y-140686592D01*
X240966390Y-143453258D02*
X240966390Y-143738972D01*
X240966390Y-143596115D02*
X241466390Y-143596115D01*
X241466390Y-143596115D02*
X241394961Y-143643734D01*
X241394961Y-143643734D02*
X241347342Y-143691353D01*
X241347342Y-143691353D02*
X241323533Y-143738972D01*
X241299723Y-143024687D02*
X240966390Y-143024687D01*
X241490200Y-143143735D02*
X241133057Y-143262782D01*
X241133057Y-143262782D02*
X241133057Y-142953259D01*
X241466390Y-130662782D02*
X241466390Y-130329449D01*
X241466390Y-130329449D02*
X240966390Y-130543734D01*
X258733609Y-119484836D02*
X258233609Y-119484836D01*
X258233609Y-119484836D02*
X258590752Y-119651503D01*
X258590752Y-119651503D02*
X258233609Y-119818169D01*
X258233609Y-119818169D02*
X258733609Y-119818169D01*
X258233609Y-119984837D02*
X258233609Y-120270551D01*
X258733609Y-120127694D02*
X258233609Y-120127694D01*
X258733609Y-120437217D02*
X258233609Y-120437217D01*
X258233609Y-120437217D02*
X258590752Y-120603884D01*
X258590752Y-120603884D02*
X258233609Y-120770550D01*
X258233609Y-120770550D02*
X258733609Y-120770550D01*
X258709800Y-120984837D02*
X258733609Y-121056265D01*
X258733609Y-121056265D02*
X258733609Y-121175313D01*
X258733609Y-121175313D02*
X258709800Y-121222932D01*
X258709800Y-121222932D02*
X258685990Y-121246741D01*
X258685990Y-121246741D02*
X258638371Y-121270551D01*
X258638371Y-121270551D02*
X258590752Y-121270551D01*
X258590752Y-121270551D02*
X258543133Y-121246741D01*
X258543133Y-121246741D02*
X258519323Y-121222932D01*
X258519323Y-121222932D02*
X258495514Y-121175313D01*
X258495514Y-121175313D02*
X258471704Y-121080075D01*
X258471704Y-121080075D02*
X258447895Y-121032456D01*
X258447895Y-121032456D02*
X258424085Y-121008646D01*
X258424085Y-121008646D02*
X258376466Y-120984837D01*
X258376466Y-120984837D02*
X258328847Y-120984837D01*
X258328847Y-120984837D02*
X258281228Y-121008646D01*
X258281228Y-121008646D02*
X258257419Y-121032456D01*
X258257419Y-121032456D02*
X258233609Y-121080075D01*
X258233609Y-121080075D02*
X258233609Y-121199122D01*
X258233609Y-121199122D02*
X258257419Y-121270551D01*
D11*
X254730326Y-143467219D02*
X254730326Y-144276742D01*
X254730326Y-144276742D02*
X254682707Y-144371980D01*
X254682707Y-144371980D02*
X254635088Y-144419600D01*
X254635088Y-144419600D02*
X254539850Y-144467219D01*
X254539850Y-144467219D02*
X254349374Y-144467219D01*
X254349374Y-144467219D02*
X254254136Y-144419600D01*
X254254136Y-144419600D02*
X254206517Y-144371980D01*
X254206517Y-144371980D02*
X254158898Y-144276742D01*
X254158898Y-144276742D02*
X254158898Y-143467219D01*
X253682707Y-143467219D02*
X253682707Y-144276742D01*
X253682707Y-144276742D02*
X253635088Y-144371980D01*
X253635088Y-144371980D02*
X253587469Y-144419600D01*
X253587469Y-144419600D02*
X253492231Y-144467219D01*
X253492231Y-144467219D02*
X253301755Y-144467219D01*
X253301755Y-144467219D02*
X253206517Y-144419600D01*
X253206517Y-144419600D02*
X253158898Y-144371980D01*
X253158898Y-144371980D02*
X253111279Y-144276742D01*
X253111279Y-144276742D02*
X253111279Y-143467219D01*
D10*
X257621427Y-142761760D02*
X257454760Y-142761760D01*
X257383332Y-143023665D02*
X257621427Y-143023665D01*
X257621427Y-143023665D02*
X257621427Y-142523665D01*
X257621427Y-142523665D02*
X257383332Y-142523665D01*
X257192855Y-142999856D02*
X257121427Y-143023665D01*
X257121427Y-143023665D02*
X257002379Y-143023665D01*
X257002379Y-143023665D02*
X256954760Y-142999856D01*
X256954760Y-142999856D02*
X256930951Y-142976046D01*
X256930951Y-142976046D02*
X256907141Y-142928427D01*
X256907141Y-142928427D02*
X256907141Y-142880808D01*
X256907141Y-142880808D02*
X256930951Y-142833189D01*
X256930951Y-142833189D02*
X256954760Y-142809379D01*
X256954760Y-142809379D02*
X257002379Y-142785570D01*
X257002379Y-142785570D02*
X257097617Y-142761760D01*
X257097617Y-142761760D02*
X257145236Y-142737951D01*
X257145236Y-142737951D02*
X257169046Y-142714141D01*
X257169046Y-142714141D02*
X257192855Y-142666522D01*
X257192855Y-142666522D02*
X257192855Y-142618903D01*
X257192855Y-142618903D02*
X257169046Y-142571284D01*
X257169046Y-142571284D02*
X257145236Y-142547475D01*
X257145236Y-142547475D02*
X257097617Y-142523665D01*
X257097617Y-142523665D02*
X256978570Y-142523665D01*
X256978570Y-142523665D02*
X256907141Y-142547475D01*
X256692856Y-143023665D02*
X256692856Y-142523665D01*
X256692856Y-142523665D02*
X256502380Y-142523665D01*
X256502380Y-142523665D02*
X256454761Y-142547475D01*
X256454761Y-142547475D02*
X256430951Y-142571284D01*
X256430951Y-142571284D02*
X256407142Y-142618903D01*
X256407142Y-142618903D02*
X256407142Y-142690332D01*
X256407142Y-142690332D02*
X256430951Y-142737951D01*
X256430951Y-142737951D02*
X256454761Y-142761760D01*
X256454761Y-142761760D02*
X256502380Y-142785570D01*
X256502380Y-142785570D02*
X256692856Y-142785570D01*
X256240475Y-142523665D02*
X255930951Y-142523665D01*
X255930951Y-142523665D02*
X256097618Y-142714141D01*
X256097618Y-142714141D02*
X256026189Y-142714141D01*
X256026189Y-142714141D02*
X255978570Y-142737951D01*
X255978570Y-142737951D02*
X255954761Y-142761760D01*
X255954761Y-142761760D02*
X255930951Y-142809379D01*
X255930951Y-142809379D02*
X255930951Y-142928427D01*
X255930951Y-142928427D02*
X255954761Y-142976046D01*
X255954761Y-142976046D02*
X255978570Y-142999856D01*
X255978570Y-142999856D02*
X256026189Y-143023665D01*
X256026189Y-143023665D02*
X256169046Y-143023665D01*
X256169046Y-143023665D02*
X256216665Y-142999856D01*
X256216665Y-142999856D02*
X256240475Y-142976046D01*
X255740475Y-142571284D02*
X255716666Y-142547475D01*
X255716666Y-142547475D02*
X255669047Y-142523665D01*
X255669047Y-142523665D02*
X255549999Y-142523665D01*
X255549999Y-142523665D02*
X255502380Y-142547475D01*
X255502380Y-142547475D02*
X255478571Y-142571284D01*
X255478571Y-142571284D02*
X255454761Y-142618903D01*
X255454761Y-142618903D02*
X255454761Y-142666522D01*
X255454761Y-142666522D02*
X255478571Y-142737951D01*
X255478571Y-142737951D02*
X255764285Y-143023665D01*
X255764285Y-143023665D02*
X255454761Y-143023665D01*
X256930951Y-143804828D02*
X256859523Y-143828637D01*
X256859523Y-143828637D02*
X256740475Y-143828637D01*
X256740475Y-143828637D02*
X256692856Y-143804828D01*
X256692856Y-143804828D02*
X256669047Y-143781018D01*
X256669047Y-143781018D02*
X256645237Y-143733399D01*
X256645237Y-143733399D02*
X256645237Y-143685780D01*
X256645237Y-143685780D02*
X256669047Y-143638161D01*
X256669047Y-143638161D02*
X256692856Y-143614351D01*
X256692856Y-143614351D02*
X256740475Y-143590542D01*
X256740475Y-143590542D02*
X256835713Y-143566732D01*
X256835713Y-143566732D02*
X256883332Y-143542923D01*
X256883332Y-143542923D02*
X256907142Y-143519113D01*
X256907142Y-143519113D02*
X256930951Y-143471494D01*
X256930951Y-143471494D02*
X256930951Y-143423875D01*
X256930951Y-143423875D02*
X256907142Y-143376256D01*
X256907142Y-143376256D02*
X256883332Y-143352447D01*
X256883332Y-143352447D02*
X256835713Y-143328637D01*
X256835713Y-143328637D02*
X256716666Y-143328637D01*
X256716666Y-143328637D02*
X256645237Y-143352447D01*
X256478571Y-143328637D02*
X256169047Y-143328637D01*
X256169047Y-143328637D02*
X256335714Y-143519113D01*
X256335714Y-143519113D02*
X256264285Y-143519113D01*
X256264285Y-143519113D02*
X256216666Y-143542923D01*
X256216666Y-143542923D02*
X256192857Y-143566732D01*
X256192857Y-143566732D02*
X256169047Y-143614351D01*
X256169047Y-143614351D02*
X256169047Y-143733399D01*
X256169047Y-143733399D02*
X256192857Y-143781018D01*
X256192857Y-143781018D02*
X256216666Y-143804828D01*
X256216666Y-143804828D02*
X256264285Y-143828637D01*
X256264285Y-143828637D02*
X256407142Y-143828637D01*
X256407142Y-143828637D02*
X256454761Y-143804828D01*
X256454761Y-143804828D02*
X256478571Y-143781018D01*
X257216666Y-144633609D02*
X257216666Y-144133609D01*
X257216666Y-144133609D02*
X257049999Y-144490752D01*
X257049999Y-144490752D02*
X256883333Y-144133609D01*
X256883333Y-144133609D02*
X256883333Y-144633609D01*
X256645237Y-144633609D02*
X256645237Y-144133609D01*
X256407142Y-144633609D02*
X256407142Y-144133609D01*
X256407142Y-144133609D02*
X256121428Y-144633609D01*
X256121428Y-144633609D02*
X256121428Y-144133609D01*
X255883332Y-144633609D02*
X255883332Y-144133609D01*
X241418771Y-117838972D02*
X241442580Y-117815163D01*
X241442580Y-117815163D02*
X241466390Y-117767544D01*
X241466390Y-117767544D02*
X241466390Y-117648496D01*
X241466390Y-117648496D02*
X241442580Y-117600877D01*
X241442580Y-117600877D02*
X241418771Y-117577068D01*
X241418771Y-117577068D02*
X241371152Y-117553258D01*
X241371152Y-117553258D02*
X241323533Y-117553258D01*
X241323533Y-117553258D02*
X241252104Y-117577068D01*
X241252104Y-117577068D02*
X240966390Y-117862782D01*
X240966390Y-117862782D02*
X240966390Y-117553258D01*
X258133609Y-140337217D02*
X258133609Y-140646741D01*
X258133609Y-140646741D02*
X258324085Y-140480074D01*
X258324085Y-140480074D02*
X258324085Y-140551503D01*
X258324085Y-140551503D02*
X258347895Y-140599122D01*
X258347895Y-140599122D02*
X258371704Y-140622931D01*
X258371704Y-140622931D02*
X258419323Y-140646741D01*
X258419323Y-140646741D02*
X258538371Y-140646741D01*
X258538371Y-140646741D02*
X258585990Y-140622931D01*
X258585990Y-140622931D02*
X258609800Y-140599122D01*
X258609800Y-140599122D02*
X258633609Y-140551503D01*
X258633609Y-140551503D02*
X258633609Y-140408646D01*
X258633609Y-140408646D02*
X258609800Y-140361027D01*
X258609800Y-140361027D02*
X258585990Y-140337217D01*
X258300276Y-141075312D02*
X258633609Y-141075312D01*
X258109800Y-140956264D02*
X258466942Y-140837217D01*
X258466942Y-140837217D02*
X258466942Y-141146740D01*
X258733609Y-122184836D02*
X258233609Y-122184836D01*
X258233609Y-122184836D02*
X258590752Y-122351503D01*
X258590752Y-122351503D02*
X258233609Y-122518169D01*
X258233609Y-122518169D02*
X258733609Y-122518169D01*
X258233609Y-122684837D02*
X258233609Y-122970551D01*
X258733609Y-122827694D02*
X258233609Y-122827694D01*
X258733609Y-123137217D02*
X258233609Y-123137217D01*
X258233609Y-123137217D02*
X258233609Y-123256265D01*
X258233609Y-123256265D02*
X258257419Y-123327693D01*
X258257419Y-123327693D02*
X258305038Y-123375312D01*
X258305038Y-123375312D02*
X258352657Y-123399122D01*
X258352657Y-123399122D02*
X258447895Y-123422931D01*
X258447895Y-123422931D02*
X258519323Y-123422931D01*
X258519323Y-123422931D02*
X258614561Y-123399122D01*
X258614561Y-123399122D02*
X258662180Y-123375312D01*
X258662180Y-123375312D02*
X258709800Y-123327693D01*
X258709800Y-123327693D02*
X258733609Y-123256265D01*
X258733609Y-123256265D02*
X258733609Y-123137217D01*
X258733609Y-123637217D02*
X258233609Y-123637217D01*
X258233609Y-132837217D02*
X258233609Y-133146741D01*
X258233609Y-133146741D02*
X258424085Y-132980074D01*
X258424085Y-132980074D02*
X258424085Y-133051503D01*
X258424085Y-133051503D02*
X258447895Y-133099122D01*
X258447895Y-133099122D02*
X258471704Y-133122931D01*
X258471704Y-133122931D02*
X258519323Y-133146741D01*
X258519323Y-133146741D02*
X258638371Y-133146741D01*
X258638371Y-133146741D02*
X258685990Y-133122931D01*
X258685990Y-133122931D02*
X258709800Y-133099122D01*
X258709800Y-133099122D02*
X258733609Y-133051503D01*
X258733609Y-133051503D02*
X258733609Y-132908646D01*
X258733609Y-132908646D02*
X258709800Y-132861027D01*
X258709800Y-132861027D02*
X258685990Y-132837217D01*
X258233609Y-133313407D02*
X258233609Y-133646740D01*
X258233609Y-133646740D02*
X258733609Y-133432455D01*
X258733609Y-127184836D02*
X258233609Y-127184836D01*
X258233609Y-127184836D02*
X258590752Y-127351503D01*
X258590752Y-127351503D02*
X258233609Y-127518169D01*
X258233609Y-127518169D02*
X258733609Y-127518169D01*
X258233609Y-127684837D02*
X258233609Y-127970551D01*
X258733609Y-127827694D02*
X258233609Y-127827694D01*
X258685990Y-128422931D02*
X258709800Y-128399122D01*
X258709800Y-128399122D02*
X258733609Y-128327693D01*
X258733609Y-128327693D02*
X258733609Y-128280074D01*
X258733609Y-128280074D02*
X258709800Y-128208646D01*
X258709800Y-128208646D02*
X258662180Y-128161027D01*
X258662180Y-128161027D02*
X258614561Y-128137217D01*
X258614561Y-128137217D02*
X258519323Y-128113408D01*
X258519323Y-128113408D02*
X258447895Y-128113408D01*
X258447895Y-128113408D02*
X258352657Y-128137217D01*
X258352657Y-128137217D02*
X258305038Y-128161027D01*
X258305038Y-128161027D02*
X258257419Y-128208646D01*
X258257419Y-128208646D02*
X258233609Y-128280074D01*
X258233609Y-128280074D02*
X258233609Y-128327693D01*
X258233609Y-128327693D02*
X258257419Y-128399122D01*
X258257419Y-128399122D02*
X258281228Y-128422931D01*
X258733609Y-128637217D02*
X258233609Y-128637217D01*
X258733609Y-128922931D02*
X258447895Y-128708646D01*
X258233609Y-128922931D02*
X258519323Y-128637217D01*
M02*
