%TF.GenerationSoftware,KiCad,Pcbnew,9.0.7-9.0.7~ubuntu22.04.1*%
%TF.CreationDate,2026-02-10T09:56:36-07:00*%
%TF.ProjectId,ESP32-S3-MINI-1_UU,45535033-322d-4533-932d-4d494e492d31,rev?*%
%TF.SameCoordinates,Original*%
%TF.FileFunction,Copper,L1,Top*%
%TF.FilePolarity,Positive*%
%FSLAX46Y46*%
G04 Gerber Fmt 4.6, Leading zero omitted, Abs format (unit mm)*
G04 Created by KiCad (PCBNEW 9.0.7-9.0.7~ubuntu22.04.1) date 2026-02-10 09:56:36*
%MOMM*%
%LPD*%
G01*
G04 APERTURE LIST*
G04 Aperture macros list*
%AMRoundRect*
0 Rectangle with rounded corners*
0 $1 Rounding radius*
0 $2 $3 $4 $5 $6 $7 $8 $9 X,Y pos of 4 corners*
0 Add a 4 corners polygon primitive as box body*
4,1,4,$2,$3,$4,$5,$6,$7,$8,$9,$2,$3,0*
0 Add four circle primitives for the rounded corners*
1,1,$1+$1,$2,$3*
1,1,$1+$1,$4,$5*
1,1,$1+$1,$6,$7*
1,1,$1+$1,$8,$9*
0 Add four rect primitives between the rounded corners*
20,1,$1+$1,$2,$3,$4,$5,0*
20,1,$1+$1,$4,$5,$6,$7,0*
20,1,$1+$1,$6,$7,$8,$9,0*
20,1,$1+$1,$8,$9,$2,$3,0*%
%AMOutline5P*
0 Free polygon, 5 corners , with rotation*
0 The origin of the aperture is its center*
0 number of corners: always 5*
0 $1 to $10 corner X, Y*
0 $11 Rotation angle, in degrees counterclockwise*
0 create outline with 5 corners*
4,1,5,$1,$2,$3,$4,$5,$6,$7,$8,$9,$10,$1,$2,$11*%
%AMOutline6P*
0 Free polygon, 6 corners , with rotation*
0 The origin of the aperture is its center*
0 number of corners: always 6*
0 $1 to $12 corner X, Y*
0 $13 Rotation angle, in degrees counterclockwise*
0 create outline with 6 corners*
4,1,6,$1,$2,$3,$4,$5,$6,$7,$8,$9,$10,$11,$12,$1,$2,$13*%
%AMOutline7P*
0 Free polygon, 7 corners , with rotation*
0 The origin of the aperture is its center*
0 number of corners: always 7*
0 $1 to $14 corner X, Y*
0 $15 Rotation angle, in degrees counterclockwise*
0 create outline with 7 corners*
4,1,7,$1,$2,$3,$4,$5,$6,$7,$8,$9,$10,$11,$12,$13,$14,$1,$2,$15*%
%AMOutline8P*
0 Free polygon, 8 corners , with rotation*
0 The origin of the aperture is its center*
0 number of corners: always 8*
0 $1 to $16 corner X, Y*
0 $17 Rotation angle, in degrees counterclockwise*
0 create outline with 8 corners*
4,1,8,$1,$2,$3,$4,$5,$6,$7,$8,$9,$10,$11,$12,$13,$14,$15,$16,$1,$2,$17*%
G04 Aperture macros list end*
%TA.AperFunction,SMDPad,CuDef*%
%ADD10RoundRect,0.140000X-0.140000X-0.170000X0.140000X-0.170000X0.140000X0.170000X-0.140000X0.170000X0*%
%TD*%
%TA.AperFunction,SMDPad,CuDef*%
%ADD11RoundRect,0.135000X0.135000X0.185000X-0.135000X0.185000X-0.135000X-0.185000X0.135000X-0.185000X0*%
%TD*%
%TA.AperFunction,SMDPad,CuDef*%
%ADD12RoundRect,0.135000X0.185000X-0.135000X0.185000X0.135000X-0.185000X0.135000X-0.185000X-0.135000X0*%
%TD*%
%TA.AperFunction,SMDPad,CuDef*%
%ADD13RoundRect,0.135000X-0.185000X0.135000X-0.185000X-0.135000X0.185000X-0.135000X0.185000X0.135000X0*%
%TD*%
%TA.AperFunction,SMDPad,CuDef*%
%ADD14RoundRect,0.062500X-0.117500X-0.062500X0.117500X-0.062500X0.117500X0.062500X-0.117500X0.062500X0*%
%TD*%
%TA.AperFunction,SMDPad,CuDef*%
%ADD15RoundRect,0.062500X0.117500X0.062500X-0.117500X0.062500X-0.117500X-0.062500X0.117500X-0.062500X0*%
%TD*%
%TA.AperFunction,SMDPad,CuDef*%
%ADD16R,1.000000X0.900000*%
%TD*%
%TA.AperFunction,SMDPad,CuDef*%
%ADD17RoundRect,0.140000X0.170000X-0.140000X0.170000X0.140000X-0.170000X0.140000X-0.170000X-0.140000X0*%
%TD*%
%TA.AperFunction,SMDPad,CuDef*%
%ADD18RoundRect,0.140000X0.140000X0.170000X-0.140000X0.170000X-0.140000X-0.170000X0.140000X-0.170000X0*%
%TD*%
%TA.AperFunction,SMDPad,CuDef*%
%ADD19R,0.700000X0.700000*%
%TD*%
%TA.AperFunction,SMDPad,CuDef*%
%ADD20RoundRect,0.147500X0.147500X0.172500X-0.147500X0.172500X-0.147500X-0.172500X0.147500X-0.172500X0*%
%TD*%
%TA.AperFunction,SMDPad,CuDef*%
%ADD21RoundRect,0.147500X0.172500X-0.147500X0.172500X0.147500X-0.172500X0.147500X-0.172500X-0.147500X0*%
%TD*%
%TA.AperFunction,SMDPad,CuDef*%
%ADD22R,0.200000X0.750000*%
%TD*%
%TA.AperFunction,SMDPad,CuDef*%
%ADD23R,1.600000X1.000000*%
%TD*%
%TA.AperFunction,ComponentPad*%
%ADD24R,1.600000X1.600000*%
%TD*%
%TA.AperFunction,ComponentPad*%
%ADD25C,1.600000*%
%TD*%
%TA.AperFunction,SMDPad,CuDef*%
%ADD26RoundRect,0.135000X-0.135000X-0.185000X0.135000X-0.185000X0.135000X0.185000X-0.135000X0.185000X0*%
%TD*%
%TA.AperFunction,SMDPad,CuDef*%
%ADD27R,1.550000X0.600000*%
%TD*%
%TA.AperFunction,SMDPad,CuDef*%
%ADD28R,2.000000X1.200000*%
%TD*%
%TA.AperFunction,SMDPad,CuDef*%
%ADD29R,0.700000X0.300000*%
%TD*%
%TA.AperFunction,SMDPad,CuDef*%
%ADD30R,0.800000X1.380000*%
%TD*%
%TA.AperFunction,SMDPad,CuDef*%
%ADD31RoundRect,0.140000X-0.170000X0.140000X-0.170000X-0.140000X0.170000X-0.140000X0.170000X0.140000X0*%
%TD*%
%TA.AperFunction,SMDPad,CuDef*%
%ADD32R,1.000000X4.600000*%
%TD*%
%TA.AperFunction,SMDPad,CuDef*%
%ADD33R,1.600000X3.400000*%
%TD*%
%TA.AperFunction,SMDPad,CuDef*%
%ADD34RoundRect,0.147500X-0.172500X0.147500X-0.172500X-0.147500X0.172500X-0.147500X0.172500X0.147500X0*%
%TD*%
%TA.AperFunction,SMDPad,CuDef*%
%ADD35R,0.800000X0.400000*%
%TD*%
%TA.AperFunction,SMDPad,CuDef*%
%ADD36R,0.400000X0.800000*%
%TD*%
%TA.AperFunction,HeatsinkPad*%
%ADD37Outline5P,-0.600000X0.204000X-0.204000X0.600000X0.600000X0.600000X0.600000X-0.600000X-0.600000X-0.600000X0.000000*%
%TD*%
%TA.AperFunction,HeatsinkPad*%
%ADD38R,1.200000X1.200000*%
%TD*%
%TA.AperFunction,SMDPad,CuDef*%
%ADD39R,0.800000X0.800000*%
%TD*%
%TA.AperFunction,SMDPad,CuDef*%
%ADD40R,1.650000X0.500000*%
%TD*%
%TA.AperFunction,SMDPad,CuDef*%
%ADD41RoundRect,0.087500X0.087500X-0.250000X0.087500X0.250000X-0.087500X0.250000X-0.087500X-0.250000X0*%
%TD*%
%TA.AperFunction,SMDPad,CuDef*%
%ADD42R,0.870000X0.300000*%
%TD*%
%TA.AperFunction,ComponentPad*%
%ADD43C,1.460000*%
%TD*%
%TA.AperFunction,SMDPad,CuDef*%
%ADD44R,0.600000X0.250000*%
%TD*%
%TA.AperFunction,SMDPad,CuDef*%
%ADD45R,1.000000X0.200000*%
%TD*%
%TA.AperFunction,ViaPad*%
%ADD46C,0.500000*%
%TD*%
%TA.AperFunction,ViaPad*%
%ADD47C,0.600000*%
%TD*%
%TA.AperFunction,Conductor*%
%ADD48C,0.150000*%
%TD*%
%TA.AperFunction,Conductor*%
%ADD49C,0.200000*%
%TD*%
%TA.AperFunction,Conductor*%
%ADD50C,0.500000*%
%TD*%
%TA.AperFunction,Conductor*%
%ADD51C,0.300000*%
%TD*%
%TA.AperFunction,Conductor*%
%ADD52C,0.400000*%
%TD*%
%TA.AperFunction,Conductor*%
%ADD53C,0.250000*%
%TD*%
G04 APERTURE END LIST*
D10*
%TO.P,C11,1*%
%TO.N,3V3*%
X205020000Y-106000000D03*
%TO.P,C11,2*%
%TO.N,GND*%
X205980000Y-106000000D03*
%TD*%
D11*
%TO.P,R14,1*%
%TO.N,3V3*%
X205510000Y-99000000D03*
%TO.P,R14,2*%
%TO.N,SCL*%
X204490000Y-99000000D03*
%TD*%
D12*
%TO.P,R9,1*%
%TO.N,VSYS*%
X195460000Y-108210000D03*
%TO.P,R9,2*%
%TO.N,Net-(D2-A)*%
X195460000Y-107190000D03*
%TD*%
D13*
%TO.P,TH1,1*%
%TO.N,Net-(IC2-TS{slash}MR)*%
X193360000Y-113890000D03*
%TO.P,TH1,2*%
%TO.N,GND*%
X193360000Y-114910000D03*
%TD*%
D14*
%TO.P,D7,1,A1*%
%TO.N,GND*%
X201920000Y-85000000D03*
%TO.P,D7,2,A2*%
%TO.N,D+*%
X201080000Y-85000000D03*
%TD*%
D15*
%TO.P,D8,1,A1*%
%TO.N,GND*%
X198980000Y-85000000D03*
%TO.P,D8,2,A2*%
%TO.N,D-*%
X199820000Y-85000000D03*
%TD*%
D16*
%TO.P,L1,1,1*%
%TO.N,Net-(IC1-SW)*%
X194500000Y-99662500D03*
%TO.P,L1,2,2*%
%TO.N,3V3*%
X194500000Y-98062500D03*
%TD*%
D17*
%TO.P,C8,1*%
%TO.N,V_USB*%
X196060000Y-112480000D03*
%TO.P,C8,2*%
%TO.N,GND*%
X196060000Y-111520000D03*
%TD*%
D18*
%TO.P,C12,1*%
%TO.N,Net-(S2-NO)*%
X205480000Y-93750000D03*
%TO.P,C12,2*%
%TO.N,GND*%
X204520000Y-93750000D03*
%TD*%
D19*
%TO.P,D6,1,DOUT*%
%TO.N,unconnected-(D6-DOUT-Pad1)*%
X205915000Y-104800000D03*
%TO.P,D6,2,VSS*%
%TO.N,GND*%
X205915000Y-103700000D03*
%TO.P,D6,3,DIN*%
%TO.N,Net-(D6-DIN)*%
X204085000Y-103700000D03*
%TO.P,D6,4,VDD*%
%TO.N,3V3*%
X204085000Y-104800000D03*
%TD*%
D18*
%TO.P,C5,1*%
%TO.N,VSYS*%
X195067500Y-100862500D03*
%TO.P,C5,2*%
%TO.N,GND*%
X194107500Y-100862500D03*
%TD*%
D20*
%TO.P,D4,1,K*%
%TO.N,GND*%
X200870000Y-96500000D03*
%TO.P,D4,2,A*%
%TO.N,Net-(D4-A)*%
X199900000Y-96500000D03*
%TD*%
D13*
%TO.P,R2,1*%
%TO.N,Net-(IC2-ILIM{slash}VSET)*%
X194360000Y-113890000D03*
%TO.P,R2,2*%
%TO.N,GND*%
X194360000Y-114910000D03*
%TD*%
%TO.P,R4,1*%
%TO.N,Net-(J2-CC2)*%
X203385000Y-89990000D03*
%TO.P,R4,2*%
%TO.N,GND*%
X203385000Y-91010000D03*
%TD*%
D21*
%TO.P,D5,1,K*%
%TO.N,Net-(D5-K)*%
X196800000Y-88720000D03*
%TO.P,D5,2,A*%
%TO.N,LED*%
X196800000Y-87750000D03*
%TD*%
D13*
%TO.P,R12,1*%
%TO.N,Net-(D5-K)*%
X195800000Y-87750000D03*
%TO.P,R12,2*%
%TO.N,GND*%
X195800000Y-88770000D03*
%TD*%
D22*
%TO.P,IC2,1,SYS*%
%TO.N,VSYS*%
X195060000Y-110000000D03*
%TO.P,IC2,2,BAT*%
%TO.N,VBAT*%
X194660000Y-110000000D03*
%TO.P,IC2,3,STAT2*%
%TO.N,Net-(D2-K)*%
X194260000Y-110000000D03*
%TO.P,IC2,4,~{CE}*%
%TO.N,Net-(IC2-~{CE})*%
X193860000Y-110000000D03*
%TO.P,IC2,5,GND*%
%TO.N,GND*%
X193460000Y-110000000D03*
%TO.P,IC2,6,TS/MR*%
%TO.N,Net-(IC2-TS{slash}MR)*%
X193460000Y-112200000D03*
%TO.P,IC2,7,ILIM/VSET*%
%TO.N,Net-(IC2-ILIM{slash}VSET)*%
X193860000Y-112200000D03*
%TO.P,IC2,8,ISET*%
%TO.N,Net-(IC2-ISET)*%
X194260000Y-112200000D03*
%TO.P,IC2,9,STAT1*%
%TO.N,Net-(D3-K)*%
X194660000Y-112200000D03*
%TO.P,IC2,10,IN*%
%TO.N,V_USB*%
X195060000Y-112200000D03*
D23*
%TO.P,IC2,11,EP*%
%TO.N,GND*%
X194260000Y-111100000D03*
%TD*%
D24*
%TO.P,J5,1,1*%
%TO.N,3V3*%
X189840000Y-74360000D03*
D25*
%TO.P,J5,2,2*%
%TO.N,LED*%
X189840000Y-76900000D03*
%TO.P,J5,3,3*%
%TO.N,IO3*%
X189840000Y-79440000D03*
%TO.P,J5,4,4*%
%TO.N,IO4*%
X189840000Y-81980000D03*
%TO.P,J5,5,5*%
%TO.N,IO5*%
X189840000Y-84520000D03*
%TO.P,J5,6,6*%
%TO.N,IO6*%
X189840000Y-87060000D03*
%TO.P,J5,7,7*%
%TO.N,IO7*%
X189840000Y-89600000D03*
%TO.P,J5,8,8*%
%TO.N,IO10*%
X189840000Y-92140000D03*
%TO.P,J5,9,9*%
%TO.N,IO11*%
X189840000Y-94680000D03*
%TO.P,J5,10,10*%
%TO.N,IO12*%
X189840000Y-97220000D03*
%TO.P,J5,11,11*%
%TO.N,IO13*%
X189840000Y-99760000D03*
%TO.P,J5,12,12*%
%TO.N,IO14*%
X189840000Y-102300000D03*
%TO.P,J5,13,13*%
%TO.N,IO15*%
X189840000Y-104840000D03*
%TO.P,J5,14,14*%
%TO.N,IO16*%
X189840000Y-107380000D03*
%TO.P,J5,15,15*%
%TO.N,IO17*%
X189840000Y-109920000D03*
%TO.P,J5,16,16*%
%TO.N,IO18*%
X189840000Y-112460000D03*
%TO.P,J5,17,17*%
%TO.N,V_USB*%
X189840000Y-115000000D03*
%TD*%
D13*
%TO.P,R3,1*%
%TO.N,Net-(IC2-ISET)*%
X195360000Y-113890000D03*
%TO.P,R3,2*%
%TO.N,GND*%
X195360000Y-114910000D03*
%TD*%
D26*
%TO.P,R13,1*%
%TO.N,3V3*%
X194240000Y-94750000D03*
%TO.P,R13,2*%
%TO.N,Net-(S1-NO)*%
X195260000Y-94750000D03*
%TD*%
D10*
%TO.P,C9,1*%
%TO.N,V_USB*%
X196655000Y-95500000D03*
%TO.P,C9,2*%
%TO.N,GND*%
X197615000Y-95500000D03*
%TD*%
D27*
%TO.P,J3,1,Pin_1*%
%TO.N,GND*%
X202761000Y-102000000D03*
%TO.P,J3,2,Pin_2*%
%TO.N,3V3*%
X202761000Y-101000000D03*
%TO.P,J3,3,Pin_3*%
%TO.N,SDA*%
X202761000Y-100000000D03*
%TO.P,J3,4,Pin_4*%
%TO.N,SCL*%
X202761000Y-99000000D03*
D28*
%TO.P,J3,NC1,NC*%
%TO.N,unconnected-(J3-NC-PadNC1)*%
X200336000Y-103300000D03*
%TO.P,J3,NC2,NC*%
%TO.N,unconnected-(J3-NC-PadNC2)*%
X200336000Y-97700000D03*
%TD*%
D17*
%TO.P,C14,1*%
%TO.N,3V3*%
X203200000Y-96460000D03*
%TO.P,C14,2*%
%TO.N,GND*%
X203200000Y-95500000D03*
%TD*%
D29*
%TO.P,U3,1,CTG*%
%TO.N,GND*%
X199040000Y-106971130D03*
%TO.P,U3,2,CELL*%
%TO.N,VBAT*%
X199040000Y-106471130D03*
%TO.P,U3,3,VDD*%
X199040000Y-105971130D03*
%TO.P,U3,4,GND*%
%TO.N,GND*%
X199040000Y-105471130D03*
%TO.P,U3,5,~{ALRT}*%
%TO.N,BAT_ALRT*%
X197060000Y-105471130D03*
%TO.P,U3,6,QSTRT*%
%TO.N,GND*%
X197060000Y-105971130D03*
%TO.P,U3,7,SCL*%
%TO.N,SCL*%
X197060000Y-106471130D03*
%TO.P,U3,8,SDA*%
%TO.N,SDA*%
X197060000Y-106971130D03*
D30*
%TO.P,U3,9,GND*%
%TO.N,GND*%
X198050000Y-106221130D03*
%TD*%
D11*
%TO.P,R16,1*%
%TO.N,3V3*%
X205510000Y-100000000D03*
%TO.P,R16,2*%
%TO.N,SDA*%
X204490000Y-100000000D03*
%TD*%
D31*
%TO.P,C15,1*%
%TO.N,VBAT*%
X200100000Y-106250000D03*
%TO.P,C15,2*%
%TO.N,GND*%
X200100000Y-107210000D03*
%TD*%
D12*
%TO.P,R5,1*%
%TO.N,Net-(J2-CC1)*%
X197250000Y-91260000D03*
%TO.P,R5,2*%
%TO.N,GND*%
X197250000Y-90240000D03*
%TD*%
D14*
%TO.P,D1,1,A1*%
%TO.N,GND*%
X197635000Y-94550000D03*
%TO.P,D1,2,A2*%
%TO.N,V_USB*%
X196795000Y-94550000D03*
%TD*%
D17*
%TO.P,C7,1*%
%TO.N,VBAT*%
X201250000Y-105480000D03*
%TO.P,C7,2*%
%TO.N,GND*%
X201250000Y-104520000D03*
%TD*%
D32*
%TO.P,J1,1,-*%
%TO.N,GND*%
X203250000Y-108600000D03*
%TO.P,J1,2,+*%
%TO.N,VBAT*%
X201250000Y-108600000D03*
D33*
%TO.P,J1,NC1,NC1*%
%TO.N,unconnected-(J1-PadNC1)*%
X205650000Y-113800000D03*
%TO.P,J1,NC2,NC2*%
%TO.N,unconnected-(J1-PadNC2)*%
X198850000Y-113800000D03*
%TD*%
D18*
%TO.P,C4,1*%
%TO.N,3V3*%
X191500000Y-72250000D03*
%TO.P,C4,2*%
%TO.N,GND*%
X190540000Y-72250000D03*
%TD*%
D13*
%TO.P,R1,1*%
%TO.N,Net-(IC1-PG)*%
X198750000Y-99940000D03*
%TO.P,R1,2*%
%TO.N,VSYS*%
X198750000Y-100960000D03*
%TD*%
D24*
%TO.P,J6,1,1*%
%TO.N,GND*%
X210160000Y-69280000D03*
D25*
%TO.P,J6,2,2*%
%TO.N,IO46*%
X210160000Y-71820000D03*
%TO.P,J6,3,3*%
%TO.N,IO45*%
X210160000Y-74360000D03*
%TO.P,J6,4,4*%
%TO.N,RX*%
X210160000Y-76900000D03*
%TO.P,J6,5,5*%
%TO.N,TX*%
X210160000Y-79440000D03*
%TO.P,J6,6,6*%
%TO.N,MTMS*%
X210160000Y-81980000D03*
%TO.P,J6,7,7*%
%TO.N,MTDI*%
X210160000Y-84520000D03*
%TO.P,J6,8,8*%
%TO.N,MTDO*%
X210160000Y-87060000D03*
%TO.P,J6,9,9*%
%TO.N,MTCK*%
X210160000Y-89600000D03*
%TO.P,J6,10,10*%
%TO.N,IO38*%
X210160000Y-92140000D03*
%TO.P,J6,11,11*%
%TO.N,IO37*%
X210160000Y-94680000D03*
%TO.P,J6,12,12*%
%TO.N,IO36*%
X210160000Y-97220000D03*
%TO.P,J6,13,13*%
%TO.N,IO35*%
X210160000Y-99760000D03*
%TO.P,J6,14,14*%
%TO.N,IO34*%
X210160000Y-102300000D03*
%TO.P,J6,15,15*%
%TO.N,IO33*%
X210160000Y-104840000D03*
%TO.P,J6,16,16*%
%TO.N,IO47*%
X210160000Y-107380000D03*
%TO.P,J6,17,17*%
%TO.N,IO26*%
X210160000Y-109920000D03*
%TO.P,J6,18,18*%
%TO.N,IO21*%
X210160000Y-112460000D03*
%TO.P,J6,19,19*%
%TO.N,GND*%
X210160000Y-115000000D03*
%TD*%
D34*
%TO.P,D3,1,K*%
%TO.N,Net-(D3-K)*%
X196360000Y-113915000D03*
%TO.P,D3,2,A*%
%TO.N,Net-(D3-A)*%
X196360000Y-114885000D03*
%TD*%
D31*
%TO.P,C6,1*%
%TO.N,VSYS*%
X196060000Y-109620000D03*
%TO.P,C6,2*%
%TO.N,GND*%
X196060000Y-110580000D03*
%TD*%
D10*
%TO.P,C1,1*%
%TO.N,3V3*%
X196810000Y-97500000D03*
%TO.P,C1,2*%
%TO.N,GND*%
X197770000Y-97500000D03*
%TD*%
D12*
%TO.P,R10,1*%
%TO.N,Net-(D3-A)*%
X197360000Y-114910000D03*
%TO.P,R10,2*%
%TO.N,V_USB*%
X197360000Y-113890000D03*
%TD*%
D11*
%TO.P,R15,1*%
%TO.N,RGB*%
X206010000Y-102250000D03*
%TO.P,R15,2*%
%TO.N,Net-(D6-DIN)*%
X204990000Y-102250000D03*
%TD*%
D35*
%TO.P,U2,1,GND*%
%TO.N,GND*%
X193000000Y-70550000D03*
%TO.P,U2,2,GND*%
X193000000Y-71400000D03*
%TO.P,U2,3,3V3*%
%TO.N,3V3*%
X193000000Y-72250000D03*
%TO.P,U2,4,IO0*%
%TO.N,Net-(S1-NO)*%
X193000000Y-73100000D03*
%TO.P,U2,5,IO1*%
%TO.N,BAT_ALRT*%
X193000000Y-73950000D03*
%TO.P,U2,6,IO2*%
%TO.N,LED*%
X193000000Y-74800000D03*
%TO.P,U2,7,IO3*%
%TO.N,IO3*%
X193000000Y-75650000D03*
%TO.P,U2,8,IO4*%
%TO.N,IO4*%
X193000000Y-76500000D03*
%TO.P,U2,9,IO5*%
%TO.N,IO5*%
X193000000Y-77350000D03*
%TO.P,U2,10,IO6*%
%TO.N,IO6*%
X193000000Y-78200000D03*
%TO.P,U2,11,IO7*%
%TO.N,IO7*%
X193000000Y-79050000D03*
%TO.P,U2,12,IO8*%
%TO.N,SDA*%
X193000000Y-79900000D03*
%TO.P,U2,13,IO9*%
%TO.N,SCL*%
X193000000Y-80750000D03*
%TO.P,U2,14,IO10*%
%TO.N,IO10*%
X193000000Y-81600000D03*
%TO.P,U2,15,IO11*%
%TO.N,IO11*%
X193000000Y-82450000D03*
D36*
%TO.P,U2,16,IO12*%
%TO.N,IO12*%
X194050000Y-83500000D03*
%TO.P,U2,17,IO13*%
%TO.N,IO13*%
X194900000Y-83500000D03*
%TO.P,U2,18,IO14*%
%TO.N,IO14*%
X195750000Y-83500000D03*
%TO.P,U2,19,IO15*%
%TO.N,IO15*%
X196600000Y-83500000D03*
%TO.P,U2,20,IO16*%
%TO.N,IO16*%
X197450000Y-83500000D03*
%TO.P,U2,21,IO17*%
%TO.N,IO17*%
X198300000Y-83500000D03*
%TO.P,U2,22,IO18*%
%TO.N,IO18*%
X199150000Y-83500000D03*
%TO.P,U2,23,USB_D-*%
%TO.N,D-*%
X200000000Y-83500000D03*
%TO.P,U2,24,USB_D+*%
%TO.N,D+*%
X200850000Y-83500000D03*
%TO.P,U2,25,IO21*%
%TO.N,IO21*%
X201700000Y-83500000D03*
%TO.P,U2,26,IO26*%
%TO.N,IO26*%
X202550000Y-83500000D03*
%TO.P,U2,27,IO47*%
%TO.N,IO47*%
X203400000Y-83500000D03*
%TO.P,U2,28,IO33*%
%TO.N,IO33*%
X204250000Y-83500000D03*
%TO.P,U2,29,IO34*%
%TO.N,IO34*%
X205100000Y-83500000D03*
%TO.P,U2,30,IO48*%
%TO.N,RGB*%
X205950000Y-83500000D03*
D35*
%TO.P,U2,31,IO35*%
%TO.N,IO35*%
X207000000Y-82450000D03*
%TO.P,U2,32,IO36*%
%TO.N,IO36*%
X207000000Y-81600000D03*
%TO.P,U2,33,IO37*%
%TO.N,IO37*%
X207000000Y-80750000D03*
%TO.P,U2,34,IO38*%
%TO.N,IO38*%
X207000000Y-79900000D03*
%TO.P,U2,35,IO39*%
%TO.N,MTCK*%
X207000000Y-79050000D03*
%TO.P,U2,36,IO40*%
%TO.N,MTDO*%
X207000000Y-78200000D03*
%TO.P,U2,37,IO41*%
%TO.N,MTDI*%
X207000000Y-77350000D03*
%TO.P,U2,38,IO42*%
%TO.N,MTMS*%
X207000000Y-76500000D03*
%TO.P,U2,39,TXD0*%
%TO.N,TX*%
X207000000Y-75650000D03*
%TO.P,U2,40,RXD0*%
%TO.N,RX*%
X207000000Y-74800000D03*
%TO.P,U2,41,IO45*%
%TO.N,IO45*%
X207000000Y-73950000D03*
%TO.P,U2,42,GND*%
%TO.N,GND*%
X207000000Y-73100000D03*
%TO.P,U2,43,GND*%
X207000000Y-72250000D03*
%TO.P,U2,44,IO46*%
%TO.N,IO46*%
X207000000Y-71400000D03*
%TO.P,U2,45,EN*%
%TO.N,Net-(S2-NO)*%
X207000000Y-70550000D03*
D36*
%TO.P,U2,46,GND*%
%TO.N,GND*%
X205950000Y-69500000D03*
%TO.P,U2,47,GND*%
X205100000Y-69500000D03*
%TO.P,U2,48,GND*%
X204250000Y-69500000D03*
%TO.P,U2,49,GND*%
X203400000Y-69500000D03*
%TO.P,U2,50,GND*%
X202550000Y-69500000D03*
%TO.P,U2,51,GND*%
X201700000Y-69500000D03*
%TO.P,U2,52,GND*%
X200850000Y-69500000D03*
%TO.P,U2,53,GND*%
X200000000Y-69500000D03*
%TO.P,U2,54,GND*%
X199150000Y-69500000D03*
%TO.P,U2,55,GND*%
X198300000Y-69500000D03*
%TO.P,U2,56,GND*%
X197450000Y-69500000D03*
%TO.P,U2,57,GND*%
X196600000Y-69500000D03*
%TO.P,U2,58,GND*%
X195750000Y-69500000D03*
%TO.P,U2,59,GND*%
X194900000Y-69500000D03*
%TO.P,U2,60,GND*%
X194050000Y-69500000D03*
D37*
%TO.P,U2,61,GND*%
X198350000Y-74850000D03*
D38*
X198350000Y-76500000D03*
X198350000Y-78150000D03*
X200000000Y-74850000D03*
X200000000Y-76500000D03*
X200000000Y-78150000D03*
X201650000Y-74850000D03*
X201650000Y-76500000D03*
X201650000Y-78150000D03*
D39*
%TO.P,U2,62,GND*%
X193000000Y-69500000D03*
%TO.P,U2,63,GND*%
X193000000Y-83500000D03*
%TO.P,U2,64,GND*%
X207000000Y-83500000D03*
%TO.P,U2,65,GND*%
X207000000Y-69500000D03*
%TD*%
D18*
%TO.P,C13,1*%
%TO.N,GND*%
X205960000Y-107000000D03*
%TO.P,C13,2*%
%TO.N,3V3*%
X205000000Y-107000000D03*
%TD*%
D40*
%TO.P,S1,1,COM*%
%TO.N,GND*%
X194500000Y-90250000D03*
%TO.P,S1,2,NO*%
%TO.N,Net-(S1-NO)*%
X194500000Y-92550000D03*
%TD*%
D10*
%TO.P,C10,1*%
%TO.N,Net-(S1-NO)*%
X194270000Y-93750000D03*
%TO.P,C10,2*%
%TO.N,GND*%
X195230000Y-93750000D03*
%TD*%
D26*
%TO.P,R11,1*%
%TO.N,V_USB*%
X197990000Y-96500000D03*
%TO.P,R11,2*%
%TO.N,Net-(D4-A)*%
X199010000Y-96500000D03*
%TD*%
D41*
%TO.P,U4,1,SCL*%
%TO.N,SCL*%
X204500000Y-97912500D03*
%TO.P,U4,2,GND*%
%TO.N,GND*%
X205000000Y-97912500D03*
%TO.P,U4,3,ALERT*%
%TO.N,unconnected-(U4-ALERT-Pad3)*%
X205500000Y-97912500D03*
%TO.P,U4,4,ADD0*%
%TO.N,GND*%
X205500000Y-96487500D03*
%TO.P,U4,5,V+*%
%TO.N,3V3*%
X205000000Y-96487500D03*
%TO.P,U4,6,SDA*%
%TO.N,SDA*%
X204500000Y-96487500D03*
%TD*%
D26*
%TO.P,R17,1*%
%TO.N,3V3*%
X204490000Y-94750000D03*
%TO.P,R17,2*%
%TO.N,Net-(S2-NO)*%
X205510000Y-94750000D03*
%TD*%
D24*
%TO.P,J4,1,1*%
%TO.N,GND*%
X189875000Y-69270000D03*
%TD*%
D18*
%TO.P,C3,1*%
%TO.N,3V3*%
X191480000Y-71250000D03*
%TO.P,C3,2*%
%TO.N,GND*%
X190520000Y-71250000D03*
%TD*%
D10*
%TO.P,C2,1*%
%TO.N,3V3*%
X196790000Y-98500000D03*
%TO.P,C2,2*%
%TO.N,GND*%
X197750000Y-98500000D03*
%TD*%
D42*
%TO.P,J2,A1,GND_1*%
%TO.N,GND*%
X199520000Y-93500000D03*
%TO.P,J2,A4,VBUS_1*%
%TO.N,V_USB*%
X199520000Y-92000000D03*
%TO.P,J2,A5,CC1*%
%TO.N,Net-(J2-CC1)*%
X199520000Y-91500000D03*
%TO.P,J2,A6,DP1*%
%TO.N,D+*%
X199520000Y-91000000D03*
%TO.P,J2,A7,DN1*%
%TO.N,D-*%
X199520000Y-90500000D03*
%TO.P,J2,A8,SBU1*%
%TO.N,unconnected-(J2-SBU1-PadA8)*%
X199520000Y-90000000D03*
%TO.P,J2,A9,VBUS_2*%
%TO.N,V_USB*%
X199520000Y-89500000D03*
%TO.P,J2,A12,GND_2*%
%TO.N,GND*%
X199520000Y-88000000D03*
%TO.P,J2,B1,GND_3*%
X201250000Y-88000000D03*
%TO.P,J2,B4,VBUS_3*%
%TO.N,V_USB*%
X201250000Y-89500000D03*
%TO.P,J2,B5,CC2*%
%TO.N,Net-(J2-CC2)*%
X201250000Y-90000000D03*
%TO.P,J2,B6,DP2*%
%TO.N,D+*%
X201250000Y-90500000D03*
%TO.P,J2,B7,DN2*%
%TO.N,D-*%
X201250000Y-91000000D03*
%TO.P,J2,B8,SBU2*%
%TO.N,unconnected-(J2-SBU2-PadB8)*%
X201250000Y-91500000D03*
%TO.P,J2,B9,VBUS_4*%
%TO.N,V_USB*%
X201250000Y-92000000D03*
%TO.P,J2,B12,GND_4*%
%TO.N,GND*%
X201250000Y-93500000D03*
D43*
%TO.P,J2,MH1,MH1*%
X198235000Y-93150000D03*
%TO.P,J2,MH2,MH2*%
X198235000Y-88350000D03*
%TO.P,J2,MH3,MH3*%
X202535000Y-88350000D03*
%TO.P,J2,MH4,MH4*%
X202535000Y-93150000D03*
%TD*%
D12*
%TO.P,R8,1*%
%TO.N,Net-(IC2-~{CE})*%
X193460000Y-108210000D03*
%TO.P,R8,2*%
%TO.N,GND*%
X193460000Y-107190000D03*
%TD*%
D40*
%TO.P,S2,1,COM*%
%TO.N,GND*%
X205250000Y-90250000D03*
%TO.P,S2,2,NO*%
%TO.N,Net-(S2-NO)*%
X205250000Y-92550000D03*
%TD*%
D44*
%TO.P,IC1,1,EN*%
%TO.N,VSYS*%
X197600000Y-100750000D03*
%TO.P,IC1,2,PG*%
%TO.N,Net-(IC1-PG)*%
X197600000Y-100250000D03*
%TO.P,IC1,3,FB*%
%TO.N,3V3*%
X197600000Y-99750000D03*
D45*
%TO.P,IC1,4,GND*%
%TO.N,GND*%
X196500000Y-99750000D03*
%TO.P,IC1,5,SW*%
%TO.N,Net-(IC1-SW)*%
X196500000Y-100250000D03*
%TO.P,IC1,6,VIN*%
%TO.N,VSYS*%
X196500000Y-100750000D03*
%TD*%
D21*
%TO.P,D2,1,K*%
%TO.N,Net-(D2-K)*%
X194460000Y-108185000D03*
%TO.P,D2,2,A*%
%TO.N,Net-(D2-A)*%
X194460000Y-107215000D03*
%TD*%
D46*
%TO.N,GND*%
X196300000Y-86400000D03*
D47*
X203293413Y-97306587D03*
X194100000Y-101750000D03*
D46*
X206900000Y-95400000D03*
D47*
X195750000Y-98850000D03*
D46*
X205324999Y-87303016D03*
D47*
X198250000Y-111450000D03*
X192100000Y-113400000D03*
X198050000Y-105521130D03*
X207750000Y-114750000D03*
D46*
X194250000Y-71000000D03*
D47*
X198250000Y-95500000D03*
D46*
X196000000Y-93750000D03*
X195900000Y-82500000D03*
D47*
X197800000Y-108100000D03*
D46*
X200500000Y-100400000D03*
X202500000Y-86500000D03*
D47*
X202500000Y-95500000D03*
X197800000Y-109700000D03*
X203385000Y-91750000D03*
X198290000Y-98000000D03*
X196635000Y-90240000D03*
D46*
X195250000Y-96100000D03*
D47*
X194300000Y-111100000D03*
D46*
X204100000Y-81800000D03*
X196000000Y-104750000D03*
X205000000Y-103750000D03*
X207000000Y-84475000D03*
X204200000Y-71000000D03*
X202500000Y-104500000D03*
D47*
X200385000Y-88750000D03*
X200385000Y-92750000D03*
D46*
X197250000Y-101750000D03*
X194500000Y-89500000D03*
X198250000Y-86500000D03*
D47*
X205900000Y-78400000D03*
D46*
X205500000Y-101500000D03*
D47*
%TO.N,VSYS*%
X196800000Y-109620000D03*
X196800000Y-108200000D03*
X195067500Y-101750000D03*
%TO.N,V_USB*%
X197000000Y-112480000D03*
X193600000Y-96700000D03*
D46*
%TO.N,IO36*%
X205900000Y-81081823D03*
%TO.N,IO35*%
X205947135Y-81954671D03*
%TO.N,BAT_ALRT*%
X196000000Y-96100000D03*
X196500000Y-101750000D03*
X194374000Y-78500000D03*
X195775000Y-77500000D03*
X196000000Y-97412500D03*
X194000000Y-73950000D03*
%TO.N,LED*%
X196800000Y-87125641D03*
D47*
X192300000Y-74800000D03*
D46*
%TO.N,IO37*%
X205900000Y-80250000D03*
D47*
%TO.N,3V3*%
X201450000Y-100400000D03*
X201850000Y-96750000D03*
X193600000Y-95475000D03*
X194675000Y-96750000D03*
X191549000Y-74300000D03*
D46*
%TO.N,SCL*%
X196300000Y-80750000D03*
X203986000Y-97912500D03*
X196259998Y-106001619D03*
%TO.N,SDA*%
X197052983Y-107441051D03*
X196600000Y-79900000D03*
X204788255Y-95663204D03*
X203900000Y-100000000D03*
D47*
%TO.N,D+*%
X202385000Y-90500000D03*
X200850000Y-85750000D03*
X198385000Y-91000000D03*
D46*
%TO.N,RGB*%
X207000000Y-85300000D03*
X206250000Y-101000000D03*
D47*
%TO.N,D-*%
X202385000Y-91300000D03*
X200000000Y-85750000D03*
X198385000Y-90100000D03*
%TO.N,Net-(S1-NO)*%
X195750000Y-92500000D03*
D46*
X194725000Y-76750000D03*
%TO.N,Net-(S2-NO)*%
X205800000Y-71250000D03*
X206500000Y-92500000D03*
%TO.N,IO12*%
X192000000Y-87300000D03*
%TO.N,IO11*%
X193000000Y-84750000D03*
X194000000Y-81750000D03*
X191876000Y-86545238D03*
%TO.N,IO38*%
X205900000Y-79250000D03*
%TD*%
D48*
%TO.N,GND*%
X205000000Y-97500000D02*
X205500000Y-97000000D01*
X192100000Y-113400000D02*
X192100000Y-114500000D01*
D49*
X199520000Y-88000000D02*
X198585000Y-88000000D01*
X198438000Y-105471130D02*
X198050000Y-105859130D01*
X199520000Y-93500000D02*
X198585000Y-93500000D01*
X193883000Y-111100000D02*
X193460000Y-110677000D01*
X195260000Y-93780000D02*
X195230000Y-93750000D01*
D50*
X194300000Y-111100000D02*
X196060000Y-111100000D01*
D51*
X190105000Y-69500000D02*
X189875000Y-69270000D01*
D49*
X198050000Y-106221130D02*
X197800000Y-105971130D01*
D51*
X193000000Y-69500000D02*
X190271000Y-69500000D01*
X190520000Y-69915000D02*
X189991000Y-69386000D01*
D52*
X197750000Y-98000000D02*
X198290000Y-98000000D01*
D49*
X199300000Y-104500000D02*
X199320000Y-104520000D01*
X201250000Y-104520000D02*
X202480000Y-104520000D01*
D51*
X194107500Y-100857500D02*
X193500000Y-100250000D01*
D49*
X200100000Y-108100000D02*
X200000000Y-108200000D01*
X201250000Y-93500000D02*
X202185000Y-93500000D01*
X199320000Y-104520000D02*
X201250000Y-104520000D01*
X197600000Y-105971130D02*
X198050000Y-105521130D01*
D48*
X204100000Y-81800000D02*
X204900000Y-82600000D01*
D52*
X194500000Y-90250000D02*
X194500000Y-89500000D01*
X208000000Y-115250000D02*
X209709000Y-115250000D01*
X208300000Y-69500000D02*
X208520000Y-69280000D01*
D49*
X195750000Y-98850000D02*
X195735500Y-98850000D01*
D51*
X193500000Y-100250000D02*
X193500000Y-99100000D01*
D49*
X202480000Y-104520000D02*
X202500000Y-104500000D01*
X201920000Y-85920000D02*
X202500000Y-86500000D01*
D48*
X192100000Y-114500000D02*
X192510000Y-114910000D01*
D49*
X194260000Y-111100000D02*
X193883000Y-111100000D01*
D48*
X194360000Y-114910000D02*
X193360000Y-114910000D01*
D49*
X198650000Y-108100000D02*
X197800000Y-108100000D01*
X200000000Y-108200000D02*
X198750000Y-108200000D01*
D52*
X207750000Y-114750000D02*
X207750000Y-115000000D01*
D48*
X194730000Y-88770000D02*
X195800000Y-88770000D01*
X204520000Y-93750000D02*
X203750000Y-93750000D01*
D52*
X197750000Y-98000000D02*
X197750000Y-97520000D01*
X207750000Y-115000000D02*
X208000000Y-115250000D01*
D49*
X198980000Y-85770000D02*
X198250000Y-86500000D01*
D51*
X190520000Y-71250000D02*
X190520000Y-69915000D01*
D48*
X200870000Y-95880000D02*
X201250000Y-95500000D01*
D49*
X193460000Y-110677000D02*
X193460000Y-110000000D01*
X198750000Y-108200000D02*
X198650000Y-108100000D01*
D52*
X196060000Y-111100000D02*
X196060000Y-111520000D01*
D53*
X195750000Y-98850000D02*
X193750000Y-98850000D01*
D49*
X199040000Y-105471130D02*
X199040000Y-104760000D01*
D48*
X194107500Y-100862500D02*
X194107500Y-100857500D01*
D49*
X202185000Y-88000000D02*
X202535000Y-88350000D01*
X203385000Y-91010000D02*
X203385000Y-91750000D01*
X198585000Y-93500000D02*
X198235000Y-93150000D01*
D48*
X194500000Y-89000000D02*
X194730000Y-88770000D01*
D49*
X195900000Y-82500000D02*
X194000000Y-82500000D01*
D52*
X207000000Y-69500000D02*
X208300000Y-69500000D01*
D48*
X203750000Y-93750000D02*
X202500000Y-95000000D01*
D49*
X199040000Y-104760000D02*
X199300000Y-104500000D01*
D51*
X193500000Y-99100000D02*
X193750000Y-98850000D01*
D48*
X205000000Y-97912500D02*
X205000000Y-97500000D01*
D49*
X197060000Y-105971130D02*
X197600000Y-105971130D01*
D52*
X208520000Y-69280000D02*
X209959000Y-69280000D01*
D49*
X199040000Y-107710000D02*
X198650000Y-108100000D01*
D50*
X196060000Y-110580000D02*
X196060000Y-111100000D01*
D48*
X206100000Y-82600000D02*
X207000000Y-83500000D01*
D49*
X199040000Y-106971130D02*
X198438000Y-106971130D01*
D52*
X209709000Y-115250000D02*
X209959000Y-115000000D01*
D49*
X196000000Y-99750000D02*
X196500000Y-99750000D01*
X201920000Y-85000000D02*
X201920000Y-85920000D01*
X200100000Y-107210000D02*
X200100000Y-108100000D01*
X198050000Y-106221130D02*
X198017127Y-106221130D01*
X198050000Y-106583130D02*
X198050000Y-106221130D01*
D51*
X195750000Y-98850000D02*
X195750000Y-99500000D01*
D49*
X198585000Y-88000000D02*
X198235000Y-88350000D01*
X194000000Y-82500000D02*
X193000000Y-83500000D01*
D52*
X197750000Y-98500000D02*
X197750000Y-98000000D01*
X190271000Y-69500000D02*
X190041000Y-69270000D01*
D51*
X189991000Y-69386000D02*
X189991000Y-69270000D01*
D49*
X201250000Y-88000000D02*
X202185000Y-88000000D01*
D48*
X202500000Y-95000000D02*
X202500000Y-95500000D01*
D49*
X195750000Y-99500000D02*
X196000000Y-99750000D01*
D48*
X200870000Y-96500000D02*
X200870000Y-95880000D01*
D51*
X190520000Y-69874000D02*
X189916000Y-69270000D01*
D52*
X196635000Y-90240000D02*
X197135000Y-90240000D01*
D49*
X198980000Y-85000000D02*
X198980000Y-85770000D01*
X199040000Y-106971130D02*
X199040000Y-107710000D01*
D48*
X195360000Y-114910000D02*
X194360000Y-114910000D01*
D49*
X198438000Y-106971130D02*
X198050000Y-106583130D01*
D48*
X204900000Y-82600000D02*
X206100000Y-82600000D01*
X194500000Y-89500000D02*
X194500000Y-89000000D01*
D49*
X198017127Y-106221130D02*
X197810000Y-106014003D01*
X195735500Y-98850000D02*
X195699000Y-98813500D01*
X199040000Y-105471130D02*
X198438000Y-105471130D01*
D48*
X192510000Y-114910000D02*
X193360000Y-114910000D01*
D49*
X199520000Y-88000000D02*
X201250000Y-88000000D01*
X198050000Y-105859130D02*
X198050000Y-106221130D01*
X202185000Y-93500000D02*
X202535000Y-93150000D01*
D50*
X194260000Y-111100000D02*
X194300000Y-111100000D01*
D48*
X205500000Y-97000000D02*
X205500000Y-96487500D01*
X201250000Y-95500000D02*
X202500000Y-95500000D01*
D50*
%TO.N,VSYS*%
X196040000Y-109600000D02*
X196060000Y-109620000D01*
D49*
X195440000Y-109620000D02*
X196060000Y-109620000D01*
X195060000Y-110000000D02*
X195440000Y-109620000D01*
X198750000Y-100960000D02*
X198560000Y-100960000D01*
X196500000Y-100750000D02*
X197600000Y-100750000D01*
D52*
X195470000Y-108200000D02*
X195460000Y-108210000D01*
X195067500Y-101750000D02*
X195067500Y-100862500D01*
D49*
X198560000Y-100960000D02*
X198350000Y-100750000D01*
D52*
X196800000Y-108200000D02*
X195470000Y-108200000D01*
D49*
X198350000Y-100750000D02*
X197600000Y-100750000D01*
D52*
X195950000Y-100750000D02*
X195837500Y-100862500D01*
D49*
X195950000Y-100750000D02*
X196500000Y-100750000D01*
D52*
X195837500Y-100862500D02*
X195067500Y-100862500D01*
X196800000Y-109620000D02*
X196060000Y-109620000D01*
D48*
%TO.N,IO34*%
X205100000Y-84350000D02*
X208624000Y-87874000D01*
X208624000Y-87874000D02*
X208624000Y-88729306D01*
X209000000Y-101175000D02*
X210125000Y-102300000D01*
X208624000Y-88729306D02*
X209000000Y-89105306D01*
X205100000Y-83500000D02*
X205100000Y-84350000D01*
X209000000Y-89105306D02*
X209000000Y-101175000D01*
D52*
%TO.N,VBAT*%
X200000000Y-108900000D02*
X200000000Y-108810000D01*
D49*
X201050000Y-107700000D02*
X201250000Y-107900000D01*
X194660000Y-110000000D02*
X194660000Y-109214074D01*
D52*
X200100000Y-108710000D02*
X201140000Y-108710000D01*
X201230000Y-108580000D02*
X201250000Y-108600000D01*
X200000000Y-108810000D02*
X200100000Y-108710000D01*
D49*
X194660000Y-109214074D02*
X194974074Y-108900000D01*
D52*
X201140000Y-108710000D02*
X201250000Y-108600000D01*
X200000000Y-108900000D02*
X194974074Y-108900000D01*
X201030000Y-107680000D02*
X201250000Y-107900000D01*
D49*
X201250000Y-107011130D02*
X201250000Y-107900000D01*
D51*
%TO.N,V_USB*%
X196655000Y-95500000D02*
X194800000Y-95500000D01*
D49*
X197360000Y-113890000D02*
X197360000Y-113780000D01*
D53*
X196752000Y-92002000D02*
X196754000Y-92000000D01*
X201250000Y-89500000D02*
X199520000Y-89500000D01*
X196754000Y-92000000D02*
X198798043Y-92000000D01*
D49*
X196655000Y-96055000D02*
X196655000Y-95500000D01*
D53*
X198798043Y-92000000D02*
X198800043Y-92002000D01*
D49*
X197990000Y-96500000D02*
X197100000Y-96500000D01*
D53*
X196000000Y-91250000D02*
X196752000Y-92002000D01*
D51*
X194800000Y-95500000D02*
X193600000Y-96700000D01*
X196655000Y-92099000D02*
X196655000Y-95000000D01*
D49*
X196674000Y-94481000D02*
X196655000Y-94500000D01*
X197360000Y-113890000D02*
X197360000Y-112840000D01*
D51*
X196752000Y-92002000D02*
X196655000Y-92099000D01*
D52*
X197000000Y-112480000D02*
X196060000Y-112480000D01*
D53*
X196000000Y-89989702D02*
X196000000Y-91250000D01*
D51*
X196655000Y-94500000D02*
X196655000Y-95500000D01*
D49*
X199520000Y-92000000D02*
X201250000Y-92000000D01*
D53*
X199520000Y-89500000D02*
X199494000Y-89474000D01*
D49*
X196776000Y-94481000D02*
X196674000Y-94481000D01*
X197360000Y-112840000D02*
X197000000Y-112480000D01*
D53*
X198802043Y-92000000D02*
X199520000Y-92000000D01*
D49*
X195060000Y-112200000D02*
X195780000Y-112200000D01*
D53*
X196515702Y-89474000D02*
X196000000Y-89989702D01*
D49*
X195780000Y-112200000D02*
X196060000Y-112480000D01*
X197100000Y-96500000D02*
X196655000Y-96055000D01*
D53*
X199494000Y-89474000D02*
X196515702Y-89474000D01*
D49*
X196795000Y-94500000D02*
X196776000Y-94481000D01*
X198800043Y-92002000D02*
X198802043Y-92000000D01*
D48*
%TO.N,IO36*%
X207000000Y-81600000D02*
X206418177Y-81600000D01*
X206418177Y-81600000D02*
X205899488Y-81081311D01*
%TO.N,IO35*%
X205947135Y-81954671D02*
X205994270Y-82001806D01*
X206950000Y-82500000D02*
X207000000Y-82450000D01*
X205998194Y-82001806D02*
X206496389Y-82500000D01*
X206496389Y-82500000D02*
X206950000Y-82500000D01*
X205994270Y-82001806D02*
X205998194Y-82001806D01*
%TO.N,BAT_ALRT*%
X196500000Y-103750000D02*
X197060000Y-104310000D01*
X195500000Y-78000000D02*
X195750000Y-77750000D01*
X195750000Y-77525000D02*
X195775000Y-77500000D01*
X196500000Y-101750000D02*
X196500000Y-103750000D01*
D49*
X193000000Y-73950000D02*
X194000000Y-73950000D01*
D48*
X194374000Y-78500000D02*
X194874000Y-78000000D01*
X195750000Y-77750000D02*
X195750000Y-77525000D01*
X194874000Y-78000000D02*
X195500000Y-78000000D01*
X197060000Y-104310000D02*
X197060000Y-105471130D01*
X196000000Y-97412500D02*
X196000000Y-96100000D01*
%TO.N,LED*%
X191953612Y-74800000D02*
X189875000Y-76878612D01*
X196800000Y-87915000D02*
X196800000Y-87125641D01*
D49*
X193000000Y-74800000D02*
X192300000Y-74800000D01*
X192300000Y-74800000D02*
X192250000Y-74750000D01*
D48*
X192300000Y-74800000D02*
X191953612Y-74800000D01*
X189875000Y-76878612D02*
X189875000Y-76900000D01*
%TO.N,Net-(D5-K)*%
X196770000Y-88720000D02*
X195800000Y-87750000D01*
X196800000Y-88885000D02*
X196795000Y-88885000D01*
X196800000Y-88720000D02*
X196770000Y-88720000D01*
%TO.N,IO37*%
X205943192Y-80382552D02*
X206310640Y-80750000D01*
X206310640Y-80750000D02*
X207000000Y-80750000D01*
%TO.N,Net-(D6-DIN)*%
X204085000Y-103700000D02*
X204085000Y-103155000D01*
X204750000Y-103000000D02*
X204990000Y-102760000D01*
X204990000Y-102760000D02*
X204990000Y-102250000D01*
X204085000Y-103155000D02*
X204240000Y-103000000D01*
X204240000Y-103000000D02*
X204750000Y-103000000D01*
D52*
%TO.N,3V3*%
X203250000Y-103250000D02*
X203250000Y-104500000D01*
D49*
X202980000Y-96750000D02*
X203250000Y-96480000D01*
D52*
X192980000Y-72230000D02*
X193000000Y-72250000D01*
D48*
X204495000Y-100755000D02*
X205247500Y-100755000D01*
D52*
X201450000Y-100750000D02*
X201700000Y-101000000D01*
D48*
X203836000Y-95964000D02*
X203836000Y-94914000D01*
D52*
X191500000Y-71270000D02*
X191480000Y-71250000D01*
X194675000Y-96750000D02*
X194675000Y-97725000D01*
X201450000Y-100400000D02*
X201450000Y-100750000D01*
X204085000Y-105335000D02*
X204750000Y-106000000D01*
X191500000Y-72250000D02*
X191500000Y-71270000D01*
D48*
X205000000Y-96876848D02*
X205000000Y-96487500D01*
D52*
X191500000Y-74251000D02*
X191500000Y-72250000D01*
X194500000Y-97900000D02*
X194500000Y-98062500D01*
D49*
X196790000Y-98960000D02*
X196790000Y-98790000D01*
X197440000Y-99250000D02*
X197080000Y-99250000D01*
D48*
X203250000Y-96480000D02*
X203320000Y-96480000D01*
X203280000Y-96480000D02*
X204000000Y-97200000D01*
D52*
X203819000Y-101000000D02*
X204250000Y-101431000D01*
X196790000Y-98500000D02*
X196727500Y-98437500D01*
D48*
X204000000Y-94750000D02*
X204490000Y-94750000D01*
D52*
X203550000Y-104800000D02*
X204085000Y-104800000D01*
D51*
X205000000Y-106020000D02*
X205020000Y-106000000D01*
D52*
X204085000Y-104800000D02*
X204085000Y-105335000D01*
D48*
X205510000Y-100492500D02*
X205510000Y-100000000D01*
D52*
X193000000Y-72250000D02*
X191500000Y-72250000D01*
X204250000Y-102250000D02*
X203250000Y-103250000D01*
D49*
X197600000Y-99750000D02*
X197600000Y-99410000D01*
D48*
X204495000Y-100755000D02*
X204250000Y-101000000D01*
X205510000Y-100000000D02*
X205510000Y-99000000D01*
D52*
X203250000Y-104500000D02*
X203550000Y-104800000D01*
D48*
X204676848Y-97200000D02*
X205000000Y-96876848D01*
D52*
X205000000Y-107000000D02*
X205000000Y-106020000D01*
D48*
X203320000Y-96480000D02*
X203836000Y-95964000D01*
D49*
X201850000Y-96750000D02*
X202980000Y-96750000D01*
D48*
X193600000Y-95475000D02*
X193600000Y-95390000D01*
D52*
X196960000Y-97520000D02*
X196980000Y-97500000D01*
D49*
X197600000Y-99410000D02*
X197440000Y-99250000D01*
D52*
X196727500Y-98062500D02*
X194500000Y-98062500D01*
D48*
X193600000Y-95390000D02*
X194240000Y-94750000D01*
D52*
X196790000Y-98000000D02*
X196727500Y-98062500D01*
D49*
X197080000Y-99250000D02*
X196790000Y-98960000D01*
D52*
X204250000Y-101431000D02*
X204250000Y-102250000D01*
D48*
X205247500Y-100755000D02*
X205510000Y-100492500D01*
X203836000Y-94914000D02*
X204000000Y-94750000D01*
D52*
X204750000Y-106000000D02*
X205020000Y-106000000D01*
X201700000Y-101000000D02*
X202761000Y-101000000D01*
X202761000Y-101000000D02*
X203819000Y-101000000D01*
D48*
X204250000Y-101000000D02*
X203819000Y-101000000D01*
X204000000Y-97200000D02*
X204676848Y-97200000D01*
X203250000Y-96480000D02*
X203280000Y-96480000D01*
D52*
X196790000Y-98000000D02*
X196790000Y-97520000D01*
X194675000Y-97725000D02*
X194500000Y-97900000D01*
D49*
X196790000Y-98790000D02*
X196750000Y-98750000D01*
D52*
X191549000Y-74300000D02*
X191500000Y-74251000D01*
X196790000Y-98000000D02*
X196790000Y-98500000D01*
D49*
%TO.N,Net-(IC1-PG)*%
X198750000Y-99940000D02*
X198440000Y-100250000D01*
X198440000Y-100250000D02*
X197600000Y-100250000D01*
%TO.N,Net-(IC2-ILIM{slash}VSET)*%
X194360000Y-113800000D02*
X193860000Y-113300000D01*
X193860000Y-113300000D02*
X193860000Y-112200000D01*
%TO.N,Net-(IC2-TS{slash}MR)*%
X193360000Y-112800000D02*
X193460000Y-112700000D01*
X193360000Y-113890000D02*
X193360000Y-112800000D01*
X193460000Y-112700000D02*
X193460000Y-112200000D01*
%TO.N,Net-(IC2-ISET)*%
X195360000Y-113700000D02*
X195360000Y-113890000D01*
X194260000Y-112200000D02*
X194260000Y-113100000D01*
X194960000Y-113300000D02*
X195360000Y-113700000D01*
X194260000Y-113100000D02*
X194460000Y-113300000D01*
X194460000Y-113300000D02*
X194960000Y-113300000D01*
D48*
%TO.N,Net-(J2-CC1)*%
X199520000Y-91500000D02*
X198699588Y-91500000D01*
X197830412Y-91260000D02*
X197250000Y-91260000D01*
X198699588Y-91500000D02*
X198623588Y-91576000D01*
X198146412Y-91576000D02*
X197830412Y-91260000D01*
X198623588Y-91576000D02*
X198146412Y-91576000D01*
%TO.N,Net-(J2-CC2)*%
X202740000Y-89990000D02*
X203385000Y-89990000D01*
X202070412Y-90000000D02*
X202146412Y-89924000D01*
X202146412Y-89924000D02*
X202623588Y-89924000D01*
X202730000Y-90000000D02*
X202740000Y-89990000D01*
X202699588Y-90000000D02*
X202730000Y-90000000D01*
X202623588Y-89924000D02*
X202699588Y-90000000D01*
X201250000Y-90000000D02*
X202070412Y-90000000D01*
D49*
%TO.N,Net-(D2-K)*%
X194260000Y-109000000D02*
X194460000Y-108800000D01*
X194460000Y-108800000D02*
X194460000Y-108185000D01*
X194260000Y-110000000D02*
X194260000Y-109000000D01*
%TO.N,Net-(D2-A)*%
X195435000Y-107215000D02*
X195460000Y-107190000D01*
X194460000Y-107215000D02*
X195435000Y-107215000D01*
%TO.N,Net-(D3-A)*%
X197335000Y-114885000D02*
X197360000Y-114910000D01*
X196360000Y-114885000D02*
X197335000Y-114885000D01*
%TO.N,Net-(D3-K)*%
X195960000Y-113300000D02*
X196060000Y-113300000D01*
X196360000Y-113600000D02*
X196060000Y-113300000D01*
X194760000Y-112900000D02*
X195160000Y-112900000D01*
X194660000Y-112200000D02*
X194660000Y-112800000D01*
X195160000Y-112900000D02*
X195560000Y-113300000D01*
X196360000Y-113915000D02*
X196360000Y-113600000D01*
X194660000Y-112800000D02*
X194760000Y-112900000D01*
X195560000Y-113300000D02*
X195960000Y-113300000D01*
%TO.N,Net-(IC2-~{CE})*%
X193460000Y-109010000D02*
X193460000Y-108210000D01*
X193860000Y-109410000D02*
X193460000Y-109010000D01*
X193860000Y-110000000D02*
X193860000Y-109410000D01*
D48*
%TO.N,SCL*%
X196259998Y-106259998D02*
X196259998Y-106001619D01*
X196471130Y-106471130D02*
X196259998Y-106259998D01*
X204500000Y-97912500D02*
X203986000Y-97912500D01*
D49*
X204490000Y-99000000D02*
X204500000Y-98990000D01*
D48*
X193000000Y-80750000D02*
X196300000Y-80750000D01*
X204500000Y-98990000D02*
X204500000Y-97912500D01*
X203900000Y-99000000D02*
X204490000Y-99000000D01*
X203011000Y-99000000D02*
X203900000Y-99000000D01*
X196471130Y-106471130D02*
X197060000Y-106471130D01*
D49*
X203986000Y-97800000D02*
X204086000Y-97900000D01*
D48*
%TO.N,Net-(D4-A)*%
X199900000Y-96500000D02*
X199010000Y-96500000D01*
%TO.N,SDA*%
X203011000Y-100000000D02*
X203900000Y-100000000D01*
X204500000Y-96487500D02*
X204500000Y-95951459D01*
X196600000Y-79900000D02*
X193000000Y-79900000D01*
X197052983Y-106978147D02*
X197060000Y-106971130D01*
X197052983Y-107441051D02*
X197052983Y-106978147D01*
X203900000Y-100000000D02*
X204490000Y-100000000D01*
X204500000Y-95951459D02*
X204788255Y-95663204D01*
%TO.N,D+*%
X201250000Y-90500000D02*
X202385000Y-90500000D01*
X199520000Y-91000000D02*
X198385000Y-91000000D01*
X200850000Y-85900000D02*
X200850000Y-83500000D01*
%TO.N,RGB*%
X206049972Y-101799971D02*
X206250000Y-101599943D01*
D49*
X206010000Y-101839943D02*
X206049972Y-101799971D01*
X205990000Y-83540000D02*
X205950000Y-83500000D01*
D48*
X206250000Y-101500000D02*
X206250000Y-101000000D01*
X207000000Y-85300000D02*
X206300000Y-84600000D01*
X205950000Y-84210000D02*
X205950000Y-83500000D01*
X206300000Y-84560000D02*
X205950000Y-84210000D01*
D49*
X206250000Y-101599943D02*
X206250000Y-101500000D01*
D48*
X206300000Y-84600000D02*
X206300000Y-84560000D01*
X206010000Y-102250000D02*
X206010000Y-101839943D01*
%TO.N,RX*%
X210125000Y-76900000D02*
X210125000Y-76625000D01*
X210125000Y-76625000D02*
X209500000Y-76000000D01*
X208800000Y-74800000D02*
X207000000Y-74800000D01*
X209500000Y-76000000D02*
X209500000Y-75500000D01*
X209500000Y-75500000D02*
X208800000Y-74800000D01*
%TO.N,TX*%
X209500000Y-78815000D02*
X209500000Y-77796694D01*
X209049000Y-77345694D02*
X209049000Y-77299000D01*
X208382900Y-75650000D02*
X207000000Y-75650000D01*
X209000000Y-77250000D02*
X209000000Y-76267100D01*
X209049000Y-77299000D02*
X209000000Y-77250000D01*
X210125000Y-79440000D02*
X209500000Y-78815000D01*
X209500000Y-77796694D02*
X209049000Y-77345694D01*
X209000000Y-76267100D02*
X208382900Y-75650000D01*
%TO.N,MTMS*%
X209000000Y-77996388D02*
X209000000Y-80000000D01*
X207000000Y-76500000D02*
X208250000Y-76500000D01*
X208250000Y-76500000D02*
X208649000Y-76899000D01*
X209583326Y-81583326D02*
X209728326Y-81583326D01*
X209351000Y-80372674D02*
X209351000Y-81351000D01*
X209728326Y-81583326D02*
X210125000Y-81980000D01*
X209250000Y-80271673D02*
X209351000Y-80372674D01*
X208649000Y-77645389D02*
X209000000Y-77996388D01*
X209250000Y-80250000D02*
X209250000Y-80271673D01*
X209000000Y-80000000D02*
X209250000Y-80250000D01*
X208649000Y-76899000D02*
X208649000Y-77645389D01*
X209351000Y-81351000D02*
X209583326Y-81583326D01*
%TO.N,MTDI*%
X207000000Y-77350000D02*
X207850000Y-77350000D01*
X209000000Y-80518062D02*
X209000000Y-82500000D01*
X209500000Y-83000000D02*
X209500000Y-83895000D01*
X207850000Y-77350000D02*
X208290779Y-77790779D01*
X209500000Y-83895000D02*
X210125000Y-84520000D01*
X208290779Y-77790779D02*
X208298000Y-77790779D01*
X208649000Y-78141779D02*
X208649000Y-80167062D01*
X208298000Y-77790779D02*
X208649000Y-78141779D01*
X208649000Y-80167062D02*
X209000000Y-80518062D01*
X209000000Y-82500000D02*
X209500000Y-83000000D01*
%TO.N,MTDO*%
X209000000Y-82996388D02*
X208649000Y-82645389D01*
X207300000Y-78500000D02*
X207000000Y-78200000D01*
X208000000Y-78500000D02*
X207300000Y-78500000D01*
X210125000Y-87060000D02*
X209750000Y-86685000D01*
X208649000Y-80663451D02*
X208298000Y-80312452D01*
X209000000Y-85750000D02*
X209000000Y-82996388D01*
X208298000Y-80312452D02*
X208298000Y-78798000D01*
X208298000Y-78798000D02*
X208000000Y-78500000D01*
X208649000Y-82645389D02*
X208649000Y-80663451D01*
X209750000Y-86500000D02*
X209000000Y-85750000D01*
X209750000Y-86685000D02*
X209750000Y-86500000D01*
%TO.N,MTCK*%
X209000000Y-88475000D02*
X210125000Y-89600000D01*
X208500000Y-82992779D02*
X208500000Y-87000000D01*
X207947000Y-80457842D02*
X208298000Y-80808842D01*
X208298000Y-80808842D02*
X208298000Y-82790779D01*
X207000000Y-79050000D02*
X207747000Y-79050000D01*
X209000000Y-87500000D02*
X209000000Y-88475000D01*
X207747000Y-79050000D02*
X207947000Y-79250000D01*
X208500000Y-87000000D02*
X209000000Y-87500000D01*
X207947000Y-79250000D02*
X207947000Y-80457842D01*
X208298000Y-82790779D02*
X208500000Y-82992779D01*
%TO.N,D-*%
X198785000Y-90500000D02*
X198385000Y-90100000D01*
X202035057Y-91000000D02*
X202335057Y-91300000D01*
D49*
X202385000Y-91300003D02*
X202185003Y-91300003D01*
X202335057Y-91300000D02*
X202385000Y-91300000D01*
D48*
X199520000Y-90500000D02*
X200000000Y-90500000D01*
X201250000Y-91000000D02*
X202035057Y-91000000D01*
X199520000Y-90500000D02*
X198785000Y-90500000D01*
X200500000Y-91000000D02*
X201250000Y-91000000D01*
X200000000Y-85750000D02*
X200000000Y-83500000D01*
X200000000Y-90500000D02*
X200500000Y-91000000D01*
%TO.N,Net-(S1-NO)*%
X195260000Y-94740000D02*
X194270000Y-93750000D01*
D49*
X193000000Y-73100000D02*
X192800000Y-73100000D01*
X195700000Y-92550000D02*
X195750000Y-92500000D01*
D48*
X194750000Y-76725000D02*
X194750000Y-73500000D01*
X194725000Y-76750000D02*
X194750000Y-76725000D01*
X194350000Y-73100000D02*
X193900000Y-73100000D01*
X194500000Y-93020000D02*
X194270000Y-93250000D01*
X195260000Y-94750000D02*
X195260000Y-94740000D01*
D49*
X194500000Y-92550000D02*
X195700000Y-92550000D01*
D48*
X193000000Y-73100000D02*
X193900000Y-73100000D01*
X194500000Y-93020000D02*
X194500000Y-92550000D01*
X194270000Y-93250000D02*
X194270000Y-93750000D01*
X194750000Y-73500000D02*
X194350000Y-73100000D01*
%TO.N,Net-(S2-NO)*%
X205510000Y-94750000D02*
X205510000Y-93780000D01*
X205250000Y-93000000D02*
X205480000Y-93230000D01*
D49*
X206450000Y-92550000D02*
X206500000Y-92500000D01*
X205250000Y-92550000D02*
X206450000Y-92550000D01*
X206450000Y-70550000D02*
X207000000Y-70550000D01*
D48*
X205480000Y-93230000D02*
X205480000Y-93750000D01*
D49*
X205510000Y-93780000D02*
X205480000Y-93750000D01*
X205750000Y-71250000D02*
X206450000Y-70550000D01*
D48*
X205250000Y-92550000D02*
X205250000Y-93000000D01*
D52*
%TO.N,Net-(IC1-SW)*%
X194946470Y-99662500D02*
X195504485Y-100220515D01*
D49*
X196500000Y-100250000D02*
X195475000Y-100250000D01*
D52*
X194500000Y-99662500D02*
X194946470Y-99662500D01*
D48*
%TO.N,IO7*%
X191000000Y-85596388D02*
X191327000Y-85269388D01*
X191399000Y-83093777D02*
X191702000Y-82790776D01*
X189875000Y-89600000D02*
X191000000Y-88475000D01*
X192103000Y-80397000D02*
X192103000Y-79438700D01*
X191327000Y-83176612D02*
X191399000Y-83104611D01*
X192103000Y-79438700D02*
X192491700Y-79050000D01*
X191702000Y-82790776D02*
X191702000Y-80798000D01*
X191000000Y-88475000D02*
X191000000Y-85596388D01*
X192491700Y-79050000D02*
X193000000Y-79050000D01*
X191327000Y-85269388D02*
X191327000Y-83176612D01*
X191702000Y-80798000D02*
X192103000Y-80397000D01*
X191399000Y-83104611D02*
X191399000Y-83093777D01*
%TO.N,IO14*%
X193104000Y-86388776D02*
X193392775Y-86100001D01*
X195376000Y-84124000D02*
X195750000Y-83750000D01*
X195750000Y-83750000D02*
X195750000Y-83500000D01*
X191351000Y-98899000D02*
X191351000Y-91656777D01*
X191000000Y-99249998D02*
X191351000Y-98899000D01*
X192053000Y-88543388D02*
X193104000Y-87492388D01*
X193392775Y-86100001D02*
X193400000Y-86100001D01*
X193104000Y-87492388D02*
X193104000Y-86388776D01*
X189875000Y-102300000D02*
X191000000Y-101175000D01*
X191000000Y-101175000D02*
X191000000Y-99249998D01*
X195376000Y-84149000D02*
X195376000Y-84124000D01*
X192053000Y-88911167D02*
X192053000Y-88543388D01*
X195351001Y-84149000D02*
X195376000Y-84149000D01*
X193400000Y-86100001D02*
X195351001Y-84149000D01*
X191702000Y-89262165D02*
X192053000Y-88911167D01*
X191702000Y-91305779D02*
X191702000Y-89262165D01*
X191351000Y-91656777D02*
X191702000Y-91305779D01*
%TO.N,IO17*%
X194157000Y-87928556D02*
X194157000Y-86843000D01*
X191653000Y-105746000D02*
X191653000Y-102145388D01*
X191100000Y-106651389D02*
X191101000Y-106650388D01*
X192404000Y-99342388D02*
X192404000Y-92092944D01*
X194157000Y-86843000D02*
X195748999Y-85251001D01*
X198300000Y-84000000D02*
X198300000Y-83500000D01*
X193106000Y-88979554D02*
X194157000Y-87928556D01*
X192755000Y-91741948D02*
X192755000Y-89698334D01*
X195748999Y-85251000D02*
X196645389Y-85251000D01*
X191653000Y-102145388D02*
X192053000Y-101745388D01*
X192053000Y-99693388D02*
X192404000Y-99342388D01*
X192053000Y-101745388D02*
X192053000Y-99693388D01*
X189875000Y-109920000D02*
X189880000Y-109920000D01*
X192755000Y-89698334D02*
X193105999Y-89347338D01*
X189880000Y-109920000D02*
X191100000Y-108700000D01*
X191101000Y-106650388D02*
X191101000Y-106298000D01*
X195748999Y-85251001D02*
X195748999Y-85251000D01*
X192404000Y-92092944D02*
X192755000Y-91741948D01*
X197800000Y-84500000D02*
X198300000Y-84000000D01*
X191101000Y-106298000D02*
X191653000Y-105746000D01*
X193105999Y-89347338D02*
X193106000Y-88979554D01*
X191100000Y-108700000D02*
X191100000Y-106651389D01*
X197396388Y-84500000D02*
X197800000Y-84500000D01*
X196645389Y-85251000D02*
X197396388Y-84500000D01*
%TO.N,IO3*%
X192150000Y-75650000D02*
X193000000Y-75650000D01*
X191000000Y-77503612D02*
X191000000Y-76800000D01*
X191000000Y-76800000D02*
X192150000Y-75650000D01*
X190649000Y-78666000D02*
X190649000Y-77854612D01*
X190649000Y-77854612D02*
X191000000Y-77503612D01*
X189875000Y-79440000D02*
X190649000Y-78666000D01*
%TO.N,IO18*%
X191100000Y-109196388D02*
X191100000Y-111235000D01*
X198651000Y-84345388D02*
X198096388Y-84900000D01*
X192404000Y-99838776D02*
X192404000Y-101890776D01*
X194800387Y-86696001D02*
X194508000Y-86988389D01*
X193106000Y-92049000D02*
X192755000Y-92400000D01*
X196840779Y-85702000D02*
X195794389Y-85702000D01*
X194508000Y-88073946D02*
X193457000Y-89124942D01*
X191451000Y-106796777D02*
X191451000Y-108845388D01*
X192004000Y-105891389D02*
X191452000Y-106443389D01*
X194804000Y-86696001D02*
X194800387Y-86696001D01*
X198654612Y-84345388D02*
X198651000Y-84345388D01*
X199150000Y-83850000D02*
X198654612Y-84345388D01*
X192004000Y-102290776D02*
X192004000Y-105891389D01*
X191452001Y-106795776D02*
X191451000Y-106796777D01*
X193106000Y-89843724D02*
X193106000Y-92049000D01*
X193456998Y-89492729D02*
X193106000Y-89843724D01*
X195205612Y-86294389D02*
X194804000Y-86696001D01*
X192755000Y-92400000D02*
X192755000Y-99487777D01*
X195794389Y-85702000D02*
X195205612Y-86290776D01*
X197642779Y-84900000D02*
X196840779Y-85702000D01*
X191451000Y-108845388D02*
X191100000Y-109196388D01*
X191452000Y-106443389D02*
X191452001Y-106795776D01*
X192755000Y-99487777D02*
X192404000Y-99838776D01*
X191100000Y-111235000D02*
X189875000Y-112460000D01*
X195205612Y-86290776D02*
X195205612Y-86294389D01*
X199150000Y-83500000D02*
X199150000Y-83850000D01*
X192404000Y-101890776D02*
X192004000Y-102290776D01*
X198096388Y-84900000D02*
X197642779Y-84900000D01*
X193457000Y-89124942D02*
X193456998Y-89492729D01*
X194508000Y-86988389D02*
X194508000Y-88073946D01*
%TO.N,IO10*%
X192400000Y-81600000D02*
X192053000Y-81947000D01*
X189875000Y-92140000D02*
X191000000Y-91015000D01*
X191678000Y-83322000D02*
X191678000Y-85414777D01*
X191351000Y-88620388D02*
X191351000Y-85741776D01*
X191750001Y-83239165D02*
X191750000Y-83250000D01*
X192053000Y-81947000D02*
X192053000Y-82936165D01*
X193000000Y-81600000D02*
X192400000Y-81600000D01*
X191750000Y-83250000D02*
X191678000Y-83322000D01*
X191351000Y-85741776D02*
X191396388Y-85696388D01*
X192053000Y-82936165D02*
X191750001Y-83239165D01*
X191678000Y-85414777D02*
X191396388Y-85696388D01*
X191000000Y-88971388D02*
X191351000Y-88620388D01*
X191000000Y-91015000D02*
X191000000Y-88971388D01*
%TO.N,IO13*%
X194900000Y-83500000D02*
X194900000Y-84100000D01*
X192753000Y-86243388D02*
X192753000Y-87347000D01*
X191000000Y-98635000D02*
X189875000Y-99760000D01*
X192753000Y-87347000D02*
X191702000Y-88398000D01*
X191702000Y-88765777D02*
X191351000Y-89116776D01*
X191000000Y-91511388D02*
X191000000Y-98635000D01*
X194900000Y-84100000D02*
X194896388Y-84100000D01*
X191351000Y-91160389D02*
X191000000Y-91511388D01*
X194896388Y-84100000D02*
X192753000Y-86243388D01*
X191702000Y-88398000D02*
X191702000Y-88765777D01*
X191351000Y-89116776D02*
X191351000Y-91160389D01*
%TO.N,IO4*%
X191351000Y-77649001D02*
X191000000Y-78000000D01*
X191000000Y-80003612D02*
X190649000Y-80354612D01*
X192000000Y-76500000D02*
X191351000Y-77149000D01*
X191351000Y-77149000D02*
X191351000Y-77649001D01*
X193000000Y-76500000D02*
X192000000Y-76500000D01*
X190649000Y-81206000D02*
X189875000Y-81980000D01*
X191000000Y-78000000D02*
X191000000Y-80003612D01*
X190649000Y-80354612D02*
X190649000Y-81206000D01*
%TO.N,IO12*%
X194050000Y-84450000D02*
X194050000Y-83500000D01*
X192000000Y-87300000D02*
X192402000Y-86898000D01*
X192402000Y-86898000D02*
X192402000Y-86098000D01*
X192402000Y-86098000D02*
X194050000Y-84450000D01*
%TO.N,IO6*%
X191351000Y-82645387D02*
X191351000Y-80652612D01*
X191752000Y-78623000D02*
X192175000Y-78200000D01*
X191048000Y-82959223D02*
X191048000Y-82948388D01*
X191048000Y-82948388D02*
X191351000Y-82645387D01*
X190976000Y-85124000D02*
X190976000Y-83031223D01*
X189875000Y-87060000D02*
X190649000Y-86286000D01*
X190976000Y-83031223D02*
X191048000Y-82959223D01*
X191752000Y-80251612D02*
X191752000Y-78623000D01*
X191351000Y-80652612D02*
X191752000Y-80251612D01*
X190649000Y-86286000D02*
X190649000Y-85451000D01*
X192175000Y-78200000D02*
X193000000Y-78200000D01*
X190649000Y-85451000D02*
X190976000Y-85124000D01*
%TO.N,IO11*%
X193300000Y-82450000D02*
X194000000Y-81750000D01*
X191900000Y-86521238D02*
X191900000Y-85850000D01*
X191900000Y-85850000D02*
X193000000Y-84750000D01*
X193000000Y-82450000D02*
X192800000Y-82450000D01*
X191876000Y-86545238D02*
X191900000Y-86521238D01*
X193000000Y-82450000D02*
X193300000Y-82450000D01*
%TO.N,IO5*%
X191000000Y-80500000D02*
X191000000Y-82500000D01*
X191000000Y-82500000D02*
X190625000Y-82874999D01*
D49*
X193000000Y-77350000D02*
X192900000Y-77250000D01*
D48*
X191401000Y-80099000D02*
X191000000Y-80500000D01*
X193000000Y-77350000D02*
X192150000Y-77350000D01*
X192150000Y-77350000D02*
X191401000Y-78099000D01*
X191401000Y-78099000D02*
X191401000Y-80099000D01*
X190625000Y-83770000D02*
X189875000Y-84520000D01*
X190625000Y-82874999D02*
X190625000Y-83770000D01*
%TO.N,IO15*%
X191351000Y-99395388D02*
X191351000Y-101320389D01*
X190951000Y-101720388D02*
X190951000Y-103764000D01*
X193455000Y-87637777D02*
X192404000Y-88688776D01*
X196600000Y-83500000D02*
X196600000Y-84150000D01*
X192053000Y-89407554D02*
X192053000Y-91451169D01*
X195496389Y-84500000D02*
X193455000Y-86541389D01*
X191351000Y-101320389D02*
X190951000Y-101720388D01*
X192404000Y-88688776D02*
X192404000Y-89056557D01*
X196250000Y-84500000D02*
X195496389Y-84500000D01*
X196600000Y-84150000D02*
X196250000Y-84500000D01*
X193455000Y-86541389D02*
X193455000Y-87637777D01*
X191702000Y-99044390D02*
X191351000Y-99395388D01*
X192404000Y-89056557D02*
X192053000Y-89407554D01*
X190951000Y-103764000D02*
X189875000Y-104840000D01*
X192053000Y-91451169D02*
X191702000Y-91802167D01*
X191702000Y-91802167D02*
X191702000Y-99044390D01*
%TO.N,IO16*%
X192404000Y-91596559D02*
X192053000Y-91947555D01*
X195503611Y-85000000D02*
X194102000Y-86401611D01*
X191702000Y-99548000D02*
X191702000Y-101600000D01*
X197450000Y-83500000D02*
X197450000Y-83950000D01*
X195503611Y-84989166D02*
X195503611Y-85000000D01*
X190750000Y-106505000D02*
X189875000Y-107380000D01*
X192053000Y-99197000D02*
X191702000Y-99548000D01*
X193806000Y-87783167D02*
X192755000Y-88834165D01*
X191302000Y-105198000D02*
X190750000Y-105750000D01*
X192755000Y-88834165D02*
X192754999Y-89201948D01*
X192754999Y-89201948D02*
X192404000Y-89552944D01*
X193806000Y-86694000D02*
X193806000Y-87783167D01*
X195592777Y-84900000D02*
X195503611Y-84989166D01*
X196500000Y-84900000D02*
X195592777Y-84900000D01*
X194098389Y-86401611D02*
X193806000Y-86694000D01*
X191702000Y-101600000D02*
X191302000Y-102000000D01*
X192053000Y-91947555D02*
X192053000Y-99197000D01*
X197450000Y-83950000D02*
X196500000Y-84900000D01*
X191302000Y-102000000D02*
X191302000Y-105198000D01*
X194102000Y-86401611D02*
X194098389Y-86401611D01*
X192404000Y-89552944D02*
X192404000Y-91596559D01*
X190750000Y-105750000D02*
X190750000Y-106505000D01*
%TO.N,IO33*%
X204250000Y-83996388D02*
X208273000Y-88019388D01*
X209000000Y-101671388D02*
X209000000Y-103715000D01*
X208649000Y-101320388D02*
X209000000Y-101671388D01*
X208273000Y-88019388D02*
X208273000Y-88874695D01*
X208273000Y-88874695D02*
X208649000Y-89250695D01*
X208649000Y-89250695D02*
X208649000Y-101320388D01*
X204250000Y-83500000D02*
X204250000Y-83996388D01*
X209000000Y-103715000D02*
X210125000Y-104840000D01*
%TO.N,IO26*%
X208298000Y-104005779D02*
X208649000Y-104356777D01*
X207571000Y-89374000D02*
X207947000Y-89750000D01*
X202750000Y-84250000D02*
X203128611Y-84250000D01*
X202550000Y-83500000D02*
X202550000Y-84049999D01*
X208649000Y-106645389D02*
X208900000Y-106896388D01*
X208900000Y-108695000D02*
X210125000Y-109920000D01*
X208298000Y-101962165D02*
X208298000Y-104005779D01*
X203479612Y-84601000D02*
X203861834Y-84601000D01*
X203861834Y-84601000D02*
X207571000Y-88310165D01*
X207947000Y-89750000D02*
X207947000Y-101611167D01*
X207947000Y-101611167D02*
X208298000Y-101962165D01*
X208649000Y-104356777D02*
X208649000Y-106645389D01*
X203128611Y-84250000D02*
X203479612Y-84601000D01*
X207571000Y-88310165D02*
X207571000Y-89374000D01*
X208900000Y-106896388D02*
X208900000Y-108695000D01*
X202550000Y-84049999D02*
X202750000Y-84250000D01*
%TO.N,IO21*%
X208549000Y-108840388D02*
X208900000Y-109191388D01*
X201700000Y-83950000D02*
X202250000Y-84500000D01*
X208298000Y-104502166D02*
X208298000Y-106790779D01*
X207014446Y-89514446D02*
X207596000Y-90096000D01*
X202604611Y-84601000D02*
X202983222Y-84601000D01*
X202250000Y-84500000D02*
X202503611Y-84500000D01*
X202503611Y-84500000D02*
X202604611Y-84601000D01*
X207947000Y-102107554D02*
X207947000Y-104151169D01*
X203334224Y-84952000D02*
X203716445Y-84952000D01*
X208298000Y-106790779D02*
X208549000Y-107041777D01*
X208900000Y-109191388D02*
X208900000Y-111200000D01*
X208900000Y-111200000D02*
X210125000Y-112425000D01*
X208549000Y-107041777D02*
X208549000Y-108840388D01*
X202983222Y-84601000D02*
X203334224Y-84952000D01*
X201700000Y-83500000D02*
X201700000Y-83950000D01*
X203716445Y-84952000D02*
X207014446Y-88250000D01*
X210125000Y-112425000D02*
X210125000Y-112460000D01*
X207596000Y-90096000D02*
X207596000Y-101756557D01*
X207947000Y-104151169D02*
X208298000Y-104502166D01*
X207014446Y-88250000D02*
X207014446Y-89514446D01*
X207596000Y-101756557D02*
X207947000Y-102107554D01*
%TO.N,IO45*%
X207000000Y-73950000D02*
X208450000Y-73950000D01*
X208750000Y-74250000D02*
X210015000Y-74250000D01*
X210015000Y-74250000D02*
X210125000Y-74360000D01*
X208450000Y-73950000D02*
X208750000Y-74250000D01*
%TO.N,IO46*%
X210055000Y-71750000D02*
X210125000Y-71820000D01*
X209000000Y-71750000D02*
X210055000Y-71750000D01*
X208650000Y-71400000D02*
X209000000Y-71750000D01*
X207000000Y-71400000D02*
X208650000Y-71400000D01*
%TO.N,IO38*%
X205900000Y-79400000D02*
X205900000Y-79250000D01*
X206400000Y-79900000D02*
X207000000Y-79900000D01*
X206400000Y-79900000D02*
X205900000Y-79400000D01*
%TO.N,IO47*%
X203625000Y-84250000D02*
X204007223Y-84250000D01*
X209000000Y-106500000D02*
X209880000Y-107380000D01*
X203400000Y-83500000D02*
X203400000Y-84025000D01*
X209000000Y-104211388D02*
X209000000Y-106500000D01*
X207922000Y-88164776D02*
X207922000Y-89020083D01*
X208298000Y-101465777D02*
X208649000Y-101816776D01*
X208298000Y-89396083D02*
X208298000Y-101465777D01*
X203400000Y-84025000D02*
X203625000Y-84250000D01*
X209880000Y-107380000D02*
X210125000Y-107380000D01*
X207922000Y-89020083D02*
X208298000Y-89396083D01*
X208649000Y-103860389D02*
X209000000Y-104211388D01*
X204007223Y-84250000D02*
X207922000Y-88164776D01*
X208649000Y-101816776D02*
X208649000Y-103860389D01*
%TD*%
%TA.AperFunction,Conductor*%
%TO.N,VSYS*%
G36*
X196353039Y-109320185D02*
G01*
X196398794Y-109372989D01*
X196410000Y-109424500D01*
X196410000Y-109976549D01*
X196390315Y-110043588D01*
X196337511Y-110089343D01*
X196274010Y-110098864D01*
X196273951Y-110099765D01*
X196269908Y-110099500D01*
X195850105Y-110099500D01*
X195834386Y-110101569D01*
X195800513Y-110106028D01*
X195800511Y-110106029D01*
X195800509Y-110106029D01*
X195691683Y-110156776D01*
X195606776Y-110241683D01*
X195566337Y-110328405D01*
X195520164Y-110380844D01*
X195453955Y-110400000D01*
X195090916Y-110400000D01*
X195081282Y-110399625D01*
X195079793Y-110399508D01*
X195079748Y-110399500D01*
X195079678Y-110399500D01*
X195074866Y-110399125D01*
X195074490Y-110398982D01*
X195073686Y-110398903D01*
X195073707Y-110398684D01*
X195046533Y-110388351D01*
X195017461Y-110379815D01*
X195014207Y-110376059D01*
X195009558Y-110374292D01*
X194991543Y-110349904D01*
X194971706Y-110327011D01*
X194970484Y-110321395D01*
X194968044Y-110318092D01*
X194967308Y-110306796D01*
X194960500Y-110275500D01*
X194960500Y-109424500D01*
X194980185Y-109357461D01*
X195032989Y-109311706D01*
X195084500Y-109300500D01*
X196286000Y-109300500D01*
X196353039Y-109320185D01*
G37*
%TD.AperFunction*%
%TD*%
%TA.AperFunction,Conductor*%
%TO.N,V_USB*%
G36*
X195664137Y-111919685D02*
G01*
X195684779Y-111936319D01*
X195691684Y-111943224D01*
X195800513Y-111993972D01*
X195850099Y-112000500D01*
X196269900Y-112000499D01*
X196269903Y-112000499D01*
X196273946Y-112000234D01*
X196274006Y-112001163D01*
X196338849Y-112011275D01*
X196391105Y-112057655D01*
X196410000Y-112123449D01*
X196410000Y-112776000D01*
X196390315Y-112843039D01*
X196337511Y-112888794D01*
X196286000Y-112900000D01*
X195636333Y-112900000D01*
X195569294Y-112880315D01*
X195548652Y-112863681D01*
X195344515Y-112659543D01*
X195344514Y-112659542D01*
X195344511Y-112659540D01*
X195333583Y-112653231D01*
X195275989Y-112619979D01*
X195199562Y-112599500D01*
X195199560Y-112599500D01*
X195084500Y-112599500D01*
X195017461Y-112579815D01*
X194971706Y-112527011D01*
X194960500Y-112475500D01*
X194960500Y-112024000D01*
X194980185Y-111956961D01*
X195032989Y-111911206D01*
X195084500Y-111900000D01*
X195597098Y-111900000D01*
X195664137Y-111919685D01*
G37*
%TD.AperFunction*%
%TD*%
%TA.AperFunction,Conductor*%
%TO.N,VBAT*%
G36*
X200914955Y-105068937D02*
G01*
X200997181Y-105097710D01*
X201012057Y-105099105D01*
X201026930Y-105100500D01*
X201026934Y-105100500D01*
X201473070Y-105100500D01*
X201486289Y-105099260D01*
X201502819Y-105097710D01*
X201585044Y-105068937D01*
X201654823Y-105065375D01*
X201715451Y-105100104D01*
X201747678Y-105162097D01*
X201750000Y-105185979D01*
X201750000Y-106547130D01*
X201730315Y-106614169D01*
X201677511Y-106659924D01*
X201626000Y-106671130D01*
X200484884Y-106671130D01*
X200443929Y-106664171D01*
X200412813Y-106653283D01*
X200352818Y-106632289D01*
X200352819Y-106632289D01*
X200323070Y-106629500D01*
X200323066Y-106629500D01*
X199876934Y-106629500D01*
X199876930Y-106629500D01*
X199847180Y-106632289D01*
X199847178Y-106632289D01*
X199756973Y-106663855D01*
X199687195Y-106667418D01*
X199628337Y-106634496D01*
X199562764Y-106568923D01*
X199459992Y-106523545D01*
X199434868Y-106520630D01*
X199434865Y-106520630D01*
X198874499Y-106520630D01*
X198807460Y-106500945D01*
X198761705Y-106448141D01*
X198750499Y-106396630D01*
X198750499Y-106045629D01*
X198770184Y-105978590D01*
X198822988Y-105932835D01*
X198874499Y-105921629D01*
X199434856Y-105921629D01*
X199434864Y-105921629D01*
X199434879Y-105921627D01*
X199434882Y-105921627D01*
X199459987Y-105918716D01*
X199459988Y-105918715D01*
X199459991Y-105918715D01*
X199562765Y-105873336D01*
X199599782Y-105836319D01*
X199661105Y-105802834D01*
X199687463Y-105800000D01*
X200750000Y-105800000D01*
X200750000Y-105185979D01*
X200769685Y-105118940D01*
X200822489Y-105073185D01*
X200891647Y-105063241D01*
X200914955Y-105068937D01*
G37*
%TD.AperFunction*%
%TD*%
%TA.AperFunction,Conductor*%
%TO.N,GND*%
G36*
X202545286Y-84876500D02*
G01*
X202549811Y-84876500D01*
X202659411Y-84876500D01*
X202817745Y-84876500D01*
X202884784Y-84896185D01*
X202905426Y-84912819D01*
X203178163Y-85185556D01*
X203178164Y-85185556D01*
X203178166Y-85185558D01*
X203228795Y-85206528D01*
X203279424Y-85227500D01*
X203550967Y-85227500D01*
X203618006Y-85247185D01*
X203638648Y-85263819D01*
X204425858Y-86051028D01*
X205951443Y-87576613D01*
X206702627Y-88327796D01*
X206736112Y-88389119D01*
X206738946Y-88415477D01*
X206738946Y-89569246D01*
X206778279Y-89664202D01*
X206778277Y-89664202D01*
X206778282Y-89664209D01*
X206780889Y-89670504D01*
X207284181Y-90173796D01*
X207317666Y-90235119D01*
X207320500Y-90261477D01*
X207320500Y-101811357D01*
X207336299Y-101849499D01*
X207362443Y-101912616D01*
X207612793Y-102162964D01*
X207635181Y-102185351D01*
X207668666Y-102246674D01*
X207671500Y-102273033D01*
X207671500Y-104205969D01*
X207694350Y-104261133D01*
X207713443Y-104307228D01*
X207958944Y-104552727D01*
X207986181Y-104579963D01*
X208019666Y-104641286D01*
X208022500Y-104667645D01*
X208022500Y-106845579D01*
X208032994Y-106870912D01*
X208043029Y-106895139D01*
X208043029Y-106895141D01*
X208062209Y-106941444D01*
X208064443Y-106946838D01*
X208237181Y-107119574D01*
X208270666Y-107180897D01*
X208273500Y-107207256D01*
X208273500Y-108895188D01*
X208299448Y-108957831D01*
X208315443Y-108996446D01*
X208315444Y-108996447D01*
X208588181Y-109269184D01*
X208621666Y-109330507D01*
X208624500Y-109356865D01*
X208624500Y-111254802D01*
X208638997Y-111289798D01*
X208638997Y-111289800D01*
X208638998Y-111289800D01*
X208666443Y-111356058D01*
X208666444Y-111356059D01*
X209221547Y-111911163D01*
X209255032Y-111972486D01*
X209250048Y-112042178D01*
X209248428Y-112046296D01*
X209234365Y-112080249D01*
X209197949Y-112168165D01*
X209197948Y-112168168D01*
X209197948Y-112168169D01*
X209197947Y-112168170D01*
X209159500Y-112361456D01*
X209159500Y-112361459D01*
X209159500Y-112558541D01*
X209159500Y-112558543D01*
X209159499Y-112558543D01*
X209197947Y-112751829D01*
X209197950Y-112751839D01*
X209273364Y-112933907D01*
X209273371Y-112933920D01*
X209382860Y-113097781D01*
X209382863Y-113097785D01*
X209522214Y-113237136D01*
X209522218Y-113237139D01*
X209686079Y-113346628D01*
X209686092Y-113346635D01*
X209813009Y-113399205D01*
X209868165Y-113422051D01*
X209951734Y-113438674D01*
X210049061Y-113458034D01*
X210110972Y-113490419D01*
X210145546Y-113551134D01*
X210141807Y-113620904D01*
X210100940Y-113677576D01*
X210044269Y-113702124D01*
X209855581Y-113732010D01*
X209660968Y-113795244D01*
X209478644Y-113888143D01*
X209434077Y-113920523D01*
X209434077Y-113920524D01*
X210113554Y-114600000D01*
X210107339Y-114600000D01*
X210005606Y-114627259D01*
X209914394Y-114679920D01*
X209839920Y-114754394D01*
X209787259Y-114845606D01*
X209760000Y-114947339D01*
X209760000Y-114953553D01*
X209080524Y-114274077D01*
X209080523Y-114274077D01*
X209048143Y-114318644D01*
X208955244Y-114500968D01*
X208892009Y-114695582D01*
X208860000Y-114897682D01*
X208860000Y-115102317D01*
X208892009Y-115304417D01*
X208956749Y-115503660D01*
X208955603Y-115504032D01*
X208962464Y-115567921D01*
X208931181Y-115630396D01*
X208871088Y-115666041D01*
X208840166Y-115669889D01*
X206772358Y-115665363D01*
X206705361Y-115645531D01*
X206659722Y-115592627D01*
X206650270Y-115525849D01*
X206649903Y-115525813D01*
X206650051Y-115524305D01*
X206649930Y-115523447D01*
X206650410Y-115520664D01*
X206650500Y-115519750D01*
X206650500Y-112080249D01*
X206650499Y-112080247D01*
X206638868Y-112021770D01*
X206638867Y-112021769D01*
X206594552Y-111955447D01*
X206528230Y-111911132D01*
X206528229Y-111911131D01*
X206469752Y-111899500D01*
X206469748Y-111899500D01*
X204830252Y-111899500D01*
X204830247Y-111899500D01*
X204771770Y-111911131D01*
X204771769Y-111911132D01*
X204705447Y-111955447D01*
X204661132Y-112021769D01*
X204661131Y-112021770D01*
X204649500Y-112080247D01*
X204649500Y-115519752D01*
X204649948Y-115524305D01*
X204636923Y-115592950D01*
X204588854Y-115643656D01*
X204526273Y-115660449D01*
X199974165Y-115650489D01*
X199907168Y-115630658D01*
X199861529Y-115577754D01*
X199852941Y-115525840D01*
X199850500Y-115525840D01*
X199850500Y-112080249D01*
X199850499Y-112080247D01*
X199838868Y-112021770D01*
X199838867Y-112021769D01*
X199794552Y-111955447D01*
X199728230Y-111911132D01*
X199728229Y-111911131D01*
X199669752Y-111899500D01*
X199669748Y-111899500D01*
X198030252Y-111899500D01*
X198030247Y-111899500D01*
X197971770Y-111911131D01*
X197971769Y-111911132D01*
X197905447Y-111955447D01*
X197861132Y-112021769D01*
X197861131Y-112021770D01*
X197849500Y-112080247D01*
X197849500Y-112624064D01*
X197829815Y-112691103D01*
X197777011Y-112736858D01*
X197707853Y-112746802D01*
X197644297Y-112717777D01*
X197630664Y-112703953D01*
X197623597Y-112695564D01*
X197600460Y-112655489D01*
X197544511Y-112599540D01*
X197533068Y-112588097D01*
X197529664Y-112584056D01*
X197517638Y-112556721D01*
X197503334Y-112530525D01*
X197502434Y-112522163D01*
X197501528Y-112520102D01*
X197501935Y-112517521D01*
X197500500Y-112504167D01*
X197500500Y-112414110D01*
X197500500Y-112414108D01*
X197466392Y-112286814D01*
X197400500Y-112172686D01*
X197307314Y-112079500D01*
X197242671Y-112042178D01*
X197193187Y-112013608D01*
X197121866Y-111994498D01*
X197065892Y-111979500D01*
X196968792Y-111979500D01*
X196901753Y-111959815D01*
X196855998Y-111907011D01*
X196846054Y-111837853D01*
X196849715Y-111820906D01*
X196864504Y-111770000D01*
X196184000Y-111770000D01*
X196116961Y-111750315D01*
X196071206Y-111697511D01*
X196060000Y-111646000D01*
X196060000Y-111520000D01*
X195934000Y-111520000D01*
X195866961Y-111500315D01*
X195821206Y-111447511D01*
X195810000Y-111396000D01*
X195810000Y-111270000D01*
X196310000Y-111270000D01*
X196864504Y-111270000D01*
X196822031Y-111123804D01*
X196815715Y-111113125D01*
X196798530Y-111045402D01*
X196815715Y-110986875D01*
X196822031Y-110976195D01*
X196864504Y-110830000D01*
X196310000Y-110830000D01*
X196310000Y-111270000D01*
X195810000Y-111270000D01*
X195810000Y-110704000D01*
X195829685Y-110636961D01*
X195882489Y-110591206D01*
X195934000Y-110580000D01*
X196060000Y-110580000D01*
X196060000Y-110454000D01*
X196079685Y-110386961D01*
X196132489Y-110341206D01*
X196184000Y-110330000D01*
X196864504Y-110330000D01*
X196843462Y-110257571D01*
X196843662Y-110187702D01*
X196881605Y-110129032D01*
X196930444Y-110103203D01*
X196993186Y-110086392D01*
X197107314Y-110020500D01*
X197200500Y-109927314D01*
X197266392Y-109813186D01*
X197300500Y-109685892D01*
X197300500Y-109554108D01*
X197274371Y-109456592D01*
X197276034Y-109386743D01*
X197315197Y-109328881D01*
X197379425Y-109301377D01*
X197394146Y-109300500D01*
X200052725Y-109300500D01*
X200052727Y-109300500D01*
X200154587Y-109273207D01*
X200245913Y-109220480D01*
X200319574Y-109146819D01*
X200346501Y-109132115D01*
X200372320Y-109115523D01*
X200378520Y-109114631D01*
X200380897Y-109113334D01*
X200407255Y-109110500D01*
X200425500Y-109110500D01*
X200492539Y-109130185D01*
X200538294Y-109182989D01*
X200549500Y-109234500D01*
X200549500Y-110919752D01*
X200561131Y-110978229D01*
X200561132Y-110978230D01*
X200605447Y-111044552D01*
X200671769Y-111088867D01*
X200671770Y-111088868D01*
X200730247Y-111100499D01*
X200730250Y-111100500D01*
X200730252Y-111100500D01*
X201769750Y-111100500D01*
X201769751Y-111100499D01*
X201784568Y-111097552D01*
X201828229Y-111088868D01*
X201828229Y-111088867D01*
X201828231Y-111088867D01*
X201894552Y-111044552D01*
X201938867Y-110978231D01*
X201938867Y-110978229D01*
X201938868Y-110978229D01*
X201944912Y-110947844D01*
X202250000Y-110947844D01*
X202256401Y-111007372D01*
X202256403Y-111007379D01*
X202306645Y-111142086D01*
X202306649Y-111142093D01*
X202392809Y-111257187D01*
X202392812Y-111257190D01*
X202507906Y-111343350D01*
X202507913Y-111343354D01*
X202642620Y-111393596D01*
X202642627Y-111393598D01*
X202702155Y-111399999D01*
X202702172Y-111400000D01*
X203000000Y-111400000D01*
X203500000Y-111400000D01*
X203797828Y-111400000D01*
X203797844Y-111399999D01*
X203857372Y-111393598D01*
X203857379Y-111393596D01*
X203992086Y-111343354D01*
X203992093Y-111343350D01*
X204107187Y-111257190D01*
X204107190Y-111257187D01*
X204193350Y-111142093D01*
X204193354Y-111142086D01*
X204243596Y-111007379D01*
X204243598Y-111007372D01*
X204249999Y-110947844D01*
X204250000Y-110947827D01*
X204250000Y-108850000D01*
X203500000Y-108850000D01*
X203500000Y-111400000D01*
X203000000Y-111400000D01*
X203000000Y-108850000D01*
X202250000Y-108850000D01*
X202250000Y-110947844D01*
X201944912Y-110947844D01*
X201950499Y-110919752D01*
X201950500Y-110919750D01*
X201950500Y-106870912D01*
X201968858Y-106808389D01*
X201968533Y-106808224D01*
X201969419Y-106806481D01*
X201970185Y-106803873D01*
X201972479Y-106800462D01*
X201977749Y-106790099D01*
X202015468Y-106715916D01*
X202063399Y-106665081D01*
X202131206Y-106648228D01*
X202197360Y-106670710D01*
X202240858Y-106725389D01*
X202250000Y-106772119D01*
X202250000Y-108350000D01*
X203000000Y-108350000D01*
X203000000Y-105800000D01*
X202702155Y-105800000D01*
X202642627Y-105806401D01*
X202642620Y-105806403D01*
X202507913Y-105856645D01*
X202507906Y-105856649D01*
X202392812Y-105942809D01*
X202392809Y-105942812D01*
X202306649Y-106057906D01*
X202306646Y-106057911D01*
X202295682Y-106087309D01*
X202253810Y-106143242D01*
X202188346Y-106167659D01*
X202120073Y-106152807D01*
X202070668Y-106103402D01*
X202055500Y-106043975D01*
X202055500Y-105185971D01*
X202054068Y-105156439D01*
X202054067Y-105156436D01*
X202054066Y-105156415D01*
X202051744Y-105132533D01*
X202051338Y-105128620D01*
X202018739Y-105021186D01*
X202017486Y-105018776D01*
X202017235Y-105017497D01*
X202016575Y-105015877D01*
X202016891Y-105015747D01*
X202004026Y-104950218D01*
X202010741Y-104923945D01*
X202009855Y-104923688D01*
X202054504Y-104770000D01*
X201711520Y-104770000D01*
X201639248Y-104760272D01*
X201569469Y-104763834D01*
X201538054Y-104770000D01*
X200993530Y-104770000D01*
X200964576Y-104766512D01*
X200964563Y-104766567D01*
X200960340Y-104765564D01*
X200937904Y-104764621D01*
X200848167Y-104760851D01*
X200848166Y-104760851D01*
X200848163Y-104760851D01*
X200793315Y-104768738D01*
X200775667Y-104770000D01*
X200445496Y-104770000D01*
X200490145Y-104923687D01*
X200488165Y-104924262D01*
X200495409Y-104982958D01*
X200483582Y-105019060D01*
X200476560Y-105032869D01*
X200456877Y-105099900D01*
X200456876Y-105099907D01*
X200446337Y-105173207D01*
X200444500Y-105185981D01*
X200444500Y-105370500D01*
X200424815Y-105437539D01*
X200372011Y-105483294D01*
X200320500Y-105494500D01*
X200014000Y-105494500D01*
X199946961Y-105474815D01*
X199901206Y-105422011D01*
X199890000Y-105370500D01*
X199890000Y-105273302D01*
X199889999Y-105273285D01*
X199883598Y-105213757D01*
X199883596Y-105213750D01*
X199833354Y-105079043D01*
X199833350Y-105079036D01*
X199747190Y-104963942D01*
X199747187Y-104963939D01*
X199632093Y-104877779D01*
X199632086Y-104877775D01*
X199497379Y-104827533D01*
X199497372Y-104827531D01*
X199437844Y-104821130D01*
X199190000Y-104821130D01*
X199190000Y-105321130D01*
X199419996Y-105321130D01*
X199453018Y-105330826D01*
X199486250Y-105340314D01*
X199486570Y-105340678D01*
X199487035Y-105340815D01*
X199509584Y-105366838D01*
X199532400Y-105392773D01*
X199532472Y-105393252D01*
X199532790Y-105393619D01*
X199537698Y-105427756D01*
X199542863Y-105461855D01*
X199542665Y-105462297D01*
X199542734Y-105462777D01*
X199528404Y-105494154D01*
X199514316Y-105525627D01*
X199513863Y-105525994D01*
X199513709Y-105526333D01*
X199487817Y-105548939D01*
X199483715Y-105551618D01*
X199453371Y-105568188D01*
X199419196Y-105593770D01*
X199415879Y-105595938D01*
X199386072Y-105604933D01*
X199356903Y-105615813D01*
X199349102Y-105616091D01*
X199348989Y-105616126D01*
X199348894Y-105616099D01*
X199348058Y-105616129D01*
X199014000Y-105616129D01*
X198946961Y-105596444D01*
X198901206Y-105543640D01*
X198890000Y-105492129D01*
X198890000Y-104821130D01*
X198642155Y-104821130D01*
X198582627Y-104827531D01*
X198582620Y-104827533D01*
X198447913Y-104877775D01*
X198447906Y-104877779D01*
X198332814Y-104963938D01*
X198332805Y-104963947D01*
X198300000Y-105007768D01*
X198300000Y-105971130D01*
X198320999Y-105971130D01*
X198388038Y-105990815D01*
X198433793Y-106043619D01*
X198444999Y-106095130D01*
X198444999Y-106347130D01*
X198425314Y-106414169D01*
X198372510Y-106459924D01*
X198320999Y-106471130D01*
X198300000Y-106471130D01*
X198300000Y-107434490D01*
X198332811Y-107478318D01*
X198332813Y-107478320D01*
X198447911Y-107564482D01*
X198447913Y-107564484D01*
X198582620Y-107614726D01*
X198582627Y-107614728D01*
X198642155Y-107621129D01*
X198642172Y-107621130D01*
X198890000Y-107621130D01*
X198890000Y-106950130D01*
X198892550Y-106941444D01*
X198891262Y-106932483D01*
X198902240Y-106908442D01*
X198909685Y-106883091D01*
X198916525Y-106877163D01*
X198920287Y-106868927D01*
X198942521Y-106854637D01*
X198962489Y-106837336D01*
X198973003Y-106835048D01*
X198979065Y-106831153D01*
X199014000Y-106826130D01*
X199066000Y-106826130D01*
X199133039Y-106845815D01*
X199178794Y-106898619D01*
X199190000Y-106950130D01*
X199190000Y-107621130D01*
X199276073Y-107621130D01*
X199343112Y-107640815D01*
X199382805Y-107682009D01*
X199420279Y-107745375D01*
X199420285Y-107745383D01*
X199534616Y-107859714D01*
X199534625Y-107859721D01*
X199673804Y-107942031D01*
X199829089Y-107987145D01*
X199850000Y-107988789D01*
X199850000Y-107334000D01*
X199869685Y-107266961D01*
X199922489Y-107221206D01*
X199974000Y-107210000D01*
X200226000Y-107210000D01*
X200293039Y-107229685D01*
X200338794Y-107282489D01*
X200350000Y-107334000D01*
X200350000Y-107988789D01*
X200370908Y-107987145D01*
X200390905Y-107981336D01*
X200460775Y-107981536D01*
X200519445Y-108019478D01*
X200548288Y-108083117D01*
X200549500Y-108100413D01*
X200549500Y-108185500D01*
X200529815Y-108252539D01*
X200477011Y-108298294D01*
X200425500Y-108309500D01*
X200047273Y-108309500D01*
X199945413Y-108336793D01*
X199945410Y-108336794D01*
X199869710Y-108380500D01*
X199854090Y-108389518D01*
X199854084Y-108389522D01*
X199780426Y-108463181D01*
X199719103Y-108496666D01*
X199692745Y-108499500D01*
X197399505Y-108499500D01*
X197332466Y-108479815D01*
X197286711Y-108427011D01*
X197276767Y-108357853D01*
X197279730Y-108343407D01*
X197288815Y-108309500D01*
X197300500Y-108265892D01*
X197300500Y-108134108D01*
X197266392Y-108006814D01*
X197263008Y-108000952D01*
X197255307Y-107987613D01*
X197238834Y-107919713D01*
X197261687Y-107853686D01*
X197300691Y-107818228D01*
X197329596Y-107801540D01*
X197413472Y-107717664D01*
X197472782Y-107614937D01*
X197502766Y-107503034D01*
X197539130Y-107443376D01*
X197601977Y-107412847D01*
X197622540Y-107411130D01*
X197800000Y-107411130D01*
X197800000Y-105031130D01*
X197602155Y-105031130D01*
X197542627Y-105037531D01*
X197542620Y-105037533D01*
X197502831Y-105052373D01*
X197433139Y-105057356D01*
X197371817Y-105023869D01*
X197338333Y-104962546D01*
X197335500Y-104936190D01*
X197335500Y-104255201D01*
X197335499Y-104255198D01*
X197312933Y-104200718D01*
X197293558Y-104153942D01*
X196811819Y-103672203D01*
X196778334Y-103610880D01*
X196775500Y-103584522D01*
X196775500Y-102680247D01*
X199135500Y-102680247D01*
X199135500Y-103919752D01*
X199147131Y-103978229D01*
X199147132Y-103978230D01*
X199191447Y-104044552D01*
X199257769Y-104088867D01*
X199257770Y-104088868D01*
X199316247Y-104100499D01*
X199316250Y-104100500D01*
X200329587Y-104100500D01*
X200396626Y-104120185D01*
X200442381Y-104172989D01*
X200452325Y-104242147D01*
X200448664Y-104259094D01*
X200445496Y-104270000D01*
X202054504Y-104270000D01*
X202012031Y-104123804D01*
X201929721Y-103984625D01*
X201929714Y-103984616D01*
X201815383Y-103870285D01*
X201815374Y-103870278D01*
X201676194Y-103787967D01*
X201625906Y-103773358D01*
X201567020Y-103735751D01*
X201537813Y-103672279D01*
X201536500Y-103654281D01*
X201536500Y-102835807D01*
X201556185Y-102768768D01*
X201608989Y-102723013D01*
X201678147Y-102713069D01*
X201734814Y-102736542D01*
X201743913Y-102743354D01*
X201878620Y-102793596D01*
X201878627Y-102793598D01*
X201938155Y-102799999D01*
X201938172Y-102800000D01*
X202511000Y-102800000D01*
X202511000Y-102250000D01*
X201486000Y-102250000D01*
X201486000Y-102347844D01*
X201487575Y-102362484D01*
X201475171Y-102431243D01*
X201427561Y-102482381D01*
X201361840Y-102499156D01*
X201361840Y-102499500D01*
X201360493Y-102499500D01*
X201359862Y-102499661D01*
X201357455Y-102499500D01*
X201355748Y-102499500D01*
X199316252Y-102499500D01*
X199316247Y-102499500D01*
X199257770Y-102511131D01*
X199257769Y-102511132D01*
X199191447Y-102555447D01*
X199147132Y-102621769D01*
X199147131Y-102621770D01*
X199135500Y-102680247D01*
X196775500Y-102680247D01*
X196775500Y-102162964D01*
X196795185Y-102095925D01*
X196811819Y-102075283D01*
X196829789Y-102057313D01*
X196860489Y-102026613D01*
X196919799Y-101923886D01*
X196950500Y-101809309D01*
X196950500Y-101690691D01*
X196919799Y-101576114D01*
X196860489Y-101473387D01*
X196776613Y-101389511D01*
X196673886Y-101330201D01*
X196559309Y-101299500D01*
X196440691Y-101299500D01*
X196326114Y-101330201D01*
X196326112Y-101330201D01*
X196326112Y-101330202D01*
X196223387Y-101389511D01*
X196223384Y-101389513D01*
X196139513Y-101473384D01*
X196139511Y-101473387D01*
X196089789Y-101559508D01*
X196080201Y-101576114D01*
X196049500Y-101690691D01*
X196049500Y-101809309D01*
X196080201Y-101923886D01*
X196139511Y-102026613D01*
X196139513Y-102026615D01*
X196188181Y-102075283D01*
X196221666Y-102136606D01*
X196224500Y-102162964D01*
X196224500Y-103804800D01*
X196253856Y-103875670D01*
X196256708Y-103882555D01*
X196266442Y-103906057D01*
X196748181Y-104387796D01*
X196781666Y-104449119D01*
X196784500Y-104475477D01*
X196784500Y-105000118D01*
X196764815Y-105067157D01*
X196712011Y-105112912D01*
X196684692Y-105121735D01*
X196631770Y-105132262D01*
X196631769Y-105132262D01*
X196565447Y-105176577D01*
X196521132Y-105242899D01*
X196521131Y-105242900D01*
X196508311Y-105307356D01*
X196505635Y-105306823D01*
X196499433Y-105322158D01*
X196491827Y-105349382D01*
X196485742Y-105356003D01*
X196483835Y-105360720D01*
X196469067Y-105376357D01*
X196307908Y-105519756D01*
X196287173Y-105529556D01*
X196268813Y-105543301D01*
X196251479Y-105546428D01*
X196244740Y-105549614D01*
X196238401Y-105548787D01*
X196225480Y-105551119D01*
X196200689Y-105551119D01*
X196086112Y-105581820D01*
X196086110Y-105581820D01*
X196086110Y-105581821D01*
X195983385Y-105641130D01*
X195983382Y-105641132D01*
X195899511Y-105725003D01*
X195899509Y-105725006D01*
X195843723Y-105821630D01*
X195840199Y-105827733D01*
X195809498Y-105942310D01*
X195809498Y-106060928D01*
X195840199Y-106175505D01*
X195899509Y-106278232D01*
X195983385Y-106362108D01*
X195983388Y-106362110D01*
X195987383Y-106365175D01*
X196018980Y-106406352D01*
X196019656Y-106405901D01*
X196026442Y-106416057D01*
X196315072Y-106704688D01*
X196315074Y-106704690D01*
X196427613Y-106751304D01*
X196426461Y-106754084D01*
X196471586Y-106777678D01*
X196506171Y-106838388D01*
X196509500Y-106866926D01*
X196509500Y-107140882D01*
X196521131Y-107199359D01*
X196521132Y-107199360D01*
X196565445Y-107265678D01*
X196565448Y-107265682D01*
X196565451Y-107265684D01*
X196568557Y-107268790D01*
X196602044Y-107330112D01*
X196601023Y-107373354D01*
X196603544Y-107373686D01*
X196602483Y-107381740D01*
X196602483Y-107381742D01*
X196602483Y-107500360D01*
X196603451Y-107503972D01*
X196632562Y-107612617D01*
X196631899Y-107640452D01*
X196634547Y-107668174D01*
X196631079Y-107674901D01*
X196630899Y-107682467D01*
X196615291Y-107705526D01*
X196602532Y-107730278D01*
X196593994Y-107736992D01*
X196591736Y-107740329D01*
X196574793Y-107752093D01*
X196574789Y-107752096D01*
X196521462Y-107782886D01*
X196459460Y-107799500D01*
X195944331Y-107799500D01*
X195877292Y-107779815D01*
X195831537Y-107727011D01*
X195821593Y-107657853D01*
X195850618Y-107594297D01*
X195856650Y-107587819D01*
X195885492Y-107558977D01*
X195924065Y-107520404D01*
X195974068Y-107413173D01*
X195980500Y-107364316D01*
X195980500Y-107015684D01*
X195974068Y-106966827D01*
X195924065Y-106859596D01*
X195840404Y-106775935D01*
X195733173Y-106725932D01*
X195733171Y-106725931D01*
X195733172Y-106725931D01*
X195684317Y-106719500D01*
X195684316Y-106719500D01*
X195235684Y-106719500D01*
X195235683Y-106719500D01*
X195186828Y-106725931D01*
X195079595Y-106775935D01*
X195044019Y-106811511D01*
X194982696Y-106844996D01*
X194913004Y-106840010D01*
X194868658Y-106811510D01*
X194837513Y-106780365D01*
X194733171Y-106729355D01*
X194723506Y-106727947D01*
X194665528Y-106719500D01*
X194255049Y-106719500D01*
X194188010Y-106699815D01*
X194157051Y-106667682D01*
X194155516Y-106668874D01*
X194150731Y-106662705D01*
X194037294Y-106549268D01*
X194037285Y-106549261D01*
X193899191Y-106467593D01*
X193899188Y-106467592D01*
X193745130Y-106422834D01*
X193710000Y-106420068D01*
X193710000Y-107066000D01*
X193690315Y-107133039D01*
X193637511Y-107178794D01*
X193586000Y-107190000D01*
X193460000Y-107190000D01*
X193460000Y-107316000D01*
X193440315Y-107383039D01*
X193387511Y-107428794D01*
X193336000Y-107440000D01*
X192647156Y-107440000D01*
X192687595Y-107579194D01*
X192769261Y-107717285D01*
X192769268Y-107717294D01*
X192882705Y-107830731D01*
X192882711Y-107830736D01*
X192892575Y-107836569D01*
X192940260Y-107887637D01*
X192952766Y-107956379D01*
X192948505Y-107977994D01*
X192945932Y-107986822D01*
X192939500Y-108035683D01*
X192939500Y-108384316D01*
X192945931Y-108433171D01*
X192945932Y-108433173D01*
X192995935Y-108540404D01*
X193079596Y-108624065D01*
X193087904Y-108627939D01*
X193140343Y-108674110D01*
X193159500Y-108740321D01*
X193159500Y-109049562D01*
X193160310Y-109052585D01*
X193160246Y-109055233D01*
X193160561Y-109057619D01*
X193160188Y-109057668D01*
X193158645Y-109122435D01*
X193119481Y-109180296D01*
X193114846Y-109183941D01*
X193002809Y-109267812D01*
X192916649Y-109382906D01*
X192916645Y-109382913D01*
X192866403Y-109517620D01*
X192866401Y-109517627D01*
X192860000Y-109577155D01*
X192860000Y-110422844D01*
X192866401Y-110482372D01*
X192866403Y-110482379D01*
X192916645Y-110617086D01*
X192916647Y-110617088D01*
X192935267Y-110641962D01*
X192959684Y-110707426D01*
X192960000Y-110716273D01*
X192960000Y-110850000D01*
X194136000Y-110850000D01*
X194203039Y-110869685D01*
X194248794Y-110922489D01*
X194260000Y-110974000D01*
X194260000Y-111226000D01*
X194240315Y-111293039D01*
X194187511Y-111338794D01*
X194136000Y-111350000D01*
X192960000Y-111350000D01*
X192960000Y-111647844D01*
X192966401Y-111707372D01*
X192966403Y-111707379D01*
X193016645Y-111842086D01*
X193016647Y-111842088D01*
X193102809Y-111957186D01*
X193102811Y-111957188D01*
X193109809Y-111962427D01*
X193151681Y-112018359D01*
X193159500Y-112061695D01*
X193159500Y-112524167D01*
X193139815Y-112591206D01*
X193123181Y-112611848D01*
X193119541Y-112615487D01*
X193119535Y-112615495D01*
X193079982Y-112684004D01*
X193079979Y-112684009D01*
X193059500Y-112760439D01*
X193059500Y-113359677D01*
X193039815Y-113426716D01*
X192987911Y-113472056D01*
X192979598Y-113475932D01*
X192895935Y-113559595D01*
X192845931Y-113666828D01*
X192839500Y-113715683D01*
X192839500Y-114064316D01*
X192845931Y-114113173D01*
X192848505Y-114122003D01*
X192848363Y-114191873D01*
X192810469Y-114250574D01*
X192792582Y-114263426D01*
X192782708Y-114269265D01*
X192782708Y-114269266D01*
X192669268Y-114382705D01*
X192669261Y-114382714D01*
X192587595Y-114520805D01*
X192547156Y-114660000D01*
X195236000Y-114660000D01*
X195303039Y-114679685D01*
X195348794Y-114732489D01*
X195360000Y-114784000D01*
X195360000Y-115036000D01*
X195340315Y-115103039D01*
X195287511Y-115148794D01*
X195236000Y-115160000D01*
X192547156Y-115160000D01*
X192587595Y-115299194D01*
X192673235Y-115444004D01*
X192671218Y-115445196D01*
X192692469Y-115499324D01*
X192678787Y-115567841D01*
X192630234Y-115618085D01*
X192568683Y-115634285D01*
X190847072Y-115630517D01*
X190780075Y-115610685D01*
X190734436Y-115557781D01*
X190724644Y-115488601D01*
X190732779Y-115459071D01*
X190802051Y-115291835D01*
X190814632Y-115228582D01*
X190840500Y-115098543D01*
X190840500Y-114901456D01*
X190802052Y-114708170D01*
X190802051Y-114708169D01*
X190802051Y-114708165D01*
X190782101Y-114660000D01*
X190726635Y-114526092D01*
X190726628Y-114526079D01*
X190617139Y-114362218D01*
X190617136Y-114362214D01*
X190477785Y-114222863D01*
X190477781Y-114222860D01*
X190313920Y-114113371D01*
X190313907Y-114113364D01*
X190131839Y-114037950D01*
X190131829Y-114037947D01*
X189940308Y-113999851D01*
X189878397Y-113967466D01*
X189843823Y-113906750D01*
X189840500Y-113878234D01*
X189840500Y-113581765D01*
X189860185Y-113514726D01*
X189912989Y-113468971D01*
X189940306Y-113460148D01*
X190131835Y-113422051D01*
X190313914Y-113346632D01*
X190477782Y-113237139D01*
X190617139Y-113097782D01*
X190726632Y-112933914D01*
X190726944Y-112933162D01*
X190798487Y-112760439D01*
X190802051Y-112751835D01*
X190829173Y-112615487D01*
X190840500Y-112558543D01*
X190840500Y-112361456D01*
X190802052Y-112168170D01*
X190802051Y-112168169D01*
X190802051Y-112168165D01*
X190761821Y-112071042D01*
X190754353Y-112001576D01*
X190785628Y-111939096D01*
X190788668Y-111935945D01*
X191333558Y-111391058D01*
X191333558Y-111391056D01*
X191333560Y-111391055D01*
X191374158Y-111293039D01*
X191375500Y-111289800D01*
X191375500Y-111180200D01*
X191375500Y-109361865D01*
X191395185Y-109294826D01*
X191411819Y-109274184D01*
X191543142Y-109142861D01*
X191684557Y-109001446D01*
X191695304Y-108975500D01*
X191726500Y-108900188D01*
X191726500Y-106940000D01*
X192647156Y-106940000D01*
X193210000Y-106940000D01*
X193210000Y-106420068D01*
X193209999Y-106420068D01*
X193174869Y-106422834D01*
X193174868Y-106422834D01*
X193020811Y-106467592D01*
X193020808Y-106467593D01*
X192882714Y-106549261D01*
X192882705Y-106549268D01*
X192769268Y-106662705D01*
X192769261Y-106662714D01*
X192687595Y-106800805D01*
X192647156Y-106940000D01*
X191726500Y-106940000D01*
X191726500Y-106867823D01*
X191727501Y-106857662D01*
X191727501Y-106716314D01*
X191727500Y-106716308D01*
X191727500Y-106608865D01*
X191747185Y-106541826D01*
X191763819Y-106521184D01*
X191964526Y-106320477D01*
X192237557Y-106047447D01*
X192246648Y-106025499D01*
X192279500Y-105946189D01*
X192279500Y-102456253D01*
X192299185Y-102389214D01*
X192315819Y-102368572D01*
X192437717Y-102246674D01*
X192637557Y-102046835D01*
X192645933Y-102026613D01*
X192653574Y-102008167D01*
X192668760Y-101971501D01*
X192679500Y-101945576D01*
X192679500Y-101112500D01*
X193328710Y-101112500D01*
X193330354Y-101133410D01*
X193375468Y-101288695D01*
X193457778Y-101427874D01*
X193457785Y-101427883D01*
X193572116Y-101542214D01*
X193572125Y-101542221D01*
X193711304Y-101624531D01*
X193857500Y-101667004D01*
X193857500Y-101112500D01*
X193328710Y-101112500D01*
X192679500Y-101112500D01*
X192679500Y-100004254D01*
X192699185Y-99937215D01*
X192715814Y-99916577D01*
X192988557Y-99643836D01*
X193021926Y-99563276D01*
X193030500Y-99542577D01*
X193030500Y-97137676D01*
X193050185Y-97070637D01*
X193102989Y-97024882D01*
X193172147Y-97014938D01*
X193235703Y-97043963D01*
X193242181Y-97049995D01*
X193292686Y-97100500D01*
X193406814Y-97166392D01*
X193534108Y-97200500D01*
X193534110Y-97200500D01*
X193665890Y-97200500D01*
X193665892Y-97200500D01*
X193793186Y-97166392D01*
X193907314Y-97100500D01*
X194000500Y-97007314D01*
X194015679Y-96981022D01*
X194020072Y-96976833D01*
X194022058Y-96971097D01*
X194045064Y-96953003D01*
X194066246Y-96932808D01*
X194072206Y-96931659D01*
X194076979Y-96927906D01*
X194106110Y-96925124D01*
X194134853Y-96919584D01*
X194140490Y-96921840D01*
X194146532Y-96921264D01*
X194172540Y-96934671D01*
X194199718Y-96945552D01*
X194204620Y-96951209D01*
X194208635Y-96953279D01*
X194230451Y-96981020D01*
X194257887Y-97028540D01*
X194274500Y-97090539D01*
X194274500Y-97288000D01*
X194254815Y-97355039D01*
X194202011Y-97400794D01*
X194150500Y-97412000D01*
X193980247Y-97412000D01*
X193921770Y-97423631D01*
X193921769Y-97423632D01*
X193855447Y-97467947D01*
X193811132Y-97534269D01*
X193811131Y-97534270D01*
X193799500Y-97592747D01*
X193799500Y-98532252D01*
X193811131Y-98590729D01*
X193811132Y-98590730D01*
X193855447Y-98657052D01*
X193921769Y-98701367D01*
X193921770Y-98701368D01*
X193980247Y-98712999D01*
X193980250Y-98713000D01*
X193980252Y-98713000D01*
X195019750Y-98713000D01*
X195019751Y-98712999D01*
X195035363Y-98709894D01*
X195078229Y-98701368D01*
X195078229Y-98701367D01*
X195078231Y-98701367D01*
X195144552Y-98657052D01*
X195188867Y-98590731D01*
X195190765Y-98581186D01*
X195194422Y-98562808D01*
X195226807Y-98500897D01*
X195287523Y-98466323D01*
X195316039Y-98463000D01*
X196185500Y-98463000D01*
X196252539Y-98482685D01*
X196298294Y-98535489D01*
X196309500Y-98586999D01*
X196309500Y-98709894D01*
X196309501Y-98709900D01*
X196316028Y-98759487D01*
X196316029Y-98759489D01*
X196316029Y-98759490D01*
X196349747Y-98831798D01*
X196366776Y-98868316D01*
X196411744Y-98913284D01*
X196436779Y-98938319D01*
X196470263Y-98999643D01*
X196465278Y-99069334D01*
X196423407Y-99125268D01*
X196357942Y-99149684D01*
X196349097Y-99150000D01*
X195952155Y-99150000D01*
X195892627Y-99156401D01*
X195892620Y-99156403D01*
X195757913Y-99206645D01*
X195757906Y-99206649D01*
X195642812Y-99292809D01*
X195642809Y-99292812D01*
X195556649Y-99407906D01*
X195556645Y-99407914D01*
X195543018Y-99444448D01*
X195524263Y-99469500D01*
X195501147Y-99500379D01*
X195501146Y-99500379D01*
X195501145Y-99500381D01*
X195460098Y-99515689D01*
X195435683Y-99524796D01*
X195435681Y-99524795D01*
X195435681Y-99524796D01*
X195405656Y-99518264D01*
X195367410Y-99509944D01*
X195367408Y-99509943D01*
X195339156Y-99488793D01*
X195236819Y-99386456D01*
X195203334Y-99325133D01*
X195200500Y-99298775D01*
X195200500Y-99192749D01*
X195200499Y-99192747D01*
X195188868Y-99134270D01*
X195188867Y-99134269D01*
X195144552Y-99067947D01*
X195078230Y-99023632D01*
X195078229Y-99023631D01*
X195019752Y-99012000D01*
X195019748Y-99012000D01*
X193980252Y-99012000D01*
X193980247Y-99012000D01*
X193921770Y-99023631D01*
X193921769Y-99023632D01*
X193855447Y-99067947D01*
X193811132Y-99134269D01*
X193811131Y-99134270D01*
X193799500Y-99192747D01*
X193799500Y-99981742D01*
X193779815Y-100048781D01*
X193727011Y-100094536D01*
X193712896Y-100099779D01*
X193711306Y-100100467D01*
X193572125Y-100182778D01*
X193572116Y-100182785D01*
X193457785Y-100297116D01*
X193457778Y-100297125D01*
X193375468Y-100436304D01*
X193375466Y-100436309D01*
X193330355Y-100591581D01*
X193330354Y-100591587D01*
X193328709Y-100612499D01*
X193328710Y-100612500D01*
X193983500Y-100612500D01*
X194050539Y-100632185D01*
X194096294Y-100684989D01*
X194107500Y-100736500D01*
X194107500Y-100862500D01*
X194233500Y-100862500D01*
X194300539Y-100882185D01*
X194346294Y-100934989D01*
X194357500Y-100986500D01*
X194357500Y-101667003D01*
X194408406Y-101652215D01*
X194478275Y-101652415D01*
X194536945Y-101690358D01*
X194565788Y-101753996D01*
X194567000Y-101771292D01*
X194567000Y-101815892D01*
X194573568Y-101840403D01*
X194601108Y-101943187D01*
X194620531Y-101976828D01*
X194667000Y-102057314D01*
X194760186Y-102150500D01*
X194874314Y-102216392D01*
X195001608Y-102250500D01*
X195001610Y-102250500D01*
X195133390Y-102250500D01*
X195133392Y-102250500D01*
X195260686Y-102216392D01*
X195374814Y-102150500D01*
X195468000Y-102057314D01*
X195533892Y-101943186D01*
X195568000Y-101815892D01*
X195568000Y-101684108D01*
X195533892Y-101556814D01*
X195515574Y-101525087D01*
X195484613Y-101471460D01*
X195480462Y-101455971D01*
X195473023Y-101444395D01*
X195468000Y-101409460D01*
X195468000Y-101387000D01*
X195487685Y-101319961D01*
X195540489Y-101274206D01*
X195592000Y-101263000D01*
X195890225Y-101263000D01*
X195890227Y-101263000D01*
X195992088Y-101235707D01*
X196083413Y-101182980D01*
X196179574Y-101086819D01*
X196240897Y-101053334D01*
X196267255Y-101050500D01*
X196460438Y-101050500D01*
X197164834Y-101050500D01*
X197212291Y-101059941D01*
X197221771Y-101063868D01*
X197280247Y-101075499D01*
X197280250Y-101075500D01*
X197280252Y-101075500D01*
X197919750Y-101075500D01*
X197919751Y-101075499D01*
X197939418Y-101071587D01*
X197978228Y-101063868D01*
X197978229Y-101063867D01*
X197978231Y-101063867D01*
X197978231Y-101063866D01*
X197987709Y-101059941D01*
X197995888Y-101058313D01*
X198000231Y-101055523D01*
X198035166Y-101050500D01*
X198109720Y-101050500D01*
X198176759Y-101070185D01*
X198222514Y-101122989D01*
X198232659Y-101158315D01*
X198235931Y-101183170D01*
X198235931Y-101183171D01*
X198235932Y-101183173D01*
X198285935Y-101290404D01*
X198369596Y-101374065D01*
X198476827Y-101424068D01*
X198525683Y-101430500D01*
X198525684Y-101430500D01*
X198974317Y-101430500D01*
X198990601Y-101428356D01*
X199023173Y-101424068D01*
X199130404Y-101374065D01*
X199214065Y-101290404D01*
X199264068Y-101183173D01*
X199270500Y-101134316D01*
X199270500Y-100785684D01*
X199264068Y-100736827D01*
X199214065Y-100629596D01*
X199130404Y-100545935D01*
X199122733Y-100538264D01*
X199125561Y-100535435D01*
X199094843Y-100497023D01*
X199087635Y-100427526D01*
X199119143Y-100365165D01*
X199122903Y-100361906D01*
X199122733Y-100361736D01*
X199150361Y-100334108D01*
X199214065Y-100270404D01*
X199264068Y-100163173D01*
X199270500Y-100114316D01*
X199270500Y-99765684D01*
X199264068Y-99716827D01*
X199214065Y-99609596D01*
X199130404Y-99525935D01*
X199023173Y-99475932D01*
X199023171Y-99475931D01*
X199023172Y-99475931D01*
X198974317Y-99469500D01*
X198974316Y-99469500D01*
X198525684Y-99469500D01*
X198525683Y-99469500D01*
X198476828Y-99475931D01*
X198369597Y-99525934D01*
X198296026Y-99599505D01*
X198234702Y-99632989D01*
X198165011Y-99628004D01*
X198109077Y-99586133D01*
X198103593Y-99578178D01*
X198091233Y-99558666D01*
X198088867Y-99546769D01*
X198044552Y-99480448D01*
X198039582Y-99477127D01*
X198029378Y-99461018D01*
X198023387Y-99440109D01*
X198012964Y-99421021D01*
X198013953Y-99407184D01*
X198010133Y-99393851D01*
X198016396Y-99373025D01*
X198017948Y-99351329D01*
X198026261Y-99340223D01*
X198030256Y-99326942D01*
X198046785Y-99312807D01*
X198059820Y-99295396D01*
X198077402Y-99286626D01*
X198083358Y-99281534D01*
X198089225Y-99280729D01*
X198099538Y-99275586D01*
X198146192Y-99262032D01*
X198146195Y-99262031D01*
X198285374Y-99179721D01*
X198285383Y-99179714D01*
X198399714Y-99065383D01*
X198399721Y-99065374D01*
X198482031Y-98926195D01*
X198482033Y-98926190D01*
X198527144Y-98770918D01*
X198527145Y-98770912D01*
X198528790Y-98750000D01*
X197874000Y-98750000D01*
X197806961Y-98730315D01*
X197761206Y-98677511D01*
X197750000Y-98626000D01*
X197750000Y-98500000D01*
X197624000Y-98500000D01*
X197556961Y-98480315D01*
X197511206Y-98427511D01*
X197500000Y-98376000D01*
X197500000Y-98250000D01*
X198020000Y-98250000D01*
X198528790Y-98250000D01*
X198527145Y-98229089D01*
X198482031Y-98073804D01*
X198478934Y-98066647D01*
X198481972Y-98065332D01*
X198468533Y-98012235D01*
X198485715Y-97953783D01*
X198502031Y-97926195D01*
X198547145Y-97770910D01*
X198548790Y-97750000D01*
X198020000Y-97750000D01*
X198020000Y-98250000D01*
X197500000Y-98250000D01*
X197500000Y-97631362D01*
X197519685Y-97564323D01*
X197536319Y-97543681D01*
X197543681Y-97536319D01*
X197566183Y-97524031D01*
X197572489Y-97518568D01*
X197577512Y-97517845D01*
X197605004Y-97502834D01*
X197631362Y-97500000D01*
X197770000Y-97500000D01*
X197770000Y-97374000D01*
X197789685Y-97306961D01*
X197842489Y-97261206D01*
X197894000Y-97250000D01*
X198548790Y-97250000D01*
X198547145Y-97229091D01*
X198513591Y-97113595D01*
X198513791Y-97043725D01*
X198551734Y-96985055D01*
X198615372Y-96956212D01*
X198684502Y-96966353D01*
X198684593Y-96966395D01*
X198786827Y-97014068D01*
X198823469Y-97018892D01*
X198835683Y-97020500D01*
X198835684Y-97020500D01*
X199011500Y-97020500D01*
X199078539Y-97040185D01*
X199124294Y-97092989D01*
X199135500Y-97144500D01*
X199135500Y-98319752D01*
X199147131Y-98378229D01*
X199147132Y-98378230D01*
X199191447Y-98444552D01*
X199257769Y-98488867D01*
X199257770Y-98488868D01*
X199316247Y-98500499D01*
X199316250Y-98500500D01*
X199316252Y-98500500D01*
X201355750Y-98500500D01*
X201355751Y-98500499D01*
X201370568Y-98497552D01*
X201414229Y-98488868D01*
X201414229Y-98488867D01*
X201414231Y-98488867D01*
X201480552Y-98444552D01*
X201524867Y-98378231D01*
X201524867Y-98378229D01*
X201524868Y-98378229D01*
X201536499Y-98319752D01*
X201536500Y-98319750D01*
X201536500Y-97345753D01*
X201556185Y-97278714D01*
X201608989Y-97232959D01*
X201678147Y-97223015D01*
X201692576Y-97225974D01*
X201784108Y-97250500D01*
X201784111Y-97250500D01*
X201915890Y-97250500D01*
X201915892Y-97250500D01*
X202043186Y-97216392D01*
X202157314Y-97150500D01*
X202220995Y-97086819D01*
X202282318Y-97053334D01*
X202308676Y-97050500D01*
X203019560Y-97050500D01*
X203019562Y-97050500D01*
X203095989Y-97030021D01*
X203164511Y-96990460D01*
X203178151Y-96976819D01*
X203205085Y-96962111D01*
X203230899Y-96945522D01*
X203237096Y-96944630D01*
X203239473Y-96943333D01*
X203265834Y-96940499D01*
X203299521Y-96940499D01*
X203366560Y-96960184D01*
X203387202Y-96976818D01*
X203755519Y-97345135D01*
X203789004Y-97406458D01*
X203784020Y-97476150D01*
X203742148Y-97532083D01*
X203729840Y-97540202D01*
X203709390Y-97552009D01*
X203709384Y-97552013D01*
X203625513Y-97635884D01*
X203625511Y-97635887D01*
X203610435Y-97662000D01*
X203566201Y-97738614D01*
X203535500Y-97853191D01*
X203535500Y-97971809D01*
X203566201Y-98086386D01*
X203625511Y-98189113D01*
X203709387Y-98272989D01*
X203812114Y-98332299D01*
X203926691Y-98363000D01*
X203926694Y-98363000D01*
X204033169Y-98363000D01*
X204100208Y-98382685D01*
X204145963Y-98435489D01*
X204155907Y-98504647D01*
X204132359Y-98561413D01*
X204127076Y-98568454D01*
X204075935Y-98619596D01*
X204054951Y-98664595D01*
X204047211Y-98674913D01*
X204029139Y-98688412D01*
X204014231Y-98705344D01*
X204001567Y-98709007D01*
X203991235Y-98716726D01*
X203969625Y-98718249D01*
X203948021Y-98724500D01*
X203847066Y-98724500D01*
X203780027Y-98704815D01*
X203734272Y-98652011D01*
X203725449Y-98624691D01*
X203724868Y-98621770D01*
X203724867Y-98621769D01*
X203680552Y-98555447D01*
X203614230Y-98511132D01*
X203614229Y-98511131D01*
X203555752Y-98499500D01*
X203555748Y-98499500D01*
X201966252Y-98499500D01*
X201966247Y-98499500D01*
X201907770Y-98511131D01*
X201907769Y-98511132D01*
X201841447Y-98555447D01*
X201797132Y-98621769D01*
X201797131Y-98621770D01*
X201785500Y-98680247D01*
X201785500Y-99319752D01*
X201797131Y-99378229D01*
X201797132Y-99378230D01*
X201832465Y-99431109D01*
X201853343Y-99497786D01*
X201834859Y-99565166D01*
X201832465Y-99568891D01*
X201797132Y-99621769D01*
X201797131Y-99621770D01*
X201785500Y-99680247D01*
X201785500Y-99810141D01*
X201765815Y-99877180D01*
X201713011Y-99922935D01*
X201643853Y-99932879D01*
X201629407Y-99929916D01*
X201579606Y-99916572D01*
X201515892Y-99899500D01*
X201384108Y-99899500D01*
X201256812Y-99933608D01*
X201142686Y-99999500D01*
X201142683Y-99999502D01*
X201049502Y-100092683D01*
X201049500Y-100092686D01*
X200983608Y-100206812D01*
X200970147Y-100257052D01*
X200949500Y-100334108D01*
X200949500Y-100465892D01*
X200983608Y-100593186D01*
X201032887Y-100678540D01*
X201049500Y-100740539D01*
X201049500Y-100802727D01*
X201059809Y-100841200D01*
X201076793Y-100904589D01*
X201094345Y-100934989D01*
X201129520Y-100995913D01*
X201379519Y-101245912D01*
X201379520Y-101245913D01*
X201454087Y-101320480D01*
X201478295Y-101334457D01*
X201526511Y-101385023D01*
X201539733Y-101453630D01*
X201532477Y-101485176D01*
X201492403Y-101592619D01*
X201492401Y-101592627D01*
X201486000Y-101652155D01*
X201486000Y-101750000D01*
X202637000Y-101750000D01*
X202704039Y-101769685D01*
X202749794Y-101822489D01*
X202761000Y-101874000D01*
X202761000Y-102000000D01*
X202887000Y-102000000D01*
X202954039Y-102019685D01*
X202999794Y-102072489D01*
X203011000Y-102124000D01*
X203011000Y-102821929D01*
X203018107Y-102834945D01*
X203013123Y-102904637D01*
X202984623Y-102948984D01*
X202929520Y-103004087D01*
X202876793Y-103095411D01*
X202876793Y-103095412D01*
X202852351Y-103186632D01*
X202849500Y-103197273D01*
X202849500Y-104552726D01*
X202876793Y-104654589D01*
X202903156Y-104700250D01*
X202929520Y-104745913D01*
X203304087Y-105120480D01*
X203395412Y-105173207D01*
X203489138Y-105198320D01*
X203544725Y-105230413D01*
X203553362Y-105239050D01*
X203590448Y-105294552D01*
X203645949Y-105331637D01*
X203654586Y-105340274D01*
X203665711Y-105360648D01*
X203680601Y-105378465D01*
X203686680Y-105395862D01*
X203711793Y-105489589D01*
X203732600Y-105525627D01*
X203764520Y-105580913D01*
X203764522Y-105580915D01*
X203771926Y-105588319D01*
X203805411Y-105649642D01*
X203800427Y-105719334D01*
X203758555Y-105775267D01*
X203693091Y-105799684D01*
X203684245Y-105800000D01*
X203500000Y-105800000D01*
X203500000Y-108350000D01*
X204250000Y-108350000D01*
X204250000Y-106365755D01*
X204269685Y-106298716D01*
X204322489Y-106252961D01*
X204391647Y-106243017D01*
X204455203Y-106272042D01*
X204461681Y-106278074D01*
X204504087Y-106320480D01*
X204537067Y-106339521D01*
X204537500Y-106339771D01*
X204545783Y-106348458D01*
X204556703Y-106353445D01*
X204569447Y-106373276D01*
X204585716Y-106390338D01*
X204588931Y-106403594D01*
X204594477Y-106412223D01*
X204599500Y-106447158D01*
X204599500Y-106560134D01*
X204579815Y-106627173D01*
X204577075Y-106631257D01*
X204576776Y-106631682D01*
X204526027Y-106740514D01*
X204519500Y-106790098D01*
X204519500Y-107209894D01*
X204519501Y-107209900D01*
X204526028Y-107259487D01*
X204526029Y-107259489D01*
X204526029Y-107259490D01*
X204558961Y-107330112D01*
X204576776Y-107368316D01*
X204661684Y-107453224D01*
X204770513Y-107503972D01*
X204820099Y-107510500D01*
X205179900Y-107510499D01*
X205189534Y-107509230D01*
X205258565Y-107519994D01*
X205304038Y-107560351D01*
X205305502Y-107559217D01*
X205310283Y-107565381D01*
X205424616Y-107679714D01*
X205424625Y-107679721D01*
X205563804Y-107762031D01*
X205710000Y-107804504D01*
X205710000Y-107804503D01*
X206210000Y-107804503D01*
X206356195Y-107762031D01*
X206495374Y-107679721D01*
X206495383Y-107679714D01*
X206609714Y-107565383D01*
X206609721Y-107565374D01*
X206692031Y-107426195D01*
X206692033Y-107426190D01*
X206737144Y-107270918D01*
X206737145Y-107270912D01*
X206738790Y-107250000D01*
X206210000Y-107250000D01*
X206210000Y-107804503D01*
X205710000Y-107804503D01*
X205710000Y-106750000D01*
X206230000Y-106750000D01*
X206738790Y-106750000D01*
X206737145Y-106729089D01*
X206692031Y-106573804D01*
X206688934Y-106566647D01*
X206691972Y-106565332D01*
X206678533Y-106512235D01*
X206695715Y-106453783D01*
X206712031Y-106426195D01*
X206757145Y-106270910D01*
X206758790Y-106250000D01*
X206230000Y-106250000D01*
X206230000Y-106750000D01*
X205710000Y-106750000D01*
X205710000Y-106131362D01*
X205729685Y-106064323D01*
X205746319Y-106043681D01*
X205753681Y-106036319D01*
X205776183Y-106024031D01*
X205782489Y-106018568D01*
X205787512Y-106017845D01*
X205815004Y-106002834D01*
X205841362Y-106000000D01*
X205980000Y-106000000D01*
X205980000Y-105874000D01*
X205999685Y-105806961D01*
X206052489Y-105761206D01*
X206104000Y-105750000D01*
X206758790Y-105750000D01*
X206757145Y-105729089D01*
X206712031Y-105573804D01*
X206629721Y-105434625D01*
X206629714Y-105434616D01*
X206515383Y-105320285D01*
X206509215Y-105315501D01*
X206510843Y-105313400D01*
X206471915Y-105271706D01*
X206459412Y-105202964D01*
X206461103Y-105191852D01*
X206465500Y-105169748D01*
X206465500Y-104586556D01*
X206485185Y-104519517D01*
X206515189Y-104487290D01*
X206622187Y-104407190D01*
X206622190Y-104407187D01*
X206708350Y-104292093D01*
X206708354Y-104292086D01*
X206758596Y-104157379D01*
X206758598Y-104157372D01*
X206764999Y-104097844D01*
X206765000Y-104097827D01*
X206765000Y-103950000D01*
X205065000Y-103950000D01*
X205065000Y-104097844D01*
X205071401Y-104157372D01*
X205071403Y-104157379D01*
X205121645Y-104292086D01*
X205121649Y-104292093D01*
X205207809Y-104407187D01*
X205207812Y-104407190D01*
X205314811Y-104487290D01*
X205356682Y-104543223D01*
X205364500Y-104586556D01*
X205364500Y-105169752D01*
X205376131Y-105228229D01*
X205383899Y-105239854D01*
X205392761Y-105268160D01*
X205404093Y-105295563D01*
X205403085Y-105301131D01*
X205404776Y-105306532D01*
X205396929Y-105335131D01*
X205391647Y-105364315D01*
X205387253Y-105370403D01*
X205386291Y-105373912D01*
X205371500Y-105393294D01*
X205316424Y-105452379D01*
X205297469Y-105463610D01*
X205281362Y-105478644D01*
X205267999Y-105481072D01*
X205256314Y-105487996D01*
X205234294Y-105487196D01*
X205212618Y-105491135D01*
X205209537Y-105490768D01*
X205199904Y-105489500D01*
X204857255Y-105489500D01*
X204827814Y-105480855D01*
X204797828Y-105474332D01*
X204792812Y-105470577D01*
X204790216Y-105469815D01*
X204769574Y-105453181D01*
X204657586Y-105341193D01*
X204624101Y-105279870D01*
X204623650Y-105229319D01*
X204623866Y-105228232D01*
X204623867Y-105228231D01*
X204632486Y-105184899D01*
X204635500Y-105169749D01*
X204635500Y-104430249D01*
X204635499Y-104430247D01*
X204623868Y-104371770D01*
X204623867Y-104371768D01*
X204588535Y-104318892D01*
X204567656Y-104252215D01*
X204586140Y-104184835D01*
X204588535Y-104181108D01*
X204623867Y-104128231D01*
X204623868Y-104128229D01*
X204635499Y-104069752D01*
X204635500Y-104069750D01*
X204635500Y-103399500D01*
X204655185Y-103332461D01*
X204707989Y-103286706D01*
X204728912Y-103279332D01*
X204743966Y-103275500D01*
X204804800Y-103275500D01*
X204901778Y-103235329D01*
X204910412Y-103233132D01*
X204936778Y-103234090D01*
X204963015Y-103231270D01*
X204971147Y-103235340D01*
X204980235Y-103235671D01*
X205001899Y-103250733D01*
X205025495Y-103262544D01*
X205030135Y-103270364D01*
X205037602Y-103275556D01*
X205047683Y-103299940D01*
X205061148Y-103322633D01*
X205062929Y-103336814D01*
X205064298Y-103340125D01*
X205063735Y-103343231D01*
X205065000Y-103353300D01*
X205065000Y-103450000D01*
X206765000Y-103450000D01*
X206765000Y-103302172D01*
X206764999Y-103302155D01*
X206758598Y-103242627D01*
X206758596Y-103242620D01*
X206708354Y-103107913D01*
X206708350Y-103107906D01*
X206622190Y-102992812D01*
X206622187Y-102992809D01*
X206507093Y-102906649D01*
X206507088Y-102906646D01*
X206426201Y-102876477D01*
X206370268Y-102834605D01*
X206345851Y-102769141D01*
X206360703Y-102700868D01*
X206381852Y-102672616D01*
X206424065Y-102630404D01*
X206474068Y-102523173D01*
X206480500Y-102474316D01*
X206480500Y-102025684D01*
X206474068Y-101976827D01*
X206454796Y-101935500D01*
X206444305Y-101866423D01*
X206472825Y-101802639D01*
X206479475Y-101795438D01*
X206490460Y-101784454D01*
X206530021Y-101715932D01*
X206550500Y-101639505D01*
X206550500Y-101460438D01*
X206542859Y-101431922D01*
X206544522Y-101362075D01*
X206574953Y-101312149D01*
X206587602Y-101299500D01*
X206610489Y-101276613D01*
X206669799Y-101173886D01*
X206700500Y-101059309D01*
X206700500Y-100940691D01*
X206669799Y-100826114D01*
X206610489Y-100723387D01*
X206526613Y-100639511D01*
X206423886Y-100580201D01*
X206309309Y-100549500D01*
X206190691Y-100549500D01*
X206110151Y-100571080D01*
X206076109Y-100580202D01*
X206076108Y-100580203D01*
X206059321Y-100589895D01*
X205991420Y-100606366D01*
X205925394Y-100583513D01*
X205882204Y-100528591D01*
X205875564Y-100459037D01*
X205907582Y-100396935D01*
X205909601Y-100394867D01*
X205924065Y-100380404D01*
X205974068Y-100273173D01*
X205980500Y-100224316D01*
X205980500Y-99775684D01*
X205974068Y-99726827D01*
X205924065Y-99619596D01*
X205892150Y-99587681D01*
X205858665Y-99526358D01*
X205863649Y-99456666D01*
X205892150Y-99412319D01*
X205897285Y-99407184D01*
X205924065Y-99380404D01*
X205974068Y-99273173D01*
X205980500Y-99224316D01*
X205980500Y-98775684D01*
X205974068Y-98726827D01*
X205924065Y-98619596D01*
X205840404Y-98535935D01*
X205840401Y-98535933D01*
X205832622Y-98530487D01*
X205788996Y-98475911D01*
X205781802Y-98406413D01*
X205813323Y-98344058D01*
X205816033Y-98341260D01*
X205829215Y-98328079D01*
X205872707Y-98229580D01*
X205875500Y-98205505D01*
X205875499Y-97619496D01*
X205872707Y-97595420D01*
X205868718Y-97586386D01*
X205829218Y-97496926D01*
X205829216Y-97496923D01*
X205829215Y-97496921D01*
X205802304Y-97470010D01*
X205768819Y-97408687D01*
X205773803Y-97338995D01*
X205815675Y-97283062D01*
X205842534Y-97267767D01*
X205883784Y-97250681D01*
X205883786Y-97250680D01*
X206006509Y-97156510D01*
X206006510Y-97156509D01*
X206100680Y-97033786D01*
X206100683Y-97033780D01*
X206159877Y-96890871D01*
X206159879Y-96890866D01*
X206175000Y-96776011D01*
X206175000Y-96662500D01*
X205624000Y-96662500D01*
X205615314Y-96659949D01*
X205606353Y-96661238D01*
X205582312Y-96650259D01*
X205556961Y-96642815D01*
X205551033Y-96635974D01*
X205542797Y-96632213D01*
X205528507Y-96609978D01*
X205511206Y-96590011D01*
X205508918Y-96579496D01*
X205505023Y-96573435D01*
X205500000Y-96538500D01*
X205500000Y-96487500D01*
X205499499Y-96487500D01*
X205432460Y-96467815D01*
X205386705Y-96415011D01*
X205375499Y-96363500D01*
X205375499Y-96312500D01*
X205675000Y-96312500D01*
X206174999Y-96312500D01*
X206174999Y-96198986D01*
X206159881Y-96084140D01*
X206159877Y-96084128D01*
X206100683Y-95941219D01*
X206100680Y-95941213D01*
X206006510Y-95818490D01*
X206006509Y-95818489D01*
X205883786Y-95724319D01*
X205883780Y-95724316D01*
X205740868Y-95665121D01*
X205675000Y-95656448D01*
X205675000Y-96312500D01*
X205375499Y-96312500D01*
X205375499Y-96194503D01*
X205375499Y-96194496D01*
X205372707Y-96170420D01*
X205372705Y-96170415D01*
X205335566Y-96086303D01*
X205325000Y-96036217D01*
X205325000Y-95656450D01*
X205312563Y-95645544D01*
X205304591Y-95645043D01*
X205299864Y-95641567D01*
X205294067Y-95640663D01*
X205272034Y-95621105D01*
X205248300Y-95603654D01*
X205245150Y-95597240D01*
X205241814Y-95594279D01*
X205231120Y-95572823D01*
X205228817Y-95566808D01*
X205208054Y-95489318D01*
X205181642Y-95443573D01*
X205178133Y-95434404D01*
X205176094Y-95408972D01*
X205170078Y-95384175D01*
X205173348Y-95374724D01*
X205172550Y-95364758D01*
X205184584Y-95342261D01*
X205192930Y-95318148D01*
X205200790Y-95311966D01*
X205205507Y-95303149D01*
X205227793Y-95290729D01*
X205247850Y-95274957D01*
X205258499Y-95273619D01*
X205266540Y-95269139D01*
X205284951Y-95270296D01*
X205310123Y-95267135D01*
X205335683Y-95270500D01*
X205335684Y-95270500D01*
X205684317Y-95270500D01*
X205709876Y-95267135D01*
X205733173Y-95264068D01*
X205840404Y-95214065D01*
X205924065Y-95130404D01*
X205974068Y-95023173D01*
X205980500Y-94974316D01*
X205980500Y-94525684D01*
X205979283Y-94516443D01*
X205974068Y-94476828D01*
X205974068Y-94476827D01*
X205924065Y-94369596D01*
X205875684Y-94321215D01*
X205842200Y-94259893D01*
X205847184Y-94190201D01*
X205875684Y-94145855D01*
X205903224Y-94118316D01*
X205953972Y-94009487D01*
X205960500Y-93959901D01*
X205960499Y-93540100D01*
X205953972Y-93490513D01*
X205903224Y-93381684D01*
X205818316Y-93296776D01*
X205818315Y-93296775D01*
X205809429Y-93290553D01*
X205811692Y-93287321D01*
X205774606Y-93254617D01*
X205757224Y-93209095D01*
X205755500Y-93198865D01*
X205755500Y-93175200D01*
X205748775Y-93158966D01*
X205746440Y-93145108D01*
X205748978Y-93123809D01*
X205746686Y-93102487D01*
X205753031Y-93089809D01*
X205754710Y-93075729D01*
X205768359Y-93059184D01*
X205777959Y-93040007D01*
X205790152Y-93032771D01*
X205799176Y-93021835D01*
X205819603Y-93015296D01*
X205838047Y-93004353D01*
X205863969Y-93001096D01*
X205865720Y-93000536D01*
X205866585Y-93000767D01*
X205868716Y-93000500D01*
X206094750Y-93000500D01*
X206094751Y-93000499D01*
X206109568Y-92997552D01*
X206153229Y-92988868D01*
X206153229Y-92988867D01*
X206153231Y-92988867D01*
X206207394Y-92952676D01*
X206229707Y-92937767D01*
X206232272Y-92941607D01*
X206271183Y-92919895D01*
X206330741Y-92921038D01*
X206440691Y-92950500D01*
X206440694Y-92950500D01*
X206559306Y-92950500D01*
X206559309Y-92950500D01*
X206673886Y-92919799D01*
X206776613Y-92860489D01*
X206860489Y-92776613D01*
X206919799Y-92673886D01*
X206950500Y-92559309D01*
X206950500Y-92440691D01*
X206919799Y-92326114D01*
X206860489Y-92223387D01*
X206776613Y-92139511D01*
X206673886Y-92080201D01*
X206559309Y-92049500D01*
X206440691Y-92049500D01*
X206326114Y-92080201D01*
X206326113Y-92080201D01*
X206326111Y-92080202D01*
X206275310Y-92109532D01*
X206207410Y-92126004D01*
X206165946Y-92112340D01*
X206164511Y-92115806D01*
X206153226Y-92111131D01*
X206094752Y-92099500D01*
X206094748Y-92099500D01*
X204405252Y-92099500D01*
X204405247Y-92099500D01*
X204346770Y-92111131D01*
X204346769Y-92111132D01*
X204280447Y-92155447D01*
X204236132Y-92221769D01*
X204236131Y-92221770D01*
X204224500Y-92280247D01*
X204224500Y-92819749D01*
X204228445Y-92839584D01*
X204222216Y-92909176D01*
X204179352Y-92964352D01*
X204141424Y-92982849D01*
X204123806Y-92987967D01*
X204123804Y-92987968D01*
X203984625Y-93070278D01*
X203984614Y-93070286D01*
X203969445Y-93085456D01*
X203908121Y-93118940D01*
X203838430Y-93113954D01*
X203782497Y-93072081D01*
X203759293Y-93017170D01*
X203734714Y-92861978D01*
X203734713Y-92861977D01*
X203674883Y-92677841D01*
X203586991Y-92505343D01*
X203564359Y-92474192D01*
X203564358Y-92474192D01*
X203034292Y-93004259D01*
X203019563Y-92949288D01*
X202951104Y-92830713D01*
X202854287Y-92733896D01*
X202735712Y-92665437D01*
X202680738Y-92650706D01*
X203210806Y-92120639D01*
X203210806Y-92120638D01*
X203179662Y-92098011D01*
X203007159Y-92010116D01*
X202957870Y-91994101D01*
X202900195Y-91954662D01*
X202872997Y-91890304D01*
X202884912Y-91821457D01*
X202932157Y-91769982D01*
X202999731Y-91752221D01*
X203030784Y-91757094D01*
X203099871Y-91777166D01*
X203099877Y-91777167D01*
X203135000Y-91779931D01*
X203135000Y-91779930D01*
X203635000Y-91779930D01*
X203670122Y-91777167D01*
X203670128Y-91777166D01*
X203824188Y-91732407D01*
X203824191Y-91732406D01*
X203962285Y-91650738D01*
X203962294Y-91650731D01*
X204075731Y-91537294D01*
X204075738Y-91537285D01*
X204157404Y-91399194D01*
X204197844Y-91260000D01*
X203635000Y-91260000D01*
X203635000Y-91779930D01*
X203135000Y-91779930D01*
X203135000Y-91134000D01*
X203154685Y-91066961D01*
X203207489Y-91021206D01*
X203259000Y-91010000D01*
X203385000Y-91010000D01*
X203385000Y-90884000D01*
X203404685Y-90816961D01*
X203457489Y-90771206D01*
X203509000Y-90760000D01*
X204211000Y-90760000D01*
X204278039Y-90779685D01*
X204323794Y-90832489D01*
X204335000Y-90884000D01*
X204335000Y-90995465D01*
X204377180Y-90999999D01*
X204377182Y-91000000D01*
X205000000Y-91000000D01*
X205500000Y-91000000D01*
X206122828Y-91000000D01*
X206122844Y-90999999D01*
X206182372Y-90993598D01*
X206182379Y-90993596D01*
X206317086Y-90943354D01*
X206317093Y-90943350D01*
X206432187Y-90857190D01*
X206432190Y-90857187D01*
X206518350Y-90742093D01*
X206518354Y-90742086D01*
X206568596Y-90607379D01*
X206568598Y-90607372D01*
X206574999Y-90547844D01*
X206575000Y-90547827D01*
X206575000Y-90500000D01*
X205500000Y-90500000D01*
X205500000Y-91000000D01*
X205000000Y-91000000D01*
X205000000Y-90000000D01*
X205500000Y-90000000D01*
X206575000Y-90000000D01*
X206575000Y-89952172D01*
X206574999Y-89952155D01*
X206568598Y-89892627D01*
X206568596Y-89892620D01*
X206518354Y-89757913D01*
X206518350Y-89757906D01*
X206432190Y-89642812D01*
X206432187Y-89642809D01*
X206317093Y-89556649D01*
X206317086Y-89556645D01*
X206182379Y-89506403D01*
X206182372Y-89506401D01*
X206122844Y-89500000D01*
X205500000Y-89500000D01*
X205500000Y-90000000D01*
X205000000Y-90000000D01*
X205000000Y-89500000D01*
X204377155Y-89500000D01*
X204317627Y-89506401D01*
X204317620Y-89506403D01*
X204182913Y-89556645D01*
X204182906Y-89556649D01*
X204067813Y-89642809D01*
X204051331Y-89664825D01*
X203995396Y-89706694D01*
X203925704Y-89711676D01*
X203864382Y-89678189D01*
X203850488Y-89661630D01*
X203849067Y-89659601D01*
X203849065Y-89659596D01*
X203765404Y-89575935D01*
X203658173Y-89525932D01*
X203658171Y-89525931D01*
X203658172Y-89525931D01*
X203609317Y-89519500D01*
X203609316Y-89519500D01*
X203333920Y-89519500D01*
X203266881Y-89499815D01*
X203221126Y-89447011D01*
X203210302Y-89385770D01*
X203210806Y-89379358D01*
X202680739Y-88849292D01*
X202735712Y-88834563D01*
X202854287Y-88766104D01*
X202951104Y-88669287D01*
X203019563Y-88550712D01*
X203034292Y-88495740D01*
X203564359Y-89025807D01*
X203564360Y-89025806D01*
X203586985Y-88994665D01*
X203586993Y-88994652D01*
X203674883Y-88822158D01*
X203734713Y-88638022D01*
X203765000Y-88446802D01*
X203765000Y-88253197D01*
X203734713Y-88061977D01*
X203674883Y-87877841D01*
X203586991Y-87705343D01*
X203564359Y-87674192D01*
X203034292Y-88204259D01*
X203019563Y-88149288D01*
X202951104Y-88030713D01*
X202854287Y-87933896D01*
X202735712Y-87865437D01*
X202680738Y-87850706D01*
X203210806Y-87320639D01*
X203210806Y-87320638D01*
X203179662Y-87298011D01*
X203007158Y-87210116D01*
X202823022Y-87150286D01*
X202631802Y-87120000D01*
X202438198Y-87120000D01*
X202246977Y-87150286D01*
X202062841Y-87210116D01*
X201890342Y-87298008D01*
X201846343Y-87329974D01*
X201780536Y-87353451D01*
X201760208Y-87352943D01*
X201732833Y-87350000D01*
X201400000Y-87350000D01*
X201400000Y-88714134D01*
X201381019Y-88778774D01*
X201395112Y-88822150D01*
X201395115Y-88822156D01*
X201470040Y-88969205D01*
X201482936Y-89037874D01*
X201456660Y-89102615D01*
X201399553Y-89142872D01*
X201359555Y-89149500D01*
X200795247Y-89149500D01*
X200736771Y-89161131D01*
X200727291Y-89165059D01*
X200679834Y-89174500D01*
X200090166Y-89174500D01*
X200042709Y-89165059D01*
X200033228Y-89161131D01*
X199974752Y-89149500D01*
X199974748Y-89149500D01*
X199552575Y-89149500D01*
X199551699Y-89149497D01*
X199540272Y-89149416D01*
X199536853Y-89148500D01*
X199410503Y-89148500D01*
X199410078Y-89148497D01*
X199377016Y-89138534D01*
X199343915Y-89128815D01*
X199343616Y-89128470D01*
X199343180Y-89128339D01*
X199320735Y-89102064D01*
X199298160Y-89076011D01*
X199298095Y-89075560D01*
X199297799Y-89075214D01*
X199293129Y-89041024D01*
X199288216Y-89006853D01*
X199288388Y-89006310D01*
X199288344Y-89005987D01*
X199288804Y-89004998D01*
X199300469Y-88968205D01*
X199374885Y-88822156D01*
X199374887Y-88822150D01*
X199389819Y-88776194D01*
X199370202Y-88721213D01*
X199370000Y-88714134D01*
X199370000Y-88650000D01*
X199670000Y-88650000D01*
X200002828Y-88650000D01*
X200002844Y-88649999D01*
X200062372Y-88643598D01*
X200062379Y-88643596D01*
X200197086Y-88593354D01*
X200197089Y-88593352D01*
X200310688Y-88508312D01*
X200376153Y-88483894D01*
X200444426Y-88498745D01*
X200459312Y-88508312D01*
X200572910Y-88593352D01*
X200572913Y-88593354D01*
X200707620Y-88643596D01*
X200707627Y-88643598D01*
X200767155Y-88649999D01*
X200767172Y-88650000D01*
X201100000Y-88650000D01*
X201100000Y-88150000D01*
X199670000Y-88150000D01*
X199670000Y-88650000D01*
X199370000Y-88650000D01*
X199370000Y-87350000D01*
X199037164Y-87350000D01*
X199009789Y-87352943D01*
X198941030Y-87340536D01*
X198923652Y-87329971D01*
X198879664Y-87298012D01*
X198707158Y-87210116D01*
X198523022Y-87150286D01*
X198331802Y-87120000D01*
X198138198Y-87120000D01*
X197946977Y-87150286D01*
X197762841Y-87210116D01*
X197590337Y-87298011D01*
X197559192Y-87320639D01*
X197559191Y-87320639D01*
X198089260Y-87850707D01*
X198034288Y-87865437D01*
X197915713Y-87933896D01*
X197818896Y-88030713D01*
X197750437Y-88149288D01*
X197735707Y-88204260D01*
X197356819Y-87825372D01*
X197323334Y-87764049D01*
X197320500Y-87737691D01*
X197320500Y-87569477D01*
X197320500Y-87569472D01*
X197310645Y-87501830D01*
X197259636Y-87397489D01*
X197259634Y-87397487D01*
X197259634Y-87397486D01*
X197258138Y-87395990D01*
X197256745Y-87393439D01*
X197253665Y-87389125D01*
X197254186Y-87388752D01*
X197224653Y-87334667D01*
X197226043Y-87276221D01*
X197250500Y-87184950D01*
X197250500Y-87066332D01*
X197219799Y-86951755D01*
X197160489Y-86849028D01*
X197076613Y-86765152D01*
X196973886Y-86705842D01*
X196859309Y-86675141D01*
X196740691Y-86675141D01*
X196626114Y-86705842D01*
X196626112Y-86705842D01*
X196626112Y-86705843D01*
X196523387Y-86765152D01*
X196523384Y-86765154D01*
X196439513Y-86849025D01*
X196439511Y-86849028D01*
X196393017Y-86929558D01*
X196380201Y-86951755D01*
X196349500Y-87066332D01*
X196349500Y-87066334D01*
X196349500Y-87184949D01*
X196351054Y-87190749D01*
X196349389Y-87260599D01*
X196310225Y-87318460D01*
X196245996Y-87345962D01*
X196178873Y-87335221D01*
X196099076Y-87298011D01*
X196073173Y-87285932D01*
X196073171Y-87285931D01*
X196073172Y-87285931D01*
X196024317Y-87279500D01*
X196024316Y-87279500D01*
X195575684Y-87279500D01*
X195575683Y-87279500D01*
X195526828Y-87285931D01*
X195419595Y-87335935D01*
X195335935Y-87419595D01*
X195285931Y-87526828D01*
X195279500Y-87575683D01*
X195279500Y-87924316D01*
X195285931Y-87973173D01*
X195288505Y-87982003D01*
X195288363Y-88051873D01*
X195250469Y-88110574D01*
X195232582Y-88123426D01*
X195222708Y-88129265D01*
X195222708Y-88129266D01*
X195109268Y-88242705D01*
X195109261Y-88242714D01*
X195027595Y-88380805D01*
X194987156Y-88520000D01*
X195676000Y-88520000D01*
X195743039Y-88539685D01*
X195788794Y-88592489D01*
X195800000Y-88644000D01*
X195800000Y-88896000D01*
X195780315Y-88963039D01*
X195727511Y-89008794D01*
X195676000Y-89020000D01*
X194987156Y-89020000D01*
X195027595Y-89159194D01*
X195109264Y-89297290D01*
X195111367Y-89300001D01*
X195112353Y-89302513D01*
X195113235Y-89304004D01*
X195112994Y-89304146D01*
X195136901Y-89365037D01*
X195123221Y-89433554D01*
X195074669Y-89483799D01*
X195013387Y-89500000D01*
X194750000Y-89500000D01*
X194750000Y-91000000D01*
X195372828Y-91000000D01*
X195372844Y-90999999D01*
X195432372Y-90993598D01*
X195432383Y-90993595D01*
X195507166Y-90965703D01*
X195576857Y-90960718D01*
X195638181Y-90994202D01*
X195671666Y-91055525D01*
X195674500Y-91081884D01*
X195674500Y-91207147D01*
X195674500Y-91292853D01*
X195679152Y-91310216D01*
X195696682Y-91375640D01*
X195718108Y-91412750D01*
X195739535Y-91449862D01*
X196022080Y-91732407D01*
X196176498Y-91886824D01*
X196209983Y-91948147D01*
X196204999Y-92017838D01*
X196163128Y-92073772D01*
X196097663Y-92098189D01*
X196029390Y-92083337D01*
X196026817Y-92081892D01*
X195943189Y-92033609D01*
X195943186Y-92033608D01*
X195815892Y-91999500D01*
X195684108Y-91999500D01*
X195556814Y-92033608D01*
X195556813Y-92033608D01*
X195556811Y-92033609D01*
X195556810Y-92033609D01*
X195458007Y-92090653D01*
X195390106Y-92107126D01*
X195371817Y-92104884D01*
X195344748Y-92099500D01*
X193655252Y-92099500D01*
X193655247Y-92099500D01*
X193596770Y-92111131D01*
X193596770Y-92111132D01*
X193574390Y-92126086D01*
X193507713Y-92146963D01*
X193440333Y-92128478D01*
X193393643Y-92076499D01*
X193381500Y-92022983D01*
X193381500Y-91102771D01*
X193401185Y-91035732D01*
X193453989Y-90989977D01*
X193523147Y-90980033D01*
X193548835Y-90986590D01*
X193567619Y-90993596D01*
X193567627Y-90993598D01*
X193627155Y-90999999D01*
X193627172Y-91000000D01*
X194250000Y-91000000D01*
X194250000Y-89500000D01*
X193856498Y-89500000D01*
X193847812Y-89497449D01*
X193838851Y-89498738D01*
X193814810Y-89487759D01*
X193789459Y-89480315D01*
X193783531Y-89473474D01*
X193775295Y-89469713D01*
X193761005Y-89447478D01*
X193743704Y-89427511D01*
X193741416Y-89416996D01*
X193737521Y-89410935D01*
X193732498Y-89376003D01*
X193732498Y-89290418D01*
X193752183Y-89223382D01*
X193768808Y-89202750D01*
X194741557Y-88230005D01*
X194783500Y-88128746D01*
X194783500Y-88019146D01*
X194783500Y-87153866D01*
X194792143Y-87124429D01*
X194798667Y-87094440D01*
X194802422Y-87089422D01*
X194803185Y-87086827D01*
X194819815Y-87066187D01*
X194940537Y-86945464D01*
X194959336Y-86930039D01*
X194960050Y-86929561D01*
X194960058Y-86929558D01*
X195037557Y-86852059D01*
X195096107Y-86793509D01*
X195096115Y-86793499D01*
X195439169Y-86450448D01*
X195439172Y-86450440D01*
X195439652Y-86449723D01*
X195455078Y-86430924D01*
X195872185Y-86013819D01*
X195933508Y-85980334D01*
X195959866Y-85977500D01*
X196895578Y-85977500D01*
X196895579Y-85977500D01*
X196996837Y-85935557D01*
X197074336Y-85858058D01*
X197074335Y-85858058D01*
X197132904Y-85799489D01*
X197720576Y-85211819D01*
X197781899Y-85178334D01*
X197808257Y-85175500D01*
X198151187Y-85175500D01*
X198151188Y-85175500D01*
X198164036Y-85170177D01*
X198233504Y-85162708D01*
X198295984Y-85193981D01*
X198326052Y-85237285D01*
X198371156Y-85346175D01*
X198461320Y-85463679D01*
X198578824Y-85553843D01*
X198715658Y-85610521D01*
X198825622Y-85624999D01*
X198825637Y-85625000D01*
X198855000Y-85625000D01*
X198855000Y-85124000D01*
X198857550Y-85115314D01*
X198856262Y-85106353D01*
X198867240Y-85082312D01*
X198874685Y-85056961D01*
X198881525Y-85051033D01*
X198885287Y-85042797D01*
X198907521Y-85028507D01*
X198927489Y-85011206D01*
X198938003Y-85008918D01*
X198944065Y-85005023D01*
X198979000Y-85000000D01*
X198981000Y-85000000D01*
X199048039Y-85019685D01*
X199093794Y-85072489D01*
X199105000Y-85124000D01*
X199105000Y-85625000D01*
X199134363Y-85625000D01*
X199134377Y-85624999D01*
X199244341Y-85610521D01*
X199244342Y-85610521D01*
X199328047Y-85575850D01*
X199397517Y-85568381D01*
X199459996Y-85599656D01*
X199495648Y-85659745D01*
X199499500Y-85690411D01*
X199499500Y-85815891D01*
X199533608Y-85943187D01*
X199553419Y-85977500D01*
X199599500Y-86057314D01*
X199692686Y-86150500D01*
X199806814Y-86216392D01*
X199898841Y-86241050D01*
X199958500Y-86277413D01*
X199989030Y-86340260D01*
X199980736Y-86409636D01*
X199945418Y-86456672D01*
X199941645Y-86459768D01*
X199844772Y-86556641D01*
X199844769Y-86556645D01*
X199768659Y-86670550D01*
X199768652Y-86670563D01*
X199716229Y-86797125D01*
X199716226Y-86797135D01*
X199689500Y-86931496D01*
X199689500Y-86931499D01*
X199689500Y-87068501D01*
X199689500Y-87068503D01*
X199689499Y-87068503D01*
X199716226Y-87202864D01*
X199717996Y-87208697D01*
X199715377Y-87209491D01*
X199721512Y-87267310D01*
X199690150Y-87329746D01*
X199687195Y-87332804D01*
X199670000Y-87349999D01*
X199670000Y-87850000D01*
X201100000Y-87850000D01*
X201100000Y-87350000D01*
X201082805Y-87332805D01*
X201049320Y-87271482D01*
X201053771Y-87209233D01*
X201052004Y-87208697D01*
X201053768Y-87202877D01*
X201053772Y-87202870D01*
X201073010Y-87106157D01*
X201080500Y-87068503D01*
X201080500Y-86931496D01*
X201053773Y-86797135D01*
X201053772Y-86797134D01*
X201053772Y-86797130D01*
X201048964Y-86785522D01*
X201001347Y-86670563D01*
X201001340Y-86670550D01*
X200925230Y-86556645D01*
X200925227Y-86556641D01*
X200830767Y-86462181D01*
X200797282Y-86400858D01*
X200802266Y-86331166D01*
X200844138Y-86275233D01*
X200909602Y-86250816D01*
X200914937Y-86250625D01*
X200915883Y-86250500D01*
X200915892Y-86250500D01*
X201043186Y-86216392D01*
X201157314Y-86150500D01*
X201250500Y-86057314D01*
X201316392Y-85943186D01*
X201350500Y-85815892D01*
X201350500Y-85684108D01*
X201350500Y-85675981D01*
X201352176Y-85675981D01*
X201361448Y-85616495D01*
X201407825Y-85564236D01*
X201475093Y-85545347D01*
X201521078Y-85554777D01*
X201655658Y-85610521D01*
X201765622Y-85624999D01*
X201765637Y-85625000D01*
X201795000Y-85625000D01*
X202045000Y-85625000D01*
X202074363Y-85625000D01*
X202074377Y-85624999D01*
X202184341Y-85610521D01*
X202184342Y-85610521D01*
X202321175Y-85553843D01*
X202438679Y-85463679D01*
X202528843Y-85346175D01*
X202585521Y-85209342D01*
X202585521Y-85209340D01*
X202596626Y-85125000D01*
X202045000Y-85125000D01*
X202045000Y-85625000D01*
X201795000Y-85625000D01*
X201795000Y-85124000D01*
X201797550Y-85115314D01*
X201796262Y-85106353D01*
X201807240Y-85082312D01*
X201814685Y-85056961D01*
X201821525Y-85051033D01*
X201825287Y-85042797D01*
X201847521Y-85028507D01*
X201867489Y-85011206D01*
X201878003Y-85008918D01*
X201884065Y-85005023D01*
X201919000Y-85000000D01*
X201920000Y-85000000D01*
X201920000Y-84999000D01*
X201939685Y-84931961D01*
X201992489Y-84886206D01*
X202044000Y-84875000D01*
X202530057Y-84875000D01*
X202545286Y-84876500D01*
G37*
%TD.AperFunction*%
%TA.AperFunction,Conductor*%
G36*
X205698677Y-100761651D02*
G01*
X205730690Y-100763941D01*
X205733133Y-100765770D01*
X205736166Y-100766133D01*
X205760918Y-100786569D01*
X205786623Y-100805812D01*
X205787690Y-100808673D01*
X205790045Y-100810618D01*
X205799821Y-100841200D01*
X205811039Y-100871277D01*
X205810670Y-100875137D01*
X205811320Y-100877169D01*
X205807130Y-100912214D01*
X205799500Y-100940689D01*
X205799500Y-100940691D01*
X205799500Y-101059309D01*
X205830201Y-101173886D01*
X205889511Y-101276613D01*
X205889513Y-101276615D01*
X205889514Y-101276616D01*
X205925047Y-101312150D01*
X205930589Y-101322300D01*
X205939560Y-101329601D01*
X205947028Y-101352406D01*
X205958532Y-101373473D01*
X205958263Y-101386711D01*
X205961306Y-101396001D01*
X205957390Y-101429759D01*
X205957364Y-101431074D01*
X205957218Y-101431631D01*
X205949500Y-101460438D01*
X205949500Y-101461277D01*
X205947338Y-101469581D01*
X205933150Y-101493232D01*
X205921980Y-101518457D01*
X205914042Y-101525087D01*
X205911397Y-101529498D01*
X205904941Y-101532690D01*
X205889341Y-101545723D01*
X205865464Y-101559508D01*
X205865459Y-101559512D01*
X205769541Y-101655430D01*
X205769535Y-101655438D01*
X205729978Y-101723953D01*
X205728229Y-101728177D01*
X205699778Y-101769946D01*
X205686589Y-101782673D01*
X205679596Y-101785935D01*
X205595935Y-101869596D01*
X205595456Y-101870622D01*
X205586108Y-101879644D01*
X205565304Y-101890528D01*
X205546958Y-101905183D01*
X205534921Y-101906424D01*
X205524200Y-101912034D01*
X205500814Y-101909942D01*
X205477458Y-101912352D01*
X205466660Y-101906888D01*
X205454608Y-101905811D01*
X205436064Y-101891408D01*
X205415114Y-101880808D01*
X205411901Y-101877101D01*
X205411736Y-101877267D01*
X205320404Y-101785935D01*
X205289002Y-101771292D01*
X205213173Y-101735932D01*
X205213171Y-101735931D01*
X205213172Y-101735931D01*
X205164317Y-101729500D01*
X205164316Y-101729500D01*
X204815684Y-101729500D01*
X204808337Y-101730467D01*
X204790681Y-101732791D01*
X204721646Y-101722022D01*
X204669392Y-101675641D01*
X204650500Y-101609851D01*
X204650500Y-101378276D01*
X204650499Y-101378269D01*
X204635015Y-101320480D01*
X204623207Y-101276412D01*
X204623205Y-101276408D01*
X204588617Y-101216500D01*
X204572144Y-101148600D01*
X204594996Y-101082573D01*
X204649917Y-101039383D01*
X204696004Y-101030500D01*
X205302299Y-101030500D01*
X205302300Y-101030500D01*
X205403558Y-100988557D01*
X205481057Y-100911058D01*
X205481056Y-100911058D01*
X205599675Y-100792438D01*
X205602354Y-100790976D01*
X205603944Y-100788369D01*
X205632826Y-100774338D01*
X205660998Y-100758956D01*
X205664042Y-100759173D01*
X205666790Y-100757839D01*
X205698677Y-100761651D01*
G37*
%TD.AperFunction*%
%TA.AperFunction,Conductor*%
G36*
X195462850Y-95857543D02*
G01*
X195487675Y-95860512D01*
X195495797Y-95867218D01*
X195505901Y-95870185D01*
X195522269Y-95889075D01*
X195541553Y-95904997D01*
X195544760Y-95915031D01*
X195551656Y-95922989D01*
X195555213Y-95947732D01*
X195562827Y-95971549D01*
X195560925Y-95987454D01*
X195561600Y-95992147D01*
X195558639Y-96006583D01*
X195549500Y-96040691D01*
X195549500Y-96159309D01*
X195580201Y-96273886D01*
X195639511Y-96376613D01*
X195639513Y-96376615D01*
X195688181Y-96425283D01*
X195721666Y-96486606D01*
X195724500Y-96512964D01*
X195724500Y-96999536D01*
X195704815Y-97066575D01*
X195688181Y-97087217D01*
X195639513Y-97135884D01*
X195639511Y-97135887D01*
X195593032Y-97216391D01*
X195580201Y-97238614D01*
X195549500Y-97353191D01*
X195549500Y-97471809D01*
X195558636Y-97505908D01*
X195558041Y-97530901D01*
X195561600Y-97555647D01*
X195557224Y-97565227D01*
X195556974Y-97575756D01*
X195542961Y-97596460D01*
X195532575Y-97619203D01*
X195523715Y-97624896D01*
X195517812Y-97633619D01*
X195494828Y-97643460D01*
X195473797Y-97656977D01*
X195457941Y-97659256D01*
X195453583Y-97661123D01*
X195438862Y-97662000D01*
X195316039Y-97662000D01*
X195249000Y-97642315D01*
X195203245Y-97589511D01*
X195194422Y-97562192D01*
X195188867Y-97534270D01*
X195188867Y-97534269D01*
X195144552Y-97467947D01*
X195130609Y-97458631D01*
X195085804Y-97405018D01*
X195075500Y-97355529D01*
X195075500Y-97090539D01*
X195092112Y-97028540D01*
X195141392Y-96943186D01*
X195175500Y-96815892D01*
X195175500Y-96684108D01*
X195141392Y-96556814D01*
X195075500Y-96442686D01*
X194982314Y-96349500D01*
X194868186Y-96283608D01*
X194794782Y-96263939D01*
X194735123Y-96227575D01*
X194704594Y-96164727D01*
X194712889Y-96095352D01*
X194739193Y-96056487D01*
X194908862Y-95886819D01*
X194970185Y-95853334D01*
X194996543Y-95850500D01*
X195438862Y-95850500D01*
X195462850Y-95857543D01*
G37*
%TD.AperFunction*%
%TA.AperFunction,Conductor*%
G36*
X200708773Y-92320185D02*
G01*
X200710595Y-92321377D01*
X200736769Y-92338867D01*
X200736771Y-92338867D01*
X200736772Y-92338868D01*
X200736770Y-92338868D01*
X200795247Y-92350499D01*
X200795250Y-92350500D01*
X201359555Y-92350500D01*
X201426594Y-92370185D01*
X201472349Y-92422989D01*
X201482293Y-92492147D01*
X201470040Y-92530795D01*
X201395115Y-92677843D01*
X201395112Y-92677849D01*
X201380180Y-92723806D01*
X201399798Y-92778784D01*
X201400000Y-92785865D01*
X201400000Y-94150000D01*
X201732828Y-94150000D01*
X201732841Y-94149999D01*
X201760205Y-94147057D01*
X201828965Y-94159461D01*
X201846347Y-94170028D01*
X201890336Y-94201987D01*
X202062841Y-94289883D01*
X202246977Y-94349713D01*
X202438198Y-94380000D01*
X202631802Y-94380000D01*
X202823022Y-94349713D01*
X203007158Y-94289883D01*
X203179652Y-94201993D01*
X203179665Y-94201985D01*
X203210806Y-94179360D01*
X203210807Y-94179359D01*
X202680739Y-93649292D01*
X202735712Y-93634563D01*
X202854287Y-93566104D01*
X202951104Y-93469287D01*
X203019563Y-93350712D01*
X203034292Y-93295740D01*
X203564358Y-93825806D01*
X203606271Y-93822508D01*
X203674648Y-93836872D01*
X203724405Y-93885923D01*
X203740000Y-93946123D01*
X203740000Y-93984624D01*
X203740001Y-93984647D01*
X203742854Y-94020910D01*
X203787969Y-94176196D01*
X203870278Y-94315374D01*
X203870285Y-94315383D01*
X203873516Y-94318614D01*
X203907001Y-94379937D01*
X203902017Y-94449629D01*
X203860145Y-94505562D01*
X203853782Y-94509187D01*
X203854097Y-94509658D01*
X203843940Y-94516444D01*
X203679942Y-94680443D01*
X203679939Y-94680446D01*
X203651872Y-94708511D01*
X203590548Y-94741994D01*
X203529602Y-94739904D01*
X203470920Y-94722856D01*
X203470908Y-94722854D01*
X203450000Y-94721209D01*
X203450000Y-95250000D01*
X203455611Y-95255611D01*
X203503539Y-95269685D01*
X203549294Y-95322489D01*
X203560500Y-95374000D01*
X203560500Y-95626000D01*
X203540815Y-95693039D01*
X203488011Y-95738794D01*
X203436500Y-95750000D01*
X202395496Y-95750000D01*
X202437968Y-95896195D01*
X202520278Y-96035374D01*
X202520285Y-96035383D01*
X202634616Y-96149714D01*
X202640785Y-96154499D01*
X202639265Y-96156457D01*
X202640068Y-96157316D01*
X202652051Y-96163270D01*
X202663450Y-96182352D01*
X202678625Y-96198599D01*
X202681811Y-96213085D01*
X202687884Y-96223251D01*
X202689360Y-96247407D01*
X202691763Y-96258332D01*
X202691563Y-96264422D01*
X202689500Y-96280099D01*
X202689500Y-96327534D01*
X202689434Y-96329553D01*
X202679104Y-96360903D01*
X202669815Y-96392539D01*
X202668227Y-96393914D01*
X202667569Y-96395913D01*
X202641926Y-96416704D01*
X202617011Y-96438294D01*
X202614672Y-96438802D01*
X202613297Y-96439918D01*
X202605669Y-96440761D01*
X202565500Y-96449500D01*
X202308676Y-96449500D01*
X202241637Y-96429815D01*
X202220995Y-96413181D01*
X202157316Y-96349502D01*
X202157314Y-96349500D01*
X202093228Y-96312500D01*
X202043187Y-96283608D01*
X201963752Y-96262324D01*
X201915892Y-96249500D01*
X201784108Y-96249500D01*
X201784106Y-96249500D01*
X201778907Y-96250185D01*
X201709871Y-96239420D01*
X201657615Y-96193041D01*
X201643643Y-96161840D01*
X201616468Y-96068302D01*
X201533193Y-95927491D01*
X201533187Y-95927483D01*
X201417516Y-95811812D01*
X201417508Y-95811806D01*
X201276695Y-95728530D01*
X201276692Y-95728528D01*
X201120001Y-95683005D01*
X201120000Y-95683006D01*
X201120000Y-96376000D01*
X201100315Y-96443039D01*
X201047511Y-96488794D01*
X200996000Y-96500000D01*
X200744000Y-96500000D01*
X200676961Y-96480315D01*
X200631206Y-96427511D01*
X200620000Y-96376000D01*
X200620000Y-95683006D01*
X200619998Y-95683005D01*
X200463307Y-95728528D01*
X200463304Y-95728530D01*
X200322491Y-95811806D01*
X200322483Y-95811812D01*
X200206807Y-95927488D01*
X200202048Y-95933624D01*
X200145405Y-95974529D01*
X200086198Y-95980326D01*
X200084153Y-95980028D01*
X200080528Y-95979500D01*
X199719472Y-95979500D01*
X199675325Y-95985932D01*
X199651828Y-95989355D01*
X199547485Y-96040365D01*
X199533839Y-96054012D01*
X199472515Y-96087496D01*
X199402824Y-96082510D01*
X199358479Y-96054010D01*
X199340404Y-96035935D01*
X199303658Y-96018800D01*
X199233173Y-95985932D01*
X199233171Y-95985931D01*
X199233172Y-95985931D01*
X199184317Y-95979500D01*
X199184316Y-95979500D01*
X198835684Y-95979500D01*
X198835683Y-95979500D01*
X198786828Y-95985931D01*
X198679595Y-96035935D01*
X198588264Y-96127267D01*
X198585440Y-96124443D01*
X198546958Y-96155183D01*
X198477458Y-96162352D01*
X198415114Y-96130808D01*
X198412092Y-96127872D01*
X198404246Y-96119986D01*
X198404065Y-96119596D01*
X198364140Y-96079671D01*
X198347510Y-96049026D01*
X198330882Y-96018575D01*
X198330893Y-96018408D01*
X198330814Y-96018261D01*
X198333381Y-95983630D01*
X198335866Y-95948883D01*
X198335973Y-95948658D01*
X198335979Y-95948583D01*
X198336061Y-95948472D01*
X198345319Y-95929090D01*
X198347031Y-95926194D01*
X198392145Y-95770910D01*
X198393790Y-95750000D01*
X197739000Y-95750000D01*
X197671961Y-95730315D01*
X197626206Y-95677511D01*
X197615000Y-95626000D01*
X197615000Y-95500000D01*
X197489000Y-95500000D01*
X197421961Y-95480315D01*
X197376206Y-95427511D01*
X197365000Y-95376000D01*
X197365000Y-95250000D01*
X197865000Y-95250000D01*
X198393790Y-95250000D01*
X202395496Y-95250000D01*
X202950000Y-95250000D01*
X202950000Y-94721210D01*
X202949999Y-94721209D01*
X202929087Y-94722854D01*
X202929081Y-94722855D01*
X202773809Y-94767966D01*
X202773804Y-94767968D01*
X202634625Y-94850278D01*
X202634616Y-94850285D01*
X202520285Y-94964616D01*
X202520278Y-94964625D01*
X202437968Y-95103804D01*
X202395496Y-95250000D01*
X198393790Y-95250000D01*
X198392145Y-95229089D01*
X198347031Y-95073804D01*
X198274616Y-94951357D01*
X198257433Y-94883633D01*
X198266787Y-94840782D01*
X198300522Y-94759339D01*
X198311626Y-94675000D01*
X197865000Y-94675000D01*
X197865000Y-95250000D01*
X197365000Y-95250000D01*
X197365000Y-94684000D01*
X197365398Y-94682641D01*
X197365030Y-94681275D01*
X197375214Y-94649212D01*
X197384685Y-94616961D01*
X197385753Y-94616034D01*
X197386183Y-94614684D01*
X197412095Y-94593209D01*
X197437489Y-94571206D01*
X197439242Y-94570711D01*
X197439980Y-94570101D01*
X197445306Y-94569003D01*
X197474054Y-94560904D01*
X197556416Y-94550904D01*
X197558983Y-94551330D01*
X197571362Y-94550000D01*
X197635000Y-94550000D01*
X197635000Y-94549000D01*
X197654685Y-94481961D01*
X197707489Y-94436206D01*
X197759000Y-94425000D01*
X198311625Y-94425000D01*
X198324642Y-94410156D01*
X198383643Y-94372731D01*
X198398474Y-94369440D01*
X198523022Y-94349713D01*
X198707158Y-94289883D01*
X198879652Y-94201993D01*
X198879658Y-94201989D01*
X198923650Y-94170028D01*
X198989456Y-94146548D01*
X199009792Y-94147057D01*
X199037155Y-94149999D01*
X199037172Y-94150000D01*
X199370000Y-94150000D01*
X199670000Y-94150000D01*
X199788674Y-94150000D01*
X199855713Y-94169685D01*
X199901468Y-94222489D01*
X199911412Y-94291647D01*
X199908450Y-94306088D01*
X199874500Y-94432791D01*
X199874500Y-94567209D01*
X199893576Y-94638401D01*
X199909290Y-94697047D01*
X199909291Y-94697048D01*
X199976495Y-94813450D01*
X199976497Y-94813453D01*
X199976498Y-94813454D01*
X200071546Y-94908502D01*
X200187954Y-94975710D01*
X200317791Y-95010500D01*
X200317794Y-95010500D01*
X200452206Y-95010500D01*
X200452209Y-95010500D01*
X200582046Y-94975710D01*
X200698454Y-94908502D01*
X200793502Y-94813454D01*
X200860710Y-94697046D01*
X200895500Y-94567209D01*
X200895500Y-94432791D01*
X200861551Y-94306092D01*
X200863214Y-94236244D01*
X200902376Y-94178381D01*
X200966605Y-94150877D01*
X200981326Y-94150000D01*
X201100000Y-94150000D01*
X201100000Y-93650000D01*
X199670000Y-93650000D01*
X199670000Y-94150000D01*
X199370000Y-94150000D01*
X199370000Y-93350000D01*
X199670000Y-93350000D01*
X201100000Y-93350000D01*
X201100000Y-92850000D01*
X200767155Y-92850000D01*
X200707627Y-92856401D01*
X200707620Y-92856403D01*
X200572913Y-92906645D01*
X200572911Y-92906647D01*
X200459311Y-92991688D01*
X200393847Y-93016105D01*
X200325574Y-93001254D01*
X200310689Y-92991688D01*
X200197088Y-92906647D01*
X200197086Y-92906645D01*
X200062379Y-92856403D01*
X200062372Y-92856401D01*
X200002844Y-92850000D01*
X199670000Y-92850000D01*
X199670000Y-93350000D01*
X199370000Y-93350000D01*
X199370000Y-92785865D01*
X199371317Y-92781377D01*
X199371262Y-92780991D01*
X199371735Y-92779953D01*
X199388980Y-92721224D01*
X199374887Y-92677849D01*
X199374884Y-92677843D01*
X199299960Y-92530795D01*
X199287064Y-92462126D01*
X199313340Y-92397385D01*
X199370447Y-92357128D01*
X199410445Y-92350500D01*
X199974750Y-92350500D01*
X199974751Y-92350499D01*
X199994418Y-92346587D01*
X200033228Y-92338868D01*
X200033228Y-92338867D01*
X200033231Y-92338867D01*
X200059375Y-92321397D01*
X200126052Y-92300520D01*
X200128266Y-92300500D01*
X200641734Y-92300500D01*
X200708773Y-92320185D01*
G37*
%TD.AperFunction*%
%TA.AperFunction,Conductor*%
G36*
X196223834Y-92836494D02*
G01*
X196279767Y-92878366D01*
X196304184Y-92943830D01*
X196304500Y-92952676D01*
X196304500Y-95007598D01*
X196295855Y-95037038D01*
X196289332Y-95067025D01*
X196285577Y-95072040D01*
X196284815Y-95074637D01*
X196268181Y-95095279D01*
X196250279Y-95113181D01*
X196188956Y-95146666D01*
X196162598Y-95149500D01*
X195848832Y-95149500D01*
X195781793Y-95129815D01*
X195736038Y-95077011D01*
X195725893Y-95009317D01*
X195730500Y-94974319D01*
X195730500Y-94525694D01*
X195730500Y-94525684D01*
X195730498Y-94525674D01*
X195730417Y-94524430D01*
X195730500Y-94524058D01*
X195730500Y-94521625D01*
X195731044Y-94521625D01*
X195745669Y-94456245D01*
X195766470Y-94428626D01*
X195879717Y-94315379D01*
X195879721Y-94315374D01*
X195962031Y-94176195D01*
X195962033Y-94176190D01*
X196007144Y-94020918D01*
X196007145Y-94020912D01*
X196008790Y-94000000D01*
X195354000Y-94000000D01*
X195286961Y-93980315D01*
X195241206Y-93927511D01*
X195230000Y-93876000D01*
X195230000Y-93624000D01*
X195249685Y-93556961D01*
X195302489Y-93511206D01*
X195354000Y-93500000D01*
X196008790Y-93500000D01*
X196007145Y-93479089D01*
X195962031Y-93323804D01*
X195879721Y-93184625D01*
X195879714Y-93184616D01*
X195872887Y-93177789D01*
X195839402Y-93116466D01*
X195844386Y-93046774D01*
X195886258Y-92990841D01*
X195928475Y-92970333D01*
X195943186Y-92966392D01*
X196057314Y-92900500D01*
X196092819Y-92864995D01*
X196154142Y-92831510D01*
X196223834Y-92836494D01*
G37*
%TD.AperFunction*%
%TA.AperFunction,Conductor*%
G36*
X208105203Y-82988043D02*
G01*
X208111681Y-82994075D01*
X208188181Y-83070575D01*
X208221666Y-83131898D01*
X208224500Y-83158256D01*
X208224500Y-86785522D01*
X208204815Y-86852561D01*
X208152011Y-86898316D01*
X208082853Y-86908260D01*
X208019297Y-86879235D01*
X208012819Y-86873203D01*
X207077738Y-85938122D01*
X207044253Y-85876799D01*
X207049237Y-85807107D01*
X207091109Y-85751174D01*
X207133323Y-85730667D01*
X207173886Y-85719799D01*
X207276613Y-85660489D01*
X207360489Y-85576613D01*
X207419799Y-85473886D01*
X207450500Y-85359309D01*
X207450500Y-85240691D01*
X207419799Y-85126114D01*
X207360489Y-85023387D01*
X207276613Y-84939511D01*
X207173886Y-84880201D01*
X207059309Y-84849500D01*
X206990478Y-84849500D01*
X206923439Y-84829815D01*
X206902797Y-84813181D01*
X206823173Y-84733557D01*
X206701295Y-84611680D01*
X206667811Y-84550358D01*
X206672795Y-84480667D01*
X206714666Y-84424733D01*
X206731572Y-84418427D01*
X206750000Y-84400000D01*
X207250000Y-84400000D01*
X207447828Y-84400000D01*
X207447844Y-84399999D01*
X207507372Y-84393598D01*
X207507379Y-84393596D01*
X207642086Y-84343354D01*
X207642093Y-84343350D01*
X207757187Y-84257190D01*
X207757190Y-84257187D01*
X207843350Y-84142093D01*
X207843354Y-84142086D01*
X207893596Y-84007379D01*
X207893598Y-84007372D01*
X207899999Y-83947844D01*
X207900000Y-83947827D01*
X207900000Y-83750000D01*
X207250000Y-83750000D01*
X207250000Y-84400000D01*
X206750000Y-84400000D01*
X206750000Y-83624000D01*
X206769685Y-83556961D01*
X206822489Y-83511206D01*
X206874000Y-83500000D01*
X207000000Y-83500000D01*
X207000000Y-83374000D01*
X207019685Y-83306961D01*
X207072489Y-83261206D01*
X207124000Y-83250000D01*
X207900000Y-83250000D01*
X207900000Y-83081756D01*
X207919685Y-83014717D01*
X207972489Y-82968962D01*
X208041647Y-82959018D01*
X208105203Y-82988043D01*
G37*
%TD.AperFunction*%
%TA.AperFunction,Conductor*%
G36*
X192103803Y-68720185D02*
G01*
X192149558Y-68772989D01*
X192159502Y-68842147D01*
X192152946Y-68867833D01*
X192106403Y-68992620D01*
X192106401Y-68992627D01*
X192100000Y-69052155D01*
X192100000Y-69250000D01*
X193928638Y-69250000D01*
X193995677Y-69269685D01*
X194016319Y-69286319D01*
X194030000Y-69300000D01*
X205970000Y-69300000D01*
X205983681Y-69286319D01*
X206045004Y-69252834D01*
X206071362Y-69250000D01*
X207900000Y-69250000D01*
X207900000Y-69052172D01*
X207899999Y-69052155D01*
X207893598Y-68992627D01*
X207893596Y-68992620D01*
X207847054Y-68867833D01*
X207842070Y-68798142D01*
X207875555Y-68736818D01*
X207936878Y-68703334D01*
X207963236Y-68700500D01*
X208736000Y-68700500D01*
X208803039Y-68720185D01*
X208848794Y-68772989D01*
X208860000Y-68824500D01*
X208860000Y-69030000D01*
X209844314Y-69030000D01*
X209839920Y-69034394D01*
X209787259Y-69125606D01*
X209760000Y-69227339D01*
X209760000Y-69332661D01*
X209787259Y-69434394D01*
X209839920Y-69525606D01*
X209844314Y-69530000D01*
X208860000Y-69530000D01*
X208860000Y-70127844D01*
X208866401Y-70187372D01*
X208866403Y-70187379D01*
X208916645Y-70322086D01*
X208916649Y-70322093D01*
X209002809Y-70437187D01*
X209002812Y-70437190D01*
X209117906Y-70523350D01*
X209117913Y-70523354D01*
X209252620Y-70573596D01*
X209252627Y-70573598D01*
X209312155Y-70579999D01*
X209312172Y-70580000D01*
X210006513Y-70580000D01*
X210073552Y-70599685D01*
X210119307Y-70652489D01*
X210129251Y-70721647D01*
X210100226Y-70785203D01*
X210041448Y-70822977D01*
X210030705Y-70825617D01*
X209868170Y-70857947D01*
X209868160Y-70857950D01*
X209686092Y-70933364D01*
X209686079Y-70933371D01*
X209522218Y-71042860D01*
X209522214Y-71042863D01*
X209382860Y-71182217D01*
X209273371Y-71346080D01*
X209273365Y-71346092D01*
X209260129Y-71378046D01*
X209216287Y-71432448D01*
X209149993Y-71454512D01*
X209082294Y-71437232D01*
X209057888Y-71418272D01*
X208806059Y-71166444D01*
X208806058Y-71166443D01*
X208704800Y-71124500D01*
X207656971Y-71124500D01*
X207650106Y-71122484D01*
X207643058Y-71123717D01*
X207617023Y-71112770D01*
X207589932Y-71104815D01*
X207583679Y-71098749D01*
X207578651Y-71096635D01*
X207557273Y-71073133D01*
X207554739Y-71070675D01*
X207554269Y-71069990D01*
X207544552Y-71055448D01*
X207544061Y-71055120D01*
X207537235Y-71045175D01*
X207529787Y-71022393D01*
X207518301Y-71001358D01*
X207519128Y-70989789D01*
X207515524Y-70978764D01*
X207521575Y-70955571D01*
X207523285Y-70931666D01*
X207530907Y-70919805D01*
X207533164Y-70911158D01*
X207539158Y-70905636D01*
X207537767Y-70904707D01*
X207576902Y-70846137D01*
X207588867Y-70828231D01*
X207588867Y-70828229D01*
X207588868Y-70828229D01*
X207600499Y-70769752D01*
X207600500Y-70769750D01*
X207600500Y-70436556D01*
X207620185Y-70369517D01*
X207650189Y-70337290D01*
X207757187Y-70257190D01*
X207757190Y-70257187D01*
X207843350Y-70142093D01*
X207843354Y-70142086D01*
X207893596Y-70007379D01*
X207893598Y-70007372D01*
X207899999Y-69947844D01*
X207900000Y-69947827D01*
X207900000Y-69750000D01*
X206150000Y-69750000D01*
X206150000Y-70373667D01*
X206130315Y-70440706D01*
X206113681Y-70461348D01*
X205810574Y-70764454D01*
X205749251Y-70797939D01*
X205741430Y-70799302D01*
X205740691Y-70799500D01*
X205626114Y-70830201D01*
X205626112Y-70830201D01*
X205626112Y-70830202D01*
X205523387Y-70889511D01*
X205523384Y-70889513D01*
X205439513Y-70973384D01*
X205439511Y-70973387D01*
X205424435Y-70999500D01*
X205380201Y-71076114D01*
X205349500Y-71190691D01*
X205349500Y-71309309D01*
X205380201Y-71423886D01*
X205439511Y-71526613D01*
X205523387Y-71610489D01*
X205626114Y-71669799D01*
X205740691Y-71700500D01*
X205740694Y-71700500D01*
X205859306Y-71700500D01*
X205859309Y-71700500D01*
X205973886Y-71669799D01*
X205973888Y-71669797D01*
X205973890Y-71669797D01*
X205981400Y-71666687D01*
X205981906Y-71667909D01*
X206041608Y-71653417D01*
X206107639Y-71676259D01*
X206150838Y-71731173D01*
X206157490Y-71800725D01*
X206151909Y-71820609D01*
X206106403Y-71942616D01*
X206106401Y-71942627D01*
X206100000Y-72002155D01*
X206100000Y-72050000D01*
X207900000Y-72050000D01*
X207900000Y-72002172D01*
X207899999Y-72002155D01*
X207893598Y-71942627D01*
X207893596Y-71942619D01*
X207856379Y-71842833D01*
X207851395Y-71773141D01*
X207884880Y-71711818D01*
X207946204Y-71678334D01*
X207972561Y-71675500D01*
X208484523Y-71675500D01*
X208551562Y-71695185D01*
X208572203Y-71711818D01*
X208709884Y-71849500D01*
X208843942Y-71983558D01*
X208843944Y-71983560D01*
X208922257Y-72015997D01*
X208945200Y-72025500D01*
X209054800Y-72025500D01*
X209079795Y-72025500D01*
X209146834Y-72045185D01*
X209192589Y-72097989D01*
X209196524Y-72108395D01*
X209273364Y-72293907D01*
X209273371Y-72293920D01*
X209382860Y-72457781D01*
X209382863Y-72457785D01*
X209522214Y-72597136D01*
X209522218Y-72597139D01*
X209686079Y-72706628D01*
X209686092Y-72706635D01*
X209846635Y-72773133D01*
X209868165Y-72782051D01*
X210059691Y-72820148D01*
X210121602Y-72852533D01*
X210156176Y-72913248D01*
X210159500Y-72941765D01*
X210159500Y-73238234D01*
X210139815Y-73305273D01*
X210087011Y-73351028D01*
X210059692Y-73359851D01*
X209868170Y-73397947D01*
X209868160Y-73397950D01*
X209686092Y-73473364D01*
X209686079Y-73473371D01*
X209522218Y-73582860D01*
X209522214Y-73582863D01*
X209382863Y-73722214D01*
X209382860Y-73722218D01*
X209273371Y-73886079D01*
X209273365Y-73886091D01*
X209268451Y-73897955D01*
X209255908Y-73913518D01*
X209247604Y-73931703D01*
X209234431Y-73940168D01*
X209224609Y-73952357D01*
X209205643Y-73958669D01*
X209188826Y-73969477D01*
X209161261Y-73973440D01*
X209158315Y-73974421D01*
X209153891Y-73974500D01*
X208915478Y-73974500D01*
X208848439Y-73954815D01*
X208827797Y-73938181D01*
X208606059Y-73716444D01*
X208606058Y-73716443D01*
X208576228Y-73704087D01*
X208576225Y-73704085D01*
X208576224Y-73704085D01*
X208504802Y-73674500D01*
X208504800Y-73674500D01*
X207972561Y-73674500D01*
X207905522Y-73654815D01*
X207859767Y-73602011D01*
X207849823Y-73532853D01*
X207856379Y-73507167D01*
X207893596Y-73407380D01*
X207893598Y-73407372D01*
X207899999Y-73347844D01*
X207900000Y-73347827D01*
X207900000Y-73300000D01*
X206100000Y-73300000D01*
X206100000Y-73347844D01*
X206106401Y-73407372D01*
X206106403Y-73407379D01*
X206156645Y-73542086D01*
X206156649Y-73542093D01*
X206242809Y-73657187D01*
X206242812Y-73657190D01*
X206349811Y-73737290D01*
X206391682Y-73793223D01*
X206399500Y-73836556D01*
X206399500Y-74169752D01*
X206411131Y-74228229D01*
X206411132Y-74228230D01*
X206462233Y-74304707D01*
X206458918Y-74306921D01*
X206481699Y-74348642D01*
X206476715Y-74418334D01*
X206460243Y-74443963D01*
X206462233Y-74445293D01*
X206411132Y-74521769D01*
X206411131Y-74521770D01*
X206399500Y-74580247D01*
X206399500Y-75019752D01*
X206411131Y-75078229D01*
X206411132Y-75078230D01*
X206462233Y-75154707D01*
X206458918Y-75156921D01*
X206481699Y-75198642D01*
X206476715Y-75268334D01*
X206460243Y-75293963D01*
X206462233Y-75295293D01*
X206411132Y-75371769D01*
X206411131Y-75371770D01*
X206399500Y-75430247D01*
X206399500Y-75869752D01*
X206411131Y-75928229D01*
X206411132Y-75928230D01*
X206462233Y-76004707D01*
X206458918Y-76006921D01*
X206481699Y-76048642D01*
X206476715Y-76118334D01*
X206460243Y-76143963D01*
X206462233Y-76145293D01*
X206411132Y-76221769D01*
X206411131Y-76221770D01*
X206399500Y-76280247D01*
X206399500Y-76719752D01*
X206411131Y-76778229D01*
X206411132Y-76778230D01*
X206462233Y-76854707D01*
X206458918Y-76856921D01*
X206481699Y-76898642D01*
X206476715Y-76968334D01*
X206460243Y-76993963D01*
X206462233Y-76995293D01*
X206411132Y-77071769D01*
X206411131Y-77071770D01*
X206399500Y-77130247D01*
X206399500Y-77569752D01*
X206411131Y-77628229D01*
X206411132Y-77628230D01*
X206462233Y-77704707D01*
X206458918Y-77706921D01*
X206481699Y-77748642D01*
X206476715Y-77818334D01*
X206460243Y-77843963D01*
X206462233Y-77845293D01*
X206411132Y-77921769D01*
X206411131Y-77921770D01*
X206399500Y-77980247D01*
X206399500Y-78419752D01*
X206411131Y-78478229D01*
X206411132Y-78478230D01*
X206462233Y-78554707D01*
X206458918Y-78556921D01*
X206481699Y-78598642D01*
X206476715Y-78668334D01*
X206473841Y-78675372D01*
X206462592Y-78700673D01*
X206455448Y-78705448D01*
X206411133Y-78771769D01*
X206399500Y-78830252D01*
X206399500Y-78842596D01*
X206389805Y-78864405D01*
X206379623Y-78876397D01*
X206373731Y-78890985D01*
X206357473Y-78902486D01*
X206344585Y-78917667D01*
X206329536Y-78922251D01*
X206316692Y-78931338D01*
X206296796Y-78932224D01*
X206277747Y-78938027D01*
X206262607Y-78933746D01*
X206246892Y-78934447D01*
X206228583Y-78924128D01*
X206210512Y-78919019D01*
X206201562Y-78908897D01*
X206188816Y-78901714D01*
X206176615Y-78889513D01*
X206176613Y-78889511D01*
X206073886Y-78830201D01*
X205959309Y-78799500D01*
X205840691Y-78799500D01*
X205726114Y-78830201D01*
X205726112Y-78830201D01*
X205726112Y-78830202D01*
X205623387Y-78889511D01*
X205623384Y-78889513D01*
X205539513Y-78973384D01*
X205539511Y-78973387D01*
X205480201Y-79076114D01*
X205449500Y-79190691D01*
X205449500Y-79309309D01*
X205480201Y-79423886D01*
X205539511Y-79526613D01*
X205623387Y-79610489D01*
X205679027Y-79642613D01*
X205727242Y-79693181D01*
X205740464Y-79761788D01*
X205714496Y-79826653D01*
X205679027Y-79857387D01*
X205623387Y-79889511D01*
X205623384Y-79889513D01*
X205539513Y-79973384D01*
X205539511Y-79973387D01*
X205480201Y-80076114D01*
X205449500Y-80190691D01*
X205449500Y-80309309D01*
X205480201Y-80423886D01*
X205539511Y-80526613D01*
X205539513Y-80526615D01*
X205591128Y-80578230D01*
X205624613Y-80639553D01*
X205619629Y-80709245D01*
X205591129Y-80753591D01*
X205539514Y-80805206D01*
X205539511Y-80805210D01*
X205480201Y-80907937D01*
X205449500Y-81022514D01*
X205449500Y-81141132D01*
X205480201Y-81255709D01*
X205539511Y-81358436D01*
X205623387Y-81442312D01*
X205623393Y-81442315D01*
X205623808Y-81442634D01*
X205624076Y-81443001D01*
X205629134Y-81448059D01*
X205628345Y-81448847D01*
X205665014Y-81499060D01*
X205669173Y-81568805D01*
X205636009Y-81628694D01*
X205586649Y-81678054D01*
X205586646Y-81678058D01*
X205527336Y-81780785D01*
X205496635Y-81895362D01*
X205496635Y-82013980D01*
X205527336Y-82128557D01*
X205586646Y-82231284D01*
X205670522Y-82315160D01*
X205773249Y-82374470D01*
X205887826Y-82405171D01*
X205887829Y-82405171D01*
X205960582Y-82405171D01*
X205990022Y-82413815D01*
X206020009Y-82420339D01*
X206025024Y-82424093D01*
X206027621Y-82424856D01*
X206048263Y-82441490D01*
X206212545Y-82605772D01*
X206246030Y-82667095D01*
X206241046Y-82736787D01*
X206224131Y-82767764D01*
X206162711Y-82849811D01*
X206106777Y-82891682D01*
X206063444Y-82899500D01*
X205730247Y-82899500D01*
X205671770Y-82911131D01*
X205671769Y-82911132D01*
X205595293Y-82962233D01*
X205593078Y-82958918D01*
X205551358Y-82981699D01*
X205481666Y-82976715D01*
X205456036Y-82960243D01*
X205454707Y-82962233D01*
X205378230Y-82911132D01*
X205378229Y-82911131D01*
X205319752Y-82899500D01*
X205319748Y-82899500D01*
X204880252Y-82899500D01*
X204880247Y-82899500D01*
X204821770Y-82911131D01*
X204821769Y-82911132D01*
X204745293Y-82962233D01*
X204743078Y-82958918D01*
X204701358Y-82981699D01*
X204631666Y-82976715D01*
X204606036Y-82960243D01*
X204604707Y-82962233D01*
X204528230Y-82911132D01*
X204528229Y-82911131D01*
X204469752Y-82899500D01*
X204469748Y-82899500D01*
X204030252Y-82899500D01*
X204030247Y-82899500D01*
X203971770Y-82911131D01*
X203971769Y-82911132D01*
X203895293Y-82962233D01*
X203893078Y-82958918D01*
X203851358Y-82981699D01*
X203781666Y-82976715D01*
X203756036Y-82960243D01*
X203754707Y-82962233D01*
X203678230Y-82911132D01*
X203678229Y-82911131D01*
X203619752Y-82899500D01*
X203619748Y-82899500D01*
X203180252Y-82899500D01*
X203180247Y-82899500D01*
X203121770Y-82911131D01*
X203121769Y-82911132D01*
X203045293Y-82962233D01*
X203043078Y-82958918D01*
X203001358Y-82981699D01*
X202931666Y-82976715D01*
X202906036Y-82960243D01*
X202904707Y-82962233D01*
X202828230Y-82911132D01*
X202828229Y-82911131D01*
X202769752Y-82899500D01*
X202769748Y-82899500D01*
X202330252Y-82899500D01*
X202330247Y-82899500D01*
X202271770Y-82911131D01*
X202271769Y-82911132D01*
X202195293Y-82962233D01*
X202193078Y-82958918D01*
X202151358Y-82981699D01*
X202081666Y-82976715D01*
X202056036Y-82960243D01*
X202054707Y-82962233D01*
X201978230Y-82911132D01*
X201978229Y-82911131D01*
X201919752Y-82899500D01*
X201919748Y-82899500D01*
X201480252Y-82899500D01*
X201480247Y-82899500D01*
X201421770Y-82911131D01*
X201421769Y-82911132D01*
X201345293Y-82962233D01*
X201343078Y-82958918D01*
X201301358Y-82981699D01*
X201231666Y-82976715D01*
X201206036Y-82960243D01*
X201204707Y-82962233D01*
X201128230Y-82911132D01*
X201128229Y-82911131D01*
X201069752Y-82899500D01*
X201069748Y-82899500D01*
X200630252Y-82899500D01*
X200630247Y-82899500D01*
X200571770Y-82911131D01*
X200571769Y-82911132D01*
X200495293Y-82962233D01*
X200493078Y-82958918D01*
X200451358Y-82981699D01*
X200381666Y-82976715D01*
X200356036Y-82960243D01*
X200354707Y-82962233D01*
X200278230Y-82911132D01*
X200278229Y-82911131D01*
X200219752Y-82899500D01*
X200219748Y-82899500D01*
X199780252Y-82899500D01*
X199780247Y-82899500D01*
X199721770Y-82911131D01*
X199721769Y-82911132D01*
X199645293Y-82962233D01*
X199643078Y-82958918D01*
X199601358Y-82981699D01*
X199531666Y-82976715D01*
X199506036Y-82960243D01*
X199504707Y-82962233D01*
X199428230Y-82911132D01*
X199428229Y-82911131D01*
X199369752Y-82899500D01*
X199369748Y-82899500D01*
X198930252Y-82899500D01*
X198930247Y-82899500D01*
X198871770Y-82911131D01*
X198871769Y-82911132D01*
X198795293Y-82962233D01*
X198793078Y-82958918D01*
X198751358Y-82981699D01*
X198681666Y-82976715D01*
X198656036Y-82960243D01*
X198654707Y-82962233D01*
X198578230Y-82911132D01*
X198578229Y-82911131D01*
X198519752Y-82899500D01*
X198519748Y-82899500D01*
X198080252Y-82899500D01*
X198080247Y-82899500D01*
X198021770Y-82911131D01*
X198021769Y-82911132D01*
X197945293Y-82962233D01*
X197943078Y-82958918D01*
X197901358Y-82981699D01*
X197831666Y-82976715D01*
X197806036Y-82960243D01*
X197804707Y-82962233D01*
X197728230Y-82911132D01*
X197728229Y-82911131D01*
X197669752Y-82899500D01*
X197669748Y-82899500D01*
X197230252Y-82899500D01*
X197230247Y-82899500D01*
X197171770Y-82911131D01*
X197171769Y-82911132D01*
X197095293Y-82962233D01*
X197093078Y-82958918D01*
X197051358Y-82981699D01*
X196981666Y-82976715D01*
X196956036Y-82960243D01*
X196954707Y-82962233D01*
X196878230Y-82911132D01*
X196878229Y-82911131D01*
X196819752Y-82899500D01*
X196819748Y-82899500D01*
X196380252Y-82899500D01*
X196380247Y-82899500D01*
X196321770Y-82911131D01*
X196321769Y-82911132D01*
X196245293Y-82962233D01*
X196243078Y-82958918D01*
X196201358Y-82981699D01*
X196131666Y-82976715D01*
X196106036Y-82960243D01*
X196104707Y-82962233D01*
X196028230Y-82911132D01*
X196028229Y-82911131D01*
X195969752Y-82899500D01*
X195969748Y-82899500D01*
X195530252Y-82899500D01*
X195530247Y-82899500D01*
X195471770Y-82911131D01*
X195471769Y-82911132D01*
X195395293Y-82962233D01*
X195393078Y-82958918D01*
X195351358Y-82981699D01*
X195281666Y-82976715D01*
X195256036Y-82960243D01*
X195254707Y-82962233D01*
X195178230Y-82911132D01*
X195178229Y-82911131D01*
X195119752Y-82899500D01*
X195119748Y-82899500D01*
X194680252Y-82899500D01*
X194680247Y-82899500D01*
X194621770Y-82911131D01*
X194621769Y-82911132D01*
X194545293Y-82962233D01*
X194543078Y-82958918D01*
X194501358Y-82981699D01*
X194431666Y-82976715D01*
X194406036Y-82960243D01*
X194404707Y-82962233D01*
X194328230Y-82911132D01*
X194328229Y-82911131D01*
X194269752Y-82899500D01*
X194269748Y-82899500D01*
X193936556Y-82899500D01*
X193869517Y-82879815D01*
X193837290Y-82849811D01*
X193757190Y-82742813D01*
X193665648Y-82674284D01*
X193623777Y-82618350D01*
X193618793Y-82548658D01*
X193652276Y-82487338D01*
X193902796Y-82236819D01*
X193964119Y-82203334D01*
X193990477Y-82200500D01*
X194059306Y-82200500D01*
X194059309Y-82200500D01*
X194173886Y-82169799D01*
X194276613Y-82110489D01*
X194360489Y-82026613D01*
X194419799Y-81923886D01*
X194450500Y-81809309D01*
X194450500Y-81690691D01*
X194419799Y-81576114D01*
X194360489Y-81473387D01*
X194276613Y-81389511D01*
X194173886Y-81330201D01*
X194059309Y-81299500D01*
X193940691Y-81299500D01*
X193835505Y-81327684D01*
X193826110Y-81330202D01*
X193759557Y-81368627D01*
X193754981Y-81369737D01*
X193751490Y-81372897D01*
X193721349Y-81377896D01*
X193691657Y-81385100D01*
X193687206Y-81383559D01*
X193682562Y-81384330D01*
X193654501Y-81372240D01*
X193625630Y-81362247D01*
X193621521Y-81358029D01*
X193618395Y-81356683D01*
X193595896Y-81331730D01*
X193594712Y-81330515D01*
X193588886Y-81321866D01*
X193588867Y-81321769D01*
X193544552Y-81255448D01*
X193543817Y-81254957D01*
X193536622Y-81244275D01*
X193529533Y-81221928D01*
X193518301Y-81201358D01*
X193519166Y-81189248D01*
X193515496Y-81177676D01*
X193521612Y-81155048D01*
X193523285Y-81131666D01*
X193531308Y-81119181D01*
X193533729Y-81110227D01*
X193538952Y-81105499D01*
X193537767Y-81104707D01*
X193553869Y-81080609D01*
X193607482Y-81035804D01*
X193656971Y-81025500D01*
X195887036Y-81025500D01*
X195954075Y-81045185D01*
X195974717Y-81061819D01*
X196023387Y-81110489D01*
X196126114Y-81169799D01*
X196240691Y-81200500D01*
X196240694Y-81200500D01*
X196359306Y-81200500D01*
X196359309Y-81200500D01*
X196473886Y-81169799D01*
X196576613Y-81110489D01*
X196660489Y-81026613D01*
X196719799Y-80923886D01*
X196750500Y-80809309D01*
X196750500Y-80690691D01*
X196719799Y-80576114D01*
X196719797Y-80576111D01*
X196719797Y-80576109D01*
X196719796Y-80576108D01*
X196679688Y-80506640D01*
X196663214Y-80438740D01*
X196686066Y-80372713D01*
X196740987Y-80329522D01*
X196754971Y-80324867D01*
X196773886Y-80319799D01*
X196876613Y-80260489D01*
X196960489Y-80176613D01*
X197019799Y-80073886D01*
X197050500Y-79959309D01*
X197050500Y-79840691D01*
X197019799Y-79726114D01*
X196960489Y-79623387D01*
X196876613Y-79539511D01*
X196773886Y-79480201D01*
X196659309Y-79449500D01*
X196540691Y-79449500D01*
X196426114Y-79480201D01*
X196426112Y-79480201D01*
X196426112Y-79480202D01*
X196323387Y-79539511D01*
X196323384Y-79539513D01*
X196274717Y-79588181D01*
X196213394Y-79621666D01*
X196187036Y-79624500D01*
X193656971Y-79624500D01*
X193650106Y-79622484D01*
X193643058Y-79623717D01*
X193617023Y-79612770D01*
X193589932Y-79604815D01*
X193583679Y-79598749D01*
X193578651Y-79596635D01*
X193557273Y-79573133D01*
X193554739Y-79570675D01*
X193554269Y-79569990D01*
X193544552Y-79555448D01*
X193544061Y-79555120D01*
X193537235Y-79545175D01*
X193529787Y-79522393D01*
X193518301Y-79501358D01*
X193519128Y-79489789D01*
X193515524Y-79478764D01*
X193521575Y-79455571D01*
X193523285Y-79431666D01*
X193530907Y-79419805D01*
X193533164Y-79411158D01*
X193539158Y-79405636D01*
X193537767Y-79404707D01*
X193580028Y-79341459D01*
X193588867Y-79328231D01*
X193588867Y-79328229D01*
X193588868Y-79328229D01*
X193600499Y-79269752D01*
X193600500Y-79269750D01*
X193600500Y-78830249D01*
X193600499Y-78830247D01*
X193588868Y-78771770D01*
X193588867Y-78771769D01*
X193537767Y-78695293D01*
X193541081Y-78693078D01*
X193518301Y-78651358D01*
X193523285Y-78581666D01*
X193525903Y-78575209D01*
X193537186Y-78549473D01*
X193544552Y-78544552D01*
X193588867Y-78478231D01*
X193596334Y-78440691D01*
X193923500Y-78440691D01*
X193923500Y-78559309D01*
X193954201Y-78673886D01*
X194013511Y-78776613D01*
X194097387Y-78860489D01*
X194200114Y-78919799D01*
X194314691Y-78950500D01*
X194314694Y-78950500D01*
X194433306Y-78950500D01*
X194433309Y-78950500D01*
X194547886Y-78919799D01*
X194650613Y-78860489D01*
X194734489Y-78776613D01*
X194793799Y-78673886D01*
X194824500Y-78559309D01*
X194824500Y-78490478D01*
X194833144Y-78461038D01*
X194839668Y-78431051D01*
X194843422Y-78426035D01*
X194844185Y-78423439D01*
X194860819Y-78402796D01*
X194951798Y-78311818D01*
X195013122Y-78278334D01*
X195039479Y-78275500D01*
X195554799Y-78275500D01*
X195554800Y-78275500D01*
X195656058Y-78233557D01*
X195733557Y-78156058D01*
X195733556Y-78156058D01*
X195983557Y-77906059D01*
X195983557Y-77906057D01*
X195986866Y-77902749D01*
X196012546Y-77883043D01*
X196051613Y-77860489D01*
X196135489Y-77776613D01*
X196194799Y-77673886D01*
X196225500Y-77559309D01*
X196225500Y-77440691D01*
X196194799Y-77326114D01*
X196135489Y-77223387D01*
X196051613Y-77139511D01*
X195948886Y-77080201D01*
X195834309Y-77049500D01*
X195715691Y-77049500D01*
X195601114Y-77080201D01*
X195601112Y-77080201D01*
X195601112Y-77080202D01*
X195498387Y-77139511D01*
X195498384Y-77139513D01*
X195414513Y-77223384D01*
X195414511Y-77223387D01*
X195355201Y-77326114D01*
X195324500Y-77440691D01*
X195324500Y-77440693D01*
X195324500Y-77559310D01*
X195326938Y-77568408D01*
X195325275Y-77638258D01*
X195286112Y-77696120D01*
X195221883Y-77723623D01*
X195207163Y-77724500D01*
X194928800Y-77724500D01*
X194819200Y-77724500D01*
X194819198Y-77724500D01*
X194819196Y-77724501D01*
X194717944Y-77766439D01*
X194471202Y-78013181D01*
X194409879Y-78046666D01*
X194383521Y-78049500D01*
X194314691Y-78049500D01*
X194200114Y-78080201D01*
X194200112Y-78080201D01*
X194200112Y-78080202D01*
X194097387Y-78139511D01*
X194097384Y-78139513D01*
X194013513Y-78223384D01*
X194013511Y-78223387D01*
X193958751Y-78318234D01*
X193954201Y-78326114D01*
X193923500Y-78440691D01*
X193596334Y-78440691D01*
X193600500Y-78419748D01*
X193600500Y-77980252D01*
X193600500Y-77980249D01*
X193600499Y-77980247D01*
X193588868Y-77921770D01*
X193588867Y-77921769D01*
X193537767Y-77845293D01*
X193541081Y-77843078D01*
X193518301Y-77801358D01*
X193523285Y-77731666D01*
X193539756Y-77706036D01*
X193537767Y-77704707D01*
X193569160Y-77657724D01*
X193588867Y-77628231D01*
X193588867Y-77628229D01*
X193588868Y-77628229D01*
X193600499Y-77569752D01*
X193600500Y-77569750D01*
X193600500Y-77130249D01*
X193600499Y-77130247D01*
X193588868Y-77071770D01*
X193588867Y-77071769D01*
X193537767Y-76995293D01*
X193541081Y-76993078D01*
X193518301Y-76951358D01*
X193523285Y-76881666D01*
X193539756Y-76856036D01*
X193537767Y-76854707D01*
X193573346Y-76801459D01*
X193588867Y-76778231D01*
X193588867Y-76778229D01*
X193588868Y-76778229D01*
X193600499Y-76719752D01*
X193600500Y-76719750D01*
X193600500Y-76280249D01*
X193600499Y-76280247D01*
X193588868Y-76221770D01*
X193588867Y-76221769D01*
X193537767Y-76145293D01*
X193541081Y-76143078D01*
X193518301Y-76101358D01*
X193523285Y-76031666D01*
X193539756Y-76006036D01*
X193537767Y-76004707D01*
X193558735Y-75973324D01*
X193588867Y-75928231D01*
X193588867Y-75928229D01*
X193588868Y-75928229D01*
X193600499Y-75869752D01*
X193600500Y-75869750D01*
X193600500Y-75430249D01*
X193600499Y-75430247D01*
X193588868Y-75371770D01*
X193588867Y-75371769D01*
X193537767Y-75295293D01*
X193541081Y-75293078D01*
X193518301Y-75251358D01*
X193523285Y-75181666D01*
X193539756Y-75156036D01*
X193537767Y-75154707D01*
X193566424Y-75111819D01*
X193588867Y-75078231D01*
X193588867Y-75078229D01*
X193588868Y-75078229D01*
X193600499Y-75019752D01*
X193600500Y-75019750D01*
X193600500Y-74580249D01*
X193600499Y-74580247D01*
X193588868Y-74521770D01*
X193588867Y-74521769D01*
X193569998Y-74493529D01*
X193549120Y-74426851D01*
X193567605Y-74359471D01*
X193619584Y-74312781D01*
X193688554Y-74301605D01*
X193735101Y-74317252D01*
X193826108Y-74369796D01*
X193826109Y-74369797D01*
X193826111Y-74369797D01*
X193826114Y-74369799D01*
X193940691Y-74400500D01*
X193940694Y-74400500D01*
X194059306Y-74400500D01*
X194059309Y-74400500D01*
X194173886Y-74369799D01*
X194276613Y-74310489D01*
X194276614Y-74310487D01*
X194283651Y-74306425D01*
X194284573Y-74308022D01*
X194340167Y-74286522D01*
X194408613Y-74300552D01*
X194458609Y-74349359D01*
X194474500Y-74410091D01*
X194474500Y-76312035D01*
X194454815Y-76379074D01*
X194438182Y-76399716D01*
X194364511Y-76473387D01*
X194310785Y-76566443D01*
X194305201Y-76576114D01*
X194274500Y-76690691D01*
X194274500Y-76809309D01*
X194305201Y-76923886D01*
X194364511Y-77026613D01*
X194448387Y-77110489D01*
X194551114Y-77169799D01*
X194665691Y-77200500D01*
X194665694Y-77200500D01*
X194784306Y-77200500D01*
X194784309Y-77200500D01*
X194898886Y-77169799D01*
X195001613Y-77110489D01*
X195085489Y-77026613D01*
X195144799Y-76923886D01*
X195175500Y-76809309D01*
X195175500Y-76690691D01*
X195144799Y-76576114D01*
X195085489Y-76473387D01*
X195061819Y-76449717D01*
X195028334Y-76388394D01*
X195025500Y-76362036D01*
X195025500Y-73445201D01*
X195025498Y-73445195D01*
X194994821Y-73371135D01*
X194994821Y-73371134D01*
X194986492Y-73351028D01*
X194983557Y-73343941D01*
X194506058Y-72866443D01*
X194489393Y-72859540D01*
X194404800Y-72824500D01*
X193656971Y-72824500D01*
X193650106Y-72822484D01*
X193643058Y-72823717D01*
X193617023Y-72812770D01*
X193589932Y-72804815D01*
X193583679Y-72798749D01*
X193578651Y-72796635D01*
X193557273Y-72773133D01*
X193554739Y-72770675D01*
X193554269Y-72769990D01*
X193544552Y-72755448D01*
X193544061Y-72755120D01*
X193537235Y-72745175D01*
X193529787Y-72722393D01*
X193518301Y-72701358D01*
X193519128Y-72689789D01*
X193515524Y-72678764D01*
X193521575Y-72655571D01*
X193523285Y-72631666D01*
X193530907Y-72619805D01*
X193533164Y-72611158D01*
X193539158Y-72605636D01*
X193537767Y-72604707D01*
X193558735Y-72573324D01*
X193588867Y-72528231D01*
X193588867Y-72528229D01*
X193588868Y-72528229D01*
X193594912Y-72497844D01*
X206100000Y-72497844D01*
X206106401Y-72557372D01*
X206106403Y-72557382D01*
X206134110Y-72631668D01*
X206139094Y-72701359D01*
X206134110Y-72718332D01*
X206106403Y-72792617D01*
X206106401Y-72792627D01*
X206100000Y-72852155D01*
X206100000Y-72900000D01*
X206800000Y-72900000D01*
X207200000Y-72900000D01*
X207900000Y-72900000D01*
X207900000Y-72852172D01*
X207899999Y-72852155D01*
X207893598Y-72792628D01*
X207865888Y-72718334D01*
X207860904Y-72648642D01*
X207865888Y-72631666D01*
X207893598Y-72557371D01*
X207899999Y-72497844D01*
X207900000Y-72497827D01*
X207900000Y-72450000D01*
X207200000Y-72450000D01*
X207200000Y-72900000D01*
X206800000Y-72900000D01*
X206800000Y-72450000D01*
X206100000Y-72450000D01*
X206100000Y-72497844D01*
X193594912Y-72497844D01*
X193600499Y-72469752D01*
X193600500Y-72469750D01*
X193600500Y-72136556D01*
X193620185Y-72069517D01*
X193650189Y-72037290D01*
X193757187Y-71957190D01*
X193757190Y-71957187D01*
X193843350Y-71842093D01*
X193843354Y-71842086D01*
X193893596Y-71707379D01*
X193893598Y-71707372D01*
X193899999Y-71647844D01*
X193900000Y-71647827D01*
X193900000Y-71600000D01*
X193124000Y-71600000D01*
X193056961Y-71580315D01*
X193011206Y-71527511D01*
X193000000Y-71476000D01*
X193000000Y-71400000D01*
X192924000Y-71400000D01*
X192856961Y-71380315D01*
X192811206Y-71327511D01*
X192800000Y-71276000D01*
X192800000Y-71200000D01*
X193200000Y-71200000D01*
X193900000Y-71200000D01*
X193900000Y-71152172D01*
X193899999Y-71152155D01*
X193893598Y-71092628D01*
X193865888Y-71018334D01*
X193860904Y-70948642D01*
X193865888Y-70931666D01*
X193893598Y-70857371D01*
X193899999Y-70797844D01*
X193900000Y-70797827D01*
X193900000Y-70750000D01*
X193200000Y-70750000D01*
X193200000Y-71200000D01*
X192800000Y-71200000D01*
X192800000Y-70750000D01*
X192100000Y-70750000D01*
X192100000Y-70779098D01*
X192080315Y-70846137D01*
X192027511Y-70891892D01*
X191958353Y-70901836D01*
X191894797Y-70872811D01*
X191888319Y-70866779D01*
X191818316Y-70796776D01*
X191793498Y-70785203D01*
X191709487Y-70746028D01*
X191709485Y-70746027D01*
X191709486Y-70746027D01*
X191659902Y-70739500D01*
X191300102Y-70739500D01*
X191291746Y-70740600D01*
X191290459Y-70740769D01*
X191221425Y-70730001D01*
X191185275Y-70704167D01*
X191055510Y-70570392D01*
X191039650Y-70540267D01*
X191023349Y-70510413D01*
X191023418Y-70509434D01*
X191022962Y-70508567D01*
X191025904Y-70474676D01*
X191028333Y-70440721D01*
X191028951Y-70439588D01*
X191029006Y-70438959D01*
X191029992Y-70437682D01*
X191045249Y-70409744D01*
X191052543Y-70400000D01*
X194250000Y-70400000D01*
X194297828Y-70400000D01*
X194297844Y-70399999D01*
X194357371Y-70393598D01*
X194431666Y-70365888D01*
X194501358Y-70360904D01*
X194518334Y-70365888D01*
X194592628Y-70393598D01*
X194592627Y-70393598D01*
X194652155Y-70399999D01*
X194652172Y-70400000D01*
X194700000Y-70400000D01*
X195100000Y-70400000D01*
X195147828Y-70400000D01*
X195147844Y-70399999D01*
X195207371Y-70393598D01*
X195281666Y-70365888D01*
X195351358Y-70360904D01*
X195368334Y-70365888D01*
X195442628Y-70393598D01*
X195442627Y-70393598D01*
X195502155Y-70399999D01*
X195502172Y-70400000D01*
X195550000Y-70400000D01*
X195950000Y-70400000D01*
X195997828Y-70400000D01*
X195997844Y-70399999D01*
X196057371Y-70393598D01*
X196131666Y-70365888D01*
X196201358Y-70360904D01*
X196218334Y-70365888D01*
X196292628Y-70393598D01*
X196292627Y-70393598D01*
X196352155Y-70399999D01*
X196352172Y-70400000D01*
X196400000Y-70400000D01*
X196800000Y-70400000D01*
X196847828Y-70400000D01*
X196847844Y-70399999D01*
X196907371Y-70393598D01*
X196981666Y-70365888D01*
X197051358Y-70360904D01*
X197068334Y-70365888D01*
X197142628Y-70393598D01*
X197142627Y-70393598D01*
X197202155Y-70399999D01*
X197202172Y-70400000D01*
X197250000Y-70400000D01*
X197650000Y-70400000D01*
X197697828Y-70400000D01*
X197697844Y-70399999D01*
X197757371Y-70393598D01*
X197831666Y-70365888D01*
X197901358Y-70360904D01*
X197918334Y-70365888D01*
X197992628Y-70393598D01*
X197992627Y-70393598D01*
X198052155Y-70399999D01*
X198052172Y-70400000D01*
X198100000Y-70400000D01*
X198500000Y-70400000D01*
X198547828Y-70400000D01*
X198547844Y-70399999D01*
X198607371Y-70393598D01*
X198681666Y-70365888D01*
X198751358Y-70360904D01*
X198768334Y-70365888D01*
X198842628Y-70393598D01*
X198842627Y-70393598D01*
X198902155Y-70399999D01*
X198902172Y-70400000D01*
X198950000Y-70400000D01*
X199350000Y-70400000D01*
X199397828Y-70400000D01*
X199397844Y-70399999D01*
X199457371Y-70393598D01*
X199531666Y-70365888D01*
X199601358Y-70360904D01*
X199618334Y-70365888D01*
X199692628Y-70393598D01*
X199692627Y-70393598D01*
X199752155Y-70399999D01*
X199752172Y-70400000D01*
X199800000Y-70400000D01*
X200200000Y-70400000D01*
X200247828Y-70400000D01*
X200247844Y-70399999D01*
X200307371Y-70393598D01*
X200381666Y-70365888D01*
X200451358Y-70360904D01*
X200468334Y-70365888D01*
X200542628Y-70393598D01*
X200542627Y-70393598D01*
X200602155Y-70399999D01*
X200602172Y-70400000D01*
X200650000Y-70400000D01*
X201050000Y-70400000D01*
X201097828Y-70400000D01*
X201097844Y-70399999D01*
X201157371Y-70393598D01*
X201231666Y-70365888D01*
X201301358Y-70360904D01*
X201318334Y-70365888D01*
X201392628Y-70393598D01*
X201392627Y-70393598D01*
X201452155Y-70399999D01*
X201452172Y-70400000D01*
X201500000Y-70400000D01*
X201900000Y-70400000D01*
X201947828Y-70400000D01*
X201947844Y-70399999D01*
X202007371Y-70393598D01*
X202081666Y-70365888D01*
X202151358Y-70360904D01*
X202168334Y-70365888D01*
X202242628Y-70393598D01*
X202242627Y-70393598D01*
X202302155Y-70399999D01*
X202302172Y-70400000D01*
X202350000Y-70400000D01*
X202750000Y-70400000D01*
X202797828Y-70400000D01*
X202797844Y-70399999D01*
X202857371Y-70393598D01*
X202931666Y-70365888D01*
X203001358Y-70360904D01*
X203018334Y-70365888D01*
X203092628Y-70393598D01*
X203092627Y-70393598D01*
X203152155Y-70399999D01*
X203152172Y-70400000D01*
X203200000Y-70400000D01*
X203600000Y-70400000D01*
X203647828Y-70400000D01*
X203647844Y-70399999D01*
X203707371Y-70393598D01*
X203781666Y-70365888D01*
X203851358Y-70360904D01*
X203868334Y-70365888D01*
X203942628Y-70393598D01*
X203942627Y-70393598D01*
X204002155Y-70399999D01*
X204002172Y-70400000D01*
X204050000Y-70400000D01*
X204450000Y-70400000D01*
X204497828Y-70400000D01*
X204497844Y-70399999D01*
X204557371Y-70393598D01*
X204631666Y-70365888D01*
X204701358Y-70360904D01*
X204718334Y-70365888D01*
X204792628Y-70393598D01*
X204792627Y-70393598D01*
X204852155Y-70399999D01*
X204852172Y-70400000D01*
X204900000Y-70400000D01*
X205300000Y-70400000D01*
X205347828Y-70400000D01*
X205347844Y-70399999D01*
X205407371Y-70393598D01*
X205481666Y-70365888D01*
X205551358Y-70360904D01*
X205568334Y-70365888D01*
X205642628Y-70393598D01*
X205642627Y-70393598D01*
X205702155Y-70399999D01*
X205702172Y-70400000D01*
X205750000Y-70400000D01*
X205750000Y-69700000D01*
X205300000Y-69700000D01*
X205300000Y-70400000D01*
X204900000Y-70400000D01*
X204900000Y-69700000D01*
X204450000Y-69700000D01*
X204450000Y-70400000D01*
X204050000Y-70400000D01*
X204050000Y-69700000D01*
X203600000Y-69700000D01*
X203600000Y-70400000D01*
X203200000Y-70400000D01*
X203200000Y-69700000D01*
X202750000Y-69700000D01*
X202750000Y-70400000D01*
X202350000Y-70400000D01*
X202350000Y-69700000D01*
X201900000Y-69700000D01*
X201900000Y-70400000D01*
X201500000Y-70400000D01*
X201500000Y-69700000D01*
X201050000Y-69700000D01*
X201050000Y-70400000D01*
X200650000Y-70400000D01*
X200650000Y-69700000D01*
X200200000Y-69700000D01*
X200200000Y-70400000D01*
X199800000Y-70400000D01*
X199800000Y-69700000D01*
X199350000Y-69700000D01*
X199350000Y-70400000D01*
X198950000Y-70400000D01*
X198950000Y-69700000D01*
X198500000Y-69700000D01*
X198500000Y-70400000D01*
X198100000Y-70400000D01*
X198100000Y-69700000D01*
X197650000Y-69700000D01*
X197650000Y-70400000D01*
X197250000Y-70400000D01*
X197250000Y-69700000D01*
X196800000Y-69700000D01*
X196800000Y-70400000D01*
X196400000Y-70400000D01*
X196400000Y-69700000D01*
X195950000Y-69700000D01*
X195950000Y-70400000D01*
X195550000Y-70400000D01*
X195550000Y-69700000D01*
X195100000Y-69700000D01*
X195100000Y-70400000D01*
X194700000Y-70400000D01*
X194700000Y-69700000D01*
X194250000Y-69700000D01*
X194250000Y-70400000D01*
X191052543Y-70400000D01*
X191118350Y-70312093D01*
X191118354Y-70312086D01*
X191168596Y-70177379D01*
X191168598Y-70177372D01*
X191174999Y-70117844D01*
X191175000Y-70117827D01*
X191175000Y-69947844D01*
X192100000Y-69947844D01*
X192106401Y-70007372D01*
X192106403Y-70007382D01*
X192134110Y-70081668D01*
X192139094Y-70151359D01*
X192134110Y-70168332D01*
X192106403Y-70242617D01*
X192106401Y-70242627D01*
X192100000Y-70302155D01*
X192100000Y-70350000D01*
X192750000Y-70350000D01*
X193250000Y-70350000D01*
X193850000Y-70350000D01*
X193850000Y-69750000D01*
X193250000Y-69750000D01*
X193250000Y-70350000D01*
X192750000Y-70350000D01*
X192750000Y-69750000D01*
X192100000Y-69750000D01*
X192100000Y-69947844D01*
X191175000Y-69947844D01*
X191175000Y-69520000D01*
X190190686Y-69520000D01*
X190195080Y-69515606D01*
X190247741Y-69424394D01*
X190275000Y-69322661D01*
X190275000Y-69217339D01*
X190247741Y-69115606D01*
X190195080Y-69024394D01*
X190190686Y-69020000D01*
X191175000Y-69020000D01*
X191175000Y-68824500D01*
X191194685Y-68757461D01*
X191247489Y-68711706D01*
X191299000Y-68700500D01*
X192036764Y-68700500D01*
X192103803Y-68720185D01*
G37*
%TD.AperFunction*%
%TA.AperFunction,Conductor*%
G36*
X190725677Y-71269685D02*
G01*
X190746319Y-71286319D01*
X190753681Y-71293681D01*
X190787166Y-71355004D01*
X190790000Y-71381362D01*
X190790000Y-73054503D01*
X190940905Y-73010663D01*
X191010775Y-73010862D01*
X191069445Y-73048804D01*
X191098288Y-73112443D01*
X191099500Y-73129739D01*
X191099500Y-74044330D01*
X191097237Y-74054763D01*
X191098261Y-74061817D01*
X191091397Y-74081689D01*
X191088361Y-74095694D01*
X191085877Y-74101151D01*
X191082608Y-74106814D01*
X191081617Y-74110512D01*
X191077361Y-74119864D01*
X191060958Y-74138843D01*
X191047897Y-74160266D01*
X191038502Y-74164827D01*
X191031675Y-74172728D01*
X191007614Y-74179827D01*
X190985046Y-74190786D01*
X190974677Y-74189544D01*
X190964662Y-74192500D01*
X190940578Y-74185462D01*
X190915672Y-74182481D01*
X190907621Y-74175832D01*
X190897597Y-74172903D01*
X190881142Y-74153963D01*
X190861800Y-74137989D01*
X190858621Y-74128042D01*
X190851773Y-74120159D01*
X190848169Y-74095329D01*
X190840535Y-74071434D01*
X190840500Y-74068500D01*
X190840500Y-73540249D01*
X190840499Y-73540247D01*
X190828868Y-73481770D01*
X190828867Y-73481769D01*
X190784552Y-73415447D01*
X190718230Y-73371132D01*
X190718229Y-73371131D01*
X190659752Y-73359500D01*
X190659748Y-73359500D01*
X189964500Y-73359500D01*
X189897461Y-73339815D01*
X189851706Y-73287011D01*
X189840500Y-73235500D01*
X189840500Y-73050052D01*
X189860185Y-72983013D01*
X189912989Y-72937258D01*
X189982147Y-72927314D01*
X190027622Y-72943320D01*
X190143806Y-73012032D01*
X190290000Y-73054504D01*
X190290000Y-72176433D01*
X190272834Y-72144996D01*
X190270000Y-72118638D01*
X190270000Y-71374000D01*
X190289685Y-71306961D01*
X190342489Y-71261206D01*
X190394000Y-71250000D01*
X190658638Y-71250000D01*
X190725677Y-71269685D01*
G37*
%TD.AperFunction*%
%TD*%
M02*
