%TF.GenerationSoftware,KiCad,Pcbnew,9.0.7-9.0.7~ubuntu22.04.1*%
%TF.CreationDate,2026-02-12T22:58:36-07:00*%
%TF.ProjectId,ESP32-S3-MINI-1U_UU,45535033-322d-4533-932d-4d494e492d31,rev?*%
%TF.SameCoordinates,Original*%
%TF.FileFunction,Copper,L1,Top*%
%TF.FilePolarity,Positive*%
%FSLAX46Y46*%
G04 Gerber Fmt 4.6, Leading zero omitted, Abs format (unit mm)*
G04 Created by KiCad (PCBNEW 9.0.7-9.0.7~ubuntu22.04.1) date 2026-02-12 22:58:36*
%MOMM*%
%LPD*%
G01*
G04 APERTURE LIST*
G04 Aperture macros list*
%AMRoundRect*
0 Rectangle with rounded corners*
0 $1 Rounding radius*
0 $2 $3 $4 $5 $6 $7 $8 $9 X,Y pos of 4 corners*
0 Add a 4 corners polygon primitive as box body*
4,1,4,$2,$3,$4,$5,$6,$7,$8,$9,$2,$3,0*
0 Add four circle primitives for the rounded corners*
1,1,$1+$1,$2,$3*
1,1,$1+$1,$4,$5*
1,1,$1+$1,$6,$7*
1,1,$1+$1,$8,$9*
0 Add four rect primitives between the rounded corners*
20,1,$1+$1,$2,$3,$4,$5,0*
20,1,$1+$1,$4,$5,$6,$7,0*
20,1,$1+$1,$6,$7,$8,$9,0*
20,1,$1+$1,$8,$9,$2,$3,0*%
%AMOutline5P*
0 Free polygon, 5 corners , with rotation*
0 The origin of the aperture is its center*
0 number of corners: always 5*
0 $1 to $10 corner X, Y*
0 $11 Rotation angle, in degrees counterclockwise*
0 create outline with 5 corners*
4,1,5,$1,$2,$3,$4,$5,$6,$7,$8,$9,$10,$1,$2,$11*%
%AMOutline6P*
0 Free polygon, 6 corners , with rotation*
0 The origin of the aperture is its center*
0 number of corners: always 6*
0 $1 to $12 corner X, Y*
0 $13 Rotation angle, in degrees counterclockwise*
0 create outline with 6 corners*
4,1,6,$1,$2,$3,$4,$5,$6,$7,$8,$9,$10,$11,$12,$1,$2,$13*%
%AMOutline7P*
0 Free polygon, 7 corners , with rotation*
0 The origin of the aperture is its center*
0 number of corners: always 7*
0 $1 to $14 corner X, Y*
0 $15 Rotation angle, in degrees counterclockwise*
0 create outline with 7 corners*
4,1,7,$1,$2,$3,$4,$5,$6,$7,$8,$9,$10,$11,$12,$13,$14,$1,$2,$15*%
%AMOutline8P*
0 Free polygon, 8 corners , with rotation*
0 The origin of the aperture is its center*
0 number of corners: always 8*
0 $1 to $16 corner X, Y*
0 $17 Rotation angle, in degrees counterclockwise*
0 create outline with 8 corners*
4,1,8,$1,$2,$3,$4,$5,$6,$7,$8,$9,$10,$11,$12,$13,$14,$15,$16,$1,$2,$17*%
G04 Aperture macros list end*
%TA.AperFunction,SMDPad,CuDef*%
%ADD10RoundRect,0.140000X-0.140000X-0.170000X0.140000X-0.170000X0.140000X0.170000X-0.140000X0.170000X0*%
%TD*%
%TA.AperFunction,SMDPad,CuDef*%
%ADD11RoundRect,0.135000X0.135000X0.185000X-0.135000X0.185000X-0.135000X-0.185000X0.135000X-0.185000X0*%
%TD*%
%TA.AperFunction,ComponentPad*%
%ADD12R,1.600000X1.600000*%
%TD*%
%TA.AperFunction,ComponentPad*%
%ADD13C,1.600000*%
%TD*%
%TA.AperFunction,SMDPad,CuDef*%
%ADD14RoundRect,0.062500X-0.117500X-0.062500X0.117500X-0.062500X0.117500X0.062500X-0.117500X0.062500X0*%
%TD*%
%TA.AperFunction,SMDPad,CuDef*%
%ADD15RoundRect,0.062500X0.117500X0.062500X-0.117500X0.062500X-0.117500X-0.062500X0.117500X-0.062500X0*%
%TD*%
%TA.AperFunction,SMDPad,CuDef*%
%ADD16R,1.000000X0.900000*%
%TD*%
%TA.AperFunction,SMDPad,CuDef*%
%ADD17RoundRect,0.140000X0.140000X0.170000X-0.140000X0.170000X-0.140000X-0.170000X0.140000X-0.170000X0*%
%TD*%
%TA.AperFunction,SMDPad,CuDef*%
%ADD18R,0.700000X0.700000*%
%TD*%
%TA.AperFunction,SMDPad,CuDef*%
%ADD19RoundRect,0.147500X0.147500X0.172500X-0.147500X0.172500X-0.147500X-0.172500X0.147500X-0.172500X0*%
%TD*%
%TA.AperFunction,SMDPad,CuDef*%
%ADD20RoundRect,0.135000X-0.185000X0.135000X-0.185000X-0.135000X0.185000X-0.135000X0.185000X0.135000X0*%
%TD*%
%TA.AperFunction,SMDPad,CuDef*%
%ADD21RoundRect,0.147500X0.172500X-0.147500X0.172500X0.147500X-0.172500X0.147500X-0.172500X-0.147500X0*%
%TD*%
%TA.AperFunction,SMDPad,CuDef*%
%ADD22RoundRect,0.135000X-0.135000X-0.185000X0.135000X-0.185000X0.135000X0.185000X-0.135000X0.185000X0*%
%TD*%
%TA.AperFunction,SMDPad,CuDef*%
%ADD23R,1.550000X0.600000*%
%TD*%
%TA.AperFunction,SMDPad,CuDef*%
%ADD24R,2.000000X1.200000*%
%TD*%
%TA.AperFunction,SMDPad,CuDef*%
%ADD25RoundRect,0.140000X0.170000X-0.140000X0.170000X0.140000X-0.170000X0.140000X-0.170000X-0.140000X0*%
%TD*%
%TA.AperFunction,SMDPad,CuDef*%
%ADD26RoundRect,0.135000X0.185000X-0.135000X0.185000X0.135000X-0.185000X0.135000X-0.185000X-0.135000X0*%
%TD*%
%TA.AperFunction,SMDPad,CuDef*%
%ADD27R,0.800000X0.400000*%
%TD*%
%TA.AperFunction,SMDPad,CuDef*%
%ADD28R,0.400000X0.800000*%
%TD*%
%TA.AperFunction,HeatsinkPad*%
%ADD29Outline5P,-0.600000X0.204000X-0.204000X0.600000X0.600000X0.600000X0.600000X-0.600000X-0.600000X-0.600000X0.000000*%
%TD*%
%TA.AperFunction,HeatsinkPad*%
%ADD30R,1.200000X1.200000*%
%TD*%
%TA.AperFunction,SMDPad,CuDef*%
%ADD31R,0.800000X0.800000*%
%TD*%
%TA.AperFunction,SMDPad,CuDef*%
%ADD32RoundRect,0.100000X0.100000X-0.562500X0.100000X0.562500X-0.100000X0.562500X-0.100000X-0.562500X0*%
%TD*%
%TA.AperFunction,SMDPad,CuDef*%
%ADD33R,1.650000X0.500000*%
%TD*%
%TA.AperFunction,SMDPad,CuDef*%
%ADD34RoundRect,0.087500X0.087500X-0.250000X0.087500X0.250000X-0.087500X0.250000X-0.087500X-0.250000X0*%
%TD*%
%TA.AperFunction,SMDPad,CuDef*%
%ADD35R,0.870000X0.300000*%
%TD*%
%TA.AperFunction,ComponentPad*%
%ADD36C,1.460000*%
%TD*%
%TA.AperFunction,SMDPad,CuDef*%
%ADD37R,0.600000X0.250000*%
%TD*%
%TA.AperFunction,SMDPad,CuDef*%
%ADD38R,1.000000X0.200000*%
%TD*%
%TA.AperFunction,ViaPad*%
%ADD39C,0.500000*%
%TD*%
%TA.AperFunction,ViaPad*%
%ADD40C,0.600000*%
%TD*%
%TA.AperFunction,Conductor*%
%ADD41C,0.150000*%
%TD*%
%TA.AperFunction,Conductor*%
%ADD42C,0.300000*%
%TD*%
%TA.AperFunction,Conductor*%
%ADD43C,0.400000*%
%TD*%
%TA.AperFunction,Conductor*%
%ADD44C,0.200000*%
%TD*%
%TA.AperFunction,Conductor*%
%ADD45C,0.250000*%
%TD*%
G04 APERTURE END LIST*
D10*
%TO.P,C11,1*%
%TO.N,3V3*%
X254380000Y-141300000D03*
%TO.P,C11,2*%
%TO.N,GND*%
X255340000Y-141300000D03*
%TD*%
D11*
%TO.P,R14,1*%
%TO.N,3V3*%
X255350000Y-139300000D03*
%TO.P,R14,2*%
%TO.N,SCL*%
X254330000Y-139300000D03*
%TD*%
D12*
%TO.P,J1,1,1*%
%TO.N,IO16*%
X242220000Y-147100000D03*
D13*
%TO.P,J1,2,2*%
%TO.N,IO17*%
X244760000Y-147100000D03*
%TO.P,J1,3,3*%
%TO.N,IO18*%
X247300000Y-147100000D03*
%TO.P,J1,4,4*%
%TO.N,5V*%
X249840000Y-147100000D03*
%TO.P,J1,5,5*%
%TO.N,GND*%
X252380000Y-147100000D03*
%TO.P,J1,6,6*%
%TO.N,IO21*%
X254920000Y-147100000D03*
%TO.P,J1,7,7*%
%TO.N,IO26*%
X257460000Y-147100000D03*
%TD*%
D14*
%TO.P,D7,1,A1*%
%TO.N,GND*%
X251760000Y-125300000D03*
%TO.P,D7,2,A2*%
%TO.N,D+*%
X250920000Y-125300000D03*
%TD*%
D15*
%TO.P,D8,1,A1*%
%TO.N,GND*%
X248820000Y-125300000D03*
%TO.P,D8,2,A2*%
%TO.N,D-*%
X249660000Y-125300000D03*
%TD*%
D16*
%TO.P,L1,1,1*%
%TO.N,Net-(IC1-SW)*%
X244500000Y-139500000D03*
%TO.P,L1,2,2*%
%TO.N,3V3*%
X244500000Y-137900000D03*
%TD*%
D17*
%TO.P,C12,1*%
%TO.N,Net-(S2-NO)*%
X255320000Y-134050000D03*
%TO.P,C12,2*%
%TO.N,GND*%
X254360000Y-134050000D03*
%TD*%
D18*
%TO.P,D6,1,DOUT*%
%TO.N,unconnected-(D6-DOUT-Pad1)*%
X254010000Y-142565000D03*
%TO.P,D6,2,VSS*%
%TO.N,GND*%
X254010000Y-143665000D03*
%TO.P,D6,3,DIN*%
%TO.N,RGB*%
X255840000Y-143665000D03*
%TO.P,D6,4,VDD*%
%TO.N,3V3*%
X255840000Y-142565000D03*
%TD*%
D17*
%TO.P,C5,1*%
%TO.N,VSYS*%
X244980000Y-140700000D03*
%TO.P,C5,2*%
%TO.N,GND*%
X244020000Y-140700000D03*
%TD*%
D19*
%TO.P,D4,1,K*%
%TO.N,GND*%
X251385000Y-136800000D03*
%TO.P,D4,2,A*%
%TO.N,Net-(D4-A)*%
X250415000Y-136800000D03*
%TD*%
D20*
%TO.P,R4,1*%
%TO.N,Net-(J2-CC2)*%
X253225000Y-130290000D03*
%TO.P,R4,2*%
%TO.N,GND*%
X253225000Y-131310000D03*
%TD*%
D12*
%TO.P,J6,1,1*%
%TO.N,IO46*%
X260000000Y-110260000D03*
D13*
%TO.P,J6,2,2*%
%TO.N,IO45*%
X260000000Y-112800000D03*
%TO.P,J6,3,3*%
%TO.N,RX*%
X260000000Y-115340000D03*
%TO.P,J6,4,4*%
%TO.N,TX*%
X260000000Y-117880000D03*
%TO.P,J6,5,5*%
%TO.N,MTMS*%
X260000000Y-120420000D03*
%TO.P,J6,6,6*%
%TO.N,MTDI*%
X260000000Y-122960000D03*
%TO.P,J6,7,7*%
%TO.N,MTDO*%
X260000000Y-125500000D03*
%TO.P,J6,8,8*%
%TO.N,MTCK*%
X260000000Y-128040000D03*
%TO.P,J6,9,9*%
%TO.N,IO38*%
X260000000Y-130580000D03*
%TO.P,J6,10,10*%
%TO.N,IO37*%
X260000000Y-133120000D03*
%TO.P,J6,11,11*%
%TO.N,IO36*%
X260000000Y-135660000D03*
%TO.P,J6,12,12*%
%TO.N,IO35*%
X260000000Y-138200000D03*
%TO.P,J6,13,13*%
%TO.N,IO34*%
X260000000Y-140740000D03*
%TO.P,J6,14,14*%
%TO.N,IO33*%
X260000000Y-143280000D03*
%TO.P,J6,15,15*%
%TO.N,IO47*%
X260000000Y-145820000D03*
%TD*%
D12*
%TO.P,J5,1,1*%
%TO.N,3V3*%
X239680000Y-115360000D03*
D13*
%TO.P,J5,2,2*%
%TO.N,LED*%
X239680000Y-117900000D03*
%TO.P,J5,3,3*%
%TO.N,IO3*%
X239680000Y-120440000D03*
%TO.P,J5,4,4*%
%TO.N,IO4*%
X239680000Y-122980000D03*
%TO.P,J5,5,5*%
%TO.N,IO5*%
X239680000Y-125520000D03*
%TO.P,J5,6,6*%
%TO.N,IO6*%
X239680000Y-128060000D03*
%TO.P,J5,7,7*%
%TO.N,IO7*%
X239680000Y-130600000D03*
%TO.P,J5,8,8*%
%TO.N,IO10*%
X239680000Y-133140000D03*
%TO.P,J5,9,9*%
%TO.N,IO11*%
X239680000Y-135680000D03*
%TO.P,J5,10,10*%
%TO.N,IO12*%
X239680000Y-138220000D03*
%TO.P,J5,11,11*%
%TO.N,IO13*%
X239680000Y-140760000D03*
%TO.P,J5,12,12*%
%TO.N,IO14*%
X239680000Y-143300000D03*
%TO.P,J5,13,13*%
%TO.N,IO15*%
X239680000Y-145840000D03*
%TD*%
D21*
%TO.P,D5,1,K*%
%TO.N,Net-(D5-K)*%
X246640000Y-129020000D03*
%TO.P,D5,2,A*%
%TO.N,LED*%
X246640000Y-128050000D03*
%TD*%
D20*
%TO.P,R12,1*%
%TO.N,Net-(D5-K)*%
X245640000Y-128050000D03*
%TO.P,R12,2*%
%TO.N,GND*%
X245640000Y-129070000D03*
%TD*%
D22*
%TO.P,R13,1*%
%TO.N,3V3*%
X244080000Y-135050000D03*
%TO.P,R13,2*%
%TO.N,Net-(S1-NO)*%
X245100000Y-135050000D03*
%TD*%
D10*
%TO.P,C9,1*%
%TO.N,V_USB*%
X246500000Y-135800000D03*
%TO.P,C9,2*%
%TO.N,GND*%
X247460000Y-135800000D03*
%TD*%
D23*
%TO.P,J3,1,Pin_1*%
%TO.N,GND*%
X252601000Y-142300000D03*
%TO.P,J3,2,Pin_2*%
%TO.N,3V3*%
X252601000Y-141300000D03*
%TO.P,J3,3,Pin_3*%
%TO.N,SDA*%
X252601000Y-140300000D03*
%TO.P,J3,4,Pin_4*%
%TO.N,SCL*%
X252601000Y-139300000D03*
D24*
%TO.P,J3,NC1,NC*%
%TO.N,unconnected-(J3-NC-PadNC1)*%
X250176000Y-143600000D03*
%TO.P,J3,NC2,NC*%
%TO.N,unconnected-(J3-NC-PadNC2)*%
X250176000Y-138000000D03*
%TD*%
D25*
%TO.P,C14,1*%
%TO.N,3V3*%
X253040000Y-136760000D03*
%TO.P,C14,2*%
%TO.N,GND*%
X253040000Y-135800000D03*
%TD*%
D11*
%TO.P,R16,1*%
%TO.N,3V3*%
X255350000Y-140300000D03*
%TO.P,R16,2*%
%TO.N,SDA*%
X254330000Y-140300000D03*
%TD*%
D26*
%TO.P,R5,1*%
%TO.N,Net-(J2-CC1)*%
X247090000Y-131560000D03*
%TO.P,R5,2*%
%TO.N,GND*%
X247090000Y-130540000D03*
%TD*%
D14*
%TO.P,D1,1,A1*%
%TO.N,GND*%
X247475000Y-134800000D03*
%TO.P,D1,2,A2*%
%TO.N,V_USB*%
X246635000Y-134800000D03*
%TD*%
D27*
%TO.P,U1,1,GND*%
%TO.N,GND*%
X242840000Y-110850000D03*
%TO.P,U1,2,GND*%
X242840000Y-111700000D03*
%TO.P,U1,3,3V3*%
%TO.N,3V3*%
X242840000Y-112550000D03*
%TO.P,U1,4,IO0*%
%TO.N,Net-(S1-NO)*%
X242840000Y-113400000D03*
%TO.P,U1,5,IO1*%
%TO.N,IO1*%
X242840000Y-114250000D03*
%TO.P,U1,6,IO2*%
%TO.N,LED*%
X242840000Y-115100000D03*
%TO.P,U1,7,IO3*%
%TO.N,IO3*%
X242840000Y-115950000D03*
%TO.P,U1,8,IO4*%
%TO.N,IO4*%
X242840000Y-116800000D03*
%TO.P,U1,9,IO5*%
%TO.N,IO5*%
X242840000Y-117650000D03*
%TO.P,U1,10,IO6*%
%TO.N,IO6*%
X242840000Y-118500000D03*
%TO.P,U1,11,IO7*%
%TO.N,IO7*%
X242840000Y-119350000D03*
%TO.P,U1,12,IO8*%
%TO.N,SDA*%
X242840000Y-120200000D03*
%TO.P,U1,13,IO9*%
%TO.N,SCL*%
X242840000Y-121050000D03*
%TO.P,U1,14,IO10*%
%TO.N,IO10*%
X242840000Y-121900000D03*
%TO.P,U1,15,IO11*%
%TO.N,IO11*%
X242840000Y-122750000D03*
D28*
%TO.P,U1,16,IO12*%
%TO.N,IO12*%
X243890000Y-123800000D03*
%TO.P,U1,17,IO13*%
%TO.N,IO13*%
X244740000Y-123800000D03*
%TO.P,U1,18,IO14*%
%TO.N,IO14*%
X245590000Y-123800000D03*
%TO.P,U1,19,IO15*%
%TO.N,IO15*%
X246440000Y-123800000D03*
%TO.P,U1,20,IO16*%
%TO.N,IO16*%
X247290000Y-123800000D03*
%TO.P,U1,21,IO17*%
%TO.N,IO17*%
X248140000Y-123800000D03*
%TO.P,U1,22,IO18*%
%TO.N,IO18*%
X248990000Y-123800000D03*
%TO.P,U1,23,USB_D-*%
%TO.N,D-*%
X249840000Y-123800000D03*
%TO.P,U1,24,USB_D+*%
%TO.N,D+*%
X250690000Y-123800000D03*
%TO.P,U1,25,IO21*%
%TO.N,IO21*%
X251540000Y-123800000D03*
%TO.P,U1,26,IO26*%
%TO.N,IO26*%
X252390000Y-123800000D03*
%TO.P,U1,27,IO47*%
%TO.N,IO47*%
X253240000Y-123800000D03*
%TO.P,U1,28,IO33*%
%TO.N,IO33*%
X254090000Y-123800000D03*
%TO.P,U1,29,IO34*%
%TO.N,IO34*%
X254940000Y-123800000D03*
%TO.P,U1,30,IO48*%
%TO.N,RGB*%
X255790000Y-123800000D03*
D27*
%TO.P,U1,31,IO35*%
%TO.N,IO35*%
X256840000Y-122750000D03*
%TO.P,U1,32,IO36*%
%TO.N,IO36*%
X256840000Y-121900000D03*
%TO.P,U1,33,IO37*%
%TO.N,IO37*%
X256840000Y-121050000D03*
%TO.P,U1,34,IO38*%
%TO.N,IO38*%
X256840000Y-120200000D03*
%TO.P,U1,35,IO39*%
%TO.N,MTCK*%
X256840000Y-119350000D03*
%TO.P,U1,36,IO40*%
%TO.N,MTDO*%
X256840000Y-118500000D03*
%TO.P,U1,37,IO41*%
%TO.N,MTDI*%
X256840000Y-117650000D03*
%TO.P,U1,38,IO42*%
%TO.N,MTMS*%
X256840000Y-116800000D03*
%TO.P,U1,39,TXD0*%
%TO.N,TX*%
X256840000Y-115950000D03*
%TO.P,U1,40,RXD0*%
%TO.N,RX*%
X256840000Y-115100000D03*
%TO.P,U1,41,IO45*%
%TO.N,IO45*%
X256840000Y-114250000D03*
%TO.P,U1,42,GND*%
%TO.N,GND*%
X256840000Y-113400000D03*
%TO.P,U1,43,GND*%
X256840000Y-112550000D03*
%TO.P,U1,44,IO46*%
%TO.N,IO46*%
X256840000Y-111700000D03*
%TO.P,U1,45,EN*%
%TO.N,Net-(S2-NO)*%
X256840000Y-110850000D03*
D28*
%TO.P,U1,46,GND*%
%TO.N,GND*%
X255790000Y-109800000D03*
%TO.P,U1,47,GND*%
X254940000Y-109800000D03*
%TO.P,U1,48,GND*%
X254090000Y-109800000D03*
%TO.P,U1,49,GND*%
X253240000Y-109800000D03*
%TO.P,U1,50,GND*%
X252390000Y-109800000D03*
%TO.P,U1,51,GND*%
X251540000Y-109800000D03*
%TO.P,U1,52,GND*%
X250690000Y-109800000D03*
%TO.P,U1,53,GND*%
X249840000Y-109800000D03*
%TO.P,U1,54,GND*%
X248990000Y-109800000D03*
%TO.P,U1,55,GND*%
X248140000Y-109800000D03*
%TO.P,U1,56,GND*%
X247290000Y-109800000D03*
%TO.P,U1,57,GND*%
X246440000Y-109800000D03*
%TO.P,U1,58,GND*%
X245590000Y-109800000D03*
%TO.P,U1,59,GND*%
X244740000Y-109800000D03*
%TO.P,U1,60,GND*%
X243890000Y-109800000D03*
D29*
%TO.P,U1,61,GND*%
X248190000Y-115150000D03*
D30*
X248190000Y-116800000D03*
X248190000Y-118450000D03*
X249840000Y-115150000D03*
X249840000Y-116800000D03*
X249840000Y-118450000D03*
X251490000Y-115150000D03*
X251490000Y-116800000D03*
X251490000Y-118450000D03*
D31*
%TO.P,U1,62,GND*%
X242840000Y-109800000D03*
%TO.P,U1,63,GND*%
X242840000Y-123800000D03*
%TO.P,U1,64,GND*%
X256840000Y-123800000D03*
%TO.P,U1,65,GND*%
X256840000Y-109800000D03*
%TD*%
D17*
%TO.P,C4,1*%
%TO.N,3V3*%
X241340000Y-113000000D03*
%TO.P,C4,2*%
%TO.N,GND*%
X240380000Y-113000000D03*
%TD*%
D20*
%TO.P,R1,1*%
%TO.N,Net-(IC1-PG)*%
X248600000Y-139290000D03*
%TO.P,R1,2*%
%TO.N,VSYS*%
X248600000Y-140310000D03*
%TD*%
D32*
%TO.P,U3,1,VIN*%
%TO.N,5V*%
X247050000Y-144287500D03*
%TO.P,U3,2,GND*%
%TO.N,GND*%
X247700000Y-144287500D03*
%TO.P,U3,3,~{CE}*%
%TO.N,V_USB*%
X248350000Y-144287500D03*
%TO.P,U3,4,NC*%
%TO.N,unconnected-(U3-NC-Pad4)*%
X248350000Y-142512500D03*
%TO.P,U3,5,ST*%
%TO.N,unconnected-(U3-ST-Pad5)*%
X247700000Y-142512500D03*
%TO.P,U3,6,VOUT*%
%TO.N,VSYS*%
X247050000Y-142512500D03*
%TD*%
D25*
%TO.P,C1,1*%
%TO.N,3V3*%
X246600000Y-137980000D03*
%TO.P,C1,2*%
%TO.N,GND*%
X246600000Y-137020000D03*
%TD*%
D32*
%TO.P,U2,1,VIN*%
%TO.N,V_USB*%
X244450000Y-144287500D03*
%TO.P,U2,2,GND*%
%TO.N,GND*%
X245100000Y-144287500D03*
%TO.P,U2,3,~{CE}*%
%TO.N,5V*%
X245750000Y-144287500D03*
%TO.P,U2,4,NC*%
%TO.N,unconnected-(U2-NC-Pad4)*%
X245750000Y-142512500D03*
%TO.P,U2,5,ST*%
%TO.N,unconnected-(U2-ST-Pad5)*%
X245100000Y-142512500D03*
%TO.P,U2,6,VOUT*%
%TO.N,VSYS*%
X244450000Y-142512500D03*
%TD*%
D33*
%TO.P,S1,1,COM*%
%TO.N,GND*%
X244340000Y-130550000D03*
%TO.P,S1,2,NO*%
%TO.N,Net-(S1-NO)*%
X244340000Y-132850000D03*
%TD*%
D10*
%TO.P,C10,1*%
%TO.N,Net-(S1-NO)*%
X244110000Y-134050000D03*
%TO.P,C10,2*%
%TO.N,GND*%
X245070000Y-134050000D03*
%TD*%
D22*
%TO.P,R11,1*%
%TO.N,V_USB*%
X248480000Y-136800000D03*
%TO.P,R11,2*%
%TO.N,Net-(D4-A)*%
X249500000Y-136800000D03*
%TD*%
D34*
%TO.P,U4,1,SCL*%
%TO.N,SCL*%
X254340000Y-138212500D03*
%TO.P,U4,2,GND*%
%TO.N,GND*%
X254840000Y-138212500D03*
%TO.P,U4,3,ALERT*%
%TO.N,unconnected-(U4-ALERT-Pad3)*%
X255340000Y-138212500D03*
%TO.P,U4,4,ADD0*%
%TO.N,GND*%
X255340000Y-136787500D03*
%TO.P,U4,5,V+*%
%TO.N,3V3*%
X254840000Y-136787500D03*
%TO.P,U4,6,SDA*%
%TO.N,SDA*%
X254340000Y-136787500D03*
%TD*%
D22*
%TO.P,R17,1*%
%TO.N,3V3*%
X254330000Y-135050000D03*
%TO.P,R17,2*%
%TO.N,Net-(S2-NO)*%
X255350000Y-135050000D03*
%TD*%
D12*
%TO.P,J4,1,1*%
%TO.N,GND*%
X239680000Y-110270000D03*
%TD*%
D17*
%TO.P,C3,1*%
%TO.N,3V3*%
X241320000Y-112000000D03*
%TO.P,C3,2*%
%TO.N,GND*%
X240360000Y-112000000D03*
%TD*%
D25*
%TO.P,C2,1*%
%TO.N,3V3*%
X247600000Y-137980000D03*
%TO.P,C2,2*%
%TO.N,GND*%
X247600000Y-137020000D03*
%TD*%
D35*
%TO.P,J2,A1,GND_1*%
%TO.N,GND*%
X249360000Y-133800000D03*
%TO.P,J2,A4,VBUS_1*%
%TO.N,V_USB*%
X249360000Y-132300000D03*
%TO.P,J2,A5,CC1*%
%TO.N,Net-(J2-CC1)*%
X249360000Y-131800000D03*
%TO.P,J2,A6,DP1*%
%TO.N,D+*%
X249360000Y-131300000D03*
%TO.P,J2,A7,DN1*%
%TO.N,D-*%
X249360000Y-130800000D03*
%TO.P,J2,A8,SBU1*%
%TO.N,unconnected-(J2-SBU1-PadA8)*%
X249360000Y-130300000D03*
%TO.P,J2,A9,VBUS_2*%
%TO.N,V_USB*%
X249360000Y-129800000D03*
%TO.P,J2,A12,GND_2*%
%TO.N,GND*%
X249360000Y-128300000D03*
%TO.P,J2,B1,GND_3*%
X251090000Y-128300000D03*
%TO.P,J2,B4,VBUS_3*%
%TO.N,V_USB*%
X251090000Y-129800000D03*
%TO.P,J2,B5,CC2*%
%TO.N,Net-(J2-CC2)*%
X251090000Y-130300000D03*
%TO.P,J2,B6,DP2*%
%TO.N,D+*%
X251090000Y-130800000D03*
%TO.P,J2,B7,DN2*%
%TO.N,D-*%
X251090000Y-131300000D03*
%TO.P,J2,B8,SBU2*%
%TO.N,unconnected-(J2-SBU2-PadB8)*%
X251090000Y-131800000D03*
%TO.P,J2,B9,VBUS_4*%
%TO.N,V_USB*%
X251090000Y-132300000D03*
%TO.P,J2,B12,GND_4*%
%TO.N,GND*%
X251090000Y-133800000D03*
D36*
%TO.P,J2,MH1,MH1*%
X248075000Y-133450000D03*
%TO.P,J2,MH2,MH2*%
X248075000Y-128650000D03*
%TO.P,J2,MH3,MH3*%
X252375000Y-128650000D03*
%TO.P,J2,MH4,MH4*%
X252375000Y-133450000D03*
%TD*%
D33*
%TO.P,S2,1,COM*%
%TO.N,GND*%
X255090000Y-130550000D03*
%TO.P,S2,2,NO*%
%TO.N,Net-(S2-NO)*%
X255090000Y-132850000D03*
%TD*%
D37*
%TO.P,IC1,1,EN*%
%TO.N,VSYS*%
X247500000Y-140100000D03*
%TO.P,IC1,2,PG*%
%TO.N,Net-(IC1-PG)*%
X247500000Y-139600000D03*
%TO.P,IC1,3,FB*%
%TO.N,3V3*%
X247500000Y-139100000D03*
D38*
%TO.P,IC1,4,GND*%
%TO.N,GND*%
X246400000Y-139100000D03*
%TO.P,IC1,5,SW*%
%TO.N,Net-(IC1-SW)*%
X246400000Y-139600000D03*
%TO.P,IC1,6,VIN*%
%TO.N,VSYS*%
X246400000Y-140100000D03*
%TD*%
D39*
%TO.N,LED*%
X242000000Y-115100000D03*
%TO.N,GND*%
X248400000Y-121600000D03*
X244050000Y-141250000D03*
D40*
X245500000Y-138750000D03*
D39*
X256025000Y-128600000D03*
X250700000Y-140300000D03*
X252100000Y-138100000D03*
X256778768Y-139078768D03*
X243840000Y-112700000D03*
X254340000Y-111600000D03*
X254000000Y-145200000D03*
D40*
X248100000Y-135800000D03*
D39*
X258400000Y-145700000D03*
X245840000Y-134050000D03*
X246600000Y-122800000D03*
X246700000Y-119600000D03*
X256700000Y-133700000D03*
X252340000Y-126800000D03*
X257940000Y-109800000D03*
D40*
X252100000Y-135800000D03*
D39*
X246400000Y-145200000D03*
D40*
X253225000Y-132050000D03*
X248600000Y-137900000D03*
D39*
X245400000Y-136700000D03*
X258040000Y-113600000D03*
X243840000Y-119300000D03*
X253940000Y-122100000D03*
X247576646Y-130800000D03*
X257262000Y-143800000D03*
X256840000Y-124775000D03*
D40*
X250225000Y-129050000D03*
D39*
X243900000Y-122800000D03*
D40*
X250225000Y-133050000D03*
D39*
X244550000Y-129350000D03*
X248090000Y-126800000D03*
D40*
X255740000Y-118700000D03*
D39*
X255941000Y-141300000D03*
X253298768Y-137701232D03*
%TO.N,IO1*%
X243840000Y-114250000D03*
X250800000Y-144900000D03*
%TO.N,IO36*%
X255740000Y-121381823D03*
%TO.N,IO35*%
X255787135Y-122254671D03*
%TO.N,LED*%
X246200000Y-126700000D03*
%TO.N,IO37*%
X255740000Y-120550000D03*
%TO.N,3V3*%
X250700000Y-141300000D03*
X252175000Y-136800000D03*
D40*
X243440000Y-135775000D03*
X244515000Y-137050000D03*
X241340000Y-113700000D03*
D39*
%TO.N,SCL*%
X247500000Y-121050000D03*
X253900000Y-138212500D03*
%TO.N,SDA*%
X247500000Y-120200000D03*
X254628255Y-135963204D03*
X253740000Y-140300000D03*
%TO.N,D+*%
X252225000Y-130800000D03*
D40*
X250690000Y-126050000D03*
D39*
X248225000Y-131300000D03*
%TO.N,RGB*%
X256840000Y-125600000D03*
X256450000Y-140150000D03*
%TO.N,D-*%
X252225000Y-131600000D03*
D40*
X249840000Y-126050000D03*
D39*
X248225000Y-130400000D03*
D40*
%TO.N,Net-(S1-NO)*%
X245590000Y-132800000D03*
D39*
X244565000Y-117050000D03*
%TO.N,Net-(S2-NO)*%
X255640000Y-111550000D03*
X256340000Y-132800000D03*
%TO.N,IO12*%
X241789914Y-127989914D03*
%TO.N,IO11*%
X242840000Y-125050000D03*
X243840000Y-122050000D03*
X241716000Y-127200000D03*
%TO.N,IO38*%
X255740000Y-119550000D03*
%TO.N,V_USB*%
X243400000Y-143700000D03*
X249200000Y-144650002D03*
D40*
X243440000Y-137000000D03*
%TD*%
D41*
%TO.N,GND*%
X254000000Y-145200000D02*
X253500000Y-145700000D01*
X253500000Y-145700000D02*
X248450001Y-145700000D01*
X248450001Y-145700000D02*
X247700000Y-144949999D01*
X247700000Y-144949999D02*
X247700000Y-144287500D01*
D42*
X255340000Y-141300000D02*
X255941000Y-141300000D01*
X244020000Y-140700000D02*
X243200000Y-140700000D01*
X243200000Y-140700000D02*
X243100000Y-140600000D01*
X243100000Y-140600000D02*
X243100000Y-139150000D01*
X243100000Y-139150000D02*
X243500000Y-138750000D01*
D41*
X244340000Y-130550000D02*
X244340000Y-129560000D01*
X244340000Y-129560000D02*
X244550000Y-129350000D01*
X244550000Y-129350000D02*
X244830000Y-129070000D01*
X244830000Y-129070000D02*
X245640000Y-129070000D01*
%TO.N,LED*%
X241700000Y-115400000D02*
X242000000Y-115100000D01*
X241700000Y-115400000D02*
X241700000Y-116000000D01*
X241700000Y-116000000D02*
X239810000Y-117890000D01*
X239810000Y-117890000D02*
X239756000Y-117890000D01*
%TO.N,GND*%
X254840000Y-137800000D02*
X255340000Y-137300000D01*
D42*
X245800000Y-136700000D02*
X246120000Y-137020000D01*
D43*
X240360000Y-112980000D02*
X240380000Y-113000000D01*
X241840000Y-109800000D02*
X242840000Y-109800000D01*
D44*
X249360000Y-128300000D02*
X248425000Y-128300000D01*
X249360000Y-133800000D02*
X248425000Y-133800000D01*
D43*
X241950000Y-110850000D02*
X241370000Y-110270000D01*
D44*
X245100000Y-134080000D02*
X245070000Y-134050000D01*
D41*
X245100000Y-144949999D02*
X245100000Y-144287500D01*
D44*
X243840000Y-122800000D02*
X242840000Y-123800000D01*
D42*
X240360000Y-110215000D02*
X239831000Y-109686000D01*
X244020000Y-141220000D02*
X244050000Y-141250000D01*
D43*
X240360000Y-110739000D02*
X239881000Y-110260000D01*
D44*
X251090000Y-133800000D02*
X252025000Y-133800000D01*
D41*
X253940000Y-122100000D02*
X254740000Y-122900000D01*
D42*
X252100000Y-135800000D02*
X251800000Y-135800000D01*
D44*
X245500000Y-138750000D02*
X245485500Y-138750000D01*
D43*
X240360000Y-112000000D02*
X240360000Y-112980000D01*
X247489993Y-130800000D02*
X247229993Y-130540000D01*
D44*
X251760000Y-126220000D02*
X252340000Y-126800000D01*
D42*
X252100000Y-135600000D02*
X253650000Y-134050000D01*
X253650000Y-134050000D02*
X254360000Y-134050000D01*
D41*
X246300000Y-145300000D02*
X245450001Y-145300000D01*
D45*
X245450000Y-138700000D02*
X243550000Y-138700000D01*
D44*
X248820000Y-126070000D02*
X248090000Y-126800000D01*
D45*
X245500000Y-138750000D02*
X245450000Y-138700000D01*
D41*
X246400000Y-145200000D02*
X246300000Y-145300000D01*
D43*
X239881000Y-110270000D02*
X241370000Y-110270000D01*
X241370000Y-110270000D02*
X241840000Y-109800000D01*
D42*
X244050000Y-141250000D02*
X243950000Y-141250000D01*
D45*
X245850000Y-139100000D02*
X246400000Y-139100000D01*
D43*
X247576646Y-130800000D02*
X247489993Y-130800000D01*
D44*
X252025000Y-128300000D02*
X252375000Y-128650000D01*
X253225000Y-131310000D02*
X253225000Y-132050000D01*
D43*
X240360000Y-112000000D02*
X240360000Y-110739000D01*
D44*
X248425000Y-133800000D02*
X248075000Y-133450000D01*
D42*
X244020000Y-140700000D02*
X244020000Y-141220000D01*
D41*
X245450001Y-145300000D02*
X245100000Y-144949999D01*
X254840000Y-138212500D02*
X254840000Y-137800000D01*
D43*
X242840000Y-110850000D02*
X241950000Y-110850000D01*
D42*
X251385000Y-136215000D02*
X251385000Y-136800000D01*
X246120000Y-137020000D02*
X247600000Y-137020000D01*
X252100000Y-135800000D02*
X252100000Y-135600000D01*
D41*
X255940000Y-122900000D02*
X256840000Y-123800000D01*
D42*
X252100000Y-135800000D02*
X253040000Y-135800000D01*
D44*
X251760000Y-125300000D02*
X251760000Y-126220000D01*
X248425000Y-128300000D02*
X248075000Y-128650000D01*
D42*
X251800000Y-135800000D02*
X251385000Y-136215000D01*
D44*
X251090000Y-128300000D02*
X252025000Y-128300000D01*
D45*
X245500000Y-138750000D02*
X245850000Y-139100000D01*
D42*
X243950000Y-141250000D02*
X244020000Y-141180000D01*
D44*
X248820000Y-125300000D02*
X248820000Y-126070000D01*
D43*
X247229993Y-130540000D02*
X246975000Y-130540000D01*
D45*
X243550000Y-138700000D02*
X243500000Y-138750000D01*
D41*
X254740000Y-122900000D02*
X255940000Y-122900000D01*
D45*
X245500000Y-138750000D02*
X245500000Y-138800000D01*
D44*
X245485500Y-138750000D02*
X245449000Y-138713500D01*
X249360000Y-128300000D02*
X251090000Y-128300000D01*
X252025000Y-133800000D02*
X252375000Y-133450000D01*
D42*
X245400000Y-136700000D02*
X245800000Y-136700000D01*
D41*
X255340000Y-137300000D02*
X255340000Y-136787500D01*
D42*
%TO.N,VSYS*%
X244980000Y-141299232D02*
X244980000Y-140700000D01*
D45*
X245900000Y-140100000D02*
X246400000Y-140100000D01*
D42*
X244980000Y-141200000D02*
X245080000Y-141300000D01*
D41*
X248390000Y-140100000D02*
X248600000Y-140310000D01*
X247500000Y-140100000D02*
X248390000Y-140100000D01*
D42*
X246600000Y-141300000D02*
X247050000Y-141750000D01*
X244980000Y-140700000D02*
X244980000Y-141200000D01*
D45*
X244980000Y-140700000D02*
X245300000Y-140700000D01*
D42*
X244450000Y-142512500D02*
X244450000Y-141829232D01*
X245080000Y-141300000D02*
X246600000Y-141300000D01*
D45*
X245300000Y-140700000D02*
X245900000Y-140100000D01*
X247500000Y-140100000D02*
X246400000Y-140100000D01*
D42*
X244450000Y-141829232D02*
X244980000Y-141299232D01*
X247050000Y-141750000D02*
X247050000Y-142512500D01*
D41*
%TO.N,IO34*%
X258840000Y-139580000D02*
X259924000Y-140664000D01*
X254940000Y-124650000D02*
X258464000Y-128174000D01*
X258464000Y-128174000D02*
X258464000Y-129029306D01*
X258464000Y-129029306D02*
X258840000Y-129405306D01*
X254940000Y-123800000D02*
X254940000Y-124650000D01*
X258840000Y-129405306D02*
X258840000Y-139580000D01*
D44*
%TO.N,IO1*%
X242840000Y-114250000D02*
X243840000Y-114250000D01*
D41*
%TO.N,IO36*%
X256840000Y-121900000D02*
X256258177Y-121900000D01*
X256258177Y-121900000D02*
X255739488Y-121381311D01*
%TO.N,IO35*%
X255787135Y-122254671D02*
X255834270Y-122301806D01*
X256790000Y-122800000D02*
X256840000Y-122750000D01*
X255838194Y-122301806D02*
X256336389Y-122800000D01*
X256336389Y-122800000D02*
X256790000Y-122800000D01*
X255834270Y-122301806D02*
X255838194Y-122301806D01*
%TO.N,LED*%
X246640000Y-127040000D02*
X246228768Y-126628768D01*
X246640000Y-128215000D02*
X246640000Y-127040000D01*
%TO.N,Net-(D5-K)*%
X246610000Y-129020000D02*
X245640000Y-128050000D01*
X246640000Y-129020000D02*
X246610000Y-129020000D01*
%TO.N,IO37*%
X255783192Y-120682552D02*
X256150640Y-121050000D01*
X256150640Y-121050000D02*
X256840000Y-121050000D01*
D42*
%TO.N,3V3*%
X254380000Y-141709999D02*
X254380000Y-141300000D01*
X255235001Y-142565000D02*
X255840000Y-142565000D01*
D44*
X255280000Y-140300000D02*
X255350000Y-140300000D01*
D43*
X244680000Y-137880000D02*
X244515000Y-137715000D01*
D41*
X253676000Y-136264000D02*
X253676000Y-135214000D01*
D44*
X253070000Y-136800000D02*
X253090000Y-136780000D01*
D41*
X255350000Y-140300000D02*
X255350000Y-140310000D01*
D43*
X241340000Y-112550000D02*
X241320000Y-112530000D01*
D44*
X254380000Y-141270000D02*
X255350000Y-140300000D01*
D41*
X247500000Y-138080000D02*
X247600000Y-137980000D01*
X254840000Y-137176848D02*
X254840000Y-136787500D01*
X252175000Y-136800000D02*
X253000000Y-136800000D01*
D43*
X244580000Y-137980000D02*
X244500000Y-137900000D01*
D44*
X254380000Y-141300000D02*
X254380000Y-141270000D01*
D41*
X253090000Y-136780000D02*
X253160000Y-136780000D01*
D43*
X250700000Y-141300000D02*
X252601000Y-141300000D01*
D42*
X255235001Y-142565000D02*
X254380000Y-141709999D01*
D41*
X253120000Y-136780000D02*
X253840000Y-137500000D01*
D43*
X241340000Y-113700000D02*
X241340000Y-112550000D01*
D41*
X253840000Y-135050000D02*
X254330000Y-135050000D01*
D43*
X242840000Y-112550000D02*
X241340000Y-112550000D01*
X247600000Y-137980000D02*
X246600000Y-137980000D01*
D41*
X255350000Y-140300000D02*
X255350000Y-139300000D01*
X254516848Y-137500000D02*
X254840000Y-137176848D01*
X253160000Y-136780000D02*
X253676000Y-136264000D01*
D43*
X246600000Y-137980000D02*
X244580000Y-137980000D01*
X241320000Y-112530000D02*
X241320000Y-112000000D01*
X252601000Y-141300000D02*
X254160000Y-141300000D01*
D41*
X243440000Y-135775000D02*
X243440000Y-135690000D01*
X243440000Y-135690000D02*
X244080000Y-135050000D01*
D43*
X244515000Y-137715000D02*
X244515000Y-137050000D01*
D41*
X253676000Y-135214000D02*
X253840000Y-135050000D01*
X253000000Y-136800000D02*
X253040000Y-136760000D01*
D43*
X254160000Y-141300000D02*
X254260000Y-141400000D01*
D41*
X253840000Y-137500000D02*
X254516848Y-137500000D01*
X253090000Y-136780000D02*
X253120000Y-136780000D01*
X247500000Y-139100000D02*
X247500000Y-138080000D01*
%TO.N,Net-(IC1-PG)*%
X248290000Y-139600000D02*
X248600000Y-139290000D01*
X247500000Y-139600000D02*
X248290000Y-139600000D01*
%TO.N,Net-(J2-CC1)*%
X249360000Y-131800000D02*
X248539588Y-131800000D01*
X247670412Y-131560000D02*
X247090000Y-131560000D01*
X248539588Y-131800000D02*
X248463588Y-131876000D01*
X247986412Y-131876000D02*
X247670412Y-131560000D01*
X248463588Y-131876000D02*
X247986412Y-131876000D01*
%TO.N,Net-(J2-CC2)*%
X252580000Y-130290000D02*
X253225000Y-130290000D01*
X251910412Y-130300000D02*
X251986412Y-130224000D01*
X251986412Y-130224000D02*
X252463588Y-130224000D01*
X252570000Y-130300000D02*
X252580000Y-130290000D01*
X252539588Y-130300000D02*
X252570000Y-130300000D01*
X252463588Y-130224000D02*
X252539588Y-130300000D01*
X251090000Y-130300000D02*
X251910412Y-130300000D01*
%TO.N,SCL*%
X242840000Y-121050000D02*
X247500000Y-121050000D01*
D44*
X254330000Y-139300000D02*
X254340000Y-139290000D01*
D41*
X254340000Y-138212500D02*
X253900000Y-138212500D01*
X254340000Y-139290000D02*
X254340000Y-138212500D01*
X253740000Y-139300000D02*
X254330000Y-139300000D01*
X252851000Y-139300000D02*
X253740000Y-139300000D01*
D44*
X253826000Y-138100000D02*
X253926000Y-138200000D01*
%TO.N,Net-(D4-A)*%
X250415000Y-136800000D02*
X249500000Y-136800000D01*
D41*
%TO.N,SDA*%
X252851000Y-140300000D02*
X253740000Y-140300000D01*
X254340000Y-136787500D02*
X254340000Y-136251459D01*
X253740000Y-140300000D02*
X254330000Y-140300000D01*
X247500000Y-120200000D02*
X242840000Y-120200000D01*
X254340000Y-136251459D02*
X254628255Y-135963204D01*
%TO.N,D+*%
X251090000Y-130800000D02*
X252225000Y-130800000D01*
X249360000Y-131300000D02*
X248225000Y-131300000D01*
X250690000Y-126200000D02*
X250690000Y-123800000D01*
D44*
%TO.N,RGB*%
X255830000Y-123840000D02*
X255790000Y-123800000D01*
D41*
X256840000Y-125600000D02*
X256140000Y-124900000D01*
X255790000Y-124510000D02*
X255790000Y-123800000D01*
X255840000Y-143665000D02*
X256466000Y-143039000D01*
X256466000Y-143039000D02*
X256466000Y-140166000D01*
X256140000Y-124860000D02*
X255790000Y-124510000D01*
X256466000Y-140166000D02*
X256450000Y-140150000D01*
X256140000Y-124900000D02*
X256140000Y-124860000D01*
%TO.N,RX*%
X257900000Y-115100000D02*
X258140000Y-115340000D01*
X258140000Y-115340000D02*
X259924000Y-115340000D01*
X256840000Y-115100000D02*
X257900000Y-115100000D01*
%TO.N,TX*%
X259780000Y-117880000D02*
X259924000Y-117880000D01*
X257850000Y-115950000D02*
X259780000Y-117880000D01*
X256840000Y-115950000D02*
X257850000Y-115950000D01*
%TO.N,MTMS*%
X256840000Y-116800000D02*
X257200000Y-116800000D01*
X257200000Y-116800000D02*
X258900000Y-118500000D01*
X258900000Y-119500000D02*
X259820000Y-120420000D01*
X259820000Y-120420000D02*
X259924000Y-120420000D01*
X258900000Y-118500000D02*
X258900000Y-119500000D01*
%TO.N,MTDI*%
X258840000Y-120818062D02*
X258840000Y-121940000D01*
X259860000Y-122960000D02*
X259924000Y-122960000D01*
X256840000Y-117650000D02*
X257350000Y-117650000D01*
X257350000Y-117650000D02*
X258489000Y-118789000D01*
X258489000Y-120467062D02*
X258840000Y-120818062D01*
X258489000Y-118789000D02*
X258489000Y-120467062D01*
X258840000Y-121940000D02*
X259860000Y-122960000D01*
%TO.N,MTDO*%
X258840000Y-123296388D02*
X258489000Y-122945389D01*
X257140000Y-118800000D02*
X256840000Y-118500000D01*
X257840000Y-118800000D02*
X257140000Y-118800000D01*
X258840000Y-124416000D02*
X259924000Y-125500000D01*
X258840000Y-123296388D02*
X258840000Y-124416000D01*
X258489000Y-120963451D02*
X258138000Y-120612452D01*
X258138000Y-120612452D02*
X258138000Y-119098000D01*
X258138000Y-119098000D02*
X257840000Y-118800000D01*
X258489000Y-122945389D02*
X258489000Y-120963451D01*
%TO.N,MTCK*%
X257787000Y-119550000D02*
X257787000Y-120757842D01*
X259040000Y-128040000D02*
X259924000Y-128040000D01*
X257587000Y-119350000D02*
X257787000Y-119550000D01*
X258138000Y-123090779D02*
X258340000Y-123292779D01*
X258340000Y-127340000D02*
X259040000Y-128040000D01*
X257787000Y-120757842D02*
X258138000Y-121108842D01*
X258138000Y-121108842D02*
X258138000Y-123090779D01*
X258340000Y-123292779D02*
X258340000Y-127340000D01*
X256840000Y-119350000D02*
X257587000Y-119350000D01*
%TO.N,D-*%
X248625000Y-130800000D02*
X248225000Y-130400000D01*
X251875057Y-131300000D02*
X252175057Y-131600000D01*
D44*
X252175057Y-131600000D02*
X252225000Y-131600000D01*
D41*
X249360000Y-130800000D02*
X249840000Y-130800000D01*
X251090000Y-131300000D02*
X251875057Y-131300000D01*
X249360000Y-130800000D02*
X248625000Y-130800000D01*
X250340000Y-131300000D02*
X251090000Y-131300000D01*
X249840000Y-126050000D02*
X249840000Y-123800000D01*
X249840000Y-130800000D02*
X250340000Y-131300000D01*
%TO.N,Net-(S1-NO)*%
X245100000Y-135040000D02*
X244110000Y-134050000D01*
D44*
X242840000Y-113400000D02*
X242640000Y-113400000D01*
X245540000Y-132850000D02*
X245590000Y-132800000D01*
D41*
X244590000Y-117025000D02*
X244590000Y-113800000D01*
X244565000Y-117050000D02*
X244590000Y-117025000D01*
X244190000Y-113400000D02*
X243740000Y-113400000D01*
X244340000Y-133320000D02*
X244110000Y-133550000D01*
X245100000Y-135050000D02*
X245100000Y-135040000D01*
D44*
X244340000Y-132850000D02*
X245540000Y-132850000D01*
D41*
X242840000Y-113400000D02*
X243740000Y-113400000D01*
X244340000Y-133320000D02*
X244340000Y-132850000D01*
X244110000Y-133550000D02*
X244110000Y-134050000D01*
X244590000Y-113800000D02*
X244190000Y-113400000D01*
%TO.N,Net-(S2-NO)*%
X255350000Y-135050000D02*
X255350000Y-134080000D01*
X255090000Y-133300000D02*
X255320000Y-133530000D01*
D44*
X256290000Y-132850000D02*
X256340000Y-132800000D01*
X255090000Y-132850000D02*
X256290000Y-132850000D01*
X256290000Y-110850000D02*
X256840000Y-110850000D01*
D41*
X255320000Y-133530000D02*
X255320000Y-134050000D01*
D44*
X255350000Y-134080000D02*
X255320000Y-134050000D01*
X255590000Y-111550000D02*
X256290000Y-110850000D01*
D41*
X255090000Y-132850000D02*
X255090000Y-133300000D01*
D45*
%TO.N,Net-(IC1-SW)*%
X245300000Y-139600000D02*
X246400000Y-139600000D01*
D43*
X245200000Y-139500000D02*
X245300000Y-139600000D01*
X244500000Y-139500000D02*
X245200000Y-139500000D01*
D41*
%TO.N,IO7*%
X241542000Y-121858000D02*
X241542000Y-125958000D01*
X242840000Y-119350000D02*
X242350000Y-119350000D01*
X241542000Y-125958000D02*
X240840000Y-126660000D01*
X240440000Y-129175000D02*
X240440000Y-129830000D01*
X240840000Y-128775000D02*
X240440000Y-129175000D01*
X240440000Y-129830000D02*
X239756000Y-130514000D01*
X239756000Y-130514000D02*
X239756000Y-130590000D01*
X242350000Y-119350000D02*
X241900000Y-119800000D01*
X240840000Y-126660000D02*
X240840000Y-128775000D01*
X241900000Y-121500000D02*
X241542000Y-121858000D01*
X241900000Y-119800000D02*
X241900000Y-121500000D01*
%TO.N,IO14*%
X241893000Y-129211167D02*
X241542000Y-129562165D01*
X241191000Y-141949000D02*
X239850000Y-143290000D01*
X245590000Y-123800000D02*
X245590000Y-124510000D01*
X241893000Y-129211165D02*
X241893000Y-129211167D01*
X241542000Y-131605779D02*
X241191000Y-131956777D01*
X245590000Y-124510000D02*
X242944000Y-127156000D01*
X239850000Y-143290000D02*
X239756000Y-143290000D01*
X241542000Y-129562165D02*
X241542000Y-131605779D01*
X242944000Y-127156000D02*
X242944000Y-128160165D01*
X242944000Y-128160165D02*
X241893000Y-129211165D01*
X241191000Y-131956777D02*
X241191000Y-141949000D01*
%TO.N,IO17*%
X242945999Y-129647338D02*
X242595000Y-129998334D01*
X243997000Y-128596334D02*
X242945999Y-129647335D01*
X242945999Y-129647335D02*
X242945999Y-129647338D01*
X247288194Y-124800000D02*
X247088194Y-125000000D01*
X247940000Y-124500000D02*
X247600000Y-124500000D01*
X242244000Y-144804000D02*
X244464000Y-147024000D01*
X242244000Y-132392944D02*
X242244000Y-144804000D01*
X248140000Y-124300000D02*
X247940000Y-124500000D01*
X248140000Y-123800000D02*
X248140000Y-124300000D01*
X247600000Y-124500000D02*
X247300000Y-124800000D01*
X244760000Y-146410000D02*
X244650000Y-146410000D01*
X243997000Y-127603000D02*
X243997000Y-128596334D01*
X247088194Y-125000000D02*
X246600000Y-125000000D01*
X242595000Y-132041948D02*
X242244000Y-132392944D01*
X242595000Y-129998334D02*
X242595000Y-132041948D01*
X244464000Y-147024000D02*
X244760000Y-147024000D01*
X247300000Y-124800000D02*
X247288194Y-124800000D01*
X246600000Y-125000000D02*
X243997000Y-127603000D01*
%TO.N,IO3*%
X239756000Y-119884000D02*
X239756000Y-120430000D01*
X240840000Y-118800000D02*
X239756000Y-119884000D01*
X242840000Y-115950000D02*
X242290000Y-115950000D01*
X242290000Y-115950000D02*
X240840000Y-117400000D01*
X240840000Y-117400000D02*
X240840000Y-118800000D01*
%TO.N,IO18*%
X244348000Y-128741727D02*
X242946000Y-130143724D01*
X248990000Y-123800000D02*
X248990000Y-124150000D01*
X247282779Y-125400000D02*
X246700000Y-125400000D01*
X242595000Y-144358612D02*
X244136388Y-145900000D01*
X244136388Y-145900000D02*
X246840000Y-145900000D01*
X242595000Y-132700000D02*
X242595000Y-144358612D01*
X248990000Y-124150000D02*
X248494612Y-124645388D01*
X248236388Y-124900000D02*
X247782779Y-124900000D01*
X246700000Y-125400000D02*
X244348000Y-127752000D01*
X247782779Y-124900000D02*
X247282779Y-125400000D01*
X242946000Y-132349000D02*
X242595000Y-132700000D01*
X248494612Y-124645388D02*
X248491000Y-124645388D01*
X246840000Y-145900000D02*
X247300000Y-146360000D01*
X244348000Y-127752000D02*
X244348000Y-128741727D01*
X242946000Y-130143724D02*
X242946000Y-132349000D01*
X248491000Y-124645388D02*
X248236388Y-124900000D01*
X247300000Y-146360000D02*
X247300000Y-146410000D01*
%TO.N,IO10*%
X240489000Y-132321000D02*
X239756000Y-133054000D01*
X240840000Y-131315000D02*
X240489000Y-131665999D01*
X241893000Y-122227000D02*
X241893000Y-126107000D01*
X240840000Y-129271388D02*
X240840000Y-131315000D01*
X241191000Y-126809000D02*
X241191000Y-128920388D01*
X242220000Y-121900000D02*
X241893000Y-122227000D01*
X240489000Y-131665999D02*
X240489000Y-132321000D01*
X241893000Y-126107000D02*
X241191000Y-126809000D01*
X242840000Y-121900000D02*
X242220000Y-121900000D01*
X241191000Y-128920388D02*
X240840000Y-129271388D01*
%TO.N,IO13*%
X240840000Y-131811388D02*
X240840000Y-139590000D01*
X241191000Y-129416776D02*
X241191000Y-131460389D01*
X239756000Y-140484000D02*
X239756000Y-140674000D01*
X242593000Y-128014777D02*
X241191000Y-129416776D01*
X244740000Y-123800000D02*
X244740000Y-124760000D01*
X241191000Y-131460389D02*
X240840000Y-131811388D01*
X239756000Y-140674000D02*
X239756000Y-140750000D01*
X240840000Y-139590000D02*
X239756000Y-140674000D01*
X242593000Y-126907000D02*
X242593000Y-128014777D01*
X244740000Y-124760000D02*
X242593000Y-126907000D01*
%TO.N,IO4*%
X240840000Y-121060000D02*
X240400000Y-121500000D01*
X242840000Y-116800000D02*
X242200000Y-116800000D01*
X241191000Y-118945389D02*
X240840000Y-119296388D01*
X241200000Y-117800000D02*
X241200000Y-118900000D01*
X242200000Y-116800000D02*
X241200000Y-117800000D01*
X240400000Y-121500000D02*
X240400000Y-122250000D01*
X241200000Y-118900000D02*
X241191000Y-118909000D01*
X241191000Y-118909000D02*
X241191000Y-118945389D01*
X239756000Y-122894000D02*
X239756000Y-122970000D01*
X240400000Y-122250000D02*
X239756000Y-122894000D01*
X240840000Y-119296388D02*
X240840000Y-121060000D01*
%TO.N,IO12*%
X243890000Y-125110000D02*
X243890000Y-123800000D01*
X241789914Y-127989914D02*
X242242000Y-127537829D01*
X242242000Y-126758000D02*
X243890000Y-125110000D01*
X242242000Y-127537829D02*
X242242000Y-126758000D01*
X241776172Y-128063829D02*
X241776172Y-128023828D01*
%TO.N,IO6*%
X241191000Y-121705388D02*
X241191000Y-125749000D01*
X242840000Y-118500000D02*
X242300000Y-118500000D01*
X241191000Y-125749000D02*
X240489000Y-126451000D01*
X241902000Y-118898000D02*
X241902000Y-119227168D01*
X240489000Y-126451000D02*
X240489000Y-127241000D01*
X241542000Y-119587166D02*
X241542000Y-121354389D01*
X242300000Y-118500000D02*
X241902000Y-118898000D01*
X240489000Y-127241000D02*
X239756000Y-127974000D01*
X241902000Y-119227168D02*
X241542000Y-119587166D01*
X241542000Y-121354389D02*
X241191000Y-121705388D01*
%TO.N,IO11*%
X243140000Y-122750000D02*
X243840000Y-122050000D01*
X242840000Y-125660000D02*
X242840000Y-125050000D01*
X241716000Y-126784000D02*
X242840000Y-125660000D01*
X242840000Y-122750000D02*
X242640000Y-122750000D01*
X242840000Y-122750000D02*
X243140000Y-122750000D01*
X241716000Y-127200000D02*
X241716000Y-126784000D01*
%TO.N,IO5*%
X239920000Y-125270000D02*
X239680000Y-125510000D01*
X242250000Y-117650000D02*
X241551000Y-118349000D01*
D44*
X242840000Y-117650000D02*
X242740000Y-117550000D01*
D41*
X240840000Y-121560000D02*
X240840000Y-124246786D01*
X241191000Y-119441777D02*
X241191000Y-121209000D01*
X242840000Y-117650000D02*
X242250000Y-117650000D01*
X240840000Y-124246786D02*
X239920000Y-125166786D01*
X241551000Y-118349000D02*
X241551000Y-119081779D01*
X239920000Y-125166786D02*
X239920000Y-125270000D01*
X241551000Y-119081779D02*
X241191000Y-119441777D01*
X241191000Y-121209000D02*
X240840000Y-121560000D01*
%TO.N,IO15*%
X239786000Y-145800000D02*
X239756000Y-145830000D01*
X246440000Y-124160000D02*
X243295000Y-127305000D01*
X241893000Y-131751169D02*
X241542000Y-132102167D01*
X241542000Y-132102167D02*
X241542000Y-144198000D01*
X241893000Y-129707554D02*
X241893000Y-131751169D01*
X246440000Y-123800000D02*
X246440000Y-124160000D01*
X243295000Y-128305557D02*
X242244000Y-129356557D01*
X239940000Y-145800000D02*
X239786000Y-145800000D01*
X243295000Y-127305000D02*
X243295000Y-128305557D01*
X242244000Y-129356557D02*
X241893000Y-129707554D01*
X241542000Y-144198000D02*
X239940000Y-145800000D01*
%TO.N,IO16*%
X243646000Y-128450947D02*
X242594999Y-129501948D01*
X246500000Y-124600000D02*
X243646000Y-127454000D01*
X242244000Y-129852944D02*
X242244000Y-131896559D01*
X242244000Y-131896559D02*
X241893000Y-132247555D01*
X242594999Y-129501948D02*
X242244000Y-129852944D01*
X242220000Y-145580000D02*
X242220000Y-147024000D01*
X243646000Y-127454000D02*
X243646000Y-128450947D01*
X246940000Y-124600000D02*
X246500000Y-124600000D01*
X247290000Y-123800000D02*
X247290000Y-124250000D01*
X241893000Y-145253000D02*
X242220000Y-145580000D01*
X247290000Y-124250000D02*
X246940000Y-124600000D01*
X241893000Y-132247555D02*
X241893000Y-145253000D01*
%TO.N,IO33*%
X258840000Y-141971388D02*
X258840000Y-142240000D01*
X258113000Y-128319388D02*
X258113000Y-129174695D01*
X258489000Y-141620388D02*
X258840000Y-141971388D01*
X258489000Y-129550695D02*
X258489000Y-141620388D01*
X258840000Y-142240000D02*
X259880000Y-143280000D01*
X258113000Y-129174695D02*
X258489000Y-129550695D01*
X259880000Y-143280000D02*
X259924000Y-143280000D01*
X254090000Y-123800000D02*
X254090000Y-124296388D01*
X254090000Y-124296388D02*
X258113000Y-128319388D01*
%TO.N,IO26*%
X257411000Y-129674000D02*
X257787000Y-130050000D01*
X257411000Y-128610165D02*
X257411000Y-129674000D01*
X257787000Y-130050000D02*
X257787000Y-141911167D01*
X252390000Y-123800000D02*
X252390000Y-124349999D01*
X253319612Y-124901000D02*
X253701834Y-124901000D01*
X252968611Y-124550000D02*
X253319612Y-124901000D01*
X252590000Y-124550000D02*
X252968611Y-124550000D01*
X257440000Y-145200000D02*
X257440000Y-146968000D01*
X252390000Y-124349999D02*
X252590000Y-124550000D01*
X257787000Y-141911167D02*
X258138000Y-142262165D01*
X258138000Y-142262165D02*
X258138000Y-144502000D01*
X253701834Y-124901000D02*
X257411000Y-128610165D01*
X258138000Y-144502000D02*
X257440000Y-145200000D01*
%TO.N,IO21*%
X257787000Y-142407557D02*
X257436000Y-142056556D01*
X257436000Y-130396000D02*
X256854446Y-129814446D01*
X257089000Y-145054612D02*
X257085388Y-145054612D01*
X256854446Y-128550000D02*
X253556445Y-125252000D01*
X256340000Y-145800000D02*
X255440000Y-145800000D01*
X254920000Y-146320000D02*
X254920000Y-147024000D01*
X252823222Y-124901000D02*
X252191000Y-124901000D01*
X257787000Y-144356612D02*
X257089000Y-145054612D01*
X257436000Y-142056556D02*
X257436000Y-130396000D01*
X253174223Y-125252000D02*
X252823222Y-124901000D01*
X257085388Y-145054612D02*
X256340000Y-145800000D01*
X256854446Y-129814446D02*
X256854446Y-128550000D01*
X251540000Y-124250000D02*
X251540000Y-123800000D01*
X257787000Y-142407555D02*
X257787000Y-144356612D01*
X252191000Y-124901000D02*
X251540000Y-124250000D01*
X255440000Y-145800000D02*
X254920000Y-146320000D01*
X253556445Y-125252000D02*
X253174223Y-125252000D01*
%TO.N,IO45*%
X256840000Y-114250000D02*
X258400000Y-114250000D01*
X259850000Y-112800000D02*
X259924000Y-112800000D01*
X259895000Y-112050000D02*
X259965000Y-112120000D01*
X258400000Y-114250000D02*
X259850000Y-112800000D01*
%TO.N,IO46*%
X258560000Y-111700000D02*
X259924000Y-110336000D01*
X259924000Y-110336000D02*
X259924000Y-110260000D01*
X256840000Y-111700000D02*
X258560000Y-111700000D01*
%TO.N,IO38*%
X256840000Y-120200000D02*
X256300000Y-120200000D01*
X256300000Y-120200000D02*
X255740000Y-119640000D01*
X255740000Y-119640000D02*
X255740000Y-119550000D01*
%TO.N,IO47*%
X258138000Y-129696083D02*
X258138000Y-141765777D01*
X253465000Y-124550000D02*
X253847223Y-124550000D01*
X258138000Y-141765777D02*
X258489000Y-142116776D01*
X258489000Y-144449000D02*
X259870000Y-145830000D01*
X253240000Y-123800000D02*
X253240000Y-124325000D01*
X253847223Y-124550000D02*
X257762000Y-128464776D01*
X258489000Y-142116776D02*
X258489000Y-144449000D01*
X257762000Y-129320083D02*
X258138000Y-129696083D01*
X253240000Y-124325000D02*
X253465000Y-124550000D01*
X259870000Y-145830000D02*
X259924000Y-145830000D01*
X257762000Y-128464776D02*
X257762000Y-129320083D01*
D42*
%TO.N,V_USB*%
X246495000Y-135800000D02*
X244640000Y-135800000D01*
D45*
X249360000Y-129800000D02*
X249334000Y-129774000D01*
X246592000Y-132302000D02*
X246594000Y-132300000D01*
X251090000Y-129800000D02*
X249360000Y-129800000D01*
X246594000Y-132300000D02*
X248638043Y-132300000D01*
D43*
X243987500Y-144287500D02*
X244450000Y-144287500D01*
D41*
X248080000Y-136400000D02*
X248480000Y-136800000D01*
D45*
X248638043Y-132300000D02*
X248640043Y-132302000D01*
D41*
X248837498Y-144287500D02*
X249200000Y-144650002D01*
X248350000Y-144287500D02*
X248837498Y-144287500D01*
X246495000Y-135800000D02*
X247095000Y-136400000D01*
D42*
X244640000Y-135800000D02*
X243440000Y-137000000D01*
D44*
X246514000Y-134781000D02*
X246495000Y-134800000D01*
D45*
X246400000Y-130200000D02*
X246400000Y-132110000D01*
D44*
X248400000Y-136800000D02*
X248480000Y-136800000D01*
D45*
X246400000Y-132110000D02*
X246592000Y-132302000D01*
D42*
X246495000Y-134800000D02*
X246495000Y-135800000D01*
D45*
X249360000Y-132300000D02*
X251090000Y-132300000D01*
D44*
X246616000Y-134781000D02*
X246514000Y-134781000D01*
D45*
X248642043Y-132300000D02*
X249360000Y-132300000D01*
X246826000Y-129774000D02*
X246400000Y-130200000D01*
X249334000Y-129774000D02*
X246826000Y-129774000D01*
D41*
X247095000Y-136400000D02*
X248080000Y-136400000D01*
D44*
X246635000Y-134800000D02*
X246616000Y-134781000D01*
X248640043Y-132302000D02*
X248642043Y-132300000D01*
D43*
X243400000Y-143700000D02*
X243987500Y-144287500D01*
D42*
%TO.N,5V*%
X247050000Y-144287500D02*
X247050000Y-144949999D01*
X249049001Y-146949000D02*
X249840000Y-146949000D01*
D41*
X247050000Y-144287500D02*
X245750000Y-144287500D01*
D42*
X247050000Y-144949999D02*
X249049001Y-146949000D01*
D44*
%TO.N,LED*%
X242840000Y-115100000D02*
X242091299Y-115100000D01*
D42*
%TO.N,V_USB*%
X246592000Y-132302000D02*
X246495000Y-132399000D01*
X246495000Y-132399000D02*
X246495000Y-135300000D01*
%TD*%
%TA.AperFunction,Conductor*%
%TO.N,IO1*%
G36*
X251443039Y-144419685D02*
G01*
X251488794Y-144472489D01*
X251500000Y-144524000D01*
X251500000Y-145276000D01*
X251480315Y-145343039D01*
X251427511Y-145388794D01*
X251376000Y-145400000D01*
X250224000Y-145400000D01*
X250156961Y-145380315D01*
X250111206Y-145327511D01*
X250100000Y-145276000D01*
X250100000Y-144524500D01*
X250119685Y-144457461D01*
X250172489Y-144411706D01*
X250224000Y-144400500D01*
X251196738Y-144400500D01*
X251206916Y-144400000D01*
X251376000Y-144400000D01*
X251443039Y-144419685D01*
G37*
%TD.AperFunction*%
%TD*%
%TA.AperFunction,Conductor*%
%TO.N,GND*%
G36*
X258383334Y-144748795D02*
G01*
X258427681Y-144777296D01*
X259020542Y-145370157D01*
X259054027Y-145431480D01*
X259049043Y-145501172D01*
X259047424Y-145505286D01*
X259037950Y-145528160D01*
X259037948Y-145528166D01*
X258999500Y-145721456D01*
X258999500Y-145721459D01*
X258999500Y-145918541D01*
X258999500Y-145918543D01*
X258999499Y-145918543D01*
X259037947Y-146111829D01*
X259037950Y-146111839D01*
X259113364Y-146293907D01*
X259113371Y-146293920D01*
X259222860Y-146457781D01*
X259222863Y-146457785D01*
X259362214Y-146597136D01*
X259362218Y-146597139D01*
X259526079Y-146706628D01*
X259526092Y-146706635D01*
X259703020Y-146779920D01*
X259708165Y-146782051D01*
X259899691Y-146820148D01*
X259927814Y-146834858D01*
X259956703Y-146848052D01*
X259958560Y-146850941D01*
X259961602Y-146852533D01*
X259977308Y-146880115D01*
X259994477Y-146906830D01*
X259995137Y-146911424D01*
X259996176Y-146913248D01*
X259999500Y-146941765D01*
X259999500Y-146975500D01*
X259979815Y-147042539D01*
X259927011Y-147088294D01*
X259875500Y-147099500D01*
X258581766Y-147099500D01*
X258514727Y-147079815D01*
X258468972Y-147027011D01*
X258460149Y-146999692D01*
X258422052Y-146808170D01*
X258422051Y-146808169D01*
X258422051Y-146808165D01*
X258411234Y-146782051D01*
X258346635Y-146626092D01*
X258346628Y-146626079D01*
X258237139Y-146462218D01*
X258237136Y-146462214D01*
X258097785Y-146322863D01*
X258097781Y-146322860D01*
X257933920Y-146213371D01*
X257933907Y-146213364D01*
X257792048Y-146154605D01*
X257737644Y-146110764D01*
X257715579Y-146044470D01*
X257715500Y-146040044D01*
X257715500Y-145365477D01*
X257735185Y-145298438D01*
X257751819Y-145277796D01*
X258252319Y-144777296D01*
X258313642Y-144743811D01*
X258383334Y-144748795D01*
G37*
%TD.AperFunction*%
%TA.AperFunction,Conductor*%
G36*
X248763039Y-125194685D02*
G01*
X248808794Y-125247489D01*
X248820000Y-125299000D01*
X248820000Y-125300000D01*
X248821000Y-125300000D01*
X248888039Y-125319685D01*
X248933794Y-125372489D01*
X248945000Y-125424000D01*
X248945000Y-125925000D01*
X248974363Y-125925000D01*
X248974377Y-125924999D01*
X249084341Y-125910521D01*
X249084342Y-125910521D01*
X249168047Y-125875850D01*
X249237517Y-125868381D01*
X249299996Y-125899656D01*
X249335648Y-125959745D01*
X249339500Y-125990411D01*
X249339500Y-126115892D01*
X249345366Y-126137785D01*
X249373608Y-126243187D01*
X249404758Y-126297139D01*
X249439500Y-126357314D01*
X249532686Y-126450500D01*
X249646814Y-126516392D01*
X249738841Y-126541050D01*
X249798500Y-126577413D01*
X249829030Y-126640260D01*
X249820736Y-126709636D01*
X249785418Y-126756672D01*
X249781645Y-126759768D01*
X249684772Y-126856641D01*
X249684769Y-126856645D01*
X249608659Y-126970550D01*
X249608652Y-126970563D01*
X249556229Y-127097125D01*
X249556226Y-127097135D01*
X249529500Y-127231496D01*
X249529500Y-127231499D01*
X249529500Y-127368501D01*
X249529500Y-127368503D01*
X249529499Y-127368503D01*
X249556226Y-127502864D01*
X249557996Y-127508697D01*
X249555377Y-127509491D01*
X249561512Y-127567310D01*
X249530150Y-127629746D01*
X249527195Y-127632804D01*
X249510000Y-127649999D01*
X249510000Y-128150000D01*
X250940000Y-128150000D01*
X250940000Y-127650000D01*
X250922805Y-127632805D01*
X250889320Y-127571482D01*
X250893771Y-127509233D01*
X250892004Y-127508697D01*
X250893768Y-127502877D01*
X250893772Y-127502870D01*
X250913794Y-127402214D01*
X250920500Y-127368503D01*
X250920500Y-127231496D01*
X250893773Y-127097135D01*
X250893772Y-127097134D01*
X250893772Y-127097130D01*
X250886473Y-127079509D01*
X250841347Y-126970563D01*
X250841340Y-126970550D01*
X250765230Y-126856645D01*
X250765227Y-126856641D01*
X250670767Y-126762181D01*
X250637282Y-126700858D01*
X250642266Y-126631166D01*
X250684138Y-126575233D01*
X250749602Y-126550816D01*
X250754937Y-126550625D01*
X250755883Y-126550500D01*
X250755892Y-126550500D01*
X250883186Y-126516392D01*
X250997314Y-126450500D01*
X251090500Y-126357314D01*
X251156392Y-126243186D01*
X251190500Y-126115892D01*
X251190500Y-125984108D01*
X251190500Y-125975981D01*
X251192176Y-125975981D01*
X251201448Y-125916495D01*
X251247825Y-125864236D01*
X251315093Y-125845347D01*
X251361078Y-125854777D01*
X251495658Y-125910521D01*
X251605622Y-125924999D01*
X251605637Y-125925000D01*
X251635000Y-125925000D01*
X251885000Y-125925000D01*
X251914363Y-125925000D01*
X251914377Y-125924999D01*
X252024341Y-125910521D01*
X252024342Y-125910521D01*
X252161175Y-125853843D01*
X252278679Y-125763679D01*
X252368843Y-125646175D01*
X252425521Y-125509342D01*
X252425521Y-125509340D01*
X252436626Y-125425000D01*
X251885000Y-125425000D01*
X251885000Y-125925000D01*
X251635000Y-125925000D01*
X251635000Y-125424000D01*
X251637550Y-125415314D01*
X251636262Y-125406353D01*
X251647240Y-125382312D01*
X251654685Y-125356961D01*
X251661525Y-125351033D01*
X251665287Y-125342797D01*
X251687521Y-125328507D01*
X251707489Y-125311206D01*
X251718003Y-125308918D01*
X251724065Y-125305023D01*
X251759000Y-125300000D01*
X251760000Y-125300000D01*
X251760000Y-125299000D01*
X251779685Y-125231961D01*
X251832489Y-125186206D01*
X251884000Y-125175000D01*
X252116446Y-125175000D01*
X252131675Y-125176500D01*
X252136200Y-125176500D01*
X252657744Y-125176500D01*
X252724783Y-125196185D01*
X252745425Y-125212819D01*
X252883640Y-125351033D01*
X253018165Y-125485558D01*
X253089763Y-125515214D01*
X253089764Y-125515215D01*
X253119420Y-125527499D01*
X253119421Y-125527499D01*
X253119423Y-125527500D01*
X253119424Y-125527500D01*
X253229024Y-125527500D01*
X253390967Y-125527500D01*
X253458006Y-125547185D01*
X253478648Y-125563819D01*
X254254339Y-126339509D01*
X255790514Y-127875684D01*
X256542627Y-128627796D01*
X256576112Y-128689119D01*
X256578946Y-128715477D01*
X256578946Y-129869246D01*
X256616371Y-129959596D01*
X256616370Y-129959596D01*
X256620889Y-129970504D01*
X256620889Y-129970505D01*
X257124181Y-130473796D01*
X257157666Y-130535119D01*
X257160500Y-130561477D01*
X257160500Y-142111356D01*
X257171025Y-142136764D01*
X257171025Y-142136768D01*
X257171027Y-142136768D01*
X257171027Y-142136769D01*
X257202442Y-142212614D01*
X257202444Y-142212616D01*
X257475181Y-142485353D01*
X257508666Y-142546676D01*
X257511500Y-142573034D01*
X257511500Y-144191133D01*
X257491815Y-144258172D01*
X257475181Y-144278814D01*
X256948846Y-144805148D01*
X256930068Y-144820561D01*
X256929329Y-144821054D01*
X256262204Y-145488181D01*
X256200881Y-145521666D01*
X256174523Y-145524500D01*
X255385198Y-145524500D01*
X255313599Y-145554158D01*
X255283939Y-145566443D01*
X254763943Y-146086441D01*
X254763932Y-146086452D01*
X254759947Y-146090436D01*
X254698620Y-146123914D01*
X254696470Y-146124361D01*
X254628168Y-146137947D01*
X254628162Y-146137949D01*
X254446092Y-146213364D01*
X254446079Y-146213371D01*
X254282218Y-146322860D01*
X254282214Y-146322863D01*
X254142863Y-146462214D01*
X254142860Y-146462218D01*
X254033371Y-146626079D01*
X254033364Y-146626092D01*
X253957950Y-146808160D01*
X253957947Y-146808170D01*
X253921965Y-146989062D01*
X253889580Y-147050973D01*
X253828864Y-147085547D01*
X253759094Y-147081806D01*
X253702423Y-147040940D01*
X253677875Y-146984268D01*
X253647990Y-146795582D01*
X253584755Y-146600968D01*
X253491859Y-146418650D01*
X253459474Y-146374077D01*
X253459474Y-146374076D01*
X252780000Y-147053553D01*
X252780000Y-147047339D01*
X252752741Y-146945606D01*
X252700080Y-146854394D01*
X252625606Y-146779920D01*
X252534394Y-146727259D01*
X252432661Y-146700000D01*
X252426446Y-146700000D01*
X253105922Y-146020524D01*
X253105921Y-146020523D01*
X253061359Y-145988147D01*
X253061350Y-145988141D01*
X252879031Y-145895244D01*
X252684417Y-145832009D01*
X252482317Y-145800000D01*
X252277683Y-145800000D01*
X252075582Y-145832009D01*
X251880968Y-145895244D01*
X251698644Y-145988143D01*
X251654077Y-146020523D01*
X251654077Y-146020524D01*
X252333554Y-146700000D01*
X252327339Y-146700000D01*
X252225606Y-146727259D01*
X252134394Y-146779920D01*
X252059920Y-146854394D01*
X252007259Y-146945606D01*
X251980000Y-147047339D01*
X251980000Y-147053553D01*
X251300524Y-146374077D01*
X251300523Y-146374077D01*
X251268143Y-146418644D01*
X251175244Y-146600968D01*
X251112010Y-146795581D01*
X251082124Y-146984269D01*
X251052194Y-147047403D01*
X250992883Y-147084334D01*
X250923020Y-147083336D01*
X250864788Y-147044726D01*
X250838034Y-146989061D01*
X250828409Y-146940674D01*
X250802051Y-146808165D01*
X250791234Y-146782051D01*
X250726635Y-146626092D01*
X250726628Y-146626079D01*
X250617139Y-146462218D01*
X250617136Y-146462214D01*
X250477785Y-146322863D01*
X250477781Y-146322860D01*
X250313920Y-146213371D01*
X250313907Y-146213364D01*
X250239016Y-146182344D01*
X250131839Y-146137950D01*
X250131829Y-146137947D01*
X249938543Y-146099500D01*
X249938541Y-146099500D01*
X249741459Y-146099500D01*
X249741457Y-146099500D01*
X249548170Y-146137947D01*
X249548160Y-146137950D01*
X249366092Y-146213364D01*
X249366079Y-146213371D01*
X249202218Y-146322860D01*
X249202214Y-146322863D01*
X249148061Y-146377017D01*
X249086738Y-146410502D01*
X249017046Y-146405518D01*
X248972699Y-146377017D01*
X248127423Y-145531741D01*
X248122893Y-145523446D01*
X248115363Y-145517733D01*
X248106418Y-145493274D01*
X248093938Y-145470418D01*
X248094612Y-145460989D01*
X248091366Y-145452113D01*
X248097064Y-145426703D01*
X248098922Y-145400726D01*
X248104993Y-145391344D01*
X248106655Y-145383937D01*
X248119241Y-145369330D01*
X248127987Y-145355818D01*
X248299736Y-145186257D01*
X248323303Y-145173583D01*
X248344906Y-145157810D01*
X248356342Y-145155816D01*
X248361272Y-145153166D01*
X248368374Y-145153719D01*
X248386850Y-145150499D01*
X248494864Y-145150499D01*
X248494879Y-145150497D01*
X248494882Y-145150497D01*
X248519987Y-145147586D01*
X248519988Y-145147585D01*
X248519991Y-145147585D01*
X248622765Y-145102206D01*
X248702206Y-145022765D01*
X248702207Y-145022760D01*
X248708699Y-145013286D01*
X248710589Y-145014581D01*
X248745674Y-144973039D01*
X248812458Y-144952506D01*
X248879742Y-144971339D01*
X248901711Y-144988815D01*
X248923387Y-145010491D01*
X249026114Y-145069801D01*
X249140691Y-145100502D01*
X249140694Y-145100502D01*
X249259306Y-145100502D01*
X249259309Y-145100502D01*
X249373886Y-145069801D01*
X249476613Y-145010491D01*
X249560489Y-144926615D01*
X249619799Y-144823888D01*
X249650500Y-144709311D01*
X249650500Y-144709308D01*
X249650725Y-144708469D01*
X249687090Y-144648808D01*
X249749937Y-144618279D01*
X249819313Y-144626574D01*
X249873190Y-144671059D01*
X249894465Y-144737611D01*
X249894500Y-144740562D01*
X249894500Y-145276007D01*
X249899197Y-145319686D01*
X249910397Y-145371174D01*
X249912890Y-145381372D01*
X249912891Y-145381375D01*
X249955899Y-145462083D01*
X249955901Y-145462086D01*
X250001660Y-145514895D01*
X250018166Y-145531741D01*
X250019246Y-145532843D01*
X250019247Y-145532844D01*
X250019249Y-145532845D01*
X250097822Y-145576796D01*
X250099063Y-145577490D01*
X250166102Y-145597175D01*
X250224000Y-145605500D01*
X250224004Y-145605500D01*
X251375991Y-145605500D01*
X251376000Y-145605500D01*
X251419684Y-145600803D01*
X251448875Y-145594452D01*
X251471174Y-145589602D01*
X251471190Y-145589598D01*
X251471195Y-145589597D01*
X251481373Y-145587110D01*
X251562085Y-145544100D01*
X251614889Y-145498345D01*
X251632843Y-145480754D01*
X251677490Y-145400937D01*
X251697175Y-145333898D01*
X251705500Y-145276000D01*
X251705500Y-144524000D01*
X251700803Y-144480316D01*
X251696024Y-144458350D01*
X251689602Y-144428825D01*
X251689348Y-144427789D01*
X251687110Y-144418627D01*
X251644100Y-144337915D01*
X251598345Y-144285111D01*
X251598339Y-144285104D01*
X251580757Y-144267160D01*
X251580756Y-144267159D01*
X251580754Y-144267157D01*
X251580752Y-144267156D01*
X251580750Y-144267154D01*
X251500940Y-144222511D01*
X251500927Y-144222506D01*
X251465563Y-144212122D01*
X251443336Y-144197837D01*
X251419297Y-144186859D01*
X251414401Y-144179241D01*
X251406786Y-144174347D01*
X251395810Y-144150312D01*
X251381523Y-144128081D01*
X251379622Y-144114866D01*
X251377762Y-144110791D01*
X251376500Y-144093146D01*
X251376500Y-144062844D01*
X253160000Y-144062844D01*
X253166401Y-144122372D01*
X253166403Y-144122379D01*
X253216645Y-144257086D01*
X253216649Y-144257093D01*
X253302809Y-144372187D01*
X253302812Y-144372190D01*
X253417906Y-144458350D01*
X253417913Y-144458354D01*
X253552620Y-144508596D01*
X253552627Y-144508598D01*
X253612155Y-144514999D01*
X253612172Y-144515000D01*
X253760000Y-144515000D01*
X254260000Y-144515000D01*
X254407828Y-144515000D01*
X254407844Y-144514999D01*
X254467372Y-144508598D01*
X254467379Y-144508596D01*
X254602086Y-144458354D01*
X254602093Y-144458350D01*
X254717187Y-144372190D01*
X254717190Y-144372187D01*
X254803350Y-144257093D01*
X254803354Y-144257086D01*
X254853596Y-144122379D01*
X254853598Y-144122372D01*
X254859999Y-144062844D01*
X254860000Y-144062827D01*
X254860000Y-143915000D01*
X254260000Y-143915000D01*
X254260000Y-144515000D01*
X253760000Y-144515000D01*
X253760000Y-143915000D01*
X253160000Y-143915000D01*
X253160000Y-144062844D01*
X251376500Y-144062844D01*
X251376500Y-143135807D01*
X251396185Y-143068768D01*
X251448989Y-143023013D01*
X251518147Y-143013069D01*
X251574814Y-143036542D01*
X251583913Y-143043354D01*
X251718620Y-143093596D01*
X251718627Y-143093598D01*
X251778155Y-143099999D01*
X251778172Y-143100000D01*
X252351000Y-143100000D01*
X252351000Y-142550000D01*
X251326000Y-142550000D01*
X251326000Y-142647844D01*
X251327575Y-142662484D01*
X251315171Y-142731243D01*
X251267561Y-142782381D01*
X251201840Y-142799156D01*
X251201840Y-142799500D01*
X251200493Y-142799500D01*
X251199862Y-142799661D01*
X251197455Y-142799500D01*
X251195748Y-142799500D01*
X249156252Y-142799500D01*
X249156247Y-142799500D01*
X249097770Y-142811131D01*
X249097769Y-142811132D01*
X249031447Y-142855447D01*
X248980348Y-142931923D01*
X248978256Y-142930525D01*
X248945204Y-142971528D01*
X248878906Y-142993583D01*
X248811209Y-142976293D01*
X248763607Y-142925149D01*
X248750499Y-142869664D01*
X248750499Y-141905136D01*
X248750084Y-141901554D01*
X248747586Y-141880012D01*
X248747585Y-141880010D01*
X248747585Y-141880009D01*
X248702206Y-141777235D01*
X248622765Y-141697794D01*
X248568929Y-141674023D01*
X248519992Y-141652415D01*
X248494865Y-141649500D01*
X248205143Y-141649500D01*
X248205117Y-141649502D01*
X248180013Y-141652413D01*
X248131071Y-141674023D01*
X248085955Y-141693944D01*
X248075086Y-141698743D01*
X248005807Y-141707814D01*
X247974914Y-141698743D01*
X247972765Y-141697794D01*
X247869991Y-141652415D01*
X247844865Y-141649500D01*
X247555143Y-141649500D01*
X247555117Y-141649502D01*
X247530012Y-141652413D01*
X247530010Y-141652414D01*
X247526938Y-141653771D01*
X247523250Y-141654253D01*
X247521011Y-141654863D01*
X247520927Y-141654557D01*
X247457660Y-141662840D01*
X247394476Y-141633015D01*
X247369446Y-141602297D01*
X247368410Y-141600502D01*
X247368409Y-141600500D01*
X247330470Y-141534788D01*
X246815212Y-141019530D01*
X246815211Y-141019529D01*
X246815208Y-141019527D01*
X246735290Y-140973387D01*
X246735283Y-140973384D01*
X246720786Y-140969499D01*
X246720786Y-140969500D01*
X246683416Y-140959487D01*
X246646144Y-140949500D01*
X246646143Y-140949500D01*
X245810189Y-140949500D01*
X245743150Y-140929815D01*
X245697395Y-140877011D01*
X245687451Y-140807853D01*
X245716476Y-140744297D01*
X245722508Y-140737819D01*
X245998508Y-140461819D01*
X246059831Y-140428334D01*
X246086189Y-140425500D01*
X247819750Y-140425500D01*
X247819751Y-140425499D01*
X247848989Y-140419683D01*
X247878227Y-140413868D01*
X247878227Y-140413867D01*
X247878231Y-140413867D01*
X247888898Y-140406738D01*
X247955572Y-140385860D01*
X248022953Y-140404342D01*
X248069645Y-140456319D01*
X248080729Y-140493655D01*
X248085931Y-140533171D01*
X248085932Y-140533173D01*
X248135935Y-140640404D01*
X248219596Y-140724065D01*
X248326827Y-140774068D01*
X248375683Y-140780500D01*
X248375684Y-140780500D01*
X248824317Y-140780500D01*
X248840601Y-140778356D01*
X248873173Y-140774068D01*
X248980404Y-140724065D01*
X249064065Y-140640404D01*
X249114068Y-140533173D01*
X249120500Y-140484316D01*
X249120500Y-140135684D01*
X249120359Y-140134616D01*
X249114577Y-140090691D01*
X249114068Y-140086827D01*
X249064065Y-139979596D01*
X248980404Y-139895935D01*
X248972733Y-139888264D01*
X248975561Y-139885435D01*
X248944843Y-139847023D01*
X248937635Y-139777526D01*
X248969143Y-139715165D01*
X248972903Y-139711906D01*
X248972733Y-139711736D01*
X249017719Y-139666750D01*
X249064065Y-139620404D01*
X249114068Y-139513173D01*
X249120500Y-139464316D01*
X249120500Y-139115684D01*
X249114068Y-139066827D01*
X249072135Y-138976903D01*
X249061644Y-138907828D01*
X249090164Y-138844044D01*
X249148640Y-138805804D01*
X249184518Y-138800500D01*
X251195750Y-138800500D01*
X251195751Y-138800499D01*
X251210568Y-138797552D01*
X251254229Y-138788868D01*
X251254229Y-138788867D01*
X251254231Y-138788867D01*
X251320552Y-138744552D01*
X251364867Y-138678231D01*
X251364867Y-138678229D01*
X251364868Y-138678229D01*
X251376499Y-138619752D01*
X251376500Y-138619750D01*
X251376500Y-137380249D01*
X251376499Y-137380247D01*
X251364868Y-137321770D01*
X251364867Y-137321769D01*
X251320552Y-137255447D01*
X251254230Y-137211132D01*
X251254231Y-137211132D01*
X251234805Y-137207268D01*
X251172895Y-137174881D01*
X251138323Y-137114164D01*
X251135000Y-137085651D01*
X251135000Y-135983006D01*
X251134998Y-135983005D01*
X250978307Y-136028528D01*
X250978304Y-136028530D01*
X250837491Y-136111806D01*
X250837483Y-136111812D01*
X250721807Y-136227488D01*
X250717048Y-136233624D01*
X250660405Y-136274529D01*
X250601198Y-136280326D01*
X250599153Y-136280028D01*
X250595528Y-136279500D01*
X250234472Y-136279500D01*
X250190325Y-136285932D01*
X250166828Y-136289355D01*
X250062488Y-136340364D01*
X250036340Y-136366512D01*
X249975016Y-136399996D01*
X249905325Y-136395010D01*
X249860979Y-136366510D01*
X249830404Y-136335935D01*
X249791475Y-136317782D01*
X249723173Y-136285932D01*
X249723171Y-136285931D01*
X249723172Y-136285931D01*
X249674317Y-136279500D01*
X249674316Y-136279500D01*
X249325684Y-136279500D01*
X249325683Y-136279500D01*
X249276828Y-136285931D01*
X249169595Y-136335935D01*
X249078264Y-136427267D01*
X249075440Y-136424443D01*
X249036958Y-136455183D01*
X248967458Y-136462352D01*
X248905114Y-136430808D01*
X248901901Y-136427101D01*
X248901736Y-136427267D01*
X248810404Y-136335935D01*
X248771475Y-136317782D01*
X248703173Y-136285932D01*
X248703171Y-136285931D01*
X248703172Y-136285931D01*
X248654317Y-136279500D01*
X248654316Y-136279500D01*
X248400477Y-136279500D01*
X248371036Y-136270855D01*
X248341050Y-136264332D01*
X248336034Y-136260577D01*
X248333438Y-136259815D01*
X248312796Y-136243181D01*
X248267249Y-136197634D01*
X248233764Y-136136311D01*
X248235855Y-136075352D01*
X248237145Y-136070911D01*
X248238790Y-136050000D01*
X247710000Y-136050000D01*
X247673681Y-136086319D01*
X247671341Y-136083979D01*
X247637511Y-136113294D01*
X247586000Y-136124500D01*
X247334000Y-136124500D01*
X247266961Y-136104815D01*
X247221206Y-136052011D01*
X247210000Y-136000500D01*
X247210000Y-135550000D01*
X247710000Y-135550000D01*
X248238790Y-135550000D01*
X252235496Y-135550000D01*
X252790000Y-135550000D01*
X252790000Y-135021210D01*
X252789999Y-135021209D01*
X252769087Y-135022854D01*
X252769081Y-135022855D01*
X252613809Y-135067966D01*
X252613804Y-135067968D01*
X252474625Y-135150278D01*
X252474616Y-135150285D01*
X252360285Y-135264616D01*
X252360278Y-135264625D01*
X252277968Y-135403804D01*
X252235496Y-135550000D01*
X248238790Y-135550000D01*
X248237145Y-135529089D01*
X248192031Y-135373804D01*
X248105748Y-135227907D01*
X248108193Y-135226460D01*
X248087579Y-135173974D01*
X248096531Y-135115544D01*
X248140521Y-135009342D01*
X248140521Y-135009340D01*
X248151626Y-134925000D01*
X247710000Y-134925000D01*
X247710000Y-135550000D01*
X247210000Y-135550000D01*
X247210000Y-134984000D01*
X247229685Y-134916961D01*
X247281154Y-134871825D01*
X247408516Y-134811825D01*
X247422543Y-134809637D01*
X247435004Y-134802834D01*
X247461362Y-134800000D01*
X247475000Y-134800000D01*
X247475000Y-134799000D01*
X247494685Y-134731961D01*
X247547489Y-134686206D01*
X247599000Y-134675000D01*
X248203370Y-134675000D01*
X248363022Y-134649713D01*
X248547158Y-134589883D01*
X248719652Y-134501993D01*
X248719658Y-134501989D01*
X248763650Y-134470028D01*
X248829456Y-134446548D01*
X248849792Y-134447057D01*
X248877155Y-134449999D01*
X248877172Y-134450000D01*
X249210000Y-134450000D01*
X249510000Y-134450000D01*
X249628674Y-134450000D01*
X249695713Y-134469685D01*
X249741468Y-134522489D01*
X249751412Y-134591647D01*
X249748450Y-134606088D01*
X249714500Y-134732791D01*
X249714500Y-134867209D01*
X249733441Y-134937897D01*
X249749290Y-134997047D01*
X249749291Y-134997048D01*
X249816495Y-135113450D01*
X249816497Y-135113453D01*
X249816498Y-135113454D01*
X249911546Y-135208502D01*
X249911547Y-135208503D01*
X249911549Y-135208504D01*
X249962952Y-135238181D01*
X250027954Y-135275710D01*
X250157791Y-135310500D01*
X250157794Y-135310500D01*
X250292206Y-135310500D01*
X250292209Y-135310500D01*
X250422046Y-135275710D01*
X250538454Y-135208502D01*
X250633502Y-135113454D01*
X250700710Y-134997046D01*
X250735500Y-134867209D01*
X250735500Y-134732791D01*
X250701551Y-134606092D01*
X250703214Y-134536244D01*
X250742376Y-134478381D01*
X250806605Y-134450877D01*
X250821326Y-134450000D01*
X250940000Y-134450000D01*
X250940000Y-133950000D01*
X249510000Y-133950000D01*
X249510000Y-134450000D01*
X249210000Y-134450000D01*
X249210000Y-133650000D01*
X249510000Y-133650000D01*
X250940000Y-133650000D01*
X250940000Y-133150000D01*
X250607155Y-133150000D01*
X250547627Y-133156401D01*
X250547620Y-133156403D01*
X250412913Y-133206645D01*
X250412911Y-133206647D01*
X250299311Y-133291688D01*
X250233847Y-133316105D01*
X250165574Y-133301254D01*
X250150689Y-133291688D01*
X250037088Y-133206647D01*
X250037086Y-133206645D01*
X249902379Y-133156403D01*
X249902372Y-133156401D01*
X249842844Y-133150000D01*
X249510000Y-133150000D01*
X249510000Y-133650000D01*
X249210000Y-133650000D01*
X249210000Y-133085865D01*
X249211317Y-133081377D01*
X249211262Y-133080991D01*
X249211735Y-133079953D01*
X249228980Y-133021224D01*
X249214887Y-132977849D01*
X249214884Y-132977843D01*
X249139960Y-132830795D01*
X249127064Y-132762126D01*
X249153340Y-132697385D01*
X249210447Y-132657128D01*
X249250445Y-132650500D01*
X249814750Y-132650500D01*
X249814751Y-132650499D01*
X249836939Y-132646086D01*
X249873228Y-132638868D01*
X249873229Y-132638867D01*
X249873231Y-132638867D01*
X249873231Y-132638866D01*
X249882709Y-132634941D01*
X249930166Y-132625500D01*
X250519834Y-132625500D01*
X250567291Y-132634941D01*
X250576771Y-132638868D01*
X250635247Y-132650499D01*
X250635250Y-132650500D01*
X251199555Y-132650500D01*
X251266594Y-132670185D01*
X251312349Y-132722989D01*
X251322293Y-132792147D01*
X251310040Y-132830795D01*
X251235115Y-132977843D01*
X251235112Y-132977849D01*
X251220180Y-133023806D01*
X251239798Y-133078784D01*
X251240000Y-133085865D01*
X251240000Y-134450000D01*
X251572828Y-134450000D01*
X251572841Y-134449999D01*
X251600205Y-134447057D01*
X251668965Y-134459461D01*
X251686347Y-134470028D01*
X251730336Y-134501987D01*
X251902841Y-134589883D01*
X252086977Y-134649713D01*
X252278198Y-134680000D01*
X252471802Y-134680000D01*
X252663022Y-134649713D01*
X252847158Y-134589883D01*
X253019652Y-134501993D01*
X253019665Y-134501985D01*
X253050806Y-134479360D01*
X253050807Y-134479359D01*
X252520739Y-133949292D01*
X252575712Y-133934563D01*
X252694287Y-133866104D01*
X252791104Y-133769287D01*
X252859563Y-133650712D01*
X252874292Y-133595739D01*
X253404358Y-134125806D01*
X253446271Y-134122508D01*
X253514648Y-134136872D01*
X253564405Y-134185923D01*
X253580000Y-134246123D01*
X253580000Y-134284624D01*
X253580001Y-134284647D01*
X253582854Y-134320910D01*
X253627969Y-134476196D01*
X253710278Y-134615374D01*
X253710285Y-134615383D01*
X253713516Y-134618614D01*
X253747001Y-134679937D01*
X253742017Y-134749629D01*
X253700145Y-134805562D01*
X253693782Y-134809187D01*
X253694097Y-134809658D01*
X253683940Y-134816444D01*
X253519942Y-134980443D01*
X253519939Y-134980446D01*
X253491872Y-135008511D01*
X253430548Y-135041994D01*
X253369602Y-135039904D01*
X253310920Y-135022856D01*
X253310908Y-135022854D01*
X253290000Y-135021209D01*
X253290000Y-135550000D01*
X253295611Y-135555611D01*
X253343539Y-135569685D01*
X253389294Y-135622489D01*
X253400500Y-135674000D01*
X253400500Y-135926000D01*
X253380815Y-135993039D01*
X253328011Y-136038794D01*
X253276500Y-136050000D01*
X252235496Y-136050000D01*
X252250138Y-136100401D01*
X252249938Y-136170270D01*
X252211995Y-136228940D01*
X252148357Y-136257783D01*
X252079227Y-136247641D01*
X252043380Y-136222676D01*
X251932516Y-136111812D01*
X251932508Y-136111806D01*
X251791695Y-136028530D01*
X251791692Y-136028528D01*
X251635001Y-135983005D01*
X251635000Y-135983006D01*
X251635000Y-137616991D01*
X251791697Y-137571468D01*
X251932508Y-137488193D01*
X251932516Y-137488187D01*
X252048187Y-137372516D01*
X252048196Y-137372504D01*
X252084345Y-137311380D01*
X252135413Y-137263696D01*
X252191077Y-137250500D01*
X252234306Y-137250500D01*
X252234309Y-137250500D01*
X252348886Y-137219799D01*
X252451613Y-137160489D01*
X252462600Y-137149501D01*
X252523918Y-137116018D01*
X252593610Y-137121000D01*
X252637960Y-137149501D01*
X252663341Y-137174881D01*
X252671684Y-137183224D01*
X252780513Y-137233972D01*
X252830099Y-137240500D01*
X253139521Y-137240499D01*
X253206560Y-137260183D01*
X253227202Y-137276818D01*
X253625210Y-137674826D01*
X253658695Y-137736149D01*
X253653711Y-137805841D01*
X253625210Y-137850188D01*
X253539513Y-137935884D01*
X253539511Y-137935887D01*
X253480201Y-138038614D01*
X253449500Y-138153191D01*
X253449500Y-138271809D01*
X253480201Y-138386386D01*
X253539511Y-138489113D01*
X253623387Y-138572989D01*
X253726114Y-138632299D01*
X253840691Y-138663000D01*
X253840694Y-138663000D01*
X253873169Y-138663000D01*
X253940208Y-138682685D01*
X253985963Y-138735489D01*
X253995907Y-138804647D01*
X253972359Y-138861413D01*
X253967076Y-138868454D01*
X253915935Y-138919596D01*
X253894951Y-138964595D01*
X253887211Y-138974913D01*
X253869139Y-138988412D01*
X253854231Y-139005344D01*
X253841567Y-139009007D01*
X253831235Y-139016726D01*
X253809625Y-139018249D01*
X253788021Y-139024500D01*
X253687066Y-139024500D01*
X253620027Y-139004815D01*
X253574272Y-138952011D01*
X253565449Y-138924691D01*
X253564868Y-138921770D01*
X253564867Y-138921769D01*
X253520552Y-138855447D01*
X253454230Y-138811132D01*
X253454229Y-138811131D01*
X253395752Y-138799500D01*
X253395748Y-138799500D01*
X251806252Y-138799500D01*
X251806247Y-138799500D01*
X251747770Y-138811131D01*
X251747769Y-138811132D01*
X251681447Y-138855447D01*
X251637132Y-138921769D01*
X251637131Y-138921770D01*
X251625500Y-138980247D01*
X251625500Y-139619752D01*
X251637131Y-139678229D01*
X251637132Y-139678230D01*
X251672465Y-139731109D01*
X251693343Y-139797786D01*
X251674859Y-139865166D01*
X251672465Y-139868891D01*
X251637132Y-139921769D01*
X251637131Y-139921770D01*
X251625500Y-139980247D01*
X251625500Y-140619752D01*
X251637131Y-140678229D01*
X251637132Y-140678231D01*
X251656094Y-140706608D01*
X251676973Y-140773285D01*
X251658489Y-140840665D01*
X251606511Y-140887356D01*
X251552993Y-140899500D01*
X250940538Y-140899500D01*
X250878537Y-140882886D01*
X250873890Y-140880203D01*
X250873887Y-140880201D01*
X250845241Y-140872525D01*
X250759309Y-140849500D01*
X250640691Y-140849500D01*
X250526114Y-140880201D01*
X250526112Y-140880201D01*
X250526112Y-140880202D01*
X250423387Y-140939511D01*
X250423384Y-140939513D01*
X250339513Y-141023384D01*
X250339511Y-141023387D01*
X250334634Y-141031835D01*
X250280201Y-141126114D01*
X250249500Y-141240691D01*
X250249500Y-141359309D01*
X250280201Y-141473886D01*
X250339511Y-141576613D01*
X250423387Y-141660489D01*
X250526114Y-141719799D01*
X250640691Y-141750500D01*
X250640694Y-141750500D01*
X250759306Y-141750500D01*
X250759309Y-141750500D01*
X250873886Y-141719799D01*
X250878537Y-141717114D01*
X250940538Y-141700500D01*
X251225466Y-141700500D01*
X251292505Y-141720185D01*
X251338260Y-141772989D01*
X251348204Y-141842147D01*
X251341648Y-141867832D01*
X251332403Y-141892617D01*
X251332401Y-141892627D01*
X251326000Y-141952155D01*
X251326000Y-142050000D01*
X252477000Y-142050000D01*
X252544039Y-142069685D01*
X252589794Y-142122489D01*
X252601000Y-142174000D01*
X252601000Y-142300000D01*
X252727000Y-142300000D01*
X252794039Y-142319685D01*
X252839794Y-142372489D01*
X252851000Y-142424000D01*
X252851000Y-143100000D01*
X253039927Y-143100000D01*
X253106966Y-143119685D01*
X253152721Y-143172489D01*
X253163216Y-143237257D01*
X253160000Y-143267158D01*
X253160000Y-143415000D01*
X254860000Y-143415000D01*
X254860000Y-143267172D01*
X254859999Y-143267155D01*
X254853598Y-143207627D01*
X254853596Y-143207620D01*
X254803354Y-143072913D01*
X254803350Y-143072906D01*
X254717190Y-142957812D01*
X254610188Y-142877709D01*
X254607451Y-142874053D01*
X254603297Y-142872156D01*
X254586705Y-142846338D01*
X254568318Y-142821775D01*
X254567302Y-142816147D01*
X254565523Y-142813378D01*
X254560500Y-142778443D01*
X254560500Y-142685543D01*
X254580185Y-142618504D01*
X254632989Y-142572749D01*
X254702147Y-142562805D01*
X254765703Y-142591830D01*
X254772181Y-142597862D01*
X255019789Y-142845470D01*
X255019790Y-142845471D01*
X255019792Y-142845472D01*
X255037071Y-142855448D01*
X255099713Y-142891614D01*
X255188857Y-142915500D01*
X255188865Y-142915500D01*
X255196917Y-142916561D01*
X255196648Y-142918602D01*
X255253120Y-142935185D01*
X255291174Y-142973686D01*
X255300071Y-142987893D01*
X255301133Y-142993231D01*
X255337477Y-143047623D01*
X255338456Y-143049186D01*
X255347433Y-143081138D01*
X255357343Y-143112786D01*
X255356840Y-143114618D01*
X255357355Y-143116451D01*
X255347633Y-143148181D01*
X255338859Y-143180166D01*
X255336899Y-143183215D01*
X255336887Y-143183255D01*
X255336857Y-143183279D01*
X255336465Y-143183891D01*
X255301132Y-143236769D01*
X255301131Y-143236770D01*
X255289500Y-143295247D01*
X255289500Y-144034752D01*
X255301131Y-144093229D01*
X255301132Y-144093230D01*
X255345447Y-144159552D01*
X255411769Y-144203867D01*
X255411770Y-144203868D01*
X255470247Y-144215499D01*
X255470250Y-144215500D01*
X255470252Y-144215500D01*
X256209750Y-144215500D01*
X256209751Y-144215499D01*
X256226730Y-144212122D01*
X256268229Y-144203868D01*
X256268229Y-144203867D01*
X256268231Y-144203867D01*
X256334552Y-144159552D01*
X256378867Y-144093231D01*
X256378867Y-144093229D01*
X256378868Y-144093229D01*
X256387552Y-144049568D01*
X256390500Y-144034748D01*
X256390500Y-143555477D01*
X256410185Y-143488438D01*
X256426819Y-143467796D01*
X256537949Y-143356666D01*
X256699558Y-143195058D01*
X256699558Y-143195056D01*
X256699560Y-143195055D01*
X256728107Y-143126133D01*
X256741500Y-143093800D01*
X256741500Y-142984200D01*
X256741500Y-140546964D01*
X256761185Y-140479925D01*
X256777819Y-140459283D01*
X256788937Y-140448165D01*
X256810489Y-140426613D01*
X256869799Y-140323886D01*
X256900500Y-140209309D01*
X256900500Y-140090691D01*
X256869799Y-139976114D01*
X256810489Y-139873387D01*
X256726613Y-139789511D01*
X256623886Y-139730201D01*
X256509309Y-139699500D01*
X256390691Y-139699500D01*
X256276114Y-139730201D01*
X256276112Y-139730201D01*
X256276112Y-139730202D01*
X256173387Y-139789511D01*
X256173384Y-139789513D01*
X256089513Y-139873384D01*
X256089511Y-139873387D01*
X256030200Y-139976114D01*
X256027093Y-139983618D01*
X256025238Y-139982849D01*
X256020895Y-139989972D01*
X256015526Y-140008373D01*
X256003083Y-140019190D01*
X255994502Y-140033266D01*
X255977261Y-140041639D01*
X255962797Y-140054214D01*
X255946482Y-140056587D01*
X255931652Y-140063790D01*
X255912621Y-140061512D01*
X255893655Y-140064272D01*
X255878646Y-140057447D01*
X255862278Y-140055489D01*
X255847499Y-140043284D01*
X255830052Y-140035351D01*
X255817017Y-140018112D01*
X255808404Y-140010999D01*
X255806895Y-140008716D01*
X255802302Y-140001594D01*
X255764065Y-139919596D01*
X255722795Y-139878326D01*
X255715626Y-139867211D01*
X255709324Y-139845878D01*
X255698665Y-139826358D01*
X255699618Y-139813024D01*
X255695831Y-139800204D01*
X255702062Y-139778851D01*
X255703649Y-139756666D01*
X255712602Y-139742734D01*
X255715405Y-139733132D01*
X255723039Y-139726494D01*
X255732150Y-139712319D01*
X255744969Y-139699500D01*
X255764065Y-139680404D01*
X255814068Y-139573173D01*
X255820500Y-139524316D01*
X255820500Y-139075684D01*
X255814068Y-139026827D01*
X255764065Y-138919596D01*
X255680404Y-138835935D01*
X255680401Y-138835933D01*
X255672622Y-138830487D01*
X255628996Y-138775911D01*
X255621802Y-138706413D01*
X255653323Y-138644058D01*
X255656033Y-138641260D01*
X255669215Y-138628079D01*
X255712707Y-138529580D01*
X255715500Y-138505505D01*
X255715499Y-137919496D01*
X255712707Y-137895420D01*
X255673154Y-137805841D01*
X255669218Y-137796926D01*
X255669216Y-137796923D01*
X255669215Y-137796921D01*
X255642304Y-137770010D01*
X255608819Y-137708687D01*
X255613803Y-137638995D01*
X255655675Y-137583062D01*
X255682534Y-137567767D01*
X255723784Y-137550681D01*
X255723786Y-137550680D01*
X255846509Y-137456510D01*
X255846510Y-137456509D01*
X255940680Y-137333786D01*
X255940683Y-137333780D01*
X255999877Y-137190871D01*
X255999879Y-137190866D01*
X256015000Y-137076011D01*
X256015000Y-136962500D01*
X255464000Y-136962500D01*
X255455314Y-136959949D01*
X255446353Y-136961238D01*
X255422312Y-136950259D01*
X255396961Y-136942815D01*
X255391033Y-136935974D01*
X255382797Y-136932213D01*
X255368507Y-136909978D01*
X255351206Y-136890011D01*
X255348918Y-136879496D01*
X255345023Y-136873435D01*
X255340000Y-136838500D01*
X255340000Y-136787500D01*
X255339499Y-136787500D01*
X255272460Y-136767815D01*
X255226705Y-136715011D01*
X255215499Y-136663500D01*
X255215499Y-136612500D01*
X255515000Y-136612500D01*
X256014999Y-136612500D01*
X256014999Y-136498986D01*
X255999881Y-136384140D01*
X255999877Y-136384128D01*
X255940683Y-136241219D01*
X255940680Y-136241213D01*
X255846510Y-136118490D01*
X255846509Y-136118489D01*
X255723786Y-136024319D01*
X255723780Y-136024316D01*
X255580868Y-135965121D01*
X255515000Y-135956448D01*
X255515000Y-136612500D01*
X255215499Y-136612500D01*
X255215499Y-136494503D01*
X255215499Y-136494496D01*
X255212707Y-136470420D01*
X255211876Y-136468538D01*
X255175566Y-136386303D01*
X255165000Y-136336217D01*
X255165000Y-135956450D01*
X255152563Y-135945544D01*
X255144591Y-135945043D01*
X255139864Y-135941567D01*
X255134067Y-135940663D01*
X255112034Y-135921105D01*
X255088300Y-135903654D01*
X255085150Y-135897240D01*
X255081814Y-135894279D01*
X255071120Y-135872823D01*
X255068817Y-135866808D01*
X255048054Y-135789318D01*
X255021642Y-135743573D01*
X255018133Y-135734404D01*
X255016094Y-135708972D01*
X255010078Y-135684175D01*
X255013348Y-135674724D01*
X255012550Y-135664758D01*
X255024584Y-135642261D01*
X255032930Y-135618148D01*
X255040790Y-135611966D01*
X255045507Y-135603149D01*
X255067793Y-135590729D01*
X255087850Y-135574957D01*
X255098499Y-135573619D01*
X255106540Y-135569139D01*
X255124951Y-135570296D01*
X255150123Y-135567135D01*
X255175683Y-135570500D01*
X255175684Y-135570500D01*
X255524317Y-135570500D01*
X255549876Y-135567135D01*
X255573173Y-135564068D01*
X255680404Y-135514065D01*
X255764065Y-135430404D01*
X255814068Y-135323173D01*
X255820500Y-135274316D01*
X255820500Y-134825684D01*
X255819283Y-134816443D01*
X255814068Y-134776828D01*
X255814068Y-134776827D01*
X255764065Y-134669596D01*
X255715684Y-134621215D01*
X255682200Y-134559893D01*
X255687184Y-134490201D01*
X255715684Y-134445855D01*
X255743224Y-134418316D01*
X255793972Y-134309487D01*
X255800500Y-134259901D01*
X255800499Y-133840100D01*
X255793972Y-133790513D01*
X255743224Y-133681684D01*
X255658316Y-133596776D01*
X255658315Y-133596775D01*
X255649429Y-133590553D01*
X255651692Y-133587321D01*
X255614606Y-133554617D01*
X255597225Y-133509096D01*
X255595500Y-133498861D01*
X255595500Y-133475200D01*
X255588775Y-133458966D01*
X255586440Y-133445109D01*
X255588978Y-133423811D01*
X255586685Y-133402487D01*
X255593030Y-133389810D01*
X255594708Y-133375731D01*
X255608358Y-133359185D01*
X255617958Y-133340007D01*
X255630149Y-133332772D01*
X255639173Y-133321836D01*
X255659602Y-133315296D01*
X255678046Y-133304353D01*
X255703965Y-133301096D01*
X255705717Y-133300536D01*
X255706583Y-133300767D01*
X255708715Y-133300500D01*
X255934750Y-133300500D01*
X255934751Y-133300499D01*
X255949568Y-133297552D01*
X255993229Y-133288868D01*
X255993229Y-133288867D01*
X255993231Y-133288867D01*
X256047394Y-133252676D01*
X256069707Y-133237767D01*
X256072272Y-133241607D01*
X256111183Y-133219895D01*
X256170741Y-133221038D01*
X256280691Y-133250500D01*
X256280694Y-133250500D01*
X256399306Y-133250500D01*
X256399309Y-133250500D01*
X256513886Y-133219799D01*
X256616613Y-133160489D01*
X256700489Y-133076613D01*
X256759799Y-132973886D01*
X256790500Y-132859309D01*
X256790500Y-132740691D01*
X256759799Y-132626114D01*
X256700489Y-132523387D01*
X256616613Y-132439511D01*
X256513886Y-132380201D01*
X256399309Y-132349500D01*
X256280691Y-132349500D01*
X256166114Y-132380201D01*
X256166113Y-132380201D01*
X256166111Y-132380202D01*
X256115310Y-132409532D01*
X256047410Y-132426004D01*
X256005946Y-132412340D01*
X256004511Y-132415806D01*
X255993226Y-132411131D01*
X255934752Y-132399500D01*
X255934748Y-132399500D01*
X254245252Y-132399500D01*
X254245247Y-132399500D01*
X254186770Y-132411131D01*
X254186769Y-132411132D01*
X254120447Y-132455447D01*
X254076132Y-132521769D01*
X254076131Y-132521770D01*
X254064500Y-132580247D01*
X254064500Y-133119749D01*
X254068445Y-133139584D01*
X254062216Y-133209176D01*
X254019352Y-133264352D01*
X253981424Y-133282849D01*
X253963806Y-133287967D01*
X253963804Y-133287968D01*
X253824625Y-133370278D01*
X253824614Y-133370286D01*
X253809445Y-133385456D01*
X253748121Y-133418940D01*
X253678430Y-133413954D01*
X253622497Y-133372081D01*
X253599293Y-133317170D01*
X253574714Y-133161978D01*
X253574713Y-133161977D01*
X253514883Y-132977841D01*
X253426991Y-132805343D01*
X253404359Y-132774192D01*
X253404358Y-132774192D01*
X252874292Y-133304259D01*
X252859563Y-133249288D01*
X252791104Y-133130713D01*
X252694287Y-133033896D01*
X252575712Y-132965437D01*
X252520738Y-132950706D01*
X253050806Y-132420639D01*
X253050806Y-132420638D01*
X253019662Y-132398011D01*
X252847159Y-132310116D01*
X252797870Y-132294101D01*
X252740195Y-132254662D01*
X252712997Y-132190304D01*
X252724912Y-132121457D01*
X252772157Y-132069982D01*
X252839731Y-132052221D01*
X252870784Y-132057094D01*
X252939871Y-132077166D01*
X252939877Y-132077167D01*
X252975000Y-132079931D01*
X252975000Y-132079930D01*
X253475000Y-132079930D01*
X253510122Y-132077167D01*
X253510128Y-132077166D01*
X253664188Y-132032407D01*
X253664191Y-132032406D01*
X253802285Y-131950738D01*
X253802294Y-131950731D01*
X253915731Y-131837294D01*
X253915738Y-131837285D01*
X253997404Y-131699194D01*
X254037844Y-131560000D01*
X253475000Y-131560000D01*
X253475000Y-132079930D01*
X252975000Y-132079930D01*
X252975000Y-131434000D01*
X252994685Y-131366961D01*
X253047489Y-131321206D01*
X253099000Y-131310000D01*
X253225000Y-131310000D01*
X253225000Y-131184000D01*
X253244685Y-131116961D01*
X253297489Y-131071206D01*
X253349000Y-131060000D01*
X254051000Y-131060000D01*
X254118039Y-131079685D01*
X254163794Y-131132489D01*
X254175000Y-131184000D01*
X254175000Y-131295465D01*
X254217180Y-131299999D01*
X254217182Y-131300000D01*
X254840000Y-131300000D01*
X255340000Y-131300000D01*
X255962828Y-131300000D01*
X255962844Y-131299999D01*
X256022372Y-131293598D01*
X256022379Y-131293596D01*
X256157086Y-131243354D01*
X256157093Y-131243350D01*
X256272187Y-131157190D01*
X256272190Y-131157187D01*
X256358350Y-131042093D01*
X256358354Y-131042086D01*
X256408596Y-130907379D01*
X256408598Y-130907372D01*
X256414999Y-130847844D01*
X256415000Y-130847827D01*
X256415000Y-130800000D01*
X255340000Y-130800000D01*
X255340000Y-131300000D01*
X254840000Y-131300000D01*
X254840000Y-130300000D01*
X255340000Y-130300000D01*
X256415000Y-130300000D01*
X256415000Y-130252172D01*
X256414999Y-130252155D01*
X256408598Y-130192627D01*
X256408596Y-130192620D01*
X256358354Y-130057913D01*
X256358350Y-130057906D01*
X256272190Y-129942812D01*
X256272187Y-129942809D01*
X256157093Y-129856649D01*
X256157086Y-129856645D01*
X256022379Y-129806403D01*
X256022372Y-129806401D01*
X255962844Y-129800000D01*
X255340000Y-129800000D01*
X255340000Y-130300000D01*
X254840000Y-130300000D01*
X254840000Y-129800000D01*
X254217155Y-129800000D01*
X254157627Y-129806401D01*
X254157620Y-129806403D01*
X254022913Y-129856645D01*
X254022906Y-129856649D01*
X253907813Y-129942809D01*
X253891331Y-129964825D01*
X253835396Y-130006694D01*
X253765704Y-130011676D01*
X253704382Y-129978189D01*
X253690488Y-129961630D01*
X253689067Y-129959601D01*
X253689065Y-129959596D01*
X253605404Y-129875935D01*
X253498173Y-129825932D01*
X253498171Y-129825931D01*
X253498172Y-129825931D01*
X253449317Y-129819500D01*
X253449316Y-129819500D01*
X253173920Y-129819500D01*
X253106881Y-129799815D01*
X253061126Y-129747011D01*
X253050302Y-129685770D01*
X253050806Y-129679358D01*
X252520739Y-129149292D01*
X252575712Y-129134563D01*
X252694287Y-129066104D01*
X252791104Y-128969287D01*
X252859563Y-128850712D01*
X252874292Y-128795739D01*
X253404359Y-129325807D01*
X253404360Y-129325806D01*
X253426985Y-129294665D01*
X253426993Y-129294652D01*
X253514883Y-129122158D01*
X253574713Y-128938022D01*
X253605000Y-128746802D01*
X253605000Y-128553197D01*
X253574713Y-128361977D01*
X253514883Y-128177841D01*
X253426991Y-128005343D01*
X253404359Y-127974192D01*
X252874292Y-128504259D01*
X252859563Y-128449288D01*
X252791104Y-128330713D01*
X252694287Y-128233896D01*
X252575712Y-128165437D01*
X252520738Y-128150706D01*
X253050806Y-127620639D01*
X253050806Y-127620638D01*
X253019662Y-127598011D01*
X252847158Y-127510116D01*
X252663022Y-127450286D01*
X252471802Y-127420000D01*
X252278198Y-127420000D01*
X252086977Y-127450286D01*
X251902841Y-127510116D01*
X251730342Y-127598008D01*
X251686343Y-127629974D01*
X251620536Y-127653451D01*
X251600208Y-127652943D01*
X251572833Y-127650000D01*
X251240000Y-127650000D01*
X251240000Y-129014134D01*
X251221019Y-129078774D01*
X251235112Y-129122150D01*
X251235115Y-129122156D01*
X251310040Y-129269205D01*
X251322936Y-129337874D01*
X251296660Y-129402615D01*
X251239553Y-129442872D01*
X251199555Y-129449500D01*
X250635247Y-129449500D01*
X250576771Y-129461131D01*
X250567291Y-129465059D01*
X250519834Y-129474500D01*
X249930166Y-129474500D01*
X249882709Y-129465059D01*
X249873228Y-129461131D01*
X249814752Y-129449500D01*
X249814748Y-129449500D01*
X249392575Y-129449500D01*
X249391699Y-129449497D01*
X249380272Y-129449416D01*
X249376853Y-129448500D01*
X249250503Y-129448500D01*
X249250078Y-129448497D01*
X249217016Y-129438534D01*
X249183915Y-129428815D01*
X249183616Y-129428470D01*
X249183180Y-129428339D01*
X249160735Y-129402064D01*
X249138160Y-129376011D01*
X249138095Y-129375560D01*
X249137799Y-129375214D01*
X249133129Y-129341024D01*
X249128216Y-129306853D01*
X249128388Y-129306310D01*
X249128344Y-129305987D01*
X249128804Y-129304998D01*
X249140469Y-129268205D01*
X249214885Y-129122156D01*
X249214887Y-129122150D01*
X249229819Y-129076194D01*
X249210202Y-129021213D01*
X249210000Y-129014134D01*
X249210000Y-128950000D01*
X249510000Y-128950000D01*
X249842828Y-128950000D01*
X249842844Y-128949999D01*
X249902372Y-128943598D01*
X249902379Y-128943596D01*
X250037086Y-128893354D01*
X250037089Y-128893352D01*
X250150688Y-128808312D01*
X250216153Y-128783894D01*
X250284426Y-128798745D01*
X250299312Y-128808312D01*
X250412910Y-128893352D01*
X250412913Y-128893354D01*
X250547620Y-128943596D01*
X250547627Y-128943598D01*
X250607155Y-128949999D01*
X250607172Y-128950000D01*
X250940000Y-128950000D01*
X250940000Y-128450000D01*
X249510000Y-128450000D01*
X249510000Y-128950000D01*
X249210000Y-128950000D01*
X249210000Y-127650000D01*
X248877164Y-127650000D01*
X248849789Y-127652943D01*
X248781030Y-127640536D01*
X248763652Y-127629971D01*
X248719664Y-127598012D01*
X248547158Y-127510116D01*
X248363022Y-127450286D01*
X248171802Y-127420000D01*
X247978198Y-127420000D01*
X247786977Y-127450286D01*
X247602841Y-127510116D01*
X247430337Y-127598011D01*
X247399192Y-127620639D01*
X247399191Y-127620639D01*
X247929260Y-128150707D01*
X247874288Y-128165437D01*
X247755713Y-128233896D01*
X247658896Y-128330713D01*
X247590437Y-128449288D01*
X247575707Y-128504260D01*
X247196819Y-128125372D01*
X247163334Y-128064049D01*
X247160500Y-128037691D01*
X247160500Y-127869477D01*
X247160500Y-127869472D01*
X247150645Y-127801830D01*
X247099636Y-127697489D01*
X247099634Y-127697487D01*
X247099634Y-127697486D01*
X247017512Y-127615364D01*
X246985039Y-127599489D01*
X246933457Y-127552361D01*
X246915500Y-127488089D01*
X246915500Y-126985201D01*
X246915500Y-126985200D01*
X246873557Y-126883942D01*
X246796058Y-126806443D01*
X246681385Y-126691770D01*
X246649292Y-126636184D01*
X246619799Y-126526114D01*
X246616354Y-126520148D01*
X246611851Y-126512348D01*
X246560489Y-126423387D01*
X246476613Y-126339511D01*
X246409563Y-126300799D01*
X246361348Y-126250233D01*
X246348126Y-126181626D01*
X246374094Y-126116761D01*
X246383875Y-126105740D01*
X246777797Y-125711819D01*
X246839120Y-125678334D01*
X246865478Y-125675500D01*
X247337578Y-125675500D01*
X247337579Y-125675500D01*
X247438837Y-125633557D01*
X247516336Y-125556058D01*
X247516335Y-125556058D01*
X247647393Y-125425000D01*
X248143374Y-125425000D01*
X248154478Y-125509340D01*
X248154478Y-125509342D01*
X248211156Y-125646175D01*
X248301320Y-125763679D01*
X248418824Y-125853843D01*
X248555658Y-125910521D01*
X248665622Y-125924999D01*
X248665637Y-125925000D01*
X248695000Y-125925000D01*
X248695000Y-125425000D01*
X248143374Y-125425000D01*
X247647393Y-125425000D01*
X247860577Y-125211817D01*
X247921900Y-125178334D01*
X247948257Y-125175500D01*
X248300840Y-125175500D01*
X248305915Y-125175000D01*
X248696000Y-125175000D01*
X248763039Y-125194685D01*
G37*
%TD.AperFunction*%
%TA.AperFunction,Conductor*%
G36*
X246592540Y-144582685D02*
G01*
X246638295Y-144635489D01*
X246649501Y-144687000D01*
X246649501Y-144894856D01*
X246649502Y-144894882D01*
X246652413Y-144919987D01*
X246652415Y-144919991D01*
X246697793Y-145022763D01*
X246700326Y-145026461D01*
X246717800Y-145064442D01*
X246723384Y-145085282D01*
X246723387Y-145085289D01*
X246769527Y-145165207D01*
X246769531Y-145165212D01*
X247024202Y-145419883D01*
X247057687Y-145481206D01*
X247052703Y-145550898D01*
X247010831Y-145606831D01*
X246945367Y-145631248D01*
X246907143Y-145625054D01*
X246906780Y-145626883D01*
X246894800Y-145624500D01*
X246894799Y-145624500D01*
X245521457Y-145624500D01*
X245454418Y-145604815D01*
X245408663Y-145552011D01*
X245398719Y-145482853D01*
X245427744Y-145419297D01*
X245474005Y-145385939D01*
X245502586Y-145374100D01*
X245627926Y-145277922D01*
X245688478Y-145199012D01*
X245744906Y-145157810D01*
X245786850Y-145150499D01*
X245894864Y-145150499D01*
X245894879Y-145150497D01*
X245894882Y-145150497D01*
X245919987Y-145147586D01*
X245919988Y-145147585D01*
X245919991Y-145147585D01*
X246022765Y-145102206D01*
X246102206Y-145022765D01*
X246147585Y-144919991D01*
X246150500Y-144894865D01*
X246150500Y-144687000D01*
X246170185Y-144619961D01*
X246222989Y-144574206D01*
X246274500Y-144563000D01*
X246525501Y-144563000D01*
X246592540Y-144582685D01*
G37*
%TD.AperFunction*%
%TA.AperFunction,Conductor*%
G36*
X242998814Y-137316854D02*
G01*
X243012147Y-137314938D01*
X243032290Y-137324137D01*
X243053927Y-137328844D01*
X243071652Y-137342112D01*
X243075703Y-137343963D01*
X243082181Y-137349995D01*
X243132686Y-137400500D01*
X243246814Y-137466392D01*
X243374108Y-137500500D01*
X243374110Y-137500500D01*
X243505890Y-137500500D01*
X243505892Y-137500500D01*
X243633186Y-137466392D01*
X243633187Y-137466391D01*
X243641037Y-137464288D01*
X243641776Y-137467046D01*
X243697503Y-137461049D01*
X243759986Y-137492317D01*
X243795645Y-137552401D01*
X243799500Y-137583081D01*
X243799500Y-138369752D01*
X243811131Y-138428229D01*
X243811132Y-138428230D01*
X243855447Y-138494552D01*
X243921769Y-138538867D01*
X243921770Y-138538868D01*
X243980247Y-138550499D01*
X243980250Y-138550500D01*
X243980252Y-138550500D01*
X245019750Y-138550500D01*
X245019751Y-138550499D01*
X245034568Y-138547552D01*
X245078229Y-138538868D01*
X245078229Y-138538867D01*
X245078231Y-138538867D01*
X245144552Y-138494552D01*
X245183937Y-138435608D01*
X245190028Y-138430518D01*
X245193326Y-138423297D01*
X245216453Y-138408433D01*
X245237549Y-138390804D01*
X245246923Y-138388852D01*
X245252104Y-138385523D01*
X245287039Y-138380500D01*
X245520656Y-138380500D01*
X245587695Y-138400185D01*
X245633450Y-138452989D01*
X245643394Y-138522147D01*
X245614369Y-138585703D01*
X245594968Y-138603766D01*
X245542809Y-138642812D01*
X245456649Y-138757906D01*
X245456645Y-138757913D01*
X245406403Y-138892620D01*
X245406401Y-138892626D01*
X245405452Y-138901459D01*
X245378713Y-138966009D01*
X245321321Y-139005857D01*
X245251495Y-139008350D01*
X245191407Y-138972697D01*
X245179061Y-138957093D01*
X245144552Y-138905447D01*
X245078230Y-138861132D01*
X245078229Y-138861131D01*
X245019752Y-138849500D01*
X245019748Y-138849500D01*
X243980252Y-138849500D01*
X243980247Y-138849500D01*
X243921770Y-138861131D01*
X243921769Y-138861132D01*
X243855447Y-138905447D01*
X243811132Y-138971769D01*
X243811131Y-138971770D01*
X243799500Y-139030247D01*
X243799500Y-139793822D01*
X243779815Y-139860861D01*
X243727011Y-139906616D01*
X243710095Y-139912898D01*
X243623809Y-139937966D01*
X243623804Y-139937968D01*
X243484625Y-140020278D01*
X243484616Y-140020285D01*
X243370285Y-140134616D01*
X243370278Y-140134625D01*
X243287968Y-140273804D01*
X243287966Y-140273809D01*
X243242855Y-140429081D01*
X243242854Y-140429087D01*
X243241209Y-140449999D01*
X243241210Y-140450000D01*
X243896000Y-140450000D01*
X243963039Y-140469685D01*
X244008794Y-140522489D01*
X244020000Y-140574000D01*
X244020000Y-140700000D01*
X244146000Y-140700000D01*
X244213039Y-140719685D01*
X244258794Y-140772489D01*
X244270000Y-140824000D01*
X244270000Y-141462186D01*
X244263373Y-141484754D01*
X244261157Y-141508174D01*
X244252750Y-141520930D01*
X244250315Y-141529225D01*
X244243536Y-141538754D01*
X244238934Y-141544615D01*
X244169530Y-141614020D01*
X244132458Y-141678231D01*
X244128053Y-141685858D01*
X244128050Y-141685864D01*
X244123386Y-141693942D01*
X244123385Y-141693945D01*
X244108595Y-141749139D01*
X244102256Y-141767129D01*
X244052415Y-141880009D01*
X244049500Y-141905131D01*
X244049500Y-143119856D01*
X244049502Y-143119882D01*
X244052413Y-143144987D01*
X244052415Y-143144991D01*
X244097793Y-143247764D01*
X244162348Y-143312319D01*
X244163125Y-143313742D01*
X244164531Y-143314557D01*
X244179814Y-143344306D01*
X244195833Y-143373642D01*
X244195717Y-143375261D01*
X244196459Y-143376705D01*
X244193234Y-143409971D01*
X244190849Y-143443334D01*
X244189825Y-143445154D01*
X244189719Y-143446249D01*
X244186284Y-143451447D01*
X244172029Y-143476789D01*
X244167508Y-143482520D01*
X244097794Y-143552235D01*
X244079058Y-143594667D01*
X244069330Y-143607002D01*
X244053133Y-143618501D01*
X244040315Y-143633676D01*
X244025228Y-143638312D01*
X244012359Y-143647450D01*
X243992516Y-143648367D01*
X243973529Y-143654203D01*
X243958330Y-143649947D01*
X243942564Y-143650676D01*
X243925375Y-143640720D01*
X243906247Y-143635364D01*
X243884287Y-143617894D01*
X243853283Y-143586890D01*
X243821188Y-143531298D01*
X243819799Y-143526114D01*
X243807098Y-143504115D01*
X243760489Y-143423387D01*
X243676613Y-143339511D01*
X243573886Y-143280201D01*
X243459309Y-143249500D01*
X243340691Y-143249500D01*
X243226114Y-143280201D01*
X243226112Y-143280201D01*
X243226112Y-143280202D01*
X243123387Y-143339511D01*
X243123384Y-143339513D01*
X243082181Y-143380717D01*
X243020858Y-143414202D01*
X242951166Y-143409218D01*
X242895233Y-143367346D01*
X242870816Y-143301882D01*
X242870500Y-143293036D01*
X242870500Y-140950000D01*
X243241210Y-140950000D01*
X243242854Y-140970910D01*
X243287968Y-141126195D01*
X243370278Y-141265374D01*
X243370285Y-141265383D01*
X243484616Y-141379714D01*
X243484625Y-141379721D01*
X243623804Y-141462031D01*
X243770000Y-141504504D01*
X243770000Y-140950000D01*
X243241210Y-140950000D01*
X242870500Y-140950000D01*
X242870500Y-137437676D01*
X242876738Y-137416430D01*
X242878318Y-137394342D01*
X242886390Y-137383558D01*
X242890185Y-137370637D01*
X242906918Y-137356137D01*
X242920190Y-137338409D01*
X242932810Y-137333701D01*
X242942989Y-137324882D01*
X242964906Y-137321730D01*
X242985654Y-137313992D01*
X242998814Y-137316854D01*
G37*
%TD.AperFunction*%
%TA.AperFunction,Conductor*%
G36*
X248931956Y-137287365D02*
G01*
X248970196Y-137345842D01*
X248975500Y-137381720D01*
X248975500Y-138619748D01*
X248975501Y-138619752D01*
X248986608Y-138675594D01*
X248980379Y-138745185D01*
X248937516Y-138800362D01*
X248871626Y-138823606D01*
X248848809Y-138822724D01*
X248832859Y-138820624D01*
X248824316Y-138819500D01*
X248375684Y-138819500D01*
X248375683Y-138819500D01*
X248326828Y-138825931D01*
X248219595Y-138875935D01*
X248179778Y-138915752D01*
X248118455Y-138949236D01*
X248048763Y-138944251D01*
X247992830Y-138902379D01*
X247988996Y-138896962D01*
X247957282Y-138849500D01*
X247944552Y-138830448D01*
X247937794Y-138825932D01*
X247878230Y-138786132D01*
X247878229Y-138786131D01*
X247875309Y-138785551D01*
X247869532Y-138782529D01*
X247866946Y-138781458D01*
X247867041Y-138781226D01*
X247847185Y-138770840D01*
X247818297Y-138757647D01*
X247816439Y-138754757D01*
X247813398Y-138753166D01*
X247797691Y-138725583D01*
X247780523Y-138698869D01*
X247779862Y-138694274D01*
X247778824Y-138692451D01*
X247775500Y-138663934D01*
X247775500Y-138571469D01*
X247795185Y-138504430D01*
X247847989Y-138458675D01*
X247854961Y-138456082D01*
X247859485Y-138453972D01*
X247859487Y-138453972D01*
X247968316Y-138403224D01*
X248053224Y-138318316D01*
X248103972Y-138209487D01*
X248110500Y-138159901D01*
X248110499Y-137800100D01*
X248109230Y-137790463D01*
X248119994Y-137721433D01*
X248160350Y-137675962D01*
X248159215Y-137674499D01*
X248165383Y-137669714D01*
X248279714Y-137555383D01*
X248279721Y-137555374D01*
X248362031Y-137416195D01*
X248363859Y-137409905D01*
X248401466Y-137351020D01*
X248464938Y-137321813D01*
X248482936Y-137320500D01*
X248654317Y-137320500D01*
X248670601Y-137318356D01*
X248703173Y-137314068D01*
X248799096Y-137269337D01*
X248868172Y-137258846D01*
X248931956Y-137287365D01*
G37*
%TD.AperFunction*%
%TA.AperFunction,Conductor*%
G36*
X246022826Y-136170185D02*
G01*
X246068581Y-136222989D01*
X246078525Y-136292147D01*
X246049500Y-136355703D01*
X246040038Y-136364664D01*
X246040138Y-136364764D01*
X245920285Y-136484616D01*
X245920278Y-136484625D01*
X245837968Y-136623804D01*
X245795496Y-136770000D01*
X247350000Y-136770000D01*
X247362263Y-136757736D01*
X247369685Y-136732461D01*
X247422489Y-136686706D01*
X247474000Y-136675500D01*
X247726000Y-136675500D01*
X247734685Y-136678050D01*
X247743647Y-136676762D01*
X247767687Y-136687740D01*
X247793039Y-136695185D01*
X247798966Y-136702025D01*
X247807203Y-136705787D01*
X247821492Y-136728021D01*
X247838794Y-136747989D01*
X247841081Y-136758503D01*
X247844977Y-136764565D01*
X247850000Y-136799500D01*
X247850000Y-136896000D01*
X247830315Y-136963039D01*
X247777511Y-137008794D01*
X247726000Y-137020000D01*
X247600000Y-137020000D01*
X247600000Y-137146000D01*
X247580315Y-137213039D01*
X247527511Y-137258794D01*
X247476000Y-137270000D01*
X245795496Y-137270000D01*
X245839337Y-137420906D01*
X245839137Y-137490775D01*
X245801194Y-137549445D01*
X245737556Y-137578288D01*
X245720260Y-137579500D01*
X245324500Y-137579500D01*
X245257461Y-137559815D01*
X245211706Y-137507011D01*
X245200500Y-137455500D01*
X245200500Y-137430249D01*
X245200499Y-137430247D01*
X245188868Y-137371770D01*
X245188867Y-137371769D01*
X245144552Y-137305447D01*
X245068077Y-137254348D01*
X245070208Y-137251158D01*
X245032781Y-137220980D01*
X245010735Y-137154679D01*
X245014883Y-137118192D01*
X245015500Y-137115892D01*
X245015500Y-136984108D01*
X244981392Y-136856814D01*
X244915500Y-136742686D01*
X244822314Y-136649500D01*
X244708186Y-136583608D01*
X244634782Y-136563939D01*
X244629598Y-136560780D01*
X244623543Y-136560347D01*
X244600114Y-136542808D01*
X244575123Y-136527575D01*
X244572469Y-136522113D01*
X244567610Y-136518475D01*
X244557381Y-136491052D01*
X244544594Y-136464727D01*
X244545314Y-136458699D01*
X244543193Y-136453011D01*
X244549414Y-136424412D01*
X244552889Y-136395352D01*
X244557084Y-136389153D01*
X244558045Y-136384738D01*
X244579193Y-136356487D01*
X244748862Y-136186819D01*
X244810185Y-136153334D01*
X244836543Y-136150500D01*
X245955787Y-136150500D01*
X246022826Y-136170185D01*
G37*
%TD.AperFunction*%
%TA.AperFunction,Conductor*%
G36*
X246063834Y-133136494D02*
G01*
X246119767Y-133178366D01*
X246144184Y-133243830D01*
X246144500Y-133252676D01*
X246144500Y-135312598D01*
X246135855Y-135342038D01*
X246129332Y-135372025D01*
X246125577Y-135377040D01*
X246124815Y-135379637D01*
X246108181Y-135400279D01*
X246095279Y-135413181D01*
X246033956Y-135446666D01*
X246007598Y-135449500D01*
X245688832Y-135449500D01*
X245621793Y-135429815D01*
X245576038Y-135377011D01*
X245565893Y-135309317D01*
X245570500Y-135274319D01*
X245570500Y-134825694D01*
X245570500Y-134825684D01*
X245570498Y-134825674D01*
X245570417Y-134824430D01*
X245570500Y-134824058D01*
X245570500Y-134821625D01*
X245571044Y-134821625D01*
X245585669Y-134756245D01*
X245606470Y-134728626D01*
X245719717Y-134615379D01*
X245719721Y-134615374D01*
X245802031Y-134476195D01*
X245802033Y-134476190D01*
X245847144Y-134320918D01*
X245847145Y-134320912D01*
X245848790Y-134300000D01*
X245194000Y-134300000D01*
X245126961Y-134280315D01*
X245081206Y-134227511D01*
X245070000Y-134176000D01*
X245070000Y-133924000D01*
X245089685Y-133856961D01*
X245142489Y-133811206D01*
X245194000Y-133800000D01*
X245848790Y-133800000D01*
X245847145Y-133779089D01*
X245802031Y-133623804D01*
X245719721Y-133484625D01*
X245719714Y-133484616D01*
X245712887Y-133477789D01*
X245679402Y-133416466D01*
X245684386Y-133346774D01*
X245726258Y-133290841D01*
X245768475Y-133270333D01*
X245783186Y-133266392D01*
X245897314Y-133200500D01*
X245932819Y-133164995D01*
X245994142Y-133131510D01*
X246063834Y-133136494D01*
G37*
%TD.AperFunction*%
%TA.AperFunction,Conductor*%
G36*
X245736745Y-126855382D02*
G01*
X245792679Y-126897254D01*
X245800798Y-126909563D01*
X245839506Y-126976606D01*
X245839509Y-126976610D01*
X245839511Y-126976613D01*
X245923387Y-127060489D01*
X246026114Y-127119799D01*
X246140691Y-127150500D01*
X246140694Y-127150500D01*
X246240500Y-127150500D01*
X246249185Y-127153050D01*
X246258147Y-127151762D01*
X246282187Y-127162740D01*
X246307539Y-127170185D01*
X246313466Y-127177025D01*
X246321703Y-127180787D01*
X246335992Y-127203021D01*
X246353294Y-127222989D01*
X246355581Y-127233503D01*
X246359477Y-127239565D01*
X246364500Y-127274500D01*
X246364500Y-127488089D01*
X246344815Y-127555128D01*
X246294961Y-127599489D01*
X246262487Y-127615364D01*
X246218840Y-127659011D01*
X246157517Y-127692495D01*
X246087825Y-127687510D01*
X246043479Y-127659010D01*
X246020404Y-127635935D01*
X245987602Y-127620639D01*
X245913173Y-127585932D01*
X245913171Y-127585931D01*
X245913172Y-127585931D01*
X245864317Y-127579500D01*
X245864316Y-127579500D01*
X245415684Y-127579500D01*
X245415683Y-127579500D01*
X245366828Y-127585931D01*
X245259595Y-127635935D01*
X245175935Y-127719595D01*
X245125931Y-127826828D01*
X245119500Y-127875683D01*
X245119500Y-128224316D01*
X245125931Y-128273173D01*
X245128505Y-128282003D01*
X245128363Y-128351873D01*
X245090469Y-128410574D01*
X245072582Y-128423426D01*
X245062708Y-128429265D01*
X245062708Y-128429266D01*
X244949268Y-128542705D01*
X244949261Y-128542714D01*
X244873039Y-128671599D01*
X244881963Y-128820000D01*
X245516000Y-128820000D01*
X245583039Y-128839685D01*
X245628794Y-128892489D01*
X245640000Y-128944000D01*
X245640000Y-129070000D01*
X245766000Y-129070000D01*
X245833039Y-129089685D01*
X245878794Y-129142489D01*
X245890000Y-129194000D01*
X245890000Y-129839930D01*
X245925122Y-129837167D01*
X245925128Y-129837166D01*
X245999590Y-129815533D01*
X246015803Y-129815579D01*
X246031248Y-129810644D01*
X246050021Y-129815676D01*
X246069459Y-129815732D01*
X246083073Y-129824536D01*
X246098735Y-129828735D01*
X246111808Y-129843119D01*
X246128129Y-129853674D01*
X246134821Y-129868440D01*
X246145728Y-129880440D01*
X246148948Y-129899608D01*
X246156973Y-129917312D01*
X246154740Y-129934076D01*
X246157306Y-129949344D01*
X246149641Y-129972367D01*
X246148168Y-129983434D01*
X246142119Y-129997553D01*
X246139535Y-130000138D01*
X246096682Y-130074361D01*
X246078038Y-130143942D01*
X246074500Y-130157147D01*
X246074500Y-132067147D01*
X246074500Y-132152853D01*
X246081224Y-132177947D01*
X246096682Y-132235640D01*
X246121926Y-132279362D01*
X246138399Y-132347262D01*
X246115547Y-132413289D01*
X246060626Y-132456480D01*
X245991073Y-132463122D01*
X245928970Y-132431107D01*
X245926858Y-132429044D01*
X245897316Y-132399502D01*
X245897314Y-132399500D01*
X245833854Y-132362861D01*
X245783187Y-132333608D01*
X245719539Y-132316554D01*
X245655892Y-132299500D01*
X245524108Y-132299500D01*
X245396814Y-132333608D01*
X245396813Y-132333608D01*
X245396811Y-132333609D01*
X245396810Y-132333609D01*
X245298007Y-132390653D01*
X245230106Y-132407126D01*
X245211817Y-132404884D01*
X245184748Y-132399500D01*
X243495252Y-132399500D01*
X243495247Y-132399500D01*
X243436770Y-132411131D01*
X243436770Y-132411132D01*
X243414390Y-132426086D01*
X243347713Y-132446963D01*
X243280333Y-132428478D01*
X243233643Y-132376499D01*
X243221500Y-132322983D01*
X243221500Y-131402771D01*
X243241185Y-131335732D01*
X243293989Y-131289977D01*
X243363147Y-131280033D01*
X243388835Y-131286590D01*
X243407619Y-131293596D01*
X243407627Y-131293598D01*
X243467155Y-131299999D01*
X243467172Y-131300000D01*
X244090000Y-131300000D01*
X244590000Y-131300000D01*
X245212828Y-131300000D01*
X245212844Y-131299999D01*
X245272372Y-131293598D01*
X245272379Y-131293596D01*
X245407086Y-131243354D01*
X245407093Y-131243350D01*
X245522187Y-131157190D01*
X245522190Y-131157187D01*
X245608350Y-131042093D01*
X245608354Y-131042086D01*
X245658596Y-130907379D01*
X245658598Y-130907372D01*
X245664999Y-130847844D01*
X245665000Y-130847827D01*
X245665000Y-130800000D01*
X244590000Y-130800000D01*
X244590000Y-131300000D01*
X244090000Y-131300000D01*
X244090000Y-129840132D01*
X243959998Y-129800000D01*
X244590000Y-129800000D01*
X244590000Y-130300000D01*
X245665000Y-130300000D01*
X245665000Y-130252172D01*
X245664999Y-130252155D01*
X245658598Y-130192627D01*
X245658596Y-130192620D01*
X245608354Y-130057913D01*
X245608352Y-130057911D01*
X245542543Y-129970000D01*
X245514000Y-129970000D01*
X245446961Y-129950315D01*
X245401206Y-129897511D01*
X245390000Y-129846000D01*
X245390000Y-129320000D01*
X244827156Y-129320000D01*
X244867595Y-129459194D01*
X244949264Y-129597290D01*
X244951367Y-129600001D01*
X244952353Y-129602513D01*
X244953235Y-129604004D01*
X244952994Y-129604146D01*
X244976901Y-129665037D01*
X244963221Y-129733554D01*
X244914669Y-129783799D01*
X244853387Y-129800000D01*
X244590000Y-129800000D01*
X243959998Y-129800000D01*
X243942126Y-129794483D01*
X243927961Y-129785100D01*
X243911664Y-129780315D01*
X243899441Y-129766209D01*
X243883876Y-129755899D01*
X243877032Y-129740348D01*
X243865909Y-129727511D01*
X243863252Y-129709034D01*
X243855733Y-129691948D01*
X243858382Y-129675168D01*
X243855965Y-129658353D01*
X243863720Y-129641371D01*
X243866632Y-129622934D01*
X243877932Y-129610251D01*
X243884990Y-129594797D01*
X243891022Y-129588319D01*
X243899841Y-129579500D01*
X244581557Y-128897786D01*
X244609680Y-128829891D01*
X244623500Y-128796527D01*
X244623500Y-127917477D01*
X244643185Y-127850438D01*
X244659819Y-127829796D01*
X245121114Y-127368501D01*
X245605733Y-126883881D01*
X245667054Y-126850398D01*
X245736745Y-126855382D01*
G37*
%TD.AperFunction*%
%TA.AperFunction,Conductor*%
G36*
X257945203Y-123288043D02*
G01*
X257951681Y-123294075D01*
X258028181Y-123370575D01*
X258061666Y-123431898D01*
X258064500Y-123458256D01*
X258064500Y-127085522D01*
X258044815Y-127152561D01*
X257992011Y-127198316D01*
X257922853Y-127208260D01*
X257859297Y-127179235D01*
X257852819Y-127173203D01*
X256917738Y-126238122D01*
X256884253Y-126176799D01*
X256889237Y-126107107D01*
X256931109Y-126051174D01*
X256973323Y-126030667D01*
X257013886Y-126019799D01*
X257116613Y-125960489D01*
X257200489Y-125876613D01*
X257259799Y-125773886D01*
X257290500Y-125659309D01*
X257290500Y-125540691D01*
X257259799Y-125426114D01*
X257200489Y-125323387D01*
X257116613Y-125239511D01*
X257013886Y-125180201D01*
X256899309Y-125149500D01*
X256830478Y-125149500D01*
X256763439Y-125129815D01*
X256742797Y-125113181D01*
X256655702Y-125026086D01*
X256541295Y-124911680D01*
X256507811Y-124850358D01*
X256512795Y-124780667D01*
X256554666Y-124724733D01*
X256571572Y-124718427D01*
X256590000Y-124700000D01*
X257090000Y-124700000D01*
X257287828Y-124700000D01*
X257287844Y-124699999D01*
X257347372Y-124693598D01*
X257347379Y-124693596D01*
X257482086Y-124643354D01*
X257482093Y-124643350D01*
X257597187Y-124557190D01*
X257597190Y-124557187D01*
X257683350Y-124442093D01*
X257683354Y-124442086D01*
X257733596Y-124307379D01*
X257733598Y-124307372D01*
X257739999Y-124247844D01*
X257740000Y-124247827D01*
X257740000Y-124050000D01*
X257090000Y-124050000D01*
X257090000Y-124700000D01*
X256590000Y-124700000D01*
X256590000Y-123924000D01*
X256609685Y-123856961D01*
X256662489Y-123811206D01*
X256714000Y-123800000D01*
X256840000Y-123800000D01*
X256840000Y-123674000D01*
X256859685Y-123606961D01*
X256912489Y-123561206D01*
X256964000Y-123550000D01*
X257740000Y-123550000D01*
X257740000Y-123381756D01*
X257759685Y-123314717D01*
X257812489Y-123268962D01*
X257881647Y-123259018D01*
X257945203Y-123288043D01*
G37*
%TD.AperFunction*%
%TA.AperFunction,Conductor*%
G36*
X241943803Y-109020185D02*
G01*
X241989558Y-109072989D01*
X241999502Y-109142147D01*
X241992946Y-109167833D01*
X241946403Y-109292620D01*
X241946401Y-109292627D01*
X241940000Y-109352155D01*
X241940000Y-109550000D01*
X243768638Y-109550000D01*
X243835677Y-109569685D01*
X243856319Y-109586319D01*
X243870000Y-109600000D01*
X255810000Y-109600000D01*
X255823681Y-109586319D01*
X255885004Y-109552834D01*
X255911362Y-109550000D01*
X257740000Y-109550000D01*
X257740000Y-109352172D01*
X257739999Y-109352155D01*
X257733598Y-109292627D01*
X257733596Y-109292620D01*
X257687054Y-109167833D01*
X257682070Y-109098142D01*
X257715555Y-109036818D01*
X257776878Y-109003334D01*
X257803236Y-109000500D01*
X259875500Y-109000500D01*
X259884185Y-109003050D01*
X259893147Y-109001762D01*
X259917187Y-109012740D01*
X259942539Y-109020185D01*
X259948466Y-109027025D01*
X259956703Y-109030787D01*
X259970992Y-109053021D01*
X259988294Y-109072989D01*
X259990581Y-109083503D01*
X259994477Y-109089565D01*
X259999500Y-109124500D01*
X259999500Y-109135500D01*
X259979815Y-109202539D01*
X259927011Y-109248294D01*
X259875500Y-109259500D01*
X259180247Y-109259500D01*
X259121770Y-109271131D01*
X259121769Y-109271132D01*
X259055447Y-109315447D01*
X259011132Y-109381769D01*
X259011131Y-109381770D01*
X258999500Y-109440247D01*
X258999500Y-110819522D01*
X258979815Y-110886561D01*
X258963181Y-110907203D01*
X258482204Y-111388181D01*
X258420881Y-111421666D01*
X258394523Y-111424500D01*
X257496971Y-111424500D01*
X257490106Y-111422484D01*
X257483058Y-111423717D01*
X257457023Y-111412770D01*
X257429932Y-111404815D01*
X257423679Y-111398749D01*
X257418651Y-111396635D01*
X257397273Y-111373133D01*
X257394739Y-111370675D01*
X257394269Y-111369990D01*
X257384552Y-111355448D01*
X257384061Y-111355120D01*
X257377235Y-111345175D01*
X257369787Y-111322393D01*
X257358301Y-111301358D01*
X257359128Y-111289789D01*
X257355524Y-111278764D01*
X257361575Y-111255571D01*
X257363285Y-111231666D01*
X257370907Y-111219805D01*
X257373164Y-111211158D01*
X257379158Y-111205636D01*
X257377767Y-111204707D01*
X257398735Y-111173324D01*
X257428867Y-111128231D01*
X257428867Y-111128229D01*
X257428868Y-111128229D01*
X257440499Y-111069752D01*
X257440500Y-111069750D01*
X257440500Y-110736556D01*
X257460185Y-110669517D01*
X257490189Y-110637290D01*
X257597187Y-110557190D01*
X257597190Y-110557187D01*
X257683350Y-110442093D01*
X257683354Y-110442086D01*
X257733596Y-110307379D01*
X257733598Y-110307372D01*
X257739999Y-110247844D01*
X257740000Y-110247827D01*
X257740000Y-110050000D01*
X255990000Y-110050000D01*
X255990000Y-110673667D01*
X255970315Y-110740706D01*
X255953681Y-110761348D01*
X255650574Y-111064454D01*
X255589251Y-111097939D01*
X255581430Y-111099302D01*
X255580691Y-111099500D01*
X255466114Y-111130201D01*
X255466112Y-111130201D01*
X255466112Y-111130202D01*
X255363387Y-111189511D01*
X255363384Y-111189513D01*
X255279513Y-111273384D01*
X255279511Y-111273387D01*
X255264435Y-111299500D01*
X255220201Y-111376114D01*
X255189500Y-111490691D01*
X255189500Y-111609309D01*
X255220201Y-111723886D01*
X255279511Y-111826613D01*
X255363387Y-111910489D01*
X255466114Y-111969799D01*
X255580691Y-112000500D01*
X255580694Y-112000500D01*
X255699306Y-112000500D01*
X255699309Y-112000500D01*
X255813886Y-111969799D01*
X255813888Y-111969797D01*
X255813890Y-111969797D01*
X255821400Y-111966687D01*
X255821906Y-111967909D01*
X255881608Y-111953417D01*
X255947639Y-111976259D01*
X255990838Y-112031173D01*
X255997490Y-112100725D01*
X255991909Y-112120609D01*
X255946403Y-112242616D01*
X255946401Y-112242627D01*
X255940000Y-112302155D01*
X255940000Y-112350000D01*
X257740000Y-112350000D01*
X257740000Y-112302172D01*
X257739999Y-112302155D01*
X257733598Y-112242627D01*
X257733596Y-112242619D01*
X257696379Y-112142833D01*
X257691395Y-112073141D01*
X257724880Y-112011818D01*
X257786204Y-111978334D01*
X257812561Y-111975500D01*
X258614799Y-111975500D01*
X258614800Y-111975500D01*
X258716058Y-111933557D01*
X258793557Y-111856058D01*
X258793556Y-111856058D01*
X258852125Y-111797489D01*
X259352796Y-111296819D01*
X259414119Y-111263334D01*
X259440477Y-111260500D01*
X259875500Y-111260500D01*
X259942539Y-111280185D01*
X259988294Y-111332989D01*
X259999500Y-111384500D01*
X259999500Y-111650501D01*
X259979815Y-111717540D01*
X259927011Y-111763295D01*
X259915594Y-111767840D01*
X259896099Y-111774501D01*
X259840200Y-111774501D01*
X259738942Y-111816443D01*
X259721082Y-111834301D01*
X259713536Y-111836880D01*
X259708165Y-111837949D01*
X259697596Y-111842326D01*
X259697569Y-111842336D01*
X259526088Y-111913366D01*
X259526079Y-111913371D01*
X259362218Y-112022860D01*
X259362214Y-112022863D01*
X259222863Y-112162214D01*
X259222860Y-112162218D01*
X259113371Y-112326079D01*
X259113364Y-112326092D01*
X259037950Y-112508160D01*
X259037947Y-112508170D01*
X258999500Y-112701456D01*
X258999500Y-112701459D01*
X258999500Y-112898541D01*
X258999500Y-112898543D01*
X258999499Y-112898543D01*
X259037947Y-113091828D01*
X259037949Y-113091836D01*
X259044494Y-113107636D01*
X259051963Y-113177105D01*
X259020687Y-113239584D01*
X259017614Y-113242769D01*
X258822602Y-113437782D01*
X258494493Y-113765892D01*
X258322204Y-113938181D01*
X258260881Y-113971666D01*
X258234523Y-113974500D01*
X257812561Y-113974500D01*
X257745522Y-113954815D01*
X257699767Y-113902011D01*
X257689823Y-113832853D01*
X257696379Y-113807167D01*
X257733596Y-113707380D01*
X257733598Y-113707372D01*
X257739999Y-113647844D01*
X257740000Y-113647827D01*
X257740000Y-113600000D01*
X255940000Y-113600000D01*
X255940000Y-113647844D01*
X255946401Y-113707372D01*
X255946403Y-113707379D01*
X255996645Y-113842086D01*
X255996649Y-113842093D01*
X256082809Y-113957187D01*
X256082812Y-113957190D01*
X256189811Y-114037290D01*
X256231682Y-114093223D01*
X256239500Y-114136556D01*
X256239500Y-114469752D01*
X256251131Y-114528229D01*
X256251132Y-114528230D01*
X256302233Y-114604707D01*
X256298918Y-114606921D01*
X256321699Y-114648642D01*
X256316715Y-114718334D01*
X256300243Y-114743963D01*
X256302233Y-114745293D01*
X256251132Y-114821769D01*
X256251131Y-114821770D01*
X256239500Y-114880247D01*
X256239500Y-115319752D01*
X256251131Y-115378229D01*
X256251132Y-115378230D01*
X256302233Y-115454707D01*
X256298918Y-115456921D01*
X256321699Y-115498642D01*
X256316715Y-115568334D01*
X256300243Y-115593963D01*
X256302233Y-115595293D01*
X256251132Y-115671769D01*
X256251131Y-115671770D01*
X256239500Y-115730247D01*
X256239500Y-116169752D01*
X256251131Y-116228229D01*
X256251132Y-116228230D01*
X256302233Y-116304707D01*
X256298918Y-116306921D01*
X256321699Y-116348642D01*
X256316715Y-116418334D01*
X256300243Y-116443963D01*
X256302233Y-116445293D01*
X256251132Y-116521769D01*
X256251131Y-116521770D01*
X256239500Y-116580247D01*
X256239500Y-117019752D01*
X256251131Y-117078229D01*
X256251132Y-117078230D01*
X256302233Y-117154707D01*
X256298918Y-117156921D01*
X256321699Y-117198642D01*
X256316715Y-117268334D01*
X256300243Y-117293963D01*
X256302233Y-117295293D01*
X256251132Y-117371769D01*
X256251131Y-117371770D01*
X256239500Y-117430247D01*
X256239500Y-117869752D01*
X256251131Y-117928229D01*
X256251132Y-117928230D01*
X256302233Y-118004707D01*
X256298918Y-118006921D01*
X256321699Y-118048642D01*
X256316715Y-118118334D01*
X256300243Y-118143963D01*
X256302233Y-118145293D01*
X256251132Y-118221769D01*
X256251131Y-118221770D01*
X256239500Y-118280247D01*
X256239500Y-118719752D01*
X256251131Y-118778229D01*
X256251132Y-118778230D01*
X256302233Y-118854707D01*
X256298918Y-118856921D01*
X256321699Y-118898642D01*
X256316715Y-118968334D01*
X256313841Y-118975372D01*
X256302592Y-119000673D01*
X256295448Y-119005448D01*
X256251133Y-119071769D01*
X256239500Y-119130252D01*
X256239500Y-119142596D01*
X256229805Y-119164405D01*
X256219623Y-119176397D01*
X256213731Y-119190985D01*
X256197473Y-119202486D01*
X256184585Y-119217667D01*
X256169536Y-119222251D01*
X256156692Y-119231338D01*
X256136796Y-119232224D01*
X256117747Y-119238027D01*
X256102607Y-119233746D01*
X256086892Y-119234447D01*
X256068583Y-119224128D01*
X256050512Y-119219019D01*
X256041562Y-119208897D01*
X256028816Y-119201714D01*
X256016615Y-119189513D01*
X256016613Y-119189511D01*
X255913886Y-119130201D01*
X255799309Y-119099500D01*
X255680691Y-119099500D01*
X255566114Y-119130201D01*
X255566112Y-119130201D01*
X255566112Y-119130202D01*
X255463387Y-119189511D01*
X255463384Y-119189513D01*
X255379513Y-119273384D01*
X255379511Y-119273387D01*
X255320201Y-119376114D01*
X255289500Y-119490691D01*
X255289500Y-119609309D01*
X255320201Y-119723886D01*
X255379511Y-119826613D01*
X255463387Y-119910489D01*
X255519027Y-119942613D01*
X255567242Y-119993181D01*
X255580464Y-120061788D01*
X255554496Y-120126653D01*
X255519027Y-120157387D01*
X255463387Y-120189511D01*
X255463384Y-120189513D01*
X255379513Y-120273384D01*
X255379511Y-120273387D01*
X255333577Y-120352947D01*
X255320201Y-120376114D01*
X255289500Y-120490691D01*
X255289500Y-120609309D01*
X255320201Y-120723886D01*
X255379511Y-120826613D01*
X255379513Y-120826615D01*
X255431128Y-120878230D01*
X255464613Y-120939553D01*
X255459629Y-121009245D01*
X255431129Y-121053591D01*
X255379514Y-121105206D01*
X255379511Y-121105210D01*
X255321060Y-121206450D01*
X255320201Y-121207937D01*
X255289500Y-121322514D01*
X255289500Y-121441132D01*
X255320201Y-121555709D01*
X255379511Y-121658436D01*
X255463387Y-121742312D01*
X255463393Y-121742315D01*
X255463808Y-121742634D01*
X255464076Y-121743001D01*
X255469134Y-121748059D01*
X255468345Y-121748847D01*
X255505014Y-121799060D01*
X255509173Y-121868805D01*
X255476009Y-121928694D01*
X255426649Y-121978054D01*
X255426646Y-121978058D01*
X255371621Y-122073364D01*
X255367336Y-122080785D01*
X255336635Y-122195362D01*
X255336635Y-122313980D01*
X255367336Y-122428557D01*
X255426646Y-122531284D01*
X255510522Y-122615160D01*
X255613249Y-122674470D01*
X255727826Y-122705171D01*
X255727829Y-122705171D01*
X255800582Y-122705171D01*
X255830022Y-122713815D01*
X255860009Y-122720339D01*
X255865024Y-122724093D01*
X255867621Y-122724856D01*
X255888263Y-122741490D01*
X256052545Y-122905772D01*
X256086030Y-122967095D01*
X256081046Y-123036787D01*
X256064131Y-123067764D01*
X256002711Y-123149811D01*
X255946777Y-123191682D01*
X255903444Y-123199500D01*
X255570247Y-123199500D01*
X255511770Y-123211131D01*
X255511769Y-123211132D01*
X255435293Y-123262233D01*
X255433078Y-123258918D01*
X255391358Y-123281699D01*
X255321666Y-123276715D01*
X255296036Y-123260243D01*
X255294707Y-123262233D01*
X255218230Y-123211132D01*
X255218229Y-123211131D01*
X255159752Y-123199500D01*
X255159748Y-123199500D01*
X254720252Y-123199500D01*
X254720247Y-123199500D01*
X254661770Y-123211131D01*
X254661769Y-123211132D01*
X254585293Y-123262233D01*
X254583078Y-123258918D01*
X254541358Y-123281699D01*
X254471666Y-123276715D01*
X254446036Y-123260243D01*
X254444707Y-123262233D01*
X254368230Y-123211132D01*
X254368229Y-123211131D01*
X254309752Y-123199500D01*
X254309748Y-123199500D01*
X253870252Y-123199500D01*
X253870247Y-123199500D01*
X253811770Y-123211131D01*
X253811769Y-123211132D01*
X253735293Y-123262233D01*
X253733078Y-123258918D01*
X253691358Y-123281699D01*
X253621666Y-123276715D01*
X253596036Y-123260243D01*
X253594707Y-123262233D01*
X253518230Y-123211132D01*
X253518229Y-123211131D01*
X253459752Y-123199500D01*
X253459748Y-123199500D01*
X253020252Y-123199500D01*
X253020247Y-123199500D01*
X252961770Y-123211131D01*
X252961769Y-123211132D01*
X252885293Y-123262233D01*
X252883078Y-123258918D01*
X252841358Y-123281699D01*
X252771666Y-123276715D01*
X252746036Y-123260243D01*
X252744707Y-123262233D01*
X252668230Y-123211132D01*
X252668229Y-123211131D01*
X252609752Y-123199500D01*
X252609748Y-123199500D01*
X252170252Y-123199500D01*
X252170247Y-123199500D01*
X252111770Y-123211131D01*
X252111769Y-123211132D01*
X252035293Y-123262233D01*
X252033078Y-123258918D01*
X251991358Y-123281699D01*
X251921666Y-123276715D01*
X251896036Y-123260243D01*
X251894707Y-123262233D01*
X251818230Y-123211132D01*
X251818229Y-123211131D01*
X251759752Y-123199500D01*
X251759748Y-123199500D01*
X251320252Y-123199500D01*
X251320247Y-123199500D01*
X251261770Y-123211131D01*
X251261769Y-123211132D01*
X251185293Y-123262233D01*
X251183078Y-123258918D01*
X251141358Y-123281699D01*
X251071666Y-123276715D01*
X251046036Y-123260243D01*
X251044707Y-123262233D01*
X250968230Y-123211132D01*
X250968229Y-123211131D01*
X250909752Y-123199500D01*
X250909748Y-123199500D01*
X250470252Y-123199500D01*
X250470247Y-123199500D01*
X250411770Y-123211131D01*
X250411769Y-123211132D01*
X250335293Y-123262233D01*
X250333078Y-123258918D01*
X250291358Y-123281699D01*
X250221666Y-123276715D01*
X250196036Y-123260243D01*
X250194707Y-123262233D01*
X250118230Y-123211132D01*
X250118229Y-123211131D01*
X250059752Y-123199500D01*
X250059748Y-123199500D01*
X249620252Y-123199500D01*
X249620247Y-123199500D01*
X249561770Y-123211131D01*
X249561769Y-123211132D01*
X249485293Y-123262233D01*
X249483078Y-123258918D01*
X249441358Y-123281699D01*
X249371666Y-123276715D01*
X249346036Y-123260243D01*
X249344707Y-123262233D01*
X249268230Y-123211132D01*
X249268229Y-123211131D01*
X249209752Y-123199500D01*
X249209748Y-123199500D01*
X248770252Y-123199500D01*
X248770247Y-123199500D01*
X248711770Y-123211131D01*
X248711769Y-123211132D01*
X248635293Y-123262233D01*
X248633078Y-123258918D01*
X248591358Y-123281699D01*
X248521666Y-123276715D01*
X248496036Y-123260243D01*
X248494707Y-123262233D01*
X248418230Y-123211132D01*
X248418229Y-123211131D01*
X248359752Y-123199500D01*
X248359748Y-123199500D01*
X247920252Y-123199500D01*
X247920247Y-123199500D01*
X247861770Y-123211131D01*
X247861769Y-123211132D01*
X247785293Y-123262233D01*
X247783078Y-123258918D01*
X247741358Y-123281699D01*
X247671666Y-123276715D01*
X247646036Y-123260243D01*
X247644707Y-123262233D01*
X247568230Y-123211132D01*
X247568229Y-123211131D01*
X247509752Y-123199500D01*
X247509748Y-123199500D01*
X247070252Y-123199500D01*
X247070247Y-123199500D01*
X247011770Y-123211131D01*
X247011769Y-123211132D01*
X246935293Y-123262233D01*
X246933078Y-123258918D01*
X246891358Y-123281699D01*
X246821666Y-123276715D01*
X246796036Y-123260243D01*
X246794707Y-123262233D01*
X246718230Y-123211132D01*
X246718229Y-123211131D01*
X246659752Y-123199500D01*
X246659748Y-123199500D01*
X246220252Y-123199500D01*
X246220247Y-123199500D01*
X246161770Y-123211131D01*
X246161769Y-123211132D01*
X246085293Y-123262233D01*
X246083078Y-123258918D01*
X246041358Y-123281699D01*
X245971666Y-123276715D01*
X245946036Y-123260243D01*
X245944707Y-123262233D01*
X245868230Y-123211132D01*
X245868229Y-123211131D01*
X245809752Y-123199500D01*
X245809748Y-123199500D01*
X245370252Y-123199500D01*
X245370247Y-123199500D01*
X245311770Y-123211131D01*
X245311769Y-123211132D01*
X245235293Y-123262233D01*
X245233078Y-123258918D01*
X245191358Y-123281699D01*
X245121666Y-123276715D01*
X245096036Y-123260243D01*
X245094707Y-123262233D01*
X245018230Y-123211132D01*
X245018229Y-123211131D01*
X244959752Y-123199500D01*
X244959748Y-123199500D01*
X244520252Y-123199500D01*
X244520247Y-123199500D01*
X244461770Y-123211131D01*
X244461769Y-123211132D01*
X244385293Y-123262233D01*
X244383078Y-123258918D01*
X244341358Y-123281699D01*
X244271666Y-123276715D01*
X244246036Y-123260243D01*
X244244707Y-123262233D01*
X244168230Y-123211132D01*
X244168229Y-123211131D01*
X244109752Y-123199500D01*
X244109748Y-123199500D01*
X243776556Y-123199500D01*
X243709517Y-123179815D01*
X243677290Y-123149811D01*
X243597190Y-123042813D01*
X243505648Y-122974284D01*
X243463777Y-122918350D01*
X243458793Y-122848658D01*
X243492276Y-122787338D01*
X243742796Y-122536819D01*
X243804119Y-122503334D01*
X243830477Y-122500500D01*
X243899306Y-122500500D01*
X243899309Y-122500500D01*
X244013886Y-122469799D01*
X244116613Y-122410489D01*
X244200489Y-122326613D01*
X244259799Y-122223886D01*
X244290500Y-122109309D01*
X244290500Y-121990691D01*
X244259799Y-121876114D01*
X244200489Y-121773387D01*
X244116613Y-121689511D01*
X244013886Y-121630201D01*
X243899309Y-121599500D01*
X243780691Y-121599500D01*
X243675505Y-121627684D01*
X243666110Y-121630202D01*
X243599557Y-121668627D01*
X243594981Y-121669737D01*
X243591490Y-121672897D01*
X243561349Y-121677896D01*
X243531657Y-121685100D01*
X243527206Y-121683559D01*
X243522562Y-121684330D01*
X243494501Y-121672240D01*
X243465630Y-121662247D01*
X243461521Y-121658029D01*
X243458395Y-121656683D01*
X243435896Y-121631730D01*
X243434712Y-121630515D01*
X243428886Y-121621866D01*
X243428867Y-121621769D01*
X243384552Y-121555448D01*
X243383817Y-121554957D01*
X243376622Y-121544275D01*
X243369533Y-121521928D01*
X243358301Y-121501358D01*
X243359166Y-121489248D01*
X243355496Y-121477676D01*
X243361612Y-121455048D01*
X243363285Y-121431666D01*
X243371308Y-121419181D01*
X243373729Y-121410227D01*
X243378952Y-121405499D01*
X243377767Y-121404707D01*
X243393869Y-121380609D01*
X243447482Y-121335804D01*
X243496971Y-121325500D01*
X247087036Y-121325500D01*
X247154075Y-121345185D01*
X247174717Y-121361819D01*
X247223387Y-121410489D01*
X247326114Y-121469799D01*
X247440691Y-121500500D01*
X247440694Y-121500500D01*
X247559306Y-121500500D01*
X247559309Y-121500500D01*
X247673886Y-121469799D01*
X247776613Y-121410489D01*
X247860489Y-121326613D01*
X247919799Y-121223886D01*
X247950500Y-121109309D01*
X247950500Y-120990691D01*
X247919799Y-120876114D01*
X247860489Y-120773387D01*
X247799783Y-120712681D01*
X247766298Y-120651358D01*
X247771282Y-120581666D01*
X247799783Y-120537319D01*
X247825283Y-120511819D01*
X247860489Y-120476613D01*
X247919799Y-120373886D01*
X247950500Y-120259309D01*
X247950500Y-120140691D01*
X247919799Y-120026114D01*
X247860489Y-119923387D01*
X247776613Y-119839511D01*
X247673886Y-119780201D01*
X247559309Y-119749500D01*
X247440691Y-119749500D01*
X247326114Y-119780201D01*
X247326112Y-119780201D01*
X247326112Y-119780202D01*
X247223387Y-119839511D01*
X247223384Y-119839513D01*
X247174717Y-119888181D01*
X247113394Y-119921666D01*
X247087036Y-119924500D01*
X243496971Y-119924500D01*
X243490106Y-119922484D01*
X243483058Y-119923717D01*
X243457023Y-119912770D01*
X243429932Y-119904815D01*
X243423679Y-119898749D01*
X243418651Y-119896635D01*
X243397273Y-119873133D01*
X243394739Y-119870675D01*
X243394269Y-119869990D01*
X243384552Y-119855448D01*
X243384061Y-119855120D01*
X243377235Y-119845175D01*
X243369787Y-119822393D01*
X243358301Y-119801358D01*
X243359128Y-119789789D01*
X243355524Y-119778764D01*
X243361575Y-119755571D01*
X243363285Y-119731666D01*
X243370907Y-119719805D01*
X243373164Y-119711158D01*
X243379158Y-119705636D01*
X243377767Y-119704707D01*
X243404890Y-119664115D01*
X243428867Y-119628231D01*
X243428867Y-119628229D01*
X243428868Y-119628229D01*
X243440499Y-119569752D01*
X243440500Y-119569750D01*
X243440500Y-119130249D01*
X243440499Y-119130247D01*
X243428868Y-119071770D01*
X243428867Y-119071769D01*
X243377767Y-118995293D01*
X243381081Y-118993078D01*
X243358301Y-118951358D01*
X243363285Y-118881666D01*
X243379756Y-118856036D01*
X243377767Y-118854707D01*
X243398735Y-118823324D01*
X243428867Y-118778231D01*
X243428867Y-118778229D01*
X243428868Y-118778229D01*
X243440499Y-118719752D01*
X243440500Y-118719750D01*
X243440500Y-118280249D01*
X243440499Y-118280247D01*
X243428868Y-118221770D01*
X243428867Y-118221769D01*
X243377767Y-118145293D01*
X243381081Y-118143078D01*
X243358301Y-118101358D01*
X243363285Y-118031666D01*
X243379756Y-118006036D01*
X243377767Y-118004707D01*
X243398735Y-117973324D01*
X243428867Y-117928231D01*
X243428867Y-117928229D01*
X243428868Y-117928229D01*
X243440499Y-117869752D01*
X243440500Y-117869750D01*
X243440500Y-117430249D01*
X243440499Y-117430247D01*
X243428868Y-117371770D01*
X243428867Y-117371769D01*
X243377767Y-117295293D01*
X243381081Y-117293078D01*
X243358301Y-117251358D01*
X243363285Y-117181666D01*
X243379756Y-117156036D01*
X243377767Y-117154707D01*
X243412409Y-117102861D01*
X243428867Y-117078231D01*
X243428867Y-117078229D01*
X243428868Y-117078229D01*
X243440499Y-117019752D01*
X243440500Y-117019750D01*
X243440500Y-116580249D01*
X243440499Y-116580247D01*
X243428868Y-116521770D01*
X243428867Y-116521769D01*
X243377767Y-116445293D01*
X243381081Y-116443078D01*
X243358301Y-116401358D01*
X243363285Y-116331666D01*
X243379756Y-116306036D01*
X243377767Y-116304707D01*
X243406424Y-116261819D01*
X243428867Y-116228231D01*
X243428867Y-116228229D01*
X243428868Y-116228229D01*
X243440499Y-116169752D01*
X243440500Y-116169750D01*
X243440500Y-115730249D01*
X243440499Y-115730247D01*
X243428868Y-115671770D01*
X243428867Y-115671769D01*
X243377767Y-115595293D01*
X243381081Y-115593078D01*
X243358301Y-115551358D01*
X243363285Y-115481666D01*
X243379756Y-115456036D01*
X243377767Y-115454707D01*
X243406424Y-115411819D01*
X243428867Y-115378231D01*
X243428867Y-115378229D01*
X243428868Y-115378229D01*
X243440499Y-115319752D01*
X243440500Y-115319750D01*
X243440500Y-114880249D01*
X243440499Y-114880247D01*
X243428868Y-114821770D01*
X243428867Y-114821769D01*
X243409998Y-114793529D01*
X243389120Y-114726851D01*
X243407605Y-114659471D01*
X243459584Y-114612781D01*
X243528554Y-114601605D01*
X243575101Y-114617252D01*
X243666108Y-114669796D01*
X243666109Y-114669797D01*
X243666111Y-114669797D01*
X243666114Y-114669799D01*
X243780691Y-114700500D01*
X243780694Y-114700500D01*
X243899306Y-114700500D01*
X243899309Y-114700500D01*
X244013886Y-114669799D01*
X244116613Y-114610489D01*
X244116614Y-114610487D01*
X244123651Y-114606425D01*
X244124573Y-114608022D01*
X244180167Y-114586522D01*
X244248613Y-114600552D01*
X244298609Y-114649359D01*
X244314500Y-114710091D01*
X244314500Y-116612035D01*
X244294815Y-116679074D01*
X244278182Y-116699716D01*
X244204511Y-116773387D01*
X244145201Y-116876114D01*
X244114500Y-116990691D01*
X244114500Y-117109309D01*
X244145201Y-117223886D01*
X244204511Y-117326613D01*
X244288387Y-117410489D01*
X244391114Y-117469799D01*
X244505691Y-117500500D01*
X244505694Y-117500500D01*
X244624306Y-117500500D01*
X244624309Y-117500500D01*
X244738886Y-117469799D01*
X244841613Y-117410489D01*
X244925489Y-117326613D01*
X244984799Y-117223886D01*
X245015500Y-117109309D01*
X245015500Y-116990691D01*
X244984799Y-116876114D01*
X244925489Y-116773387D01*
X244901819Y-116749717D01*
X244868334Y-116688394D01*
X244865500Y-116662036D01*
X244865500Y-113745201D01*
X244865500Y-113745200D01*
X244823557Y-113643942D01*
X244823557Y-113643941D01*
X244346058Y-113166443D01*
X244329393Y-113159540D01*
X244244800Y-113124500D01*
X243496971Y-113124500D01*
X243490106Y-113122484D01*
X243483058Y-113123717D01*
X243457023Y-113112770D01*
X243429932Y-113104815D01*
X243423679Y-113098749D01*
X243418651Y-113096635D01*
X243397273Y-113073133D01*
X243394739Y-113070675D01*
X243394269Y-113069990D01*
X243384552Y-113055448D01*
X243384061Y-113055120D01*
X243377235Y-113045175D01*
X243369787Y-113022393D01*
X243358301Y-113001358D01*
X243359128Y-112989789D01*
X243355524Y-112978764D01*
X243361575Y-112955571D01*
X243363285Y-112931666D01*
X243370907Y-112919805D01*
X243373164Y-112911158D01*
X243379158Y-112905636D01*
X243377767Y-112904707D01*
X243401867Y-112868638D01*
X243428867Y-112828231D01*
X243428867Y-112828229D01*
X243428868Y-112828229D01*
X243434912Y-112797844D01*
X255940000Y-112797844D01*
X255946401Y-112857372D01*
X255946403Y-112857382D01*
X255974110Y-112931668D01*
X255979094Y-113001359D01*
X255974110Y-113018332D01*
X255946403Y-113092617D01*
X255946401Y-113092627D01*
X255940000Y-113152155D01*
X255940000Y-113200000D01*
X256640000Y-113200000D01*
X257040000Y-113200000D01*
X257740000Y-113200000D01*
X257740000Y-113152172D01*
X257739999Y-113152155D01*
X257733598Y-113092628D01*
X257705888Y-113018334D01*
X257700904Y-112948642D01*
X257705888Y-112931666D01*
X257733598Y-112857371D01*
X257739999Y-112797844D01*
X257740000Y-112797827D01*
X257740000Y-112750000D01*
X257040000Y-112750000D01*
X257040000Y-113200000D01*
X256640000Y-113200000D01*
X256640000Y-112750000D01*
X255940000Y-112750000D01*
X255940000Y-112797844D01*
X243434912Y-112797844D01*
X243440499Y-112769752D01*
X243440500Y-112769750D01*
X243440500Y-112436556D01*
X243460185Y-112369517D01*
X243490189Y-112337290D01*
X243597187Y-112257190D01*
X243597190Y-112257187D01*
X243683350Y-112142093D01*
X243683354Y-112142086D01*
X243733596Y-112007379D01*
X243733598Y-112007372D01*
X243739999Y-111947844D01*
X243740000Y-111947827D01*
X243740000Y-111900000D01*
X242964000Y-111900000D01*
X242896961Y-111880315D01*
X242851206Y-111827511D01*
X242840000Y-111776000D01*
X242840000Y-111700000D01*
X242764000Y-111700000D01*
X242696961Y-111680315D01*
X242651206Y-111627511D01*
X242640000Y-111576000D01*
X242640000Y-111500000D01*
X243040000Y-111500000D01*
X243740000Y-111500000D01*
X243740000Y-111452172D01*
X243739999Y-111452155D01*
X243733598Y-111392628D01*
X243705888Y-111318334D01*
X243700904Y-111248642D01*
X243705888Y-111231666D01*
X243733598Y-111157371D01*
X243739999Y-111097844D01*
X243740000Y-111097827D01*
X243740000Y-111050000D01*
X243040000Y-111050000D01*
X243040000Y-111500000D01*
X242640000Y-111500000D01*
X242640000Y-111050000D01*
X241940000Y-111050000D01*
X241940000Y-111097844D01*
X241946401Y-111157372D01*
X241946403Y-111157382D01*
X241974110Y-111231668D01*
X241979094Y-111301359D01*
X241974110Y-111318332D01*
X241946403Y-111392617D01*
X241946401Y-111392627D01*
X241940000Y-111452155D01*
X241940000Y-111529098D01*
X241920315Y-111596137D01*
X241867511Y-111641892D01*
X241798353Y-111651836D01*
X241734797Y-111622811D01*
X241728319Y-111616779D01*
X241658316Y-111546776D01*
X241549487Y-111496028D01*
X241549485Y-111496027D01*
X241549486Y-111496027D01*
X241499902Y-111489500D01*
X241140102Y-111489500D01*
X241131746Y-111490600D01*
X241130459Y-111490769D01*
X241061425Y-111480001D01*
X241023658Y-111452468D01*
X240966936Y-111391736D01*
X240952160Y-111362332D01*
X240936392Y-111333456D01*
X240936548Y-111331267D01*
X240935563Y-111329306D01*
X240939029Y-111296578D01*
X240941376Y-111263764D01*
X240941377Y-111263764D01*
X240973595Y-111177383D01*
X240973598Y-111177372D01*
X240979999Y-111117844D01*
X240980000Y-111117827D01*
X240980000Y-110700000D01*
X244090000Y-110700000D01*
X244137828Y-110700000D01*
X244137844Y-110699999D01*
X244197371Y-110693598D01*
X244271666Y-110665888D01*
X244341358Y-110660904D01*
X244358334Y-110665888D01*
X244432628Y-110693598D01*
X244432627Y-110693598D01*
X244492155Y-110699999D01*
X244492172Y-110700000D01*
X244540000Y-110700000D01*
X244940000Y-110700000D01*
X244987828Y-110700000D01*
X244987844Y-110699999D01*
X245047371Y-110693598D01*
X245121666Y-110665888D01*
X245191358Y-110660904D01*
X245208334Y-110665888D01*
X245282628Y-110693598D01*
X245282627Y-110693598D01*
X245342155Y-110699999D01*
X245342172Y-110700000D01*
X245390000Y-110700000D01*
X245790000Y-110700000D01*
X245837828Y-110700000D01*
X245837844Y-110699999D01*
X245897371Y-110693598D01*
X245971666Y-110665888D01*
X246041358Y-110660904D01*
X246058334Y-110665888D01*
X246132628Y-110693598D01*
X246132627Y-110693598D01*
X246192155Y-110699999D01*
X246192172Y-110700000D01*
X246240000Y-110700000D01*
X246640000Y-110700000D01*
X246687828Y-110700000D01*
X246687844Y-110699999D01*
X246747371Y-110693598D01*
X246821666Y-110665888D01*
X246891358Y-110660904D01*
X246908334Y-110665888D01*
X246982628Y-110693598D01*
X246982627Y-110693598D01*
X247042155Y-110699999D01*
X247042172Y-110700000D01*
X247090000Y-110700000D01*
X247490000Y-110700000D01*
X247537828Y-110700000D01*
X247537844Y-110699999D01*
X247597371Y-110693598D01*
X247671666Y-110665888D01*
X247741358Y-110660904D01*
X247758334Y-110665888D01*
X247832628Y-110693598D01*
X247832627Y-110693598D01*
X247892155Y-110699999D01*
X247892172Y-110700000D01*
X247940000Y-110700000D01*
X248340000Y-110700000D01*
X248387828Y-110700000D01*
X248387844Y-110699999D01*
X248447371Y-110693598D01*
X248521666Y-110665888D01*
X248591358Y-110660904D01*
X248608334Y-110665888D01*
X248682628Y-110693598D01*
X248682627Y-110693598D01*
X248742155Y-110699999D01*
X248742172Y-110700000D01*
X248790000Y-110700000D01*
X249190000Y-110700000D01*
X249237828Y-110700000D01*
X249237844Y-110699999D01*
X249297371Y-110693598D01*
X249371666Y-110665888D01*
X249441358Y-110660904D01*
X249458334Y-110665888D01*
X249532628Y-110693598D01*
X249532627Y-110693598D01*
X249592155Y-110699999D01*
X249592172Y-110700000D01*
X249640000Y-110700000D01*
X250040000Y-110700000D01*
X250087828Y-110700000D01*
X250087844Y-110699999D01*
X250147371Y-110693598D01*
X250221666Y-110665888D01*
X250291358Y-110660904D01*
X250308334Y-110665888D01*
X250382628Y-110693598D01*
X250382627Y-110693598D01*
X250442155Y-110699999D01*
X250442172Y-110700000D01*
X250490000Y-110700000D01*
X250890000Y-110700000D01*
X250937828Y-110700000D01*
X250937844Y-110699999D01*
X250997371Y-110693598D01*
X251071666Y-110665888D01*
X251141358Y-110660904D01*
X251158334Y-110665888D01*
X251232628Y-110693598D01*
X251232627Y-110693598D01*
X251292155Y-110699999D01*
X251292172Y-110700000D01*
X251340000Y-110700000D01*
X251740000Y-110700000D01*
X251787828Y-110700000D01*
X251787844Y-110699999D01*
X251847371Y-110693598D01*
X251921666Y-110665888D01*
X251991358Y-110660904D01*
X252008334Y-110665888D01*
X252082628Y-110693598D01*
X252082627Y-110693598D01*
X252142155Y-110699999D01*
X252142172Y-110700000D01*
X252190000Y-110700000D01*
X252590000Y-110700000D01*
X252637828Y-110700000D01*
X252637844Y-110699999D01*
X252697371Y-110693598D01*
X252771666Y-110665888D01*
X252841358Y-110660904D01*
X252858334Y-110665888D01*
X252932628Y-110693598D01*
X252932627Y-110693598D01*
X252992155Y-110699999D01*
X252992172Y-110700000D01*
X253040000Y-110700000D01*
X253440000Y-110700000D01*
X253487828Y-110700000D01*
X253487844Y-110699999D01*
X253547371Y-110693598D01*
X253621666Y-110665888D01*
X253691358Y-110660904D01*
X253708334Y-110665888D01*
X253782628Y-110693598D01*
X253782627Y-110693598D01*
X253842155Y-110699999D01*
X253842172Y-110700000D01*
X253890000Y-110700000D01*
X254290000Y-110700000D01*
X254337828Y-110700000D01*
X254337844Y-110699999D01*
X254397371Y-110693598D01*
X254471666Y-110665888D01*
X254541358Y-110660904D01*
X254558334Y-110665888D01*
X254632628Y-110693598D01*
X254632627Y-110693598D01*
X254692155Y-110699999D01*
X254692172Y-110700000D01*
X254740000Y-110700000D01*
X255140000Y-110700000D01*
X255187828Y-110700000D01*
X255187844Y-110699999D01*
X255247371Y-110693598D01*
X255321666Y-110665888D01*
X255391358Y-110660904D01*
X255408334Y-110665888D01*
X255482628Y-110693598D01*
X255482627Y-110693598D01*
X255542155Y-110699999D01*
X255542172Y-110700000D01*
X255590000Y-110700000D01*
X255590000Y-110000000D01*
X255140000Y-110000000D01*
X255140000Y-110700000D01*
X254740000Y-110700000D01*
X254740000Y-110000000D01*
X254290000Y-110000000D01*
X254290000Y-110700000D01*
X253890000Y-110700000D01*
X253890000Y-110000000D01*
X253440000Y-110000000D01*
X253440000Y-110700000D01*
X253040000Y-110700000D01*
X253040000Y-110000000D01*
X252590000Y-110000000D01*
X252590000Y-110700000D01*
X252190000Y-110700000D01*
X252190000Y-110000000D01*
X251740000Y-110000000D01*
X251740000Y-110700000D01*
X251340000Y-110700000D01*
X251340000Y-110000000D01*
X250890000Y-110000000D01*
X250890000Y-110700000D01*
X250490000Y-110700000D01*
X250490000Y-110000000D01*
X250040000Y-110000000D01*
X250040000Y-110700000D01*
X249640000Y-110700000D01*
X249640000Y-110000000D01*
X249190000Y-110000000D01*
X249190000Y-110700000D01*
X248790000Y-110700000D01*
X248790000Y-110000000D01*
X248340000Y-110000000D01*
X248340000Y-110700000D01*
X247940000Y-110700000D01*
X247940000Y-110000000D01*
X247490000Y-110000000D01*
X247490000Y-110700000D01*
X247090000Y-110700000D01*
X247090000Y-110000000D01*
X246640000Y-110000000D01*
X246640000Y-110700000D01*
X246240000Y-110700000D01*
X246240000Y-110000000D01*
X245790000Y-110000000D01*
X245790000Y-110700000D01*
X245390000Y-110700000D01*
X245390000Y-110000000D01*
X244940000Y-110000000D01*
X244940000Y-110700000D01*
X244540000Y-110700000D01*
X244540000Y-110000000D01*
X244090000Y-110000000D01*
X244090000Y-110700000D01*
X240980000Y-110700000D01*
X240980000Y-110520000D01*
X239995686Y-110520000D01*
X240000080Y-110515606D01*
X240052741Y-110424394D01*
X240080000Y-110322661D01*
X240080000Y-110247844D01*
X241940000Y-110247844D01*
X241946401Y-110307372D01*
X241946403Y-110307382D01*
X241974110Y-110381668D01*
X241979094Y-110451359D01*
X241974110Y-110468332D01*
X241946403Y-110542617D01*
X241946401Y-110542627D01*
X241940000Y-110602155D01*
X241940000Y-110650000D01*
X242590000Y-110650000D01*
X243090000Y-110650000D01*
X243690000Y-110650000D01*
X243690000Y-110050000D01*
X243090000Y-110050000D01*
X243090000Y-110650000D01*
X242590000Y-110650000D01*
X242590000Y-110050000D01*
X241940000Y-110050000D01*
X241940000Y-110247844D01*
X240080000Y-110247844D01*
X240080000Y-110217339D01*
X240052741Y-110115606D01*
X240000080Y-110024394D01*
X239995686Y-110020000D01*
X240980000Y-110020000D01*
X240980000Y-109422172D01*
X240979999Y-109422155D01*
X240973598Y-109362627D01*
X240973596Y-109362620D01*
X240923354Y-109227913D01*
X240923352Y-109227910D01*
X240901569Y-109198812D01*
X240877151Y-109133348D01*
X240892002Y-109065075D01*
X240941406Y-109015669D01*
X241000835Y-109000500D01*
X241876764Y-109000500D01*
X241943803Y-109020185D01*
G37*
%TD.AperFunction*%
%TA.AperFunction,Conductor*%
G36*
X240565677Y-112019685D02*
G01*
X240586319Y-112036319D01*
X240593681Y-112043681D01*
X240627166Y-112105004D01*
X240630000Y-112131362D01*
X240630000Y-113804503D01*
X240712371Y-113780574D01*
X240782241Y-113780773D01*
X240840911Y-113818715D01*
X240866740Y-113867554D01*
X240873608Y-113893186D01*
X240939500Y-114007314D01*
X241032686Y-114100500D01*
X241146814Y-114166392D01*
X241274108Y-114200500D01*
X241274110Y-114200500D01*
X241405890Y-114200500D01*
X241405892Y-114200500D01*
X241533186Y-114166392D01*
X241647314Y-114100500D01*
X241740500Y-114007314D01*
X241806392Y-113893186D01*
X241840500Y-113765892D01*
X241840500Y-113634108D01*
X241806392Y-113506814D01*
X241779058Y-113459471D01*
X241762586Y-113391573D01*
X241774062Y-113345073D01*
X241813972Y-113259487D01*
X241820500Y-113209901D01*
X241820499Y-113074499D01*
X241823049Y-113065814D01*
X241821761Y-113056853D01*
X241832738Y-113032815D01*
X241840183Y-113007461D01*
X241847025Y-113001532D01*
X241850786Y-112993297D01*
X241873017Y-112979010D01*
X241892987Y-112961706D01*
X241903502Y-112959418D01*
X241909564Y-112955523D01*
X241944499Y-112950500D01*
X242136496Y-112950500D01*
X242203535Y-112970185D01*
X242249290Y-113022989D01*
X242259234Y-113092147D01*
X242251199Y-113121432D01*
X242239500Y-113180247D01*
X242239500Y-113619752D01*
X242251131Y-113678229D01*
X242251132Y-113678230D01*
X242302233Y-113754707D01*
X242298918Y-113756921D01*
X242321699Y-113798642D01*
X242316715Y-113868334D01*
X242300243Y-113893963D01*
X242302233Y-113895293D01*
X242251132Y-113971769D01*
X242251131Y-113971770D01*
X242239500Y-114030247D01*
X242239500Y-114469752D01*
X242248509Y-114515044D01*
X242242282Y-114584636D01*
X242199418Y-114639813D01*
X242133528Y-114663057D01*
X242094802Y-114659010D01*
X242059309Y-114649500D01*
X241940691Y-114649500D01*
X241826114Y-114680201D01*
X241826112Y-114680201D01*
X241826112Y-114680202D01*
X241723387Y-114739511D01*
X241723384Y-114739513D01*
X241639513Y-114823384D01*
X241639511Y-114823387D01*
X241606683Y-114880247D01*
X241580201Y-114926114D01*
X241549500Y-115040691D01*
X241549500Y-115040693D01*
X241549500Y-115109523D01*
X241529815Y-115176562D01*
X241513181Y-115197204D01*
X241466444Y-115243940D01*
X241424500Y-115345199D01*
X241424500Y-115834521D01*
X241404815Y-115901560D01*
X241388181Y-115922202D01*
X240311654Y-116998728D01*
X240250331Y-117032213D01*
X240180639Y-117027229D01*
X240155079Y-117014146D01*
X240153914Y-117013368D01*
X240153910Y-117013366D01*
X240153906Y-117013364D01*
X239971839Y-116937950D01*
X239971829Y-116937947D01*
X239780308Y-116899851D01*
X239718397Y-116867466D01*
X239683823Y-116806750D01*
X239680500Y-116778234D01*
X239680500Y-116484500D01*
X239700185Y-116417461D01*
X239752989Y-116371706D01*
X239804500Y-116360500D01*
X240499750Y-116360500D01*
X240499751Y-116360499D01*
X240514568Y-116357552D01*
X240558229Y-116348868D01*
X240558229Y-116348867D01*
X240558231Y-116348867D01*
X240624552Y-116304552D01*
X240668867Y-116238231D01*
X240668867Y-116238229D01*
X240668868Y-116238229D01*
X240680499Y-116179752D01*
X240680500Y-116179750D01*
X240680500Y-114540249D01*
X240680499Y-114540247D01*
X240668868Y-114481770D01*
X240668867Y-114481769D01*
X240624552Y-114415447D01*
X240558230Y-114371132D01*
X240558229Y-114371131D01*
X240499752Y-114359500D01*
X240499748Y-114359500D01*
X239804500Y-114359500D01*
X239737461Y-114339815D01*
X239691706Y-114287011D01*
X239680500Y-114235500D01*
X239680500Y-113800052D01*
X239700185Y-113733013D01*
X239752989Y-113687258D01*
X239822147Y-113677314D01*
X239867622Y-113693320D01*
X239983806Y-113762032D01*
X240130000Y-113804504D01*
X240130000Y-112926433D01*
X240112834Y-112894996D01*
X240110000Y-112868638D01*
X240110000Y-112124000D01*
X240129685Y-112056961D01*
X240182489Y-112011206D01*
X240234000Y-112000000D01*
X240498638Y-112000000D01*
X240565677Y-112019685D01*
G37*
%TD.AperFunction*%
%TD*%
M02*
