%TF.GenerationSoftware,KiCad,Pcbnew,9.0.7-9.0.7~ubuntu22.04.1*%
%TF.CreationDate,2026-02-16T21:50:37-07:00*%
%TF.ProjectId,ESP32-S3-MINI-1U_UU,45535033-322d-4533-932d-4d494e492d31,rev?*%
%TF.SameCoordinates,Original*%
%TF.FileFunction,Copper,L1,Top*%
%TF.FilePolarity,Positive*%
%FSLAX46Y46*%
G04 Gerber Fmt 4.6, Leading zero omitted, Abs format (unit mm)*
G04 Created by KiCad (PCBNEW 9.0.7-9.0.7~ubuntu22.04.1) date 2026-02-16 21:50:37*
%MOMM*%
%LPD*%
G01*
G04 APERTURE LIST*
G04 Aperture macros list*
%AMRoundRect*
0 Rectangle with rounded corners*
0 $1 Rounding radius*
0 $2 $3 $4 $5 $6 $7 $8 $9 X,Y pos of 4 corners*
0 Add a 4 corners polygon primitive as box body*
4,1,4,$2,$3,$4,$5,$6,$7,$8,$9,$2,$3,0*
0 Add four circle primitives for the rounded corners*
1,1,$1+$1,$2,$3*
1,1,$1+$1,$4,$5*
1,1,$1+$1,$6,$7*
1,1,$1+$1,$8,$9*
0 Add four rect primitives between the rounded corners*
20,1,$1+$1,$2,$3,$4,$5,0*
20,1,$1+$1,$4,$5,$6,$7,0*
20,1,$1+$1,$6,$7,$8,$9,0*
20,1,$1+$1,$8,$9,$2,$3,0*%
%AMOutline5P*
0 Free polygon, 5 corners , with rotation*
0 The origin of the aperture is its center*
0 number of corners: always 5*
0 $1 to $10 corner X, Y*
0 $11 Rotation angle, in degrees counterclockwise*
0 create outline with 5 corners*
4,1,5,$1,$2,$3,$4,$5,$6,$7,$8,$9,$10,$1,$2,$11*%
%AMOutline6P*
0 Free polygon, 6 corners , with rotation*
0 The origin of the aperture is its center*
0 number of corners: always 6*
0 $1 to $12 corner X, Y*
0 $13 Rotation angle, in degrees counterclockwise*
0 create outline with 6 corners*
4,1,6,$1,$2,$3,$4,$5,$6,$7,$8,$9,$10,$11,$12,$1,$2,$13*%
%AMOutline7P*
0 Free polygon, 7 corners , with rotation*
0 The origin of the aperture is its center*
0 number of corners: always 7*
0 $1 to $14 corner X, Y*
0 $15 Rotation angle, in degrees counterclockwise*
0 create outline with 7 corners*
4,1,7,$1,$2,$3,$4,$5,$6,$7,$8,$9,$10,$11,$12,$13,$14,$1,$2,$15*%
%AMOutline8P*
0 Free polygon, 8 corners , with rotation*
0 The origin of the aperture is its center*
0 number of corners: always 8*
0 $1 to $16 corner X, Y*
0 $17 Rotation angle, in degrees counterclockwise*
0 create outline with 8 corners*
4,1,8,$1,$2,$3,$4,$5,$6,$7,$8,$9,$10,$11,$12,$13,$14,$15,$16,$1,$2,$17*%
G04 Aperture macros list end*
%TA.AperFunction,SMDPad,CuDef*%
%ADD10RoundRect,0.140000X-0.140000X-0.170000X0.140000X-0.170000X0.140000X0.170000X-0.140000X0.170000X0*%
%TD*%
%TA.AperFunction,SMDPad,CuDef*%
%ADD11RoundRect,0.135000X0.135000X0.185000X-0.135000X0.185000X-0.135000X-0.185000X0.135000X-0.185000X0*%
%TD*%
%TA.AperFunction,ComponentPad*%
%ADD12R,1.600000X1.600000*%
%TD*%
%TA.AperFunction,ComponentPad*%
%ADD13C,1.600000*%
%TD*%
%TA.AperFunction,SMDPad,CuDef*%
%ADD14RoundRect,0.062500X-0.117500X-0.062500X0.117500X-0.062500X0.117500X0.062500X-0.117500X0.062500X0*%
%TD*%
%TA.AperFunction,SMDPad,CuDef*%
%ADD15RoundRect,0.062500X0.117500X0.062500X-0.117500X0.062500X-0.117500X-0.062500X0.117500X-0.062500X0*%
%TD*%
%TA.AperFunction,SMDPad,CuDef*%
%ADD16R,1.000000X0.900000*%
%TD*%
%TA.AperFunction,SMDPad,CuDef*%
%ADD17RoundRect,0.140000X0.140000X0.170000X-0.140000X0.170000X-0.140000X-0.170000X0.140000X-0.170000X0*%
%TD*%
%TA.AperFunction,SMDPad,CuDef*%
%ADD18R,0.700000X0.700000*%
%TD*%
%TA.AperFunction,SMDPad,CuDef*%
%ADD19RoundRect,0.147500X0.147500X0.172500X-0.147500X0.172500X-0.147500X-0.172500X0.147500X-0.172500X0*%
%TD*%
%TA.AperFunction,SMDPad,CuDef*%
%ADD20RoundRect,0.135000X-0.185000X0.135000X-0.185000X-0.135000X0.185000X-0.135000X0.185000X0.135000X0*%
%TD*%
%TA.AperFunction,SMDPad,CuDef*%
%ADD21RoundRect,0.147500X0.172500X-0.147500X0.172500X0.147500X-0.172500X0.147500X-0.172500X-0.147500X0*%
%TD*%
%TA.AperFunction,SMDPad,CuDef*%
%ADD22RoundRect,0.135000X-0.135000X-0.185000X0.135000X-0.185000X0.135000X0.185000X-0.135000X0.185000X0*%
%TD*%
%TA.AperFunction,SMDPad,CuDef*%
%ADD23R,1.550000X0.600000*%
%TD*%
%TA.AperFunction,SMDPad,CuDef*%
%ADD24R,2.000000X1.200000*%
%TD*%
%TA.AperFunction,SMDPad,CuDef*%
%ADD25RoundRect,0.140000X0.170000X-0.140000X0.170000X0.140000X-0.170000X0.140000X-0.170000X-0.140000X0*%
%TD*%
%TA.AperFunction,SMDPad,CuDef*%
%ADD26RoundRect,0.135000X0.185000X-0.135000X0.185000X0.135000X-0.185000X0.135000X-0.185000X-0.135000X0*%
%TD*%
%TA.AperFunction,SMDPad,CuDef*%
%ADD27R,0.800000X0.400000*%
%TD*%
%TA.AperFunction,SMDPad,CuDef*%
%ADD28R,0.400000X0.800000*%
%TD*%
%TA.AperFunction,HeatsinkPad*%
%ADD29Outline5P,-0.600000X0.204000X-0.204000X0.600000X0.600000X0.600000X0.600000X-0.600000X-0.600000X-0.600000X0.000000*%
%TD*%
%TA.AperFunction,HeatsinkPad*%
%ADD30R,1.200000X1.200000*%
%TD*%
%TA.AperFunction,SMDPad,CuDef*%
%ADD31R,0.800000X0.800000*%
%TD*%
%TA.AperFunction,SMDPad,CuDef*%
%ADD32RoundRect,0.100000X0.100000X-0.562500X0.100000X0.562500X-0.100000X0.562500X-0.100000X-0.562500X0*%
%TD*%
%TA.AperFunction,SMDPad,CuDef*%
%ADD33R,1.650000X0.500000*%
%TD*%
%TA.AperFunction,SMDPad,CuDef*%
%ADD34RoundRect,0.087500X0.087500X-0.250000X0.087500X0.250000X-0.087500X0.250000X-0.087500X-0.250000X0*%
%TD*%
%TA.AperFunction,SMDPad,CuDef*%
%ADD35R,0.870000X0.300000*%
%TD*%
%TA.AperFunction,ComponentPad*%
%ADD36C,1.460000*%
%TD*%
%TA.AperFunction,SMDPad,CuDef*%
%ADD37R,0.600000X0.250000*%
%TD*%
%TA.AperFunction,SMDPad,CuDef*%
%ADD38R,1.000000X0.200000*%
%TD*%
%TA.AperFunction,ViaPad*%
%ADD39C,0.500000*%
%TD*%
%TA.AperFunction,ViaPad*%
%ADD40C,0.600000*%
%TD*%
%TA.AperFunction,Conductor*%
%ADD41C,0.300000*%
%TD*%
%TA.AperFunction,Conductor*%
%ADD42C,0.250000*%
%TD*%
%TA.AperFunction,Conductor*%
%ADD43C,0.200000*%
%TD*%
%TA.AperFunction,Conductor*%
%ADD44C,0.150000*%
%TD*%
%TA.AperFunction,Conductor*%
%ADD45C,0.400000*%
%TD*%
G04 APERTURE END LIST*
D10*
%TO.P,C11,1*%
%TO.N,3V3*%
X186940000Y-145300000D03*
%TO.P,C11,2*%
%TO.N,GND*%
X187900000Y-145300000D03*
%TD*%
D11*
%TO.P,R14,1*%
%TO.N,3V3*%
X187910000Y-143300000D03*
%TO.P,R14,2*%
%TO.N,SCL*%
X186890000Y-143300000D03*
%TD*%
D12*
%TO.P,J1,1,1*%
%TO.N,IO16*%
X174780000Y-151100000D03*
D13*
%TO.P,J1,2,2*%
%TO.N,IO17*%
X177320000Y-151100000D03*
%TO.P,J1,3,3*%
%TO.N,IO18*%
X179860000Y-151100000D03*
%TO.P,J1,4,4*%
%TO.N,5V*%
X182400000Y-151100000D03*
%TO.P,J1,5,5*%
%TO.N,GND*%
X184940000Y-151100000D03*
%TO.P,J1,6,6*%
%TO.N,IO21*%
X187480000Y-151100000D03*
%TO.P,J1,7,7*%
%TO.N,IO26*%
X190020000Y-151100000D03*
%TD*%
D14*
%TO.P,D7,1,A1*%
%TO.N,GND*%
X184320000Y-129300000D03*
%TO.P,D7,2,A2*%
%TO.N,D+*%
X183480000Y-129300000D03*
%TD*%
D15*
%TO.P,D8,1,A1*%
%TO.N,GND*%
X181380000Y-129300000D03*
%TO.P,D8,2,A2*%
%TO.N,D-*%
X182220000Y-129300000D03*
%TD*%
D16*
%TO.P,L1,1,1*%
%TO.N,Net-(IC1-SW)*%
X177060000Y-143500000D03*
%TO.P,L1,2,2*%
%TO.N,3V3*%
X177060000Y-141900000D03*
%TD*%
D17*
%TO.P,C12,1*%
%TO.N,Net-(S2-NO)*%
X187880000Y-138050000D03*
%TO.P,C12,2*%
%TO.N,GND*%
X186920000Y-138050000D03*
%TD*%
D18*
%TO.P,D6,1,DOUT*%
%TO.N,unconnected-(D6-DOUT-Pad1)*%
X186570000Y-146565000D03*
%TO.P,D6,2,VSS*%
%TO.N,GND*%
X186570000Y-147665000D03*
%TO.P,D6,3,DIN*%
%TO.N,RGB*%
X188400000Y-147665000D03*
%TO.P,D6,4,VDD*%
%TO.N,3V3*%
X188400000Y-146565000D03*
%TD*%
D17*
%TO.P,C5,1*%
%TO.N,VSYS*%
X177540000Y-144700000D03*
%TO.P,C5,2*%
%TO.N,GND*%
X176580000Y-144700000D03*
%TD*%
D19*
%TO.P,D4,1,K*%
%TO.N,GND*%
X183945000Y-140800000D03*
%TO.P,D4,2,A*%
%TO.N,Net-(D4-A)*%
X182975000Y-140800000D03*
%TD*%
D20*
%TO.P,R4,1*%
%TO.N,Net-(J2-CC2)*%
X185785000Y-134290000D03*
%TO.P,R4,2*%
%TO.N,GND*%
X185785000Y-135310000D03*
%TD*%
D12*
%TO.P,J6,1,1*%
%TO.N,IO46*%
X192560000Y-114260000D03*
D13*
%TO.P,J6,2,2*%
%TO.N,IO45*%
X192560000Y-116800000D03*
%TO.P,J6,3,3*%
%TO.N,RX*%
X192560000Y-119340000D03*
%TO.P,J6,4,4*%
%TO.N,TX*%
X192560000Y-121880000D03*
%TO.P,J6,5,5*%
%TO.N,MTMS*%
X192560000Y-124420000D03*
%TO.P,J6,6,6*%
%TO.N,MTDI*%
X192560000Y-126960000D03*
%TO.P,J6,7,7*%
%TO.N,MTDO*%
X192560000Y-129500000D03*
%TO.P,J6,8,8*%
%TO.N,MTCK*%
X192560000Y-132040000D03*
%TO.P,J6,9,9*%
%TO.N,IO38*%
X192560000Y-134580000D03*
%TO.P,J6,10,10*%
%TO.N,IO37*%
X192560000Y-137120000D03*
%TO.P,J6,11,11*%
%TO.N,IO36*%
X192560000Y-139660000D03*
%TO.P,J6,12,12*%
%TO.N,IO35*%
X192560000Y-142200000D03*
%TO.P,J6,13,13*%
%TO.N,IO34*%
X192560000Y-144740000D03*
%TO.P,J6,14,14*%
%TO.N,IO33*%
X192560000Y-147280000D03*
%TO.P,J6,15,15*%
%TO.N,IO47*%
X192560000Y-149820000D03*
%TD*%
D12*
%TO.P,J5,1,1*%
%TO.N,3V3*%
X172240000Y-119360000D03*
D13*
%TO.P,J5,2,2*%
%TO.N,LED*%
X172240000Y-121900000D03*
%TO.P,J5,3,3*%
%TO.N,IO3*%
X172240000Y-124440000D03*
%TO.P,J5,4,4*%
%TO.N,IO4*%
X172240000Y-126980000D03*
%TO.P,J5,5,5*%
%TO.N,IO5*%
X172240000Y-129520000D03*
%TO.P,J5,6,6*%
%TO.N,IO6*%
X172240000Y-132060000D03*
%TO.P,J5,7,7*%
%TO.N,IO7*%
X172240000Y-134600000D03*
%TO.P,J5,8,8*%
%TO.N,IO10*%
X172240000Y-137140000D03*
%TO.P,J5,9,9*%
%TO.N,IO11*%
X172240000Y-139680000D03*
%TO.P,J5,10,10*%
%TO.N,IO12*%
X172240000Y-142220000D03*
%TO.P,J5,11,11*%
%TO.N,IO13*%
X172240000Y-144760000D03*
%TO.P,J5,12,12*%
%TO.N,IO14*%
X172240000Y-147300000D03*
%TO.P,J5,13,13*%
%TO.N,IO15*%
X172240000Y-149840000D03*
%TD*%
D21*
%TO.P,D5,1,K*%
%TO.N,Net-(D5-K)*%
X179200000Y-133020000D03*
%TO.P,D5,2,A*%
%TO.N,LED*%
X179200000Y-132050000D03*
%TD*%
D20*
%TO.P,R12,1*%
%TO.N,Net-(D5-K)*%
X178200000Y-132050000D03*
%TO.P,R12,2*%
%TO.N,GND*%
X178200000Y-133070000D03*
%TD*%
D22*
%TO.P,R13,1*%
%TO.N,3V3*%
X176640000Y-139050000D03*
%TO.P,R13,2*%
%TO.N,Net-(S1-NO)*%
X177660000Y-139050000D03*
%TD*%
D10*
%TO.P,C9,1*%
%TO.N,V_USB*%
X179060000Y-139800000D03*
%TO.P,C9,2*%
%TO.N,GND*%
X180020000Y-139800000D03*
%TD*%
D23*
%TO.P,J3,1,Pin_1*%
%TO.N,GND*%
X185161000Y-146300000D03*
%TO.P,J3,2,Pin_2*%
%TO.N,3V3*%
X185161000Y-145300000D03*
%TO.P,J3,3,Pin_3*%
%TO.N,SDA*%
X185161000Y-144300000D03*
%TO.P,J3,4,Pin_4*%
%TO.N,SCL*%
X185161000Y-143300000D03*
D24*
%TO.P,J3,NC1,NC*%
%TO.N,unconnected-(J3-NC-PadNC1)*%
X182736000Y-147600000D03*
%TO.P,J3,NC2,NC*%
%TO.N,unconnected-(J3-NC-PadNC2)*%
X182736000Y-142000000D03*
%TD*%
D25*
%TO.P,C14,1*%
%TO.N,3V3*%
X185600000Y-140760000D03*
%TO.P,C14,2*%
%TO.N,GND*%
X185600000Y-139800000D03*
%TD*%
D11*
%TO.P,R16,1*%
%TO.N,3V3*%
X187910000Y-144300000D03*
%TO.P,R16,2*%
%TO.N,SDA*%
X186890000Y-144300000D03*
%TD*%
D26*
%TO.P,R5,1*%
%TO.N,Net-(J2-CC1)*%
X179650000Y-135560000D03*
%TO.P,R5,2*%
%TO.N,GND*%
X179650000Y-134540000D03*
%TD*%
D14*
%TO.P,D1,1,A1*%
%TO.N,GND*%
X180035000Y-138800000D03*
%TO.P,D1,2,A2*%
%TO.N,V_USB*%
X179195000Y-138800000D03*
%TD*%
D27*
%TO.P,U1,1,GND*%
%TO.N,GND*%
X175400000Y-114850000D03*
%TO.P,U1,2,GND*%
X175400000Y-115700000D03*
%TO.P,U1,3,3V3*%
%TO.N,3V3*%
X175400000Y-116550000D03*
%TO.P,U1,4,IO0*%
%TO.N,Net-(S1-NO)*%
X175400000Y-117400000D03*
%TO.P,U1,5,IO1*%
%TO.N,IO1*%
X175400000Y-118250000D03*
%TO.P,U1,6,IO2*%
%TO.N,LED*%
X175400000Y-119100000D03*
%TO.P,U1,7,IO3*%
%TO.N,IO3*%
X175400000Y-119950000D03*
%TO.P,U1,8,IO4*%
%TO.N,IO4*%
X175400000Y-120800000D03*
%TO.P,U1,9,IO5*%
%TO.N,IO5*%
X175400000Y-121650000D03*
%TO.P,U1,10,IO6*%
%TO.N,IO6*%
X175400000Y-122500000D03*
%TO.P,U1,11,IO7*%
%TO.N,IO7*%
X175400000Y-123350000D03*
%TO.P,U1,12,IO8*%
%TO.N,SDA*%
X175400000Y-124200000D03*
%TO.P,U1,13,IO9*%
%TO.N,SCL*%
X175400000Y-125050000D03*
%TO.P,U1,14,IO10*%
%TO.N,IO10*%
X175400000Y-125900000D03*
%TO.P,U1,15,IO11*%
%TO.N,IO11*%
X175400000Y-126750000D03*
D28*
%TO.P,U1,16,IO12*%
%TO.N,IO12*%
X176450000Y-127800000D03*
%TO.P,U1,17,IO13*%
%TO.N,IO13*%
X177300000Y-127800000D03*
%TO.P,U1,18,IO14*%
%TO.N,IO14*%
X178150000Y-127800000D03*
%TO.P,U1,19,IO15*%
%TO.N,IO15*%
X179000000Y-127800000D03*
%TO.P,U1,20,IO16*%
%TO.N,IO16*%
X179850000Y-127800000D03*
%TO.P,U1,21,IO17*%
%TO.N,IO17*%
X180700000Y-127800000D03*
%TO.P,U1,22,IO18*%
%TO.N,IO18*%
X181550000Y-127800000D03*
%TO.P,U1,23,USB_D-*%
%TO.N,D-*%
X182400000Y-127800000D03*
%TO.P,U1,24,USB_D+*%
%TO.N,D+*%
X183250000Y-127800000D03*
%TO.P,U1,25,IO21*%
%TO.N,IO21*%
X184100000Y-127800000D03*
%TO.P,U1,26,IO26*%
%TO.N,IO26*%
X184950000Y-127800000D03*
%TO.P,U1,27,IO47*%
%TO.N,IO47*%
X185800000Y-127800000D03*
%TO.P,U1,28,IO33*%
%TO.N,IO33*%
X186650000Y-127800000D03*
%TO.P,U1,29,IO34*%
%TO.N,IO34*%
X187500000Y-127800000D03*
%TO.P,U1,30,IO48*%
%TO.N,RGB*%
X188350000Y-127800000D03*
D27*
%TO.P,U1,31,IO35*%
%TO.N,IO35*%
X189400000Y-126750000D03*
%TO.P,U1,32,IO36*%
%TO.N,IO36*%
X189400000Y-125900000D03*
%TO.P,U1,33,IO37*%
%TO.N,IO37*%
X189400000Y-125050000D03*
%TO.P,U1,34,IO38*%
%TO.N,IO38*%
X189400000Y-124200000D03*
%TO.P,U1,35,IO39*%
%TO.N,MTCK*%
X189400000Y-123350000D03*
%TO.P,U1,36,IO40*%
%TO.N,MTDO*%
X189400000Y-122500000D03*
%TO.P,U1,37,IO41*%
%TO.N,MTDI*%
X189400000Y-121650000D03*
%TO.P,U1,38,IO42*%
%TO.N,MTMS*%
X189400000Y-120800000D03*
%TO.P,U1,39,TXD0*%
%TO.N,TX*%
X189400000Y-119950000D03*
%TO.P,U1,40,RXD0*%
%TO.N,RX*%
X189400000Y-119100000D03*
%TO.P,U1,41,IO45*%
%TO.N,IO45*%
X189400000Y-118250000D03*
%TO.P,U1,42,GND*%
%TO.N,GND*%
X189400000Y-117400000D03*
%TO.P,U1,43,GND*%
X189400000Y-116550000D03*
%TO.P,U1,44,IO46*%
%TO.N,IO46*%
X189400000Y-115700000D03*
%TO.P,U1,45,EN*%
%TO.N,Net-(S2-NO)*%
X189400000Y-114850000D03*
D28*
%TO.P,U1,46,GND*%
%TO.N,GND*%
X188350000Y-113800000D03*
%TO.P,U1,47,GND*%
X187500000Y-113800000D03*
%TO.P,U1,48,GND*%
X186650000Y-113800000D03*
%TO.P,U1,49,GND*%
X185800000Y-113800000D03*
%TO.P,U1,50,GND*%
X184950000Y-113800000D03*
%TO.P,U1,51,GND*%
X184100000Y-113800000D03*
%TO.P,U1,52,GND*%
X183250000Y-113800000D03*
%TO.P,U1,53,GND*%
X182400000Y-113800000D03*
%TO.P,U1,54,GND*%
X181550000Y-113800000D03*
%TO.P,U1,55,GND*%
X180700000Y-113800000D03*
%TO.P,U1,56,GND*%
X179850000Y-113800000D03*
%TO.P,U1,57,GND*%
X179000000Y-113800000D03*
%TO.P,U1,58,GND*%
X178150000Y-113800000D03*
%TO.P,U1,59,GND*%
X177300000Y-113800000D03*
%TO.P,U1,60,GND*%
X176450000Y-113800000D03*
D29*
%TO.P,U1,61,GND*%
X180750000Y-119150000D03*
D30*
X180750000Y-120800000D03*
X180750000Y-122450000D03*
X182400000Y-119150000D03*
X182400000Y-120800000D03*
X182400000Y-122450000D03*
X184050000Y-119150000D03*
X184050000Y-120800000D03*
X184050000Y-122450000D03*
D31*
%TO.P,U1,62,GND*%
X175400000Y-113800000D03*
%TO.P,U1,63,GND*%
X175400000Y-127800000D03*
%TO.P,U1,64,GND*%
X189400000Y-127800000D03*
%TO.P,U1,65,GND*%
X189400000Y-113800000D03*
%TD*%
D17*
%TO.P,C4,1*%
%TO.N,3V3*%
X173900000Y-117000000D03*
%TO.P,C4,2*%
%TO.N,GND*%
X172940000Y-117000000D03*
%TD*%
D20*
%TO.P,R1,1*%
%TO.N,Net-(IC1-PG)*%
X181160000Y-143290000D03*
%TO.P,R1,2*%
%TO.N,VSYS*%
X181160000Y-144310000D03*
%TD*%
D32*
%TO.P,U3,1,VIN*%
%TO.N,5V*%
X179610000Y-148287500D03*
%TO.P,U3,2,GND*%
%TO.N,GND*%
X180260000Y-148287500D03*
%TO.P,U3,3,~{CE}*%
%TO.N,V_USB*%
X180910000Y-148287500D03*
%TO.P,U3,4,NC*%
%TO.N,unconnected-(U3-NC-Pad4)*%
X180910000Y-146512500D03*
%TO.P,U3,5,ST*%
%TO.N,unconnected-(U3-ST-Pad5)*%
X180260000Y-146512500D03*
%TO.P,U3,6,VOUT*%
%TO.N,VSYS*%
X179610000Y-146512500D03*
%TD*%
D25*
%TO.P,C1,1*%
%TO.N,3V3*%
X179160000Y-141980000D03*
%TO.P,C1,2*%
%TO.N,GND*%
X179160000Y-141020000D03*
%TD*%
D32*
%TO.P,U2,1,VIN*%
%TO.N,V_USB*%
X177010000Y-148287500D03*
%TO.P,U2,2,GND*%
%TO.N,GND*%
X177660000Y-148287500D03*
%TO.P,U2,3,~{CE}*%
%TO.N,5V*%
X178310000Y-148287500D03*
%TO.P,U2,4,NC*%
%TO.N,unconnected-(U2-NC-Pad4)*%
X178310000Y-146512500D03*
%TO.P,U2,5,ST*%
%TO.N,unconnected-(U2-ST-Pad5)*%
X177660000Y-146512500D03*
%TO.P,U2,6,VOUT*%
%TO.N,VSYS*%
X177010000Y-146512500D03*
%TD*%
D33*
%TO.P,S1,1,COM*%
%TO.N,GND*%
X176900000Y-134550000D03*
%TO.P,S1,2,NO*%
%TO.N,Net-(S1-NO)*%
X176900000Y-136850000D03*
%TD*%
D10*
%TO.P,C10,1*%
%TO.N,Net-(S1-NO)*%
X176670000Y-138050000D03*
%TO.P,C10,2*%
%TO.N,GND*%
X177630000Y-138050000D03*
%TD*%
D22*
%TO.P,R11,1*%
%TO.N,V_USB*%
X181040000Y-140800000D03*
%TO.P,R11,2*%
%TO.N,Net-(D4-A)*%
X182060000Y-140800000D03*
%TD*%
D34*
%TO.P,U4,1,SCL*%
%TO.N,SCL*%
X186900000Y-142212500D03*
%TO.P,U4,2,GND*%
%TO.N,GND*%
X187400000Y-142212500D03*
%TO.P,U4,3,ALERT*%
%TO.N,unconnected-(U4-ALERT-Pad3)*%
X187900000Y-142212500D03*
%TO.P,U4,4,ADD0*%
%TO.N,GND*%
X187900000Y-140787500D03*
%TO.P,U4,5,V+*%
%TO.N,3V3*%
X187400000Y-140787500D03*
%TO.P,U4,6,SDA*%
%TO.N,SDA*%
X186900000Y-140787500D03*
%TD*%
D22*
%TO.P,R17,1*%
%TO.N,3V3*%
X186890000Y-139050000D03*
%TO.P,R17,2*%
%TO.N,Net-(S2-NO)*%
X187910000Y-139050000D03*
%TD*%
D12*
%TO.P,J4,1,1*%
%TO.N,GND*%
X172240000Y-114270000D03*
%TD*%
D17*
%TO.P,C3,1*%
%TO.N,3V3*%
X173880000Y-116000000D03*
%TO.P,C3,2*%
%TO.N,GND*%
X172920000Y-116000000D03*
%TD*%
D25*
%TO.P,C2,1*%
%TO.N,3V3*%
X180160000Y-141980000D03*
%TO.P,C2,2*%
%TO.N,GND*%
X180160000Y-141020000D03*
%TD*%
D35*
%TO.P,J2,A1,GND_1*%
%TO.N,GND*%
X181920000Y-137800000D03*
%TO.P,J2,A4,VBUS_1*%
%TO.N,V_USB*%
X181920000Y-136300000D03*
%TO.P,J2,A5,CC1*%
%TO.N,Net-(J2-CC1)*%
X181920000Y-135800000D03*
%TO.P,J2,A6,DP1*%
%TO.N,D+*%
X181920000Y-135300000D03*
%TO.P,J2,A7,DN1*%
%TO.N,D-*%
X181920000Y-134800000D03*
%TO.P,J2,A8,SBU1*%
%TO.N,unconnected-(J2-SBU1-PadA8)*%
X181920000Y-134300000D03*
%TO.P,J2,A9,VBUS_2*%
%TO.N,V_USB*%
X181920000Y-133800000D03*
%TO.P,J2,A12,GND_2*%
%TO.N,GND*%
X181920000Y-132300000D03*
%TO.P,J2,B1,GND_3*%
X183650000Y-132300000D03*
%TO.P,J2,B4,VBUS_3*%
%TO.N,V_USB*%
X183650000Y-133800000D03*
%TO.P,J2,B5,CC2*%
%TO.N,Net-(J2-CC2)*%
X183650000Y-134300000D03*
%TO.P,J2,B6,DP2*%
%TO.N,D+*%
X183650000Y-134800000D03*
%TO.P,J2,B7,DN2*%
%TO.N,D-*%
X183650000Y-135300000D03*
%TO.P,J2,B8,SBU2*%
%TO.N,unconnected-(J2-SBU2-PadB8)*%
X183650000Y-135800000D03*
%TO.P,J2,B9,VBUS_4*%
%TO.N,V_USB*%
X183650000Y-136300000D03*
%TO.P,J2,B12,GND_4*%
%TO.N,GND*%
X183650000Y-137800000D03*
D36*
%TO.P,J2,MH1,MH1*%
X180635000Y-137450000D03*
%TO.P,J2,MH2,MH2*%
X180635000Y-132650000D03*
%TO.P,J2,MH3,MH3*%
X184935000Y-132650000D03*
%TO.P,J2,MH4,MH4*%
X184935000Y-137450000D03*
%TD*%
D33*
%TO.P,S2,1,COM*%
%TO.N,GND*%
X187650000Y-134550000D03*
%TO.P,S2,2,NO*%
%TO.N,Net-(S2-NO)*%
X187650000Y-136850000D03*
%TD*%
D37*
%TO.P,IC1,1,EN*%
%TO.N,VSYS*%
X180060000Y-144100000D03*
%TO.P,IC1,2,PG*%
%TO.N,Net-(IC1-PG)*%
X180060000Y-143600000D03*
%TO.P,IC1,3,FB*%
%TO.N,3V3*%
X180060000Y-143100000D03*
D38*
%TO.P,IC1,4,GND*%
%TO.N,GND*%
X178960000Y-143100000D03*
%TO.P,IC1,5,SW*%
%TO.N,Net-(IC1-SW)*%
X178960000Y-143600000D03*
%TO.P,IC1,6,VIN*%
%TO.N,VSYS*%
X178960000Y-144100000D03*
%TD*%
D39*
%TO.N,GND*%
X180960000Y-125600000D03*
X176610000Y-145250000D03*
D40*
X178060000Y-142750000D03*
D39*
X188585000Y-132600000D03*
X183260000Y-144300000D03*
X184660000Y-142100000D03*
X189338768Y-143078768D03*
X176400000Y-116700000D03*
X186900000Y-115600000D03*
X186560000Y-149200000D03*
D40*
X180660000Y-139800000D03*
D39*
X190960000Y-149700000D03*
X178400000Y-138050000D03*
X179160000Y-126800000D03*
X179260000Y-123600000D03*
X189260000Y-137700000D03*
X184900000Y-130800000D03*
X190500000Y-113800000D03*
D40*
X184660000Y-139800000D03*
D39*
X178960000Y-149200000D03*
D40*
X185785000Y-136050000D03*
X181160000Y-141900000D03*
D39*
X177960000Y-140700000D03*
X190600000Y-117600000D03*
X176400000Y-123300000D03*
X186500000Y-126100000D03*
X180136646Y-134800000D03*
X189822000Y-147800000D03*
X189400000Y-128775000D03*
D40*
X182785000Y-133050000D03*
D39*
X176460000Y-126800000D03*
D40*
X182785000Y-137050000D03*
D39*
X177110000Y-133350000D03*
X180650000Y-130800000D03*
D40*
X188300000Y-122700000D03*
D39*
X188501000Y-145300000D03*
X185858768Y-141701232D03*
%TO.N,IO1*%
X176400000Y-118250000D03*
X183360000Y-148900000D03*
%TO.N,IO36*%
X188300000Y-125381823D03*
%TO.N,IO35*%
X188347135Y-126254671D03*
%TO.N,LED*%
X179200000Y-131040000D03*
X174560000Y-119100000D03*
%TO.N,IO37*%
X188300000Y-124550000D03*
%TO.N,3V3*%
X183260000Y-145300000D03*
X184735000Y-140800000D03*
D40*
X176000000Y-139775000D03*
X177075000Y-141050000D03*
X173900000Y-117700000D03*
D39*
%TO.N,SCL*%
X180060000Y-125050000D03*
X186460000Y-142212500D03*
%TO.N,SDA*%
X180060000Y-124200000D03*
X187188255Y-139963204D03*
X186300000Y-144300000D03*
%TO.N,D+*%
X184785000Y-134800000D03*
D40*
X183250000Y-130050000D03*
D39*
X180785000Y-135300000D03*
%TO.N,RGB*%
X189400000Y-129600000D03*
X189010000Y-144150000D03*
%TO.N,D-*%
X184785000Y-135600000D03*
D40*
X182400000Y-130050000D03*
D39*
X180785000Y-134400000D03*
D40*
%TO.N,Net-(S1-NO)*%
X178150000Y-136800000D03*
D39*
X177125000Y-121050000D03*
%TO.N,Net-(S2-NO)*%
X188200000Y-115550000D03*
X188900000Y-136800000D03*
%TO.N,IO12*%
X174349914Y-132000000D03*
%TO.N,IO11*%
X175400000Y-129050000D03*
X176400000Y-126050000D03*
X174276000Y-131200000D03*
%TO.N,IO38*%
X188300000Y-123550000D03*
%TO.N,V_USB*%
X175960000Y-147700000D03*
X181760000Y-148650002D03*
D40*
X176000000Y-141000000D03*
%TD*%
D41*
%TO.N,VSYS*%
X177540000Y-145299232D02*
X177540000Y-144700000D01*
D42*
%TO.N,Net-(IC1-SW)*%
X177060000Y-143500000D02*
X177650000Y-143500000D01*
X177650000Y-143500000D02*
X177750000Y-143600000D01*
X177750000Y-143600000D02*
X178960000Y-143600000D01*
D43*
%TO.N,GND*%
X178960000Y-143100000D02*
X178410000Y-143100000D01*
X178410000Y-143100000D02*
X178060000Y-142750000D01*
D41*
X176580000Y-144700000D02*
X175760000Y-144700000D01*
D44*
X187400000Y-141800000D02*
X187900000Y-141300000D01*
D41*
X178360000Y-140700000D02*
X178680000Y-141020000D01*
D45*
X172920000Y-116980000D02*
X172940000Y-117000000D01*
X174400000Y-113800000D02*
X175400000Y-113800000D01*
D43*
X181920000Y-132300000D02*
X180985000Y-132300000D01*
X181920000Y-137800000D02*
X180985000Y-137800000D01*
D44*
X185200000Y-149700000D02*
X181010001Y-149700000D01*
D45*
X174510000Y-114850000D02*
X173930000Y-114270000D01*
D43*
X177660000Y-138080000D02*
X177630000Y-138050000D01*
X178400000Y-138050000D02*
X177630000Y-138050000D01*
D44*
X177660000Y-148949999D02*
X177660000Y-148287500D01*
D43*
X176400000Y-126800000D02*
X175400000Y-127800000D01*
X185161000Y-146300000D02*
X185161000Y-149661000D01*
D41*
X176580000Y-145220000D02*
X176610000Y-145250000D01*
D45*
X172920000Y-116000000D02*
X172920000Y-114739000D01*
D41*
X175760000Y-144700000D02*
X175660000Y-144600000D01*
D43*
X183550000Y-137050000D02*
X183650000Y-137150000D01*
X185161000Y-149661000D02*
X185200000Y-149700000D01*
X184320000Y-130220000D02*
X184900000Y-130800000D01*
X183650000Y-137800000D02*
X184585000Y-137800000D01*
D41*
X175660000Y-143150000D02*
X176060000Y-142750000D01*
D44*
X186500000Y-126100000D02*
X187300000Y-126900000D01*
D41*
X184660000Y-139800000D02*
X184360000Y-139800000D01*
D43*
X178060000Y-142750000D02*
X178045500Y-142750000D01*
D45*
X172920000Y-116000000D02*
X172920000Y-116980000D01*
X180049993Y-134800000D02*
X179789993Y-134540000D01*
D41*
X184660000Y-139600000D02*
X186210000Y-138050000D01*
X186210000Y-138050000D02*
X186920000Y-138050000D01*
D44*
X178860000Y-149300000D02*
X178010001Y-149300000D01*
X186570000Y-149150000D02*
X186570000Y-147665000D01*
D42*
X178010000Y-142700000D02*
X176110000Y-142700000D01*
D43*
X182050000Y-137050000D02*
X182785000Y-137050000D01*
D42*
X178060000Y-142750000D02*
X178010000Y-142700000D01*
D44*
X178960000Y-149200000D02*
X178860000Y-149300000D01*
D45*
X172441000Y-114270000D02*
X173930000Y-114270000D01*
D43*
X184320000Y-129300000D02*
X184320000Y-130220000D01*
D45*
X173930000Y-114270000D02*
X174400000Y-113800000D01*
D41*
X176610000Y-145250000D02*
X176510000Y-145250000D01*
D44*
X186560000Y-149200000D02*
X186560000Y-149160000D01*
D45*
X180136646Y-134800000D02*
X180049993Y-134800000D01*
D43*
X182785000Y-137050000D02*
X183550000Y-137050000D01*
X184585000Y-132300000D02*
X184935000Y-132650000D01*
X185785000Y-135310000D02*
X185785000Y-136050000D01*
X180985000Y-137800000D02*
X180635000Y-137450000D01*
D44*
X177110000Y-133350000D02*
X177390000Y-133070000D01*
D41*
X176580000Y-144700000D02*
X176580000Y-145220000D01*
D44*
X178010001Y-149300000D02*
X177660000Y-148949999D01*
X180260000Y-148949999D02*
X180260000Y-148287500D01*
X186060000Y-149700000D02*
X185200000Y-149700000D01*
X187400000Y-142212500D02*
X187400000Y-141800000D01*
D43*
X181920000Y-137180000D02*
X182050000Y-137050000D01*
D45*
X175400000Y-114850000D02*
X174510000Y-114850000D01*
D44*
X176900000Y-133560000D02*
X177110000Y-133350000D01*
D41*
X183945000Y-140215000D02*
X183945000Y-140800000D01*
D44*
X181010001Y-149700000D02*
X180260000Y-148949999D01*
D41*
X178680000Y-141020000D02*
X180160000Y-141020000D01*
X184660000Y-139800000D02*
X184660000Y-139600000D01*
D44*
X188500000Y-126900000D02*
X189400000Y-127800000D01*
D43*
X183650000Y-137150000D02*
X183650000Y-137800000D01*
D41*
X184660000Y-139800000D02*
X185600000Y-139800000D01*
D43*
X180650000Y-129300000D02*
X180650000Y-130800000D01*
X180985000Y-132300000D02*
X180635000Y-132650000D01*
D41*
X184360000Y-139800000D02*
X183945000Y-140215000D01*
X187900000Y-145300000D02*
X188501000Y-145300000D01*
D43*
X181380000Y-129300000D02*
X180650000Y-129300000D01*
D44*
X186560000Y-149160000D02*
X186570000Y-149150000D01*
D43*
X183650000Y-132300000D02*
X184585000Y-132300000D01*
D41*
X175660000Y-144600000D02*
X175660000Y-143150000D01*
X176510000Y-145250000D02*
X176580000Y-145180000D01*
D45*
X179789993Y-134540000D02*
X179535000Y-134540000D01*
D43*
X181920000Y-137800000D02*
X181920000Y-137180000D01*
D44*
X177390000Y-133070000D02*
X178200000Y-133070000D01*
D42*
X176110000Y-142700000D02*
X176060000Y-142750000D01*
D44*
X187300000Y-126900000D02*
X188500000Y-126900000D01*
D42*
X178060000Y-142750000D02*
X178060000Y-142800000D01*
D43*
X178045500Y-142750000D02*
X178009000Y-142713500D01*
D44*
X176900000Y-134550000D02*
X176900000Y-133560000D01*
X186560000Y-149200000D02*
X186060000Y-149700000D01*
D43*
X181920000Y-132300000D02*
X183650000Y-132300000D01*
X184585000Y-137800000D02*
X184935000Y-137450000D01*
D41*
X177960000Y-140700000D02*
X178360000Y-140700000D01*
D44*
X187900000Y-141300000D02*
X187900000Y-140787500D01*
D42*
%TO.N,VSYS*%
X178460000Y-144100000D02*
X178960000Y-144100000D01*
D41*
X177540000Y-145200000D02*
X177640000Y-145300000D01*
D44*
X180950000Y-144100000D02*
X181160000Y-144310000D01*
X180060000Y-144100000D02*
X180950000Y-144100000D01*
D41*
X179160000Y-145300000D02*
X179610000Y-145750000D01*
X177540000Y-144700000D02*
X177540000Y-145200000D01*
D42*
X177540000Y-144700000D02*
X177860000Y-144700000D01*
D41*
X177010000Y-146512500D02*
X177010000Y-145829232D01*
X177640000Y-145300000D02*
X179160000Y-145300000D01*
D42*
X177860000Y-144700000D02*
X178460000Y-144100000D01*
X180060000Y-144100000D02*
X178960000Y-144100000D01*
D41*
X177010000Y-145829232D02*
X177540000Y-145299232D01*
X179610000Y-145750000D02*
X179610000Y-146512500D01*
D44*
%TO.N,IO34*%
X191400000Y-143580000D02*
X192484000Y-144664000D01*
X187500000Y-128650000D02*
X191024000Y-132174000D01*
X191024000Y-132174000D02*
X191024000Y-133029306D01*
X191024000Y-133029306D02*
X191400000Y-133405306D01*
X187500000Y-127800000D02*
X187500000Y-128650000D01*
X191400000Y-133405306D02*
X191400000Y-143580000D01*
D43*
%TO.N,IO1*%
X175400000Y-118250000D02*
X176400000Y-118250000D01*
D44*
%TO.N,IO36*%
X189400000Y-125900000D02*
X188818177Y-125900000D01*
X188818177Y-125900000D02*
X188299488Y-125381311D01*
%TO.N,IO35*%
X188347135Y-126254671D02*
X188394270Y-126301806D01*
X189350000Y-126800000D02*
X189400000Y-126750000D01*
X188398194Y-126301806D02*
X188896389Y-126800000D01*
X188896389Y-126800000D02*
X189350000Y-126800000D01*
X188394270Y-126301806D02*
X188398194Y-126301806D01*
%TO.N,LED*%
X174260000Y-119400000D02*
X174260000Y-120000000D01*
D43*
X175400000Y-119100000D02*
X174651299Y-119100000D01*
D44*
X174260000Y-119400000D02*
X174560000Y-119100000D01*
X174260000Y-120000000D02*
X172370000Y-121890000D01*
X179200000Y-132215000D02*
X179200000Y-131040000D01*
X172370000Y-121890000D02*
X172316000Y-121890000D01*
%TO.N,Net-(D5-K)*%
X179170000Y-133020000D02*
X178200000Y-132050000D01*
X179200000Y-133020000D02*
X179170000Y-133020000D01*
%TO.N,IO37*%
X188343192Y-124682552D02*
X188710640Y-125050000D01*
X188710640Y-125050000D02*
X189400000Y-125050000D01*
D41*
%TO.N,3V3*%
X186940000Y-145709999D02*
X186940000Y-145300000D01*
X187795001Y-146565000D02*
X188400000Y-146565000D01*
D45*
X177240000Y-141880000D02*
X177075000Y-141715000D01*
D44*
X186236000Y-140264000D02*
X186236000Y-139214000D01*
D43*
X185630000Y-140800000D02*
X185650000Y-140780000D01*
D45*
X173900000Y-116550000D02*
X173880000Y-116530000D01*
D43*
X186940000Y-145270000D02*
X187910000Y-144300000D01*
D44*
X180060000Y-142080000D02*
X180160000Y-141980000D01*
X187400000Y-141176848D02*
X187400000Y-140787500D01*
X184735000Y-140800000D02*
X185560000Y-140800000D01*
D45*
X177140000Y-141980000D02*
X177060000Y-141900000D01*
D43*
X186940000Y-145300000D02*
X186940000Y-145270000D01*
D44*
X185650000Y-140780000D02*
X185720000Y-140780000D01*
D45*
X183260000Y-145300000D02*
X185161000Y-145300000D01*
D41*
X187795001Y-146565000D02*
X186940000Y-145709999D01*
D44*
X185680000Y-140780000D02*
X186400000Y-141500000D01*
D45*
X173900000Y-117700000D02*
X173900000Y-116550000D01*
D44*
X186400000Y-139050000D02*
X186890000Y-139050000D01*
D45*
X175400000Y-116550000D02*
X173900000Y-116550000D01*
X180160000Y-141980000D02*
X179160000Y-141980000D01*
D44*
X187910000Y-144300000D02*
X187910000Y-143300000D01*
X187076848Y-141500000D02*
X187400000Y-141176848D01*
X185720000Y-140780000D02*
X186236000Y-140264000D01*
D45*
X179160000Y-141980000D02*
X177140000Y-141980000D01*
X173880000Y-116530000D02*
X173880000Y-116000000D01*
X185161000Y-145300000D02*
X186720000Y-145300000D01*
D44*
X176000000Y-139775000D02*
X176000000Y-139690000D01*
X176000000Y-139690000D02*
X176640000Y-139050000D01*
D45*
X177075000Y-141715000D02*
X177075000Y-141050000D01*
D44*
X186236000Y-139214000D02*
X186400000Y-139050000D01*
X185560000Y-140800000D02*
X185600000Y-140760000D01*
D45*
X186720000Y-145300000D02*
X186820000Y-145400000D01*
D44*
X186400000Y-141500000D02*
X187076848Y-141500000D01*
X185650000Y-140780000D02*
X185680000Y-140780000D01*
X180060000Y-143100000D02*
X180060000Y-142080000D01*
%TO.N,Net-(IC1-PG)*%
X180850000Y-143600000D02*
X181160000Y-143290000D01*
X180060000Y-143600000D02*
X180850000Y-143600000D01*
%TO.N,Net-(J2-CC1)*%
X181920000Y-135800000D02*
X181099588Y-135800000D01*
X180230412Y-135560000D02*
X179650000Y-135560000D01*
X181099588Y-135800000D02*
X181023588Y-135876000D01*
X180546412Y-135876000D02*
X180230412Y-135560000D01*
X181023588Y-135876000D02*
X180546412Y-135876000D01*
%TO.N,Net-(J2-CC2)*%
X185140000Y-134290000D02*
X185785000Y-134290000D01*
X184470412Y-134300000D02*
X184546412Y-134224000D01*
X184546412Y-134224000D02*
X185023588Y-134224000D01*
X185130000Y-134300000D02*
X185140000Y-134290000D01*
X185099588Y-134300000D02*
X185130000Y-134300000D01*
X185023588Y-134224000D02*
X185099588Y-134300000D01*
X183650000Y-134300000D02*
X184470412Y-134300000D01*
%TO.N,SCL*%
X175400000Y-125050000D02*
X180060000Y-125050000D01*
D43*
X186890000Y-143300000D02*
X186900000Y-143290000D01*
D44*
X186900000Y-142212500D02*
X186460000Y-142212500D01*
X186900000Y-143290000D02*
X186900000Y-142212500D01*
X185411000Y-143300000D02*
X186890000Y-143300000D01*
D43*
%TO.N,Net-(D4-A)*%
X182975000Y-140800000D02*
X182060000Y-140800000D01*
D44*
%TO.N,SDA*%
X185411000Y-144300000D02*
X186300000Y-144300000D01*
X186900000Y-140787500D02*
X186900000Y-140251459D01*
X186300000Y-144300000D02*
X186890000Y-144300000D01*
X180060000Y-124200000D02*
X175400000Y-124200000D01*
X186900000Y-140251459D02*
X187188255Y-139963204D01*
%TO.N,D+*%
X183650000Y-134800000D02*
X184785000Y-134800000D01*
X181920000Y-135300000D02*
X180785000Y-135300000D01*
X183250000Y-130200000D02*
X183250000Y-127800000D01*
%TO.N,RGB*%
X189400000Y-129600000D02*
X188700000Y-128900000D01*
X188350000Y-128510000D02*
X188350000Y-127800000D01*
X188400000Y-147665000D02*
X189026000Y-147039000D01*
X189026000Y-147039000D02*
X189026000Y-144166000D01*
X188700000Y-128860000D02*
X188350000Y-128510000D01*
X189026000Y-144166000D02*
X189010000Y-144150000D01*
X188700000Y-128900000D02*
X188700000Y-128860000D01*
%TO.N,RX*%
X190460000Y-119100000D02*
X190700000Y-119340000D01*
X190700000Y-119340000D02*
X192484000Y-119340000D01*
X189400000Y-119100000D02*
X190460000Y-119100000D01*
%TO.N,TX*%
X191980000Y-121880000D02*
X192484000Y-121880000D01*
X189400000Y-119950000D02*
X190050000Y-119950000D01*
X190050000Y-119950000D02*
X191980000Y-121880000D01*
%TO.N,MTMS*%
X189940000Y-120800000D02*
X191460000Y-122320000D01*
X192380000Y-124420000D02*
X192484000Y-124420000D01*
X189400000Y-120800000D02*
X189940000Y-120800000D01*
X191460000Y-123500000D02*
X192380000Y-124420000D01*
X191460000Y-122320000D02*
X191460000Y-123500000D01*
%TO.N,MTDI*%
X191049000Y-122749000D02*
X191049000Y-124467062D01*
X189950000Y-121650000D02*
X191049000Y-122749000D01*
X192420000Y-126960000D02*
X192484000Y-126960000D01*
X191049000Y-124467062D02*
X191400000Y-124818062D01*
X191400000Y-124818062D02*
X191400000Y-125940000D01*
X189400000Y-121650000D02*
X189950000Y-121650000D01*
X191400000Y-125940000D02*
X192420000Y-126960000D01*
%TO.N,MTDO*%
X192484000Y-129500000D02*
X191400000Y-128416000D01*
X191400000Y-128416000D02*
X191400000Y-127296388D01*
X190698000Y-123248000D02*
X189950000Y-122500000D01*
X191049000Y-124963451D02*
X190698000Y-124612452D01*
X191049000Y-126945389D02*
X191049000Y-124963451D01*
X190698000Y-124612452D02*
X190698000Y-123248000D01*
X189950000Y-122500000D02*
X189400000Y-122500000D01*
X191400000Y-127296388D02*
X191049000Y-126945389D01*
%TO.N,MTCK*%
X190698000Y-125108842D02*
X190698000Y-127090779D01*
X190698000Y-127090779D02*
X190900000Y-127292779D01*
X190900000Y-131340000D02*
X191600000Y-132040000D01*
X191600000Y-132040000D02*
X192484000Y-132040000D01*
X189400000Y-123350000D02*
X189950000Y-123350000D01*
X190347000Y-123747000D02*
X190347000Y-124757842D01*
X190347000Y-124757842D02*
X190698000Y-125108842D01*
X190900000Y-127292779D02*
X190900000Y-131340000D01*
X189950000Y-123350000D02*
X190347000Y-123747000D01*
%TO.N,D-*%
X181185000Y-134800000D02*
X180785000Y-134400000D01*
X184435057Y-135300000D02*
X183650000Y-135300000D01*
X181920000Y-134800000D02*
X182400000Y-134800000D01*
X181920000Y-134800000D02*
X181185000Y-134800000D01*
X182900000Y-135300000D02*
X183650000Y-135300000D01*
X184735057Y-135600000D02*
X184435057Y-135300000D01*
X182400000Y-130050000D02*
X182400000Y-127800000D01*
X182400000Y-134800000D02*
X182900000Y-135300000D01*
%TO.N,Net-(S1-NO)*%
X177660000Y-139040000D02*
X176670000Y-138050000D01*
D43*
X178100000Y-136850000D02*
X178150000Y-136800000D01*
D44*
X177150000Y-121025000D02*
X177150000Y-117800000D01*
X177125000Y-121050000D02*
X177150000Y-121025000D01*
X176900000Y-137320000D02*
X176670000Y-137550000D01*
X177660000Y-139050000D02*
X177660000Y-139040000D01*
D43*
X176900000Y-136850000D02*
X178100000Y-136850000D01*
D44*
X175400000Y-117400000D02*
X176750000Y-117400000D01*
X176900000Y-137320000D02*
X176900000Y-136850000D01*
X176670000Y-137550000D02*
X176670000Y-138050000D01*
X177150000Y-117800000D02*
X176750000Y-117400000D01*
%TO.N,Net-(S2-NO)*%
X187910000Y-139050000D02*
X187910000Y-138080000D01*
X187650000Y-137300000D02*
X187880000Y-137530000D01*
D43*
X188850000Y-136850000D02*
X188900000Y-136800000D01*
X187650000Y-136850000D02*
X188850000Y-136850000D01*
X188850000Y-114850000D02*
X189400000Y-114850000D01*
D44*
X187880000Y-137530000D02*
X187880000Y-138050000D01*
D43*
X187910000Y-138080000D02*
X187880000Y-138050000D01*
X188150000Y-115550000D02*
X188850000Y-114850000D01*
D44*
X187650000Y-136850000D02*
X187650000Y-137300000D01*
%TO.N,IO7*%
X174102000Y-125858000D02*
X174102000Y-129958000D01*
X175400000Y-123350000D02*
X174910000Y-123350000D01*
X174102000Y-129958000D02*
X173400000Y-130660000D01*
X173000000Y-133175000D02*
X173000000Y-133830000D01*
X173400000Y-132775000D02*
X173000000Y-133175000D01*
X173000000Y-133830000D02*
X172316000Y-134514000D01*
X172316000Y-134514000D02*
X172316000Y-134590000D01*
X174910000Y-123350000D02*
X174460000Y-123800000D01*
X173400000Y-130660000D02*
X173400000Y-132775000D01*
X174460000Y-125500000D02*
X174102000Y-125858000D01*
X174460000Y-123800000D02*
X174460000Y-125500000D01*
%TO.N,IO14*%
X174453000Y-133211167D02*
X174102000Y-133562165D01*
X173751000Y-145949000D02*
X172410000Y-147290000D01*
X178150000Y-127800000D02*
X178150000Y-128510000D01*
X174453000Y-133211165D02*
X174453000Y-133211167D01*
X174102000Y-135605779D02*
X173751000Y-135956777D01*
X178150000Y-128510000D02*
X175504000Y-131156000D01*
X172410000Y-147290000D02*
X172316000Y-147290000D01*
X174102000Y-133562165D02*
X174102000Y-135605779D01*
X175504000Y-131156000D02*
X175504000Y-132160165D01*
X175504000Y-132160165D02*
X174453000Y-133211165D01*
X173751000Y-135956777D02*
X173751000Y-145949000D01*
%TO.N,IO17*%
X175505999Y-133647338D02*
X175155000Y-133998334D01*
X176557000Y-132596334D02*
X175505999Y-133647335D01*
X175505999Y-133647335D02*
X175505999Y-133647338D01*
X179848194Y-128800000D02*
X179648194Y-129000000D01*
X180500000Y-128500000D02*
X180160000Y-128500000D01*
X174804000Y-148804000D02*
X177024000Y-151024000D01*
X174804000Y-136392944D02*
X174804000Y-148804000D01*
X180700000Y-128300000D02*
X180500000Y-128500000D01*
X180700000Y-127800000D02*
X180700000Y-128300000D01*
X180160000Y-128500000D02*
X179860000Y-128800000D01*
X176557000Y-131603000D02*
X176557000Y-132596334D01*
X179648194Y-129000000D02*
X179160000Y-129000000D01*
X175155000Y-136041948D02*
X174804000Y-136392944D01*
X175155000Y-133998334D02*
X175155000Y-136041948D01*
X177024000Y-151024000D02*
X177320000Y-151024000D01*
X179860000Y-128800000D02*
X179848194Y-128800000D01*
X179160000Y-129000000D02*
X176557000Y-131603000D01*
%TO.N,IO3*%
X172316000Y-124364000D02*
X172316000Y-124440000D01*
X173400000Y-122800000D02*
X173400000Y-121400000D01*
X174850000Y-119950000D02*
X175400000Y-119950000D01*
X172980000Y-123700000D02*
X172980000Y-123220000D01*
X172980000Y-123220000D02*
X173400000Y-122800000D01*
X173400000Y-121400000D02*
X174850000Y-119950000D01*
X172316000Y-124364000D02*
X172980000Y-123700000D01*
%TO.N,IO18*%
X176908000Y-132741727D02*
X175506000Y-134143724D01*
X181550000Y-127800000D02*
X181550000Y-128150000D01*
X179842779Y-129400000D02*
X179260000Y-129400000D01*
X175155000Y-148358612D02*
X176696388Y-149900000D01*
X176696388Y-149900000D02*
X179400000Y-149900000D01*
X175155000Y-136700000D02*
X175155000Y-148358612D01*
X181550000Y-128150000D02*
X181054612Y-128645388D01*
X180796388Y-128900000D02*
X180342779Y-128900000D01*
X179260000Y-129400000D02*
X176908000Y-131752000D01*
X180342779Y-128900000D02*
X179842779Y-129400000D01*
X175506000Y-136349000D02*
X175155000Y-136700000D01*
X181054612Y-128645388D02*
X181051000Y-128645388D01*
X179400000Y-149900000D02*
X179860000Y-150360000D01*
X176908000Y-131752000D02*
X176908000Y-132741727D01*
X175506000Y-134143724D02*
X175506000Y-136349000D01*
X181051000Y-128645388D02*
X180796388Y-128900000D01*
X179860000Y-150360000D02*
X179860000Y-150410000D01*
%TO.N,IO10*%
X173049000Y-136321000D02*
X172316000Y-137054000D01*
X173400000Y-135315000D02*
X173049000Y-135665999D01*
X174453000Y-126227000D02*
X174453000Y-130107000D01*
X173400000Y-133271388D02*
X173400000Y-135315000D01*
X173751000Y-130809000D02*
X173751000Y-132920388D01*
X174780000Y-125900000D02*
X174453000Y-126227000D01*
X173049000Y-135665999D02*
X173049000Y-136321000D01*
X174453000Y-130107000D02*
X173751000Y-130809000D01*
X175400000Y-125900000D02*
X174780000Y-125900000D01*
X173751000Y-132920388D02*
X173400000Y-133271388D01*
%TO.N,IO13*%
X173400000Y-135811388D02*
X173400000Y-143590000D01*
X173751000Y-133416776D02*
X173751000Y-135460389D01*
X175153000Y-132014777D02*
X173751000Y-133416776D01*
X177300000Y-127800000D02*
X177300000Y-128760000D01*
X173751000Y-135460389D02*
X173400000Y-135811388D01*
X172316000Y-144674000D02*
X172316000Y-144750000D01*
X173400000Y-143590000D02*
X172316000Y-144674000D01*
X175153000Y-130907000D02*
X175153000Y-132014777D01*
X177300000Y-128760000D02*
X175153000Y-130907000D01*
%TO.N,IO4*%
X173400000Y-125060000D02*
X172960000Y-125500000D01*
X175400000Y-120800000D02*
X174760000Y-120800000D01*
X173751000Y-122945389D02*
X173400000Y-123296388D01*
X173760000Y-121800000D02*
X173760000Y-122900000D01*
X174760000Y-120800000D02*
X173760000Y-121800000D01*
X172960000Y-125500000D02*
X172960000Y-126250000D01*
X173760000Y-122900000D02*
X173751000Y-122909000D01*
X173751000Y-122909000D02*
X173751000Y-122945389D01*
X172316000Y-126894000D02*
X172316000Y-126970000D01*
X172960000Y-126250000D02*
X172316000Y-126894000D01*
X173400000Y-123296388D02*
X173400000Y-125060000D01*
%TO.N,IO12*%
X176450000Y-129110000D02*
X176450000Y-127800000D01*
X174349914Y-131989914D02*
X174802000Y-131537829D01*
X174802000Y-130758000D02*
X176450000Y-129110000D01*
X174802000Y-131537829D02*
X174802000Y-130758000D01*
%TO.N,IO6*%
X174462000Y-123227168D02*
X174102000Y-123587166D01*
X174102000Y-125354389D02*
X173751000Y-125705388D01*
X174800000Y-122500000D02*
X174462000Y-122838000D01*
X175400000Y-122500000D02*
X174800000Y-122500000D01*
X173049000Y-130451000D02*
X173049000Y-131241000D01*
X174102000Y-123587166D02*
X174102000Y-125354389D01*
X173751000Y-129749000D02*
X173049000Y-130451000D01*
X173049000Y-131241000D02*
X172316000Y-131974000D01*
X173751000Y-125705388D02*
X173751000Y-129749000D01*
X174462000Y-122838000D02*
X174462000Y-123227168D01*
%TO.N,IO11*%
X175700000Y-126750000D02*
X176400000Y-126050000D01*
X175400000Y-129660000D02*
X175400000Y-129050000D01*
X174276000Y-130784000D02*
X175400000Y-129660000D01*
X175400000Y-126750000D02*
X175700000Y-126750000D01*
X174276000Y-131200000D02*
X174276000Y-130784000D01*
%TO.N,IO5*%
X172480000Y-129270000D02*
X172240000Y-129510000D01*
X174810000Y-121650000D02*
X174111000Y-122349000D01*
X173400000Y-125560000D02*
X173400000Y-128246786D01*
X173751000Y-123441777D02*
X173751000Y-125209000D01*
X175400000Y-121650000D02*
X174810000Y-121650000D01*
X173400000Y-128246786D02*
X172480000Y-129166786D01*
X174111000Y-122349000D02*
X174111000Y-123081779D01*
X172480000Y-129166786D02*
X172480000Y-129270000D01*
X174111000Y-123081779D02*
X173751000Y-123441777D01*
X173751000Y-125209000D02*
X173400000Y-125560000D01*
%TO.N,IO15*%
X172346000Y-149800000D02*
X172316000Y-149830000D01*
X179000000Y-128160000D02*
X175855000Y-131305000D01*
X174453000Y-135751169D02*
X174102000Y-136102167D01*
X174102000Y-136102167D02*
X174102000Y-148198000D01*
X174453000Y-133707554D02*
X174453000Y-135751169D01*
X179000000Y-127800000D02*
X179000000Y-128160000D01*
X175855000Y-132305557D02*
X174804000Y-133356557D01*
X172500000Y-149800000D02*
X172346000Y-149800000D01*
X175855000Y-131305000D02*
X175855000Y-132305557D01*
X174804000Y-133356557D02*
X174453000Y-133707554D01*
X174102000Y-148198000D02*
X172500000Y-149800000D01*
%TO.N,IO16*%
X176206000Y-132450947D02*
X175154999Y-133501948D01*
X179060000Y-128600000D02*
X176206000Y-131454000D01*
X174804000Y-133852944D02*
X174804000Y-135896559D01*
X174804000Y-135896559D02*
X174453000Y-136247555D01*
X175154999Y-133501948D02*
X174804000Y-133852944D01*
X174780000Y-149580000D02*
X174780000Y-151024000D01*
X176206000Y-131454000D02*
X176206000Y-132450947D01*
X179500000Y-128600000D02*
X179060000Y-128600000D01*
X179850000Y-127800000D02*
X179850000Y-128250000D01*
X174453000Y-149253000D02*
X174780000Y-149580000D01*
X179850000Y-128250000D02*
X179500000Y-128600000D01*
X174453000Y-136247555D02*
X174453000Y-149253000D01*
%TO.N,IO33*%
X191400000Y-145971388D02*
X191400000Y-146240000D01*
X190673000Y-132319388D02*
X190673000Y-133174695D01*
X191049000Y-145620388D02*
X191400000Y-145971388D01*
X191049000Y-133550695D02*
X191049000Y-145620388D01*
X191400000Y-146240000D02*
X192440000Y-147280000D01*
X190673000Y-133174695D02*
X191049000Y-133550695D01*
X192440000Y-147280000D02*
X192484000Y-147280000D01*
X186650000Y-127800000D02*
X186650000Y-128296388D01*
X186650000Y-128296388D02*
X190673000Y-132319388D01*
%TO.N,IO26*%
X189971000Y-133674000D02*
X190347000Y-134050000D01*
X189971000Y-132610165D02*
X189971000Y-133674000D01*
X190347000Y-134050000D02*
X190347000Y-145911167D01*
X184950000Y-127800000D02*
X184950000Y-128349999D01*
X185879612Y-128901000D02*
X186261834Y-128901000D01*
X185528611Y-128550000D02*
X185879612Y-128901000D01*
X185150000Y-128550000D02*
X185528611Y-128550000D01*
X190000000Y-149200000D02*
X190000000Y-150968000D01*
X184950000Y-128349999D02*
X185150000Y-128550000D01*
X190347000Y-145911167D02*
X190698000Y-146262165D01*
X190698000Y-146262165D02*
X190698000Y-148502000D01*
X186261834Y-128901000D02*
X189971000Y-132610165D01*
X190698000Y-148502000D02*
X190000000Y-149200000D01*
%TO.N,IO21*%
X190347000Y-146407557D02*
X189996000Y-146056556D01*
X189996000Y-134396000D02*
X189414446Y-133814446D01*
X189649000Y-149054612D02*
X189645388Y-149054612D01*
X189414446Y-132550000D02*
X186116445Y-129252000D01*
X188900000Y-149800000D02*
X188000000Y-149800000D01*
X187480000Y-150320000D02*
X187480000Y-151024000D01*
X185383222Y-128901000D02*
X184751000Y-128901000D01*
X190347000Y-148356612D02*
X189649000Y-149054612D01*
X189996000Y-146056556D02*
X189996000Y-134396000D01*
X185734223Y-129252000D02*
X185383222Y-128901000D01*
X189645388Y-149054612D02*
X188900000Y-149800000D01*
X189414446Y-133814446D02*
X189414446Y-132550000D01*
X184100000Y-128250000D02*
X184100000Y-127800000D01*
X190347000Y-146407555D02*
X190347000Y-148356612D01*
X184751000Y-128901000D02*
X184100000Y-128250000D01*
X188000000Y-149800000D02*
X187480000Y-150320000D01*
X186116445Y-129252000D02*
X185734223Y-129252000D01*
%TO.N,IO45*%
X189400000Y-118250000D02*
X190960000Y-118250000D01*
X192410000Y-116800000D02*
X192484000Y-116800000D01*
X190960000Y-118250000D02*
X192410000Y-116800000D01*
%TO.N,IO46*%
X191120000Y-115700000D02*
X192484000Y-114336000D01*
X192484000Y-114336000D02*
X192484000Y-114260000D01*
X189400000Y-115700000D02*
X191120000Y-115700000D01*
%TO.N,IO38*%
X189400000Y-124200000D02*
X188860000Y-124200000D01*
X188860000Y-124200000D02*
X188300000Y-123640000D01*
X188300000Y-123640000D02*
X188300000Y-123550000D01*
%TO.N,IO47*%
X190698000Y-133696083D02*
X190698000Y-145765777D01*
X186025000Y-128550000D02*
X186407223Y-128550000D01*
X190698000Y-145765777D02*
X191049000Y-146116776D01*
X191049000Y-148449000D02*
X192430000Y-149830000D01*
X185800000Y-127800000D02*
X185800000Y-128325000D01*
X186407223Y-128550000D02*
X190322000Y-132464776D01*
X191049000Y-146116776D02*
X191049000Y-148449000D01*
X190322000Y-133320083D02*
X190698000Y-133696083D01*
X185800000Y-128325000D02*
X186025000Y-128550000D01*
X192430000Y-149830000D02*
X192484000Y-149830000D01*
X190322000Y-132464776D02*
X190322000Y-133320083D01*
D41*
%TO.N,V_USB*%
X179055000Y-139800000D02*
X177200000Y-139800000D01*
D42*
X181920000Y-133800000D02*
X181894000Y-133774000D01*
X179152000Y-136302000D02*
X179154000Y-136300000D01*
X183650000Y-133800000D02*
X181920000Y-133800000D01*
X179154000Y-136300000D02*
X181198043Y-136300000D01*
D45*
X176547500Y-148287500D02*
X177010000Y-148287500D01*
D44*
X180640000Y-140400000D02*
X181040000Y-140800000D01*
D42*
X181198043Y-136300000D02*
X181200043Y-136302000D01*
D44*
X181397498Y-148287500D02*
X181760000Y-148650002D01*
X180910000Y-148287500D02*
X181397498Y-148287500D01*
X179055000Y-139800000D02*
X179655000Y-140400000D01*
D41*
X177200000Y-139800000D02*
X176000000Y-141000000D01*
D43*
X179074000Y-138781000D02*
X179055000Y-138800000D01*
D42*
X178960000Y-134200000D02*
X178960000Y-136110000D01*
X178960000Y-136110000D02*
X179152000Y-136302000D01*
D41*
X179055000Y-138800000D02*
X179055000Y-139800000D01*
X179152000Y-136302000D02*
X179055000Y-136399000D01*
D42*
X181920000Y-136300000D02*
X183650000Y-136300000D01*
D43*
X179176000Y-138781000D02*
X179074000Y-138781000D01*
D42*
X181202043Y-136300000D02*
X181920000Y-136300000D01*
X179386000Y-133774000D02*
X178960000Y-134200000D01*
X181894000Y-133774000D02*
X179386000Y-133774000D01*
D41*
X179055000Y-136399000D02*
X179055000Y-139300000D01*
D44*
X179655000Y-140400000D02*
X180640000Y-140400000D01*
D43*
X179195000Y-138800000D02*
X179176000Y-138781000D01*
X181200043Y-136302000D02*
X181202043Y-136300000D01*
D45*
X175960000Y-147700000D02*
X176547500Y-148287500D01*
D41*
%TO.N,5V*%
X182349000Y-150949000D02*
X182400000Y-150949000D01*
X179610000Y-148287500D02*
X179610000Y-148949999D01*
D44*
X179610000Y-148287500D02*
X178310000Y-148287500D01*
D41*
X179610000Y-148949999D02*
X181060001Y-150400000D01*
X181800000Y-150400000D02*
X182349000Y-150949000D01*
X181060001Y-150400000D02*
X181800000Y-150400000D01*
%TD*%
%TA.AperFunction,Conductor*%
%TO.N,IO1*%
G36*
X184003039Y-148419685D02*
G01*
X184048794Y-148472489D01*
X184060000Y-148524000D01*
X184060000Y-149276000D01*
X184040315Y-149343039D01*
X183987511Y-149388794D01*
X183936000Y-149400000D01*
X182784000Y-149400000D01*
X182716961Y-149380315D01*
X182671206Y-149327511D01*
X182660000Y-149276000D01*
X182660000Y-148524500D01*
X182679685Y-148457461D01*
X182732489Y-148411706D01*
X182784000Y-148400500D01*
X183756738Y-148400500D01*
X183766916Y-148400000D01*
X183936000Y-148400000D01*
X184003039Y-148419685D01*
G37*
%TD.AperFunction*%
%TD*%
%TA.AperFunction,Conductor*%
%TO.N,Net-(IC1-SW)*%
G36*
X177605203Y-143124832D02*
G01*
X177621875Y-143142410D01*
X177900000Y-143500000D01*
X177900001Y-143500000D01*
X177917620Y-143522653D01*
X177916304Y-143523676D01*
X177930909Y-143537022D01*
X177948818Y-143604557D01*
X177927372Y-143671054D01*
X177896935Y-143702189D01*
X177596074Y-143917090D01*
X177530080Y-143940038D01*
X177462156Y-143923664D01*
X177413867Y-143873167D01*
X177400000Y-143816187D01*
X177400000Y-143218545D01*
X177419685Y-143151506D01*
X177472489Y-143105751D01*
X177541647Y-143095807D01*
X177605203Y-143124832D01*
G37*
%TD.AperFunction*%
%TD*%
%TA.AperFunction,Conductor*%
%TO.N,GND*%
G36*
X178500000Y-143000000D02*
G01*
X178400000Y-143200000D01*
X178000000Y-143000000D01*
X178300000Y-142650000D01*
X178500000Y-143000000D01*
G37*
%TD.AperFunction*%
%TD*%
%TA.AperFunction,Conductor*%
%TO.N,VSYS*%
G36*
X178373536Y-144132168D02*
G01*
X178418250Y-144185856D01*
X178426841Y-144255196D01*
X178397791Y-144316808D01*
X177837052Y-144957654D01*
X177778092Y-144995144D01*
X177751031Y-144998968D01*
X177750000Y-145000000D01*
X177750000Y-145276000D01*
X177747449Y-145284685D01*
X177748738Y-145293647D01*
X177737759Y-145317687D01*
X177730315Y-145343039D01*
X177723474Y-145348966D01*
X177719713Y-145357203D01*
X177697478Y-145371492D01*
X177677511Y-145388794D01*
X177666996Y-145391081D01*
X177660935Y-145394977D01*
X177626000Y-145400000D01*
X177424000Y-145400000D01*
X177356961Y-145380315D01*
X177311206Y-145327511D01*
X177300000Y-145276000D01*
X177300000Y-144524000D01*
X177319685Y-144456961D01*
X177372489Y-144411206D01*
X177424000Y-144400000D01*
X177800000Y-144400000D01*
X178239485Y-144129547D01*
X178306894Y-144111178D01*
X178373536Y-144132168D01*
G37*
%TD.AperFunction*%
%TD*%
%TA.AperFunction,Conductor*%
%TO.N,GND*%
G36*
X190943334Y-148748795D02*
G01*
X190987681Y-148777296D01*
X191580542Y-149370157D01*
X191614027Y-149431480D01*
X191609043Y-149501172D01*
X191607424Y-149505286D01*
X191597950Y-149528160D01*
X191597948Y-149528166D01*
X191559500Y-149721456D01*
X191559500Y-149721459D01*
X191559500Y-149918541D01*
X191559500Y-149918543D01*
X191559499Y-149918543D01*
X191597947Y-150111829D01*
X191597950Y-150111839D01*
X191673364Y-150293907D01*
X191673371Y-150293920D01*
X191782860Y-150457781D01*
X191782863Y-150457785D01*
X191922214Y-150597136D01*
X191922218Y-150597139D01*
X192086079Y-150706628D01*
X192086092Y-150706635D01*
X192263020Y-150779920D01*
X192268165Y-150782051D01*
X192459691Y-150820148D01*
X192487814Y-150834858D01*
X192516703Y-150848052D01*
X192518560Y-150850941D01*
X192521602Y-150852533D01*
X192537308Y-150880115D01*
X192554477Y-150906830D01*
X192555137Y-150911424D01*
X192556176Y-150913248D01*
X192559500Y-150941765D01*
X192559500Y-150975500D01*
X192539815Y-151042539D01*
X192487011Y-151088294D01*
X192435500Y-151099500D01*
X191141766Y-151099500D01*
X191074727Y-151079815D01*
X191028972Y-151027011D01*
X191020149Y-150999692D01*
X190982052Y-150808170D01*
X190982051Y-150808169D01*
X190982051Y-150808165D01*
X190971234Y-150782051D01*
X190906635Y-150626092D01*
X190906628Y-150626079D01*
X190797139Y-150462218D01*
X190797136Y-150462214D01*
X190657785Y-150322863D01*
X190657781Y-150322860D01*
X190493920Y-150213371D01*
X190493907Y-150213364D01*
X190352048Y-150154605D01*
X190297644Y-150110764D01*
X190275579Y-150044470D01*
X190275500Y-150040044D01*
X190275500Y-149365477D01*
X190295185Y-149298438D01*
X190311819Y-149277796D01*
X190812319Y-148777296D01*
X190873642Y-148743811D01*
X190943334Y-148748795D01*
G37*
%TD.AperFunction*%
%TA.AperFunction,Conductor*%
G36*
X181323039Y-129194685D02*
G01*
X181368794Y-129247489D01*
X181380000Y-129299000D01*
X181380000Y-129300000D01*
X181381000Y-129300000D01*
X181448039Y-129319685D01*
X181493794Y-129372489D01*
X181505000Y-129424000D01*
X181505000Y-129925000D01*
X181534363Y-129925000D01*
X181534377Y-129924999D01*
X181644341Y-129910521D01*
X181644342Y-129910521D01*
X181728047Y-129875850D01*
X181797517Y-129868381D01*
X181859996Y-129899656D01*
X181895648Y-129959745D01*
X181899500Y-129990411D01*
X181899500Y-130115892D01*
X181905366Y-130137785D01*
X181933608Y-130243187D01*
X181953209Y-130277136D01*
X181999500Y-130357314D01*
X182092686Y-130450500D01*
X182206814Y-130516392D01*
X182298841Y-130541050D01*
X182358500Y-130577413D01*
X182389030Y-130640260D01*
X182380736Y-130709636D01*
X182345418Y-130756672D01*
X182341645Y-130759768D01*
X182244772Y-130856641D01*
X182244769Y-130856645D01*
X182168659Y-130970550D01*
X182168652Y-130970563D01*
X182116229Y-131097125D01*
X182116226Y-131097135D01*
X182089500Y-131231496D01*
X182089500Y-131231499D01*
X182089500Y-131368501D01*
X182089500Y-131368503D01*
X182089499Y-131368503D01*
X182116226Y-131502864D01*
X182117996Y-131508697D01*
X182115377Y-131509491D01*
X182121512Y-131567310D01*
X182090150Y-131629746D01*
X182087195Y-131632804D01*
X182070000Y-131649999D01*
X182070000Y-132150000D01*
X183500000Y-132150000D01*
X183500000Y-131650000D01*
X183482805Y-131632805D01*
X183449320Y-131571482D01*
X183453771Y-131509233D01*
X183452004Y-131508697D01*
X183453768Y-131502877D01*
X183453772Y-131502870D01*
X183473794Y-131402214D01*
X183480500Y-131368503D01*
X183480500Y-131231496D01*
X183453773Y-131097135D01*
X183453772Y-131097134D01*
X183453772Y-131097130D01*
X183446473Y-131079509D01*
X183401347Y-130970563D01*
X183401340Y-130970550D01*
X183325230Y-130856645D01*
X183325227Y-130856641D01*
X183230767Y-130762181D01*
X183197282Y-130700858D01*
X183202266Y-130631166D01*
X183244138Y-130575233D01*
X183309602Y-130550816D01*
X183314937Y-130550625D01*
X183315883Y-130550500D01*
X183315892Y-130550500D01*
X183443186Y-130516392D01*
X183557314Y-130450500D01*
X183650500Y-130357314D01*
X183716392Y-130243186D01*
X183750500Y-130115892D01*
X183750500Y-129984108D01*
X183750500Y-129975981D01*
X183752176Y-129975981D01*
X183761448Y-129916495D01*
X183807825Y-129864236D01*
X183875093Y-129845347D01*
X183921078Y-129854777D01*
X184055658Y-129910521D01*
X184165622Y-129924999D01*
X184165637Y-129925000D01*
X184195000Y-129925000D01*
X184445000Y-129925000D01*
X184474363Y-129925000D01*
X184474377Y-129924999D01*
X184584341Y-129910521D01*
X184584342Y-129910521D01*
X184721175Y-129853843D01*
X184838679Y-129763679D01*
X184928843Y-129646175D01*
X184985521Y-129509342D01*
X184985521Y-129509340D01*
X184996626Y-129425000D01*
X184445000Y-129425000D01*
X184445000Y-129925000D01*
X184195000Y-129925000D01*
X184195000Y-129424000D01*
X184197550Y-129415314D01*
X184196262Y-129406353D01*
X184207240Y-129382312D01*
X184214685Y-129356961D01*
X184221525Y-129351033D01*
X184225287Y-129342797D01*
X184247521Y-129328507D01*
X184267489Y-129311206D01*
X184278003Y-129308918D01*
X184284065Y-129305023D01*
X184319000Y-129300000D01*
X184320000Y-129300000D01*
X184320000Y-129299000D01*
X184339685Y-129231961D01*
X184392489Y-129186206D01*
X184444000Y-129175000D01*
X184676446Y-129175000D01*
X184691675Y-129176500D01*
X184696200Y-129176500D01*
X185217744Y-129176500D01*
X185284783Y-129196185D01*
X185305425Y-129212819D01*
X185443640Y-129351033D01*
X185578165Y-129485558D01*
X185649763Y-129515214D01*
X185649764Y-129515215D01*
X185679420Y-129527499D01*
X185679421Y-129527499D01*
X185679423Y-129527500D01*
X185679424Y-129527500D01*
X185789024Y-129527500D01*
X185950967Y-129527500D01*
X186018006Y-129547185D01*
X186038648Y-129563819D01*
X186830403Y-130355573D01*
X188350514Y-131875684D01*
X189102627Y-132627796D01*
X189136112Y-132689119D01*
X189138946Y-132715477D01*
X189138946Y-133869246D01*
X189176371Y-133959596D01*
X189176370Y-133959596D01*
X189180889Y-133970504D01*
X189180889Y-133970505D01*
X189684181Y-134473796D01*
X189717666Y-134535119D01*
X189720500Y-134561477D01*
X189720500Y-146111356D01*
X189731025Y-146136764D01*
X189731025Y-146136768D01*
X189731027Y-146136768D01*
X189731027Y-146136769D01*
X189762442Y-146212614D01*
X189762444Y-146212616D01*
X190035181Y-146485353D01*
X190068666Y-146546676D01*
X190071500Y-146573034D01*
X190071500Y-148191133D01*
X190051815Y-148258172D01*
X190035181Y-148278814D01*
X189508846Y-148805148D01*
X189490068Y-148820561D01*
X189489329Y-148821054D01*
X188822204Y-149488181D01*
X188760881Y-149521666D01*
X188734523Y-149524500D01*
X187945198Y-149524500D01*
X187873599Y-149554158D01*
X187843939Y-149566443D01*
X187323943Y-150086441D01*
X187323932Y-150086452D01*
X187319947Y-150090436D01*
X187258620Y-150123914D01*
X187256470Y-150124361D01*
X187188168Y-150137947D01*
X187188162Y-150137949D01*
X187006092Y-150213364D01*
X187006079Y-150213371D01*
X186842218Y-150322860D01*
X186842214Y-150322863D01*
X186702863Y-150462214D01*
X186702860Y-150462218D01*
X186593371Y-150626079D01*
X186593364Y-150626092D01*
X186517950Y-150808160D01*
X186517947Y-150808170D01*
X186481965Y-150989062D01*
X186449580Y-151050973D01*
X186388864Y-151085547D01*
X186319094Y-151081806D01*
X186262423Y-151040940D01*
X186237875Y-150984268D01*
X186207990Y-150795582D01*
X186144755Y-150600968D01*
X186051859Y-150418650D01*
X186019474Y-150374077D01*
X186019474Y-150374076D01*
X185340000Y-151053553D01*
X185340000Y-151047339D01*
X185312741Y-150945606D01*
X185260080Y-150854394D01*
X185185606Y-150779920D01*
X185094394Y-150727259D01*
X184992661Y-150700000D01*
X184986446Y-150700000D01*
X185665922Y-150020524D01*
X185665921Y-150020523D01*
X185621359Y-149988147D01*
X185621350Y-149988141D01*
X185439031Y-149895244D01*
X185244417Y-149832009D01*
X185042317Y-149800000D01*
X184837683Y-149800000D01*
X184635582Y-149832009D01*
X184440968Y-149895244D01*
X184258644Y-149988143D01*
X184214077Y-150020523D01*
X184214077Y-150020524D01*
X184893554Y-150700000D01*
X184887339Y-150700000D01*
X184785606Y-150727259D01*
X184694394Y-150779920D01*
X184619920Y-150854394D01*
X184567259Y-150945606D01*
X184540000Y-151047339D01*
X184540000Y-151053553D01*
X183860524Y-150374077D01*
X183860523Y-150374077D01*
X183828143Y-150418644D01*
X183735244Y-150600968D01*
X183672010Y-150795581D01*
X183642124Y-150984269D01*
X183612194Y-151047403D01*
X183552883Y-151084334D01*
X183483020Y-151083336D01*
X183424788Y-151044726D01*
X183398034Y-150989061D01*
X183388409Y-150940674D01*
X183362051Y-150808165D01*
X183351234Y-150782051D01*
X183286635Y-150626092D01*
X183286628Y-150626079D01*
X183177139Y-150462218D01*
X183177136Y-150462214D01*
X183037785Y-150322863D01*
X183037781Y-150322860D01*
X182873920Y-150213371D01*
X182873907Y-150213364D01*
X182799016Y-150182344D01*
X182691839Y-150137950D01*
X182691829Y-150137947D01*
X182498543Y-150099500D01*
X182498541Y-150099500D01*
X182301459Y-150099500D01*
X182301457Y-150099500D01*
X182108515Y-150137879D01*
X182038923Y-150131652D01*
X182022845Y-150122561D01*
X182022250Y-150123593D01*
X181935290Y-150073387D01*
X181935289Y-150073386D01*
X181935288Y-150073386D01*
X181846144Y-150049500D01*
X181846143Y-150049500D01*
X181256545Y-150049500D01*
X181189506Y-150029815D01*
X181168864Y-150013181D01*
X180687424Y-149531741D01*
X180682894Y-149523446D01*
X180675364Y-149517733D01*
X180666419Y-149493274D01*
X180653939Y-149470418D01*
X180654613Y-149460989D01*
X180651367Y-149452113D01*
X180657065Y-149426703D01*
X180658923Y-149400726D01*
X180664994Y-149391344D01*
X180666656Y-149383937D01*
X180679241Y-149369331D01*
X180687987Y-149355819D01*
X180859735Y-149186258D01*
X180883301Y-149173584D01*
X180904906Y-149157810D01*
X180916342Y-149155816D01*
X180921272Y-149153166D01*
X180928374Y-149153719D01*
X180946850Y-149150499D01*
X181054864Y-149150499D01*
X181054879Y-149150497D01*
X181054882Y-149150497D01*
X181079987Y-149147586D01*
X181079988Y-149147585D01*
X181079991Y-149147585D01*
X181182765Y-149102206D01*
X181262206Y-149022765D01*
X181262207Y-149022760D01*
X181268699Y-149013286D01*
X181270589Y-149014581D01*
X181305674Y-148973039D01*
X181372458Y-148952506D01*
X181439742Y-148971339D01*
X181461711Y-148988815D01*
X181483387Y-149010491D01*
X181586114Y-149069801D01*
X181700691Y-149100502D01*
X181700694Y-149100502D01*
X181819306Y-149100502D01*
X181819309Y-149100502D01*
X181933886Y-149069801D01*
X182036613Y-149010491D01*
X182120489Y-148926615D01*
X182179799Y-148823888D01*
X182210500Y-148709311D01*
X182210500Y-148709308D01*
X182210725Y-148708469D01*
X182247090Y-148648808D01*
X182309937Y-148618279D01*
X182379313Y-148626574D01*
X182433190Y-148671059D01*
X182454465Y-148737611D01*
X182454500Y-148740562D01*
X182454500Y-149276007D01*
X182459197Y-149319686D01*
X182470397Y-149371174D01*
X182472890Y-149381372D01*
X182472891Y-149381375D01*
X182515899Y-149462083D01*
X182515901Y-149462086D01*
X182561660Y-149514895D01*
X182578166Y-149531741D01*
X182579246Y-149532843D01*
X182579247Y-149532844D01*
X182579249Y-149532845D01*
X182657822Y-149576796D01*
X182659063Y-149577490D01*
X182726102Y-149597175D01*
X182784000Y-149605500D01*
X182784004Y-149605500D01*
X183935991Y-149605500D01*
X183936000Y-149605500D01*
X183979684Y-149600803D01*
X184008875Y-149594452D01*
X184031174Y-149589602D01*
X184031190Y-149589598D01*
X184031195Y-149589597D01*
X184041373Y-149587110D01*
X184122085Y-149544100D01*
X184174889Y-149498345D01*
X184192843Y-149480754D01*
X184237490Y-149400937D01*
X184257175Y-149333898D01*
X184265500Y-149276000D01*
X184265500Y-148524000D01*
X184260803Y-148480316D01*
X184256024Y-148458350D01*
X184249602Y-148428825D01*
X184249348Y-148427789D01*
X184247110Y-148418627D01*
X184204100Y-148337915D01*
X184158345Y-148285111D01*
X184158339Y-148285104D01*
X184140757Y-148267160D01*
X184140756Y-148267159D01*
X184140754Y-148267157D01*
X184140752Y-148267156D01*
X184140750Y-148267154D01*
X184060940Y-148222511D01*
X184060927Y-148222506D01*
X184025563Y-148212122D01*
X184003336Y-148197837D01*
X183979297Y-148186859D01*
X183974401Y-148179241D01*
X183966786Y-148174347D01*
X183955810Y-148150312D01*
X183941523Y-148128081D01*
X183939622Y-148114866D01*
X183937762Y-148110791D01*
X183936500Y-148093146D01*
X183936500Y-148062844D01*
X185720000Y-148062844D01*
X185726401Y-148122372D01*
X185726403Y-148122379D01*
X185776645Y-148257086D01*
X185776649Y-148257093D01*
X185862809Y-148372187D01*
X185862812Y-148372190D01*
X185977906Y-148458350D01*
X185977913Y-148458354D01*
X186112620Y-148508596D01*
X186112627Y-148508598D01*
X186172155Y-148514999D01*
X186172172Y-148515000D01*
X186320000Y-148515000D01*
X186820000Y-148515000D01*
X186967828Y-148515000D01*
X186967844Y-148514999D01*
X187027372Y-148508598D01*
X187027379Y-148508596D01*
X187162086Y-148458354D01*
X187162093Y-148458350D01*
X187277187Y-148372190D01*
X187277190Y-148372187D01*
X187363350Y-148257093D01*
X187363354Y-148257086D01*
X187413596Y-148122379D01*
X187413598Y-148122372D01*
X187419999Y-148062844D01*
X187420000Y-148062827D01*
X187420000Y-147915000D01*
X186820000Y-147915000D01*
X186820000Y-148515000D01*
X186320000Y-148515000D01*
X186320000Y-147915000D01*
X185720000Y-147915000D01*
X185720000Y-148062844D01*
X183936500Y-148062844D01*
X183936500Y-147135807D01*
X183956185Y-147068768D01*
X184008989Y-147023013D01*
X184078147Y-147013069D01*
X184134814Y-147036542D01*
X184143913Y-147043354D01*
X184278620Y-147093596D01*
X184278627Y-147093598D01*
X184338155Y-147099999D01*
X184338172Y-147100000D01*
X184911000Y-147100000D01*
X184911000Y-146550000D01*
X183886000Y-146550000D01*
X183886000Y-146647844D01*
X183887575Y-146662484D01*
X183875171Y-146731243D01*
X183827561Y-146782381D01*
X183761840Y-146799156D01*
X183761840Y-146799500D01*
X183760493Y-146799500D01*
X183759862Y-146799661D01*
X183757455Y-146799500D01*
X183755748Y-146799500D01*
X181716252Y-146799500D01*
X181716247Y-146799500D01*
X181657770Y-146811131D01*
X181657769Y-146811132D01*
X181591447Y-146855447D01*
X181540348Y-146931923D01*
X181538256Y-146930525D01*
X181505204Y-146971528D01*
X181438906Y-146993583D01*
X181371209Y-146976293D01*
X181323607Y-146925149D01*
X181310499Y-146869664D01*
X181310499Y-145905136D01*
X181310084Y-145901554D01*
X181307586Y-145880012D01*
X181307585Y-145880010D01*
X181307585Y-145880009D01*
X181262206Y-145777235D01*
X181182765Y-145697794D01*
X181128929Y-145674023D01*
X181079992Y-145652415D01*
X181054865Y-145649500D01*
X180765143Y-145649500D01*
X180765117Y-145649502D01*
X180740013Y-145652413D01*
X180691071Y-145674023D01*
X180645955Y-145693944D01*
X180635086Y-145698743D01*
X180565807Y-145707814D01*
X180534914Y-145698743D01*
X180532765Y-145697794D01*
X180429991Y-145652415D01*
X180404865Y-145649500D01*
X180115143Y-145649500D01*
X180115117Y-145649502D01*
X180090012Y-145652413D01*
X180090010Y-145652414D01*
X180086938Y-145653771D01*
X180083250Y-145654253D01*
X180081011Y-145654863D01*
X180080927Y-145654557D01*
X180017660Y-145662840D01*
X179954476Y-145633015D01*
X179929446Y-145602297D01*
X179928410Y-145600502D01*
X179928409Y-145600500D01*
X179890470Y-145534788D01*
X179375212Y-145019530D01*
X179375211Y-145019529D01*
X179375208Y-145019527D01*
X179295290Y-144973387D01*
X179295283Y-144973384D01*
X179280786Y-144969499D01*
X179280786Y-144969500D01*
X179243416Y-144959487D01*
X179206144Y-144949500D01*
X179206143Y-144949500D01*
X178390515Y-144949500D01*
X178373127Y-144944394D01*
X178355006Y-144944307D01*
X178340299Y-144934754D01*
X178323476Y-144929815D01*
X178311609Y-144916120D01*
X178296411Y-144906249D01*
X178289202Y-144890261D01*
X178277721Y-144877011D01*
X178275142Y-144859075D01*
X178267693Y-144842554D01*
X178270272Y-144825209D01*
X178267777Y-144807853D01*
X178275305Y-144791367D01*
X178277971Y-144773445D01*
X178296564Y-144744816D01*
X178296802Y-144744297D01*
X178297195Y-144743846D01*
X178439488Y-144581224D01*
X178445113Y-144575213D01*
X178558510Y-144461818D01*
X178619833Y-144428334D01*
X178646190Y-144425500D01*
X180379750Y-144425500D01*
X180379751Y-144425499D01*
X180408989Y-144419683D01*
X180438227Y-144413868D01*
X180438227Y-144413867D01*
X180438231Y-144413867D01*
X180448898Y-144406738D01*
X180515572Y-144385860D01*
X180582953Y-144404342D01*
X180629645Y-144456319D01*
X180640729Y-144493655D01*
X180645931Y-144533171D01*
X180645932Y-144533173D01*
X180695935Y-144640404D01*
X180779596Y-144724065D01*
X180886827Y-144774068D01*
X180935683Y-144780500D01*
X180935684Y-144780500D01*
X181384317Y-144780500D01*
X181400601Y-144778356D01*
X181433173Y-144774068D01*
X181540404Y-144724065D01*
X181624065Y-144640404D01*
X181674068Y-144533173D01*
X181680500Y-144484316D01*
X181680500Y-144135684D01*
X181680359Y-144134616D01*
X181674166Y-144087573D01*
X181674068Y-144086827D01*
X181624065Y-143979596D01*
X181540404Y-143895935D01*
X181532733Y-143888264D01*
X181535561Y-143885435D01*
X181504843Y-143847023D01*
X181497635Y-143777526D01*
X181529143Y-143715165D01*
X181532903Y-143711906D01*
X181532733Y-143711736D01*
X181577719Y-143666750D01*
X181624065Y-143620404D01*
X181674068Y-143513173D01*
X181680500Y-143464316D01*
X181680500Y-143115684D01*
X181674068Y-143066827D01*
X181632135Y-142976903D01*
X181621644Y-142907828D01*
X181650164Y-142844044D01*
X181708640Y-142805804D01*
X181744518Y-142800500D01*
X183755750Y-142800500D01*
X183755751Y-142800499D01*
X183770568Y-142797552D01*
X183814229Y-142788868D01*
X183814229Y-142788867D01*
X183814231Y-142788867D01*
X183880552Y-142744552D01*
X183924867Y-142678231D01*
X183924867Y-142678229D01*
X183924868Y-142678229D01*
X183936499Y-142619752D01*
X183936500Y-142619750D01*
X183936500Y-141380249D01*
X183936499Y-141380247D01*
X183924868Y-141321770D01*
X183924867Y-141321769D01*
X183880552Y-141255447D01*
X183814230Y-141211132D01*
X183814231Y-141211132D01*
X183794805Y-141207268D01*
X183732895Y-141174881D01*
X183698323Y-141114164D01*
X183695000Y-141085651D01*
X183695000Y-139983006D01*
X183694998Y-139983005D01*
X183538307Y-140028528D01*
X183538304Y-140028530D01*
X183397491Y-140111806D01*
X183397483Y-140111812D01*
X183281807Y-140227488D01*
X183277048Y-140233624D01*
X183220405Y-140274529D01*
X183161198Y-140280326D01*
X183159153Y-140280028D01*
X183155528Y-140279500D01*
X182794472Y-140279500D01*
X182750325Y-140285932D01*
X182726828Y-140289355D01*
X182622488Y-140340364D01*
X182596340Y-140366512D01*
X182535016Y-140399996D01*
X182465325Y-140395010D01*
X182420979Y-140366510D01*
X182390404Y-140335935D01*
X182351475Y-140317782D01*
X182283173Y-140285932D01*
X182283171Y-140285931D01*
X182283172Y-140285931D01*
X182234317Y-140279500D01*
X182234316Y-140279500D01*
X181885684Y-140279500D01*
X181885683Y-140279500D01*
X181836828Y-140285931D01*
X181729595Y-140335935D01*
X181638264Y-140427267D01*
X181635440Y-140424443D01*
X181596958Y-140455183D01*
X181527458Y-140462352D01*
X181465114Y-140430808D01*
X181461901Y-140427101D01*
X181461736Y-140427267D01*
X181370404Y-140335935D01*
X181331475Y-140317782D01*
X181263173Y-140285932D01*
X181263171Y-140285931D01*
X181263172Y-140285931D01*
X181214317Y-140279500D01*
X181214316Y-140279500D01*
X180960477Y-140279500D01*
X180931036Y-140270855D01*
X180901050Y-140264332D01*
X180896034Y-140260577D01*
X180893438Y-140259815D01*
X180872796Y-140243181D01*
X180827249Y-140197634D01*
X180793764Y-140136311D01*
X180795855Y-140075352D01*
X180797145Y-140070911D01*
X180798790Y-140050000D01*
X180270000Y-140050000D01*
X180233681Y-140086319D01*
X180231341Y-140083979D01*
X180197511Y-140113294D01*
X180146000Y-140124500D01*
X179894000Y-140124500D01*
X179826961Y-140104815D01*
X179781206Y-140052011D01*
X179770000Y-140000500D01*
X179770000Y-139550000D01*
X180270000Y-139550000D01*
X180798790Y-139550000D01*
X184795496Y-139550000D01*
X185350000Y-139550000D01*
X185350000Y-139021210D01*
X185349999Y-139021209D01*
X185329087Y-139022854D01*
X185329081Y-139022855D01*
X185173809Y-139067966D01*
X185173804Y-139067968D01*
X185034625Y-139150278D01*
X185034616Y-139150285D01*
X184920285Y-139264616D01*
X184920278Y-139264625D01*
X184837968Y-139403804D01*
X184795496Y-139550000D01*
X180798790Y-139550000D01*
X180797145Y-139529089D01*
X180752031Y-139373804D01*
X180665748Y-139227907D01*
X180668193Y-139226460D01*
X180647579Y-139173974D01*
X180656531Y-139115544D01*
X180700521Y-139009342D01*
X180700521Y-139009340D01*
X180711626Y-138925000D01*
X180270000Y-138925000D01*
X180270000Y-139550000D01*
X179770000Y-139550000D01*
X179770000Y-138984000D01*
X179789685Y-138916961D01*
X179841154Y-138871825D01*
X179968516Y-138811825D01*
X179982543Y-138809637D01*
X179995004Y-138802834D01*
X180021362Y-138800000D01*
X180035000Y-138800000D01*
X180035000Y-138799000D01*
X180054685Y-138731961D01*
X180107489Y-138686206D01*
X180159000Y-138675000D01*
X180763370Y-138675000D01*
X180923022Y-138649713D01*
X181107158Y-138589883D01*
X181279652Y-138501993D01*
X181279658Y-138501989D01*
X181323650Y-138470028D01*
X181389456Y-138446548D01*
X181409792Y-138447057D01*
X181437155Y-138449999D01*
X181437172Y-138450000D01*
X181770000Y-138450000D01*
X182070000Y-138450000D01*
X182188674Y-138450000D01*
X182255713Y-138469685D01*
X182301468Y-138522489D01*
X182311412Y-138591647D01*
X182308450Y-138606088D01*
X182274500Y-138732791D01*
X182274500Y-138867209D01*
X182293441Y-138937897D01*
X182309290Y-138997047D01*
X182309291Y-138997048D01*
X182376495Y-139113450D01*
X182376497Y-139113453D01*
X182376498Y-139113454D01*
X182471546Y-139208502D01*
X182471547Y-139208503D01*
X182471549Y-139208504D01*
X182522952Y-139238181D01*
X182587954Y-139275710D01*
X182717791Y-139310500D01*
X182717794Y-139310500D01*
X182852206Y-139310500D01*
X182852209Y-139310500D01*
X182982046Y-139275710D01*
X183098454Y-139208502D01*
X183193502Y-139113454D01*
X183260710Y-138997046D01*
X183295500Y-138867209D01*
X183295500Y-138732791D01*
X183261551Y-138606092D01*
X183263214Y-138536244D01*
X183302376Y-138478381D01*
X183366605Y-138450877D01*
X183381326Y-138450000D01*
X183500000Y-138450000D01*
X183500000Y-137950000D01*
X182070000Y-137950000D01*
X182070000Y-138450000D01*
X181770000Y-138450000D01*
X181770000Y-137650000D01*
X182070000Y-137650000D01*
X183500000Y-137650000D01*
X183500000Y-137150000D01*
X183167155Y-137150000D01*
X183107627Y-137156401D01*
X183107620Y-137156403D01*
X182972913Y-137206645D01*
X182972911Y-137206647D01*
X182859311Y-137291688D01*
X182793847Y-137316105D01*
X182725574Y-137301254D01*
X182710689Y-137291688D01*
X182597088Y-137206647D01*
X182597086Y-137206645D01*
X182462379Y-137156403D01*
X182462372Y-137156401D01*
X182402844Y-137150000D01*
X182070000Y-137150000D01*
X182070000Y-137650000D01*
X181770000Y-137650000D01*
X181770000Y-137085865D01*
X181771317Y-137081377D01*
X181771262Y-137080991D01*
X181771735Y-137079953D01*
X181788980Y-137021224D01*
X181774887Y-136977849D01*
X181774884Y-136977843D01*
X181699960Y-136830795D01*
X181687064Y-136762126D01*
X181713340Y-136697385D01*
X181770447Y-136657128D01*
X181810445Y-136650500D01*
X182374750Y-136650500D01*
X182374751Y-136650499D01*
X182396939Y-136646086D01*
X182433228Y-136638868D01*
X182433229Y-136638867D01*
X182433231Y-136638867D01*
X182433231Y-136638866D01*
X182442709Y-136634941D01*
X182490166Y-136625500D01*
X183079834Y-136625500D01*
X183127291Y-136634941D01*
X183136771Y-136638868D01*
X183195247Y-136650499D01*
X183195250Y-136650500D01*
X183759555Y-136650500D01*
X183826594Y-136670185D01*
X183872349Y-136722989D01*
X183882293Y-136792147D01*
X183870040Y-136830795D01*
X183795115Y-136977843D01*
X183795112Y-136977849D01*
X183780180Y-137023806D01*
X183799798Y-137078784D01*
X183800000Y-137085865D01*
X183800000Y-138450000D01*
X184132828Y-138450000D01*
X184132841Y-138449999D01*
X184160205Y-138447057D01*
X184228965Y-138459461D01*
X184246347Y-138470028D01*
X184290336Y-138501987D01*
X184462841Y-138589883D01*
X184646977Y-138649713D01*
X184838198Y-138680000D01*
X185031802Y-138680000D01*
X185223022Y-138649713D01*
X185407158Y-138589883D01*
X185579652Y-138501993D01*
X185579665Y-138501985D01*
X185610806Y-138479360D01*
X185610807Y-138479359D01*
X185080739Y-137949292D01*
X185135712Y-137934563D01*
X185254287Y-137866104D01*
X185351104Y-137769287D01*
X185419563Y-137650712D01*
X185434292Y-137595740D01*
X185964358Y-138125806D01*
X186006271Y-138122508D01*
X186074648Y-138136872D01*
X186124405Y-138185923D01*
X186140000Y-138246123D01*
X186140000Y-138284624D01*
X186140001Y-138284647D01*
X186142854Y-138320910D01*
X186187969Y-138476196D01*
X186270278Y-138615374D01*
X186270285Y-138615383D01*
X186273516Y-138618614D01*
X186307001Y-138679937D01*
X186302017Y-138749629D01*
X186260145Y-138805562D01*
X186253782Y-138809187D01*
X186254097Y-138809658D01*
X186243940Y-138816444D01*
X186079942Y-138980443D01*
X186079939Y-138980446D01*
X186051872Y-139008511D01*
X185990548Y-139041994D01*
X185929602Y-139039904D01*
X185870920Y-139022856D01*
X185870908Y-139022854D01*
X185850000Y-139021209D01*
X185850000Y-139550000D01*
X185855611Y-139555611D01*
X185903539Y-139569685D01*
X185949294Y-139622489D01*
X185960500Y-139674000D01*
X185960500Y-139926000D01*
X185940815Y-139993039D01*
X185888011Y-140038794D01*
X185836500Y-140050000D01*
X184795496Y-140050000D01*
X184810138Y-140100401D01*
X184809938Y-140170270D01*
X184771995Y-140228940D01*
X184708357Y-140257783D01*
X184639227Y-140247641D01*
X184603380Y-140222676D01*
X184492516Y-140111812D01*
X184492508Y-140111806D01*
X184351695Y-140028530D01*
X184351692Y-140028528D01*
X184195001Y-139983005D01*
X184195000Y-139983006D01*
X184195000Y-141616991D01*
X184351697Y-141571468D01*
X184492508Y-141488193D01*
X184492516Y-141488187D01*
X184608187Y-141372516D01*
X184608196Y-141372504D01*
X184644345Y-141311380D01*
X184695413Y-141263696D01*
X184751077Y-141250500D01*
X184794306Y-141250500D01*
X184794309Y-141250500D01*
X184908886Y-141219799D01*
X185011613Y-141160489D01*
X185022600Y-141149501D01*
X185083918Y-141116018D01*
X185153610Y-141121000D01*
X185197960Y-141149501D01*
X185223341Y-141174881D01*
X185231684Y-141183224D01*
X185340513Y-141233972D01*
X185390099Y-141240500D01*
X185699521Y-141240499D01*
X185766560Y-141260183D01*
X185787202Y-141276818D01*
X186185210Y-141674826D01*
X186218695Y-141736149D01*
X186213711Y-141805841D01*
X186185210Y-141850188D01*
X186099513Y-141935884D01*
X186099511Y-141935887D01*
X186040201Y-142038614D01*
X186009500Y-142153191D01*
X186009500Y-142271809D01*
X186040201Y-142386386D01*
X186099511Y-142489113D01*
X186183387Y-142572989D01*
X186286114Y-142632299D01*
X186400691Y-142663000D01*
X186400694Y-142663000D01*
X186433169Y-142663000D01*
X186500208Y-142682685D01*
X186545963Y-142735489D01*
X186555907Y-142804647D01*
X186532359Y-142861413D01*
X186527076Y-142868454D01*
X186475935Y-142919596D01*
X186454951Y-142964595D01*
X186447211Y-142974913D01*
X186429139Y-142988412D01*
X186414231Y-143005344D01*
X186401567Y-143009007D01*
X186391235Y-143016726D01*
X186369625Y-143018249D01*
X186348021Y-143024500D01*
X186247066Y-143024500D01*
X186180027Y-143004815D01*
X186134272Y-142952011D01*
X186125449Y-142924691D01*
X186124868Y-142921770D01*
X186124867Y-142921769D01*
X186080552Y-142855447D01*
X186014230Y-142811132D01*
X186014229Y-142811131D01*
X185955752Y-142799500D01*
X185955748Y-142799500D01*
X184366252Y-142799500D01*
X184366247Y-142799500D01*
X184307770Y-142811131D01*
X184307769Y-142811132D01*
X184241447Y-142855447D01*
X184197132Y-142921769D01*
X184197131Y-142921770D01*
X184185500Y-142980247D01*
X184185500Y-143619752D01*
X184197131Y-143678229D01*
X184197132Y-143678230D01*
X184232465Y-143731109D01*
X184253343Y-143797786D01*
X184234859Y-143865166D01*
X184232465Y-143868891D01*
X184197132Y-143921769D01*
X184197131Y-143921770D01*
X184185500Y-143980247D01*
X184185500Y-144619752D01*
X184197131Y-144678229D01*
X184197132Y-144678231D01*
X184216094Y-144706608D01*
X184236973Y-144773285D01*
X184218489Y-144840665D01*
X184166511Y-144887356D01*
X184112993Y-144899500D01*
X183500538Y-144899500D01*
X183438537Y-144882886D01*
X183433890Y-144880203D01*
X183433887Y-144880201D01*
X183405241Y-144872525D01*
X183319309Y-144849500D01*
X183200691Y-144849500D01*
X183086114Y-144880201D01*
X183086112Y-144880201D01*
X183086112Y-144880202D01*
X182983387Y-144939511D01*
X182983384Y-144939513D01*
X182899513Y-145023384D01*
X182899511Y-145023387D01*
X182894634Y-145031835D01*
X182840201Y-145126114D01*
X182809500Y-145240691D01*
X182809500Y-145359309D01*
X182840201Y-145473886D01*
X182899511Y-145576613D01*
X182983387Y-145660489D01*
X183086114Y-145719799D01*
X183200691Y-145750500D01*
X183200694Y-145750500D01*
X183319306Y-145750500D01*
X183319309Y-145750500D01*
X183433886Y-145719799D01*
X183438537Y-145717114D01*
X183500538Y-145700500D01*
X183785466Y-145700500D01*
X183852505Y-145720185D01*
X183898260Y-145772989D01*
X183908204Y-145842147D01*
X183901648Y-145867832D01*
X183892403Y-145892617D01*
X183892401Y-145892627D01*
X183886000Y-145952155D01*
X183886000Y-146050000D01*
X185037000Y-146050000D01*
X185104039Y-146069685D01*
X185149794Y-146122489D01*
X185161000Y-146174000D01*
X185161000Y-146300000D01*
X185287000Y-146300000D01*
X185354039Y-146319685D01*
X185399794Y-146372489D01*
X185411000Y-146424000D01*
X185411000Y-147100000D01*
X185599927Y-147100000D01*
X185666966Y-147119685D01*
X185712721Y-147172489D01*
X185723216Y-147237257D01*
X185720000Y-147267158D01*
X185720000Y-147415000D01*
X187420000Y-147415000D01*
X187420000Y-147267172D01*
X187419999Y-147267155D01*
X187413598Y-147207627D01*
X187413596Y-147207620D01*
X187363354Y-147072913D01*
X187363350Y-147072906D01*
X187277190Y-146957812D01*
X187170188Y-146877709D01*
X187167451Y-146874053D01*
X187163297Y-146872156D01*
X187146705Y-146846338D01*
X187128318Y-146821775D01*
X187127302Y-146816147D01*
X187125523Y-146813378D01*
X187120500Y-146778443D01*
X187120500Y-146685543D01*
X187140185Y-146618504D01*
X187192989Y-146572749D01*
X187262147Y-146562805D01*
X187325703Y-146591830D01*
X187332181Y-146597862D01*
X187579789Y-146845470D01*
X187579790Y-146845471D01*
X187579792Y-146845472D01*
X187597071Y-146855448D01*
X187659713Y-146891614D01*
X187748857Y-146915500D01*
X187748865Y-146915500D01*
X187756917Y-146916561D01*
X187756648Y-146918602D01*
X187813120Y-146935185D01*
X187851174Y-146973686D01*
X187860071Y-146987893D01*
X187861133Y-146993231D01*
X187897477Y-147047623D01*
X187898456Y-147049186D01*
X187907433Y-147081138D01*
X187917343Y-147112786D01*
X187916840Y-147114618D01*
X187917355Y-147116451D01*
X187907633Y-147148181D01*
X187898859Y-147180166D01*
X187896899Y-147183215D01*
X187896887Y-147183255D01*
X187896857Y-147183279D01*
X187896465Y-147183891D01*
X187861132Y-147236769D01*
X187861131Y-147236770D01*
X187849500Y-147295247D01*
X187849500Y-148034752D01*
X187861131Y-148093229D01*
X187861132Y-148093230D01*
X187905447Y-148159552D01*
X187971769Y-148203867D01*
X187971770Y-148203868D01*
X188030247Y-148215499D01*
X188030250Y-148215500D01*
X188030252Y-148215500D01*
X188769750Y-148215500D01*
X188769751Y-148215499D01*
X188786730Y-148212122D01*
X188828229Y-148203868D01*
X188828229Y-148203867D01*
X188828231Y-148203867D01*
X188894552Y-148159552D01*
X188938867Y-148093231D01*
X188938867Y-148093229D01*
X188938868Y-148093229D01*
X188947552Y-148049568D01*
X188950500Y-148034748D01*
X188950500Y-147555477D01*
X188970185Y-147488438D01*
X188986819Y-147467796D01*
X189097949Y-147356666D01*
X189259558Y-147195058D01*
X189259558Y-147195056D01*
X189259560Y-147195055D01*
X189288107Y-147126133D01*
X189301500Y-147093800D01*
X189301500Y-146984200D01*
X189301500Y-144546964D01*
X189321185Y-144479925D01*
X189337819Y-144459283D01*
X189348937Y-144448165D01*
X189370489Y-144426613D01*
X189429799Y-144323886D01*
X189460500Y-144209309D01*
X189460500Y-144090691D01*
X189429799Y-143976114D01*
X189370489Y-143873387D01*
X189286613Y-143789511D01*
X189183886Y-143730201D01*
X189069309Y-143699500D01*
X188950691Y-143699500D01*
X188836114Y-143730201D01*
X188836112Y-143730201D01*
X188836112Y-143730202D01*
X188733387Y-143789511D01*
X188733384Y-143789513D01*
X188649513Y-143873384D01*
X188649511Y-143873387D01*
X188590200Y-143976114D01*
X188587093Y-143983618D01*
X188585238Y-143982849D01*
X188580895Y-143989972D01*
X188575526Y-144008373D01*
X188563083Y-144019190D01*
X188554502Y-144033266D01*
X188537261Y-144041639D01*
X188522797Y-144054214D01*
X188506482Y-144056587D01*
X188491652Y-144063790D01*
X188472621Y-144061512D01*
X188453655Y-144064272D01*
X188438646Y-144057447D01*
X188422278Y-144055489D01*
X188407499Y-144043284D01*
X188390052Y-144035351D01*
X188377017Y-144018112D01*
X188368404Y-144010999D01*
X188366895Y-144008716D01*
X188362302Y-144001594D01*
X188324065Y-143919596D01*
X188282795Y-143878326D01*
X188275626Y-143867211D01*
X188269324Y-143845878D01*
X188258665Y-143826358D01*
X188259618Y-143813024D01*
X188255831Y-143800204D01*
X188262062Y-143778851D01*
X188263649Y-143756666D01*
X188272602Y-143742734D01*
X188275405Y-143733132D01*
X188283039Y-143726494D01*
X188292150Y-143712319D01*
X188304969Y-143699500D01*
X188324065Y-143680404D01*
X188374068Y-143573173D01*
X188380500Y-143524316D01*
X188380500Y-143075684D01*
X188374068Y-143026827D01*
X188324065Y-142919596D01*
X188240404Y-142835935D01*
X188240401Y-142835933D01*
X188232622Y-142830487D01*
X188188996Y-142775911D01*
X188181802Y-142706413D01*
X188213323Y-142644058D01*
X188216033Y-142641260D01*
X188229215Y-142628079D01*
X188272707Y-142529580D01*
X188275500Y-142505505D01*
X188275499Y-141919496D01*
X188272707Y-141895420D01*
X188233154Y-141805841D01*
X188229218Y-141796926D01*
X188229216Y-141796923D01*
X188229215Y-141796921D01*
X188202304Y-141770010D01*
X188168819Y-141708687D01*
X188173803Y-141638995D01*
X188215675Y-141583062D01*
X188242534Y-141567767D01*
X188283784Y-141550681D01*
X188283786Y-141550680D01*
X188406509Y-141456510D01*
X188406510Y-141456509D01*
X188500680Y-141333786D01*
X188500683Y-141333780D01*
X188559877Y-141190871D01*
X188559879Y-141190866D01*
X188575000Y-141076011D01*
X188575000Y-140962500D01*
X188024000Y-140962500D01*
X188015314Y-140959949D01*
X188006353Y-140961238D01*
X187982312Y-140950259D01*
X187956961Y-140942815D01*
X187951033Y-140935974D01*
X187942797Y-140932213D01*
X187928507Y-140909978D01*
X187911206Y-140890011D01*
X187908918Y-140879496D01*
X187905023Y-140873435D01*
X187900000Y-140838500D01*
X187900000Y-140787500D01*
X187899499Y-140787500D01*
X187832460Y-140767815D01*
X187786705Y-140715011D01*
X187775499Y-140663500D01*
X187775499Y-140612500D01*
X188075000Y-140612500D01*
X188574999Y-140612500D01*
X188574999Y-140498986D01*
X188559881Y-140384140D01*
X188559877Y-140384128D01*
X188500683Y-140241219D01*
X188500680Y-140241213D01*
X188406510Y-140118490D01*
X188406509Y-140118489D01*
X188283786Y-140024319D01*
X188283780Y-140024316D01*
X188140868Y-139965121D01*
X188075000Y-139956448D01*
X188075000Y-140612500D01*
X187775499Y-140612500D01*
X187775499Y-140494503D01*
X187775499Y-140494496D01*
X187772707Y-140470420D01*
X187771876Y-140468538D01*
X187735566Y-140386303D01*
X187725000Y-140336217D01*
X187725000Y-139956450D01*
X187712563Y-139945544D01*
X187704591Y-139945043D01*
X187699864Y-139941567D01*
X187694067Y-139940663D01*
X187672034Y-139921105D01*
X187648300Y-139903654D01*
X187645150Y-139897240D01*
X187641814Y-139894279D01*
X187631120Y-139872823D01*
X187628817Y-139866808D01*
X187608054Y-139789318D01*
X187581642Y-139743573D01*
X187578133Y-139734404D01*
X187576094Y-139708972D01*
X187570078Y-139684175D01*
X187573348Y-139674724D01*
X187572550Y-139664758D01*
X187584584Y-139642261D01*
X187592930Y-139618148D01*
X187600790Y-139611966D01*
X187605507Y-139603149D01*
X187627793Y-139590729D01*
X187647850Y-139574957D01*
X187658499Y-139573619D01*
X187666540Y-139569139D01*
X187684951Y-139570296D01*
X187710123Y-139567135D01*
X187735683Y-139570500D01*
X187735684Y-139570500D01*
X188084317Y-139570500D01*
X188109876Y-139567135D01*
X188133173Y-139564068D01*
X188240404Y-139514065D01*
X188324065Y-139430404D01*
X188374068Y-139323173D01*
X188380500Y-139274316D01*
X188380500Y-138825684D01*
X188379283Y-138816443D01*
X188374068Y-138776828D01*
X188374068Y-138776827D01*
X188324065Y-138669596D01*
X188275684Y-138621215D01*
X188242200Y-138559893D01*
X188247184Y-138490201D01*
X188275684Y-138445855D01*
X188303224Y-138418316D01*
X188353972Y-138309487D01*
X188360500Y-138259901D01*
X188360499Y-137840100D01*
X188353972Y-137790513D01*
X188303224Y-137681684D01*
X188218316Y-137596776D01*
X188218315Y-137596775D01*
X188209429Y-137590553D01*
X188211692Y-137587321D01*
X188174606Y-137554617D01*
X188157225Y-137509096D01*
X188155500Y-137498861D01*
X188155500Y-137475200D01*
X188148775Y-137458966D01*
X188146440Y-137445109D01*
X188148978Y-137423811D01*
X188146685Y-137402487D01*
X188153030Y-137389810D01*
X188154708Y-137375731D01*
X188168358Y-137359185D01*
X188177958Y-137340007D01*
X188190149Y-137332772D01*
X188199173Y-137321836D01*
X188219602Y-137315296D01*
X188238046Y-137304353D01*
X188263965Y-137301096D01*
X188265717Y-137300536D01*
X188266583Y-137300767D01*
X188268715Y-137300500D01*
X188494750Y-137300500D01*
X188494751Y-137300499D01*
X188509568Y-137297552D01*
X188553229Y-137288868D01*
X188553229Y-137288867D01*
X188553231Y-137288867D01*
X188607394Y-137252676D01*
X188629707Y-137237767D01*
X188632272Y-137241607D01*
X188671183Y-137219895D01*
X188730741Y-137221038D01*
X188840691Y-137250500D01*
X188840694Y-137250500D01*
X188959306Y-137250500D01*
X188959309Y-137250500D01*
X189073886Y-137219799D01*
X189176613Y-137160489D01*
X189260489Y-137076613D01*
X189319799Y-136973886D01*
X189350500Y-136859309D01*
X189350500Y-136740691D01*
X189319799Y-136626114D01*
X189260489Y-136523387D01*
X189176613Y-136439511D01*
X189073886Y-136380201D01*
X188959309Y-136349500D01*
X188840691Y-136349500D01*
X188726114Y-136380201D01*
X188726113Y-136380201D01*
X188726111Y-136380202D01*
X188675310Y-136409532D01*
X188607410Y-136426004D01*
X188565946Y-136412340D01*
X188564511Y-136415806D01*
X188553226Y-136411131D01*
X188494752Y-136399500D01*
X188494748Y-136399500D01*
X186805252Y-136399500D01*
X186805247Y-136399500D01*
X186746770Y-136411131D01*
X186746769Y-136411132D01*
X186680447Y-136455447D01*
X186636132Y-136521769D01*
X186636131Y-136521770D01*
X186624500Y-136580247D01*
X186624500Y-137119749D01*
X186628445Y-137139584D01*
X186622216Y-137209176D01*
X186579352Y-137264352D01*
X186541424Y-137282849D01*
X186523806Y-137287967D01*
X186523804Y-137287968D01*
X186384625Y-137370278D01*
X186384614Y-137370286D01*
X186369445Y-137385456D01*
X186308121Y-137418940D01*
X186238430Y-137413954D01*
X186182497Y-137372081D01*
X186159293Y-137317170D01*
X186134714Y-137161978D01*
X186134713Y-137161977D01*
X186074883Y-136977841D01*
X185986991Y-136805343D01*
X185964359Y-136774192D01*
X185964358Y-136774192D01*
X185434292Y-137304259D01*
X185419563Y-137249288D01*
X185351104Y-137130713D01*
X185254287Y-137033896D01*
X185135712Y-136965437D01*
X185080738Y-136950706D01*
X185610806Y-136420639D01*
X185610806Y-136420638D01*
X185579662Y-136398011D01*
X185407159Y-136310116D01*
X185357870Y-136294101D01*
X185300195Y-136254662D01*
X185272997Y-136190304D01*
X185284912Y-136121457D01*
X185332157Y-136069982D01*
X185399731Y-136052221D01*
X185430784Y-136057094D01*
X185499871Y-136077166D01*
X185499877Y-136077167D01*
X185535000Y-136079931D01*
X185535000Y-136079930D01*
X186035000Y-136079930D01*
X186070122Y-136077167D01*
X186070128Y-136077166D01*
X186224188Y-136032407D01*
X186224191Y-136032406D01*
X186362285Y-135950738D01*
X186362294Y-135950731D01*
X186475731Y-135837294D01*
X186475738Y-135837285D01*
X186557404Y-135699194D01*
X186597844Y-135560000D01*
X186035000Y-135560000D01*
X186035000Y-136079930D01*
X185535000Y-136079930D01*
X185535000Y-135434000D01*
X185554685Y-135366961D01*
X185607489Y-135321206D01*
X185659000Y-135310000D01*
X185785000Y-135310000D01*
X185785000Y-135184000D01*
X185804685Y-135116961D01*
X185857489Y-135071206D01*
X185909000Y-135060000D01*
X186611000Y-135060000D01*
X186678039Y-135079685D01*
X186723794Y-135132489D01*
X186735000Y-135184000D01*
X186735000Y-135295465D01*
X186777180Y-135299999D01*
X186777182Y-135300000D01*
X187400000Y-135300000D01*
X187900000Y-135300000D01*
X188522828Y-135300000D01*
X188522844Y-135299999D01*
X188582372Y-135293598D01*
X188582379Y-135293596D01*
X188717086Y-135243354D01*
X188717093Y-135243350D01*
X188832187Y-135157190D01*
X188832190Y-135157187D01*
X188918350Y-135042093D01*
X188918354Y-135042086D01*
X188968596Y-134907379D01*
X188968598Y-134907372D01*
X188974999Y-134847844D01*
X188975000Y-134847827D01*
X188975000Y-134800000D01*
X187900000Y-134800000D01*
X187900000Y-135300000D01*
X187400000Y-135300000D01*
X187400000Y-134300000D01*
X187900000Y-134300000D01*
X188975000Y-134300000D01*
X188975000Y-134252172D01*
X188974999Y-134252155D01*
X188968598Y-134192627D01*
X188968596Y-134192620D01*
X188918354Y-134057913D01*
X188918350Y-134057906D01*
X188832190Y-133942812D01*
X188832187Y-133942809D01*
X188717093Y-133856649D01*
X188717086Y-133856645D01*
X188582379Y-133806403D01*
X188582372Y-133806401D01*
X188522844Y-133800000D01*
X187900000Y-133800000D01*
X187900000Y-134300000D01*
X187400000Y-134300000D01*
X187400000Y-133800000D01*
X186777155Y-133800000D01*
X186717627Y-133806401D01*
X186717620Y-133806403D01*
X186582913Y-133856645D01*
X186582906Y-133856649D01*
X186467813Y-133942809D01*
X186451331Y-133964825D01*
X186395396Y-134006694D01*
X186325704Y-134011676D01*
X186264382Y-133978189D01*
X186250488Y-133961630D01*
X186249067Y-133959601D01*
X186249065Y-133959596D01*
X186165404Y-133875935D01*
X186058173Y-133825932D01*
X186058171Y-133825931D01*
X186058172Y-133825931D01*
X186009317Y-133819500D01*
X186009316Y-133819500D01*
X185733920Y-133819500D01*
X185666881Y-133799815D01*
X185621126Y-133747011D01*
X185610302Y-133685770D01*
X185610806Y-133679358D01*
X185080739Y-133149292D01*
X185135712Y-133134563D01*
X185254287Y-133066104D01*
X185351104Y-132969287D01*
X185419563Y-132850712D01*
X185434292Y-132795740D01*
X185964359Y-133325807D01*
X185964360Y-133325806D01*
X185986985Y-133294665D01*
X185986993Y-133294652D01*
X186074883Y-133122158D01*
X186134713Y-132938022D01*
X186165000Y-132746802D01*
X186165000Y-132553197D01*
X186134713Y-132361977D01*
X186074883Y-132177841D01*
X185986991Y-132005343D01*
X185964359Y-131974192D01*
X185434292Y-132504259D01*
X185419563Y-132449288D01*
X185351104Y-132330713D01*
X185254287Y-132233896D01*
X185135712Y-132165437D01*
X185080738Y-132150706D01*
X185610806Y-131620639D01*
X185610806Y-131620638D01*
X185579662Y-131598011D01*
X185407158Y-131510116D01*
X185223022Y-131450286D01*
X185031802Y-131420000D01*
X184838198Y-131420000D01*
X184646977Y-131450286D01*
X184462841Y-131510116D01*
X184290342Y-131598008D01*
X184246343Y-131629974D01*
X184180536Y-131653451D01*
X184160208Y-131652943D01*
X184132833Y-131650000D01*
X183800000Y-131650000D01*
X183800000Y-133014134D01*
X183781019Y-133078774D01*
X183795112Y-133122150D01*
X183795115Y-133122156D01*
X183870040Y-133269205D01*
X183882936Y-133337874D01*
X183856660Y-133402615D01*
X183799553Y-133442872D01*
X183759555Y-133449500D01*
X183195247Y-133449500D01*
X183136771Y-133461131D01*
X183127291Y-133465059D01*
X183079834Y-133474500D01*
X182490166Y-133474500D01*
X182442709Y-133465059D01*
X182433228Y-133461131D01*
X182374752Y-133449500D01*
X182374748Y-133449500D01*
X181952575Y-133449500D01*
X181951699Y-133449497D01*
X181940272Y-133449416D01*
X181936853Y-133448500D01*
X181810503Y-133448500D01*
X181810078Y-133448497D01*
X181777016Y-133438534D01*
X181743915Y-133428815D01*
X181743616Y-133428470D01*
X181743180Y-133428339D01*
X181720735Y-133402064D01*
X181698160Y-133376011D01*
X181698095Y-133375560D01*
X181697799Y-133375214D01*
X181693129Y-133341024D01*
X181688216Y-133306853D01*
X181688388Y-133306310D01*
X181688344Y-133305987D01*
X181688804Y-133304998D01*
X181700469Y-133268205D01*
X181774885Y-133122156D01*
X181774887Y-133122150D01*
X181789819Y-133076194D01*
X181770202Y-133021213D01*
X181770000Y-133014134D01*
X181770000Y-132950000D01*
X182070000Y-132950000D01*
X182402828Y-132950000D01*
X182402844Y-132949999D01*
X182462372Y-132943598D01*
X182462379Y-132943596D01*
X182597086Y-132893354D01*
X182597089Y-132893352D01*
X182710688Y-132808312D01*
X182776153Y-132783894D01*
X182844426Y-132798745D01*
X182859312Y-132808312D01*
X182972910Y-132893352D01*
X182972913Y-132893354D01*
X183107620Y-132943596D01*
X183107627Y-132943598D01*
X183167155Y-132949999D01*
X183167172Y-132950000D01*
X183500000Y-132950000D01*
X183500000Y-132450000D01*
X182070000Y-132450000D01*
X182070000Y-132950000D01*
X181770000Y-132950000D01*
X181770000Y-131650000D01*
X181437164Y-131650000D01*
X181409789Y-131652943D01*
X181341030Y-131640536D01*
X181323652Y-131629971D01*
X181279664Y-131598012D01*
X181107158Y-131510116D01*
X180923022Y-131450286D01*
X180731802Y-131420000D01*
X180538198Y-131420000D01*
X180346977Y-131450286D01*
X180162841Y-131510116D01*
X179990337Y-131598011D01*
X179959192Y-131620639D01*
X179959191Y-131620639D01*
X180489260Y-132150707D01*
X180434288Y-132165437D01*
X180315713Y-132233896D01*
X180218896Y-132330713D01*
X180150437Y-132449288D01*
X180135707Y-132504260D01*
X179756819Y-132125372D01*
X179723334Y-132064049D01*
X179720500Y-132037691D01*
X179720500Y-131869477D01*
X179720500Y-131869472D01*
X179710645Y-131801830D01*
X179659636Y-131697489D01*
X179659634Y-131697487D01*
X179659634Y-131697486D01*
X179577512Y-131615364D01*
X179545039Y-131599489D01*
X179533059Y-131588543D01*
X179518297Y-131581802D01*
X179507795Y-131565461D01*
X179493457Y-131552361D01*
X179488904Y-131536065D01*
X179480523Y-131523024D01*
X179475500Y-131488089D01*
X179475500Y-131452964D01*
X179495185Y-131385925D01*
X179511819Y-131365283D01*
X179560489Y-131316613D01*
X179619799Y-131213886D01*
X179650500Y-131099309D01*
X179650500Y-130980691D01*
X179619799Y-130866114D01*
X179560489Y-130763387D01*
X179476613Y-130679511D01*
X179373886Y-130620201D01*
X179259309Y-130589500D01*
X179140691Y-130589500D01*
X179026114Y-130620201D01*
X179026112Y-130620201D01*
X179026112Y-130620202D01*
X178923387Y-130679511D01*
X178923384Y-130679513D01*
X178839513Y-130763384D01*
X178839511Y-130763387D01*
X178780201Y-130866114D01*
X178749500Y-130980691D01*
X178749500Y-131099309D01*
X178780201Y-131213886D01*
X178839511Y-131316613D01*
X178839513Y-131316615D01*
X178888181Y-131365283D01*
X178902884Y-131392210D01*
X178919477Y-131418029D01*
X178920368Y-131424229D01*
X178921666Y-131426606D01*
X178924500Y-131452964D01*
X178924500Y-131488089D01*
X178904815Y-131555128D01*
X178854961Y-131599489D01*
X178822487Y-131615364D01*
X178778840Y-131659011D01*
X178717517Y-131692495D01*
X178647825Y-131687510D01*
X178603479Y-131659010D01*
X178580404Y-131635935D01*
X178547602Y-131620639D01*
X178473173Y-131585932D01*
X178473171Y-131585931D01*
X178473172Y-131585931D01*
X178424317Y-131579500D01*
X178424316Y-131579500D01*
X177975684Y-131579500D01*
X177975683Y-131579500D01*
X177926828Y-131585931D01*
X177819595Y-131635935D01*
X177735935Y-131719595D01*
X177685931Y-131826828D01*
X177679500Y-131875683D01*
X177679500Y-132224316D01*
X177685931Y-132273173D01*
X177688505Y-132282003D01*
X177688363Y-132351873D01*
X177650469Y-132410574D01*
X177632582Y-132423426D01*
X177622708Y-132429265D01*
X177622708Y-132429266D01*
X177509268Y-132542705D01*
X177509261Y-132542714D01*
X177429063Y-132678323D01*
X177413121Y-132820000D01*
X178076000Y-132820000D01*
X178143039Y-132839685D01*
X178188794Y-132892489D01*
X178200000Y-132944000D01*
X178200000Y-133070000D01*
X178326000Y-133070000D01*
X178393039Y-133089685D01*
X178438794Y-133142489D01*
X178450000Y-133194000D01*
X178450000Y-133839930D01*
X178485122Y-133837167D01*
X178485128Y-133837166D01*
X178559590Y-133815533D01*
X178575803Y-133815579D01*
X178591248Y-133810644D01*
X178610021Y-133815676D01*
X178629459Y-133815732D01*
X178643073Y-133824536D01*
X178658735Y-133828735D01*
X178671808Y-133843119D01*
X178688129Y-133853674D01*
X178694821Y-133868440D01*
X178705728Y-133880440D01*
X178708948Y-133899608D01*
X178716973Y-133917312D01*
X178714740Y-133934076D01*
X178717306Y-133949344D01*
X178709641Y-133972367D01*
X178708168Y-133983434D01*
X178702119Y-133997553D01*
X178699535Y-134000138D01*
X178656682Y-134074361D01*
X178638038Y-134143942D01*
X178634500Y-134157147D01*
X178634500Y-136067147D01*
X178634500Y-136152853D01*
X178641224Y-136177947D01*
X178656682Y-136235640D01*
X178681926Y-136279362D01*
X178698399Y-136347262D01*
X178675547Y-136413289D01*
X178620626Y-136456480D01*
X178551073Y-136463122D01*
X178488970Y-136431107D01*
X178486858Y-136429044D01*
X178457316Y-136399502D01*
X178457314Y-136399500D01*
X178393854Y-136362861D01*
X178343187Y-136333608D01*
X178279539Y-136316554D01*
X178215892Y-136299500D01*
X178084108Y-136299500D01*
X177956814Y-136333608D01*
X177956813Y-136333608D01*
X177956811Y-136333609D01*
X177956810Y-136333609D01*
X177858007Y-136390653D01*
X177790106Y-136407126D01*
X177771817Y-136404884D01*
X177744748Y-136399500D01*
X176055252Y-136399500D01*
X176055247Y-136399500D01*
X175996770Y-136411131D01*
X175996770Y-136411132D01*
X175974390Y-136426086D01*
X175907713Y-136446963D01*
X175840333Y-136428478D01*
X175793643Y-136376499D01*
X175781500Y-136322983D01*
X175781500Y-135402771D01*
X175801185Y-135335732D01*
X175853989Y-135289977D01*
X175923147Y-135280033D01*
X175948835Y-135286590D01*
X175967619Y-135293596D01*
X175967627Y-135293598D01*
X176027155Y-135299999D01*
X176027172Y-135300000D01*
X176650000Y-135300000D01*
X177150000Y-135300000D01*
X177772828Y-135300000D01*
X177772844Y-135299999D01*
X177832372Y-135293598D01*
X177832379Y-135293596D01*
X177967086Y-135243354D01*
X177967093Y-135243350D01*
X178082187Y-135157190D01*
X178082190Y-135157187D01*
X178168350Y-135042093D01*
X178168354Y-135042086D01*
X178218596Y-134907379D01*
X178218598Y-134907372D01*
X178224999Y-134847844D01*
X178225000Y-134847827D01*
X178225000Y-134800000D01*
X177150000Y-134800000D01*
X177150000Y-135300000D01*
X176650000Y-135300000D01*
X176650000Y-133840132D01*
X176519998Y-133800000D01*
X177150000Y-133800000D01*
X177150000Y-134300000D01*
X178225000Y-134300000D01*
X178225000Y-134252172D01*
X178224999Y-134252155D01*
X178218598Y-134192627D01*
X178218596Y-134192620D01*
X178168354Y-134057913D01*
X178168352Y-134057911D01*
X178102543Y-133970000D01*
X178074000Y-133970000D01*
X178006961Y-133950315D01*
X177961206Y-133897511D01*
X177950000Y-133846000D01*
X177950000Y-133320000D01*
X177387156Y-133320000D01*
X177427595Y-133459194D01*
X177509264Y-133597290D01*
X177511367Y-133600001D01*
X177512353Y-133602513D01*
X177513235Y-133604004D01*
X177512994Y-133604146D01*
X177536901Y-133665037D01*
X177523221Y-133733554D01*
X177474669Y-133783799D01*
X177413387Y-133800000D01*
X177150000Y-133800000D01*
X176519998Y-133800000D01*
X176502126Y-133794483D01*
X176487961Y-133785100D01*
X176471664Y-133780315D01*
X176459441Y-133766209D01*
X176443876Y-133755899D01*
X176437032Y-133740348D01*
X176425909Y-133727511D01*
X176423252Y-133709034D01*
X176415733Y-133691948D01*
X176418382Y-133675168D01*
X176415965Y-133658353D01*
X176423720Y-133641371D01*
X176426632Y-133622934D01*
X176437932Y-133610251D01*
X176444990Y-133594797D01*
X176451022Y-133588319D01*
X176459841Y-133579500D01*
X177141557Y-132897786D01*
X177169680Y-132829891D01*
X177183500Y-132796527D01*
X177183500Y-131917477D01*
X177203185Y-131850438D01*
X177219819Y-131829796D01*
X179337797Y-129711819D01*
X179399120Y-129678334D01*
X179425478Y-129675500D01*
X179897578Y-129675500D01*
X179897579Y-129675500D01*
X179998837Y-129633557D01*
X180076336Y-129556058D01*
X180076335Y-129556058D01*
X180207393Y-129425000D01*
X180703374Y-129425000D01*
X180714478Y-129509340D01*
X180714478Y-129509342D01*
X180771156Y-129646175D01*
X180861320Y-129763679D01*
X180978824Y-129853843D01*
X181115658Y-129910521D01*
X181225622Y-129924999D01*
X181225637Y-129925000D01*
X181255000Y-129925000D01*
X181255000Y-129425000D01*
X180703374Y-129425000D01*
X180207393Y-129425000D01*
X180420577Y-129211817D01*
X180481900Y-129178334D01*
X180508257Y-129175500D01*
X180860840Y-129175500D01*
X180865915Y-129175000D01*
X181256000Y-129175000D01*
X181323039Y-129194685D01*
G37*
%TD.AperFunction*%
%TA.AperFunction,Conductor*%
G36*
X179152540Y-148582685D02*
G01*
X179198295Y-148635489D01*
X179209501Y-148687000D01*
X179209501Y-148894856D01*
X179209502Y-148894882D01*
X179212413Y-148919987D01*
X179212415Y-148919991D01*
X179257793Y-149022763D01*
X179260326Y-149026461D01*
X179277800Y-149064442D01*
X179283384Y-149085282D01*
X179283387Y-149085289D01*
X179329527Y-149165207D01*
X179329531Y-149165212D01*
X179584202Y-149419883D01*
X179617687Y-149481206D01*
X179612703Y-149550898D01*
X179570831Y-149606831D01*
X179505367Y-149631248D01*
X179467143Y-149625054D01*
X179466780Y-149626883D01*
X179454800Y-149624500D01*
X179454799Y-149624500D01*
X178081457Y-149624500D01*
X178014418Y-149604815D01*
X177968663Y-149552011D01*
X177958719Y-149482853D01*
X177987744Y-149419297D01*
X178034005Y-149385939D01*
X178062586Y-149374100D01*
X178187926Y-149277922D01*
X178248478Y-149199012D01*
X178304906Y-149157810D01*
X178346850Y-149150499D01*
X178454864Y-149150499D01*
X178454879Y-149150497D01*
X178454882Y-149150497D01*
X178479987Y-149147586D01*
X178479988Y-149147585D01*
X178479991Y-149147585D01*
X178582765Y-149102206D01*
X178662206Y-149022765D01*
X178707585Y-148919991D01*
X178710500Y-148894865D01*
X178710500Y-148687000D01*
X178730185Y-148619961D01*
X178782989Y-148574206D01*
X178834500Y-148563000D01*
X179085501Y-148563000D01*
X179152540Y-148582685D01*
G37*
%TD.AperFunction*%
%TA.AperFunction,Conductor*%
G36*
X175558814Y-141316854D02*
G01*
X175572147Y-141314938D01*
X175592290Y-141324137D01*
X175613927Y-141328844D01*
X175631652Y-141342112D01*
X175635703Y-141343963D01*
X175642181Y-141349995D01*
X175692686Y-141400500D01*
X175806814Y-141466392D01*
X175934108Y-141500500D01*
X175934110Y-141500500D01*
X176065890Y-141500500D01*
X176065892Y-141500500D01*
X176193186Y-141466392D01*
X176193187Y-141466391D01*
X176201037Y-141464288D01*
X176201776Y-141467046D01*
X176257503Y-141461049D01*
X176319986Y-141492317D01*
X176355645Y-141552401D01*
X176359500Y-141583081D01*
X176359500Y-142369752D01*
X176371131Y-142428229D01*
X176371132Y-142428230D01*
X176415447Y-142494552D01*
X176481769Y-142538867D01*
X176481770Y-142538868D01*
X176540247Y-142550499D01*
X176540250Y-142550500D01*
X176540252Y-142550500D01*
X177579750Y-142550500D01*
X177579751Y-142550499D01*
X177594568Y-142547552D01*
X177638229Y-142538868D01*
X177638229Y-142538867D01*
X177638231Y-142538867D01*
X177704552Y-142494552D01*
X177743937Y-142435608D01*
X177750028Y-142430518D01*
X177753326Y-142423297D01*
X177776453Y-142408433D01*
X177797549Y-142390804D01*
X177806923Y-142388852D01*
X177812104Y-142385523D01*
X177847039Y-142380500D01*
X178080656Y-142380500D01*
X178147695Y-142400185D01*
X178193450Y-142452989D01*
X178203394Y-142522147D01*
X178174369Y-142585703D01*
X178154968Y-142603766D01*
X178102809Y-142642812D01*
X178016649Y-142757906D01*
X178016645Y-142757913D01*
X177966403Y-142892620D01*
X177966402Y-142892624D01*
X177965451Y-142901466D01*
X177938708Y-142966015D01*
X177881313Y-143005859D01*
X177811487Y-143008348D01*
X177751401Y-142972691D01*
X177739065Y-142957099D01*
X177704552Y-142905448D01*
X177691853Y-142896962D01*
X177638230Y-142861132D01*
X177638229Y-142861131D01*
X177579752Y-142849500D01*
X177579748Y-142849500D01*
X176540252Y-142849500D01*
X176540247Y-142849500D01*
X176481770Y-142861131D01*
X176481769Y-142861132D01*
X176415447Y-142905447D01*
X176371132Y-142971769D01*
X176371131Y-142971770D01*
X176359500Y-143030247D01*
X176359500Y-143793822D01*
X176339815Y-143860861D01*
X176287011Y-143906616D01*
X176270095Y-143912898D01*
X176183809Y-143937966D01*
X176183804Y-143937968D01*
X176044625Y-144020278D01*
X176044616Y-144020285D01*
X175930285Y-144134616D01*
X175930278Y-144134625D01*
X175847968Y-144273804D01*
X175847966Y-144273809D01*
X175802855Y-144429081D01*
X175802854Y-144429087D01*
X175801209Y-144449999D01*
X175801210Y-144450000D01*
X176456000Y-144450000D01*
X176523039Y-144469685D01*
X176568794Y-144522489D01*
X176580000Y-144574000D01*
X176580000Y-144700000D01*
X176706000Y-144700000D01*
X176773039Y-144719685D01*
X176818794Y-144772489D01*
X176830000Y-144824000D01*
X176830000Y-145462186D01*
X176823373Y-145484754D01*
X176821157Y-145508174D01*
X176812750Y-145520930D01*
X176810315Y-145529225D01*
X176803536Y-145538754D01*
X176798934Y-145544615D01*
X176729530Y-145614020D01*
X176692458Y-145678231D01*
X176688053Y-145685858D01*
X176688050Y-145685864D01*
X176683386Y-145693942D01*
X176683385Y-145693945D01*
X176668595Y-145749139D01*
X176662256Y-145767129D01*
X176612415Y-145880009D01*
X176609500Y-145905131D01*
X176609500Y-147119856D01*
X176609502Y-147119882D01*
X176612413Y-147144987D01*
X176612415Y-147144991D01*
X176657793Y-147247764D01*
X176722348Y-147312319D01*
X176723125Y-147313742D01*
X176724531Y-147314557D01*
X176739814Y-147344306D01*
X176755833Y-147373642D01*
X176755717Y-147375261D01*
X176756459Y-147376705D01*
X176753234Y-147409971D01*
X176750849Y-147443334D01*
X176749825Y-147445154D01*
X176749719Y-147446249D01*
X176746284Y-147451447D01*
X176732029Y-147476789D01*
X176727508Y-147482520D01*
X176657794Y-147552235D01*
X176639058Y-147594667D01*
X176629330Y-147607002D01*
X176613133Y-147618501D01*
X176600315Y-147633676D01*
X176585228Y-147638312D01*
X176572359Y-147647450D01*
X176552516Y-147648367D01*
X176533529Y-147654203D01*
X176518330Y-147649947D01*
X176502564Y-147650676D01*
X176485375Y-147640720D01*
X176466247Y-147635364D01*
X176444287Y-147617894D01*
X176413283Y-147586890D01*
X176381188Y-147531298D01*
X176379799Y-147526114D01*
X176367098Y-147504115D01*
X176320489Y-147423387D01*
X176236613Y-147339511D01*
X176133886Y-147280201D01*
X176019309Y-147249500D01*
X175900691Y-147249500D01*
X175786114Y-147280201D01*
X175786112Y-147280201D01*
X175786112Y-147280202D01*
X175683387Y-147339511D01*
X175683384Y-147339513D01*
X175642181Y-147380717D01*
X175580858Y-147414202D01*
X175511166Y-147409218D01*
X175455233Y-147367346D01*
X175430816Y-147301882D01*
X175430500Y-147293036D01*
X175430500Y-144950000D01*
X175801210Y-144950000D01*
X175802854Y-144970910D01*
X175847968Y-145126195D01*
X175930278Y-145265374D01*
X175930285Y-145265383D01*
X176044616Y-145379714D01*
X176044625Y-145379721D01*
X176183804Y-145462031D01*
X176330000Y-145504504D01*
X176330000Y-144950000D01*
X175801210Y-144950000D01*
X175430500Y-144950000D01*
X175430500Y-141437676D01*
X175436738Y-141416430D01*
X175438318Y-141394342D01*
X175446390Y-141383558D01*
X175450185Y-141370637D01*
X175466918Y-141356137D01*
X175480190Y-141338409D01*
X175492810Y-141333701D01*
X175502989Y-141324882D01*
X175524906Y-141321730D01*
X175545654Y-141313992D01*
X175558814Y-141316854D01*
G37*
%TD.AperFunction*%
%TA.AperFunction,Conductor*%
G36*
X181491956Y-141287365D02*
G01*
X181530196Y-141345842D01*
X181535500Y-141381720D01*
X181535500Y-142619748D01*
X181535501Y-142619752D01*
X181546608Y-142675594D01*
X181540379Y-142745185D01*
X181497516Y-142800362D01*
X181431626Y-142823606D01*
X181408809Y-142822724D01*
X181392859Y-142820624D01*
X181384316Y-142819500D01*
X180935684Y-142819500D01*
X180935683Y-142819500D01*
X180886828Y-142825931D01*
X180779595Y-142875935D01*
X180739778Y-142915752D01*
X180678455Y-142949236D01*
X180608763Y-142944251D01*
X180552830Y-142902379D01*
X180548996Y-142896962D01*
X180517282Y-142849500D01*
X180504552Y-142830448D01*
X180497794Y-142825932D01*
X180438230Y-142786132D01*
X180438229Y-142786131D01*
X180435309Y-142785551D01*
X180429532Y-142782529D01*
X180426946Y-142781458D01*
X180427041Y-142781226D01*
X180407185Y-142770840D01*
X180378297Y-142757647D01*
X180376439Y-142754757D01*
X180373398Y-142753166D01*
X180357691Y-142725583D01*
X180340523Y-142698869D01*
X180339862Y-142694274D01*
X180338824Y-142692451D01*
X180335500Y-142663934D01*
X180335500Y-142571469D01*
X180355185Y-142504430D01*
X180407989Y-142458675D01*
X180414961Y-142456082D01*
X180419485Y-142453972D01*
X180419487Y-142453972D01*
X180528316Y-142403224D01*
X180613224Y-142318316D01*
X180663972Y-142209487D01*
X180670500Y-142159901D01*
X180670499Y-141800100D01*
X180669230Y-141790463D01*
X180679994Y-141721433D01*
X180720350Y-141675962D01*
X180719215Y-141674499D01*
X180725383Y-141669714D01*
X180839714Y-141555383D01*
X180839721Y-141555374D01*
X180922031Y-141416195D01*
X180923859Y-141409905D01*
X180961466Y-141351020D01*
X181024938Y-141321813D01*
X181042936Y-141320500D01*
X181214317Y-141320500D01*
X181230601Y-141318356D01*
X181263173Y-141314068D01*
X181359096Y-141269337D01*
X181428172Y-141258846D01*
X181491956Y-141287365D01*
G37*
%TD.AperFunction*%
%TA.AperFunction,Conductor*%
G36*
X178582826Y-140170185D02*
G01*
X178628581Y-140222989D01*
X178638525Y-140292147D01*
X178609500Y-140355703D01*
X178600038Y-140364664D01*
X178600138Y-140364764D01*
X178480285Y-140484616D01*
X178480278Y-140484625D01*
X178397968Y-140623804D01*
X178355496Y-140770000D01*
X179910000Y-140770000D01*
X179922263Y-140757736D01*
X179929685Y-140732461D01*
X179982489Y-140686706D01*
X180034000Y-140675500D01*
X180286000Y-140675500D01*
X180294685Y-140678050D01*
X180303647Y-140676762D01*
X180327687Y-140687740D01*
X180353039Y-140695185D01*
X180358966Y-140702025D01*
X180367203Y-140705787D01*
X180381492Y-140728021D01*
X180398794Y-140747989D01*
X180401081Y-140758503D01*
X180404977Y-140764565D01*
X180410000Y-140799500D01*
X180410000Y-140896000D01*
X180390315Y-140963039D01*
X180337511Y-141008794D01*
X180286000Y-141020000D01*
X180160000Y-141020000D01*
X180160000Y-141146000D01*
X180140315Y-141213039D01*
X180087511Y-141258794D01*
X180036000Y-141270000D01*
X178355496Y-141270000D01*
X178399337Y-141420906D01*
X178399137Y-141490775D01*
X178361194Y-141549445D01*
X178297556Y-141578288D01*
X178280260Y-141579500D01*
X177884500Y-141579500D01*
X177817461Y-141559815D01*
X177771706Y-141507011D01*
X177760500Y-141455500D01*
X177760500Y-141430249D01*
X177760499Y-141430247D01*
X177748868Y-141371770D01*
X177748867Y-141371769D01*
X177704552Y-141305447D01*
X177628077Y-141254348D01*
X177630208Y-141251158D01*
X177592781Y-141220980D01*
X177570735Y-141154679D01*
X177574883Y-141118192D01*
X177575500Y-141115892D01*
X177575500Y-140984108D01*
X177541392Y-140856814D01*
X177475500Y-140742686D01*
X177382314Y-140649500D01*
X177268186Y-140583608D01*
X177194782Y-140563939D01*
X177189598Y-140560780D01*
X177183543Y-140560347D01*
X177160114Y-140542808D01*
X177135123Y-140527575D01*
X177132469Y-140522113D01*
X177127610Y-140518475D01*
X177117381Y-140491052D01*
X177104594Y-140464727D01*
X177105314Y-140458699D01*
X177103193Y-140453011D01*
X177109414Y-140424412D01*
X177112889Y-140395352D01*
X177117084Y-140389153D01*
X177118045Y-140384738D01*
X177139193Y-140356487D01*
X177308862Y-140186819D01*
X177370185Y-140153334D01*
X177396543Y-140150500D01*
X178515787Y-140150500D01*
X178582826Y-140170185D01*
G37*
%TD.AperFunction*%
%TA.AperFunction,Conductor*%
G36*
X178623834Y-137136494D02*
G01*
X178679767Y-137178366D01*
X178704184Y-137243830D01*
X178704500Y-137252676D01*
X178704500Y-139312598D01*
X178695855Y-139342038D01*
X178689332Y-139372025D01*
X178685577Y-139377040D01*
X178684815Y-139379637D01*
X178668181Y-139400279D01*
X178655279Y-139413181D01*
X178593956Y-139446666D01*
X178567598Y-139449500D01*
X178248832Y-139449500D01*
X178181793Y-139429815D01*
X178136038Y-139377011D01*
X178125893Y-139309317D01*
X178130500Y-139274319D01*
X178130500Y-138825694D01*
X178130500Y-138825684D01*
X178130498Y-138825674D01*
X178130417Y-138824430D01*
X178130500Y-138824058D01*
X178130500Y-138821625D01*
X178131044Y-138821625D01*
X178145669Y-138756245D01*
X178166470Y-138728626D01*
X178279717Y-138615379D01*
X178279721Y-138615374D01*
X178362031Y-138476195D01*
X178362033Y-138476190D01*
X178407144Y-138320918D01*
X178407145Y-138320912D01*
X178408790Y-138300000D01*
X177754000Y-138300000D01*
X177686961Y-138280315D01*
X177641206Y-138227511D01*
X177630000Y-138176000D01*
X177630000Y-137924000D01*
X177649685Y-137856961D01*
X177702489Y-137811206D01*
X177754000Y-137800000D01*
X178408790Y-137800000D01*
X178407145Y-137779089D01*
X178362031Y-137623804D01*
X178279721Y-137484625D01*
X178279714Y-137484616D01*
X178272887Y-137477789D01*
X178239402Y-137416466D01*
X178244386Y-137346774D01*
X178286258Y-137290841D01*
X178328475Y-137270333D01*
X178343186Y-137266392D01*
X178457314Y-137200500D01*
X178492819Y-137164995D01*
X178554142Y-137131510D01*
X178623834Y-137136494D01*
G37*
%TD.AperFunction*%
%TA.AperFunction,Conductor*%
G36*
X190505203Y-127288043D02*
G01*
X190511681Y-127294075D01*
X190588181Y-127370575D01*
X190621666Y-127431898D01*
X190624500Y-127458256D01*
X190624500Y-131085522D01*
X190604815Y-131152561D01*
X190552011Y-131198316D01*
X190482853Y-131208260D01*
X190419297Y-131179235D01*
X190412819Y-131173203D01*
X189477738Y-130238122D01*
X189444253Y-130176799D01*
X189449237Y-130107107D01*
X189491109Y-130051174D01*
X189533323Y-130030667D01*
X189573886Y-130019799D01*
X189676613Y-129960489D01*
X189760489Y-129876613D01*
X189819799Y-129773886D01*
X189850500Y-129659309D01*
X189850500Y-129540691D01*
X189819799Y-129426114D01*
X189760489Y-129323387D01*
X189676613Y-129239511D01*
X189573886Y-129180201D01*
X189459309Y-129149500D01*
X189390478Y-129149500D01*
X189323439Y-129129815D01*
X189302797Y-129113181D01*
X189215702Y-129026086D01*
X189101295Y-128911680D01*
X189067811Y-128850358D01*
X189072795Y-128780667D01*
X189114666Y-128724733D01*
X189131572Y-128718427D01*
X189150000Y-128700000D01*
X189650000Y-128700000D01*
X189847828Y-128700000D01*
X189847844Y-128699999D01*
X189907372Y-128693598D01*
X189907379Y-128693596D01*
X190042086Y-128643354D01*
X190042093Y-128643350D01*
X190157187Y-128557190D01*
X190157190Y-128557187D01*
X190243350Y-128442093D01*
X190243354Y-128442086D01*
X190293596Y-128307379D01*
X190293598Y-128307372D01*
X190299999Y-128247844D01*
X190300000Y-128247827D01*
X190300000Y-128050000D01*
X189650000Y-128050000D01*
X189650000Y-128700000D01*
X189150000Y-128700000D01*
X189150000Y-127924000D01*
X189169685Y-127856961D01*
X189222489Y-127811206D01*
X189274000Y-127800000D01*
X189400000Y-127800000D01*
X189400000Y-127674000D01*
X189419685Y-127606961D01*
X189472489Y-127561206D01*
X189524000Y-127550000D01*
X190300000Y-127550000D01*
X190300000Y-127381756D01*
X190319685Y-127314717D01*
X190372489Y-127268962D01*
X190441647Y-127259018D01*
X190505203Y-127288043D01*
G37*
%TD.AperFunction*%
%TA.AperFunction,Conductor*%
G36*
X174503803Y-113020185D02*
G01*
X174549558Y-113072989D01*
X174559502Y-113142147D01*
X174552946Y-113167833D01*
X174506403Y-113292620D01*
X174506401Y-113292627D01*
X174500000Y-113352155D01*
X174500000Y-113550000D01*
X176328638Y-113550000D01*
X176395677Y-113569685D01*
X176416319Y-113586319D01*
X176430000Y-113600000D01*
X188370000Y-113600000D01*
X188383681Y-113586319D01*
X188445004Y-113552834D01*
X188471362Y-113550000D01*
X190300000Y-113550000D01*
X190300000Y-113352172D01*
X190299999Y-113352155D01*
X190293598Y-113292627D01*
X190293596Y-113292620D01*
X190247054Y-113167833D01*
X190242070Y-113098142D01*
X190275555Y-113036818D01*
X190336878Y-113003334D01*
X190363236Y-113000500D01*
X192435500Y-113000500D01*
X192444185Y-113003050D01*
X192453147Y-113001762D01*
X192477187Y-113012740D01*
X192502539Y-113020185D01*
X192508466Y-113027025D01*
X192516703Y-113030787D01*
X192530992Y-113053021D01*
X192548294Y-113072989D01*
X192550581Y-113083503D01*
X192554477Y-113089565D01*
X192559500Y-113124500D01*
X192559500Y-113135500D01*
X192539815Y-113202539D01*
X192487011Y-113248294D01*
X192435500Y-113259500D01*
X191740247Y-113259500D01*
X191681770Y-113271131D01*
X191681769Y-113271132D01*
X191615447Y-113315447D01*
X191571132Y-113381769D01*
X191571131Y-113381770D01*
X191559500Y-113440247D01*
X191559500Y-114819522D01*
X191539815Y-114886561D01*
X191523181Y-114907203D01*
X191042204Y-115388181D01*
X190980881Y-115421666D01*
X190954523Y-115424500D01*
X190056971Y-115424500D01*
X190050106Y-115422484D01*
X190043058Y-115423717D01*
X190017023Y-115412770D01*
X189989932Y-115404815D01*
X189983679Y-115398749D01*
X189978651Y-115396635D01*
X189957273Y-115373133D01*
X189954739Y-115370675D01*
X189954269Y-115369990D01*
X189944552Y-115355448D01*
X189944061Y-115355120D01*
X189937235Y-115345175D01*
X189929787Y-115322393D01*
X189918301Y-115301358D01*
X189919128Y-115289789D01*
X189915524Y-115278764D01*
X189921575Y-115255571D01*
X189923285Y-115231666D01*
X189930907Y-115219805D01*
X189933164Y-115211158D01*
X189939158Y-115205636D01*
X189937767Y-115204707D01*
X189958735Y-115173324D01*
X189988867Y-115128231D01*
X189988867Y-115128229D01*
X189988868Y-115128229D01*
X190000499Y-115069752D01*
X190000500Y-115069750D01*
X190000500Y-114736556D01*
X190020185Y-114669517D01*
X190050189Y-114637290D01*
X190157187Y-114557190D01*
X190157190Y-114557187D01*
X190243350Y-114442093D01*
X190243354Y-114442086D01*
X190293596Y-114307379D01*
X190293598Y-114307372D01*
X190299999Y-114247844D01*
X190300000Y-114247827D01*
X190300000Y-114050000D01*
X188550000Y-114050000D01*
X188550000Y-114673667D01*
X188530315Y-114740706D01*
X188513681Y-114761348D01*
X188210574Y-115064454D01*
X188149251Y-115097939D01*
X188141430Y-115099302D01*
X188140691Y-115099500D01*
X188026114Y-115130201D01*
X188026112Y-115130201D01*
X188026112Y-115130202D01*
X187923387Y-115189511D01*
X187923384Y-115189513D01*
X187839513Y-115273384D01*
X187839511Y-115273387D01*
X187824435Y-115299500D01*
X187780201Y-115376114D01*
X187749500Y-115490691D01*
X187749500Y-115609309D01*
X187780201Y-115723886D01*
X187839511Y-115826613D01*
X187923387Y-115910489D01*
X188026114Y-115969799D01*
X188140691Y-116000500D01*
X188140694Y-116000500D01*
X188259306Y-116000500D01*
X188259309Y-116000500D01*
X188373886Y-115969799D01*
X188373888Y-115969797D01*
X188373890Y-115969797D01*
X188381400Y-115966687D01*
X188381906Y-115967909D01*
X188441608Y-115953417D01*
X188507639Y-115976259D01*
X188550838Y-116031173D01*
X188557490Y-116100725D01*
X188551909Y-116120609D01*
X188506403Y-116242616D01*
X188506401Y-116242627D01*
X188500000Y-116302155D01*
X188500000Y-116350000D01*
X190300000Y-116350000D01*
X190300000Y-116302172D01*
X190299999Y-116302155D01*
X190293598Y-116242627D01*
X190293596Y-116242619D01*
X190256379Y-116142833D01*
X190251395Y-116073141D01*
X190284880Y-116011818D01*
X190346204Y-115978334D01*
X190372561Y-115975500D01*
X191174799Y-115975500D01*
X191174800Y-115975500D01*
X191276058Y-115933557D01*
X191353557Y-115856058D01*
X191353556Y-115856058D01*
X191412125Y-115797489D01*
X191912796Y-115296819D01*
X191974119Y-115263334D01*
X192000477Y-115260500D01*
X192435500Y-115260500D01*
X192502539Y-115280185D01*
X192548294Y-115332989D01*
X192559500Y-115384500D01*
X192559500Y-115678234D01*
X192539815Y-115745273D01*
X192487011Y-115791028D01*
X192459692Y-115799851D01*
X192268170Y-115837947D01*
X192268160Y-115837950D01*
X192086092Y-115913364D01*
X192086079Y-115913371D01*
X191922218Y-116022860D01*
X191922214Y-116022863D01*
X191782863Y-116162214D01*
X191782860Y-116162218D01*
X191673371Y-116326079D01*
X191673364Y-116326092D01*
X191597950Y-116508160D01*
X191597947Y-116508170D01*
X191559500Y-116701456D01*
X191559500Y-116701459D01*
X191559500Y-116898541D01*
X191559500Y-116898543D01*
X191559499Y-116898543D01*
X191597947Y-117091828D01*
X191597949Y-117091836D01*
X191604494Y-117107636D01*
X191611963Y-117177105D01*
X191580687Y-117239584D01*
X191577614Y-117242769D01*
X191382602Y-117437782D01*
X191054493Y-117765892D01*
X190882204Y-117938181D01*
X190820881Y-117971666D01*
X190794523Y-117974500D01*
X190372561Y-117974500D01*
X190305522Y-117954815D01*
X190259767Y-117902011D01*
X190249823Y-117832853D01*
X190256379Y-117807167D01*
X190293596Y-117707380D01*
X190293598Y-117707372D01*
X190299999Y-117647844D01*
X190300000Y-117647827D01*
X190300000Y-117600000D01*
X188500000Y-117600000D01*
X188500000Y-117647844D01*
X188506401Y-117707372D01*
X188506403Y-117707379D01*
X188556645Y-117842086D01*
X188556649Y-117842093D01*
X188642809Y-117957187D01*
X188642812Y-117957190D01*
X188749811Y-118037290D01*
X188791682Y-118093223D01*
X188799500Y-118136556D01*
X188799500Y-118469752D01*
X188811131Y-118528229D01*
X188811132Y-118528230D01*
X188862233Y-118604707D01*
X188858918Y-118606921D01*
X188881699Y-118648642D01*
X188876715Y-118718334D01*
X188860243Y-118743963D01*
X188862233Y-118745293D01*
X188811132Y-118821769D01*
X188811131Y-118821770D01*
X188799500Y-118880247D01*
X188799500Y-119319752D01*
X188811131Y-119378229D01*
X188811132Y-119378230D01*
X188862233Y-119454707D01*
X188858918Y-119456921D01*
X188881699Y-119498642D01*
X188876715Y-119568334D01*
X188860243Y-119593963D01*
X188862233Y-119595293D01*
X188811132Y-119671769D01*
X188811131Y-119671770D01*
X188799500Y-119730247D01*
X188799500Y-120169752D01*
X188811131Y-120228229D01*
X188811132Y-120228230D01*
X188862233Y-120304707D01*
X188858918Y-120306921D01*
X188881699Y-120348642D01*
X188876715Y-120418334D01*
X188860243Y-120443963D01*
X188862233Y-120445293D01*
X188811132Y-120521769D01*
X188811131Y-120521770D01*
X188799500Y-120580247D01*
X188799500Y-121019752D01*
X188811131Y-121078229D01*
X188811132Y-121078230D01*
X188862233Y-121154707D01*
X188858918Y-121156921D01*
X188881699Y-121198642D01*
X188876715Y-121268334D01*
X188860243Y-121293963D01*
X188862233Y-121295293D01*
X188811132Y-121371769D01*
X188811131Y-121371770D01*
X188799500Y-121430247D01*
X188799500Y-121869752D01*
X188811131Y-121928229D01*
X188811132Y-121928230D01*
X188862233Y-122004707D01*
X188858918Y-122006921D01*
X188881699Y-122048642D01*
X188876715Y-122118334D01*
X188860243Y-122143963D01*
X188862233Y-122145293D01*
X188811132Y-122221769D01*
X188811131Y-122221770D01*
X188799500Y-122280247D01*
X188799500Y-122719752D01*
X188811131Y-122778229D01*
X188811132Y-122778230D01*
X188862233Y-122854707D01*
X188858918Y-122856921D01*
X188881699Y-122898642D01*
X188876715Y-122968334D01*
X188873841Y-122975372D01*
X188862592Y-123000673D01*
X188855448Y-123005448D01*
X188811133Y-123071769D01*
X188799500Y-123130252D01*
X188799500Y-123142596D01*
X188789805Y-123164405D01*
X188779623Y-123176397D01*
X188773731Y-123190985D01*
X188757473Y-123202486D01*
X188744585Y-123217667D01*
X188729536Y-123222251D01*
X188716692Y-123231338D01*
X188696796Y-123232224D01*
X188677747Y-123238027D01*
X188662607Y-123233746D01*
X188646892Y-123234447D01*
X188628583Y-123224128D01*
X188610512Y-123219019D01*
X188601562Y-123208897D01*
X188588816Y-123201714D01*
X188576615Y-123189513D01*
X188576613Y-123189511D01*
X188473886Y-123130201D01*
X188359309Y-123099500D01*
X188240691Y-123099500D01*
X188126114Y-123130201D01*
X188126112Y-123130201D01*
X188126112Y-123130202D01*
X188023387Y-123189511D01*
X188023384Y-123189513D01*
X187939513Y-123273384D01*
X187939511Y-123273387D01*
X187887259Y-123363890D01*
X187880201Y-123376114D01*
X187849500Y-123490691D01*
X187849500Y-123609309D01*
X187880201Y-123723886D01*
X187939511Y-123826613D01*
X188023387Y-123910489D01*
X188079027Y-123942613D01*
X188127242Y-123993181D01*
X188140464Y-124061788D01*
X188114496Y-124126653D01*
X188079027Y-124157387D01*
X188023387Y-124189511D01*
X188023384Y-124189513D01*
X187939513Y-124273384D01*
X187939511Y-124273387D01*
X187893577Y-124352947D01*
X187880201Y-124376114D01*
X187849500Y-124490691D01*
X187849500Y-124609309D01*
X187880201Y-124723886D01*
X187939511Y-124826613D01*
X187939513Y-124826615D01*
X187991128Y-124878230D01*
X188024613Y-124939553D01*
X188019629Y-125009245D01*
X187991129Y-125053591D01*
X187939514Y-125105206D01*
X187939511Y-125105210D01*
X187881060Y-125206450D01*
X187880201Y-125207937D01*
X187849500Y-125322514D01*
X187849500Y-125441132D01*
X187880201Y-125555709D01*
X187939511Y-125658436D01*
X188023387Y-125742312D01*
X188023393Y-125742315D01*
X188023808Y-125742634D01*
X188024076Y-125743001D01*
X188029134Y-125748059D01*
X188028345Y-125748847D01*
X188065014Y-125799060D01*
X188069173Y-125868805D01*
X188036009Y-125928694D01*
X187986649Y-125978054D01*
X187986646Y-125978058D01*
X187931621Y-126073364D01*
X187927336Y-126080785D01*
X187896635Y-126195362D01*
X187896635Y-126313980D01*
X187927336Y-126428557D01*
X187986646Y-126531284D01*
X188070522Y-126615160D01*
X188173249Y-126674470D01*
X188287826Y-126705171D01*
X188287829Y-126705171D01*
X188360582Y-126705171D01*
X188390022Y-126713815D01*
X188420009Y-126720339D01*
X188425024Y-126724093D01*
X188427621Y-126724856D01*
X188448263Y-126741490D01*
X188612545Y-126905772D01*
X188646030Y-126967095D01*
X188641046Y-127036787D01*
X188624131Y-127067764D01*
X188562711Y-127149811D01*
X188506777Y-127191682D01*
X188463444Y-127199500D01*
X188130247Y-127199500D01*
X188071770Y-127211131D01*
X188071769Y-127211132D01*
X187995293Y-127262233D01*
X187993078Y-127258918D01*
X187951358Y-127281699D01*
X187881666Y-127276715D01*
X187856036Y-127260243D01*
X187854707Y-127262233D01*
X187778230Y-127211132D01*
X187778229Y-127211131D01*
X187719752Y-127199500D01*
X187719748Y-127199500D01*
X187280252Y-127199500D01*
X187280247Y-127199500D01*
X187221770Y-127211131D01*
X187221769Y-127211132D01*
X187145293Y-127262233D01*
X187143078Y-127258918D01*
X187101358Y-127281699D01*
X187031666Y-127276715D01*
X187006036Y-127260243D01*
X187004707Y-127262233D01*
X186928230Y-127211132D01*
X186928229Y-127211131D01*
X186869752Y-127199500D01*
X186869748Y-127199500D01*
X186430252Y-127199500D01*
X186430247Y-127199500D01*
X186371770Y-127211131D01*
X186371769Y-127211132D01*
X186295293Y-127262233D01*
X186293078Y-127258918D01*
X186251358Y-127281699D01*
X186181666Y-127276715D01*
X186156036Y-127260243D01*
X186154707Y-127262233D01*
X186078230Y-127211132D01*
X186078229Y-127211131D01*
X186019752Y-127199500D01*
X186019748Y-127199500D01*
X185580252Y-127199500D01*
X185580247Y-127199500D01*
X185521770Y-127211131D01*
X185521769Y-127211132D01*
X185445293Y-127262233D01*
X185443078Y-127258918D01*
X185401358Y-127281699D01*
X185331666Y-127276715D01*
X185306036Y-127260243D01*
X185304707Y-127262233D01*
X185228230Y-127211132D01*
X185228229Y-127211131D01*
X185169752Y-127199500D01*
X185169748Y-127199500D01*
X184730252Y-127199500D01*
X184730247Y-127199500D01*
X184671770Y-127211131D01*
X184671769Y-127211132D01*
X184595293Y-127262233D01*
X184593078Y-127258918D01*
X184551358Y-127281699D01*
X184481666Y-127276715D01*
X184456036Y-127260243D01*
X184454707Y-127262233D01*
X184378230Y-127211132D01*
X184378229Y-127211131D01*
X184319752Y-127199500D01*
X184319748Y-127199500D01*
X183880252Y-127199500D01*
X183880247Y-127199500D01*
X183821770Y-127211131D01*
X183821769Y-127211132D01*
X183745293Y-127262233D01*
X183743078Y-127258918D01*
X183701358Y-127281699D01*
X183631666Y-127276715D01*
X183606036Y-127260243D01*
X183604707Y-127262233D01*
X183528230Y-127211132D01*
X183528229Y-127211131D01*
X183469752Y-127199500D01*
X183469748Y-127199500D01*
X183030252Y-127199500D01*
X183030247Y-127199500D01*
X182971770Y-127211131D01*
X182971769Y-127211132D01*
X182895293Y-127262233D01*
X182893078Y-127258918D01*
X182851358Y-127281699D01*
X182781666Y-127276715D01*
X182756036Y-127260243D01*
X182754707Y-127262233D01*
X182678230Y-127211132D01*
X182678229Y-127211131D01*
X182619752Y-127199500D01*
X182619748Y-127199500D01*
X182180252Y-127199500D01*
X182180247Y-127199500D01*
X182121770Y-127211131D01*
X182121769Y-127211132D01*
X182045293Y-127262233D01*
X182043078Y-127258918D01*
X182001358Y-127281699D01*
X181931666Y-127276715D01*
X181906036Y-127260243D01*
X181904707Y-127262233D01*
X181828230Y-127211132D01*
X181828229Y-127211131D01*
X181769752Y-127199500D01*
X181769748Y-127199500D01*
X181330252Y-127199500D01*
X181330247Y-127199500D01*
X181271770Y-127211131D01*
X181271769Y-127211132D01*
X181195293Y-127262233D01*
X181193078Y-127258918D01*
X181151358Y-127281699D01*
X181081666Y-127276715D01*
X181056036Y-127260243D01*
X181054707Y-127262233D01*
X180978230Y-127211132D01*
X180978229Y-127211131D01*
X180919752Y-127199500D01*
X180919748Y-127199500D01*
X180480252Y-127199500D01*
X180480247Y-127199500D01*
X180421770Y-127211131D01*
X180421769Y-127211132D01*
X180345293Y-127262233D01*
X180343078Y-127258918D01*
X180301358Y-127281699D01*
X180231666Y-127276715D01*
X180206036Y-127260243D01*
X180204707Y-127262233D01*
X180128230Y-127211132D01*
X180128229Y-127211131D01*
X180069752Y-127199500D01*
X180069748Y-127199500D01*
X179630252Y-127199500D01*
X179630247Y-127199500D01*
X179571770Y-127211131D01*
X179571769Y-127211132D01*
X179495293Y-127262233D01*
X179493078Y-127258918D01*
X179451358Y-127281699D01*
X179381666Y-127276715D01*
X179356036Y-127260243D01*
X179354707Y-127262233D01*
X179278230Y-127211132D01*
X179278229Y-127211131D01*
X179219752Y-127199500D01*
X179219748Y-127199500D01*
X178780252Y-127199500D01*
X178780247Y-127199500D01*
X178721770Y-127211131D01*
X178721769Y-127211132D01*
X178645293Y-127262233D01*
X178643078Y-127258918D01*
X178601358Y-127281699D01*
X178531666Y-127276715D01*
X178506036Y-127260243D01*
X178504707Y-127262233D01*
X178428230Y-127211132D01*
X178428229Y-127211131D01*
X178369752Y-127199500D01*
X178369748Y-127199500D01*
X177930252Y-127199500D01*
X177930247Y-127199500D01*
X177871770Y-127211131D01*
X177871769Y-127211132D01*
X177795293Y-127262233D01*
X177793078Y-127258918D01*
X177751358Y-127281699D01*
X177681666Y-127276715D01*
X177656036Y-127260243D01*
X177654707Y-127262233D01*
X177578230Y-127211132D01*
X177578229Y-127211131D01*
X177519752Y-127199500D01*
X177519748Y-127199500D01*
X177080252Y-127199500D01*
X177080247Y-127199500D01*
X177021770Y-127211131D01*
X177021769Y-127211132D01*
X176945293Y-127262233D01*
X176943078Y-127258918D01*
X176901358Y-127281699D01*
X176831666Y-127276715D01*
X176806036Y-127260243D01*
X176804707Y-127262233D01*
X176728230Y-127211132D01*
X176728229Y-127211131D01*
X176669752Y-127199500D01*
X176669748Y-127199500D01*
X176336556Y-127199500D01*
X176269517Y-127179815D01*
X176237290Y-127149811D01*
X176157190Y-127042813D01*
X176065648Y-126974284D01*
X176023777Y-126918350D01*
X176018793Y-126848658D01*
X176052276Y-126787338D01*
X176302796Y-126536819D01*
X176364119Y-126503334D01*
X176390477Y-126500500D01*
X176459306Y-126500500D01*
X176459309Y-126500500D01*
X176573886Y-126469799D01*
X176676613Y-126410489D01*
X176760489Y-126326613D01*
X176819799Y-126223886D01*
X176850500Y-126109309D01*
X176850500Y-125990691D01*
X176819799Y-125876114D01*
X176760489Y-125773387D01*
X176676613Y-125689511D01*
X176573886Y-125630201D01*
X176459309Y-125599500D01*
X176340691Y-125599500D01*
X176235505Y-125627684D01*
X176226110Y-125630202D01*
X176159557Y-125668627D01*
X176154981Y-125669737D01*
X176151490Y-125672897D01*
X176121349Y-125677896D01*
X176091657Y-125685100D01*
X176087206Y-125683559D01*
X176082562Y-125684330D01*
X176054501Y-125672240D01*
X176025630Y-125662247D01*
X176021521Y-125658029D01*
X176018395Y-125656683D01*
X175995896Y-125631730D01*
X175994712Y-125630515D01*
X175988886Y-125621866D01*
X175988867Y-125621769D01*
X175944552Y-125555448D01*
X175943817Y-125554957D01*
X175936622Y-125544275D01*
X175929533Y-125521928D01*
X175918301Y-125501358D01*
X175919166Y-125489248D01*
X175915496Y-125477676D01*
X175921612Y-125455048D01*
X175923285Y-125431666D01*
X175931308Y-125419181D01*
X175933729Y-125410227D01*
X175938952Y-125405499D01*
X175937767Y-125404707D01*
X175953869Y-125380609D01*
X176007482Y-125335804D01*
X176056971Y-125325500D01*
X179647036Y-125325500D01*
X179714075Y-125345185D01*
X179734717Y-125361819D01*
X179783387Y-125410489D01*
X179886114Y-125469799D01*
X180000691Y-125500500D01*
X180000694Y-125500500D01*
X180119306Y-125500500D01*
X180119309Y-125500500D01*
X180233886Y-125469799D01*
X180336613Y-125410489D01*
X180420489Y-125326613D01*
X180479799Y-125223886D01*
X180510500Y-125109309D01*
X180510500Y-124990691D01*
X180479799Y-124876114D01*
X180420489Y-124773387D01*
X180359783Y-124712681D01*
X180326298Y-124651358D01*
X180331282Y-124581666D01*
X180359783Y-124537319D01*
X180385283Y-124511819D01*
X180420489Y-124476613D01*
X180479799Y-124373886D01*
X180510500Y-124259309D01*
X180510500Y-124140691D01*
X180479799Y-124026114D01*
X180420489Y-123923387D01*
X180336613Y-123839511D01*
X180233886Y-123780201D01*
X180119309Y-123749500D01*
X180000691Y-123749500D01*
X179886114Y-123780201D01*
X179886112Y-123780201D01*
X179886112Y-123780202D01*
X179783387Y-123839511D01*
X179783384Y-123839513D01*
X179734717Y-123888181D01*
X179673394Y-123921666D01*
X179647036Y-123924500D01*
X176056971Y-123924500D01*
X176050106Y-123922484D01*
X176043058Y-123923717D01*
X176017023Y-123912770D01*
X175989932Y-123904815D01*
X175983679Y-123898749D01*
X175978651Y-123896635D01*
X175957273Y-123873133D01*
X175954739Y-123870675D01*
X175954269Y-123869990D01*
X175944552Y-123855448D01*
X175944061Y-123855120D01*
X175937235Y-123845175D01*
X175929787Y-123822393D01*
X175918301Y-123801358D01*
X175919128Y-123789789D01*
X175915524Y-123778764D01*
X175921575Y-123755571D01*
X175923285Y-123731666D01*
X175930907Y-123719805D01*
X175933164Y-123711158D01*
X175939158Y-123705636D01*
X175937767Y-123704707D01*
X175958735Y-123673324D01*
X175988867Y-123628231D01*
X175988867Y-123628229D01*
X175988868Y-123628229D01*
X176000499Y-123569752D01*
X176000500Y-123569750D01*
X176000500Y-123130249D01*
X176000499Y-123130247D01*
X175988868Y-123071770D01*
X175988867Y-123071769D01*
X175937767Y-122995293D01*
X175941081Y-122993078D01*
X175918301Y-122951358D01*
X175923285Y-122881666D01*
X175939756Y-122856036D01*
X175937767Y-122854707D01*
X175975234Y-122798634D01*
X175988867Y-122778231D01*
X175988867Y-122778229D01*
X175988868Y-122778229D01*
X176000499Y-122719752D01*
X176000500Y-122719750D01*
X176000500Y-122280249D01*
X176000499Y-122280247D01*
X175988868Y-122221770D01*
X175988867Y-122221769D01*
X175937767Y-122145293D01*
X175941081Y-122143078D01*
X175918301Y-122101358D01*
X175923285Y-122031666D01*
X175939756Y-122006036D01*
X175937767Y-122004707D01*
X175958735Y-121973324D01*
X175988867Y-121928231D01*
X175988867Y-121928229D01*
X175988868Y-121928229D01*
X176000499Y-121869752D01*
X176000500Y-121869750D01*
X176000500Y-121430249D01*
X176000499Y-121430247D01*
X175988868Y-121371770D01*
X175988867Y-121371769D01*
X175937767Y-121295293D01*
X175941081Y-121293078D01*
X175918301Y-121251358D01*
X175923285Y-121181666D01*
X175939756Y-121156036D01*
X175937767Y-121154707D01*
X175972410Y-121102860D01*
X175988867Y-121078231D01*
X175988867Y-121078229D01*
X175988868Y-121078229D01*
X176000499Y-121019752D01*
X176000500Y-121019750D01*
X176000500Y-120580249D01*
X176000499Y-120580247D01*
X175988868Y-120521770D01*
X175988867Y-120521769D01*
X175937767Y-120445293D01*
X175941081Y-120443078D01*
X175918301Y-120401358D01*
X175923285Y-120331666D01*
X175939756Y-120306036D01*
X175937767Y-120304707D01*
X175982185Y-120238231D01*
X175988867Y-120228231D01*
X175988867Y-120228229D01*
X175988868Y-120228229D01*
X176000499Y-120169752D01*
X176000500Y-120169750D01*
X176000500Y-119730249D01*
X176000499Y-119730247D01*
X175988868Y-119671770D01*
X175988867Y-119671769D01*
X175937767Y-119595293D01*
X175941081Y-119593078D01*
X175918301Y-119551358D01*
X175923285Y-119481666D01*
X175939756Y-119456036D01*
X175937767Y-119454707D01*
X175966424Y-119411819D01*
X175988867Y-119378231D01*
X175988867Y-119378229D01*
X175988868Y-119378229D01*
X176000499Y-119319752D01*
X176000500Y-119319750D01*
X176000500Y-118880249D01*
X176000499Y-118880247D01*
X175988868Y-118821770D01*
X175988867Y-118821769D01*
X175969998Y-118793529D01*
X175949120Y-118726851D01*
X175967605Y-118659471D01*
X176019584Y-118612781D01*
X176088554Y-118601605D01*
X176135101Y-118617252D01*
X176226108Y-118669796D01*
X176226109Y-118669797D01*
X176226111Y-118669797D01*
X176226114Y-118669799D01*
X176340691Y-118700500D01*
X176340694Y-118700500D01*
X176459306Y-118700500D01*
X176459309Y-118700500D01*
X176573886Y-118669799D01*
X176676613Y-118610489D01*
X176676614Y-118610487D01*
X176683651Y-118606425D01*
X176684573Y-118608022D01*
X176740167Y-118586522D01*
X176808613Y-118600552D01*
X176858609Y-118649359D01*
X176874500Y-118710091D01*
X176874500Y-120612035D01*
X176854815Y-120679074D01*
X176838182Y-120699716D01*
X176764511Y-120773387D01*
X176705201Y-120876114D01*
X176674500Y-120990691D01*
X176674500Y-121109309D01*
X176705201Y-121223886D01*
X176764511Y-121326613D01*
X176848387Y-121410489D01*
X176951114Y-121469799D01*
X177065691Y-121500500D01*
X177065694Y-121500500D01*
X177184306Y-121500500D01*
X177184309Y-121500500D01*
X177298886Y-121469799D01*
X177401613Y-121410489D01*
X177485489Y-121326613D01*
X177544799Y-121223886D01*
X177575500Y-121109309D01*
X177575500Y-120990691D01*
X177544799Y-120876114D01*
X177485489Y-120773387D01*
X177461819Y-120749717D01*
X177428334Y-120688394D01*
X177425500Y-120662036D01*
X177425500Y-117745201D01*
X177425500Y-117745200D01*
X177383557Y-117643942D01*
X177383557Y-117643941D01*
X176906058Y-117166443D01*
X176804800Y-117124500D01*
X176056971Y-117124500D01*
X176050106Y-117122484D01*
X176043058Y-117123717D01*
X176017023Y-117112770D01*
X175989932Y-117104815D01*
X175983679Y-117098749D01*
X175978651Y-117096635D01*
X175957273Y-117073133D01*
X175954739Y-117070675D01*
X175954269Y-117069990D01*
X175944552Y-117055448D01*
X175944061Y-117055120D01*
X175937235Y-117045175D01*
X175929787Y-117022393D01*
X175918301Y-117001358D01*
X175919128Y-116989789D01*
X175915524Y-116978764D01*
X175921575Y-116955571D01*
X175923285Y-116931666D01*
X175930907Y-116919805D01*
X175933164Y-116911158D01*
X175939158Y-116905636D01*
X175937767Y-116904707D01*
X175961867Y-116868638D01*
X175988867Y-116828231D01*
X175988867Y-116828229D01*
X175988868Y-116828229D01*
X175994912Y-116797844D01*
X188500000Y-116797844D01*
X188506401Y-116857372D01*
X188506403Y-116857382D01*
X188534110Y-116931668D01*
X188539094Y-117001359D01*
X188534110Y-117018332D01*
X188506403Y-117092617D01*
X188506401Y-117092627D01*
X188500000Y-117152155D01*
X188500000Y-117200000D01*
X189200000Y-117200000D01*
X189600000Y-117200000D01*
X190300000Y-117200000D01*
X190300000Y-117152172D01*
X190299999Y-117152155D01*
X190293598Y-117092628D01*
X190265888Y-117018334D01*
X190260904Y-116948642D01*
X190265888Y-116931666D01*
X190293598Y-116857371D01*
X190299999Y-116797844D01*
X190300000Y-116797827D01*
X190300000Y-116750000D01*
X189600000Y-116750000D01*
X189600000Y-117200000D01*
X189200000Y-117200000D01*
X189200000Y-116750000D01*
X188500000Y-116750000D01*
X188500000Y-116797844D01*
X175994912Y-116797844D01*
X176000499Y-116769752D01*
X176000500Y-116769750D01*
X176000500Y-116436556D01*
X176020185Y-116369517D01*
X176050189Y-116337290D01*
X176157187Y-116257190D01*
X176157190Y-116257187D01*
X176243350Y-116142093D01*
X176243354Y-116142086D01*
X176293596Y-116007379D01*
X176293598Y-116007372D01*
X176299999Y-115947844D01*
X176300000Y-115947827D01*
X176300000Y-115900000D01*
X175524000Y-115900000D01*
X175456961Y-115880315D01*
X175411206Y-115827511D01*
X175400000Y-115776000D01*
X175400000Y-115700000D01*
X175324000Y-115700000D01*
X175256961Y-115680315D01*
X175211206Y-115627511D01*
X175200000Y-115576000D01*
X175200000Y-115500000D01*
X175600000Y-115500000D01*
X176300000Y-115500000D01*
X176300000Y-115452172D01*
X176299999Y-115452155D01*
X176293598Y-115392628D01*
X176265888Y-115318334D01*
X176260904Y-115248642D01*
X176265888Y-115231666D01*
X176293598Y-115157371D01*
X176299999Y-115097844D01*
X176300000Y-115097827D01*
X176300000Y-115050000D01*
X175600000Y-115050000D01*
X175600000Y-115500000D01*
X175200000Y-115500000D01*
X175200000Y-115050000D01*
X174500000Y-115050000D01*
X174500000Y-115097844D01*
X174506401Y-115157372D01*
X174506403Y-115157382D01*
X174534110Y-115231668D01*
X174539094Y-115301359D01*
X174534110Y-115318332D01*
X174506403Y-115392617D01*
X174506401Y-115392627D01*
X174500000Y-115452155D01*
X174500000Y-115529098D01*
X174480315Y-115596137D01*
X174427511Y-115641892D01*
X174358353Y-115651836D01*
X174294797Y-115622811D01*
X174288319Y-115616779D01*
X174218316Y-115546776D01*
X174109487Y-115496028D01*
X174109485Y-115496027D01*
X174109486Y-115496027D01*
X174059902Y-115489500D01*
X173700102Y-115489500D01*
X173691746Y-115490600D01*
X173690459Y-115490769D01*
X173621425Y-115480001D01*
X173583658Y-115452468D01*
X173526936Y-115391736D01*
X173512160Y-115362332D01*
X173496392Y-115333456D01*
X173496548Y-115331267D01*
X173495563Y-115329306D01*
X173499029Y-115296578D01*
X173501376Y-115263764D01*
X173501377Y-115263764D01*
X173533595Y-115177383D01*
X173533598Y-115177372D01*
X173539999Y-115117844D01*
X173540000Y-115117827D01*
X173540000Y-114700000D01*
X176650000Y-114700000D01*
X176697828Y-114700000D01*
X176697844Y-114699999D01*
X176757371Y-114693598D01*
X176831666Y-114665888D01*
X176901358Y-114660904D01*
X176918334Y-114665888D01*
X176992628Y-114693598D01*
X176992627Y-114693598D01*
X177052155Y-114699999D01*
X177052172Y-114700000D01*
X177100000Y-114700000D01*
X177500000Y-114700000D01*
X177547828Y-114700000D01*
X177547844Y-114699999D01*
X177607371Y-114693598D01*
X177681666Y-114665888D01*
X177751358Y-114660904D01*
X177768334Y-114665888D01*
X177842628Y-114693598D01*
X177842627Y-114693598D01*
X177902155Y-114699999D01*
X177902172Y-114700000D01*
X177950000Y-114700000D01*
X178350000Y-114700000D01*
X178397828Y-114700000D01*
X178397844Y-114699999D01*
X178457371Y-114693598D01*
X178531666Y-114665888D01*
X178601358Y-114660904D01*
X178618334Y-114665888D01*
X178692628Y-114693598D01*
X178692627Y-114693598D01*
X178752155Y-114699999D01*
X178752172Y-114700000D01*
X178800000Y-114700000D01*
X179200000Y-114700000D01*
X179247828Y-114700000D01*
X179247844Y-114699999D01*
X179307371Y-114693598D01*
X179381666Y-114665888D01*
X179451358Y-114660904D01*
X179468334Y-114665888D01*
X179542628Y-114693598D01*
X179542627Y-114693598D01*
X179602155Y-114699999D01*
X179602172Y-114700000D01*
X179650000Y-114700000D01*
X180050000Y-114700000D01*
X180097828Y-114700000D01*
X180097844Y-114699999D01*
X180157371Y-114693598D01*
X180231666Y-114665888D01*
X180301358Y-114660904D01*
X180318334Y-114665888D01*
X180392628Y-114693598D01*
X180392627Y-114693598D01*
X180452155Y-114699999D01*
X180452172Y-114700000D01*
X180500000Y-114700000D01*
X180900000Y-114700000D01*
X180947828Y-114700000D01*
X180947844Y-114699999D01*
X181007371Y-114693598D01*
X181081666Y-114665888D01*
X181151358Y-114660904D01*
X181168334Y-114665888D01*
X181242628Y-114693598D01*
X181242627Y-114693598D01*
X181302155Y-114699999D01*
X181302172Y-114700000D01*
X181350000Y-114700000D01*
X181750000Y-114700000D01*
X181797828Y-114700000D01*
X181797844Y-114699999D01*
X181857371Y-114693598D01*
X181931666Y-114665888D01*
X182001358Y-114660904D01*
X182018334Y-114665888D01*
X182092628Y-114693598D01*
X182092627Y-114693598D01*
X182152155Y-114699999D01*
X182152172Y-114700000D01*
X182200000Y-114700000D01*
X182600000Y-114700000D01*
X182647828Y-114700000D01*
X182647844Y-114699999D01*
X182707371Y-114693598D01*
X182781666Y-114665888D01*
X182851358Y-114660904D01*
X182868334Y-114665888D01*
X182942628Y-114693598D01*
X182942627Y-114693598D01*
X183002155Y-114699999D01*
X183002172Y-114700000D01*
X183050000Y-114700000D01*
X183450000Y-114700000D01*
X183497828Y-114700000D01*
X183497844Y-114699999D01*
X183557371Y-114693598D01*
X183631666Y-114665888D01*
X183701358Y-114660904D01*
X183718334Y-114665888D01*
X183792628Y-114693598D01*
X183792627Y-114693598D01*
X183852155Y-114699999D01*
X183852172Y-114700000D01*
X183900000Y-114700000D01*
X184300000Y-114700000D01*
X184347828Y-114700000D01*
X184347844Y-114699999D01*
X184407371Y-114693598D01*
X184481666Y-114665888D01*
X184551358Y-114660904D01*
X184568334Y-114665888D01*
X184642628Y-114693598D01*
X184642627Y-114693598D01*
X184702155Y-114699999D01*
X184702172Y-114700000D01*
X184750000Y-114700000D01*
X185150000Y-114700000D01*
X185197828Y-114700000D01*
X185197844Y-114699999D01*
X185257371Y-114693598D01*
X185331666Y-114665888D01*
X185401358Y-114660904D01*
X185418334Y-114665888D01*
X185492628Y-114693598D01*
X185492627Y-114693598D01*
X185552155Y-114699999D01*
X185552172Y-114700000D01*
X185600000Y-114700000D01*
X186000000Y-114700000D01*
X186047828Y-114700000D01*
X186047844Y-114699999D01*
X186107371Y-114693598D01*
X186181666Y-114665888D01*
X186251358Y-114660904D01*
X186268334Y-114665888D01*
X186342628Y-114693598D01*
X186342627Y-114693598D01*
X186402155Y-114699999D01*
X186402172Y-114700000D01*
X186450000Y-114700000D01*
X186850000Y-114700000D01*
X186897828Y-114700000D01*
X186897844Y-114699999D01*
X186957371Y-114693598D01*
X187031666Y-114665888D01*
X187101358Y-114660904D01*
X187118334Y-114665888D01*
X187192628Y-114693598D01*
X187192627Y-114693598D01*
X187252155Y-114699999D01*
X187252172Y-114700000D01*
X187300000Y-114700000D01*
X187700000Y-114700000D01*
X187747828Y-114700000D01*
X187747844Y-114699999D01*
X187807371Y-114693598D01*
X187881666Y-114665888D01*
X187951358Y-114660904D01*
X187968334Y-114665888D01*
X188042628Y-114693598D01*
X188042627Y-114693598D01*
X188102155Y-114699999D01*
X188102172Y-114700000D01*
X188150000Y-114700000D01*
X188150000Y-114000000D01*
X187700000Y-114000000D01*
X187700000Y-114700000D01*
X187300000Y-114700000D01*
X187300000Y-114000000D01*
X186850000Y-114000000D01*
X186850000Y-114700000D01*
X186450000Y-114700000D01*
X186450000Y-114000000D01*
X186000000Y-114000000D01*
X186000000Y-114700000D01*
X185600000Y-114700000D01*
X185600000Y-114000000D01*
X185150000Y-114000000D01*
X185150000Y-114700000D01*
X184750000Y-114700000D01*
X184750000Y-114000000D01*
X184300000Y-114000000D01*
X184300000Y-114700000D01*
X183900000Y-114700000D01*
X183900000Y-114000000D01*
X183450000Y-114000000D01*
X183450000Y-114700000D01*
X183050000Y-114700000D01*
X183050000Y-114000000D01*
X182600000Y-114000000D01*
X182600000Y-114700000D01*
X182200000Y-114700000D01*
X182200000Y-114000000D01*
X181750000Y-114000000D01*
X181750000Y-114700000D01*
X181350000Y-114700000D01*
X181350000Y-114000000D01*
X180900000Y-114000000D01*
X180900000Y-114700000D01*
X180500000Y-114700000D01*
X180500000Y-114000000D01*
X180050000Y-114000000D01*
X180050000Y-114700000D01*
X179650000Y-114700000D01*
X179650000Y-114000000D01*
X179200000Y-114000000D01*
X179200000Y-114700000D01*
X178800000Y-114700000D01*
X178800000Y-114000000D01*
X178350000Y-114000000D01*
X178350000Y-114700000D01*
X177950000Y-114700000D01*
X177950000Y-114000000D01*
X177500000Y-114000000D01*
X177500000Y-114700000D01*
X177100000Y-114700000D01*
X177100000Y-114000000D01*
X176650000Y-114000000D01*
X176650000Y-114700000D01*
X173540000Y-114700000D01*
X173540000Y-114520000D01*
X172555686Y-114520000D01*
X172560080Y-114515606D01*
X172612741Y-114424394D01*
X172640000Y-114322661D01*
X172640000Y-114247844D01*
X174500000Y-114247844D01*
X174506401Y-114307372D01*
X174506403Y-114307382D01*
X174534110Y-114381668D01*
X174539094Y-114451359D01*
X174534110Y-114468332D01*
X174506403Y-114542617D01*
X174506401Y-114542627D01*
X174500000Y-114602155D01*
X174500000Y-114650000D01*
X175150000Y-114650000D01*
X175650000Y-114650000D01*
X176250000Y-114650000D01*
X176250000Y-114050000D01*
X175650000Y-114050000D01*
X175650000Y-114650000D01*
X175150000Y-114650000D01*
X175150000Y-114050000D01*
X174500000Y-114050000D01*
X174500000Y-114247844D01*
X172640000Y-114247844D01*
X172640000Y-114217339D01*
X172612741Y-114115606D01*
X172560080Y-114024394D01*
X172555686Y-114020000D01*
X173540000Y-114020000D01*
X173540000Y-113422172D01*
X173539999Y-113422155D01*
X173533598Y-113362627D01*
X173533596Y-113362620D01*
X173483354Y-113227913D01*
X173483352Y-113227910D01*
X173461569Y-113198812D01*
X173437151Y-113133348D01*
X173452002Y-113065075D01*
X173501406Y-113015669D01*
X173560835Y-113000500D01*
X174436764Y-113000500D01*
X174503803Y-113020185D01*
G37*
%TD.AperFunction*%
%TA.AperFunction,Conductor*%
G36*
X173125677Y-116019685D02*
G01*
X173146319Y-116036319D01*
X173153681Y-116043681D01*
X173187166Y-116105004D01*
X173190000Y-116131362D01*
X173190000Y-117804503D01*
X173272371Y-117780574D01*
X173342241Y-117780773D01*
X173400911Y-117818715D01*
X173426740Y-117867554D01*
X173433608Y-117893186D01*
X173499500Y-118007314D01*
X173592686Y-118100500D01*
X173706814Y-118166392D01*
X173834108Y-118200500D01*
X173834110Y-118200500D01*
X173965890Y-118200500D01*
X173965892Y-118200500D01*
X174093186Y-118166392D01*
X174207314Y-118100500D01*
X174300500Y-118007314D01*
X174366392Y-117893186D01*
X174400500Y-117765892D01*
X174400500Y-117634108D01*
X174366392Y-117506814D01*
X174339058Y-117459471D01*
X174322586Y-117391573D01*
X174334062Y-117345073D01*
X174373972Y-117259487D01*
X174380500Y-117209901D01*
X174380499Y-117074499D01*
X174383049Y-117065814D01*
X174381761Y-117056853D01*
X174392738Y-117032815D01*
X174400183Y-117007461D01*
X174407025Y-117001532D01*
X174410786Y-116993297D01*
X174433017Y-116979010D01*
X174452987Y-116961706D01*
X174463502Y-116959418D01*
X174469564Y-116955523D01*
X174504499Y-116950500D01*
X174696496Y-116950500D01*
X174763535Y-116970185D01*
X174809290Y-117022989D01*
X174819234Y-117092147D01*
X174811199Y-117121432D01*
X174799500Y-117180247D01*
X174799500Y-117619752D01*
X174811131Y-117678229D01*
X174811132Y-117678230D01*
X174862233Y-117754707D01*
X174858918Y-117756921D01*
X174881699Y-117798642D01*
X174876715Y-117868334D01*
X174860243Y-117893963D01*
X174862233Y-117895293D01*
X174811132Y-117971769D01*
X174811131Y-117971770D01*
X174799500Y-118030247D01*
X174799500Y-118469752D01*
X174808509Y-118515044D01*
X174802282Y-118584636D01*
X174759418Y-118639813D01*
X174693528Y-118663057D01*
X174654802Y-118659010D01*
X174619309Y-118649500D01*
X174500691Y-118649500D01*
X174386114Y-118680201D01*
X174386112Y-118680201D01*
X174386112Y-118680202D01*
X174283387Y-118739511D01*
X174283384Y-118739513D01*
X174199513Y-118823384D01*
X174199511Y-118823387D01*
X174166683Y-118880247D01*
X174140201Y-118926114D01*
X174109500Y-119040691D01*
X174109500Y-119040693D01*
X174109500Y-119109523D01*
X174089815Y-119176562D01*
X174073181Y-119197204D01*
X174026444Y-119243940D01*
X173984500Y-119345199D01*
X173984500Y-119834521D01*
X173964815Y-119901560D01*
X173948181Y-119922202D01*
X172871654Y-120998728D01*
X172810331Y-121032213D01*
X172740639Y-121027229D01*
X172715079Y-121014146D01*
X172713914Y-121013368D01*
X172713910Y-121013366D01*
X172713906Y-121013364D01*
X172531839Y-120937950D01*
X172531829Y-120937947D01*
X172340308Y-120899851D01*
X172278397Y-120867466D01*
X172243823Y-120806750D01*
X172240500Y-120778234D01*
X172240500Y-120484500D01*
X172260185Y-120417461D01*
X172312989Y-120371706D01*
X172364500Y-120360500D01*
X173059750Y-120360500D01*
X173059751Y-120360499D01*
X173074568Y-120357552D01*
X173118229Y-120348868D01*
X173118229Y-120348867D01*
X173118231Y-120348867D01*
X173184552Y-120304552D01*
X173228867Y-120238231D01*
X173228867Y-120238229D01*
X173228868Y-120238229D01*
X173240499Y-120179752D01*
X173240500Y-120179750D01*
X173240500Y-118540249D01*
X173240499Y-118540247D01*
X173228868Y-118481770D01*
X173228867Y-118481769D01*
X173184552Y-118415447D01*
X173118230Y-118371132D01*
X173118229Y-118371131D01*
X173059752Y-118359500D01*
X173059748Y-118359500D01*
X172364500Y-118359500D01*
X172297461Y-118339815D01*
X172251706Y-118287011D01*
X172240500Y-118235500D01*
X172240500Y-117800052D01*
X172260185Y-117733013D01*
X172312989Y-117687258D01*
X172382147Y-117677314D01*
X172427622Y-117693320D01*
X172543806Y-117762032D01*
X172690000Y-117804504D01*
X172690000Y-116926433D01*
X172672834Y-116894996D01*
X172670000Y-116868638D01*
X172670000Y-116124000D01*
X172689685Y-116056961D01*
X172742489Y-116011206D01*
X172794000Y-116000000D01*
X173058638Y-116000000D01*
X173125677Y-116019685D01*
G37*
%TD.AperFunction*%
%TD*%
M02*
