%TF.GenerationSoftware,KiCad,Pcbnew,9.0.7-9.0.7~ubuntu22.04.1*%
%TF.CreationDate,2026-02-25T11:11:37-07:00*%
%TF.ProjectId,ESP32-S3-MINI-1U_UU,45535033-322d-4533-932d-4d494e492d31,rev?*%
%TF.SameCoordinates,Original*%
%TF.FileFunction,Legend,Top*%
%TF.FilePolarity,Positive*%
%FSLAX46Y46*%
G04 Gerber Fmt 4.6, Leading zero omitted, Abs format (unit mm)*
G04 Created by KiCad (PCBNEW 9.0.7-9.0.7~ubuntu22.04.1) date 2026-02-25 11:11:37*
%MOMM*%
%LPD*%
G01*
G04 APERTURE LIST*
%ADD10C,0.100000*%
%ADD11C,0.200000*%
%ADD12C,0.120000*%
%ADD13C,0.127000*%
%ADD14C,0.254000*%
G04 APERTURE END LIST*
D10*
X188700000Y-131000000D02*
X186400000Y-131000000D01*
X178400000Y-128800000D02*
X175800000Y-128800000D01*
X186450000Y-139700000D02*
X188750000Y-139700000D01*
X178400000Y-131200000D02*
X178400000Y-128800000D01*
X186400000Y-128800000D02*
X188700000Y-128800000D01*
X175950000Y-139800000D02*
X178250000Y-139800000D01*
X186450000Y-142800000D02*
X188750000Y-142800000D01*
X188900000Y-131800000D02*
X188900000Y-148400000D01*
X186400000Y-131000000D02*
X186400000Y-128800000D01*
X175800000Y-128800000D02*
X175800000Y-131200000D01*
X175650000Y-131800000D02*
X175650000Y-148400000D01*
X188700000Y-128800000D02*
X188700000Y-131000000D01*
X175800000Y-131200000D02*
X178400000Y-131200000D01*
X173526390Y-147346741D02*
X173526390Y-147061027D01*
X173526390Y-147203884D02*
X174026390Y-147203884D01*
X174026390Y-147203884D02*
X173954961Y-147156265D01*
X173954961Y-147156265D02*
X173907342Y-147108646D01*
X173907342Y-147108646D02*
X173883533Y-147061027D01*
X173859723Y-147775312D02*
X173526390Y-147775312D01*
X174050200Y-147656264D02*
X173693057Y-147537217D01*
X173693057Y-147537217D02*
X173693057Y-147846740D01*
X191293609Y-127615163D02*
X190793609Y-127615163D01*
X190793609Y-127615163D02*
X191150752Y-127448496D01*
X191150752Y-127448496D02*
X190793609Y-127281830D01*
X190793609Y-127281830D02*
X191293609Y-127281830D01*
X190793609Y-127115162D02*
X190793609Y-126829448D01*
X191293609Y-126972305D02*
X190793609Y-126972305D01*
X191293609Y-126662782D02*
X190793609Y-126662782D01*
X190793609Y-126662782D02*
X190793609Y-126543734D01*
X190793609Y-126543734D02*
X190817419Y-126472306D01*
X190817419Y-126472306D02*
X190865038Y-126424687D01*
X190865038Y-126424687D02*
X190912657Y-126400877D01*
X190912657Y-126400877D02*
X191007895Y-126377068D01*
X191007895Y-126377068D02*
X191079323Y-126377068D01*
X191079323Y-126377068D02*
X191174561Y-126400877D01*
X191174561Y-126400877D02*
X191222180Y-126424687D01*
X191222180Y-126424687D02*
X191269800Y-126472306D01*
X191269800Y-126472306D02*
X191293609Y-126543734D01*
X191293609Y-126543734D02*
X191293609Y-126662782D01*
X191293609Y-126162782D02*
X190793609Y-126162782D01*
X173978771Y-121561027D02*
X174002580Y-121584836D01*
X174002580Y-121584836D02*
X174026390Y-121632455D01*
X174026390Y-121632455D02*
X174026390Y-121751503D01*
X174026390Y-121751503D02*
X174002580Y-121799122D01*
X174002580Y-121799122D02*
X173978771Y-121822931D01*
X173978771Y-121822931D02*
X173931152Y-121846741D01*
X173931152Y-121846741D02*
X173883533Y-121846741D01*
X173883533Y-121846741D02*
X173812104Y-121822931D01*
X173812104Y-121822931D02*
X173526390Y-121537217D01*
X173526390Y-121537217D02*
X173526390Y-121846741D01*
X174026390Y-134437217D02*
X174026390Y-134770550D01*
X174026390Y-134770550D02*
X173526390Y-134556265D01*
X190793609Y-142562782D02*
X190793609Y-142253258D01*
X190793609Y-142253258D02*
X190984085Y-142419925D01*
X190984085Y-142419925D02*
X190984085Y-142348496D01*
X190984085Y-142348496D02*
X191007895Y-142300877D01*
X191007895Y-142300877D02*
X191031704Y-142277068D01*
X191031704Y-142277068D02*
X191079323Y-142253258D01*
X191079323Y-142253258D02*
X191198371Y-142253258D01*
X191198371Y-142253258D02*
X191245990Y-142277068D01*
X191245990Y-142277068D02*
X191269800Y-142300877D01*
X191269800Y-142300877D02*
X191293609Y-142348496D01*
X191293609Y-142348496D02*
X191293609Y-142491353D01*
X191293609Y-142491353D02*
X191269800Y-142538972D01*
X191269800Y-142538972D02*
X191245990Y-142562782D01*
X190793609Y-141800878D02*
X190793609Y-142038973D01*
X190793609Y-142038973D02*
X191031704Y-142062782D01*
X191031704Y-142062782D02*
X191007895Y-142038973D01*
X191007895Y-142038973D02*
X190984085Y-141991354D01*
X190984085Y-141991354D02*
X190984085Y-141872306D01*
X190984085Y-141872306D02*
X191007895Y-141824687D01*
X191007895Y-141824687D02*
X191031704Y-141800878D01*
X191031704Y-141800878D02*
X191079323Y-141777068D01*
X191079323Y-141777068D02*
X191198371Y-141777068D01*
X191198371Y-141777068D02*
X191245990Y-141800878D01*
X191245990Y-141800878D02*
X191269800Y-141824687D01*
X191269800Y-141824687D02*
X191293609Y-141872306D01*
X191293609Y-141872306D02*
X191293609Y-141991354D01*
X191293609Y-141991354D02*
X191269800Y-142038973D01*
X191269800Y-142038973D02*
X191245990Y-142062782D01*
X173566390Y-139646741D02*
X173566390Y-139361027D01*
X173566390Y-139503884D02*
X174066390Y-139503884D01*
X174066390Y-139503884D02*
X173994961Y-139456265D01*
X173994961Y-139456265D02*
X173947342Y-139408646D01*
X173947342Y-139408646D02*
X173923533Y-139361027D01*
X173566390Y-140122931D02*
X173566390Y-139837217D01*
X173566390Y-139980074D02*
X174066390Y-139980074D01*
X174066390Y-139980074D02*
X173994961Y-139932455D01*
X173994961Y-139932455D02*
X173947342Y-139884836D01*
X173947342Y-139884836D02*
X173923533Y-139837217D01*
X175246741Y-149533609D02*
X174961027Y-149533609D01*
X175103884Y-149533609D02*
X175103884Y-149033609D01*
X175103884Y-149033609D02*
X175056265Y-149105038D01*
X175056265Y-149105038D02*
X175008646Y-149152657D01*
X175008646Y-149152657D02*
X174961027Y-149176466D01*
X175675312Y-149033609D02*
X175580074Y-149033609D01*
X175580074Y-149033609D02*
X175532455Y-149057419D01*
X175532455Y-149057419D02*
X175508645Y-149081228D01*
X175508645Y-149081228D02*
X175461026Y-149152657D01*
X175461026Y-149152657D02*
X175437217Y-149247895D01*
X175437217Y-149247895D02*
X175437217Y-149438371D01*
X175437217Y-149438371D02*
X175461026Y-149485990D01*
X175461026Y-149485990D02*
X175484836Y-149509800D01*
X175484836Y-149509800D02*
X175532455Y-149533609D01*
X175532455Y-149533609D02*
X175627693Y-149533609D01*
X175627693Y-149533609D02*
X175675312Y-149509800D01*
X175675312Y-149509800D02*
X175699121Y-149485990D01*
X175699121Y-149485990D02*
X175722931Y-149438371D01*
X175722931Y-149438371D02*
X175722931Y-149319323D01*
X175722931Y-149319323D02*
X175699121Y-149271704D01*
X175699121Y-149271704D02*
X175675312Y-149247895D01*
X175675312Y-149247895D02*
X175627693Y-149224085D01*
X175627693Y-149224085D02*
X175532455Y-149224085D01*
X175532455Y-149224085D02*
X175484836Y-149247895D01*
X175484836Y-149247895D02*
X175461026Y-149271704D01*
X175461026Y-149271704D02*
X175437217Y-149319323D01*
X174026390Y-129622931D02*
X174026390Y-129384836D01*
X174026390Y-129384836D02*
X173788295Y-129361027D01*
X173788295Y-129361027D02*
X173812104Y-129384836D01*
X173812104Y-129384836D02*
X173835914Y-129432455D01*
X173835914Y-129432455D02*
X173835914Y-129551503D01*
X173835914Y-129551503D02*
X173812104Y-129599122D01*
X173812104Y-129599122D02*
X173788295Y-129622931D01*
X173788295Y-129622931D02*
X173740676Y-129646741D01*
X173740676Y-129646741D02*
X173621628Y-129646741D01*
X173621628Y-129646741D02*
X173574009Y-129622931D01*
X173574009Y-129622931D02*
X173550200Y-129599122D01*
X173550200Y-129599122D02*
X173526390Y-129551503D01*
X173526390Y-129551503D02*
X173526390Y-129432455D01*
X173526390Y-129432455D02*
X173550200Y-129384836D01*
X173550200Y-129384836D02*
X173574009Y-129361027D01*
X174826390Y-135070550D02*
X175064485Y-134903884D01*
X174826390Y-134784836D02*
X175326390Y-134784836D01*
X175326390Y-134784836D02*
X175326390Y-134975312D01*
X175326390Y-134975312D02*
X175302580Y-135022931D01*
X175302580Y-135022931D02*
X175278771Y-135046741D01*
X175278771Y-135046741D02*
X175231152Y-135070550D01*
X175231152Y-135070550D02*
X175159723Y-135070550D01*
X175159723Y-135070550D02*
X175112104Y-135046741D01*
X175112104Y-135046741D02*
X175088295Y-135022931D01*
X175088295Y-135022931D02*
X175064485Y-134975312D01*
X175064485Y-134975312D02*
X175064485Y-134784836D01*
X175088295Y-135284836D02*
X175088295Y-135451503D01*
X174826390Y-135522931D02*
X174826390Y-135284836D01*
X174826390Y-135284836D02*
X175326390Y-135284836D01*
X175326390Y-135284836D02*
X175326390Y-135522931D01*
X174850200Y-135713408D02*
X174826390Y-135784836D01*
X174826390Y-135784836D02*
X174826390Y-135903884D01*
X174826390Y-135903884D02*
X174850200Y-135951503D01*
X174850200Y-135951503D02*
X174874009Y-135975312D01*
X174874009Y-135975312D02*
X174921628Y-135999122D01*
X174921628Y-135999122D02*
X174969247Y-135999122D01*
X174969247Y-135999122D02*
X175016866Y-135975312D01*
X175016866Y-135975312D02*
X175040676Y-135951503D01*
X175040676Y-135951503D02*
X175064485Y-135903884D01*
X175064485Y-135903884D02*
X175088295Y-135808646D01*
X175088295Y-135808646D02*
X175112104Y-135761027D01*
X175112104Y-135761027D02*
X175135914Y-135737217D01*
X175135914Y-135737217D02*
X175183533Y-135713408D01*
X175183533Y-135713408D02*
X175231152Y-135713408D01*
X175231152Y-135713408D02*
X175278771Y-135737217D01*
X175278771Y-135737217D02*
X175302580Y-135761027D01*
X175302580Y-135761027D02*
X175326390Y-135808646D01*
X175326390Y-135808646D02*
X175326390Y-135927693D01*
X175326390Y-135927693D02*
X175302580Y-135999122D01*
X175088295Y-136213407D02*
X175088295Y-136380074D01*
X174826390Y-136451502D02*
X174826390Y-136213407D01*
X174826390Y-136213407D02*
X175326390Y-136213407D01*
X175326390Y-136213407D02*
X175326390Y-136451502D01*
X175326390Y-136594360D02*
X175326390Y-136880074D01*
X174826390Y-136737217D02*
X175326390Y-136737217D01*
X189161027Y-149181228D02*
X189184836Y-149157419D01*
X189184836Y-149157419D02*
X189232455Y-149133609D01*
X189232455Y-149133609D02*
X189351503Y-149133609D01*
X189351503Y-149133609D02*
X189399122Y-149157419D01*
X189399122Y-149157419D02*
X189422931Y-149181228D01*
X189422931Y-149181228D02*
X189446741Y-149228847D01*
X189446741Y-149228847D02*
X189446741Y-149276466D01*
X189446741Y-149276466D02*
X189422931Y-149347895D01*
X189422931Y-149347895D02*
X189137217Y-149633609D01*
X189137217Y-149633609D02*
X189446741Y-149633609D01*
X189875312Y-149133609D02*
X189780074Y-149133609D01*
X189780074Y-149133609D02*
X189732455Y-149157419D01*
X189732455Y-149157419D02*
X189708645Y-149181228D01*
X189708645Y-149181228D02*
X189661026Y-149252657D01*
X189661026Y-149252657D02*
X189637217Y-149347895D01*
X189637217Y-149347895D02*
X189637217Y-149538371D01*
X189637217Y-149538371D02*
X189661026Y-149585990D01*
X189661026Y-149585990D02*
X189684836Y-149609800D01*
X189684836Y-149609800D02*
X189732455Y-149633609D01*
X189732455Y-149633609D02*
X189827693Y-149633609D01*
X189827693Y-149633609D02*
X189875312Y-149609800D01*
X189875312Y-149609800D02*
X189899121Y-149585990D01*
X189899121Y-149585990D02*
X189922931Y-149538371D01*
X189922931Y-149538371D02*
X189922931Y-149419323D01*
X189922931Y-149419323D02*
X189899121Y-149371704D01*
X189899121Y-149371704D02*
X189875312Y-149347895D01*
X189875312Y-149347895D02*
X189827693Y-149324085D01*
X189827693Y-149324085D02*
X189732455Y-149324085D01*
X189732455Y-149324085D02*
X189684836Y-149347895D01*
X189684836Y-149347895D02*
X189661026Y-149371704D01*
X189661026Y-149371704D02*
X189637217Y-149419323D01*
X190960276Y-117000877D02*
X191293609Y-117000877D01*
X190769800Y-117119925D02*
X191126942Y-117238972D01*
X191126942Y-117238972D02*
X191126942Y-116929449D01*
X190793609Y-116500878D02*
X190793609Y-116738973D01*
X190793609Y-116738973D02*
X191031704Y-116762782D01*
X191031704Y-116762782D02*
X191007895Y-116738973D01*
X191007895Y-116738973D02*
X190984085Y-116691354D01*
X190984085Y-116691354D02*
X190984085Y-116572306D01*
X190984085Y-116572306D02*
X191007895Y-116524687D01*
X191007895Y-116524687D02*
X191031704Y-116500878D01*
X191031704Y-116500878D02*
X191079323Y-116477068D01*
X191079323Y-116477068D02*
X191198371Y-116477068D01*
X191198371Y-116477068D02*
X191245990Y-116500878D01*
X191245990Y-116500878D02*
X191269800Y-116524687D01*
X191269800Y-116524687D02*
X191293609Y-116572306D01*
X191293609Y-116572306D02*
X191293609Y-116691354D01*
X191293609Y-116691354D02*
X191269800Y-116738973D01*
X191269800Y-116738973D02*
X191245990Y-116762782D01*
X190960276Y-114400877D02*
X191293609Y-114400877D01*
X190769800Y-114519925D02*
X191126942Y-114638972D01*
X191126942Y-114638972D02*
X191126942Y-114329449D01*
X190793609Y-113924687D02*
X190793609Y-114019925D01*
X190793609Y-114019925D02*
X190817419Y-114067544D01*
X190817419Y-114067544D02*
X190841228Y-114091354D01*
X190841228Y-114091354D02*
X190912657Y-114138973D01*
X190912657Y-114138973D02*
X191007895Y-114162782D01*
X191007895Y-114162782D02*
X191198371Y-114162782D01*
X191198371Y-114162782D02*
X191245990Y-114138973D01*
X191245990Y-114138973D02*
X191269800Y-114115163D01*
X191269800Y-114115163D02*
X191293609Y-114067544D01*
X191293609Y-114067544D02*
X191293609Y-113972306D01*
X191293609Y-113972306D02*
X191269800Y-113924687D01*
X191269800Y-113924687D02*
X191245990Y-113900878D01*
X191245990Y-113900878D02*
X191198371Y-113877068D01*
X191198371Y-113877068D02*
X191079323Y-113877068D01*
X191079323Y-113877068D02*
X191031704Y-113900878D01*
X191031704Y-113900878D02*
X191007895Y-113924687D01*
X191007895Y-113924687D02*
X190984085Y-113972306D01*
X190984085Y-113972306D02*
X190984085Y-114067544D01*
X190984085Y-114067544D02*
X191007895Y-114115163D01*
X191007895Y-114115163D02*
X191031704Y-114138973D01*
X191031704Y-114138973D02*
X191079323Y-114162782D01*
X191293609Y-125215163D02*
X190793609Y-125215163D01*
X190793609Y-125215163D02*
X191150752Y-125048496D01*
X191150752Y-125048496D02*
X190793609Y-124881830D01*
X190793609Y-124881830D02*
X191293609Y-124881830D01*
X190793609Y-124715162D02*
X190793609Y-124429448D01*
X191293609Y-124572305D02*
X190793609Y-124572305D01*
X191293609Y-124262782D02*
X190793609Y-124262782D01*
X190793609Y-124262782D02*
X191150752Y-124096115D01*
X191150752Y-124096115D02*
X190793609Y-123929449D01*
X190793609Y-123929449D02*
X191293609Y-123929449D01*
X191269800Y-123715162D02*
X191293609Y-123643734D01*
X191293609Y-123643734D02*
X191293609Y-123524686D01*
X191293609Y-123524686D02*
X191269800Y-123477067D01*
X191269800Y-123477067D02*
X191245990Y-123453258D01*
X191245990Y-123453258D02*
X191198371Y-123429448D01*
X191198371Y-123429448D02*
X191150752Y-123429448D01*
X191150752Y-123429448D02*
X191103133Y-123453258D01*
X191103133Y-123453258D02*
X191079323Y-123477067D01*
X191079323Y-123477067D02*
X191055514Y-123524686D01*
X191055514Y-123524686D02*
X191031704Y-123619924D01*
X191031704Y-123619924D02*
X191007895Y-123667543D01*
X191007895Y-123667543D02*
X190984085Y-123691353D01*
X190984085Y-123691353D02*
X190936466Y-123715162D01*
X190936466Y-123715162D02*
X190888847Y-123715162D01*
X190888847Y-123715162D02*
X190841228Y-123691353D01*
X190841228Y-123691353D02*
X190817419Y-123667543D01*
X190817419Y-123667543D02*
X190793609Y-123619924D01*
X190793609Y-123619924D02*
X190793609Y-123500877D01*
X190793609Y-123500877D02*
X190817419Y-123429448D01*
X184506741Y-148833609D02*
X184221027Y-148833609D01*
X184363884Y-148833609D02*
X184363884Y-148333609D01*
X184363884Y-148333609D02*
X184316265Y-148405038D01*
X184316265Y-148405038D02*
X184268646Y-148452657D01*
X184268646Y-148452657D02*
X184221027Y-148476466D01*
X190860276Y-149100877D02*
X191193609Y-149100877D01*
X190669800Y-149219925D02*
X191026942Y-149338972D01*
X191026942Y-149338972D02*
X191026942Y-149029449D01*
X190693609Y-148886592D02*
X190693609Y-148553259D01*
X190693609Y-148553259D02*
X191193609Y-148767544D01*
X174026390Y-124137217D02*
X174026390Y-124446741D01*
X174026390Y-124446741D02*
X173835914Y-124280074D01*
X173835914Y-124280074D02*
X173835914Y-124351503D01*
X173835914Y-124351503D02*
X173812104Y-124399122D01*
X173812104Y-124399122D02*
X173788295Y-124422931D01*
X173788295Y-124422931D02*
X173740676Y-124446741D01*
X173740676Y-124446741D02*
X173621628Y-124446741D01*
X173621628Y-124446741D02*
X173574009Y-124422931D01*
X173574009Y-124422931D02*
X173550200Y-124399122D01*
X173550200Y-124399122D02*
X173526390Y-124351503D01*
X173526390Y-124351503D02*
X173526390Y-124208646D01*
X173526390Y-124208646D02*
X173550200Y-124161027D01*
X173550200Y-124161027D02*
X173574009Y-124137217D01*
X173566390Y-137046741D02*
X173566390Y-136761027D01*
X173566390Y-136903884D02*
X174066390Y-136903884D01*
X174066390Y-136903884D02*
X173994961Y-136856265D01*
X173994961Y-136856265D02*
X173947342Y-136808646D01*
X173947342Y-136808646D02*
X173923533Y-136761027D01*
X174066390Y-137356264D02*
X174066390Y-137403883D01*
X174066390Y-137403883D02*
X174042580Y-137451502D01*
X174042580Y-137451502D02*
X174018771Y-137475312D01*
X174018771Y-137475312D02*
X173971152Y-137499121D01*
X173971152Y-137499121D02*
X173875914Y-137522931D01*
X173875914Y-137522931D02*
X173756866Y-137522931D01*
X173756866Y-137522931D02*
X173661628Y-137499121D01*
X173661628Y-137499121D02*
X173614009Y-137475312D01*
X173614009Y-137475312D02*
X173590200Y-137451502D01*
X173590200Y-137451502D02*
X173566390Y-137403883D01*
X173566390Y-137403883D02*
X173566390Y-137356264D01*
X173566390Y-137356264D02*
X173590200Y-137308645D01*
X173590200Y-137308645D02*
X173614009Y-137284836D01*
X173614009Y-137284836D02*
X173661628Y-137261026D01*
X173661628Y-137261026D02*
X173756866Y-137237217D01*
X173756866Y-137237217D02*
X173875914Y-137237217D01*
X173875914Y-137237217D02*
X173971152Y-137261026D01*
X173971152Y-137261026D02*
X174018771Y-137284836D01*
X174018771Y-137284836D02*
X174042580Y-137308645D01*
X174042580Y-137308645D02*
X174066390Y-137356264D01*
X173526390Y-142346741D02*
X173526390Y-142061027D01*
X173526390Y-142203884D02*
X174026390Y-142203884D01*
X174026390Y-142203884D02*
X173954961Y-142156265D01*
X173954961Y-142156265D02*
X173907342Y-142108646D01*
X173907342Y-142108646D02*
X173883533Y-142061027D01*
X173978771Y-142537217D02*
X174002580Y-142561026D01*
X174002580Y-142561026D02*
X174026390Y-142608645D01*
X174026390Y-142608645D02*
X174026390Y-142727693D01*
X174026390Y-142727693D02*
X174002580Y-142775312D01*
X174002580Y-142775312D02*
X173978771Y-142799121D01*
X173978771Y-142799121D02*
X173931152Y-142822931D01*
X173931152Y-142822931D02*
X173883533Y-142822931D01*
X173883533Y-142822931D02*
X173812104Y-142799121D01*
X173812104Y-142799121D02*
X173526390Y-142513407D01*
X173526390Y-142513407D02*
X173526390Y-142822931D01*
X187261027Y-149181228D02*
X187284836Y-149157419D01*
X187284836Y-149157419D02*
X187332455Y-149133609D01*
X187332455Y-149133609D02*
X187451503Y-149133609D01*
X187451503Y-149133609D02*
X187499122Y-149157419D01*
X187499122Y-149157419D02*
X187522931Y-149181228D01*
X187522931Y-149181228D02*
X187546741Y-149228847D01*
X187546741Y-149228847D02*
X187546741Y-149276466D01*
X187546741Y-149276466D02*
X187522931Y-149347895D01*
X187522931Y-149347895D02*
X187237217Y-149633609D01*
X187237217Y-149633609D02*
X187546741Y-149633609D01*
X188022931Y-149633609D02*
X187737217Y-149633609D01*
X187880074Y-149633609D02*
X187880074Y-149133609D01*
X187880074Y-149133609D02*
X187832455Y-149205038D01*
X187832455Y-149205038D02*
X187784836Y-149252657D01*
X187784836Y-149252657D02*
X187737217Y-149276466D01*
X179846741Y-149633609D02*
X179561027Y-149633609D01*
X179703884Y-149633609D02*
X179703884Y-149133609D01*
X179703884Y-149133609D02*
X179656265Y-149205038D01*
X179656265Y-149205038D02*
X179608646Y-149252657D01*
X179608646Y-149252657D02*
X179561027Y-149276466D01*
X180132455Y-149347895D02*
X180084836Y-149324085D01*
X180084836Y-149324085D02*
X180061026Y-149300276D01*
X180061026Y-149300276D02*
X180037217Y-149252657D01*
X180037217Y-149252657D02*
X180037217Y-149228847D01*
X180037217Y-149228847D02*
X180061026Y-149181228D01*
X180061026Y-149181228D02*
X180084836Y-149157419D01*
X180084836Y-149157419D02*
X180132455Y-149133609D01*
X180132455Y-149133609D02*
X180227693Y-149133609D01*
X180227693Y-149133609D02*
X180275312Y-149157419D01*
X180275312Y-149157419D02*
X180299121Y-149181228D01*
X180299121Y-149181228D02*
X180322931Y-149228847D01*
X180322931Y-149228847D02*
X180322931Y-149252657D01*
X180322931Y-149252657D02*
X180299121Y-149300276D01*
X180299121Y-149300276D02*
X180275312Y-149324085D01*
X180275312Y-149324085D02*
X180227693Y-149347895D01*
X180227693Y-149347895D02*
X180132455Y-149347895D01*
X180132455Y-149347895D02*
X180084836Y-149371704D01*
X180084836Y-149371704D02*
X180061026Y-149395514D01*
X180061026Y-149395514D02*
X180037217Y-149443133D01*
X180037217Y-149443133D02*
X180037217Y-149538371D01*
X180037217Y-149538371D02*
X180061026Y-149585990D01*
X180061026Y-149585990D02*
X180084836Y-149609800D01*
X180084836Y-149609800D02*
X180132455Y-149633609D01*
X180132455Y-149633609D02*
X180227693Y-149633609D01*
X180227693Y-149633609D02*
X180275312Y-149609800D01*
X180275312Y-149609800D02*
X180299121Y-149585990D01*
X180299121Y-149585990D02*
X180322931Y-149538371D01*
X180322931Y-149538371D02*
X180322931Y-149443133D01*
X180322931Y-149443133D02*
X180299121Y-149395514D01*
X180299121Y-149395514D02*
X180275312Y-149371704D01*
X180275312Y-149371704D02*
X180227693Y-149347895D01*
X191293609Y-130215163D02*
X190793609Y-130215163D01*
X190793609Y-130215163D02*
X191150752Y-130048496D01*
X191150752Y-130048496D02*
X190793609Y-129881830D01*
X190793609Y-129881830D02*
X191293609Y-129881830D01*
X190793609Y-129715162D02*
X190793609Y-129429448D01*
X191293609Y-129572305D02*
X190793609Y-129572305D01*
X191293609Y-129262782D02*
X190793609Y-129262782D01*
X190793609Y-129262782D02*
X190793609Y-129143734D01*
X190793609Y-129143734D02*
X190817419Y-129072306D01*
X190817419Y-129072306D02*
X190865038Y-129024687D01*
X190865038Y-129024687D02*
X190912657Y-129000877D01*
X190912657Y-129000877D02*
X191007895Y-128977068D01*
X191007895Y-128977068D02*
X191079323Y-128977068D01*
X191079323Y-128977068D02*
X191174561Y-129000877D01*
X191174561Y-129000877D02*
X191222180Y-129024687D01*
X191222180Y-129024687D02*
X191269800Y-129072306D01*
X191269800Y-129072306D02*
X191293609Y-129143734D01*
X191293609Y-129143734D02*
X191293609Y-129262782D01*
X190793609Y-128667544D02*
X190793609Y-128572306D01*
X190793609Y-128572306D02*
X190817419Y-128524687D01*
X190817419Y-128524687D02*
X190865038Y-128477068D01*
X190865038Y-128477068D02*
X190960276Y-128453258D01*
X190960276Y-128453258D02*
X191126942Y-128453258D01*
X191126942Y-128453258D02*
X191222180Y-128477068D01*
X191222180Y-128477068D02*
X191269800Y-128524687D01*
X191269800Y-128524687D02*
X191293609Y-128572306D01*
X191293609Y-128572306D02*
X191293609Y-128667544D01*
X191293609Y-128667544D02*
X191269800Y-128715163D01*
X191269800Y-128715163D02*
X191222180Y-128762782D01*
X191222180Y-128762782D02*
X191126942Y-128786591D01*
X191126942Y-128786591D02*
X190960276Y-128786591D01*
X190960276Y-128786591D02*
X190865038Y-128762782D01*
X190865038Y-128762782D02*
X190817419Y-128715163D01*
X190817419Y-128715163D02*
X190793609Y-128667544D01*
X190793609Y-137562782D02*
X190793609Y-137253258D01*
X190793609Y-137253258D02*
X190984085Y-137419925D01*
X190984085Y-137419925D02*
X190984085Y-137348496D01*
X190984085Y-137348496D02*
X191007895Y-137300877D01*
X191007895Y-137300877D02*
X191031704Y-137277068D01*
X191031704Y-137277068D02*
X191079323Y-137253258D01*
X191079323Y-137253258D02*
X191198371Y-137253258D01*
X191198371Y-137253258D02*
X191245990Y-137277068D01*
X191245990Y-137277068D02*
X191269800Y-137300877D01*
X191269800Y-137300877D02*
X191293609Y-137348496D01*
X191293609Y-137348496D02*
X191293609Y-137491353D01*
X191293609Y-137491353D02*
X191269800Y-137538972D01*
X191269800Y-137538972D02*
X191245990Y-137562782D01*
X190793609Y-137086592D02*
X190793609Y-136753259D01*
X190793609Y-136753259D02*
X191293609Y-136967544D01*
X174031362Y-118137217D02*
X174031362Y-118446741D01*
X174031362Y-118446741D02*
X173840886Y-118280074D01*
X173840886Y-118280074D02*
X173840886Y-118351503D01*
X173840886Y-118351503D02*
X173817076Y-118399122D01*
X173817076Y-118399122D02*
X173793267Y-118422931D01*
X173793267Y-118422931D02*
X173745648Y-118446741D01*
X173745648Y-118446741D02*
X173626600Y-118446741D01*
X173626600Y-118446741D02*
X173578981Y-118422931D01*
X173578981Y-118422931D02*
X173555172Y-118399122D01*
X173555172Y-118399122D02*
X173531362Y-118351503D01*
X173531362Y-118351503D02*
X173531362Y-118208646D01*
X173531362Y-118208646D02*
X173555172Y-118161027D01*
X173555172Y-118161027D02*
X173578981Y-118137217D01*
X174031362Y-118589598D02*
X173531362Y-118756264D01*
X173531362Y-118756264D02*
X174031362Y-118922931D01*
X174031362Y-119041978D02*
X174031362Y-119351502D01*
X174031362Y-119351502D02*
X173840886Y-119184835D01*
X173840886Y-119184835D02*
X173840886Y-119256264D01*
X173840886Y-119256264D02*
X173817076Y-119303883D01*
X173817076Y-119303883D02*
X173793267Y-119327692D01*
X173793267Y-119327692D02*
X173745648Y-119351502D01*
X173745648Y-119351502D02*
X173626600Y-119351502D01*
X173626600Y-119351502D02*
X173578981Y-119327692D01*
X173578981Y-119327692D02*
X173555172Y-119303883D01*
X173555172Y-119303883D02*
X173531362Y-119256264D01*
X173531362Y-119256264D02*
X173531362Y-119113407D01*
X173531362Y-119113407D02*
X173555172Y-119065788D01*
X173555172Y-119065788D02*
X173578981Y-119041978D01*
X173531362Y-119637216D02*
X173555172Y-119589597D01*
X173555172Y-119589597D02*
X173578981Y-119565787D01*
X173578981Y-119565787D02*
X173626600Y-119541978D01*
X173626600Y-119541978D02*
X173769457Y-119541978D01*
X173769457Y-119541978D02*
X173817076Y-119565787D01*
X173817076Y-119565787D02*
X173840886Y-119589597D01*
X173840886Y-119589597D02*
X173864695Y-119637216D01*
X173864695Y-119637216D02*
X173864695Y-119708644D01*
X173864695Y-119708644D02*
X173840886Y-119756263D01*
X173840886Y-119756263D02*
X173817076Y-119780073D01*
X173817076Y-119780073D02*
X173769457Y-119803882D01*
X173769457Y-119803882D02*
X173626600Y-119803882D01*
X173626600Y-119803882D02*
X173578981Y-119780073D01*
X173578981Y-119780073D02*
X173555172Y-119756263D01*
X173555172Y-119756263D02*
X173531362Y-119708644D01*
X173531362Y-119708644D02*
X173531362Y-119637216D01*
X173864695Y-120232454D02*
X173531362Y-120232454D01*
X173864695Y-120018168D02*
X173602791Y-120018168D01*
X173602791Y-120018168D02*
X173555172Y-120041978D01*
X173555172Y-120041978D02*
X173531362Y-120089597D01*
X173531362Y-120089597D02*
X173531362Y-120161025D01*
X173531362Y-120161025D02*
X173555172Y-120208644D01*
X173555172Y-120208644D02*
X173578981Y-120232454D01*
X173864695Y-120399121D02*
X173864695Y-120589597D01*
X174031362Y-120470549D02*
X173602791Y-120470549D01*
X173602791Y-120470549D02*
X173555172Y-120494359D01*
X173555172Y-120494359D02*
X173531362Y-120541978D01*
X173531362Y-120541978D02*
X173531362Y-120589597D01*
X186761027Y-129081228D02*
X186784836Y-129057419D01*
X186784836Y-129057419D02*
X186832455Y-129033609D01*
X186832455Y-129033609D02*
X186951503Y-129033609D01*
X186951503Y-129033609D02*
X186999122Y-129057419D01*
X186999122Y-129057419D02*
X187022931Y-129081228D01*
X187022931Y-129081228D02*
X187046741Y-129128847D01*
X187046741Y-129128847D02*
X187046741Y-129176466D01*
X187046741Y-129176466D02*
X187022931Y-129247895D01*
X187022931Y-129247895D02*
X186737217Y-129533609D01*
X186737217Y-129533609D02*
X187046741Y-129533609D01*
X187356264Y-129033609D02*
X187403883Y-129033609D01*
X187403883Y-129033609D02*
X187451502Y-129057419D01*
X187451502Y-129057419D02*
X187475312Y-129081228D01*
X187475312Y-129081228D02*
X187499121Y-129128847D01*
X187499121Y-129128847D02*
X187522931Y-129224085D01*
X187522931Y-129224085D02*
X187522931Y-129343133D01*
X187522931Y-129343133D02*
X187499121Y-129438371D01*
X187499121Y-129438371D02*
X187475312Y-129485990D01*
X187475312Y-129485990D02*
X187451502Y-129509800D01*
X187451502Y-129509800D02*
X187403883Y-129533609D01*
X187403883Y-129533609D02*
X187356264Y-129533609D01*
X187356264Y-129533609D02*
X187308645Y-129509800D01*
X187308645Y-129509800D02*
X187284836Y-129485990D01*
X187284836Y-129485990D02*
X187261026Y-129438371D01*
X187261026Y-129438371D02*
X187237217Y-129343133D01*
X187237217Y-129343133D02*
X187237217Y-129224085D01*
X187237217Y-129224085D02*
X187261026Y-129128847D01*
X187261026Y-129128847D02*
X187284836Y-129081228D01*
X187284836Y-129081228D02*
X187308645Y-129057419D01*
X187308645Y-129057419D02*
X187356264Y-129033609D01*
X187713407Y-129081228D02*
X187737216Y-129057419D01*
X187737216Y-129057419D02*
X187784835Y-129033609D01*
X187784835Y-129033609D02*
X187903883Y-129033609D01*
X187903883Y-129033609D02*
X187951502Y-129057419D01*
X187951502Y-129057419D02*
X187975311Y-129081228D01*
X187975311Y-129081228D02*
X187999121Y-129128847D01*
X187999121Y-129128847D02*
X187999121Y-129176466D01*
X187999121Y-129176466D02*
X187975311Y-129247895D01*
X187975311Y-129247895D02*
X187689597Y-129533609D01*
X187689597Y-129533609D02*
X187999121Y-129533609D01*
X188427692Y-129033609D02*
X188332454Y-129033609D01*
X188332454Y-129033609D02*
X188284835Y-129057419D01*
X188284835Y-129057419D02*
X188261025Y-129081228D01*
X188261025Y-129081228D02*
X188213406Y-129152657D01*
X188213406Y-129152657D02*
X188189597Y-129247895D01*
X188189597Y-129247895D02*
X188189597Y-129438371D01*
X188189597Y-129438371D02*
X188213406Y-129485990D01*
X188213406Y-129485990D02*
X188237216Y-129509800D01*
X188237216Y-129509800D02*
X188284835Y-129533609D01*
X188284835Y-129533609D02*
X188380073Y-129533609D01*
X188380073Y-129533609D02*
X188427692Y-129509800D01*
X188427692Y-129509800D02*
X188451501Y-129485990D01*
X188451501Y-129485990D02*
X188475311Y-129438371D01*
X188475311Y-129438371D02*
X188475311Y-129319323D01*
X188475311Y-129319323D02*
X188451501Y-129271704D01*
X188451501Y-129271704D02*
X188427692Y-129247895D01*
X188427692Y-129247895D02*
X188380073Y-129224085D01*
X188380073Y-129224085D02*
X188284835Y-129224085D01*
X188284835Y-129224085D02*
X188237216Y-129247895D01*
X188237216Y-129247895D02*
X188213406Y-129271704D01*
X188213406Y-129271704D02*
X188189597Y-129319323D01*
X174866390Y-132222931D02*
X174866390Y-131984836D01*
X174866390Y-131984836D02*
X175366390Y-131984836D01*
X175128295Y-132389598D02*
X175128295Y-132556265D01*
X174866390Y-132627693D02*
X174866390Y-132389598D01*
X174866390Y-132389598D02*
X175366390Y-132389598D01*
X175366390Y-132389598D02*
X175366390Y-132627693D01*
X174866390Y-132841979D02*
X175366390Y-132841979D01*
X175366390Y-132841979D02*
X175366390Y-132961027D01*
X175366390Y-132961027D02*
X175342580Y-133032455D01*
X175342580Y-133032455D02*
X175294961Y-133080074D01*
X175294961Y-133080074D02*
X175247342Y-133103884D01*
X175247342Y-133103884D02*
X175152104Y-133127693D01*
X175152104Y-133127693D02*
X175080676Y-133127693D01*
X175080676Y-133127693D02*
X174985438Y-133103884D01*
X174985438Y-133103884D02*
X174937819Y-133080074D01*
X174937819Y-133080074D02*
X174890200Y-133032455D01*
X174890200Y-133032455D02*
X174866390Y-132961027D01*
X174866390Y-132961027D02*
X174866390Y-132841979D01*
X189733609Y-147329449D02*
X189495514Y-147496115D01*
X189733609Y-147615163D02*
X189233609Y-147615163D01*
X189233609Y-147615163D02*
X189233609Y-147424687D01*
X189233609Y-147424687D02*
X189257419Y-147377068D01*
X189257419Y-147377068D02*
X189281228Y-147353258D01*
X189281228Y-147353258D02*
X189328847Y-147329449D01*
X189328847Y-147329449D02*
X189400276Y-147329449D01*
X189400276Y-147329449D02*
X189447895Y-147353258D01*
X189447895Y-147353258D02*
X189471704Y-147377068D01*
X189471704Y-147377068D02*
X189495514Y-147424687D01*
X189495514Y-147424687D02*
X189495514Y-147615163D01*
X189257419Y-146853258D02*
X189233609Y-146900877D01*
X189233609Y-146900877D02*
X189233609Y-146972306D01*
X189233609Y-146972306D02*
X189257419Y-147043734D01*
X189257419Y-147043734D02*
X189305038Y-147091353D01*
X189305038Y-147091353D02*
X189352657Y-147115163D01*
X189352657Y-147115163D02*
X189447895Y-147138972D01*
X189447895Y-147138972D02*
X189519323Y-147138972D01*
X189519323Y-147138972D02*
X189614561Y-147115163D01*
X189614561Y-147115163D02*
X189662180Y-147091353D01*
X189662180Y-147091353D02*
X189709800Y-147043734D01*
X189709800Y-147043734D02*
X189733609Y-146972306D01*
X189733609Y-146972306D02*
X189733609Y-146924687D01*
X189733609Y-146924687D02*
X189709800Y-146853258D01*
X189709800Y-146853258D02*
X189685990Y-146829449D01*
X189685990Y-146829449D02*
X189519323Y-146829449D01*
X189519323Y-146829449D02*
X189519323Y-146924687D01*
X189471704Y-146448496D02*
X189495514Y-146377068D01*
X189495514Y-146377068D02*
X189519323Y-146353258D01*
X189519323Y-146353258D02*
X189566942Y-146329449D01*
X189566942Y-146329449D02*
X189638371Y-146329449D01*
X189638371Y-146329449D02*
X189685990Y-146353258D01*
X189685990Y-146353258D02*
X189709800Y-146377068D01*
X189709800Y-146377068D02*
X189733609Y-146424687D01*
X189733609Y-146424687D02*
X189733609Y-146615163D01*
X189733609Y-146615163D02*
X189233609Y-146615163D01*
X189233609Y-146615163D02*
X189233609Y-146448496D01*
X189233609Y-146448496D02*
X189257419Y-146400877D01*
X189257419Y-146400877D02*
X189281228Y-146377068D01*
X189281228Y-146377068D02*
X189328847Y-146353258D01*
X189328847Y-146353258D02*
X189376466Y-146353258D01*
X189376466Y-146353258D02*
X189424085Y-146377068D01*
X189424085Y-146377068D02*
X189447895Y-146400877D01*
X189447895Y-146400877D02*
X189471704Y-146448496D01*
X189471704Y-146448496D02*
X189471704Y-146615163D01*
X190793609Y-122086591D02*
X190793609Y-121800877D01*
X191293609Y-121943734D02*
X190793609Y-121943734D01*
X190793609Y-121681830D02*
X191293609Y-121348497D01*
X190793609Y-121348497D02*
X191293609Y-121681830D01*
X174002580Y-113546741D02*
X174026390Y-113499122D01*
X174026390Y-113499122D02*
X174026390Y-113427693D01*
X174026390Y-113427693D02*
X174002580Y-113356265D01*
X174002580Y-113356265D02*
X173954961Y-113308646D01*
X173954961Y-113308646D02*
X173907342Y-113284836D01*
X173907342Y-113284836D02*
X173812104Y-113261027D01*
X173812104Y-113261027D02*
X173740676Y-113261027D01*
X173740676Y-113261027D02*
X173645438Y-113284836D01*
X173645438Y-113284836D02*
X173597819Y-113308646D01*
X173597819Y-113308646D02*
X173550200Y-113356265D01*
X173550200Y-113356265D02*
X173526390Y-113427693D01*
X173526390Y-113427693D02*
X173526390Y-113475312D01*
X173526390Y-113475312D02*
X173550200Y-113546741D01*
X173550200Y-113546741D02*
X173574009Y-113570550D01*
X173574009Y-113570550D02*
X173740676Y-113570550D01*
X173740676Y-113570550D02*
X173740676Y-113475312D01*
X173526390Y-113784836D02*
X174026390Y-113784836D01*
X174026390Y-113784836D02*
X173526390Y-114070550D01*
X173526390Y-114070550D02*
X174026390Y-114070550D01*
X173526390Y-114308646D02*
X174026390Y-114308646D01*
X174026390Y-114308646D02*
X174026390Y-114427694D01*
X174026390Y-114427694D02*
X174002580Y-114499122D01*
X174002580Y-114499122D02*
X173954961Y-114546741D01*
X173954961Y-114546741D02*
X173907342Y-114570551D01*
X173907342Y-114570551D02*
X173812104Y-114594360D01*
X173812104Y-114594360D02*
X173740676Y-114594360D01*
X173740676Y-114594360D02*
X173645438Y-114570551D01*
X173645438Y-114570551D02*
X173597819Y-114546741D01*
X173597819Y-114546741D02*
X173550200Y-114499122D01*
X173550200Y-114499122D02*
X173526390Y-114427694D01*
X173526390Y-114427694D02*
X173526390Y-114308646D01*
X190793609Y-139962782D02*
X190793609Y-139653258D01*
X190793609Y-139653258D02*
X190984085Y-139819925D01*
X190984085Y-139819925D02*
X190984085Y-139748496D01*
X190984085Y-139748496D02*
X191007895Y-139700877D01*
X191007895Y-139700877D02*
X191031704Y-139677068D01*
X191031704Y-139677068D02*
X191079323Y-139653258D01*
X191079323Y-139653258D02*
X191198371Y-139653258D01*
X191198371Y-139653258D02*
X191245990Y-139677068D01*
X191245990Y-139677068D02*
X191269800Y-139700877D01*
X191269800Y-139700877D02*
X191293609Y-139748496D01*
X191293609Y-139748496D02*
X191293609Y-139891353D01*
X191293609Y-139891353D02*
X191269800Y-139938972D01*
X191269800Y-139938972D02*
X191245990Y-139962782D01*
X190793609Y-139224687D02*
X190793609Y-139319925D01*
X190793609Y-139319925D02*
X190817419Y-139367544D01*
X190817419Y-139367544D02*
X190841228Y-139391354D01*
X190841228Y-139391354D02*
X190912657Y-139438973D01*
X190912657Y-139438973D02*
X191007895Y-139462782D01*
X191007895Y-139462782D02*
X191198371Y-139462782D01*
X191198371Y-139462782D02*
X191245990Y-139438973D01*
X191245990Y-139438973D02*
X191269800Y-139415163D01*
X191269800Y-139415163D02*
X191293609Y-139367544D01*
X191293609Y-139367544D02*
X191293609Y-139272306D01*
X191293609Y-139272306D02*
X191269800Y-139224687D01*
X191269800Y-139224687D02*
X191245990Y-139200878D01*
X191245990Y-139200878D02*
X191198371Y-139177068D01*
X191198371Y-139177068D02*
X191079323Y-139177068D01*
X191079323Y-139177068D02*
X191031704Y-139200878D01*
X191031704Y-139200878D02*
X191007895Y-139224687D01*
X191007895Y-139224687D02*
X190984085Y-139272306D01*
X190984085Y-139272306D02*
X190984085Y-139367544D01*
X190984085Y-139367544D02*
X191007895Y-139415163D01*
X191007895Y-139415163D02*
X191031704Y-139438973D01*
X191031704Y-139438973D02*
X191079323Y-139462782D01*
X189233609Y-142086591D02*
X189233609Y-141800877D01*
X189733609Y-141943734D02*
X189233609Y-141943734D01*
X189471704Y-141634211D02*
X189471704Y-141467544D01*
X189733609Y-141396116D02*
X189733609Y-141634211D01*
X189733609Y-141634211D02*
X189233609Y-141634211D01*
X189233609Y-141634211D02*
X189233609Y-141396116D01*
X189733609Y-141181830D02*
X189233609Y-141181830D01*
X189233609Y-141181830D02*
X189590752Y-141015163D01*
X189590752Y-141015163D02*
X189233609Y-140848497D01*
X189233609Y-140848497D02*
X189733609Y-140848497D01*
X189733609Y-140610401D02*
X189233609Y-140610401D01*
X189233609Y-140610401D02*
X189233609Y-140419925D01*
X189233609Y-140419925D02*
X189257419Y-140372306D01*
X189257419Y-140372306D02*
X189281228Y-140348496D01*
X189281228Y-140348496D02*
X189328847Y-140324687D01*
X189328847Y-140324687D02*
X189400276Y-140324687D01*
X189400276Y-140324687D02*
X189447895Y-140348496D01*
X189447895Y-140348496D02*
X189471704Y-140372306D01*
X189471704Y-140372306D02*
X189495514Y-140419925D01*
X189495514Y-140419925D02*
X189495514Y-140610401D01*
X191293609Y-132915163D02*
X190793609Y-132915163D01*
X190793609Y-132915163D02*
X191150752Y-132748496D01*
X191150752Y-132748496D02*
X190793609Y-132581830D01*
X190793609Y-132581830D02*
X191293609Y-132581830D01*
X190793609Y-132415162D02*
X190793609Y-132129448D01*
X191293609Y-132272305D02*
X190793609Y-132272305D01*
X191245990Y-131677068D02*
X191269800Y-131700877D01*
X191269800Y-131700877D02*
X191293609Y-131772306D01*
X191293609Y-131772306D02*
X191293609Y-131819925D01*
X191293609Y-131819925D02*
X191269800Y-131891353D01*
X191269800Y-131891353D02*
X191222180Y-131938972D01*
X191222180Y-131938972D02*
X191174561Y-131962782D01*
X191174561Y-131962782D02*
X191079323Y-131986591D01*
X191079323Y-131986591D02*
X191007895Y-131986591D01*
X191007895Y-131986591D02*
X190912657Y-131962782D01*
X190912657Y-131962782D02*
X190865038Y-131938972D01*
X190865038Y-131938972D02*
X190817419Y-131891353D01*
X190817419Y-131891353D02*
X190793609Y-131819925D01*
X190793609Y-131819925D02*
X190793609Y-131772306D01*
X190793609Y-131772306D02*
X190817419Y-131700877D01*
X190817419Y-131700877D02*
X190841228Y-131677068D01*
X191293609Y-131462782D02*
X190793609Y-131462782D01*
X191293609Y-131177068D02*
X191007895Y-131391353D01*
X190793609Y-131177068D02*
X191079323Y-131462782D01*
X190793609Y-134962782D02*
X190793609Y-134653258D01*
X190793609Y-134653258D02*
X190984085Y-134819925D01*
X190984085Y-134819925D02*
X190984085Y-134748496D01*
X190984085Y-134748496D02*
X191007895Y-134700877D01*
X191007895Y-134700877D02*
X191031704Y-134677068D01*
X191031704Y-134677068D02*
X191079323Y-134653258D01*
X191079323Y-134653258D02*
X191198371Y-134653258D01*
X191198371Y-134653258D02*
X191245990Y-134677068D01*
X191245990Y-134677068D02*
X191269800Y-134700877D01*
X191269800Y-134700877D02*
X191293609Y-134748496D01*
X191293609Y-134748496D02*
X191293609Y-134891353D01*
X191293609Y-134891353D02*
X191269800Y-134938972D01*
X191269800Y-134938972D02*
X191245990Y-134962782D01*
X191007895Y-134367544D02*
X190984085Y-134415163D01*
X190984085Y-134415163D02*
X190960276Y-134438973D01*
X190960276Y-134438973D02*
X190912657Y-134462782D01*
X190912657Y-134462782D02*
X190888847Y-134462782D01*
X190888847Y-134462782D02*
X190841228Y-134438973D01*
X190841228Y-134438973D02*
X190817419Y-134415163D01*
X190817419Y-134415163D02*
X190793609Y-134367544D01*
X190793609Y-134367544D02*
X190793609Y-134272306D01*
X190793609Y-134272306D02*
X190817419Y-134224687D01*
X190817419Y-134224687D02*
X190841228Y-134200878D01*
X190841228Y-134200878D02*
X190888847Y-134177068D01*
X190888847Y-134177068D02*
X190912657Y-134177068D01*
X190912657Y-134177068D02*
X190960276Y-134200878D01*
X190960276Y-134200878D02*
X190984085Y-134224687D01*
X190984085Y-134224687D02*
X191007895Y-134272306D01*
X191007895Y-134272306D02*
X191007895Y-134367544D01*
X191007895Y-134367544D02*
X191031704Y-134415163D01*
X191031704Y-134415163D02*
X191055514Y-134438973D01*
X191055514Y-134438973D02*
X191103133Y-134462782D01*
X191103133Y-134462782D02*
X191198371Y-134462782D01*
X191198371Y-134462782D02*
X191245990Y-134438973D01*
X191245990Y-134438973D02*
X191269800Y-134415163D01*
X191269800Y-134415163D02*
X191293609Y-134367544D01*
X191293609Y-134367544D02*
X191293609Y-134272306D01*
X191293609Y-134272306D02*
X191269800Y-134224687D01*
X191269800Y-134224687D02*
X191245990Y-134200878D01*
X191245990Y-134200878D02*
X191198371Y-134177068D01*
X191198371Y-134177068D02*
X191103133Y-134177068D01*
X191103133Y-134177068D02*
X191055514Y-134200878D01*
X191055514Y-134200878D02*
X191031704Y-134224687D01*
X191031704Y-134224687D02*
X191007895Y-134272306D01*
X173566390Y-149146741D02*
X173566390Y-148861027D01*
X173566390Y-149003884D02*
X174066390Y-149003884D01*
X174066390Y-149003884D02*
X173994961Y-148956265D01*
X173994961Y-148956265D02*
X173947342Y-148908646D01*
X173947342Y-148908646D02*
X173923533Y-148861027D01*
X174066390Y-149599121D02*
X174066390Y-149361026D01*
X174066390Y-149361026D02*
X173828295Y-149337217D01*
X173828295Y-149337217D02*
X173852104Y-149361026D01*
X173852104Y-149361026D02*
X173875914Y-149408645D01*
X173875914Y-149408645D02*
X173875914Y-149527693D01*
X173875914Y-149527693D02*
X173852104Y-149575312D01*
X173852104Y-149575312D02*
X173828295Y-149599121D01*
X173828295Y-149599121D02*
X173780676Y-149622931D01*
X173780676Y-149622931D02*
X173661628Y-149622931D01*
X173661628Y-149622931D02*
X173614009Y-149599121D01*
X173614009Y-149599121D02*
X173590200Y-149575312D01*
X173590200Y-149575312D02*
X173566390Y-149527693D01*
X173566390Y-149527693D02*
X173566390Y-149408645D01*
X173566390Y-149408645D02*
X173590200Y-149361026D01*
X173590200Y-149361026D02*
X173614009Y-149337217D01*
X173859723Y-126999122D02*
X173526390Y-126999122D01*
X174050200Y-126880074D02*
X173693057Y-126761027D01*
X173693057Y-126761027D02*
X173693057Y-127070550D01*
X181972931Y-149133609D02*
X181734836Y-149133609D01*
X181734836Y-149133609D02*
X181711027Y-149371704D01*
X181711027Y-149371704D02*
X181734836Y-149347895D01*
X181734836Y-149347895D02*
X181782455Y-149324085D01*
X181782455Y-149324085D02*
X181901503Y-149324085D01*
X181901503Y-149324085D02*
X181949122Y-149347895D01*
X181949122Y-149347895D02*
X181972931Y-149371704D01*
X181972931Y-149371704D02*
X181996741Y-149419323D01*
X181996741Y-149419323D02*
X181996741Y-149538371D01*
X181996741Y-149538371D02*
X181972931Y-149585990D01*
X181972931Y-149585990D02*
X181949122Y-149609800D01*
X181949122Y-149609800D02*
X181901503Y-149633609D01*
X181901503Y-149633609D02*
X181782455Y-149633609D01*
X181782455Y-149633609D02*
X181734836Y-149609800D01*
X181734836Y-149609800D02*
X181711027Y-149585990D01*
X182139598Y-149133609D02*
X182306264Y-149633609D01*
X182306264Y-149633609D02*
X182472931Y-149133609D01*
X182639597Y-149633609D02*
X182639597Y-149300276D01*
X182639597Y-149133609D02*
X182615788Y-149157419D01*
X182615788Y-149157419D02*
X182639597Y-149181228D01*
X182639597Y-149181228D02*
X182663407Y-149157419D01*
X182663407Y-149157419D02*
X182639597Y-149133609D01*
X182639597Y-149133609D02*
X182639597Y-149181228D01*
X182877692Y-149300276D02*
X182877692Y-149633609D01*
X182877692Y-149347895D02*
X182901502Y-149324085D01*
X182901502Y-149324085D02*
X182949121Y-149300276D01*
X182949121Y-149300276D02*
X183020549Y-149300276D01*
X183020549Y-149300276D02*
X183068168Y-149324085D01*
X183068168Y-149324085D02*
X183091978Y-149371704D01*
X183091978Y-149371704D02*
X183091978Y-149633609D01*
X190693609Y-144962782D02*
X190693609Y-144653258D01*
X190693609Y-144653258D02*
X190884085Y-144819925D01*
X190884085Y-144819925D02*
X190884085Y-144748496D01*
X190884085Y-144748496D02*
X190907895Y-144700877D01*
X190907895Y-144700877D02*
X190931704Y-144677068D01*
X190931704Y-144677068D02*
X190979323Y-144653258D01*
X190979323Y-144653258D02*
X191098371Y-144653258D01*
X191098371Y-144653258D02*
X191145990Y-144677068D01*
X191145990Y-144677068D02*
X191169800Y-144700877D01*
X191169800Y-144700877D02*
X191193609Y-144748496D01*
X191193609Y-144748496D02*
X191193609Y-144891353D01*
X191193609Y-144891353D02*
X191169800Y-144938972D01*
X191169800Y-144938972D02*
X191145990Y-144962782D01*
X190860276Y-144224687D02*
X191193609Y-144224687D01*
X190669800Y-144343735D02*
X191026942Y-144462782D01*
X191026942Y-144462782D02*
X191026942Y-144153259D01*
X173526390Y-144746741D02*
X173526390Y-144461027D01*
X173526390Y-144603884D02*
X174026390Y-144603884D01*
X174026390Y-144603884D02*
X173954961Y-144556265D01*
X173954961Y-144556265D02*
X173907342Y-144508646D01*
X173907342Y-144508646D02*
X173883533Y-144461027D01*
X174026390Y-144913407D02*
X174026390Y-145222931D01*
X174026390Y-145222931D02*
X173835914Y-145056264D01*
X173835914Y-145056264D02*
X173835914Y-145127693D01*
X173835914Y-145127693D02*
X173812104Y-145175312D01*
X173812104Y-145175312D02*
X173788295Y-145199121D01*
X173788295Y-145199121D02*
X173740676Y-145222931D01*
X173740676Y-145222931D02*
X173621628Y-145222931D01*
X173621628Y-145222931D02*
X173574009Y-145199121D01*
X173574009Y-145199121D02*
X173550200Y-145175312D01*
X173550200Y-145175312D02*
X173526390Y-145127693D01*
X173526390Y-145127693D02*
X173526390Y-144984836D01*
X173526390Y-144984836D02*
X173550200Y-144937217D01*
X173550200Y-144937217D02*
X173574009Y-144913407D01*
X184506741Y-149157419D02*
X184459122Y-149133609D01*
X184459122Y-149133609D02*
X184387693Y-149133609D01*
X184387693Y-149133609D02*
X184316265Y-149157419D01*
X184316265Y-149157419D02*
X184268646Y-149205038D01*
X184268646Y-149205038D02*
X184244836Y-149252657D01*
X184244836Y-149252657D02*
X184221027Y-149347895D01*
X184221027Y-149347895D02*
X184221027Y-149419323D01*
X184221027Y-149419323D02*
X184244836Y-149514561D01*
X184244836Y-149514561D02*
X184268646Y-149562180D01*
X184268646Y-149562180D02*
X184316265Y-149609800D01*
X184316265Y-149609800D02*
X184387693Y-149633609D01*
X184387693Y-149633609D02*
X184435312Y-149633609D01*
X184435312Y-149633609D02*
X184506741Y-149609800D01*
X184506741Y-149609800D02*
X184530550Y-149585990D01*
X184530550Y-149585990D02*
X184530550Y-149419323D01*
X184530550Y-149419323D02*
X184435312Y-149419323D01*
X184744836Y-149633609D02*
X184744836Y-149133609D01*
X184744836Y-149133609D02*
X185030550Y-149633609D01*
X185030550Y-149633609D02*
X185030550Y-149133609D01*
X185268646Y-149633609D02*
X185268646Y-149133609D01*
X185268646Y-149133609D02*
X185387694Y-149133609D01*
X185387694Y-149133609D02*
X185459122Y-149157419D01*
X185459122Y-149157419D02*
X185506741Y-149205038D01*
X185506741Y-149205038D02*
X185530551Y-149252657D01*
X185530551Y-149252657D02*
X185554360Y-149347895D01*
X185554360Y-149347895D02*
X185554360Y-149419323D01*
X185554360Y-149419323D02*
X185530551Y-149514561D01*
X185530551Y-149514561D02*
X185506741Y-149562180D01*
X185506741Y-149562180D02*
X185459122Y-149609800D01*
X185459122Y-149609800D02*
X185387694Y-149633609D01*
X185387694Y-149633609D02*
X185268646Y-149633609D01*
X177346741Y-149633609D02*
X177061027Y-149633609D01*
X177203884Y-149633609D02*
X177203884Y-149133609D01*
X177203884Y-149133609D02*
X177156265Y-149205038D01*
X177156265Y-149205038D02*
X177108646Y-149252657D01*
X177108646Y-149252657D02*
X177061027Y-149276466D01*
X177513407Y-149133609D02*
X177846740Y-149133609D01*
X177846740Y-149133609D02*
X177632455Y-149633609D01*
X176028572Y-129161760D02*
X176195239Y-129161760D01*
X176266667Y-129423665D02*
X176028572Y-129423665D01*
X176028572Y-129423665D02*
X176028572Y-128923665D01*
X176028572Y-128923665D02*
X176266667Y-128923665D01*
X176457144Y-129399856D02*
X176528572Y-129423665D01*
X176528572Y-129423665D02*
X176647620Y-129423665D01*
X176647620Y-129423665D02*
X176695239Y-129399856D01*
X176695239Y-129399856D02*
X176719048Y-129376046D01*
X176719048Y-129376046D02*
X176742858Y-129328427D01*
X176742858Y-129328427D02*
X176742858Y-129280808D01*
X176742858Y-129280808D02*
X176719048Y-129233189D01*
X176719048Y-129233189D02*
X176695239Y-129209379D01*
X176695239Y-129209379D02*
X176647620Y-129185570D01*
X176647620Y-129185570D02*
X176552382Y-129161760D01*
X176552382Y-129161760D02*
X176504763Y-129137951D01*
X176504763Y-129137951D02*
X176480953Y-129114141D01*
X176480953Y-129114141D02*
X176457144Y-129066522D01*
X176457144Y-129066522D02*
X176457144Y-129018903D01*
X176457144Y-129018903D02*
X176480953Y-128971284D01*
X176480953Y-128971284D02*
X176504763Y-128947475D01*
X176504763Y-128947475D02*
X176552382Y-128923665D01*
X176552382Y-128923665D02*
X176671429Y-128923665D01*
X176671429Y-128923665D02*
X176742858Y-128947475D01*
X176957143Y-129423665D02*
X176957143Y-128923665D01*
X176957143Y-128923665D02*
X177147619Y-128923665D01*
X177147619Y-128923665D02*
X177195238Y-128947475D01*
X177195238Y-128947475D02*
X177219048Y-128971284D01*
X177219048Y-128971284D02*
X177242857Y-129018903D01*
X177242857Y-129018903D02*
X177242857Y-129090332D01*
X177242857Y-129090332D02*
X177219048Y-129137951D01*
X177219048Y-129137951D02*
X177195238Y-129161760D01*
X177195238Y-129161760D02*
X177147619Y-129185570D01*
X177147619Y-129185570D02*
X176957143Y-129185570D01*
X177409524Y-128923665D02*
X177719048Y-128923665D01*
X177719048Y-128923665D02*
X177552381Y-129114141D01*
X177552381Y-129114141D02*
X177623810Y-129114141D01*
X177623810Y-129114141D02*
X177671429Y-129137951D01*
X177671429Y-129137951D02*
X177695238Y-129161760D01*
X177695238Y-129161760D02*
X177719048Y-129209379D01*
X177719048Y-129209379D02*
X177719048Y-129328427D01*
X177719048Y-129328427D02*
X177695238Y-129376046D01*
X177695238Y-129376046D02*
X177671429Y-129399856D01*
X177671429Y-129399856D02*
X177623810Y-129423665D01*
X177623810Y-129423665D02*
X177480953Y-129423665D01*
X177480953Y-129423665D02*
X177433334Y-129399856D01*
X177433334Y-129399856D02*
X177409524Y-129376046D01*
X177909524Y-128971284D02*
X177933333Y-128947475D01*
X177933333Y-128947475D02*
X177980952Y-128923665D01*
X177980952Y-128923665D02*
X178100000Y-128923665D01*
X178100000Y-128923665D02*
X178147619Y-128947475D01*
X178147619Y-128947475D02*
X178171428Y-128971284D01*
X178171428Y-128971284D02*
X178195238Y-129018903D01*
X178195238Y-129018903D02*
X178195238Y-129066522D01*
X178195238Y-129066522D02*
X178171428Y-129137951D01*
X178171428Y-129137951D02*
X177885714Y-129423665D01*
X177885714Y-129423665D02*
X178195238Y-129423665D01*
X176719048Y-130204828D02*
X176790476Y-130228637D01*
X176790476Y-130228637D02*
X176909524Y-130228637D01*
X176909524Y-130228637D02*
X176957143Y-130204828D01*
X176957143Y-130204828D02*
X176980952Y-130181018D01*
X176980952Y-130181018D02*
X177004762Y-130133399D01*
X177004762Y-130133399D02*
X177004762Y-130085780D01*
X177004762Y-130085780D02*
X176980952Y-130038161D01*
X176980952Y-130038161D02*
X176957143Y-130014351D01*
X176957143Y-130014351D02*
X176909524Y-129990542D01*
X176909524Y-129990542D02*
X176814286Y-129966732D01*
X176814286Y-129966732D02*
X176766667Y-129942923D01*
X176766667Y-129942923D02*
X176742857Y-129919113D01*
X176742857Y-129919113D02*
X176719048Y-129871494D01*
X176719048Y-129871494D02*
X176719048Y-129823875D01*
X176719048Y-129823875D02*
X176742857Y-129776256D01*
X176742857Y-129776256D02*
X176766667Y-129752447D01*
X176766667Y-129752447D02*
X176814286Y-129728637D01*
X176814286Y-129728637D02*
X176933333Y-129728637D01*
X176933333Y-129728637D02*
X177004762Y-129752447D01*
X177171428Y-129728637D02*
X177480952Y-129728637D01*
X177480952Y-129728637D02*
X177314285Y-129919113D01*
X177314285Y-129919113D02*
X177385714Y-129919113D01*
X177385714Y-129919113D02*
X177433333Y-129942923D01*
X177433333Y-129942923D02*
X177457142Y-129966732D01*
X177457142Y-129966732D02*
X177480952Y-130014351D01*
X177480952Y-130014351D02*
X177480952Y-130133399D01*
X177480952Y-130133399D02*
X177457142Y-130181018D01*
X177457142Y-130181018D02*
X177433333Y-130204828D01*
X177433333Y-130204828D02*
X177385714Y-130228637D01*
X177385714Y-130228637D02*
X177242857Y-130228637D01*
X177242857Y-130228637D02*
X177195238Y-130204828D01*
X177195238Y-130204828D02*
X177171428Y-130181018D01*
X176433333Y-131033609D02*
X176433333Y-130533609D01*
X176433333Y-130533609D02*
X176600000Y-130890752D01*
X176600000Y-130890752D02*
X176766666Y-130533609D01*
X176766666Y-130533609D02*
X176766666Y-131033609D01*
X177004762Y-131033609D02*
X177004762Y-130533609D01*
X177242857Y-131033609D02*
X177242857Y-130533609D01*
X177242857Y-130533609D02*
X177528571Y-131033609D01*
X177528571Y-131033609D02*
X177528571Y-130533609D01*
X177766667Y-131033609D02*
X177766667Y-130533609D01*
X185333609Y-131815163D02*
X185738371Y-131815163D01*
X185738371Y-131815163D02*
X185785990Y-131791353D01*
X185785990Y-131791353D02*
X185809800Y-131767544D01*
X185809800Y-131767544D02*
X185833609Y-131719925D01*
X185833609Y-131719925D02*
X185833609Y-131624687D01*
X185833609Y-131624687D02*
X185809800Y-131577068D01*
X185809800Y-131577068D02*
X185785990Y-131553258D01*
X185785990Y-131553258D02*
X185738371Y-131529449D01*
X185738371Y-131529449D02*
X185333609Y-131529449D01*
X185809800Y-131315162D02*
X185833609Y-131243734D01*
X185833609Y-131243734D02*
X185833609Y-131124686D01*
X185833609Y-131124686D02*
X185809800Y-131077067D01*
X185809800Y-131077067D02*
X185785990Y-131053258D01*
X185785990Y-131053258D02*
X185738371Y-131029448D01*
X185738371Y-131029448D02*
X185690752Y-131029448D01*
X185690752Y-131029448D02*
X185643133Y-131053258D01*
X185643133Y-131053258D02*
X185619323Y-131077067D01*
X185619323Y-131077067D02*
X185595514Y-131124686D01*
X185595514Y-131124686D02*
X185571704Y-131219924D01*
X185571704Y-131219924D02*
X185547895Y-131267543D01*
X185547895Y-131267543D02*
X185524085Y-131291353D01*
X185524085Y-131291353D02*
X185476466Y-131315162D01*
X185476466Y-131315162D02*
X185428847Y-131315162D01*
X185428847Y-131315162D02*
X185381228Y-131291353D01*
X185381228Y-131291353D02*
X185357419Y-131267543D01*
X185357419Y-131267543D02*
X185333609Y-131219924D01*
X185333609Y-131219924D02*
X185333609Y-131100877D01*
X185333609Y-131100877D02*
X185357419Y-131029448D01*
X185571704Y-130648496D02*
X185595514Y-130577068D01*
X185595514Y-130577068D02*
X185619323Y-130553258D01*
X185619323Y-130553258D02*
X185666942Y-130529449D01*
X185666942Y-130529449D02*
X185738371Y-130529449D01*
X185738371Y-130529449D02*
X185785990Y-130553258D01*
X185785990Y-130553258D02*
X185809800Y-130577068D01*
X185809800Y-130577068D02*
X185833609Y-130624687D01*
X185833609Y-130624687D02*
X185833609Y-130815163D01*
X185833609Y-130815163D02*
X185333609Y-130815163D01*
X185333609Y-130815163D02*
X185333609Y-130648496D01*
X185333609Y-130648496D02*
X185357419Y-130600877D01*
X185357419Y-130600877D02*
X185381228Y-130577068D01*
X185381228Y-130577068D02*
X185428847Y-130553258D01*
X185428847Y-130553258D02*
X185476466Y-130553258D01*
X185476466Y-130553258D02*
X185524085Y-130577068D01*
X185524085Y-130577068D02*
X185547895Y-130600877D01*
X185547895Y-130600877D02*
X185571704Y-130648496D01*
X185571704Y-130648496D02*
X185571704Y-130815163D01*
X185381228Y-129958020D02*
X185357419Y-129934211D01*
X185357419Y-129934211D02*
X185333609Y-129886592D01*
X185333609Y-129886592D02*
X185333609Y-129767544D01*
X185333609Y-129767544D02*
X185357419Y-129719925D01*
X185357419Y-129719925D02*
X185381228Y-129696116D01*
X185381228Y-129696116D02*
X185428847Y-129672306D01*
X185428847Y-129672306D02*
X185476466Y-129672306D01*
X185476466Y-129672306D02*
X185547895Y-129696116D01*
X185547895Y-129696116D02*
X185833609Y-129981830D01*
X185833609Y-129981830D02*
X185833609Y-129672306D01*
X185785990Y-129458021D02*
X185809800Y-129434211D01*
X185809800Y-129434211D02*
X185833609Y-129458021D01*
X185833609Y-129458021D02*
X185809800Y-129481830D01*
X185809800Y-129481830D02*
X185785990Y-129458021D01*
X185785990Y-129458021D02*
X185833609Y-129458021D01*
X185333609Y-129124688D02*
X185333609Y-129077069D01*
X185333609Y-129077069D02*
X185357419Y-129029450D01*
X185357419Y-129029450D02*
X185381228Y-129005640D01*
X185381228Y-129005640D02*
X185428847Y-128981831D01*
X185428847Y-128981831D02*
X185524085Y-128958021D01*
X185524085Y-128958021D02*
X185643133Y-128958021D01*
X185643133Y-128958021D02*
X185738371Y-128981831D01*
X185738371Y-128981831D02*
X185785990Y-129005640D01*
X185785990Y-129005640D02*
X185809800Y-129029450D01*
X185809800Y-129029450D02*
X185833609Y-129077069D01*
X185833609Y-129077069D02*
X185833609Y-129124688D01*
X185833609Y-129124688D02*
X185809800Y-129172307D01*
X185809800Y-129172307D02*
X185785990Y-129196116D01*
X185785990Y-129196116D02*
X185738371Y-129219926D01*
X185738371Y-129219926D02*
X185643133Y-129243735D01*
X185643133Y-129243735D02*
X185524085Y-129243735D01*
X185524085Y-129243735D02*
X185428847Y-129219926D01*
X185428847Y-129219926D02*
X185381228Y-129196116D01*
X185381228Y-129196116D02*
X185357419Y-129172307D01*
X185357419Y-129172307D02*
X185333609Y-129124688D01*
X174026390Y-132199122D02*
X174026390Y-132103884D01*
X174026390Y-132103884D02*
X174002580Y-132056265D01*
X174002580Y-132056265D02*
X173978771Y-132032455D01*
X173978771Y-132032455D02*
X173907342Y-131984836D01*
X173907342Y-131984836D02*
X173812104Y-131961027D01*
X173812104Y-131961027D02*
X173621628Y-131961027D01*
X173621628Y-131961027D02*
X173574009Y-131984836D01*
X173574009Y-131984836D02*
X173550200Y-132008646D01*
X173550200Y-132008646D02*
X173526390Y-132056265D01*
X173526390Y-132056265D02*
X173526390Y-132151503D01*
X173526390Y-132151503D02*
X173550200Y-132199122D01*
X173550200Y-132199122D02*
X173574009Y-132222931D01*
X173574009Y-132222931D02*
X173621628Y-132246741D01*
X173621628Y-132246741D02*
X173740676Y-132246741D01*
X173740676Y-132246741D02*
X173788295Y-132222931D01*
X173788295Y-132222931D02*
X173812104Y-132199122D01*
X173812104Y-132199122D02*
X173835914Y-132151503D01*
X173835914Y-132151503D02*
X173835914Y-132056265D01*
X173835914Y-132056265D02*
X173812104Y-132008646D01*
X173812104Y-132008646D02*
X173788295Y-131984836D01*
X173788295Y-131984836D02*
X173740676Y-131961027D01*
X191293609Y-119329449D02*
X191055514Y-119496115D01*
X191293609Y-119615163D02*
X190793609Y-119615163D01*
X190793609Y-119615163D02*
X190793609Y-119424687D01*
X190793609Y-119424687D02*
X190817419Y-119377068D01*
X190817419Y-119377068D02*
X190841228Y-119353258D01*
X190841228Y-119353258D02*
X190888847Y-119329449D01*
X190888847Y-119329449D02*
X190960276Y-119329449D01*
X190960276Y-119329449D02*
X191007895Y-119353258D01*
X191007895Y-119353258D02*
X191031704Y-119377068D01*
X191031704Y-119377068D02*
X191055514Y-119424687D01*
X191055514Y-119424687D02*
X191055514Y-119615163D01*
X190793609Y-119162782D02*
X191293609Y-118829449D01*
X190793609Y-118829449D02*
X191293609Y-119162782D01*
X189431704Y-136348496D02*
X189455514Y-136277068D01*
X189455514Y-136277068D02*
X189479323Y-136253258D01*
X189479323Y-136253258D02*
X189526942Y-136229449D01*
X189526942Y-136229449D02*
X189598371Y-136229449D01*
X189598371Y-136229449D02*
X189645990Y-136253258D01*
X189645990Y-136253258D02*
X189669800Y-136277068D01*
X189669800Y-136277068D02*
X189693609Y-136324687D01*
X189693609Y-136324687D02*
X189693609Y-136515163D01*
X189693609Y-136515163D02*
X189193609Y-136515163D01*
X189193609Y-136515163D02*
X189193609Y-136348496D01*
X189193609Y-136348496D02*
X189217419Y-136300877D01*
X189217419Y-136300877D02*
X189241228Y-136277068D01*
X189241228Y-136277068D02*
X189288847Y-136253258D01*
X189288847Y-136253258D02*
X189336466Y-136253258D01*
X189336466Y-136253258D02*
X189384085Y-136277068D01*
X189384085Y-136277068D02*
X189407895Y-136300877D01*
X189407895Y-136300877D02*
X189431704Y-136348496D01*
X189431704Y-136348496D02*
X189431704Y-136515163D01*
X189193609Y-135919925D02*
X189193609Y-135824687D01*
X189193609Y-135824687D02*
X189217419Y-135777068D01*
X189217419Y-135777068D02*
X189265038Y-135729449D01*
X189265038Y-135729449D02*
X189360276Y-135705639D01*
X189360276Y-135705639D02*
X189526942Y-135705639D01*
X189526942Y-135705639D02*
X189622180Y-135729449D01*
X189622180Y-135729449D02*
X189669800Y-135777068D01*
X189669800Y-135777068D02*
X189693609Y-135824687D01*
X189693609Y-135824687D02*
X189693609Y-135919925D01*
X189693609Y-135919925D02*
X189669800Y-135967544D01*
X189669800Y-135967544D02*
X189622180Y-136015163D01*
X189622180Y-136015163D02*
X189526942Y-136038972D01*
X189526942Y-136038972D02*
X189360276Y-136038972D01*
X189360276Y-136038972D02*
X189265038Y-136015163D01*
X189265038Y-136015163D02*
X189217419Y-135967544D01*
X189217419Y-135967544D02*
X189193609Y-135919925D01*
X189193609Y-135396115D02*
X189193609Y-135300877D01*
X189193609Y-135300877D02*
X189217419Y-135253258D01*
X189217419Y-135253258D02*
X189265038Y-135205639D01*
X189265038Y-135205639D02*
X189360276Y-135181829D01*
X189360276Y-135181829D02*
X189526942Y-135181829D01*
X189526942Y-135181829D02*
X189622180Y-135205639D01*
X189622180Y-135205639D02*
X189669800Y-135253258D01*
X189669800Y-135253258D02*
X189693609Y-135300877D01*
X189693609Y-135300877D02*
X189693609Y-135396115D01*
X189693609Y-135396115D02*
X189669800Y-135443734D01*
X189669800Y-135443734D02*
X189622180Y-135491353D01*
X189622180Y-135491353D02*
X189526942Y-135515162D01*
X189526942Y-135515162D02*
X189360276Y-135515162D01*
X189360276Y-135515162D02*
X189265038Y-135491353D01*
X189265038Y-135491353D02*
X189217419Y-135443734D01*
X189217419Y-135443734D02*
X189193609Y-135396115D01*
X189193609Y-135038971D02*
X189193609Y-134753257D01*
X189693609Y-134896114D02*
X189193609Y-134896114D01*
X190693609Y-147562782D02*
X190693609Y-147253258D01*
X190693609Y-147253258D02*
X190884085Y-147419925D01*
X190884085Y-147419925D02*
X190884085Y-147348496D01*
X190884085Y-147348496D02*
X190907895Y-147300877D01*
X190907895Y-147300877D02*
X190931704Y-147277068D01*
X190931704Y-147277068D02*
X190979323Y-147253258D01*
X190979323Y-147253258D02*
X191098371Y-147253258D01*
X191098371Y-147253258D02*
X191145990Y-147277068D01*
X191145990Y-147277068D02*
X191169800Y-147300877D01*
X191169800Y-147300877D02*
X191193609Y-147348496D01*
X191193609Y-147348496D02*
X191193609Y-147491353D01*
X191193609Y-147491353D02*
X191169800Y-147538972D01*
X191169800Y-147538972D02*
X191145990Y-147562782D01*
X190693609Y-147086592D02*
X190693609Y-146777068D01*
X190693609Y-146777068D02*
X190884085Y-146943735D01*
X190884085Y-146943735D02*
X190884085Y-146872306D01*
X190884085Y-146872306D02*
X190907895Y-146824687D01*
X190907895Y-146824687D02*
X190931704Y-146800878D01*
X190931704Y-146800878D02*
X190979323Y-146777068D01*
X190979323Y-146777068D02*
X191098371Y-146777068D01*
X191098371Y-146777068D02*
X191145990Y-146800878D01*
X191145990Y-146800878D02*
X191169800Y-146824687D01*
X191169800Y-146824687D02*
X191193609Y-146872306D01*
X191193609Y-146872306D02*
X191193609Y-147015163D01*
X191193609Y-147015163D02*
X191169800Y-147062782D01*
X191169800Y-147062782D02*
X191145990Y-147086592D01*
X175276390Y-143013408D02*
X174776390Y-143180074D01*
X174776390Y-143180074D02*
X175276390Y-143346741D01*
X174728771Y-143394360D02*
X174728771Y-143775312D01*
X174776390Y-144180073D02*
X175014485Y-144013407D01*
X174776390Y-143894359D02*
X175276390Y-143894359D01*
X175276390Y-143894359D02*
X175276390Y-144084835D01*
X175276390Y-144084835D02*
X175252580Y-144132454D01*
X175252580Y-144132454D02*
X175228771Y-144156264D01*
X175228771Y-144156264D02*
X175181152Y-144180073D01*
X175181152Y-144180073D02*
X175109723Y-144180073D01*
X175109723Y-144180073D02*
X175062104Y-144156264D01*
X175062104Y-144156264D02*
X175038295Y-144132454D01*
X175038295Y-144132454D02*
X175014485Y-144084835D01*
X175014485Y-144084835D02*
X175014485Y-143894359D01*
X175038295Y-144394359D02*
X175038295Y-144561026D01*
X174776390Y-144632454D02*
X174776390Y-144394359D01*
X174776390Y-144394359D02*
X175276390Y-144394359D01*
X175276390Y-144394359D02*
X175276390Y-144632454D01*
X175252580Y-145108645D02*
X175276390Y-145061026D01*
X175276390Y-145061026D02*
X175276390Y-144989597D01*
X175276390Y-144989597D02*
X175252580Y-144918169D01*
X175252580Y-144918169D02*
X175204961Y-144870550D01*
X175204961Y-144870550D02*
X175157342Y-144846740D01*
X175157342Y-144846740D02*
X175062104Y-144822931D01*
X175062104Y-144822931D02*
X174990676Y-144822931D01*
X174990676Y-144822931D02*
X174895438Y-144846740D01*
X174895438Y-144846740D02*
X174847819Y-144870550D01*
X174847819Y-144870550D02*
X174800200Y-144918169D01*
X174800200Y-144918169D02*
X174776390Y-144989597D01*
X174776390Y-144989597D02*
X174776390Y-145037216D01*
X174776390Y-145037216D02*
X174800200Y-145108645D01*
X174800200Y-145108645D02*
X174824009Y-145132454D01*
X174824009Y-145132454D02*
X174990676Y-145132454D01*
X174990676Y-145132454D02*
X174990676Y-145037216D01*
D11*
X186769673Y-129767219D02*
X186769673Y-130576742D01*
X186769673Y-130576742D02*
X186817292Y-130671980D01*
X186817292Y-130671980D02*
X186864911Y-130719600D01*
X186864911Y-130719600D02*
X186960149Y-130767219D01*
X186960149Y-130767219D02*
X187150625Y-130767219D01*
X187150625Y-130767219D02*
X187245863Y-130719600D01*
X187245863Y-130719600D02*
X187293482Y-130671980D01*
X187293482Y-130671980D02*
X187341101Y-130576742D01*
X187341101Y-130576742D02*
X187341101Y-129767219D01*
X187817292Y-129767219D02*
X187817292Y-130576742D01*
X187817292Y-130576742D02*
X187864911Y-130671980D01*
X187864911Y-130671980D02*
X187912530Y-130719600D01*
X187912530Y-130719600D02*
X188007768Y-130767219D01*
X188007768Y-130767219D02*
X188198244Y-130767219D01*
X188198244Y-130767219D02*
X188293482Y-130719600D01*
X188293482Y-130719600D02*
X188341101Y-130671980D01*
X188341101Y-130671980D02*
X188388720Y-130576742D01*
X188388720Y-130576742D02*
X188388720Y-129767219D01*
D12*
%TO.C,C11*%
X187312164Y-144940000D02*
X187527836Y-144940000D01*
X187312164Y-145660000D02*
X187527836Y-145660000D01*
%TO.C,R14*%
X187553641Y-142920000D02*
X187246359Y-142920000D01*
X187553641Y-143680000D02*
X187246359Y-143680000D01*
%TO.C,D7*%
X183350000Y-128900000D02*
X184710000Y-128900000D01*
X183350000Y-129700000D02*
X184710000Y-129700000D01*
X184710000Y-129700000D02*
X184710000Y-128900000D01*
%TO.C,D8*%
X180940000Y-128900000D02*
X180940000Y-129700000D01*
X182300000Y-128900000D02*
X180940000Y-128900000D01*
X182300000Y-129700000D02*
X180940000Y-129700000D01*
D11*
%TO.C,L1*%
X176760000Y-142700000D02*
X177360000Y-142700000D01*
D12*
%TO.C,C12*%
X187507836Y-137690000D02*
X187292164Y-137690000D01*
X187507836Y-138410000D02*
X187292164Y-138410000D01*
D13*
%TO.C,D6*%
X186385000Y-146015000D02*
X188585000Y-146015000D01*
X186385000Y-147015000D02*
X186385000Y-147215000D01*
X188585000Y-147015000D02*
X188585000Y-147215000D01*
X188585000Y-148215000D02*
X186385000Y-148215000D01*
D11*
X185984800Y-147088000D02*
G75*
G02*
X185784800Y-147088000I-100000J0D01*
G01*
X185784800Y-147088000D02*
G75*
G02*
X185984800Y-147088000I100000J0D01*
G01*
D12*
%TO.C,C5*%
X177167836Y-144340000D02*
X176952164Y-144340000D01*
X177167836Y-145060000D02*
X176952164Y-145060000D01*
D10*
%TO.C,D4*%
X184600000Y-140800000D02*
G75*
G02*
X184500000Y-140800000I-50000J0D01*
G01*
X184500000Y-140800000D02*
G75*
G02*
X184600000Y-140800000I50000J0D01*
G01*
D12*
%TO.C,R4*%
X185470000Y-134896359D02*
X185470000Y-135203641D01*
X186230000Y-134896359D02*
X186230000Y-135203641D01*
D10*
%TO.C,D5*%
X179250000Y-133625000D02*
G75*
G02*
X179150000Y-133625000I-50000J0D01*
G01*
X179150000Y-133625000D02*
G75*
G02*
X179250000Y-133625000I50000J0D01*
G01*
D12*
%TO.C,R12*%
X177820000Y-132406359D02*
X177820000Y-132713641D01*
X178580000Y-132406359D02*
X178580000Y-132713641D01*
%TO.C,R13*%
X176996359Y-138670000D02*
X177303641Y-138670000D01*
X176996359Y-139430000D02*
X177303641Y-139430000D01*
%TO.C,C9*%
X179432164Y-139440000D02*
X179647836Y-139440000D01*
X179432164Y-140160000D02*
X179647836Y-140160000D01*
D14*
%TO.C,J3*%
X181999000Y-142895000D02*
X181999000Y-146705000D01*
X184539000Y-141625000D02*
X185301000Y-141625000D01*
X184539000Y-147975000D02*
X185301000Y-147975000D01*
X185301000Y-141625000D02*
X185301000Y-142387000D01*
X185301000Y-147975000D02*
X185301000Y-147213000D01*
D12*
%TO.C,C14*%
X185240000Y-140387836D02*
X185240000Y-140172164D01*
X185960000Y-140387836D02*
X185960000Y-140172164D01*
%TO.C,R16*%
X187553641Y-143920000D02*
X187246359Y-143920000D01*
X187553641Y-144680000D02*
X187246359Y-144680000D01*
%TO.C,R5*%
X179270000Y-135203641D02*
X179270000Y-134896359D01*
X180030000Y-135203641D02*
X180030000Y-134896359D01*
%TO.C,D1*%
X179115000Y-138400000D02*
X180475000Y-138400000D01*
X179115000Y-139200000D02*
X180475000Y-139200000D01*
X180475000Y-139200000D02*
X180475000Y-138400000D01*
%TO.C,U1*%
X174600000Y-113000000D02*
X190200000Y-113000000D01*
X174600000Y-128600000D02*
X174600000Y-113000000D01*
X190200000Y-113000000D02*
X190200000Y-128600000D01*
X190200000Y-128600000D02*
X174600000Y-128600000D01*
X174425000Y-114850000D02*
X174089000Y-115090000D01*
X174089000Y-114610000D01*
X174425000Y-114850000D01*
G36*
X174425000Y-114850000D02*
G01*
X174089000Y-115090000D01*
X174089000Y-114610000D01*
X174425000Y-114850000D01*
G37*
%TO.C,C4*%
X173527836Y-116640000D02*
X173312164Y-116640000D01*
X173527836Y-117360000D02*
X173312164Y-117360000D01*
%TO.C,R1*%
X180780000Y-143646359D02*
X180780000Y-143953641D01*
X181540000Y-143646359D02*
X181540000Y-143953641D01*
%TO.C,U3*%
X179150000Y-147999252D02*
X179150000Y-146665000D01*
X181370000Y-146665000D02*
X181370000Y-148135000D01*
X179140000Y-148290000D02*
X178950000Y-148430000D01*
X178950000Y-148150000D01*
X179140000Y-148290000D01*
G36*
X179140000Y-148290000D02*
G01*
X178950000Y-148430000D01*
X178950000Y-148150000D01*
X179140000Y-148290000D01*
G37*
%TO.C,C1*%
X178800000Y-141607836D02*
X178800000Y-141392164D01*
X179520000Y-141607836D02*
X179520000Y-141392164D01*
%TO.C,U2*%
X176550000Y-147999252D02*
X176550000Y-146665000D01*
X178770000Y-146665000D02*
X178770000Y-148135000D01*
X176540000Y-148290000D02*
X176350000Y-148430000D01*
X176350000Y-148150000D01*
X176540000Y-148290000D01*
G36*
X176540000Y-148290000D02*
G01*
X176350000Y-148430000D01*
X176350000Y-148150000D01*
X176540000Y-148290000D01*
G37*
D11*
%TO.C,S1*%
X176050000Y-135100000D02*
X176050000Y-136300000D01*
D10*
X176900000Y-133750000D02*
X176900000Y-133750000D01*
X176900000Y-133850000D02*
X176900000Y-133850000D01*
D11*
X177750000Y-135100000D02*
X177750000Y-136300000D01*
D10*
X176900000Y-133750000D02*
G75*
G02*
X176900000Y-133850000I0J-50000D01*
G01*
X176900000Y-133850000D02*
G75*
G02*
X176900000Y-133750000I0J50000D01*
G01*
D12*
%TO.C,C10*%
X177042164Y-137690000D02*
X177257836Y-137690000D01*
X177042164Y-138410000D02*
X177257836Y-138410000D01*
%TO.C,R11*%
X181396359Y-140420000D02*
X181703641Y-140420000D01*
X181396359Y-141180000D02*
X181703641Y-141180000D01*
%TO.C,U4*%
X186465000Y-141500000D02*
X186465000Y-140900000D01*
X186465000Y-141500000D02*
X186465000Y-142100000D01*
X188335000Y-141500000D02*
X188335000Y-140900000D01*
X188335000Y-141500000D02*
X188335000Y-142100000D01*
D11*
X186547500Y-142770000D02*
G75*
G02*
X186347500Y-142770000I-100000J0D01*
G01*
X186347500Y-142770000D02*
G75*
G02*
X186547500Y-142770000I100000J0D01*
G01*
D12*
%TO.C,R17*%
X187246359Y-138670000D02*
X187553641Y-138670000D01*
X187246359Y-139430000D02*
X187553641Y-139430000D01*
%TO.C,C3*%
X173507836Y-115640000D02*
X173292164Y-115640000D01*
X173507836Y-116360000D02*
X173292164Y-116360000D01*
%TO.C,C2*%
X179800000Y-141607836D02*
X179800000Y-141392164D01*
X180520000Y-141607836D02*
X180520000Y-141392164D01*
D11*
%TO.C,J2*%
X181205000Y-130580000D02*
X181205000Y-130580000D01*
X181205000Y-130580000D02*
X181205000Y-130580000D01*
X181205000Y-130580000D02*
X181205000Y-131300000D01*
X181205000Y-130580000D02*
X184365000Y-130580000D01*
X181205000Y-131300000D02*
X181205000Y-130580000D01*
X181205000Y-131300000D02*
X181205000Y-131300000D01*
X181205000Y-134050000D02*
X181205000Y-134050000D01*
X181205000Y-134050000D02*
X181205000Y-136050000D01*
X181205000Y-136050000D02*
X181205000Y-134050000D01*
X181205000Y-136050000D02*
X181205000Y-136050000D01*
X181205000Y-139050000D02*
X181205000Y-139050000D01*
X181205000Y-139050000D02*
X181205000Y-139520000D01*
X181205000Y-139520000D02*
X181205000Y-139050000D01*
X181205000Y-139520000D02*
X181205000Y-139520000D01*
X181205000Y-139520000D02*
X181205000Y-139520000D01*
X181205000Y-139520000D02*
X184365000Y-139520000D01*
X181920000Y-140050000D02*
X181920000Y-140050000D01*
X181920000Y-140150000D02*
X181920000Y-140050000D01*
X181920000Y-140150000D02*
X181920000Y-140150000D01*
X184365000Y-130580000D02*
X181205000Y-130580000D01*
X184365000Y-130580000D02*
X184365000Y-130580000D01*
X184365000Y-130580000D02*
X184365000Y-130580000D01*
X184365000Y-130580000D02*
X184365000Y-131300000D01*
X184365000Y-131300000D02*
X184365000Y-130580000D01*
X184365000Y-131300000D02*
X184365000Y-131300000D01*
X184365000Y-134300000D02*
X184365000Y-134300000D01*
X184365000Y-134300000D02*
X184365000Y-136050000D01*
X184365000Y-136050000D02*
X184365000Y-134300000D01*
X184365000Y-136050000D02*
X184365000Y-136050000D01*
X184365000Y-138800000D02*
X184365000Y-138800000D01*
X184365000Y-138800000D02*
X184365000Y-139520000D01*
X184365000Y-139520000D02*
X181205000Y-139520000D01*
X184365000Y-139520000D02*
X184365000Y-138800000D01*
X184365000Y-139520000D02*
X184365000Y-139520000D01*
X184365000Y-139520000D02*
X184365000Y-139520000D01*
X181920000Y-140050000D02*
G75*
G02*
X181920000Y-140150000I0J-50000D01*
G01*
X181920000Y-140150000D02*
G75*
G02*
X181920000Y-140050000I0J50000D01*
G01*
%TO.C,S2*%
X186800000Y-135100000D02*
X186800000Y-136300000D01*
D10*
X187650000Y-133750000D02*
X187650000Y-133750000D01*
X187650000Y-133850000D02*
X187650000Y-133850000D01*
D11*
X188500000Y-135100000D02*
X188500000Y-136300000D01*
D10*
X187650000Y-133750000D02*
G75*
G02*
X187650000Y-133850000I0J-50000D01*
G01*
X187650000Y-133850000D02*
G75*
G02*
X187650000Y-133750000I0J50000D01*
G01*
%TO.C,IC1*%
X180710000Y-144100000D02*
X180710000Y-144100000D01*
X180810000Y-144100000D02*
X180810000Y-144100000D01*
X180710000Y-144100000D02*
G75*
G02*
X180810000Y-144100000I50000J0D01*
G01*
X180810000Y-144100000D02*
G75*
G02*
X180710000Y-144100000I-50000J0D01*
G01*
%TD*%
M02*
