%TF.GenerationSoftware,KiCad,Pcbnew,9.0.7-9.0.7~ubuntu22.04.1*%
%TF.CreationDate,2026-02-10T09:56:37-07:00*%
%TF.ProjectId,ESP32-S3-MINI-1_UU,45535033-322d-4533-932d-4d494e492d31,rev?*%
%TF.SameCoordinates,Original*%
%TF.FileFunction,Soldermask,Top*%
%TF.FilePolarity,Negative*%
%FSLAX46Y46*%
G04 Gerber Fmt 4.6, Leading zero omitted, Abs format (unit mm)*
G04 Created by KiCad (PCBNEW 9.0.7-9.0.7~ubuntu22.04.1) date 2026-02-10 09:56:37*
%MOMM*%
%LPD*%
G01*
G04 APERTURE LIST*
G04 Aperture macros list*
%AMRoundRect*
0 Rectangle with rounded corners*
0 $1 Rounding radius*
0 $2 $3 $4 $5 $6 $7 $8 $9 X,Y pos of 4 corners*
0 Add a 4 corners polygon primitive as box body*
4,1,4,$2,$3,$4,$5,$6,$7,$8,$9,$2,$3,0*
0 Add four circle primitives for the rounded corners*
1,1,$1+$1,$2,$3*
1,1,$1+$1,$4,$5*
1,1,$1+$1,$6,$7*
1,1,$1+$1,$8,$9*
0 Add four rect primitives between the rounded corners*
20,1,$1+$1,$2,$3,$4,$5,0*
20,1,$1+$1,$4,$5,$6,$7,0*
20,1,$1+$1,$6,$7,$8,$9,0*
20,1,$1+$1,$8,$9,$2,$3,0*%
%AMOutline5P*
0 Free polygon, 5 corners , with rotation*
0 The origin of the aperture is its center*
0 number of corners: always 5*
0 $1 to $10 corner X, Y*
0 $11 Rotation angle, in degrees counterclockwise*
0 create outline with 5 corners*
4,1,5,$1,$2,$3,$4,$5,$6,$7,$8,$9,$10,$1,$2,$11*%
%AMOutline6P*
0 Free polygon, 6 corners , with rotation*
0 The origin of the aperture is its center*
0 number of corners: always 6*
0 $1 to $12 corner X, Y*
0 $13 Rotation angle, in degrees counterclockwise*
0 create outline with 6 corners*
4,1,6,$1,$2,$3,$4,$5,$6,$7,$8,$9,$10,$11,$12,$1,$2,$13*%
%AMOutline7P*
0 Free polygon, 7 corners , with rotation*
0 The origin of the aperture is its center*
0 number of corners: always 7*
0 $1 to $14 corner X, Y*
0 $15 Rotation angle, in degrees counterclockwise*
0 create outline with 7 corners*
4,1,7,$1,$2,$3,$4,$5,$6,$7,$8,$9,$10,$11,$12,$13,$14,$1,$2,$15*%
%AMOutline8P*
0 Free polygon, 8 corners , with rotation*
0 The origin of the aperture is its center*
0 number of corners: always 8*
0 $1 to $16 corner X, Y*
0 $17 Rotation angle, in degrees counterclockwise*
0 create outline with 8 corners*
4,1,8,$1,$2,$3,$4,$5,$6,$7,$8,$9,$10,$11,$12,$13,$14,$15,$16,$1,$2,$17*%
G04 Aperture macros list end*
%ADD10RoundRect,0.140000X-0.140000X-0.170000X0.140000X-0.170000X0.140000X0.170000X-0.140000X0.170000X0*%
%ADD11RoundRect,0.135000X0.135000X0.185000X-0.135000X0.185000X-0.135000X-0.185000X0.135000X-0.185000X0*%
%ADD12RoundRect,0.135000X0.185000X-0.135000X0.185000X0.135000X-0.185000X0.135000X-0.185000X-0.135000X0*%
%ADD13RoundRect,0.135000X-0.185000X0.135000X-0.185000X-0.135000X0.185000X-0.135000X0.185000X0.135000X0*%
%ADD14RoundRect,0.062500X-0.117500X-0.062500X0.117500X-0.062500X0.117500X0.062500X-0.117500X0.062500X0*%
%ADD15RoundRect,0.062500X0.117500X0.062500X-0.117500X0.062500X-0.117500X-0.062500X0.117500X-0.062500X0*%
%ADD16R,1.000000X0.900000*%
%ADD17RoundRect,0.140000X0.170000X-0.140000X0.170000X0.140000X-0.170000X0.140000X-0.170000X-0.140000X0*%
%ADD18RoundRect,0.140000X0.140000X0.170000X-0.140000X0.170000X-0.140000X-0.170000X0.140000X-0.170000X0*%
%ADD19R,0.700000X0.700000*%
%ADD20RoundRect,0.147500X0.147500X0.172500X-0.147500X0.172500X-0.147500X-0.172500X0.147500X-0.172500X0*%
%ADD21RoundRect,0.147500X0.172500X-0.147500X0.172500X0.147500X-0.172500X0.147500X-0.172500X-0.147500X0*%
%ADD22R,0.200000X0.750000*%
%ADD23R,1.600000X1.000000*%
%ADD24R,1.600000X1.600000*%
%ADD25C,1.600000*%
%ADD26RoundRect,0.135000X-0.135000X-0.185000X0.135000X-0.185000X0.135000X0.185000X-0.135000X0.185000X0*%
%ADD27R,1.550000X0.600000*%
%ADD28R,2.000000X1.200000*%
%ADD29R,0.700000X0.300000*%
%ADD30R,0.800000X1.380000*%
%ADD31RoundRect,0.140000X-0.170000X0.140000X-0.170000X-0.140000X0.170000X-0.140000X0.170000X0.140000X0*%
%ADD32R,1.000000X4.600000*%
%ADD33R,1.600000X3.400000*%
%ADD34RoundRect,0.147500X-0.172500X0.147500X-0.172500X-0.147500X0.172500X-0.147500X0.172500X0.147500X0*%
%ADD35R,0.800000X0.400000*%
%ADD36R,0.400000X0.800000*%
%ADD37Outline5P,-0.600000X0.204000X-0.204000X0.600000X0.600000X0.600000X0.600000X-0.600000X-0.600000X-0.600000X0.000000*%
%ADD38R,1.200000X1.200000*%
%ADD39R,0.800000X0.800000*%
%ADD40R,1.650000X0.500000*%
%ADD41RoundRect,0.087500X0.087500X-0.250000X0.087500X0.250000X-0.087500X0.250000X-0.087500X-0.250000X0*%
%ADD42C,0.520000*%
%ADD43C,0.890000*%
%ADD44R,0.870000X0.300000*%
%ADD45C,1.460000*%
%ADD46R,0.600000X0.250000*%
%ADD47R,1.000000X0.200000*%
G04 APERTURE END LIST*
D10*
%TO.C,C11*%
X205020000Y-106000000D03*
X205980000Y-106000000D03*
%TD*%
D11*
%TO.C,R14*%
X205510000Y-99000000D03*
X204490000Y-99000000D03*
%TD*%
D12*
%TO.C,R9*%
X195460000Y-108210000D03*
X195460000Y-107190000D03*
%TD*%
D13*
%TO.C,TH1*%
X193360000Y-113890000D03*
X193360000Y-114910000D03*
%TD*%
D14*
%TO.C,D7*%
X201920000Y-85000000D03*
X201080000Y-85000000D03*
%TD*%
D15*
%TO.C,D8*%
X198980000Y-85000000D03*
X199820000Y-85000000D03*
%TD*%
D16*
%TO.C,L1*%
X194500000Y-99662500D03*
X194500000Y-98062500D03*
%TD*%
D17*
%TO.C,C8*%
X196060000Y-112480000D03*
X196060000Y-111520000D03*
%TD*%
D18*
%TO.C,C12*%
X205480000Y-93750000D03*
X204520000Y-93750000D03*
%TD*%
D19*
%TO.C,D6*%
X205915000Y-104800000D03*
X205915000Y-103700000D03*
X204085000Y-103700000D03*
X204085000Y-104800000D03*
%TD*%
D18*
%TO.C,C5*%
X195067500Y-100862500D03*
X194107500Y-100862500D03*
%TD*%
D20*
%TO.C,D4*%
X200870000Y-96500000D03*
X199900000Y-96500000D03*
%TD*%
D13*
%TO.C,R2*%
X194360000Y-113890000D03*
X194360000Y-114910000D03*
%TD*%
%TO.C,R4*%
X203385000Y-89990000D03*
X203385000Y-91010000D03*
%TD*%
D21*
%TO.C,D5*%
X196800000Y-88720000D03*
X196800000Y-87750000D03*
%TD*%
D13*
%TO.C,R12*%
X195800000Y-87750000D03*
X195800000Y-88770000D03*
%TD*%
D22*
%TO.C,IC2*%
X195060000Y-110000000D03*
X194660000Y-110000000D03*
X194260000Y-110000000D03*
X193860000Y-110000000D03*
X193460000Y-110000000D03*
X193460000Y-112200000D03*
X193860000Y-112200000D03*
X194260000Y-112200000D03*
X194660000Y-112200000D03*
X195060000Y-112200000D03*
D23*
X194260000Y-111100000D03*
%TD*%
D24*
%TO.C,J5*%
X189840000Y-74360000D03*
D25*
X189840000Y-76900000D03*
X189840000Y-79440000D03*
X189840000Y-81980000D03*
X189840000Y-84520000D03*
X189840000Y-87060000D03*
X189840000Y-89600000D03*
X189840000Y-92140000D03*
X189840000Y-94680000D03*
X189840000Y-97220000D03*
X189840000Y-99760000D03*
X189840000Y-102300000D03*
X189840000Y-104840000D03*
X189840000Y-107380000D03*
X189840000Y-109920000D03*
X189840000Y-112460000D03*
X189840000Y-115000000D03*
%TD*%
D13*
%TO.C,R3*%
X195360000Y-113890000D03*
X195360000Y-114910000D03*
%TD*%
D26*
%TO.C,R13*%
X194240000Y-94750000D03*
X195260000Y-94750000D03*
%TD*%
D10*
%TO.C,C9*%
X196655000Y-95500000D03*
X197615000Y-95500000D03*
%TD*%
D27*
%TO.C,J3*%
X202761000Y-102000000D03*
X202761000Y-101000000D03*
X202761000Y-100000000D03*
X202761000Y-99000000D03*
D28*
X200336000Y-103300000D03*
X200336000Y-97700000D03*
%TD*%
D17*
%TO.C,C14*%
X203200000Y-96460000D03*
X203200000Y-95500000D03*
%TD*%
D29*
%TO.C,U3*%
X199040000Y-106971130D03*
X199040000Y-106471130D03*
X199040000Y-105971130D03*
X199040000Y-105471130D03*
X197060000Y-105471130D03*
X197060000Y-105971130D03*
X197060000Y-106471130D03*
X197060000Y-106971130D03*
D30*
X198050000Y-106221130D03*
%TD*%
D11*
%TO.C,R16*%
X205510000Y-100000000D03*
X204490000Y-100000000D03*
%TD*%
D31*
%TO.C,C15*%
X200100000Y-106250000D03*
X200100000Y-107210000D03*
%TD*%
D12*
%TO.C,R5*%
X197250000Y-91260000D03*
X197250000Y-90240000D03*
%TD*%
D14*
%TO.C,D1*%
X197635000Y-94550000D03*
X196795000Y-94550000D03*
%TD*%
D17*
%TO.C,C7*%
X201250000Y-105480000D03*
X201250000Y-104520000D03*
%TD*%
D32*
%TO.C,J1*%
X203250000Y-108600000D03*
X201250000Y-108600000D03*
D33*
X205650000Y-113800000D03*
X198850000Y-113800000D03*
%TD*%
D18*
%TO.C,C4*%
X191500000Y-72250000D03*
X190540000Y-72250000D03*
%TD*%
D13*
%TO.C,R1*%
X198750000Y-99940000D03*
X198750000Y-100960000D03*
%TD*%
D24*
%TO.C,J6*%
X210160000Y-69280000D03*
D25*
X210160000Y-71820000D03*
X210160000Y-74360000D03*
X210160000Y-76900000D03*
X210160000Y-79440000D03*
X210160000Y-81980000D03*
X210160000Y-84520000D03*
X210160000Y-87060000D03*
X210160000Y-89600000D03*
X210160000Y-92140000D03*
X210160000Y-94680000D03*
X210160000Y-97220000D03*
X210160000Y-99760000D03*
X210160000Y-102300000D03*
X210160000Y-104840000D03*
X210160000Y-107380000D03*
X210160000Y-109920000D03*
X210160000Y-112460000D03*
X210160000Y-115000000D03*
%TD*%
D34*
%TO.C,D3*%
X196360000Y-113915000D03*
X196360000Y-114885000D03*
%TD*%
D31*
%TO.C,C6*%
X196060000Y-109620000D03*
X196060000Y-110580000D03*
%TD*%
D10*
%TO.C,C1*%
X196810000Y-97500000D03*
X197770000Y-97500000D03*
%TD*%
D12*
%TO.C,R10*%
X197360000Y-114910000D03*
X197360000Y-113890000D03*
%TD*%
D11*
%TO.C,R15*%
X206010000Y-102250000D03*
X204990000Y-102250000D03*
%TD*%
D35*
%TO.C,U2*%
X193000000Y-70550000D03*
X193000000Y-71400000D03*
X193000000Y-72250000D03*
X193000000Y-73100000D03*
X193000000Y-73950000D03*
X193000000Y-74800000D03*
X193000000Y-75650000D03*
X193000000Y-76500000D03*
X193000000Y-77350000D03*
X193000000Y-78200000D03*
X193000000Y-79050000D03*
X193000000Y-79900000D03*
X193000000Y-80750000D03*
X193000000Y-81600000D03*
X193000000Y-82450000D03*
D36*
X194050000Y-83500000D03*
X194900000Y-83500000D03*
X195750000Y-83500000D03*
X196600000Y-83500000D03*
X197450000Y-83500000D03*
X198300000Y-83500000D03*
X199150000Y-83500000D03*
X200000000Y-83500000D03*
X200850000Y-83500000D03*
X201700000Y-83500000D03*
X202550000Y-83500000D03*
X203400000Y-83500000D03*
X204250000Y-83500000D03*
X205100000Y-83500000D03*
X205950000Y-83500000D03*
D35*
X207000000Y-82450000D03*
X207000000Y-81600000D03*
X207000000Y-80750000D03*
X207000000Y-79900000D03*
X207000000Y-79050000D03*
X207000000Y-78200000D03*
X207000000Y-77350000D03*
X207000000Y-76500000D03*
X207000000Y-75650000D03*
X207000000Y-74800000D03*
X207000000Y-73950000D03*
X207000000Y-73100000D03*
X207000000Y-72250000D03*
X207000000Y-71400000D03*
X207000000Y-70550000D03*
D36*
X205950000Y-69500000D03*
X205100000Y-69500000D03*
X204250000Y-69500000D03*
X203400000Y-69500000D03*
X202550000Y-69500000D03*
X201700000Y-69500000D03*
X200850000Y-69500000D03*
X200000000Y-69500000D03*
X199150000Y-69500000D03*
X198300000Y-69500000D03*
X197450000Y-69500000D03*
X196600000Y-69500000D03*
X195750000Y-69500000D03*
X194900000Y-69500000D03*
X194050000Y-69500000D03*
D37*
X198350000Y-74850000D03*
D38*
X198350000Y-76500000D03*
X198350000Y-78150000D03*
X200000000Y-74850000D03*
X200000000Y-76500000D03*
X200000000Y-78150000D03*
X201650000Y-74850000D03*
X201650000Y-76500000D03*
X201650000Y-78150000D03*
D39*
X193000000Y-69500000D03*
X193000000Y-83500000D03*
X207000000Y-83500000D03*
X207000000Y-69500000D03*
%TD*%
D18*
%TO.C,C13*%
X205960000Y-107000000D03*
X205000000Y-107000000D03*
%TD*%
D40*
%TO.C,S1*%
X194500000Y-90250000D03*
X194500000Y-92550000D03*
%TD*%
D10*
%TO.C,C10*%
X194270000Y-93750000D03*
X195230000Y-93750000D03*
%TD*%
D26*
%TO.C,R11*%
X197990000Y-96500000D03*
X199010000Y-96500000D03*
%TD*%
D41*
%TO.C,U4*%
X204500000Y-97912500D03*
X205000000Y-97912500D03*
X205500000Y-97912500D03*
X205500000Y-96487500D03*
X205000000Y-96487500D03*
X204500000Y-96487500D03*
%TD*%
D26*
%TO.C,R17*%
X204490000Y-94750000D03*
X205510000Y-94750000D03*
%TD*%
D24*
%TO.C,J4*%
X189875000Y-69270000D03*
%TD*%
D18*
%TO.C,C3*%
X191480000Y-71250000D03*
X190520000Y-71250000D03*
%TD*%
D10*
%TO.C,C2*%
X196790000Y-98500000D03*
X197750000Y-98500000D03*
%TD*%
D42*
%TO.C,J2*%
X200385000Y-94500000D03*
D43*
X200385000Y-87000000D03*
D44*
X199520000Y-93500000D03*
X199520000Y-92000000D03*
X199520000Y-91500000D03*
X199520000Y-91000000D03*
X199520000Y-90500000D03*
X199520000Y-90000000D03*
X199520000Y-89500000D03*
X199520000Y-88000000D03*
X201250000Y-88000000D03*
X201250000Y-89500000D03*
X201250000Y-90000000D03*
X201250000Y-90500000D03*
X201250000Y-91000000D03*
X201250000Y-91500000D03*
X201250000Y-92000000D03*
X201250000Y-93500000D03*
D45*
X198235000Y-93150000D03*
X198235000Y-88350000D03*
X202535000Y-88350000D03*
X202535000Y-93150000D03*
%TD*%
D12*
%TO.C,R8*%
X193460000Y-108210000D03*
X193460000Y-107190000D03*
%TD*%
D40*
%TO.C,S2*%
X205250000Y-90250000D03*
X205250000Y-92550000D03*
%TD*%
D46*
%TO.C,IC1*%
X197600000Y-100750000D03*
X197600000Y-100250000D03*
X197600000Y-99750000D03*
D47*
X196500000Y-99750000D03*
X196500000Y-100250000D03*
X196500000Y-100750000D03*
%TD*%
D21*
%TO.C,D2*%
X194460000Y-108185000D03*
X194460000Y-107215000D03*
%TD*%
M02*
