M48
; DRILL file KiCad 10.0.3-10.0.3~ubuntu24.04.1 date 2026-06-03T11:59:07
; FORMAT={-:-/ absolute / metric / decimal}
; #@! TF.CreationDate,2026-06-03T11:59:07-07:00
; #@! TF.GenerationSoftware,Kicad,Pcbnew,10.0.3-10.0.3~ubuntu24.04.1
; #@! TF.FileFunction,Plated,1,2,PTH
FMAT,2
METRIC
; #@! TA.AperFunction,Plated,PTH,ViaDrill
T1C0.200
; #@! TA.AperFunction,Plated,PTH,ViaDrill
T2C0.300
; #@! TA.AperFunction,Plated,PTH,ComponentDrill
T3C0.600
; #@! TA.AperFunction,Plated,PTH,CastelletedDrill
T4C0.800
%
G90
G05
T1
X191.693Y-84.093
X191.7Y-86.5
X192.025Y-91.337
X192.725Y-100.05
X192.81Y-101.5
X193.3Y-91.45
X193.35Y-99.16
X193.66Y-101.5
X193.75Y-84.8
X193.85Y-97.85
X194.25Y-89.75
X194.301Y-99.15
X194.65Y-89.0
X195.05Y-89.75
X195.05Y-96.6
X195.3Y-97.8
X195.772Y-97.272
X195.862Y-91.586
X196.65Y-89.75
X197.05Y-89.0
X197.45Y-89.75
X197.65Y-99.35
X198.2Y-93.0
X198.65Y-89.0
X199.65Y-89.75
X200.25Y-89.0
X200.3Y-94.7
X200.3Y-95.65
X200.9Y-89.75
X201.0Y-99.3
X201.3Y-91.4
X201.3Y-93.0
X201.906Y-89.793
X202.194Y-97.225
X202.324Y-96.526
X202.55Y-99.3
X202.65Y-89.75
X202.7Y-93.6
X203.25Y-89.0
X203.945Y-89.724
X204.0Y-93.64
X204.01Y-96.4
X204.25Y-91.9
X204.835Y-103.715
X205.217Y-92.15
X205.223Y-95.217
X205.4Y-106.315
X205.5Y-91.2
X205.76Y-107.65
X205.76Y-108.99
T2
X192.525Y-98.55
T4
X190.0Y-81.15
X190.0Y-83.69
X190.0Y-86.23
X190.0Y-88.77
X190.0Y-91.31
X190.0Y-93.85
X190.0Y-96.39
X190.0Y-98.93
X190.0Y-101.47
X190.0Y-104.01
X190.0Y-106.55
X190.0Y-109.09
X207.8Y-81.15
X207.8Y-83.69
X207.8Y-86.23
X207.8Y-88.77
X207.8Y-91.31
X207.8Y-93.85
X207.8Y-96.39
X207.8Y-98.93
X207.8Y-101.47
X207.8Y-104.01
X207.8Y-106.55
X207.8Y-109.09
T3
G00X194.53Y-102.67
M15
G01X194.53Y-103.77
M16
G05
G00X194.53Y-107.0
M15
G01X194.53Y-107.8
M16
G05
G00X203.17Y-102.67
M15
G01X203.17Y-103.77
M16
G05
G00X203.17Y-107.0
M15
G01X203.17Y-107.8
M16
G05
M30
