%TF.GenerationSoftware,KiCad,Pcbnew,10.0.3-10.0.3~ubuntu24.04.1*%
%TF.CreationDate,2026-06-03T11:59:11-07:00*%
%TF.ProjectId,ESP32-C6,45535033-322d-4433-962e-6b696361645f,rev?*%
%TF.SameCoordinates,Original*%
%TF.FileFunction,Copper,L1,Top*%
%TF.FilePolarity,Positive*%
%FSLAX46Y46*%
G04 Gerber Fmt 4.6, Leading zero omitted, Abs format (unit mm)*
G04 Created by KiCad (PCBNEW 10.0.3-10.0.3~ubuntu24.04.1) date 2026-06-03 11:59:11*
%MOMM*%
%LPD*%
G01*
G04 APERTURE LIST*
G04 Aperture macros list*
%AMRoundRect*
0 Rectangle with rounded corners*
0 $1 Rounding radius*
0 $2 $3 $4 $5 $6 $7 $8 $9 X,Y pos of 4 corners*
0 Add a 4 corners polygon primitive as box body*
4,1,4,$2,$3,$4,$5,$6,$7,$8,$9,$2,$3,0*
0 Add four circle primitives for the rounded corners*
1,1,$1+$1,$2,$3*
1,1,$1+$1,$4,$5*
1,1,$1+$1,$6,$7*
1,1,$1+$1,$8,$9*
0 Add four rect primitives between the rounded corners*
20,1,$1+$1,$2,$3,$4,$5,0*
20,1,$1+$1,$4,$5,$6,$7,0*
20,1,$1+$1,$6,$7,$8,$9,0*
20,1,$1+$1,$8,$9,$2,$3,0*%
%AMOutline5P*
0 Free polygon, 5 corners , with rotation*
0 The origin of the aperture is its center*
0 number of corners: always 5*
0 $1 to $10 corner X, Y*
0 $11 Rotation angle, in degrees counterclockwise*
0 create outline with 5 corners*
4,1,5,$1,$2,$3,$4,$5,$6,$7,$8,$9,$10,$1,$2,$11*%
%AMOutline6P*
0 Free polygon, 6 corners , with rotation*
0 The origin of the aperture is its center*
0 number of corners: always 6*
0 $1 to $12 corner X, Y*
0 $13 Rotation angle, in degrees counterclockwise*
0 create outline with 6 corners*
4,1,6,$1,$2,$3,$4,$5,$6,$7,$8,$9,$10,$11,$12,$1,$2,$13*%
%AMOutline7P*
0 Free polygon, 7 corners , with rotation*
0 The origin of the aperture is its center*
0 number of corners: always 7*
0 $1 to $14 corner X, Y*
0 $15 Rotation angle, in degrees counterclockwise*
0 create outline with 7 corners*
4,1,7,$1,$2,$3,$4,$5,$6,$7,$8,$9,$10,$11,$12,$13,$14,$1,$2,$15*%
%AMOutline8P*
0 Free polygon, 8 corners , with rotation*
0 The origin of the aperture is its center*
0 number of corners: always 8*
0 $1 to $16 corner X, Y*
0 $17 Rotation angle, in degrees counterclockwise*
0 create outline with 8 corners*
4,1,8,$1,$2,$3,$4,$5,$6,$7,$8,$9,$10,$11,$12,$13,$14,$15,$16,$1,$2,$17*%
%AMFreePoly0*
4,1,12,0.260000,0.029000,0.071000,-0.160000,-0.160000,-0.160000,-0.210000,-0.147000,-0.247000,-0.110000,-0.260000,-0.060000,-0.260000,0.060000,-0.247000,0.110000,-0.210000,0.147000,-0.160000,0.160000,0.260000,0.160000,0.260000,0.029000,0.260000,0.029000,$1*%
%AMFreePoly1*
4,1,12,0.260000,-0.029000,0.260000,-0.160000,-0.160000,-0.160000,-0.210000,-0.147000,-0.247000,-0.110000,-0.260000,-0.060000,-0.260000,0.060000,-0.247000,0.110000,-0.210000,0.147000,-0.160000,0.160000,0.071000,0.160000,0.260000,-0.029000,0.260000,-0.029000,$1*%
%AMFreePoly2*
4,1,12,0.210000,0.147000,0.247000,0.110000,0.260000,0.060000,0.260000,-0.060000,0.247000,-0.110000,0.210000,-0.147000,0.160000,-0.160000,-0.260000,-0.160000,-0.260000,-0.029000,-0.071000,0.160000,0.160000,0.160000,0.210000,0.147000,0.210000,0.147000,$1*%
%AMFreePoly3*
4,1,12,0.210000,0.147000,0.247000,0.110000,0.260000,0.060000,0.260000,-0.060000,0.247000,-0.110000,0.210000,-0.147000,0.160000,-0.160000,-0.071000,-0.160000,-0.260000,0.029000,-0.260000,0.160000,0.160000,0.160000,0.210000,0.147000,0.210000,0.147000,$1*%
G04 Aperture macros list end*
%TA.AperFunction,SMDPad,CuDef*%
%ADD10R,1.500000X1.500000*%
%TD*%
%TA.AperFunction,SMDPad,CuDef*%
%ADD11R,0.355600X0.381000*%
%TD*%
%TA.AperFunction,SMDPad,CuDef*%
%ADD12R,0.381000X0.355600*%
%TD*%
%TA.AperFunction,SMDPad,CuDef*%
%ADD13RoundRect,0.147500X0.172500X-0.147500X0.172500X0.147500X-0.172500X0.147500X-0.172500X-0.147500X0*%
%TD*%
%TA.AperFunction,SMDPad,CuDef*%
%ADD14RoundRect,0.135000X-0.185000X0.135000X-0.185000X-0.135000X0.185000X-0.135000X0.185000X0.135000X0*%
%TD*%
%TA.AperFunction,SMDPad,CuDef*%
%ADD15R,0.320000X0.510000*%
%TD*%
%TA.AperFunction,SMDPad,CuDef*%
%ADD16R,0.300000X0.850000*%
%TD*%
%TA.AperFunction,SMDPad,CuDef*%
%ADD17R,0.750000X0.200000*%
%TD*%
%TA.AperFunction,SMDPad,CuDef*%
%ADD18R,1.000000X1.600000*%
%TD*%
%TA.AperFunction,SMDPad,CuDef*%
%ADD19RoundRect,0.140000X-0.140000X-0.170000X0.140000X-0.170000X0.140000X0.170000X-0.140000X0.170000X0*%
%TD*%
%TA.AperFunction,CastellatedPad*%
%ADD20R,1.600000X1.600000*%
%TD*%
%TA.AperFunction,CastellatedPad*%
%ADD21C,1.600000*%
%TD*%
%TA.AperFunction,SMDPad,CuDef*%
%ADD22RoundRect,0.135000X-0.135000X-0.185000X0.135000X-0.185000X0.135000X0.185000X-0.135000X0.185000X0*%
%TD*%
%TA.AperFunction,SMDPad,CuDef*%
%ADD23R,0.300000X0.700000*%
%TD*%
%TA.AperFunction,SMDPad,CuDef*%
%ADD24R,1.380000X0.800000*%
%TD*%
%TA.AperFunction,SMDPad,CuDef*%
%ADD25RoundRect,0.135000X0.135000X0.185000X-0.135000X0.185000X-0.135000X-0.185000X0.135000X-0.185000X0*%
%TD*%
%TA.AperFunction,SMDPad,CuDef*%
%ADD26RoundRect,0.140000X0.140000X0.170000X-0.140000X0.170000X-0.140000X-0.170000X0.140000X-0.170000X0*%
%TD*%
%TA.AperFunction,SMDPad,CuDef*%
%ADD27R,0.800000X0.400000*%
%TD*%
%TA.AperFunction,SMDPad,CuDef*%
%ADD28R,0.400000X0.800000*%
%TD*%
%TA.AperFunction,HeatsinkPad*%
%ADD29Outline5P,-0.725000X0.130500X-0.130500X0.725000X0.725000X0.725000X0.725000X-0.725000X-0.725000X-0.725000X0.000000*%
%TD*%
%TA.AperFunction,HeatsinkPad*%
%ADD30R,1.450000X1.450000*%
%TD*%
%TA.AperFunction,SMDPad,CuDef*%
%ADD31R,0.700000X0.700000*%
%TD*%
%TA.AperFunction,SMDPad,CuDef*%
%ADD32RoundRect,0.147500X0.147500X0.172500X-0.147500X0.172500X-0.147500X-0.172500X0.147500X-0.172500X0*%
%TD*%
%TA.AperFunction,SMDPad,CuDef*%
%ADD33RoundRect,0.147500X-0.172500X0.147500X-0.172500X-0.147500X0.172500X-0.147500X0.172500X0.147500X0*%
%TD*%
%TA.AperFunction,SMDPad,CuDef*%
%ADD34RoundRect,0.135000X0.185000X-0.135000X0.185000X0.135000X-0.185000X0.135000X-0.185000X-0.135000X0*%
%TD*%
%TA.AperFunction,SMDPad,CuDef*%
%ADD35RoundRect,0.140000X0.170000X-0.140000X0.170000X0.140000X-0.170000X0.140000X-0.170000X-0.140000X0*%
%TD*%
%TA.AperFunction,SMDPad,CuDef*%
%ADD36R,0.800000X1.400000*%
%TD*%
%TA.AperFunction,SMDPad,CuDef*%
%ADD37RoundRect,0.150000X-0.150000X-0.425000X0.150000X-0.425000X0.150000X0.425000X-0.150000X0.425000X0*%
%TD*%
%TA.AperFunction,SMDPad,CuDef*%
%ADD38RoundRect,0.075000X-0.075000X-0.500000X0.075000X-0.500000X0.075000X0.500000X-0.075000X0.500000X0*%
%TD*%
%TA.AperFunction,ComponentPad*%
%ADD39O,1.000000X2.100000*%
%TD*%
%TA.AperFunction,ComponentPad*%
%ADD40O,1.000000X1.800000*%
%TD*%
%TA.AperFunction,SMDPad,CuDef*%
%ADD41RoundRect,0.100000X-0.130000X-0.100000X0.130000X-0.100000X0.130000X0.100000X-0.130000X0.100000X0*%
%TD*%
%TA.AperFunction,SMDPad,CuDef*%
%ADD42RoundRect,0.140000X-0.170000X0.140000X-0.170000X-0.140000X0.170000X-0.140000X0.170000X0.140000X0*%
%TD*%
%TA.AperFunction,SMDPad,CuDef*%
%ADD43RoundRect,0.062500X0.117500X0.062500X-0.117500X0.062500X-0.117500X-0.062500X0.117500X-0.062500X0*%
%TD*%
%TA.AperFunction,SMDPad,CuDef*%
%ADD44FreePoly0,0.000000*%
%TD*%
%TA.AperFunction,SMDPad,CuDef*%
%ADD45FreePoly1,0.000000*%
%TD*%
%TA.AperFunction,SMDPad,CuDef*%
%ADD46RoundRect,0.100000X0.000000X-0.106066X0.106066X0.000000X0.000000X0.106066X-0.106066X0.000000X0*%
%TD*%
%TA.AperFunction,SMDPad,CuDef*%
%ADD47FreePoly2,0.000000*%
%TD*%
%TA.AperFunction,SMDPad,CuDef*%
%ADD48FreePoly3,0.000000*%
%TD*%
%TA.AperFunction,ViaPad*%
%ADD49C,0.500000*%
%TD*%
%TA.AperFunction,ViaPad*%
%ADD50C,0.600000*%
%TD*%
%TA.AperFunction,Conductor*%
%ADD51C,0.400000*%
%TD*%
%TA.AperFunction,Conductor*%
%ADD52C,0.200000*%
%TD*%
%TA.AperFunction,Conductor*%
%ADD53C,0.150000*%
%TD*%
%TA.AperFunction,Conductor*%
%ADD54C,0.300000*%
%TD*%
%TA.AperFunction,Conductor*%
%ADD55C,0.250000*%
%TD*%
G04 APERTURE END LIST*
D10*
%TO.P,TP1,1,1_1*%
%TO.N,VBAT*%
X201300000Y-93000000D03*
%TD*%
D11*
%TO.P,U2,1,SCL/SPC_1*%
%TO.N,SCL*%
X196361799Y-97876400D03*
%TO.P,U2,2,CS_2*%
%TO.N,3V3*%
X196861800Y-97876400D03*
%TO.P,U2,3,SDO/SA0_3*%
X197361800Y-97876400D03*
%TO.P,U2,4,SDA/SDI/SDO_4*%
%TO.N,SDA*%
X197861801Y-97876400D03*
D12*
%TO.P,U2,5,NC_5*%
%TO.N,unconnected-(U2-NC-Pad5)*%
X197950000Y-97288200D03*
%TO.P,U2,6,GND_6*%
%TO.N,BAT_GND*%
X197950000Y-96788200D03*
D11*
%TO.P,U2,7,RES_7*%
X197861801Y-96200000D03*
%TO.P,U2,8,GND_8*%
X197361800Y-96200000D03*
%TO.P,U2,9,VDD_9*%
%TO.N,3V3*%
X196861800Y-96200000D03*
%TO.P,U2,10,VDDIO_10*%
X196361799Y-96200000D03*
D12*
%TO.P,U2,11,INT2_11*%
%TO.N,unconnected-(U2-INT2-Pad11)*%
X196273600Y-96788200D03*
%TO.P,U2,12,INT1_12*%
%TO.N,IO14*%
X196273600Y-97288200D03*
%TD*%
D13*
%TO.P,D5,1,K_1*%
%TO.N,BAT_GND*%
X205850000Y-105500000D03*
%TO.P,D5,2,A_2*%
%TO.N,Net-(D5-A)*%
X205850000Y-104530000D03*
%TD*%
D14*
%TO.P,R3,1*%
%TO.N,Net-(IC2-ISET)*%
X205000000Y-100080000D03*
%TO.P,R3,2*%
%TO.N,BAT_GND*%
X205000000Y-101100000D03*
%TD*%
D15*
%TO.P,D9,1*%
%TO.N,D-*%
X198700000Y-101000000D03*
%TO.P,D9,2*%
%TO.N,BAT_GND*%
X198700000Y-100000000D03*
%TD*%
D14*
%TO.P,R2,1*%
%TO.N,Net-(IC2-ILIM{slash}VSET)*%
X204000000Y-100080000D03*
%TO.P,R2,2*%
%TO.N,BAT_GND*%
X204000000Y-101100000D03*
%TD*%
%TO.P,R17,1*%
%TO.N,3V3*%
X191700000Y-86940000D03*
%TO.P,R17,2*%
%TO.N,EN*%
X191700000Y-87960000D03*
%TD*%
D16*
%TO.P,IC1,1,GND_1*%
%TO.N,BAT_GND*%
X192500000Y-96700000D03*
%TO.P,IC1,2,VIN_2*%
%TO.N,V_SYS*%
X193000000Y-96700000D03*
%TO.P,IC1,3,MODE_3*%
%TO.N,BAT_GND*%
X193500000Y-96700000D03*
%TO.P,IC1,4,EN_4*%
%TO.N,V_SYS*%
X194000000Y-96700000D03*
%TO.P,IC1,5,VSET_5*%
%TO.N,Net-(IC1-VSET)*%
X194000000Y-95300000D03*
%TO.P,IC1,6,STOP_6*%
%TO.N,unconnected-(IC1-STOP-Pad6)*%
X193500000Y-95300000D03*
%TO.P,IC1,7,SW_7*%
%TO.N,Net-(IC1-SW)*%
X193000000Y-95300000D03*
%TO.P,IC1,8,VOS_8*%
%TO.N,3V3*%
X192500000Y-95300000D03*
%TD*%
D17*
%TO.P,IC2,1,SYS_1*%
%TO.N,V_SYS*%
X202900000Y-96900000D03*
%TO.P,IC2,2,BAT_2*%
%TO.N,VBAT*%
X202900000Y-97300000D03*
%TO.P,IC2,3,STAT2_3*%
%TO.N,Net-(D2-K)*%
X202900000Y-97700000D03*
%TO.P,IC2,4,~{CE}_4*%
%TO.N,Net-(IC2-~{CE})*%
X202900000Y-98100000D03*
%TO.P,IC2,5,GND_5*%
%TO.N,BAT_GND*%
X202900000Y-98500000D03*
%TO.P,IC2,6,TS/MR_6*%
%TO.N,unconnected-(IC2-TS{slash}MR-Pad6)*%
X205100000Y-98500000D03*
%TO.P,IC2,7,ILIM/VSET_7*%
%TO.N,Net-(IC2-ILIM{slash}VSET)*%
X205100000Y-98100000D03*
%TO.P,IC2,8,ISET_8*%
%TO.N,Net-(IC2-ISET)*%
X205100000Y-97700000D03*
%TO.P,IC2,9,STAT1_9*%
%TO.N,Net-(D3-K)*%
X205100000Y-97300000D03*
%TO.P,IC2,10,IN_10*%
%TO.N,V_USB*%
X205100000Y-96900000D03*
D18*
%TO.P,IC2,11,EP_11*%
%TO.N,BAT_GND*%
X204000000Y-97700000D03*
%TD*%
D19*
%TO.P,C15,1*%
%TO.N,VBAT*%
X203050000Y-95600000D03*
%TO.P,C15,2*%
%TO.N,BAT_GND*%
X204010000Y-95600000D03*
%TD*%
D20*
%TO.P,J1,1,1_1*%
%TO.N,BAT_GND*%
X207800000Y-81150000D03*
D21*
%TO.P,J1,2,2_2*%
%TO.N,TX*%
X207800000Y-83690000D03*
%TO.P,J1,3,3_3*%
%TO.N,RX*%
X207800000Y-86230000D03*
%TO.P,J1,4,4_4*%
%TO.N,IO23*%
X207800000Y-88770000D03*
%TO.P,J1,5,5_5*%
%TO.N,IO22*%
X207800000Y-91310000D03*
%TO.P,J1,6,6_6*%
%TO.N,IO21*%
X207800000Y-93850000D03*
%TO.P,J1,7,7_7*%
%TO.N,IO20*%
X207800000Y-96390000D03*
%TO.P,J1,8,8_8*%
%TO.N,IO19*%
X207800000Y-98930000D03*
%TO.P,J1,9,9_9*%
%TO.N,BAT_ALRT*%
X207800000Y-101470000D03*
%TO.P,J1,10,10_10*%
%TO.N,SCL*%
X207800000Y-104010000D03*
%TO.P,J1,11,11_11*%
%TO.N,SDA*%
X207800000Y-106550000D03*
%TO.P,J1,12,12_12*%
%TO.N,IO15*%
X207800000Y-109090000D03*
%TD*%
D19*
%TO.P,C1,1*%
%TO.N,V_USB*%
X202070000Y-100050000D03*
%TO.P,C1,2*%
%TO.N,BAT_GND*%
X203030000Y-100050000D03*
%TD*%
D22*
%TO.P,R14,1*%
%TO.N,3V3*%
X204740000Y-107100000D03*
%TO.P,R14,2*%
%TO.N,SCL*%
X205760000Y-107100000D03*
%TD*%
D14*
%TO.P,R1,1*%
%TO.N,Net-(IC1-VSET)*%
X195050000Y-95050000D03*
%TO.P,R1,2*%
%TO.N,BAT_GND*%
X195050000Y-96070000D03*
%TD*%
D23*
%TO.P,U3,1,CTG_1*%
%TO.N,BAT_GND*%
X203250000Y-94630000D03*
%TO.P,U3,2,CELL_2*%
%TO.N,VBAT*%
X203750000Y-94630000D03*
%TO.P,U3,3,VDD_3*%
X204250000Y-94630000D03*
%TO.P,U3,4,GND_4*%
%TO.N,BAT_GND*%
X204750000Y-94630000D03*
%TO.P,U3,5,~{ALRT}_5*%
%TO.N,BAT_ALRT*%
X204750000Y-92650000D03*
%TO.P,U3,6,QSTRT_6*%
%TO.N,BAT_GND*%
X204250000Y-92650000D03*
%TO.P,U3,7,SCL_7*%
%TO.N,SCL*%
X203750000Y-92650000D03*
%TO.P,U3,8,SDA_8*%
%TO.N,SDA*%
X203250000Y-92650000D03*
D24*
%TO.P,U3,9,GND_9*%
%TO.N,BAT_GND*%
X204000000Y-93640000D03*
%TD*%
D10*
%TO.P,TP3,1,1_1*%
%TO.N,V_USB*%
X195950000Y-100200000D03*
%TD*%
D25*
%TO.P,R7,1*%
%TO.N,LED*%
X196870000Y-93050000D03*
%TO.P,R7,2*%
%TO.N,Net-(D7-A)*%
X195850000Y-93050000D03*
%TD*%
D26*
%TO.P,C2,1*%
%TO.N,V_SYS*%
X193330000Y-97850000D03*
%TO.P,C2,2*%
%TO.N,BAT_GND*%
X192370000Y-97850000D03*
%TD*%
D27*
%TO.P,U1,1,GND_1*%
%TO.N,BAT_GND*%
X193150000Y-81600000D03*
%TO.P,U1,2,GND_2*%
X193150000Y-82400000D03*
%TO.P,U1,3,3V3_3*%
%TO.N,3V3*%
X193150000Y-83200000D03*
%TO.P,U1,4,NC_4*%
%TO.N,unconnected-(U1-NC-Pad4)*%
X193150000Y-84000000D03*
%TO.P,U1,5,IO2_5*%
%TO.N,LED*%
X193150000Y-84800000D03*
%TO.P,U1,6,IO3_6*%
%TO.N,IO3*%
X193150000Y-85600000D03*
%TO.P,U1,7,NC_7*%
%TO.N,unconnected-(U1-NC-Pad7)*%
X193150000Y-86400000D03*
%TO.P,U1,8,EN_8*%
%TO.N,EN*%
X193150000Y-87200000D03*
%TO.P,U1,9,IO4_9*%
%TO.N,MTMS*%
X193150000Y-88000000D03*
%TO.P,U1,10,IO5_10*%
%TO.N,MTDI*%
X193150000Y-88800000D03*
%TO.P,U1,11,GND_11*%
%TO.N,BAT_GND*%
X193150000Y-89600000D03*
D28*
%TO.P,U1,12,IO0_12*%
%TO.N,IO0*%
X194250000Y-90500000D03*
%TO.P,U1,13,IO1_13*%
%TO.N,IO1*%
X195050000Y-90500000D03*
%TO.P,U1,14,GND_14*%
%TO.N,BAT_GND*%
X195850000Y-90500000D03*
%TO.P,U1,15,IO6_15*%
%TO.N,MTCK*%
X196650000Y-90500000D03*
%TO.P,U1,16,IO7_16*%
%TO.N,MTDO*%
X197450000Y-90500000D03*
%TO.P,U1,17,IO12_17*%
%TO.N,D-*%
X198250000Y-90500000D03*
%TO.P,U1,18,IO13_18*%
%TO.N,D+*%
X199050000Y-90500000D03*
%TO.P,U1,19,IO14_19*%
%TO.N,IO14*%
X199850000Y-90500000D03*
%TO.P,U1,20,IO15_20*%
%TO.N,IO15*%
X200650000Y-90500000D03*
%TO.P,U1,21,NC_21*%
%TO.N,unconnected-(U1-NC-Pad21)*%
X201450000Y-90500000D03*
%TO.P,U1,22,IO8_22*%
%TO.N,SDA*%
X202250000Y-90500000D03*
%TO.P,U1,23,IO9_23*%
%TO.N,SCL*%
X203050000Y-90500000D03*
%TO.P,U1,24,IO18_24*%
%TO.N,BAT_ALRT*%
X203850000Y-90500000D03*
D27*
%TO.P,U1,25,IO19_25*%
%TO.N,IO19*%
X204950000Y-89600000D03*
%TO.P,U1,26,IO20_26*%
%TO.N,IO20*%
X204950000Y-88800000D03*
%TO.P,U1,27,IO21_27*%
%TO.N,IO21*%
X204950000Y-88000000D03*
%TO.P,U1,28,IO22_28*%
%TO.N,IO22*%
X204950000Y-87200000D03*
%TO.P,U1,29,IO23_29*%
%TO.N,IO23*%
X204950000Y-86400000D03*
%TO.P,U1,30,RXD0_30*%
%TO.N,RX*%
X204950000Y-85600000D03*
%TO.P,U1,31,TXD0_31*%
%TO.N,TX*%
X204950000Y-84800000D03*
%TO.P,U1,32,NC_32*%
%TO.N,unconnected-(U1-NC-Pad32)*%
X204950000Y-84000000D03*
%TO.P,U1,33,NC_33*%
%TO.N,unconnected-(U1-NC-Pad33)*%
X204950000Y-83200000D03*
%TO.P,U1,34,NC_34*%
%TO.N,unconnected-(U1-NC-Pad34)*%
X204950000Y-82400000D03*
%TO.P,U1,35,NC_35*%
%TO.N,unconnected-(U1-NC-Pad35)*%
X204950000Y-81600000D03*
D28*
%TO.P,U1,36,GND_36*%
%TO.N,BAT_GND*%
X203850000Y-80700000D03*
%TO.P,U1,37,GND_37*%
X203050000Y-80700000D03*
%TO.P,U1,38,GND_38*%
X202250000Y-80700000D03*
%TO.P,U1,39,GND_39*%
X201450000Y-80700000D03*
%TO.P,U1,40,GND_40*%
X200650000Y-80700000D03*
%TO.P,U1,41,GND_41*%
X199850000Y-80700000D03*
%TO.P,U1,42,GND_42*%
X199050000Y-80700000D03*
%TO.P,U1,43,GND_43*%
X198250000Y-80700000D03*
%TO.P,U1,44,GND_44*%
X197450000Y-80700000D03*
%TO.P,U1,45,GND_45*%
X196650000Y-80700000D03*
%TO.P,U1,46,GND_46*%
X195850000Y-80700000D03*
%TO.P,U1,47,GND_47*%
X195050000Y-80700000D03*
%TO.P,U1,48,GND_48*%
X194250000Y-80700000D03*
D29*
%TO.P,U1,49,GND_49*%
X197075000Y-83625000D03*
D30*
X197075000Y-85600000D03*
X197075000Y-87575000D03*
X199050000Y-83625000D03*
X199050000Y-85600000D03*
X199050000Y-87575000D03*
X201025000Y-83625000D03*
X201025000Y-85600000D03*
X201025000Y-87575000D03*
D31*
%TO.P,U1,50,GND_50*%
X205000000Y-80650000D03*
%TO.P,U1,51,GND_51*%
X205000000Y-90550000D03*
%TO.P,U1,52,GND_52*%
X193100000Y-90550000D03*
%TO.P,U1,53,GND_53*%
X193100000Y-80650000D03*
%TD*%
D19*
%TO.P,C10,1*%
%TO.N,3V3*%
X196370000Y-95100000D03*
%TO.P,C10,2*%
%TO.N,BAT_GND*%
X197330000Y-95100000D03*
%TD*%
D32*
%TO.P,D7,1,K_1*%
%TO.N,BAT_GND*%
X196835000Y-94000000D03*
%TO.P,D7,2,A_2*%
%TO.N,Net-(D7-A)*%
X195865000Y-94000000D03*
%TD*%
D22*
%TO.P,R16,1*%
%TO.N,3V3*%
X204740000Y-108500000D03*
%TO.P,R16,2*%
%TO.N,SDA*%
X205760000Y-108500000D03*
%TD*%
D33*
%TO.P,D3,1,K_1*%
%TO.N,Net-(D3-K)*%
X205835000Y-102115000D03*
%TO.P,D3,2,A_2*%
%TO.N,Net-(D3-A)*%
X205835000Y-103085000D03*
%TD*%
D34*
%TO.P,R5,1*%
%TO.N,Net-(J2-CC2)*%
X201000000Y-101010000D03*
%TO.P,R5,2*%
%TO.N,BAT_GND*%
X201000000Y-99990000D03*
%TD*%
D26*
%TO.P,C6,1*%
%TO.N,V_SYS*%
X201980000Y-95600000D03*
%TO.P,C6,2*%
%TO.N,BAT_GND*%
X201020000Y-95600000D03*
%TD*%
D19*
%TO.P,C5,1*%
%TO.N,3V3*%
X192350000Y-91950000D03*
%TO.P,C5,2*%
%TO.N,BAT_GND*%
X193310000Y-91950000D03*
%TD*%
D26*
%TO.P,C8,1*%
%TO.N,V_USB*%
X205860000Y-95900000D03*
%TO.P,C8,2*%
%TO.N,BAT_GND*%
X204900000Y-95900000D03*
%TD*%
D19*
%TO.P,C9,1*%
%TO.N,3V3*%
X191920000Y-102300000D03*
%TO.P,C9,2*%
%TO.N,BAT_GND*%
X192880000Y-102300000D03*
%TD*%
D35*
%TO.P,C3,1*%
%TO.N,3V3*%
X191700000Y-81630000D03*
%TO.P,C3,2*%
%TO.N,BAT_GND*%
X191700000Y-80670000D03*
%TD*%
D36*
%TO.P,L1,1,1_1*%
%TO.N,Net-(IC1-SW)*%
X194450000Y-93550000D03*
%TO.P,L1,2,2_2*%
%TO.N,3V3*%
X192850000Y-93550000D03*
%TD*%
D14*
%TO.P,R10,1*%
%TO.N,Net-(D3-A)*%
X204835000Y-102115000D03*
%TO.P,R10,2*%
%TO.N,V_USB*%
X204835000Y-103135000D03*
%TD*%
D37*
%TO.P,J2,A1,GND_A1*%
%TO.N,BAT_GND*%
X195650000Y-102645000D03*
%TO.P,J2,A4,VBUS_A4*%
%TO.N,V_USB*%
X196450000Y-102645000D03*
D38*
%TO.P,J2,A5,CC1_A5*%
%TO.N,Net-(J2-CC1)*%
X197600000Y-102645000D03*
%TO.P,J2,A6,D+_A6*%
%TO.N,D+*%
X198600000Y-102645000D03*
%TO.P,J2,A7,D-_A7*%
%TO.N,D-*%
X199100000Y-102645000D03*
%TO.P,J2,A8,SBU1_A8*%
%TO.N,unconnected-(J2-SBU1-PadA8)*%
X200100000Y-102645000D03*
D37*
%TO.P,J2,A9,VBUS_A9*%
%TO.N,V_USB*%
X201250000Y-102645000D03*
%TO.P,J2,A12,GND_A12*%
%TO.N,BAT_GND*%
X202050000Y-102645000D03*
%TO.P,J2,B1,GND_B1*%
X202050000Y-102645000D03*
%TO.P,J2,B4,VBUS_B4*%
%TO.N,V_USB*%
X201250000Y-102645000D03*
D38*
%TO.P,J2,B5,CC2_B5*%
%TO.N,Net-(J2-CC2)*%
X200600000Y-102645000D03*
%TO.P,J2,B6,D+_B6*%
%TO.N,D+*%
X199600000Y-102645000D03*
%TO.P,J2,B7,D-_B7*%
%TO.N,D-*%
X198100000Y-102645000D03*
%TO.P,J2,B8,SBU2_B8*%
%TO.N,unconnected-(J2-SBU2-PadB8)*%
X197100000Y-102645000D03*
D37*
%TO.P,J2,B9,VBUS_B9*%
%TO.N,V_USB*%
X196450000Y-102645000D03*
%TO.P,J2,B12,GND_B12*%
%TO.N,BAT_GND*%
X195650000Y-102645000D03*
D39*
%TO.P,J2,SH,SHIELD_SH*%
X194530000Y-103220000D03*
D40*
X194530000Y-107400000D03*
D39*
X203170000Y-103220000D03*
D40*
X203170000Y-107400000D03*
%TD*%
D41*
%TO.P,C14,1*%
%TO.N,3V3*%
X193630000Y-99750000D03*
%TO.P,C14,2*%
%TO.N,BAT_GND*%
X194270000Y-99750000D03*
%TD*%
D42*
%TO.P,C4,1*%
%TO.N,3V3*%
X191700000Y-82520000D03*
%TO.P,C4,2*%
%TO.N,BAT_GND*%
X191700000Y-83480000D03*
%TD*%
D25*
%TO.P,R13,1*%
%TO.N,3V3*%
X195220000Y-91950000D03*
%TO.P,R13,2*%
%TO.N,IO0*%
X194200000Y-91950000D03*
%TD*%
D34*
%TO.P,R4,1*%
%TO.N,Net-(J2-CC1)*%
X197700000Y-101010000D03*
%TO.P,R4,2*%
%TO.N,BAT_GND*%
X197700000Y-99990000D03*
%TD*%
D26*
%TO.P,C7,1*%
%TO.N,VBAT*%
X201960000Y-94650000D03*
%TO.P,C7,2*%
%TO.N,BAT_GND*%
X201000000Y-94650000D03*
%TD*%
D14*
%TO.P,R6,1*%
%TO.N,V_USB*%
X204800000Y-104515000D03*
%TO.P,R6,2*%
%TO.N,Net-(D5-A)*%
X204800000Y-105535000D03*
%TD*%
D15*
%TO.P,D8,1*%
%TO.N,D+*%
X200000000Y-101000000D03*
%TO.P,D8,2*%
%TO.N,BAT_GND*%
X200000000Y-100000000D03*
%TD*%
D25*
%TO.P,R8,1*%
%TO.N,Net-(IC2-~{CE})*%
X201500000Y-98550000D03*
%TO.P,R8,2*%
%TO.N,BAT_GND*%
X200480000Y-98550000D03*
%TD*%
D43*
%TO.P,D1,1,A1_1*%
%TO.N,V_USB*%
X202070000Y-101000000D03*
%TO.P,D1,2,A2_2*%
%TO.N,BAT_GND*%
X202910000Y-101000000D03*
%TD*%
D25*
%TO.P,R9,1*%
%TO.N,V_SYS*%
X201510000Y-96550000D03*
%TO.P,R9,2*%
%TO.N,Net-(D2-A)*%
X200490000Y-96550000D03*
%TD*%
D32*
%TO.P,D2,1,K_1*%
%TO.N,Net-(D2-K)*%
X201470000Y-97550000D03*
%TO.P,D2,2,A_2*%
%TO.N,Net-(D2-A)*%
X200500000Y-97550000D03*
%TD*%
D44*
%TO.P,U5,1,GND_1*%
%TO.N,BAT_GND*%
X192900000Y-100550000D03*
D45*
%TO.P,U5,2,SCL_2*%
%TO.N,SCL*%
X192900000Y-101030000D03*
D46*
%TO.P,U5,3,ADD0_3*%
%TO.N,BAT_GND*%
X193290000Y-100790000D03*
D47*
%TO.P,U5,4,SDA_4*%
%TO.N,SDA*%
X193680000Y-101030000D03*
D48*
%TO.P,U5,5,V+_5*%
%TO.N,3V3*%
X193680000Y-100550000D03*
%TD*%
D20*
%TO.P,J4,1,1_1*%
%TO.N,BAT_GND*%
X190000000Y-81150000D03*
D21*
%TO.P,J4,2,2_2*%
%TO.N,3V3*%
X190000000Y-83690000D03*
%TO.P,J4,3,3_3*%
%TO.N,LED*%
X190000000Y-86230000D03*
%TO.P,J4,4,4_4*%
%TO.N,IO3*%
X190000000Y-88770000D03*
%TO.P,J4,5,5_5*%
%TO.N,EN*%
X190000000Y-91310000D03*
%TO.P,J4,6,6_6*%
%TO.N,IO0*%
X190000000Y-93850000D03*
%TO.P,J4,7,7_7*%
%TO.N,IO1*%
X190000000Y-96390000D03*
%TO.P,J4,8,8_8*%
%TO.N,MTMS*%
X190000000Y-98930000D03*
%TO.P,J4,9,9_9*%
%TO.N,MTDI*%
X190000000Y-101470000D03*
%TO.P,J4,10,10_10*%
%TO.N,MTCK*%
X190000000Y-104010000D03*
%TO.P,J4,11,11_11*%
%TO.N,MTDO*%
X190000000Y-106550000D03*
%TO.P,J4,12,12_12*%
%TO.N,IO14*%
X190000000Y-109090000D03*
%TD*%
D49*
%TO.N,BAT_GND*%
X195300000Y-97800000D03*
X198200000Y-93000000D03*
%TO.N,SCL*%
X202650000Y-89750000D03*
X193350000Y-99160000D03*
X205760000Y-107650000D03*
X192810000Y-101500000D03*
%TO.N,3V3*%
X192025000Y-91337500D03*
X191700000Y-86500000D03*
%TO.N,SDA*%
X194301472Y-99150000D03*
X201906075Y-89792710D03*
X205760000Y-108990000D03*
X193660000Y-101500000D03*
D50*
%TO.N,BAT_GND*%
X191693413Y-84093413D03*
D49*
X194650000Y-89000000D03*
X193300000Y-91450000D03*
X204010000Y-96400000D03*
X200250000Y-89000000D03*
X201000000Y-99300000D03*
X197650000Y-99350000D03*
X205400000Y-106315000D03*
X203250000Y-89000000D03*
X204250000Y-91900000D03*
X200300000Y-94700000D03*
X205500000Y-91200000D03*
X204000000Y-93640000D03*
D50*
X192525000Y-98550000D03*
D49*
X202700000Y-93600000D03*
X195050000Y-96600000D03*
X198650000Y-89000000D03*
X192725000Y-100050000D03*
X201300000Y-91400000D03*
X200300000Y-95650000D03*
X197050000Y-89000000D03*
%TO.N,IO14*%
X195771752Y-97271752D03*
X199650000Y-89750000D03*
%TO.N,V_SYS*%
X193850000Y-97850000D03*
X202324265Y-96525735D03*
%TO.N,VBAT*%
X202194282Y-97225000D03*
X201300000Y-93000000D03*
%TO.N,V_USB*%
X202550000Y-99300000D03*
X204835000Y-103715000D03*
X205222563Y-95216546D03*
%TO.N,BAT_ALRT*%
X203944562Y-89724129D03*
X205216622Y-92150000D03*
%TO.N,IO15*%
X200900000Y-89750000D03*
%TO.N,LED*%
X193750000Y-84800000D03*
X195861800Y-91586311D03*
%TO.N,IO0*%
X194250000Y-89750000D03*
%TO.N,IO1*%
X195050000Y-89750000D03*
%TO.N,MTCK*%
X196650000Y-89750000D03*
%TO.N,MTDO*%
X197450000Y-89750000D03*
%TD*%
%TO.N,VBAT*%
D51*
X201960000Y-94650000D02*
X201960000Y-94410000D01*
X201960000Y-94410000D02*
X201910000Y-94410000D01*
X201910000Y-94410000D02*
X201300000Y-93800000D01*
X201300000Y-93800000D02*
X201300000Y-93000000D01*
%TO.N,D-*%
D52*
X199100000Y-101100000D02*
X199150000Y-101050000D01*
X199150000Y-101050000D02*
X199150000Y-92150000D01*
X199150000Y-92150000D02*
X198250000Y-91250000D01*
X198250000Y-91250000D02*
X198250000Y-90500000D01*
%TO.N,BAT_GND*%
D51*
X196835000Y-94000000D02*
X198150000Y-94000000D01*
X198150000Y-94000000D02*
X198200000Y-93950000D01*
X198200000Y-93950000D02*
X198400000Y-94150000D01*
X198400000Y-94150000D02*
X198400000Y-94950000D01*
X198400000Y-94950000D02*
X198250000Y-95100000D01*
X198250000Y-95100000D02*
X197330000Y-95100000D01*
%TO.N,Net-(IC2-ILIM{slash}VSET)*%
D53*
X204000000Y-100080000D02*
X204000000Y-99900000D01*
X204000000Y-99900000D02*
X204300000Y-99600000D01*
X204300000Y-99600000D02*
X205400000Y-99600000D01*
X205400000Y-99600000D02*
X205900000Y-99100000D01*
X205625736Y-98100000D02*
X205100000Y-98100000D01*
X205900000Y-99100000D02*
X205900000Y-98374264D01*
X205900000Y-98374264D02*
X205625736Y-98100000D01*
%TO.N,Net-(IC2-ISET)*%
X205100000Y-97700000D02*
X205650000Y-97700000D01*
X205650000Y-97700000D02*
X206200000Y-98250000D01*
X206200000Y-98250000D02*
X206200000Y-99300000D01*
X206200000Y-99300000D02*
X205420000Y-100080000D01*
X205420000Y-100080000D02*
X205000000Y-100080000D01*
%TO.N,BAT_GND*%
D51*
X204000000Y-101100000D02*
X205000000Y-101100000D01*
X204000000Y-101100000D02*
X203900000Y-101000000D01*
X203900000Y-101000000D02*
X202910000Y-101000000D01*
X205090000Y-101010000D02*
X205000000Y-101100000D01*
X204010000Y-96400000D02*
X204010000Y-95600000D01*
X204010000Y-96400000D02*
X204200000Y-96400000D01*
X204200000Y-96400000D02*
X204700000Y-95900000D01*
X204700000Y-95900000D02*
X204900000Y-95900000D01*
D53*
X204010000Y-96400000D02*
X204000000Y-96410000D01*
X204000000Y-96410000D02*
X204000000Y-97700000D01*
%TO.N,SCL*%
X203750000Y-92650000D02*
X203750000Y-92050000D01*
X203050000Y-91350000D02*
X203050000Y-90500000D01*
X205760000Y-106990000D02*
X205760000Y-107350000D01*
X195850000Y-98350000D02*
X194550000Y-98350000D01*
X196361799Y-97838201D02*
X195850000Y-98350000D01*
X192810000Y-101120000D02*
X192900000Y-101030000D01*
X192810000Y-101500000D02*
X192810000Y-101120000D01*
X193860000Y-98650000D02*
X193350000Y-99160000D01*
X203750000Y-92050000D02*
X203050000Y-91350000D01*
X203050000Y-90500000D02*
X203050000Y-90150000D01*
X194250000Y-98650000D02*
X193860000Y-98650000D01*
X207790000Y-104020000D02*
X206600000Y-105210000D01*
D52*
X205760000Y-107650000D02*
X205760000Y-107100000D01*
D53*
X203050000Y-90150000D02*
X202650000Y-89750000D01*
X194550000Y-98350000D02*
X194250000Y-98650000D01*
X206600000Y-105210000D02*
X206600000Y-106150000D01*
X206600000Y-106150000D02*
X205760000Y-106990000D01*
%TO.N,3V3*%
D51*
X192450000Y-93950000D02*
X192850000Y-93550000D01*
D53*
X192150000Y-95300000D02*
X191850000Y-95600000D01*
X193432463Y-98385000D02*
X192250000Y-99567463D01*
X195600000Y-96771752D02*
X194046752Y-98325000D01*
D51*
X191700000Y-82520000D02*
X191970000Y-82520000D01*
D53*
X191850000Y-102230000D02*
X191920000Y-102300000D01*
X195600000Y-95550000D02*
X195600000Y-96771752D01*
X191850000Y-95600000D02*
X191850000Y-102230000D01*
X192515000Y-109675000D02*
X191920000Y-109080000D01*
X194046752Y-98325000D02*
X193685068Y-98325000D01*
X192500000Y-95300000D02*
X192150000Y-95300000D01*
D51*
X192850000Y-93500000D02*
X192350000Y-93000000D01*
D53*
X196861800Y-97876400D02*
X196861800Y-96200000D01*
X192250000Y-99567463D02*
X192250000Y-101970000D01*
X192850000Y-93550000D02*
X193905000Y-92495000D01*
D51*
X192650000Y-83200000D02*
X193150000Y-83200000D01*
D53*
X193625068Y-98385000D02*
X193432463Y-98385000D01*
X196861800Y-96200000D02*
X196361799Y-96200000D01*
D51*
X192025000Y-91337500D02*
X192025000Y-91625000D01*
D53*
X193905000Y-92495000D02*
X194675000Y-92495000D01*
X196050000Y-95100000D02*
X195600000Y-95550000D01*
X194675000Y-92495000D02*
X195220000Y-91950000D01*
X204325000Y-109675000D02*
X192515000Y-109675000D01*
D51*
X191700000Y-81630000D02*
X191700000Y-82520000D01*
X192450000Y-95050000D02*
X192450000Y-93950000D01*
D53*
X193680000Y-100550000D02*
X193680000Y-99800000D01*
X193685068Y-98325000D02*
X193625068Y-98385000D01*
X192250000Y-101970000D02*
X191920000Y-102300000D01*
X191920000Y-109080000D02*
X191920000Y-102300000D01*
D51*
X192350000Y-93000000D02*
X192350000Y-91950000D01*
D53*
X204740000Y-107350000D02*
X204740000Y-109260000D01*
D51*
X192025000Y-91625000D02*
X192350000Y-91950000D01*
X191970000Y-82520000D02*
X192650000Y-83200000D01*
D53*
X197361800Y-97876400D02*
X196861800Y-97876400D01*
X196370000Y-95100000D02*
X196370000Y-96191799D01*
X196370000Y-95100000D02*
X196050000Y-95100000D01*
X192644608Y-99172856D02*
X193221752Y-99750000D01*
X193221752Y-99750000D02*
X193630000Y-99750000D01*
D51*
X190010000Y-83690000D02*
X191180000Y-82520000D01*
D53*
X204740000Y-109260000D02*
X204325000Y-109675000D01*
D51*
X191180000Y-82520000D02*
X191700000Y-82520000D01*
D53*
X191700000Y-86500000D02*
X191700000Y-86940000D01*
%TO.N,SDA*%
X207800000Y-106550000D02*
X205850000Y-108500000D01*
X194301472Y-99148528D02*
X194800000Y-98650000D01*
X203250000Y-92050000D02*
X202250000Y-91050000D01*
X194301472Y-99150000D02*
X194283602Y-99132129D01*
X205760000Y-108990000D02*
X205760000Y-108500000D01*
X203250000Y-92650000D02*
X203250000Y-92050000D01*
X202250000Y-90500000D02*
X202250000Y-90136635D01*
X194283602Y-99132129D02*
X194283602Y-99127068D01*
X193660000Y-101500000D02*
X193660000Y-101050000D01*
X202250000Y-91050000D02*
X202250000Y-90500000D01*
X194301472Y-99150000D02*
X194301472Y-99148528D01*
X202250000Y-90136635D02*
X201906075Y-89792710D01*
X197450000Y-98650000D02*
X197861801Y-98238199D01*
X194800000Y-98650000D02*
X197450000Y-98650000D01*
X197861801Y-98238199D02*
X197861801Y-97876400D01*
X205850000Y-108500000D02*
X205760000Y-108500000D01*
%TO.N,BAT_GND*%
X194640000Y-101090000D02*
X194640000Y-100890000D01*
X201000000Y-99990000D02*
X200010000Y-99990000D01*
D51*
X191130000Y-80670000D02*
X191700000Y-80670000D01*
D53*
X206400000Y-81150000D02*
X207810000Y-81150000D01*
D51*
X203030000Y-100050000D02*
X203030000Y-100880000D01*
D53*
X192650000Y-96000000D02*
X192500000Y-96150000D01*
X197950000Y-96788200D02*
X198738200Y-96788200D01*
X199950000Y-99400000D02*
X199950000Y-91900000D01*
D54*
X195130000Y-102600000D02*
X194530000Y-103200000D01*
D51*
X195050000Y-96600000D02*
X195050000Y-96070000D01*
X190650000Y-81150000D02*
X191130000Y-80670000D01*
D53*
X200000000Y-99450000D02*
X199950000Y-99400000D01*
X203250000Y-94630000D02*
X203250000Y-94130000D01*
D51*
X202910000Y-101740000D02*
X202910000Y-101000000D01*
D53*
X198750000Y-99400000D02*
X198750000Y-96800000D01*
X200020000Y-100020000D02*
X200000000Y-100000000D01*
X197800000Y-91550000D02*
X197800000Y-91150000D01*
X204250000Y-93390000D02*
X204250000Y-92650000D01*
X200480000Y-99030000D02*
X200480000Y-98550000D01*
X193350000Y-96000000D02*
X192650000Y-96000000D01*
D51*
X190000000Y-81150000D02*
X190650000Y-81150000D01*
X202450000Y-103200000D02*
X203170000Y-103200000D01*
D53*
X193050000Y-100550000D02*
X193290000Y-100790000D01*
X200010000Y-99990000D02*
X200000000Y-100000000D01*
D51*
X193310000Y-91460000D02*
X193300000Y-91450000D01*
X193100000Y-91250000D02*
X193100000Y-90550000D01*
D53*
X204750000Y-95139999D02*
X204750000Y-94630000D01*
X194270000Y-100520000D02*
X194270000Y-99750000D01*
X198650000Y-99500000D02*
X198750000Y-99400000D01*
D54*
X192370000Y-97850000D02*
X192370000Y-96780000D01*
D53*
X204750000Y-94130000D02*
X204260000Y-93640000D01*
X199450000Y-91390380D02*
X199450000Y-91150000D01*
X200750000Y-99300000D02*
X200480000Y-99030000D01*
X204289999Y-95600000D02*
X204750000Y-95139999D01*
X201000000Y-99300000D02*
X200750000Y-99300000D01*
X205850000Y-106175000D02*
X205850000Y-105500000D01*
D51*
X191700000Y-80670000D02*
X193080000Y-80670000D01*
D53*
X194900000Y-100690000D02*
X194640000Y-100950000D01*
X198738200Y-96788200D02*
X198750000Y-96800000D01*
D51*
X195850000Y-90500000D02*
X195850000Y-89750000D01*
D53*
X205710000Y-106315000D02*
X205850000Y-106175000D01*
D54*
X192880000Y-102300000D02*
X192880000Y-103030000D01*
D53*
X200000000Y-100000000D02*
X200000000Y-99450000D01*
X201700000Y-99300000D02*
X202500000Y-98500000D01*
X205900000Y-80650000D02*
X206400000Y-81150000D01*
D54*
X195650000Y-102600000D02*
X195130000Y-102600000D01*
D53*
X204750000Y-94630000D02*
X204750000Y-94130000D01*
X192900000Y-100550000D02*
X193050000Y-100550000D01*
X205000000Y-80650000D02*
X205900000Y-80650000D01*
X198750000Y-92500000D02*
X197800000Y-91550000D01*
X198750000Y-96200000D02*
X198750000Y-92500000D01*
X194900000Y-99300000D02*
X194900000Y-99750000D01*
X199875000Y-91825000D02*
X199875000Y-91815380D01*
X197861801Y-96200000D02*
X198750000Y-96200000D01*
D51*
X203030000Y-100880000D02*
X202910000Y-101000000D01*
D54*
X197361800Y-95131800D02*
X197361800Y-96200000D01*
D51*
X194530000Y-107400000D02*
X194530000Y-103200000D01*
X193300000Y-91450000D02*
X193100000Y-91250000D01*
X205500000Y-91200000D02*
X205500000Y-91050000D01*
D53*
X194270000Y-99750000D02*
X194900000Y-99750000D01*
X193500000Y-96650000D02*
X193500000Y-96150000D01*
X192900000Y-100225000D02*
X192725000Y-100050000D01*
X202500000Y-98500000D02*
X202900000Y-98500000D01*
X197400000Y-99100000D02*
X195100000Y-99100000D01*
X194640000Y-100950000D02*
X194640000Y-101090000D01*
X197650000Y-99990000D02*
X198690000Y-99990000D01*
X198750000Y-96800000D02*
X198750000Y-96200000D01*
D51*
X202050000Y-102600000D02*
X202910000Y-101740000D01*
D53*
X197700000Y-99400000D02*
X197650000Y-99350000D01*
X197861801Y-96200000D02*
X197361800Y-96200000D01*
D51*
X191693413Y-84093413D02*
X191693413Y-83436587D01*
D54*
X194550000Y-101180000D02*
X194640000Y-101090000D01*
X192880000Y-103030000D02*
X193050000Y-103200000D01*
D53*
X199950000Y-91900000D02*
X199875000Y-91825000D01*
X199875000Y-91815380D02*
X199450000Y-91390380D01*
X198700000Y-100000000D02*
X198650000Y-99950000D01*
D51*
X205500000Y-91050000D02*
X205000000Y-90550000D01*
D53*
X192900000Y-100550000D02*
X192900000Y-100225000D01*
X205000000Y-80650000D02*
X193100000Y-80650000D01*
D54*
X193050000Y-103200000D02*
X194530000Y-103200000D01*
D53*
X200350000Y-95600000D02*
X200300000Y-95650000D01*
D54*
X192370000Y-98395000D02*
X192525000Y-98550000D01*
D51*
X203170000Y-103200000D02*
X203170000Y-107400000D01*
D53*
X204250000Y-92650000D02*
X204250000Y-91900000D01*
D51*
X201000000Y-99990000D02*
X201000000Y-99300000D01*
D53*
X197650000Y-99350000D02*
X197400000Y-99100000D01*
D54*
X192370000Y-97850000D02*
X192370000Y-98395000D01*
D53*
X195100000Y-99100000D02*
X194900000Y-99300000D01*
D54*
X193100000Y-90550000D02*
X193100000Y-89650000D01*
D53*
X198650000Y-99950000D02*
X198650000Y-99500000D01*
X197700000Y-99990000D02*
X197700000Y-99400000D01*
X192500000Y-96150000D02*
X192500000Y-96650000D01*
X204010000Y-95600000D02*
X204289999Y-95600000D01*
X198690000Y-99990000D02*
X198700000Y-100000000D01*
D51*
X193310000Y-91950000D02*
X193310000Y-91460000D01*
D53*
X194640000Y-100890000D02*
X194270000Y-100520000D01*
X194900000Y-99750000D02*
X194900000Y-100690000D01*
D54*
X194550000Y-103180000D02*
X194550000Y-101180000D01*
D53*
X193500000Y-96150000D02*
X193350000Y-96000000D01*
X203250000Y-94130000D02*
X203740000Y-93640000D01*
D54*
X192370000Y-96780000D02*
X192500000Y-96650000D01*
X194530000Y-103200000D02*
X194550000Y-103180000D01*
D51*
X194530000Y-107400000D02*
X203170000Y-107400000D01*
D53*
X197950000Y-96788200D02*
X197950000Y-96288199D01*
D51*
X202050000Y-102800000D02*
X202450000Y-103200000D01*
D53*
X205400000Y-106315000D02*
X205710000Y-106315000D01*
D51*
X202050000Y-102600000D02*
X202050000Y-102800000D01*
D54*
X197330000Y-95100000D02*
X197361800Y-95131800D01*
D53*
X201000000Y-99300000D02*
X201700000Y-99300000D01*
%TO.N,IO14*%
D52*
X199850000Y-90500000D02*
X199850000Y-89950000D01*
D53*
X195845352Y-97271752D02*
X195861800Y-97288200D01*
X195771752Y-97271752D02*
X195845352Y-97271752D01*
D52*
X199850000Y-89950000D02*
X199650000Y-89750000D01*
D53*
X195861800Y-97288200D02*
X196273600Y-97288200D01*
%TO.N,Net-(D5-A)*%
X204845000Y-105535000D02*
X205850000Y-104530000D01*
%TO.N,D-*%
D52*
X199100000Y-102600000D02*
X199100000Y-101100000D01*
D53*
X198100000Y-101950000D02*
X198300000Y-101750000D01*
D52*
X199100000Y-101100000D02*
X198660000Y-101100000D01*
D53*
X198100000Y-102600000D02*
X198100000Y-101950000D01*
D52*
X199100000Y-101830000D02*
X199100000Y-102600000D01*
D53*
X199020000Y-101750000D02*
X199100000Y-101830000D01*
X198300000Y-101750000D02*
X199020000Y-101750000D01*
%TO.N,EN*%
X191950000Y-87950000D02*
X192700000Y-87200000D01*
X191200000Y-88350000D02*
X191200000Y-90120000D01*
X191710000Y-87950000D02*
X191950000Y-87950000D01*
X192700000Y-87200000D02*
X193150000Y-87200000D01*
X191200000Y-90120000D02*
X190010000Y-91310000D01*
X191590000Y-87960000D02*
X191200000Y-88350000D01*
%TO.N,V_SYS*%
D54*
X193330000Y-97850000D02*
X193000000Y-97520000D01*
X193000000Y-97520000D02*
X193000000Y-96650000D01*
D51*
X202324265Y-95944265D02*
X201980000Y-95600000D01*
D53*
X193330000Y-97850000D02*
X193800000Y-97850000D01*
D54*
X202324265Y-96525735D02*
X202300000Y-96550000D01*
X202300000Y-96550000D02*
X201510000Y-96550000D01*
X202324265Y-96525735D02*
X202324265Y-96577165D01*
X202324265Y-96525735D02*
X202598530Y-96800000D01*
D52*
X202598530Y-96800000D02*
X202600000Y-96800000D01*
D51*
X202324265Y-96525735D02*
X202324265Y-95944265D01*
D53*
X193800000Y-97850000D02*
X194000000Y-97650000D01*
D51*
X193330000Y-97850000D02*
X193850000Y-97850000D01*
D52*
X202600000Y-96800000D02*
X202700000Y-96900000D01*
D53*
X194000000Y-97650000D02*
X194000000Y-96650000D01*
%TO.N,Net-(IC1-VSET)*%
X194000000Y-95300000D02*
X194350000Y-95300000D01*
X194350000Y-95300000D02*
X194600000Y-95050000D01*
X194600000Y-95050000D02*
X195050000Y-95050000D01*
%TO.N,Net-(IC1-SW)*%
D54*
X193000000Y-94700000D02*
X193125000Y-94575000D01*
X193125000Y-94575000D02*
X194125000Y-94575000D01*
X193000000Y-95300000D02*
X193000000Y-94700000D01*
X194450000Y-94250000D02*
X194450000Y-93400000D01*
X194125000Y-94575000D02*
X194450000Y-94250000D01*
%TO.N,VBAT*%
D53*
X202350000Y-94650000D02*
X201960000Y-94650000D01*
D54*
X202194282Y-97225000D02*
X202194282Y-97269282D01*
D53*
X203050000Y-95600000D02*
X202650000Y-95200000D01*
D54*
X202225000Y-97300000D02*
X202450000Y-97300000D01*
X202194282Y-97269282D02*
X202225000Y-97300000D01*
D53*
X203750000Y-95029932D02*
X203750000Y-94630000D01*
X202650000Y-94950000D02*
X202350000Y-94650000D01*
X203750000Y-94630000D02*
X204250000Y-94630000D01*
D52*
X202194282Y-97225000D02*
X202269282Y-97300000D01*
D53*
X202650000Y-95200000D02*
X202650000Y-94950000D01*
X203179932Y-95600000D02*
X203750000Y-95029932D01*
X204170000Y-94770000D02*
X204200000Y-94740000D01*
D52*
X202450000Y-97300000D02*
X202900000Y-97300000D01*
%TO.N,Net-(D2-K)*%
D53*
X202725000Y-97700000D02*
X201725000Y-97700000D01*
%TO.N,Net-(IC2-~{CE})*%
X202725000Y-98100000D02*
X201950000Y-98100000D01*
X201950000Y-98100000D02*
X201500000Y-98550000D01*
%TO.N,Net-(D3-K)*%
X205700000Y-97300000D02*
X206550000Y-98150000D01*
X205850000Y-100100000D02*
X205850000Y-102100000D01*
X206550000Y-98150000D02*
X206550000Y-99400000D01*
X205100000Y-97300000D02*
X205700000Y-97300000D01*
X206550000Y-99400000D02*
X205850000Y-100100000D01*
%TO.N,V_USB*%
D51*
X202070000Y-101000000D02*
X202070000Y-100050000D01*
X196450000Y-101750000D02*
X195950000Y-101250000D01*
X205860000Y-96490000D02*
X205860000Y-95900000D01*
D53*
X204835000Y-103135000D02*
X204835000Y-103715000D01*
D51*
X201250000Y-101900000D02*
X202070000Y-101080000D01*
X205860000Y-95660000D02*
X205860000Y-95900000D01*
X205416546Y-95216546D02*
X205860000Y-95660000D01*
X196450000Y-102600000D02*
X196450000Y-101750000D01*
X197279949Y-104050000D02*
X197279949Y-104029949D01*
X201250000Y-102600000D02*
X201250000Y-101900000D01*
X202550000Y-99300000D02*
X202070000Y-99780000D01*
D52*
X205450000Y-96900000D02*
X205100000Y-96900000D01*
D51*
X205222563Y-95216546D02*
X205416546Y-95216546D01*
D54*
X205860000Y-96490000D02*
X205650000Y-96700000D01*
D51*
X202070000Y-101080000D02*
X202070000Y-101000000D01*
D52*
X205650000Y-96700000D02*
X205450000Y-96900000D01*
D55*
X196450000Y-102600000D02*
X196450000Y-103200000D01*
D51*
X200800000Y-103600000D02*
X200350000Y-104050000D01*
D55*
X201250000Y-103150000D02*
X200800000Y-103600000D01*
D53*
X204835000Y-103715000D02*
X204835000Y-104515000D01*
D55*
X201250000Y-102600000D02*
X201250000Y-103150000D01*
D51*
X195950000Y-101250000D02*
X195950000Y-100300000D01*
X197279949Y-104029949D02*
X196900000Y-103650000D01*
X202070000Y-99780000D02*
X202070000Y-100050000D01*
D55*
X196450000Y-103200000D02*
X196900000Y-103650000D01*
D51*
X200350000Y-104050000D02*
X197279949Y-104050000D01*
%TO.N,TX*%
D53*
X206690000Y-84800000D02*
X207790000Y-83700000D01*
X204950000Y-84800000D02*
X206690000Y-84800000D01*
%TO.N,RX*%
X206750000Y-86250000D02*
X207780000Y-86250000D01*
X206100000Y-85600000D02*
X206750000Y-86250000D01*
X204950000Y-85600000D02*
X206100000Y-85600000D01*
%TO.N,IO23*%
X204950000Y-86400000D02*
X205900000Y-86400000D01*
X205900000Y-86400000D02*
X206600000Y-87100000D01*
X206600000Y-87100000D02*
X206600000Y-87590000D01*
X206600000Y-87590000D02*
X207790000Y-88780000D01*
%TO.N,IO22*%
X204950000Y-87200000D02*
X205650000Y-87200000D01*
X205650000Y-87200000D02*
X206600000Y-88150000D01*
X206600000Y-90100000D02*
X207790000Y-91290000D01*
X206600000Y-88150000D02*
X206600000Y-90100000D01*
%TO.N,IO21*%
X206250000Y-90244974D02*
X206600000Y-90594974D01*
X205700000Y-88000000D02*
X206250000Y-88550000D01*
X204950000Y-88000000D02*
X205700000Y-88000000D01*
X206600000Y-92670000D02*
X207790000Y-93860000D01*
X206250000Y-88550000D02*
X206250000Y-90244974D01*
X206600000Y-90594974D02*
X206600000Y-92670000D01*
%TO.N,IO20*%
X205900000Y-89250000D02*
X205900000Y-90389949D01*
X205450000Y-88800000D02*
X205900000Y-89250000D01*
X204950000Y-88800000D02*
X205450000Y-88800000D01*
X205900000Y-90389949D02*
X206250000Y-90739948D01*
X206250000Y-94860000D02*
X207790000Y-96400000D01*
X206250000Y-90739948D02*
X206250000Y-94860000D01*
%TO.N,IO19*%
X204375000Y-91125000D02*
X204925000Y-91675000D01*
X205900000Y-91950000D02*
X205900000Y-95004975D01*
X204700000Y-89600000D02*
X204375000Y-89925000D01*
X205900000Y-95004975D02*
X206550000Y-95654975D01*
X205625000Y-91675000D02*
X205900000Y-91950000D01*
X204925000Y-91675000D02*
X205625000Y-91675000D01*
X204375000Y-89925000D02*
X204375000Y-91125000D01*
X206550000Y-97700000D02*
X207790000Y-98940000D01*
X206550000Y-95654975D02*
X206550000Y-97700000D01*
%TO.N,BAT_ALRT*%
X203850000Y-89818691D02*
X203850000Y-90500000D01*
X205216622Y-92150000D02*
X205216622Y-92283378D01*
X204950000Y-92150000D02*
X205216622Y-92150000D01*
X205216622Y-92283378D02*
X205200000Y-92300000D01*
X203944562Y-89724129D02*
X203850000Y-89818691D01*
X204750000Y-92350000D02*
X204950000Y-92150000D01*
X204750000Y-92650000D02*
X204750000Y-92350000D01*
%TO.N,IO15*%
X200650000Y-90000000D02*
X200900000Y-89750000D01*
X200650000Y-90500000D02*
X200650000Y-90000000D01*
%TO.N,LED*%
X196860000Y-92560000D02*
X196860000Y-93050000D01*
X191750000Y-84800000D02*
X193150000Y-84800000D01*
X195886311Y-91586311D02*
X196860000Y-92560000D01*
X193750000Y-84800000D02*
X193150000Y-84800000D01*
X190320000Y-86230000D02*
X191750000Y-84800000D01*
X195861800Y-91586311D02*
X195886311Y-91586311D01*
%TO.N,Net-(D7-A)*%
X195847500Y-93900000D02*
X195847500Y-93712500D01*
X195865000Y-94000000D02*
X195865000Y-93075000D01*
%TO.N,IO3*%
X191150000Y-87630000D02*
X190010000Y-88770000D01*
X191900000Y-85600000D02*
X191150000Y-86350000D01*
X191150000Y-86350000D02*
X191150000Y-87630000D01*
X193150000Y-85600000D02*
X191900000Y-85600000D01*
%TO.N,MTMS*%
X191200000Y-90550000D02*
X191200000Y-97740000D01*
X191550000Y-89300000D02*
X191550000Y-90200000D01*
X191200000Y-97740000D02*
X190010000Y-98930000D01*
X192850000Y-88000000D02*
X191550000Y-89300000D01*
X191550000Y-90200000D02*
X191200000Y-90550000D01*
%TO.N,MTDI*%
X191550000Y-99930000D02*
X190010000Y-101470000D01*
X191550000Y-90650000D02*
X191550000Y-99930000D01*
X191900000Y-89450000D02*
X191900000Y-90300000D01*
X191900000Y-90300000D02*
X191550000Y-90650000D01*
X193150000Y-88800000D02*
X192550000Y-88800000D01*
X192550000Y-88800000D02*
X191900000Y-89450000D01*
%TO.N,IO0*%
X194200000Y-91230001D02*
X194250000Y-91180001D01*
X194250000Y-91180001D02*
X194250000Y-90500000D01*
X194200000Y-91950000D02*
X194200000Y-91230001D01*
X194250000Y-90500000D02*
X194250000Y-89750000D01*
%TO.N,IO1*%
X195050000Y-90500000D02*
X195050000Y-89750000D01*
%TO.N,MTCK*%
X196650000Y-90500000D02*
X196650000Y-89750000D01*
%TO.N,MTDO*%
X197450000Y-90500000D02*
X197450000Y-89750000D01*
%TO.N,D+*%
X199450000Y-103450000D02*
X199600000Y-103300000D01*
D52*
X200020000Y-101092500D02*
X199607500Y-101092500D01*
X199600000Y-101100000D02*
X199600000Y-102600000D01*
D53*
X198750000Y-103450000D02*
X199450000Y-103450000D01*
X198600000Y-102600000D02*
X198600000Y-103300000D01*
D52*
X199550000Y-91950000D02*
X199550000Y-101050000D01*
D53*
X198600000Y-103300000D02*
X198750000Y-103450000D01*
D52*
X199607500Y-101092500D02*
X199600000Y-101100000D01*
X199050000Y-91450000D02*
X199550000Y-91950000D01*
D53*
X199600000Y-103300000D02*
X199600000Y-102600000D01*
D52*
X199550000Y-101050000D02*
X199600000Y-101100000D01*
X199050000Y-90500000D02*
X199050000Y-91450000D01*
%TO.N,Net-(D3-A)*%
D53*
X204865000Y-102115000D02*
X205835000Y-103085000D01*
%TO.N,Net-(J2-CC2)*%
X201000000Y-101400000D02*
X201000000Y-101010000D01*
X200600000Y-101800000D02*
X201000000Y-101400000D01*
X200600000Y-102600000D02*
X200600000Y-101800000D01*
%TO.N,Net-(J2-CC1)*%
X197600000Y-102600000D02*
X197600000Y-101110000D01*
%TO.N,Net-(D2-A)*%
X200490000Y-96550000D02*
X200490000Y-97540000D01*
%TO.N,BAT_GND*%
D51*
X198200000Y-93950000D02*
X198200000Y-93200000D01*
%TD*%
%TA.AperFunction,Conductor*%
%TO.N,unconnected-(IC2-TS{slash}MR-Pad6)*%
G36*
X205485904Y-98414352D02*
G01*
X205500256Y-98449000D01*
X205500256Y-98449036D01*
X205499864Y-98979421D01*
X205485487Y-99014059D01*
X205485144Y-99014397D01*
X205205127Y-99288558D01*
X205170329Y-99302543D01*
X204145991Y-99291721D01*
X204111497Y-99277004D01*
X204097512Y-99242207D01*
X204101781Y-98846493D01*
X204116506Y-98812003D01*
X204150951Y-98798023D01*
X204706139Y-98800000D01*
X204706139Y-98799999D01*
X204700764Y-98449752D01*
X204714582Y-98414888D01*
X204749006Y-98400006D01*
X204749758Y-98400000D01*
X205451256Y-98400000D01*
X205485904Y-98414352D01*
G37*
%TD.AperFunction*%
%TD*%
%TA.AperFunction,Conductor*%
%TO.N,BAT_GND*%
G36*
X207392606Y-80305523D02*
G01*
X207407604Y-80309927D01*
X207466355Y-80347672D01*
X207467542Y-80349041D01*
X207495018Y-80403902D01*
X207496663Y-80411460D01*
X207499500Y-80437831D01*
X207499500Y-82739092D01*
X207499499Y-82739098D01*
X207499500Y-82739101D01*
X207494475Y-82774034D01*
X207493353Y-82777853D01*
X207490070Y-82789034D01*
X207452298Y-82847803D01*
X207442005Y-82856722D01*
X207408256Y-82877569D01*
X207373470Y-82891978D01*
X207373450Y-82891987D01*
X207225962Y-82990536D01*
X207225961Y-82990537D01*
X207225955Y-82990542D01*
X207100542Y-83115955D01*
X207100537Y-83115961D01*
X207100536Y-83115962D01*
X207001994Y-83263439D01*
X207001985Y-83263454D01*
X207001977Y-83263472D01*
X206934109Y-83427322D01*
X206934101Y-83427345D01*
X206934099Y-83427352D01*
X206899500Y-83601299D01*
X206899500Y-83778699D01*
X206934099Y-83952646D01*
X206934101Y-83952653D01*
X206934109Y-83952676D01*
X206997018Y-84104552D01*
X207003854Y-84126729D01*
X207008393Y-84148530D01*
X207002786Y-84218174D01*
X207002783Y-84218183D01*
X206999278Y-84227328D01*
X206971172Y-84270631D01*
X206666229Y-84575574D01*
X206637979Y-84596723D01*
X206614893Y-84609330D01*
X206555462Y-84624500D01*
X205571350Y-84624500D01*
X205571347Y-84624499D01*
X205571346Y-84624500D01*
X205536411Y-84619476D01*
X205514229Y-84612962D01*
X205455452Y-84575186D01*
X205446065Y-84562875D01*
X205422458Y-84527543D01*
X205399295Y-84512067D01*
X205394739Y-84509023D01*
X205386826Y-84500733D01*
X205379764Y-84497259D01*
X205363560Y-84476357D01*
X205359427Y-84472027D01*
X205359190Y-84472188D01*
X205358245Y-84470788D01*
X205357428Y-84469932D01*
X205355782Y-84467201D01*
X205355621Y-84466900D01*
X205355547Y-84466811D01*
X205353788Y-84463893D01*
X205353570Y-84463065D01*
X205352609Y-84461266D01*
X205353037Y-84461036D01*
X205345688Y-84433056D01*
X205336019Y-84402673D01*
X205336874Y-84399496D01*
X205336039Y-84396315D01*
X205345895Y-84366002D01*
X205351757Y-84344235D01*
X205349963Y-84343377D01*
X205351076Y-84341049D01*
X205353310Y-84338469D01*
X205354189Y-84335208D01*
X205354213Y-84335169D01*
X205356060Y-84332150D01*
X205356762Y-84332579D01*
X205357644Y-84329870D01*
X205368319Y-84321144D01*
X205394059Y-84291430D01*
X205422457Y-84272457D01*
X205444669Y-84239213D01*
X205450500Y-84209899D01*
X205450499Y-83790102D01*
X205444669Y-83760787D01*
X205422457Y-83727543D01*
X205422456Y-83727541D01*
X205400700Y-83713005D01*
X205400699Y-83713004D01*
X205400698Y-83713004D01*
X205374442Y-83689419D01*
X205365544Y-83678772D01*
X205337658Y-83614709D01*
X205348827Y-83545753D01*
X205351089Y-83541024D01*
X205394062Y-83491428D01*
X205422457Y-83472457D01*
X205444669Y-83439213D01*
X205450500Y-83409899D01*
X205450499Y-82990102D01*
X205444669Y-82960787D01*
X205444666Y-82960782D01*
X205422456Y-82927541D01*
X205400700Y-82913005D01*
X205400699Y-82913004D01*
X205400698Y-82913004D01*
X205374442Y-82889419D01*
X205365544Y-82878772D01*
X205337658Y-82814709D01*
X205348827Y-82745753D01*
X205351089Y-82741024D01*
X205394062Y-82691428D01*
X205422457Y-82672457D01*
X205444669Y-82639213D01*
X205450500Y-82609899D01*
X205450499Y-82190102D01*
X205444669Y-82160787D01*
X205429517Y-82138109D01*
X205422456Y-82127541D01*
X205400700Y-82113005D01*
X205400699Y-82113004D01*
X205400698Y-82113004D01*
X205374442Y-82089419D01*
X205365544Y-82078772D01*
X205337658Y-82014709D01*
X205348827Y-81945753D01*
X205351089Y-81941024D01*
X205394062Y-81891428D01*
X205422457Y-81872457D01*
X205444669Y-81839213D01*
X205450500Y-81809899D01*
X205450499Y-81390102D01*
X205444669Y-81360787D01*
X205444668Y-81360785D01*
X205423994Y-81329842D01*
X205421351Y-81321400D01*
X205389213Y-81305331D01*
X205389208Y-81305329D01*
X205389211Y-81305329D01*
X205367227Y-81300957D01*
X205359901Y-81299500D01*
X205359900Y-81299500D01*
X204540101Y-81299500D01*
X204540090Y-81299502D01*
X204510789Y-81305329D01*
X204510787Y-81305329D01*
X204510787Y-81305330D01*
X204499657Y-81312765D01*
X204477541Y-81327542D01*
X204455333Y-81360782D01*
X204455332Y-81360785D01*
X204455329Y-81360791D01*
X204449500Y-81390098D01*
X204449500Y-81809894D01*
X204449501Y-81809902D01*
X204454157Y-81833315D01*
X204455330Y-81839213D01*
X204455331Y-81839214D01*
X204471784Y-81863837D01*
X204477543Y-81872457D01*
X204507552Y-81892507D01*
X204514823Y-81899265D01*
X204516956Y-81902853D01*
X204525550Y-81910572D01*
X204534450Y-81921220D01*
X204562340Y-81985281D01*
X204551169Y-82054252D01*
X204551162Y-82054266D01*
X204548902Y-82058989D01*
X204505936Y-82108570D01*
X204477545Y-82127538D01*
X204477542Y-82127541D01*
X204455333Y-82160782D01*
X204455329Y-82160790D01*
X204449500Y-82190098D01*
X204449500Y-82609897D01*
X204449501Y-82609902D01*
X204455330Y-82639212D01*
X204455390Y-82639324D01*
X204455437Y-82639371D01*
X204477543Y-82672457D01*
X204509615Y-82693886D01*
X204518361Y-82702686D01*
X204519869Y-82705469D01*
X204525550Y-82710571D01*
X204534451Y-82721222D01*
X204562340Y-82785283D01*
X204551168Y-82854253D01*
X204551162Y-82854266D01*
X204548902Y-82858989D01*
X204505936Y-82908570D01*
X204477545Y-82927538D01*
X204477542Y-82927541D01*
X204455333Y-82960782D01*
X204455329Y-82960790D01*
X204449500Y-82990098D01*
X204449500Y-83409897D01*
X204449501Y-83409902D01*
X204455330Y-83439212D01*
X204455390Y-83439324D01*
X204455437Y-83439371D01*
X204477543Y-83472457D01*
X204509615Y-83493886D01*
X204518361Y-83502686D01*
X204519869Y-83505469D01*
X204525550Y-83510571D01*
X204534451Y-83521222D01*
X204562340Y-83585283D01*
X204551168Y-83654253D01*
X204551162Y-83654266D01*
X204548902Y-83658989D01*
X204505936Y-83708570D01*
X204477545Y-83727538D01*
X204477542Y-83727541D01*
X204455333Y-83760782D01*
X204455332Y-83760785D01*
X204455329Y-83760791D01*
X204449500Y-83790098D01*
X204449500Y-84209894D01*
X204449501Y-84209902D01*
X204451148Y-84218183D01*
X204455330Y-84239213D01*
X204455331Y-84239214D01*
X204466957Y-84256613D01*
X204477543Y-84272457D01*
X204508676Y-84293258D01*
X204516769Y-84301113D01*
X204518575Y-84304307D01*
X204525550Y-84310571D01*
X204534451Y-84321222D01*
X204562340Y-84385283D01*
X204551168Y-84454253D01*
X204551162Y-84454266D01*
X204548902Y-84458989D01*
X204505936Y-84508570D01*
X204477545Y-84527538D01*
X204477542Y-84527541D01*
X204455333Y-84560782D01*
X204455329Y-84560790D01*
X204449500Y-84590098D01*
X204449500Y-85009897D01*
X204449501Y-85009902D01*
X204455330Y-85039212D01*
X204455390Y-85039324D01*
X204455436Y-85039370D01*
X204477543Y-85072457D01*
X204509615Y-85093886D01*
X204518361Y-85102686D01*
X204519869Y-85105469D01*
X204525550Y-85110571D01*
X204534451Y-85121222D01*
X204562340Y-85185283D01*
X204551168Y-85254253D01*
X204551162Y-85254266D01*
X204548902Y-85258989D01*
X204505936Y-85308570D01*
X204477545Y-85327538D01*
X204477542Y-85327541D01*
X204455333Y-85360782D01*
X204455329Y-85360790D01*
X204449500Y-85390098D01*
X204449500Y-85809897D01*
X204449501Y-85809902D01*
X204455330Y-85839212D01*
X204455390Y-85839324D01*
X204455437Y-85839371D01*
X204477543Y-85872457D01*
X204509615Y-85893886D01*
X204518361Y-85902686D01*
X204519869Y-85905469D01*
X204525550Y-85910571D01*
X204534451Y-85921222D01*
X204562340Y-85985283D01*
X204551168Y-86054253D01*
X204551162Y-86054266D01*
X204548902Y-86058989D01*
X204505936Y-86108570D01*
X204477545Y-86127538D01*
X204477542Y-86127541D01*
X204455333Y-86160782D01*
X204455329Y-86160790D01*
X204452466Y-86175186D01*
X204449500Y-86190098D01*
X204449500Y-86609894D01*
X204449501Y-86609902D01*
X204455330Y-86639212D01*
X204472372Y-86664717D01*
X204477543Y-86672457D01*
X204507402Y-86692407D01*
X204514560Y-86699021D01*
X204516732Y-86702651D01*
X204525550Y-86710571D01*
X204534451Y-86721222D01*
X204562340Y-86785283D01*
X204551168Y-86854253D01*
X204551162Y-86854266D01*
X204548902Y-86858989D01*
X204505936Y-86908570D01*
X204477545Y-86927538D01*
X204477542Y-86927541D01*
X204455333Y-86960782D01*
X204455329Y-86960790D01*
X204453869Y-86968130D01*
X204449500Y-86990098D01*
X204449500Y-87409894D01*
X204449501Y-87409902D01*
X204454157Y-87433315D01*
X204455330Y-87439213D01*
X204465815Y-87454904D01*
X204476894Y-87471485D01*
X204477543Y-87472457D01*
X204506102Y-87491538D01*
X204512245Y-87496935D01*
X204514719Y-87500844D01*
X204525550Y-87510572D01*
X204534450Y-87521220D01*
X204549488Y-87555761D01*
X204549619Y-87555968D01*
X204549618Y-87556060D01*
X204562340Y-87585281D01*
X204551169Y-87654252D01*
X204551162Y-87654266D01*
X204548902Y-87658989D01*
X204505936Y-87708570D01*
X204477545Y-87727538D01*
X204477542Y-87727541D01*
X204455333Y-87760782D01*
X204455332Y-87760785D01*
X204455329Y-87760791D01*
X204449500Y-87790098D01*
X204449500Y-88209894D01*
X204449501Y-88209902D01*
X204453620Y-88230613D01*
X204455330Y-88239213D01*
X204455331Y-88239214D01*
X204475265Y-88269047D01*
X204477543Y-88272457D01*
X204506595Y-88291868D01*
X204513135Y-88297725D01*
X204515505Y-88301549D01*
X204525550Y-88310571D01*
X204534451Y-88321222D01*
X204562340Y-88385283D01*
X204551168Y-88454253D01*
X204551162Y-88454266D01*
X204548902Y-88458989D01*
X204505936Y-88508570D01*
X204477545Y-88527538D01*
X204477542Y-88527541D01*
X204455333Y-88560782D01*
X204455330Y-88560789D01*
X204455329Y-88560791D01*
X204449500Y-88590098D01*
X204449500Y-89009894D01*
X204449501Y-89009902D01*
X204453217Y-89028585D01*
X204455330Y-89039213D01*
X204458154Y-89043439D01*
X204474691Y-89068188D01*
X204477543Y-89072457D01*
X204506762Y-89091979D01*
X204513433Y-89097993D01*
X204515764Y-89101781D01*
X204525550Y-89110571D01*
X204534451Y-89121222D01*
X204562340Y-89185283D01*
X204551168Y-89254253D01*
X204551162Y-89254266D01*
X204548902Y-89258989D01*
X204505936Y-89308570D01*
X204477545Y-89327538D01*
X204477542Y-89327541D01*
X204455333Y-89360782D01*
X204455329Y-89360790D01*
X204449500Y-89390098D01*
X204449500Y-89418328D01*
X204449499Y-89418330D01*
X204449500Y-89418331D01*
X204445857Y-89443663D01*
X204444476Y-89453266D01*
X204441289Y-89464119D01*
X204403514Y-89522896D01*
X204339957Y-89551919D01*
X204270810Y-89541979D01*
X204267004Y-89540241D01*
X204228261Y-89511420D01*
X204227898Y-89511784D01*
X204225423Y-89509309D01*
X204225287Y-89509208D01*
X204225037Y-89508923D01*
X204195078Y-89478964D01*
X204159776Y-89443662D01*
X204159774Y-89443660D01*
X204159771Y-89443658D01*
X204159767Y-89443655D01*
X204157715Y-89442470D01*
X204095422Y-89406504D01*
X204095400Y-89406492D01*
X204079855Y-89397517D01*
X204079852Y-89397516D01*
X204079851Y-89397515D01*
X204079850Y-89397515D01*
X204077866Y-89396983D01*
X204075588Y-89395748D01*
X204072246Y-89394364D01*
X204064082Y-89393290D01*
X204031419Y-89384538D01*
X203990706Y-89373629D01*
X203990705Y-89373629D01*
X203898418Y-89373629D01*
X203816028Y-89395704D01*
X203816013Y-89395709D01*
X203809274Y-89397515D01*
X203809273Y-89397515D01*
X203809271Y-89397516D01*
X203809268Y-89397517D01*
X203806468Y-89399133D01*
X203806464Y-89399135D01*
X203729366Y-89443648D01*
X203729348Y-89443660D01*
X203664093Y-89508915D01*
X203664081Y-89508933D01*
X203619567Y-89586032D01*
X203619564Y-89586038D01*
X203617950Y-89588835D01*
X203617949Y-89588838D01*
X203617948Y-89588840D01*
X203617948Y-89588841D01*
X203616141Y-89595583D01*
X203616137Y-89595596D01*
X203611016Y-89614712D01*
X203609540Y-89620222D01*
X203594062Y-89677985D01*
X203594062Y-89770272D01*
X203616046Y-89852319D01*
X203620054Y-89867275D01*
X203619955Y-89867301D01*
X203621228Y-89871205D01*
X203626562Y-89893185D01*
X203623243Y-89962976D01*
X203623237Y-89962995D01*
X203621551Y-89967865D01*
X203585605Y-90018333D01*
X203586179Y-90018907D01*
X203582764Y-90022322D01*
X203581017Y-90024775D01*
X203578444Y-90026642D01*
X203577542Y-90027544D01*
X203560303Y-90053345D01*
X203554249Y-90059380D01*
X203552111Y-90064254D01*
X203526290Y-90087256D01*
X203525785Y-90087761D01*
X203525393Y-90088021D01*
X203521162Y-90090816D01*
X203521079Y-90090885D01*
X203518189Y-90092804D01*
X203487760Y-90102232D01*
X203457845Y-90113224D01*
X203454601Y-90112507D01*
X203451450Y-90113484D01*
X203421866Y-90105274D01*
X203396472Y-90099662D01*
X203395751Y-90101171D01*
X203392618Y-90099672D01*
X203392615Y-90099670D01*
X203391010Y-90098902D01*
X203390318Y-90098303D01*
X203389997Y-90098232D01*
X203389665Y-90098050D01*
X203389781Y-90097837D01*
X203387289Y-90095678D01*
X203384125Y-90094800D01*
X203376767Y-90086559D01*
X203341428Y-90055936D01*
X203323995Y-90029844D01*
X203321351Y-90021400D01*
X203289213Y-90005331D01*
X203289208Y-90005329D01*
X203289211Y-90005329D01*
X203267227Y-90000957D01*
X203259901Y-89999500D01*
X203259900Y-89999500D01*
X203216886Y-89999500D01*
X203184646Y-89995235D01*
X203183264Y-89994863D01*
X203169615Y-89990855D01*
X203163182Y-89989455D01*
X203160246Y-89988665D01*
X203132922Y-89971964D01*
X203104806Y-89956612D01*
X203049426Y-89901232D01*
X203028274Y-89872976D01*
X203015667Y-89849887D01*
X203000500Y-89790462D01*
X203000500Y-89703858D01*
X203000500Y-89703856D01*
X202976614Y-89614712D01*
X202976612Y-89614709D01*
X202965578Y-89595596D01*
X202930473Y-89534794D01*
X202930472Y-89534793D01*
X202930470Y-89534789D01*
X202866378Y-89470697D01*
X202865212Y-89469531D01*
X202865209Y-89469529D01*
X202865205Y-89469526D01*
X202799190Y-89431411D01*
X202798835Y-89431204D01*
X202798460Y-89430806D01*
X202792895Y-89426536D01*
X202786999Y-89424094D01*
X202783596Y-89422624D01*
X202783126Y-89422412D01*
X202781234Y-89421706D01*
X202777684Y-89420235D01*
X202769520Y-89419161D01*
X202722283Y-89406504D01*
X202696144Y-89399500D01*
X202696143Y-89399500D01*
X202603856Y-89399500D01*
X202521466Y-89421575D01*
X202521451Y-89421580D01*
X202514712Y-89423386D01*
X202514711Y-89423386D01*
X202514709Y-89423387D01*
X202514706Y-89423388D01*
X202511906Y-89425004D01*
X202511902Y-89425006D01*
X202434804Y-89469519D01*
X202434786Y-89469531D01*
X202369543Y-89534774D01*
X202369525Y-89534794D01*
X202369124Y-89535285D01*
X202358720Y-89546507D01*
X202347763Y-89556953D01*
X202344763Y-89559813D01*
X202282656Y-89591822D01*
X202213104Y-89585172D01*
X202213103Y-89585172D01*
X202205205Y-89582009D01*
X202163624Y-89554578D01*
X202121286Y-89512240D01*
X202121283Y-89512238D01*
X202121274Y-89512231D01*
X202056935Y-89475085D01*
X202056913Y-89475073D01*
X202041368Y-89466098D01*
X202041365Y-89466097D01*
X202041364Y-89466096D01*
X202041363Y-89466096D01*
X202039379Y-89465564D01*
X202037101Y-89464329D01*
X202033759Y-89462945D01*
X202025595Y-89461871D01*
X201952219Y-89442210D01*
X201952218Y-89442210D01*
X201859931Y-89442210D01*
X201777541Y-89464285D01*
X201777526Y-89464290D01*
X201770787Y-89466096D01*
X201770786Y-89466096D01*
X201770784Y-89466097D01*
X201770781Y-89466098D01*
X201767981Y-89467714D01*
X201767977Y-89467716D01*
X201690879Y-89512229D01*
X201690861Y-89512241D01*
X201625606Y-89577496D01*
X201625594Y-89577514D01*
X201581081Y-89654612D01*
X201581079Y-89654616D01*
X201579463Y-89657416D01*
X201579462Y-89657419D01*
X201579461Y-89657421D01*
X201579461Y-89657422D01*
X201577655Y-89664161D01*
X201577650Y-89664176D01*
X201555575Y-89746566D01*
X201555575Y-89840084D01*
X201556494Y-89855795D01*
X201556484Y-89856472D01*
X201556200Y-89868403D01*
X201556306Y-89869145D01*
X201556231Y-89874553D01*
X201547211Y-89903749D01*
X201540359Y-89933535D01*
X201536994Y-89936820D01*
X201535608Y-89941310D01*
X201512292Y-89960947D01*
X201496300Y-89976566D01*
X201497330Y-89978168D01*
X201494764Y-89979817D01*
X201492203Y-89980568D01*
X201490398Y-89982332D01*
X201488447Y-89983368D01*
X201487667Y-89981900D01*
X201487280Y-89982014D01*
X201482168Y-89986320D01*
X201465077Y-89988533D01*
X201427726Y-89999500D01*
X201375440Y-89999500D01*
X201375437Y-89999499D01*
X201375436Y-89999500D01*
X201340501Y-89994476D01*
X201327183Y-89990565D01*
X201268406Y-89952789D01*
X201239385Y-89889242D01*
X201238175Y-89880825D01*
X201241137Y-89831083D01*
X201250500Y-89796144D01*
X201250500Y-89703856D01*
X201226614Y-89614712D01*
X201226612Y-89614709D01*
X201215578Y-89595596D01*
X201180473Y-89534794D01*
X201180472Y-89534793D01*
X201180470Y-89534789D01*
X201116378Y-89470697D01*
X201115212Y-89469531D01*
X201115209Y-89469529D01*
X201115205Y-89469526D01*
X201049190Y-89431411D01*
X201048835Y-89431204D01*
X201048460Y-89430806D01*
X201042895Y-89426536D01*
X201036999Y-89424094D01*
X201033596Y-89422624D01*
X201033126Y-89422412D01*
X201031234Y-89421706D01*
X201027684Y-89420235D01*
X201019520Y-89419161D01*
X200972283Y-89406504D01*
X200946144Y-89399500D01*
X200946143Y-89399500D01*
X200853856Y-89399500D01*
X200771466Y-89421575D01*
X200771451Y-89421580D01*
X200764712Y-89423386D01*
X200764711Y-89423386D01*
X200764709Y-89423387D01*
X200764706Y-89423388D01*
X200761906Y-89425004D01*
X200761902Y-89425006D01*
X200684804Y-89469519D01*
X200684786Y-89469531D01*
X200619531Y-89534786D01*
X200619519Y-89534804D01*
X200573389Y-89614704D01*
X200573388Y-89614705D01*
X200573384Y-89614716D01*
X200549500Y-89703856D01*
X200549500Y-89783749D01*
X200544821Y-89817490D01*
X200538043Y-89841460D01*
X200506410Y-89895394D01*
X200501217Y-89900586D01*
X200501217Y-89900587D01*
X200491703Y-89923555D01*
X200488045Y-89929164D01*
X200487293Y-89933046D01*
X200475779Y-89947978D01*
X200466787Y-89961772D01*
X200463604Y-89965101D01*
X200459382Y-89968912D01*
X200456258Y-89972788D01*
X200452627Y-89976588D01*
X200437063Y-89985549D01*
X200415676Y-90001559D01*
X200416158Y-90002461D01*
X200410780Y-90005334D01*
X200377542Y-90027541D01*
X200377540Y-90027543D01*
X200363005Y-90049298D01*
X200342720Y-90071883D01*
X200339425Y-90075552D01*
X200328778Y-90084451D01*
X200264715Y-90112340D01*
X200195745Y-90101168D01*
X200195741Y-90101166D01*
X200191017Y-90098906D01*
X200141428Y-90055937D01*
X200122457Y-90027543D01*
X200122456Y-90027542D01*
X200113960Y-90021865D01*
X200106764Y-90014457D01*
X200100603Y-90011559D01*
X200088318Y-89995465D01*
X200077792Y-89984628D01*
X200074436Y-89979275D01*
X200074088Y-89978569D01*
X200073710Y-89978117D01*
X200071004Y-89973800D01*
X200070122Y-89970668D01*
X200054667Y-89933201D01*
X200053101Y-89925676D01*
X200052508Y-89919917D01*
X200052101Y-89919984D01*
X200050500Y-89910122D01*
X200050500Y-89910119D01*
X200050499Y-89910116D01*
X200047862Y-89903749D01*
X200025185Y-89849001D01*
X200021410Y-89838596D01*
X200006164Y-89789897D01*
X200000500Y-89752850D01*
X200000500Y-89703858D01*
X200000500Y-89703856D01*
X199976614Y-89614712D01*
X199976612Y-89614709D01*
X199965578Y-89595596D01*
X199930473Y-89534794D01*
X199930472Y-89534793D01*
X199930470Y-89534789D01*
X199866378Y-89470697D01*
X199865212Y-89469531D01*
X199865209Y-89469529D01*
X199865205Y-89469526D01*
X199799190Y-89431411D01*
X199798835Y-89431204D01*
X199798460Y-89430806D01*
X199792895Y-89426536D01*
X199786999Y-89424094D01*
X199783596Y-89422624D01*
X199783126Y-89422412D01*
X199781234Y-89421706D01*
X199777684Y-89420235D01*
X199769520Y-89419161D01*
X199722283Y-89406504D01*
X199696144Y-89399500D01*
X199696143Y-89399500D01*
X199603856Y-89399500D01*
X199521466Y-89421575D01*
X199521451Y-89421580D01*
X199514712Y-89423386D01*
X199514711Y-89423386D01*
X199514709Y-89423387D01*
X199514706Y-89423388D01*
X199511906Y-89425004D01*
X199511902Y-89425006D01*
X199434804Y-89469519D01*
X199434786Y-89469531D01*
X199369531Y-89534786D01*
X199369519Y-89534804D01*
X199323389Y-89614704D01*
X199323388Y-89614705D01*
X199323384Y-89614716D01*
X199300895Y-89698650D01*
X199299500Y-89703856D01*
X199299500Y-89796143D01*
X199305220Y-89817490D01*
X199307550Y-89826187D01*
X199310674Y-89852319D01*
X199311739Y-89861225D01*
X199311409Y-89875100D01*
X199290136Y-89941653D01*
X199236264Y-89986137D01*
X199228447Y-89989485D01*
X199179627Y-89999500D01*
X198840101Y-89999500D01*
X198840090Y-89999502D01*
X198810789Y-90005329D01*
X198810787Y-90005329D01*
X198810787Y-90005330D01*
X198777542Y-90027542D01*
X198777541Y-90027543D01*
X198777538Y-90027546D01*
X198763007Y-90049294D01*
X198763007Y-90049296D01*
X198739423Y-90075554D01*
X198728777Y-90084452D01*
X198664714Y-90112341D01*
X198595746Y-90101168D01*
X198591009Y-90098902D01*
X198541428Y-90055936D01*
X198523995Y-90029844D01*
X198521351Y-90021400D01*
X198489213Y-90005331D01*
X198489208Y-90005329D01*
X198489211Y-90005329D01*
X198467227Y-90000957D01*
X198459901Y-89999500D01*
X198459900Y-89999500D01*
X198040101Y-89999500D01*
X198040090Y-89999502D01*
X198010790Y-90005329D01*
X198010785Y-90005331D01*
X197990466Y-90018907D01*
X197977543Y-90027542D01*
X197972472Y-90030930D01*
X197972295Y-90030665D01*
X197961155Y-90038180D01*
X197952806Y-90042738D01*
X197884534Y-90057586D01*
X197819071Y-90033165D01*
X197777203Y-89977229D01*
X197772221Y-89907544D01*
X197772222Y-89907538D01*
X197775269Y-89893533D01*
X197775268Y-89893532D01*
X197778373Y-89879264D01*
X197779753Y-89873570D01*
X197800500Y-89796144D01*
X197800500Y-89703856D01*
X197776614Y-89614712D01*
X197776612Y-89614709D01*
X197765578Y-89595596D01*
X197730473Y-89534794D01*
X197730472Y-89534793D01*
X197730470Y-89534789D01*
X197666378Y-89470697D01*
X197665212Y-89469531D01*
X197665209Y-89469529D01*
X197665205Y-89469526D01*
X197599190Y-89431411D01*
X197598835Y-89431204D01*
X197598460Y-89430806D01*
X197592895Y-89426536D01*
X197586999Y-89424094D01*
X197583596Y-89422624D01*
X197583126Y-89422412D01*
X197581234Y-89421706D01*
X197577684Y-89420235D01*
X197569520Y-89419161D01*
X197522283Y-89406504D01*
X197496144Y-89399500D01*
X197496143Y-89399500D01*
X197403856Y-89399500D01*
X197321466Y-89421575D01*
X197321451Y-89421580D01*
X197314712Y-89423386D01*
X197314711Y-89423386D01*
X197314709Y-89423387D01*
X197314706Y-89423388D01*
X197311906Y-89425004D01*
X197311902Y-89425006D01*
X197234804Y-89469519D01*
X197234789Y-89469529D01*
X197169532Y-89534785D01*
X197169529Y-89534789D01*
X197169521Y-89534802D01*
X197166291Y-89540396D01*
X197146138Y-89566021D01*
X197144485Y-89568123D01*
X197138966Y-89573386D01*
X197134443Y-89577697D01*
X197072344Y-89609716D01*
X197002790Y-89603078D01*
X197002779Y-89603073D01*
X197001268Y-89602468D01*
X196953645Y-89568553D01*
X196950362Y-89564764D01*
X196936698Y-89545577D01*
X196933511Y-89540057D01*
X196933509Y-89540048D01*
X196933507Y-89540050D01*
X196930469Y-89534787D01*
X196866380Y-89470698D01*
X196866377Y-89470696D01*
X196865212Y-89469531D01*
X196865209Y-89469529D01*
X196865205Y-89469526D01*
X196799190Y-89431411D01*
X196798835Y-89431204D01*
X196798460Y-89430806D01*
X196792895Y-89426536D01*
X196786999Y-89424094D01*
X196783596Y-89422624D01*
X196783126Y-89422412D01*
X196781234Y-89421706D01*
X196777684Y-89420235D01*
X196769520Y-89419161D01*
X196722283Y-89406504D01*
X196696144Y-89399500D01*
X196696143Y-89399500D01*
X196603856Y-89399500D01*
X196521466Y-89421575D01*
X196521451Y-89421580D01*
X196514712Y-89423386D01*
X196514711Y-89423386D01*
X196514709Y-89423387D01*
X196514706Y-89423388D01*
X196511906Y-89425004D01*
X196511902Y-89425006D01*
X196434804Y-89469519D01*
X196434786Y-89469531D01*
X196369531Y-89534786D01*
X196369519Y-89534804D01*
X196325006Y-89611902D01*
X196325004Y-89611906D01*
X196323388Y-89614706D01*
X196323387Y-89614709D01*
X196323386Y-89614711D01*
X196323386Y-89614712D01*
X196321580Y-89621451D01*
X196321575Y-89621466D01*
X196300895Y-89698650D01*
X196299500Y-89703856D01*
X196299500Y-89796144D01*
X196323385Y-89885286D01*
X196323387Y-89885290D01*
X196323387Y-89885291D01*
X196345076Y-89922858D01*
X196345078Y-89922860D01*
X196345079Y-89922863D01*
X196345082Y-89922868D01*
X196356547Y-89951502D01*
X196358197Y-89955624D01*
X196362122Y-89971802D01*
X196359400Y-90039821D01*
X196349126Y-90071023D01*
X196350805Y-90082573D01*
X196349660Y-90089293D01*
X196349500Y-90090097D01*
X196349500Y-90909897D01*
X196349502Y-90909908D01*
X196354667Y-90935881D01*
X196355330Y-90939212D01*
X196377542Y-90972457D01*
X196394219Y-90983599D01*
X196400636Y-90987886D01*
X196405376Y-90991777D01*
X196405408Y-90991794D01*
X196409607Y-90994311D01*
X196416620Y-90996438D01*
X196416622Y-90996439D01*
X196416658Y-90996450D01*
X196422766Y-90997051D01*
X196440101Y-91000500D01*
X196859898Y-91000499D01*
X196889213Y-90994669D01*
X196922457Y-90972457D01*
X196936996Y-90950695D01*
X196960573Y-90924446D01*
X196971224Y-90915544D01*
X197035285Y-90887657D01*
X197104252Y-90898830D01*
X197108980Y-90901092D01*
X197158563Y-90944052D01*
X197158702Y-90944260D01*
X197158709Y-90944270D01*
X197165894Y-90955023D01*
X197177543Y-90972457D01*
X197210787Y-90994669D01*
X197210790Y-90994669D01*
X197210791Y-90994670D01*
X197214815Y-90995470D01*
X197222762Y-90997051D01*
X197222765Y-90997051D01*
X197240101Y-91000500D01*
X197659898Y-91000499D01*
X197689213Y-90994669D01*
X197722457Y-90972457D01*
X197736996Y-90950695D01*
X197760573Y-90924446D01*
X197771224Y-90915544D01*
X197835285Y-90887657D01*
X197904252Y-90898830D01*
X197908982Y-90901093D01*
X197958570Y-90944061D01*
X197977543Y-90972457D01*
X197977546Y-90972459D01*
X197986032Y-90978129D01*
X197993232Y-90985542D01*
X197999403Y-90988445D01*
X198011695Y-91004550D01*
X198022212Y-91015378D01*
X198025562Y-91020723D01*
X198025909Y-91021426D01*
X198026284Y-91021874D01*
X198028997Y-91026203D01*
X198029874Y-91029320D01*
X198045323Y-91066764D01*
X198046893Y-91074299D01*
X198049500Y-91099593D01*
X198049500Y-91289883D01*
X198080024Y-91363574D01*
X198900574Y-92184124D01*
X198921723Y-92212375D01*
X198934331Y-92235464D01*
X198949500Y-92294893D01*
X198949500Y-100502670D01*
X198944475Y-100537614D01*
X198940070Y-100552612D01*
X198902327Y-100611355D01*
X198900958Y-100612542D01*
X198846097Y-100640018D01*
X198838539Y-100641663D01*
X198812168Y-100644500D01*
X198530101Y-100644500D01*
X198530090Y-100644502D01*
X198500789Y-100650329D01*
X198500787Y-100650329D01*
X198500787Y-100650330D01*
X198496493Y-100653199D01*
X198467541Y-100672542D01*
X198445333Y-100705782D01*
X198445329Y-100705790D01*
X198439500Y-100735098D01*
X198439500Y-101264897D01*
X198439502Y-101264908D01*
X198445329Y-101294209D01*
X198445330Y-101294212D01*
X198463250Y-101321034D01*
X198467542Y-101327457D01*
X198482559Y-101337490D01*
X198491676Y-101347363D01*
X198500510Y-101352078D01*
X198508816Y-101361074D01*
X198513633Y-101366837D01*
X198516142Y-101369839D01*
X198519451Y-101377442D01*
X198521931Y-101380128D01*
X198527463Y-101390032D01*
X198530239Y-101402228D01*
X198544025Y-101433904D01*
X198541289Y-101450780D01*
X198542969Y-101458159D01*
X198537763Y-101472535D01*
X198532846Y-101502873D01*
X198522552Y-101514543D01*
X198519181Y-101523855D01*
X198504352Y-101535178D01*
X198488066Y-101553645D01*
X198487278Y-101554151D01*
X198486279Y-101554793D01*
X198473904Y-101558431D01*
X198463652Y-101566261D01*
X198441025Y-101568097D01*
X198419248Y-101574500D01*
X198353215Y-101574500D01*
X198353183Y-101574499D01*
X198349343Y-101574499D01*
X198334909Y-101574499D01*
X198265091Y-101574499D01*
X198265090Y-101574499D01*
X198265089Y-101574499D01*
X198200583Y-101601219D01*
X198000587Y-101801218D01*
X198000586Y-101801218D01*
X197999788Y-101802016D01*
X197971538Y-101823165D01*
X197961611Y-101828586D01*
X197944185Y-101832377D01*
X197938465Y-101835501D01*
X197931964Y-101835036D01*
X197893338Y-101843440D01*
X197827873Y-101819026D01*
X197786000Y-101763094D01*
X197783313Y-101755888D01*
X197775500Y-101712568D01*
X197775500Y-101522329D01*
X197780523Y-101487393D01*
X197784927Y-101472395D01*
X197822672Y-101413644D01*
X197822700Y-101413619D01*
X197822699Y-101413619D01*
X197824041Y-101412456D01*
X197878920Y-101384977D01*
X197886479Y-101383333D01*
X197902191Y-101381643D01*
X197902138Y-101381097D01*
X197908197Y-101380500D01*
X197908198Y-101380500D01*
X197976884Y-101366837D01*
X197976884Y-101366836D01*
X197976886Y-101366836D01*
X197976888Y-101366836D01*
X197976889Y-101366835D01*
X197982032Y-101365812D01*
X197992168Y-101356625D01*
X198054786Y-101314786D01*
X198106836Y-101236888D01*
X198109297Y-101224517D01*
X198109300Y-101224502D01*
X198109300Y-101224500D01*
X198120500Y-101168198D01*
X198120500Y-100851801D01*
X198120500Y-100851798D01*
X198109219Y-100795087D01*
X198109219Y-100795086D01*
X198107682Y-100787365D01*
X198106837Y-100783115D01*
X198106836Y-100783114D01*
X198106836Y-100783112D01*
X198054786Y-100705214D01*
X197990042Y-100661953D01*
X197976887Y-100653163D01*
X197976886Y-100653163D01*
X197976885Y-100653162D01*
X197976882Y-100653161D01*
X197925250Y-100642891D01*
X197908198Y-100639500D01*
X197908197Y-100639500D01*
X197491798Y-100639500D01*
X197423118Y-100653161D01*
X197423113Y-100653163D01*
X197423112Y-100653164D01*
X197380091Y-100681910D01*
X197345214Y-100705214D01*
X197293198Y-100783059D01*
X197293199Y-100783060D01*
X197293161Y-100783116D01*
X197279500Y-100851796D01*
X197279500Y-100851801D01*
X197279500Y-100851804D01*
X197279500Y-101168196D01*
X197279500Y-101168198D01*
X197279499Y-101168198D01*
X197293162Y-101236884D01*
X197293163Y-101236886D01*
X197293164Y-101236888D01*
X197300822Y-101248349D01*
X197300823Y-101248352D01*
X197325169Y-101284787D01*
X197325171Y-101284790D01*
X197331464Y-101294209D01*
X197331467Y-101294213D01*
X197345214Y-101314786D01*
X197345215Y-101314786D01*
X197345216Y-101314788D01*
X197354560Y-101321031D01*
X197354562Y-101321032D01*
X197354564Y-101321034D01*
X197354567Y-101321036D01*
X197371332Y-101336094D01*
X197380819Y-101344615D01*
X197394275Y-101360715D01*
X197420526Y-101414956D01*
X197421896Y-101421535D01*
X197424500Y-101446814D01*
X197424500Y-101851256D01*
X197419475Y-101886197D01*
X197415564Y-101899514D01*
X197405926Y-101914508D01*
X197400904Y-101931614D01*
X197387427Y-101943291D01*
X197377787Y-101958290D01*
X197361570Y-101965695D01*
X197348099Y-101977368D01*
X197314235Y-101987311D01*
X197309053Y-101988056D01*
X197249569Y-101980583D01*
X197249307Y-101981450D01*
X197244244Y-101979914D01*
X197243949Y-101979877D01*
X197243476Y-101979681D01*
X197217881Y-101974590D01*
X197192288Y-101969500D01*
X197192287Y-101969500D01*
X197007713Y-101969500D01*
X197007711Y-101969500D01*
X196956524Y-101979681D01*
X196943505Y-101982271D01*
X196936705Y-101988951D01*
X196921132Y-101994337D01*
X196916352Y-101997594D01*
X196906441Y-102000217D01*
X196906457Y-102000281D01*
X196905549Y-102000501D01*
X196905397Y-102000493D01*
X196903527Y-102000989D01*
X196901625Y-102001385D01*
X196900924Y-102001328D01*
X196899871Y-102001693D01*
X196898877Y-102001869D01*
X196898750Y-102001153D01*
X196868718Y-101998735D01*
X196835760Y-101997156D01*
X196834058Y-101995945D01*
X196831981Y-101995778D01*
X196806213Y-101976127D01*
X196784854Y-101960926D01*
X196783526Y-101962120D01*
X196782705Y-101961206D01*
X196781392Y-101958461D01*
X196778939Y-101956716D01*
X196778364Y-101955986D01*
X196779071Y-101955428D01*
X196776423Y-101953409D01*
X196768413Y-101931334D01*
X196752551Y-101898179D01*
X196752507Y-101897905D01*
X196752053Y-101895063D01*
X196750500Y-101875502D01*
X196750500Y-101710439D01*
X196750500Y-101710438D01*
X196747860Y-101700587D01*
X196730022Y-101634012D01*
X196690460Y-101565489D01*
X196399758Y-101274787D01*
X196378609Y-101246537D01*
X196373339Y-101236886D01*
X196373187Y-101236607D01*
X196358334Y-101168337D01*
X196382748Y-101102872D01*
X196438678Y-101061000D01*
X196442557Y-101059553D01*
X196445893Y-101058310D01*
X196489207Y-101050499D01*
X196709895Y-101050499D01*
X196709898Y-101050499D01*
X196739213Y-101044669D01*
X196772457Y-101022457D01*
X196794669Y-100989213D01*
X196800500Y-100959899D01*
X196800499Y-99440102D01*
X196794669Y-99410787D01*
X196779565Y-99388181D01*
X196778407Y-99386448D01*
X196773988Y-99379832D01*
X196771348Y-99371398D01*
X196739213Y-99355331D01*
X196739208Y-99355329D01*
X196739211Y-99355329D01*
X196711610Y-99349840D01*
X196709901Y-99349500D01*
X196709900Y-99349500D01*
X195190101Y-99349500D01*
X195190090Y-99349502D01*
X195160789Y-99355329D01*
X195160787Y-99355329D01*
X195160787Y-99355330D01*
X195156212Y-99358387D01*
X195127541Y-99377542D01*
X195105333Y-99410782D01*
X195105329Y-99410790D01*
X195099500Y-99440098D01*
X195099500Y-100959897D01*
X195099502Y-100959908D01*
X195104870Y-100986902D01*
X195105330Y-100989212D01*
X195127542Y-101022457D01*
X195144219Y-101033599D01*
X195150636Y-101037886D01*
X195155376Y-101041777D01*
X195155408Y-101041794D01*
X195159607Y-101044311D01*
X195166620Y-101046438D01*
X195166622Y-101046439D01*
X195166658Y-101046450D01*
X195172766Y-101047051D01*
X195190101Y-101050500D01*
X195507674Y-101050499D01*
X195542606Y-101055521D01*
X195557603Y-101059925D01*
X195616355Y-101097670D01*
X195617542Y-101099039D01*
X195645019Y-101153903D01*
X195646664Y-101161462D01*
X195649500Y-101187830D01*
X195649500Y-101289562D01*
X195656259Y-101314785D01*
X195669979Y-101365990D01*
X195669982Y-101365995D01*
X195677011Y-101378170D01*
X195677012Y-101378172D01*
X195684826Y-101391706D01*
X195709535Y-101434504D01*
X195709541Y-101434512D01*
X195709544Y-101434515D01*
X195709544Y-101434516D01*
X196100572Y-101825543D01*
X196120351Y-101851351D01*
X196121068Y-101852597D01*
X196127884Y-101865079D01*
X196131451Y-101870630D01*
X196132960Y-101873250D01*
X196140475Y-101904387D01*
X196149500Y-101935120D01*
X196149500Y-101940105D01*
X196149349Y-101941153D01*
X196149353Y-101941169D01*
X196149342Y-101941198D01*
X196144476Y-101975044D01*
X196135765Y-102004707D01*
X196119893Y-102038655D01*
X196064037Y-102122254D01*
X196064032Y-102122262D01*
X196064031Y-102122264D01*
X196049500Y-102195318D01*
X196049500Y-103002670D01*
X196049499Y-103002676D01*
X196049500Y-103002679D01*
X196044475Y-103037614D01*
X196040070Y-103052612D01*
X196002327Y-103111355D01*
X196002292Y-103111385D01*
X196002291Y-103111387D01*
X196002289Y-103111387D01*
X196000958Y-103112542D01*
X195946097Y-103140018D01*
X195938539Y-103141663D01*
X195912168Y-103144500D01*
X195884234Y-103144500D01*
X195737859Y-103183720D01*
X195737857Y-103183721D01*
X195606645Y-103259478D01*
X195606631Y-103259487D01*
X195606626Y-103259491D01*
X195499491Y-103366626D01*
X195499487Y-103366631D01*
X195499478Y-103366645D01*
X195423718Y-103497861D01*
X195402453Y-103577231D01*
X195402453Y-103577232D01*
X195384500Y-103644234D01*
X195384500Y-103795767D01*
X195399109Y-103850292D01*
X195399110Y-103850292D01*
X195399110Y-103850293D01*
X195423719Y-103942136D01*
X195423720Y-103942137D01*
X195423719Y-103942137D01*
X195437924Y-103966739D01*
X195456160Y-103998324D01*
X195499485Y-104073365D01*
X195606635Y-104180515D01*
X195737865Y-104256281D01*
X195884234Y-104295500D01*
X195884236Y-104295500D01*
X196035764Y-104295500D01*
X196035766Y-104295500D01*
X196182135Y-104256281D01*
X196313365Y-104180515D01*
X196420515Y-104073365D01*
X196496281Y-103942135D01*
X196496283Y-103942125D01*
X196497079Y-103940206D01*
X196505762Y-103923114D01*
X196514439Y-103908878D01*
X196566138Y-103861878D01*
X196635037Y-103850291D01*
X196636693Y-103850489D01*
X196691430Y-103870913D01*
X196695588Y-103873727D01*
X196713767Y-103888738D01*
X196994807Y-104169778D01*
X197005497Y-104181967D01*
X197015313Y-104194759D01*
X197024319Y-104208238D01*
X197038782Y-104233287D01*
X197039486Y-104234507D01*
X197039489Y-104234511D01*
X197039491Y-104234513D01*
X197095440Y-104290462D01*
X197096131Y-104290960D01*
X197098641Y-104292309D01*
X197105901Y-104296501D01*
X197163960Y-104330021D01*
X197240387Y-104350500D01*
X197240389Y-104350500D01*
X200389560Y-104350500D01*
X200389562Y-104350500D01*
X200465989Y-104330021D01*
X200534511Y-104290460D01*
X200590460Y-104234511D01*
X200971437Y-103853532D01*
X200999686Y-103832386D01*
X201001838Y-103831210D01*
X201011866Y-103825734D01*
X201080138Y-103810882D01*
X201145603Y-103835298D01*
X201145609Y-103835302D01*
X201146910Y-103836276D01*
X201184130Y-103881356D01*
X201186319Y-103885862D01*
X201194558Y-103907950D01*
X201203718Y-103942133D01*
X201203718Y-103942134D01*
X201216803Y-103964797D01*
X201279485Y-104073365D01*
X201386635Y-104180515D01*
X201517865Y-104256281D01*
X201664234Y-104295500D01*
X201664236Y-104295500D01*
X201815764Y-104295500D01*
X201815766Y-104295500D01*
X201962135Y-104256281D01*
X202093365Y-104180515D01*
X202200515Y-104073365D01*
X202276281Y-103942135D01*
X202315500Y-103795766D01*
X202315500Y-103644234D01*
X202276281Y-103497865D01*
X202200515Y-103366635D01*
X202093365Y-103259485D01*
X202011102Y-103211990D01*
X201962136Y-103183719D01*
X201888950Y-103164109D01*
X201888949Y-103164108D01*
X201815767Y-103144500D01*
X201815766Y-103144500D01*
X201792330Y-103144500D01*
X201792325Y-103144499D01*
X201792323Y-103144500D01*
X201757389Y-103139475D01*
X201742390Y-103135070D01*
X201683644Y-103097327D01*
X201683615Y-103097293D01*
X201683614Y-103097293D01*
X201683613Y-103097291D01*
X201682457Y-103095958D01*
X201654977Y-103041083D01*
X201653332Y-103033521D01*
X201650500Y-103007168D01*
X201650500Y-102196935D01*
X201650500Y-102195323D01*
X201650499Y-102195321D01*
X201635967Y-102122264D01*
X201635966Y-102122260D01*
X201619130Y-102097064D01*
X201613805Y-102080108D01*
X201613804Y-102080069D01*
X201613772Y-102080002D01*
X201609102Y-102065087D01*
X201607855Y-101995229D01*
X201609042Y-101990905D01*
X201609799Y-101988142D01*
X201641698Y-101933270D01*
X202310460Y-101264511D01*
X202313559Y-101259143D01*
X202326402Y-101236899D01*
X202326410Y-101236886D01*
X202330146Y-101230414D01*
X202333551Y-101224517D01*
X202333552Y-101224512D01*
X202333727Y-101224210D01*
X202350021Y-101195989D01*
X202370500Y-101119562D01*
X202370500Y-100960438D01*
X202370500Y-100468127D01*
X202375522Y-100433194D01*
X202384864Y-100401378D01*
X202400733Y-100367435D01*
X202436546Y-100313839D01*
X202450500Y-100243688D01*
X202450500Y-99893659D01*
X202454764Y-99861421D01*
X202455126Y-99860074D01*
X202459145Y-99846388D01*
X202460548Y-99839935D01*
X202461333Y-99837023D01*
X202478038Y-99809689D01*
X202493385Y-99781583D01*
X202599805Y-99675163D01*
X202625480Y-99655462D01*
X202652794Y-99639693D01*
X202682705Y-99627306D01*
X202683563Y-99627076D01*
X202685288Y-99626614D01*
X202724737Y-99603838D01*
X202765205Y-99580473D01*
X202765204Y-99580473D01*
X202765212Y-99580469D01*
X202765214Y-99580466D01*
X202770635Y-99577337D01*
X202770637Y-99577336D01*
X202795709Y-99562861D01*
X202815828Y-99529852D01*
X202830469Y-99515212D01*
X202876614Y-99435288D01*
X202900500Y-99346144D01*
X202900500Y-99253856D01*
X202876614Y-99164712D01*
X202847252Y-99113856D01*
X202847251Y-99113854D01*
X202836746Y-99095658D01*
X202835566Y-99093035D01*
X202831457Y-99086387D01*
X202830550Y-99084870D01*
X202830469Y-99084789D01*
X202830469Y-99084788D01*
X202765212Y-99019531D01*
X202765209Y-99019529D01*
X202765205Y-99019526D01*
X202699190Y-98981411D01*
X202698835Y-98981204D01*
X202698460Y-98980806D01*
X202692895Y-98976536D01*
X202686999Y-98974094D01*
X202683596Y-98972624D01*
X202683126Y-98972412D01*
X202681234Y-98971706D01*
X202677684Y-98970235D01*
X202669520Y-98969161D01*
X202596144Y-98949500D01*
X202596143Y-98949500D01*
X202503856Y-98949500D01*
X202421466Y-98971575D01*
X202421451Y-98971580D01*
X202414712Y-98973386D01*
X202414711Y-98973386D01*
X202414709Y-98973387D01*
X202414706Y-98973388D01*
X202411906Y-98975004D01*
X202411902Y-98975006D01*
X202334804Y-99019519D01*
X202334789Y-99019529D01*
X202269534Y-99084783D01*
X202269530Y-99084787D01*
X202269525Y-99084795D01*
X202223395Y-99164694D01*
X202223383Y-99164717D01*
X202223381Y-99164720D01*
X202222688Y-99167310D01*
X202210303Y-99197207D01*
X202194536Y-99224516D01*
X202174830Y-99250197D01*
X201891523Y-99533505D01*
X201885489Y-99539540D01*
X201829537Y-99595492D01*
X201791639Y-99661134D01*
X201783198Y-99673872D01*
X201772408Y-99688156D01*
X201762651Y-99695378D01*
X201765102Y-99697828D01*
X201764214Y-99699003D01*
X201756608Y-99706609D01*
X201742344Y-99727955D01*
X201742325Y-99727982D01*
X201703461Y-99786149D01*
X201703452Y-99786164D01*
X201703452Y-99786165D01*
X201689500Y-99856305D01*
X201689500Y-100243696D01*
X201703448Y-100313822D01*
X201703452Y-100313833D01*
X201703453Y-100313836D01*
X201703456Y-100313843D01*
X201738691Y-100366577D01*
X201738694Y-100366579D01*
X201753927Y-100398416D01*
X201763834Y-100430053D01*
X201769500Y-100467109D01*
X201769500Y-100886338D01*
X201764477Y-100921272D01*
X201762491Y-100928034D01*
X201760854Y-100933610D01*
X201760848Y-100933633D01*
X201760092Y-100937109D01*
X201726610Y-100998418D01*
X201644788Y-101080240D01*
X201619677Y-101099039D01*
X201616538Y-101101389D01*
X201606611Y-101106810D01*
X201538338Y-101121664D01*
X201472873Y-101097250D01*
X201431000Y-101041318D01*
X201428313Y-101034112D01*
X201420500Y-100990792D01*
X201420500Y-100851798D01*
X201409219Y-100795087D01*
X201409219Y-100795086D01*
X201407682Y-100787365D01*
X201406837Y-100783115D01*
X201406836Y-100783114D01*
X201406836Y-100783112D01*
X201354786Y-100705214D01*
X201290042Y-100661953D01*
X201276887Y-100653163D01*
X201276886Y-100653163D01*
X201276885Y-100653162D01*
X201276882Y-100653161D01*
X201225250Y-100642891D01*
X201208198Y-100639500D01*
X201208197Y-100639500D01*
X200791798Y-100639500D01*
X200723118Y-100653161D01*
X200723113Y-100653163D01*
X200723112Y-100653164D01*
X200680091Y-100681910D01*
X200645214Y-100705214D01*
X200593198Y-100783059D01*
X200593199Y-100783060D01*
X200593161Y-100783116D01*
X200579500Y-100851796D01*
X200579500Y-100851801D01*
X200579500Y-100851804D01*
X200579500Y-101168196D01*
X200579500Y-101168198D01*
X200579499Y-101168198D01*
X200593162Y-101236884D01*
X200593163Y-101236886D01*
X200593164Y-101236888D01*
X200600822Y-101248350D01*
X200600823Y-101248352D01*
X200645208Y-101314779D01*
X200648973Y-101319367D01*
X200654697Y-101326912D01*
X200660158Y-101334712D01*
X200661147Y-101337645D01*
X200661948Y-101338600D01*
X200664158Y-101342647D01*
X200663274Y-101343129D01*
X200671749Y-101357411D01*
X200672415Y-101357108D01*
X200673680Y-101359878D01*
X200673829Y-101360917D01*
X200674750Y-101362469D01*
X200675791Y-101365258D01*
X200674522Y-101365731D01*
X200676651Y-101380525D01*
X200681521Y-101389446D01*
X200681011Y-101396558D01*
X200682482Y-101400919D01*
X200680640Y-101408252D01*
X200682786Y-101423162D01*
X200684136Y-101423259D01*
X200684036Y-101424655D01*
X200683289Y-101426656D01*
X200683627Y-101429005D01*
X200683195Y-101432015D01*
X200681386Y-101431755D01*
X200677804Y-101441358D01*
X200676531Y-101459138D01*
X200659614Y-101490113D01*
X200658741Y-101491279D01*
X200647161Y-101504642D01*
X200451220Y-101700583D01*
X200451217Y-101700588D01*
X200424500Y-101765091D01*
X200424500Y-101851256D01*
X200424499Y-101851260D01*
X200424500Y-101851263D01*
X200419475Y-101886197D01*
X200415564Y-101899514D01*
X200377787Y-101958290D01*
X200314235Y-101987311D01*
X200314229Y-101987311D01*
X200314229Y-101987312D01*
X200314228Y-101987311D01*
X200309053Y-101988056D01*
X200249569Y-101980583D01*
X200249307Y-101981450D01*
X200244244Y-101979914D01*
X200243949Y-101979877D01*
X200243476Y-101979681D01*
X200217881Y-101974590D01*
X200192288Y-101969500D01*
X200192287Y-101969500D01*
X200007708Y-101969500D01*
X199966178Y-101977760D01*
X199966178Y-101977761D01*
X199930934Y-101979651D01*
X199917110Y-101978414D01*
X199852092Y-101952832D01*
X199811226Y-101896161D01*
X199807560Y-101885768D01*
X199800500Y-101844524D01*
X199800500Y-101497328D01*
X199805523Y-101462392D01*
X199809927Y-101447394D01*
X199819568Y-101432392D01*
X199824592Y-101415286D01*
X199847697Y-101388622D01*
X199847702Y-101388616D01*
X199847706Y-101388613D01*
X199849076Y-101387426D01*
X199903915Y-101359977D01*
X199911472Y-101358333D01*
X199937831Y-101355499D01*
X200169895Y-101355499D01*
X200169898Y-101355499D01*
X200199213Y-101349669D01*
X200232457Y-101327457D01*
X200254669Y-101294213D01*
X200260500Y-101264899D01*
X200260499Y-100735102D01*
X200254669Y-100705787D01*
X200241814Y-100686547D01*
X200232457Y-100672542D01*
X200200937Y-100651483D01*
X200199213Y-100650331D01*
X200199211Y-100650330D01*
X200199208Y-100650329D01*
X200196983Y-100649886D01*
X200178077Y-100646126D01*
X200169901Y-100644500D01*
X200169900Y-100644500D01*
X199892330Y-100644500D01*
X199892325Y-100644499D01*
X199892323Y-100644500D01*
X199857389Y-100639475D01*
X199842390Y-100635070D01*
X199783644Y-100597327D01*
X199783615Y-100597293D01*
X199783614Y-100597293D01*
X199783613Y-100597291D01*
X199782457Y-100595958D01*
X199754977Y-100541083D01*
X199753332Y-100533521D01*
X199750500Y-100507168D01*
X199750500Y-97746934D01*
X200104499Y-97746934D01*
X200118886Y-97819257D01*
X200118887Y-97819260D01*
X200118890Y-97819267D01*
X200173701Y-97901298D01*
X200212980Y-97927543D01*
X200243642Y-97948031D01*
X200245587Y-97949330D01*
X200245586Y-97949330D01*
X200245851Y-97949507D01*
X200255735Y-97956111D01*
X200255738Y-97956111D01*
X200255739Y-97956112D01*
X200320442Y-97968982D01*
X200323166Y-97969704D01*
X200328069Y-97970500D01*
X200671930Y-97970500D01*
X200676050Y-97970500D01*
X200683902Y-97968117D01*
X200744265Y-97956111D01*
X200787020Y-97927543D01*
X200826297Y-97901299D01*
X200826298Y-97901298D01*
X200871999Y-97832900D01*
X200895571Y-97806658D01*
X200906231Y-97797749D01*
X200970291Y-97769867D01*
X201039247Y-97781038D01*
X201043973Y-97783299D01*
X201093569Y-97826270D01*
X201140261Y-97896148D01*
X201143702Y-97901298D01*
X201220275Y-97952463D01*
X201244380Y-97974115D01*
X201246523Y-97976040D01*
X201255427Y-97986693D01*
X201283311Y-98050756D01*
X201272135Y-98119722D01*
X201269874Y-98124448D01*
X201226909Y-98174034D01*
X201195216Y-98195211D01*
X201195214Y-98195213D01*
X201143198Y-98273059D01*
X201143199Y-98273060D01*
X201143161Y-98273116D01*
X201129500Y-98341796D01*
X201129500Y-98341801D01*
X201129500Y-98341804D01*
X201129500Y-98758196D01*
X201129500Y-98758198D01*
X201129499Y-98758198D01*
X201143162Y-98826884D01*
X201143163Y-98826886D01*
X201143164Y-98826888D01*
X201150821Y-98838348D01*
X201150822Y-98838350D01*
X201166502Y-98861816D01*
X201195214Y-98904786D01*
X201257823Y-98946620D01*
X201262964Y-98950055D01*
X201262965Y-98950056D01*
X201273112Y-98956836D01*
X201273114Y-98956836D01*
X201273115Y-98956837D01*
X201285086Y-98959218D01*
X201285087Y-98959219D01*
X201341798Y-98970500D01*
X201658198Y-98970500D01*
X201658199Y-98970500D01*
X201714909Y-98959219D01*
X201714914Y-98959218D01*
X201726884Y-98956837D01*
X201726884Y-98956836D01*
X201726886Y-98956836D01*
X201726888Y-98956836D01*
X201726889Y-98956835D01*
X201732032Y-98955812D01*
X201742168Y-98946625D01*
X201804786Y-98904786D01*
X201856836Y-98826888D01*
X201857112Y-98825502D01*
X201857113Y-98825502D01*
X201857113Y-98825494D01*
X201870500Y-98758198D01*
X201870500Y-98496884D01*
X201874763Y-98464648D01*
X201875121Y-98463316D01*
X201879144Y-98449616D01*
X201880550Y-98443149D01*
X201881331Y-98440252D01*
X201898032Y-98412924D01*
X201913379Y-98384815D01*
X201973771Y-98324423D01*
X202002021Y-98303275D01*
X202025113Y-98290667D01*
X202084538Y-98275500D01*
X202401656Y-98275500D01*
X202436590Y-98280523D01*
X202457280Y-98286598D01*
X202464888Y-98288832D01*
X202474779Y-98291736D01*
X202478643Y-98293316D01*
X202487950Y-98295603D01*
X202500586Y-98299313D01*
X202504413Y-98298694D01*
X202513129Y-98300107D01*
X202515101Y-98300500D01*
X203284898Y-98300499D01*
X203314213Y-98294669D01*
X203347457Y-98272457D01*
X203369669Y-98239213D01*
X203375500Y-98209899D01*
X203375499Y-97990102D01*
X203371601Y-97970500D01*
X203369669Y-97960786D01*
X203369152Y-97959539D01*
X203366905Y-97948712D01*
X203368551Y-97948031D01*
X203363252Y-97931105D01*
X203362006Y-97925101D01*
X203364355Y-97896148D01*
X203363838Y-97867097D01*
X203375168Y-97825799D01*
X203374047Y-97819257D01*
X203375465Y-97810251D01*
X203375499Y-97809902D01*
X203375500Y-97809899D01*
X203375499Y-97590102D01*
X203369669Y-97560787D01*
X203369153Y-97559541D01*
X203366905Y-97548712D01*
X203368551Y-97548031D01*
X203363252Y-97531105D01*
X203362006Y-97525101D01*
X203364355Y-97496148D01*
X203363838Y-97467097D01*
X203367581Y-97453453D01*
X203368047Y-97451756D01*
X203368046Y-97451755D01*
X203375168Y-97425799D01*
X203374047Y-97419257D01*
X203375465Y-97410251D01*
X203375499Y-97409902D01*
X203375500Y-97409899D01*
X203375499Y-97190102D01*
X203369669Y-97160787D01*
X203369153Y-97159541D01*
X203366905Y-97148712D01*
X203368551Y-97148031D01*
X203363252Y-97131105D01*
X203362006Y-97125101D01*
X203364355Y-97096148D01*
X203363838Y-97067097D01*
X203375168Y-97025799D01*
X203374047Y-97019257D01*
X203375465Y-97010255D01*
X203375497Y-97009911D01*
X203375500Y-97009900D01*
X203375499Y-96790105D01*
X203375498Y-96790097D01*
X203369669Y-96760787D01*
X203347457Y-96727542D01*
X203322496Y-96710865D01*
X203318369Y-96708107D01*
X203314220Y-96705335D01*
X203314215Y-96705332D01*
X203314213Y-96705331D01*
X203314211Y-96705330D01*
X203314208Y-96705329D01*
X203314211Y-96705329D01*
X203292227Y-96700957D01*
X203284901Y-96699500D01*
X203284900Y-96699500D01*
X202921483Y-96699500D01*
X202889243Y-96695235D01*
X202887861Y-96694863D01*
X202874212Y-96690855D01*
X202867779Y-96689455D01*
X202864843Y-96688665D01*
X202837519Y-96671964D01*
X202809403Y-96656612D01*
X202723561Y-96570770D01*
X202702412Y-96542520D01*
X202687983Y-96516096D01*
X202678496Y-96487004D01*
X202676868Y-96487441D01*
X202673825Y-96476084D01*
X202650879Y-96390447D01*
X202650876Y-96390441D01*
X202649541Y-96388128D01*
X202637152Y-96358220D01*
X202632753Y-96341804D01*
X202628990Y-96327758D01*
X202624765Y-96295665D01*
X202624765Y-96118475D01*
X202629788Y-96083539D01*
X202633625Y-96070472D01*
X202671400Y-96011694D01*
X202734957Y-95982670D01*
X202796966Y-95989616D01*
X202804603Y-95992543D01*
X202804603Y-95992542D01*
X202804749Y-95992598D01*
X202809868Y-95995243D01*
X202814838Y-95997300D01*
X202823694Y-95999858D01*
X202827940Y-96001485D01*
X202835872Y-96000527D01*
X202839601Y-96001208D01*
X202878682Y-96008982D01*
X202881406Y-96009704D01*
X202886309Y-96010500D01*
X203213690Y-96010500D01*
X203217810Y-96010500D01*
X203225662Y-96008117D01*
X203283839Y-95996546D01*
X203363391Y-95943391D01*
X203416546Y-95863839D01*
X203430500Y-95793688D01*
X203430500Y-95666818D01*
X203435522Y-95631885D01*
X203435573Y-95631711D01*
X203442934Y-95606640D01*
X203474228Y-95553898D01*
X203877301Y-95150825D01*
X203892200Y-95142690D01*
X203915353Y-95113939D01*
X203929991Y-95103766D01*
X203941166Y-95089887D01*
X203972716Y-95074075D01*
X203974430Y-95073504D01*
X204035652Y-95069112D01*
X204038200Y-95069571D01*
X204038686Y-95069659D01*
X204042650Y-95071037D01*
X204044251Y-95070980D01*
X204045269Y-95071583D01*
X204054842Y-95073487D01*
X204066594Y-95076427D01*
X204066675Y-95076451D01*
X204072766Y-95077051D01*
X204090101Y-95080500D01*
X204409898Y-95080499D01*
X204439213Y-95074669D01*
X204472457Y-95052457D01*
X204494669Y-95019213D01*
X204500500Y-94989899D01*
X204500499Y-94270102D01*
X204494669Y-94240787D01*
X204489241Y-94232663D01*
X204472457Y-94207542D01*
X204441630Y-94186946D01*
X204439213Y-94185331D01*
X204439211Y-94185330D01*
X204439208Y-94185329D01*
X204409901Y-94179500D01*
X204409900Y-94179500D01*
X204090119Y-94179500D01*
X204090105Y-94179500D01*
X204090097Y-94179501D01*
X204060787Y-94185330D01*
X204059544Y-94185844D01*
X204048711Y-94188092D01*
X204048032Y-94186452D01*
X204031095Y-94191748D01*
X204025102Y-94192992D01*
X203996122Y-94190639D01*
X203967057Y-94191148D01*
X203967056Y-94191148D01*
X203925810Y-94179816D01*
X203919207Y-94180945D01*
X203910249Y-94179534D01*
X203909901Y-94179500D01*
X203590105Y-94179500D01*
X203590101Y-94179500D01*
X203590090Y-94179502D01*
X203560789Y-94185329D01*
X203560787Y-94185329D01*
X203560787Y-94185330D01*
X203552841Y-94190639D01*
X203527541Y-94207542D01*
X203505333Y-94240782D01*
X203505329Y-94240790D01*
X203499500Y-94270098D01*
X203499500Y-94963044D01*
X203495234Y-94995290D01*
X203494874Y-94996624D01*
X203490855Y-95010313D01*
X203489455Y-95016744D01*
X203488663Y-95019689D01*
X203471975Y-95046987D01*
X203456610Y-95075124D01*
X203380382Y-95151352D01*
X203352128Y-95172503D01*
X203333712Y-95182559D01*
X203275393Y-95197722D01*
X203268676Y-95197782D01*
X203243380Y-95195405D01*
X203213689Y-95189500D01*
X203213688Y-95189500D01*
X202967330Y-95189500D01*
X202967325Y-95189499D01*
X202967323Y-95189500D01*
X202932389Y-95184475D01*
X202917390Y-95180070D01*
X202858644Y-95142327D01*
X202858615Y-95142293D01*
X202858614Y-95142293D01*
X202858613Y-95142291D01*
X202857457Y-95140958D01*
X202829977Y-95086083D01*
X202828332Y-95078521D01*
X202825500Y-95052168D01*
X202825500Y-94915092D01*
X202825500Y-94915091D01*
X202798782Y-94850587D01*
X202749413Y-94801218D01*
X202449413Y-94501218D01*
X202449410Y-94501215D01*
X202411199Y-94485388D01*
X202404953Y-94481913D01*
X202401774Y-94478683D01*
X202388053Y-94470601D01*
X202370498Y-94456637D01*
X202330286Y-94399499D01*
X202327012Y-94387287D01*
X202326544Y-94386157D01*
X202283450Y-94321663D01*
X202273391Y-94306609D01*
X202273390Y-94306608D01*
X202257793Y-94296186D01*
X202252956Y-94291453D01*
X202249254Y-94289937D01*
X202236251Y-94275107D01*
X202225104Y-94264200D01*
X202221394Y-94258900D01*
X202221152Y-94258203D01*
X202220176Y-94257161D01*
X202215120Y-94249939D01*
X202214324Y-94247580D01*
X202209313Y-94240823D01*
X202200461Y-94225491D01*
X202200460Y-94225489D01*
X202144511Y-94169540D01*
X202144510Y-94169539D01*
X202110250Y-94149759D01*
X202110247Y-94149757D01*
X202109924Y-94149570D01*
X202109752Y-94149470D01*
X202107589Y-94147188D01*
X202065447Y-94122857D01*
X202061664Y-94121395D01*
X202032039Y-94104985D01*
X202030828Y-94104078D01*
X202017481Y-94092510D01*
X201998965Y-94073994D01*
X201977815Y-94045741D01*
X201972136Y-94035341D01*
X201957283Y-93967069D01*
X201981699Y-93901604D01*
X202036078Y-93860324D01*
X202052864Y-93853805D01*
X202073542Y-93847785D01*
X202089213Y-93844669D01*
X202122457Y-93822457D01*
X202144669Y-93789213D01*
X202150500Y-93759899D01*
X202150499Y-92240102D01*
X202144669Y-92210787D01*
X202141023Y-92205330D01*
X202123992Y-92179840D01*
X202121350Y-92171399D01*
X202089213Y-92155331D01*
X202089208Y-92155329D01*
X202089211Y-92155329D01*
X202065296Y-92150573D01*
X202059901Y-92149500D01*
X202059900Y-92149500D01*
X200540101Y-92149500D01*
X200540090Y-92149502D01*
X200510789Y-92155329D01*
X200510787Y-92155329D01*
X200510787Y-92155330D01*
X200502790Y-92160673D01*
X200477541Y-92177542D01*
X200455333Y-92210782D01*
X200455329Y-92210790D01*
X200449500Y-92240098D01*
X200449500Y-93759897D01*
X200449502Y-93759908D01*
X200450612Y-93765491D01*
X200455330Y-93789212D01*
X200477542Y-93822457D01*
X200494219Y-93833599D01*
X200500636Y-93837886D01*
X200505376Y-93841777D01*
X200505408Y-93841794D01*
X200509607Y-93844311D01*
X200516620Y-93846438D01*
X200516622Y-93846439D01*
X200516658Y-93846450D01*
X200522766Y-93847051D01*
X200540101Y-93850500D01*
X200892748Y-93850499D01*
X200916643Y-93852823D01*
X200927968Y-93855047D01*
X200930436Y-93856330D01*
X200933449Y-93857215D01*
X200933356Y-93857529D01*
X200950156Y-93861604D01*
X200959856Y-93865487D01*
X200986745Y-93885610D01*
X200989957Y-93887281D01*
X200990692Y-93888564D01*
X201011226Y-93903932D01*
X201012467Y-93905510D01*
X201022395Y-93920175D01*
X201034943Y-93941908D01*
X201034944Y-93941910D01*
X201059535Y-93984503D01*
X201059541Y-93984512D01*
X201059545Y-93984517D01*
X201296126Y-94221097D01*
X201530574Y-94455545D01*
X201551723Y-94483796D01*
X201564331Y-94506885D01*
X201579500Y-94566314D01*
X201579500Y-94843696D01*
X201593448Y-94913822D01*
X201593452Y-94913833D01*
X201593453Y-94913836D01*
X201593455Y-94913841D01*
X201599223Y-94922474D01*
X201610702Y-94939652D01*
X201644275Y-94989899D01*
X201646609Y-94993391D01*
X201695845Y-95026290D01*
X201705305Y-95036212D01*
X201706453Y-95038440D01*
X201710705Y-95042259D01*
X201719604Y-95052907D01*
X201747490Y-95116970D01*
X201736315Y-95185940D01*
X201736306Y-95185958D01*
X201734045Y-95190682D01*
X201691090Y-95240249D01*
X201666609Y-95256607D01*
X201613453Y-95336161D01*
X201613452Y-95336165D01*
X201599500Y-95406305D01*
X201599500Y-95793696D01*
X201613448Y-95863822D01*
X201613452Y-95863833D01*
X201613453Y-95863836D01*
X201613455Y-95863841D01*
X201652173Y-95921786D01*
X201667404Y-95953621D01*
X201670194Y-95962528D01*
X201671475Y-95966619D01*
X201672722Y-96036478D01*
X201636003Y-96095921D01*
X201580586Y-96124596D01*
X201572532Y-96126424D01*
X201545086Y-96129500D01*
X201351798Y-96129500D01*
X201283118Y-96143161D01*
X201283113Y-96143163D01*
X201283112Y-96143164D01*
X201205214Y-96195214D01*
X201153198Y-96273059D01*
X201153199Y-96273060D01*
X201153161Y-96273116D01*
X201139500Y-96341796D01*
X201139500Y-96713829D01*
X201135406Y-96737625D01*
X201153161Y-96826883D01*
X201153163Y-96826886D01*
X201153168Y-96826895D01*
X201205211Y-96904783D01*
X201205213Y-96904784D01*
X201205214Y-96904786D01*
X201212390Y-96909581D01*
X201226257Y-96918847D01*
X201244378Y-96935124D01*
X201252510Y-96942428D01*
X201261243Y-96952877D01*
X201289131Y-97016940D01*
X201277956Y-97085910D01*
X201237727Y-97133616D01*
X201193898Y-97164632D01*
X201190929Y-97167143D01*
X201143705Y-97198696D01*
X201143701Y-97198700D01*
X201098005Y-97267091D01*
X201074420Y-97293347D01*
X201063773Y-97302245D01*
X200999710Y-97330131D01*
X200930740Y-97318955D01*
X200930732Y-97318951D01*
X200926007Y-97316690D01*
X200876429Y-97273728D01*
X200826298Y-97198701D01*
X200753886Y-97150317D01*
X200746015Y-97142079D01*
X200739006Y-97138640D01*
X200722244Y-97117198D01*
X200718591Y-97113375D01*
X200718378Y-97113521D01*
X200717508Y-97112241D01*
X200716642Y-97111335D01*
X200715183Y-97108921D01*
X200714921Y-97108438D01*
X200714815Y-97108311D01*
X200712935Y-97105199D01*
X200712723Y-97104396D01*
X200711981Y-97103031D01*
X200712315Y-97102849D01*
X200704838Y-97074497D01*
X200695112Y-97044290D01*
X200695995Y-97040966D01*
X200695118Y-97037640D01*
X200704903Y-97007437D01*
X200710703Y-96985609D01*
X200708917Y-96984755D01*
X200710120Y-96982240D01*
X200712252Y-96979778D01*
X200713054Y-96976763D01*
X200713054Y-96976762D01*
X200714763Y-96973945D01*
X200715592Y-96974448D01*
X200716654Y-96971172D01*
X200727179Y-96962551D01*
X200753089Y-96932646D01*
X200794786Y-96904786D01*
X200846836Y-96826888D01*
X200848893Y-96816546D01*
X200860500Y-96758198D01*
X200860500Y-96341801D01*
X200860500Y-96341798D01*
X200849219Y-96285087D01*
X200849219Y-96285086D01*
X200846836Y-96273112D01*
X200840056Y-96262965D01*
X200840055Y-96262964D01*
X200794786Y-96195214D01*
X200736295Y-96156131D01*
X200716887Y-96143163D01*
X200716886Y-96143163D01*
X200716885Y-96143162D01*
X200716882Y-96143161D01*
X200665250Y-96132891D01*
X200648198Y-96129500D01*
X200648197Y-96129500D01*
X200331798Y-96129500D01*
X200263118Y-96143161D01*
X200263113Y-96143163D01*
X200263112Y-96143164D01*
X200185214Y-96195214D01*
X200133198Y-96273059D01*
X200133199Y-96273060D01*
X200133161Y-96273116D01*
X200119500Y-96341796D01*
X200119500Y-96341801D01*
X200119500Y-96341804D01*
X200119500Y-96758196D01*
X200119500Y-96758198D01*
X200119499Y-96758198D01*
X200133162Y-96826884D01*
X200133163Y-96826886D01*
X200133164Y-96826888D01*
X200140822Y-96838350D01*
X200140823Y-96838351D01*
X200185211Y-96904783D01*
X200185212Y-96904783D01*
X200185214Y-96904786D01*
X200230273Y-96934893D01*
X200256519Y-96958469D01*
X200265424Y-96969123D01*
X200293310Y-97033184D01*
X200282135Y-97102154D01*
X200282130Y-97102164D01*
X200279869Y-97106889D01*
X200236907Y-97156467D01*
X200173703Y-97198698D01*
X200173701Y-97198700D01*
X200173701Y-97198701D01*
X200150860Y-97232885D01*
X200118889Y-97280733D01*
X200118888Y-97280735D01*
X200118886Y-97280741D01*
X200104500Y-97353064D01*
X200104500Y-97353067D01*
X200104500Y-97746932D01*
X200104500Y-97746934D01*
X200104499Y-97746934D01*
X199750500Y-97746934D01*
X199750500Y-91910120D01*
X199750500Y-91910119D01*
X199750499Y-91910116D01*
X199719976Y-91836426D01*
X199663574Y-91780024D01*
X199299425Y-91415875D01*
X199279643Y-91390063D01*
X199278961Y-91388879D01*
X199272115Y-91376341D01*
X199268542Y-91370782D01*
X199267037Y-91368167D01*
X199259525Y-91337038D01*
X199250500Y-91306298D01*
X199250500Y-91104645D01*
X199255522Y-91069712D01*
X199257868Y-91061722D01*
X199261434Y-91049577D01*
X199291955Y-90997614D01*
X199296672Y-90992812D01*
X199316233Y-90976616D01*
X199319196Y-90974635D01*
X199322457Y-90972457D01*
X199336996Y-90950695D01*
X199360573Y-90924446D01*
X199371224Y-90915544D01*
X199435285Y-90887657D01*
X199504252Y-90898830D01*
X199508980Y-90901092D01*
X199558563Y-90944052D01*
X199558702Y-90944260D01*
X199558709Y-90944270D01*
X199565894Y-90955023D01*
X199577543Y-90972457D01*
X199610787Y-90994669D01*
X199610790Y-90994669D01*
X199610791Y-90994670D01*
X199614815Y-90995470D01*
X199622762Y-90997051D01*
X199622765Y-90997051D01*
X199640101Y-91000500D01*
X200059898Y-91000499D01*
X200089213Y-90994669D01*
X200122457Y-90972457D01*
X200136996Y-90950695D01*
X200160573Y-90924446D01*
X200171224Y-90915544D01*
X200235285Y-90887657D01*
X200304252Y-90898830D01*
X200308980Y-90901092D01*
X200358563Y-90944052D01*
X200358702Y-90944260D01*
X200358709Y-90944270D01*
X200365894Y-90955023D01*
X200377543Y-90972457D01*
X200410787Y-90994669D01*
X200410790Y-90994669D01*
X200410791Y-90994670D01*
X200414815Y-90995470D01*
X200422762Y-90997051D01*
X200422765Y-90997051D01*
X200440101Y-91000500D01*
X200859898Y-91000499D01*
X200889213Y-90994669D01*
X200922457Y-90972457D01*
X200936996Y-90950695D01*
X200960573Y-90924446D01*
X200971224Y-90915544D01*
X201035285Y-90887657D01*
X201104252Y-90898830D01*
X201108980Y-90901092D01*
X201158563Y-90944052D01*
X201158702Y-90944260D01*
X201158709Y-90944270D01*
X201165894Y-90955023D01*
X201177543Y-90972457D01*
X201210787Y-90994669D01*
X201210790Y-90994669D01*
X201210791Y-90994670D01*
X201214815Y-90995470D01*
X201222762Y-90997051D01*
X201222765Y-90997051D01*
X201240101Y-91000500D01*
X201659898Y-91000499D01*
X201689213Y-90994669D01*
X201722457Y-90972457D01*
X201736996Y-90950695D01*
X201760573Y-90924446D01*
X201771224Y-90915544D01*
X201835285Y-90887657D01*
X201904252Y-90898830D01*
X201908989Y-90901096D01*
X201958569Y-90944060D01*
X201965894Y-90955023D01*
X201977543Y-90972457D01*
X202010787Y-90994669D01*
X202011651Y-90995246D01*
X202017002Y-91000537D01*
X202021191Y-91002304D01*
X202032932Y-91016286D01*
X202045073Y-91028290D01*
X202048217Y-91032881D01*
X202050348Y-91036683D01*
X202052962Y-91039810D01*
X202056319Y-91044713D01*
X202061858Y-91061722D01*
X202070505Y-91079741D01*
X202072728Y-91079068D01*
X202074497Y-91084902D01*
X202074498Y-91084905D01*
X202094484Y-91133156D01*
X202101218Y-91149413D01*
X203003782Y-92051977D01*
X203024933Y-92080232D01*
X203032425Y-92093953D01*
X203047276Y-92162226D01*
X203046752Y-92169551D01*
X203026174Y-92229587D01*
X203005343Y-92260766D01*
X203005335Y-92260778D01*
X203005333Y-92260783D01*
X203005329Y-92260791D01*
X202999500Y-92290098D01*
X202999500Y-93009897D01*
X202999502Y-93009908D01*
X203005149Y-93038305D01*
X203005330Y-93039212D01*
X203027542Y-93072457D01*
X203044219Y-93083599D01*
X203050636Y-93087886D01*
X203055376Y-93091777D01*
X203055408Y-93091794D01*
X203059607Y-93094311D01*
X203066620Y-93096438D01*
X203066622Y-93096439D01*
X203066658Y-93096450D01*
X203072766Y-93097051D01*
X203090101Y-93100500D01*
X203409898Y-93100499D01*
X203439213Y-93094669D01*
X203439214Y-93094667D01*
X203440457Y-93094152D01*
X203451286Y-93091904D01*
X203451969Y-93093553D01*
X203468887Y-93088252D01*
X203474897Y-93087005D01*
X203503837Y-93089353D01*
X203532875Y-93088830D01*
X203548244Y-93093043D01*
X203548244Y-93093042D01*
X203574225Y-93100165D01*
X203580750Y-93099048D01*
X203589762Y-93100467D01*
X203590096Y-93100499D01*
X203590101Y-93100500D01*
X203909898Y-93100499D01*
X203939213Y-93094669D01*
X203972457Y-93072457D01*
X203994669Y-93039213D01*
X204000500Y-93009899D01*
X204000499Y-92290102D01*
X203994669Y-92260787D01*
X203972457Y-92227543D01*
X203972456Y-92227542D01*
X203972455Y-92227540D01*
X203970222Y-92225307D01*
X203964977Y-92217749D01*
X203965915Y-92216811D01*
X203956105Y-92203668D01*
X203950790Y-92197307D01*
X203947629Y-92192752D01*
X203938279Y-92164642D01*
X203926463Y-92137478D01*
X203925820Y-92127181D01*
X203925578Y-92126453D01*
X203925736Y-92125834D01*
X203925500Y-92122053D01*
X203925500Y-92015092D01*
X203924097Y-92011705D01*
X203923169Y-92009464D01*
X203915646Y-91991301D01*
X203915645Y-91991294D01*
X203900330Y-91954322D01*
X203898784Y-91950590D01*
X203898782Y-91950587D01*
X203842348Y-91894153D01*
X203842341Y-91894147D01*
X203840665Y-91892470D01*
X203840651Y-91892457D01*
X203274425Y-91326230D01*
X203254643Y-91300418D01*
X203253961Y-91299234D01*
X203247115Y-91286696D01*
X203243542Y-91281137D01*
X203242037Y-91278522D01*
X203234525Y-91247393D01*
X203225500Y-91216653D01*
X203225500Y-91121348D01*
X203230522Y-91086415D01*
X203230710Y-91085775D01*
X203236434Y-91066280D01*
X203266947Y-91014325D01*
X203271661Y-91009526D01*
X203291226Y-90993323D01*
X203322457Y-90972457D01*
X203336996Y-90950695D01*
X203360573Y-90924446D01*
X203371224Y-90915544D01*
X203435285Y-90887657D01*
X203504252Y-90898830D01*
X203508980Y-90901092D01*
X203558563Y-90944052D01*
X203558702Y-90944260D01*
X203558709Y-90944270D01*
X203565894Y-90955023D01*
X203577543Y-90972457D01*
X203610787Y-90994669D01*
X203610790Y-90994669D01*
X203610791Y-90994670D01*
X203614815Y-90995470D01*
X203622762Y-90997051D01*
X203622765Y-90997051D01*
X203640101Y-91000500D01*
X204053485Y-91000499D01*
X204076585Y-91002670D01*
X204095387Y-91006235D01*
X204157586Y-91038063D01*
X204192012Y-91095787D01*
X204195225Y-91107705D01*
X204199500Y-91139982D01*
X204199500Y-91159909D01*
X204226218Y-91224413D01*
X204776217Y-91774411D01*
X204776218Y-91774413D01*
X204808164Y-91806359D01*
X204817722Y-91815917D01*
X204829390Y-91827585D01*
X204849698Y-91854322D01*
X204853465Y-91860997D01*
X204851767Y-91861955D01*
X204857313Y-91878725D01*
X204862875Y-91888910D01*
X204862485Y-91894359D01*
X204870969Y-91920009D01*
X204855734Y-91979243D01*
X204857489Y-91980083D01*
X204853600Y-91988212D01*
X204829423Y-92022379D01*
X204701229Y-92150573D01*
X204682903Y-92164292D01*
X204672978Y-92171722D01*
X204649890Y-92184330D01*
X204593301Y-92198774D01*
X204593339Y-92199033D01*
X204592908Y-92199095D01*
X204592921Y-92199372D01*
X204590537Y-92199480D01*
X204590460Y-92199500D01*
X204590100Y-92199500D01*
X204590081Y-92199503D01*
X204560789Y-92205328D01*
X204527541Y-92227542D01*
X204505333Y-92260782D01*
X204505329Y-92260790D01*
X204499500Y-92290098D01*
X204499500Y-93009897D01*
X204499502Y-93009908D01*
X204505149Y-93038305D01*
X204505330Y-93039212D01*
X204527542Y-93072457D01*
X204544219Y-93083599D01*
X204550636Y-93087886D01*
X204555376Y-93091777D01*
X204555408Y-93091794D01*
X204559607Y-93094311D01*
X204566620Y-93096438D01*
X204566622Y-93096439D01*
X204566658Y-93096450D01*
X204572766Y-93097051D01*
X204590101Y-93100500D01*
X204909898Y-93100499D01*
X204939213Y-93094669D01*
X204972457Y-93072457D01*
X204994669Y-93039213D01*
X205000500Y-93009899D01*
X205000499Y-92634378D01*
X205005521Y-92599447D01*
X205006907Y-92594727D01*
X205009431Y-92586131D01*
X205047203Y-92527354D01*
X205110757Y-92498328D01*
X205115690Y-92497618D01*
X205119183Y-92497117D01*
X205162382Y-92499693D01*
X205162416Y-92499439D01*
X205165970Y-92499907D01*
X205168921Y-92500082D01*
X205170478Y-92500500D01*
X205170482Y-92500500D01*
X205262764Y-92500500D01*
X205262766Y-92500500D01*
X205351910Y-92476614D01*
X205431834Y-92430469D01*
X205467603Y-92394699D01*
X205475592Y-92387381D01*
X205488074Y-92376912D01*
X205504845Y-92360916D01*
X205504846Y-92360917D01*
X205514191Y-92352004D01*
X205576289Y-92319981D01*
X205645843Y-92326614D01*
X205653219Y-92332413D01*
X205653822Y-92332510D01*
X205657284Y-92335609D01*
X205700770Y-92369798D01*
X205701124Y-92370295D01*
X205704125Y-92377538D01*
X205705882Y-92379110D01*
X205708088Y-92387100D01*
X205722402Y-92421635D01*
X205722777Y-92423861D01*
X205724500Y-92444460D01*
X205724500Y-94814751D01*
X205719475Y-94849692D01*
X205715564Y-94863009D01*
X205677787Y-94921785D01*
X205614241Y-94950805D01*
X205611112Y-94951255D01*
X205541953Y-94941314D01*
X205533197Y-94936800D01*
X205532540Y-94936527D01*
X205532535Y-94936525D01*
X205456108Y-94916046D01*
X205456106Y-94916046D01*
X205445570Y-94916046D01*
X205441554Y-94915365D01*
X205439365Y-94915891D01*
X205423557Y-94912316D01*
X205404725Y-94909126D01*
X205395232Y-94905814D01*
X205392771Y-94904380D01*
X205385657Y-94902474D01*
X205381326Y-94900963D01*
X205378244Y-94898756D01*
X205360172Y-94891271D01*
X205357853Y-94889932D01*
X205300258Y-94874500D01*
X205300258Y-94874499D01*
X205268708Y-94866046D01*
X205268707Y-94866046D01*
X205176419Y-94866046D01*
X205094029Y-94888121D01*
X205094014Y-94888126D01*
X205087275Y-94889932D01*
X205087274Y-94889932D01*
X205087272Y-94889933D01*
X205087269Y-94889934D01*
X205084469Y-94891550D01*
X205084465Y-94891552D01*
X205007367Y-94936065D01*
X205007349Y-94936077D01*
X204942094Y-95001332D01*
X204942082Y-95001350D01*
X204897569Y-95078448D01*
X204897567Y-95078452D01*
X204895951Y-95081252D01*
X204895950Y-95081255D01*
X204895949Y-95081257D01*
X204895949Y-95081258D01*
X204894143Y-95087997D01*
X204894138Y-95088012D01*
X204872682Y-95168093D01*
X204872063Y-95170402D01*
X204872063Y-95262690D01*
X204890756Y-95332454D01*
X204895586Y-95350480D01*
X204895950Y-95351835D01*
X204895950Y-95351838D01*
X204895951Y-95351839D01*
X204911371Y-95378547D01*
X204937107Y-95423123D01*
X204942089Y-95431751D01*
X204942092Y-95431755D01*
X204942094Y-95431758D01*
X205007351Y-95497015D01*
X205007354Y-95497016D01*
X205007357Y-95497019D01*
X205013583Y-95500613D01*
X205014247Y-95501276D01*
X205015599Y-95502112D01*
X205018214Y-95503287D01*
X205087269Y-95543157D01*
X205087270Y-95543157D01*
X205087275Y-95543160D01*
X205176419Y-95567046D01*
X205176421Y-95567046D01*
X205272892Y-95567046D01*
X205297030Y-95569418D01*
X205298154Y-95569641D01*
X205310925Y-95572419D01*
X205316648Y-95573311D01*
X205319151Y-95573808D01*
X205331303Y-95580158D01*
X205369324Y-95596169D01*
X205369682Y-95596437D01*
X205380655Y-95605946D01*
X205381076Y-95606166D01*
X205381238Y-95606451D01*
X205383052Y-95608023D01*
X205430573Y-95655544D01*
X205451723Y-95683796D01*
X205464331Y-95706885D01*
X205479500Y-95766314D01*
X205479500Y-96093696D01*
X205493448Y-96163822D01*
X205493452Y-96163833D01*
X205493453Y-96163836D01*
X205493453Y-96163837D01*
X205528695Y-96216581D01*
X205540291Y-96238353D01*
X205542333Y-96243324D01*
X205544252Y-96249453D01*
X205545911Y-96252035D01*
X205550199Y-96262472D01*
X205552698Y-96286377D01*
X205559500Y-96309434D01*
X205559500Y-96367047D01*
X205554476Y-96401986D01*
X205547064Y-96427226D01*
X205515770Y-96479968D01*
X205437636Y-96558102D01*
X205437631Y-96558111D01*
X205417596Y-96606481D01*
X205399590Y-96636830D01*
X205389782Y-96649002D01*
X205332391Y-96688853D01*
X205332389Y-96688853D01*
X205319472Y-96693153D01*
X205280309Y-96699500D01*
X204715101Y-96699500D01*
X204715090Y-96699502D01*
X204685789Y-96705329D01*
X204685787Y-96705329D01*
X204685787Y-96705330D01*
X204685786Y-96705331D01*
X204652541Y-96727542D01*
X204630333Y-96760782D01*
X204630329Y-96760790D01*
X204626096Y-96782075D01*
X204624500Y-96790098D01*
X204624500Y-97009894D01*
X204624501Y-97009902D01*
X204630330Y-97039212D01*
X204630844Y-97040454D01*
X204633092Y-97051287D01*
X204631449Y-97051968D01*
X204636745Y-97068892D01*
X204637992Y-97074897D01*
X204635641Y-97103858D01*
X204636156Y-97132914D01*
X204624823Y-97174201D01*
X204625948Y-97180781D01*
X204624532Y-97189763D01*
X204624500Y-97190098D01*
X204624500Y-97409894D01*
X204624501Y-97409902D01*
X204630330Y-97439212D01*
X204630844Y-97440454D01*
X204633092Y-97451287D01*
X204631449Y-97451968D01*
X204636745Y-97468892D01*
X204637992Y-97474897D01*
X204635641Y-97503858D01*
X204636156Y-97532914D01*
X204624823Y-97574201D01*
X204625948Y-97580781D01*
X204624532Y-97589763D01*
X204624500Y-97590098D01*
X204624500Y-97809894D01*
X204624501Y-97809902D01*
X204630330Y-97839212D01*
X204630844Y-97840454D01*
X204633092Y-97851287D01*
X204631449Y-97851968D01*
X204636745Y-97868892D01*
X204637992Y-97874897D01*
X204635641Y-97903858D01*
X204636156Y-97932914D01*
X204624823Y-97974201D01*
X204625948Y-97980781D01*
X204624532Y-97989763D01*
X204624500Y-97990098D01*
X204624500Y-98209894D01*
X204624501Y-98209902D01*
X204630330Y-98239212D01*
X204630844Y-98240454D01*
X204633092Y-98251287D01*
X204631449Y-98251968D01*
X204636745Y-98268892D01*
X204637992Y-98274897D01*
X204635642Y-98303846D01*
X204636158Y-98332908D01*
X204635265Y-98336162D01*
X204632604Y-98341279D01*
X204632340Y-98344538D01*
X204627862Y-98350401D01*
X204619513Y-98366461D01*
X204621473Y-98367621D01*
X204616501Y-98376019D01*
X204602685Y-98410880D01*
X204595276Y-98451364D01*
X204595275Y-98451376D01*
X204597061Y-98567766D01*
X204578407Y-98635099D01*
X204526312Y-98681659D01*
X204472635Y-98693667D01*
X204151334Y-98692523D01*
X204151325Y-98692524D01*
X204111279Y-98700267D01*
X204111265Y-98700271D01*
X204076857Y-98714236D01*
X204076820Y-98714253D01*
X204062357Y-98721459D01*
X204019478Y-98770579D01*
X204004753Y-98805070D01*
X203996287Y-98845351D01*
X203996287Y-98845356D01*
X203992017Y-99241069D01*
X203992017Y-99241071D01*
X203999620Y-99281540D01*
X203999623Y-99281553D01*
X204013605Y-99316344D01*
X204020965Y-99331173D01*
X204020967Y-99331175D01*
X204077449Y-99380457D01*
X204075694Y-99382467D01*
X204081012Y-99388471D01*
X204099264Y-99402135D01*
X204103736Y-99414126D01*
X204112223Y-99423707D01*
X204115713Y-99446237D01*
X204123681Y-99467599D01*
X204120960Y-99480104D01*
X204122920Y-99492753D01*
X204113675Y-99513594D01*
X204108829Y-99535872D01*
X204096471Y-99552379D01*
X204094590Y-99556621D01*
X204087678Y-99564126D01*
X203991231Y-99660573D01*
X203962980Y-99681722D01*
X203939892Y-99694330D01*
X203880462Y-99709500D01*
X203791798Y-99709500D01*
X203723118Y-99723161D01*
X203723113Y-99723163D01*
X203723112Y-99723164D01*
X203685170Y-99748516D01*
X203645214Y-99775214D01*
X203593198Y-99853059D01*
X203593199Y-99853060D01*
X203593161Y-99853116D01*
X203579500Y-99921796D01*
X203579500Y-99921801D01*
X203579500Y-99921804D01*
X203579500Y-100238196D01*
X203579500Y-100238198D01*
X203579499Y-100238198D01*
X203593162Y-100306884D01*
X203593163Y-100306886D01*
X203593164Y-100306888D01*
X203600821Y-100318348D01*
X203600822Y-100318350D01*
X203613009Y-100336588D01*
X203645214Y-100384786D01*
X203707823Y-100426620D01*
X203712964Y-100430055D01*
X203712965Y-100430056D01*
X203723112Y-100436836D01*
X203723114Y-100436836D01*
X203723115Y-100436837D01*
X203735086Y-100439218D01*
X203735087Y-100439219D01*
X203791798Y-100450500D01*
X204208198Y-100450500D01*
X204208199Y-100450500D01*
X204264909Y-100439219D01*
X204264914Y-100439218D01*
X204276884Y-100436837D01*
X204276884Y-100436836D01*
X204276886Y-100436836D01*
X204276888Y-100436836D01*
X204276888Y-100436835D01*
X204282033Y-100435812D01*
X204292172Y-100426623D01*
X204354786Y-100384786D01*
X204386993Y-100336582D01*
X204410568Y-100310335D01*
X204421227Y-100301427D01*
X204485284Y-100273541D01*
X204554250Y-100284713D01*
X204558982Y-100286977D01*
X204608569Y-100329943D01*
X204632262Y-100365402D01*
X204644182Y-100383242D01*
X204645212Y-100384784D01*
X204645214Y-100384786D01*
X204707823Y-100426620D01*
X204712964Y-100430055D01*
X204712963Y-100430055D01*
X204716603Y-100432487D01*
X204723112Y-100436836D01*
X204723113Y-100436836D01*
X204723114Y-100436836D01*
X204723115Y-100436837D01*
X204735086Y-100439218D01*
X204735087Y-100439219D01*
X204791798Y-100450500D01*
X205208198Y-100450500D01*
X205208199Y-100450500D01*
X205264909Y-100439219D01*
X205264914Y-100439218D01*
X205276884Y-100436837D01*
X205276884Y-100436836D01*
X205276886Y-100436836D01*
X205276888Y-100436836D01*
X205276889Y-100436835D01*
X205282032Y-100435812D01*
X205292168Y-100426625D01*
X205354786Y-100384786D01*
X205385640Y-100338610D01*
X205391426Y-100330652D01*
X205416625Y-100298740D01*
X205416941Y-100298951D01*
X205422157Y-100292472D01*
X205426393Y-100286371D01*
X205428743Y-100283396D01*
X205454252Y-100265308D01*
X205478598Y-100245687D01*
X205486582Y-100242380D01*
X205520774Y-100233655D01*
X205534579Y-100232171D01*
X205603338Y-100244580D01*
X205654462Y-100292176D01*
X205657135Y-100296682D01*
X205674500Y-100359965D01*
X205674500Y-101592659D01*
X205674499Y-101592665D01*
X205674500Y-101592668D01*
X205669475Y-101627601D01*
X205668353Y-101631420D01*
X205665070Y-101642601D01*
X205627310Y-101701359D01*
X205627291Y-101701374D01*
X205627291Y-101701376D01*
X205627289Y-101701376D01*
X205621757Y-101706172D01*
X205571427Y-101730811D01*
X205571460Y-101730873D01*
X205570890Y-101731172D01*
X205571214Y-101732263D01*
X205565735Y-101733888D01*
X205483700Y-101788701D01*
X205442563Y-101850266D01*
X205442563Y-101850268D01*
X205418978Y-101876525D01*
X205408330Y-101885424D01*
X205344267Y-101913310D01*
X205275297Y-101902135D01*
X205275295Y-101902133D01*
X205270574Y-101899875D01*
X205220986Y-101856908D01*
X205189786Y-101810214D01*
X205189783Y-101810211D01*
X205111895Y-101758168D01*
X205111886Y-101758163D01*
X205111885Y-101758162D01*
X205111882Y-101758161D01*
X205060250Y-101747891D01*
X205043198Y-101744500D01*
X205043197Y-101744500D01*
X204626798Y-101744500D01*
X204558118Y-101758161D01*
X204558113Y-101758163D01*
X204558112Y-101758164D01*
X204510288Y-101790119D01*
X204480214Y-101810214D01*
X204428198Y-101888059D01*
X204428199Y-101888060D01*
X204428161Y-101888116D01*
X204414500Y-101956796D01*
X204414500Y-101956801D01*
X204414500Y-101956804D01*
X204414500Y-102273196D01*
X204414500Y-102273198D01*
X204414499Y-102273198D01*
X204428162Y-102341884D01*
X204428163Y-102341886D01*
X204428164Y-102341888D01*
X204435821Y-102353348D01*
X204435822Y-102353350D01*
X204447597Y-102370972D01*
X204480214Y-102419786D01*
X204547964Y-102465055D01*
X204547965Y-102465056D01*
X204558112Y-102471836D01*
X204558114Y-102471836D01*
X204558115Y-102471837D01*
X204570086Y-102474218D01*
X204570087Y-102474219D01*
X204626798Y-102485500D01*
X204626801Y-102485500D01*
X204626804Y-102485500D01*
X204918114Y-102485500D01*
X204950349Y-102489763D01*
X204951709Y-102490129D01*
X204965383Y-102494144D01*
X204971842Y-102495549D01*
X204974746Y-102496331D01*
X205002072Y-102513031D01*
X205030185Y-102528380D01*
X205030192Y-102528387D01*
X205042016Y-102540211D01*
X205063165Y-102568461D01*
X205068586Y-102578388D01*
X205083440Y-102646661D01*
X205059026Y-102712126D01*
X205003094Y-102753999D01*
X205003090Y-102754001D01*
X204995902Y-102756682D01*
X204952568Y-102764500D01*
X204626798Y-102764500D01*
X204558118Y-102778161D01*
X204558113Y-102778163D01*
X204558112Y-102778164D01*
X204522731Y-102801805D01*
X204480214Y-102830214D01*
X204428198Y-102908059D01*
X204428199Y-102908060D01*
X204428161Y-102908116D01*
X204414500Y-102976796D01*
X204414500Y-102976801D01*
X204414500Y-102976804D01*
X204414500Y-103293196D01*
X204414500Y-103293198D01*
X204414499Y-103293198D01*
X204428162Y-103361884D01*
X204428163Y-103361886D01*
X204428164Y-103361888D01*
X204435821Y-103373348D01*
X204435822Y-103373350D01*
X204453236Y-103399411D01*
X204453237Y-103399412D01*
X204468569Y-103422358D01*
X204482890Y-103443791D01*
X204488620Y-103453255D01*
X204498567Y-103471472D01*
X204513418Y-103539740D01*
X204512201Y-103556763D01*
X204508825Y-103577955D01*
X204508649Y-103578660D01*
X204508116Y-103580719D01*
X204492349Y-103639562D01*
X204484500Y-103668856D01*
X204484500Y-103761144D01*
X204507173Y-103845762D01*
X204508387Y-103850290D01*
X204508388Y-103850293D01*
X204515077Y-103861878D01*
X204554519Y-103930194D01*
X204554531Y-103930212D01*
X204562803Y-103938484D01*
X204583954Y-103966739D01*
X204590485Y-103978700D01*
X204605336Y-104046973D01*
X204580918Y-104112437D01*
X204532185Y-104151361D01*
X204512489Y-104160150D01*
X204504197Y-104170729D01*
X204501004Y-104172935D01*
X204445214Y-104210213D01*
X204393198Y-104288059D01*
X204393199Y-104288060D01*
X204393161Y-104288116D01*
X204379500Y-104356796D01*
X204379500Y-104356801D01*
X204379500Y-104356804D01*
X204379500Y-104673196D01*
X204379500Y-104673198D01*
X204379499Y-104673198D01*
X204393162Y-104741884D01*
X204393163Y-104741886D01*
X204393164Y-104741888D01*
X204400821Y-104753348D01*
X204400822Y-104753350D01*
X204414794Y-104774260D01*
X204445214Y-104819786D01*
X204493719Y-104852196D01*
X204512964Y-104865055D01*
X204512965Y-104865056D01*
X204523112Y-104871836D01*
X204523114Y-104871836D01*
X204523115Y-104871837D01*
X204535086Y-104874218D01*
X204535087Y-104874219D01*
X204591798Y-104885500D01*
X204591801Y-104885500D01*
X204929115Y-104885500D01*
X204962388Y-104890047D01*
X204963184Y-104890268D01*
X204968188Y-104891738D01*
X204968552Y-104891764D01*
X204974519Y-104893426D01*
X204999452Y-104908962D01*
X205025721Y-104922105D01*
X205028761Y-104927227D01*
X205033818Y-104930378D01*
X205046394Y-104956930D01*
X205061387Y-104982186D01*
X205061175Y-104988137D01*
X205063726Y-104993522D01*
X205059950Y-105022659D01*
X205059326Y-105040252D01*
X205061890Y-105040811D01*
X205061535Y-105042442D01*
X205059089Y-105046919D01*
X205058909Y-105052011D01*
X205058905Y-105052023D01*
X205058386Y-105053583D01*
X205056044Y-105052804D01*
X205054748Y-105062813D01*
X205042413Y-105077454D01*
X205028053Y-105103751D01*
X205016231Y-105115573D01*
X204987980Y-105136722D01*
X204964892Y-105149330D01*
X204905462Y-105164500D01*
X204591798Y-105164500D01*
X204523118Y-105178161D01*
X204523113Y-105178163D01*
X204523060Y-105178199D01*
X204445214Y-105230214D01*
X204393198Y-105308059D01*
X204393199Y-105308060D01*
X204393161Y-105308116D01*
X204379500Y-105376796D01*
X204379500Y-105376801D01*
X204379500Y-105376804D01*
X204379500Y-105693196D01*
X204379500Y-105693198D01*
X204379499Y-105693198D01*
X204393162Y-105761884D01*
X204393163Y-105761886D01*
X204393164Y-105761888D01*
X204400821Y-105773348D01*
X204400822Y-105773350D01*
X204419039Y-105800613D01*
X204445214Y-105839786D01*
X204507823Y-105881620D01*
X204512964Y-105885055D01*
X204512965Y-105885056D01*
X204523112Y-105891836D01*
X204523114Y-105891836D01*
X204523115Y-105891837D01*
X204535086Y-105894218D01*
X204535087Y-105894219D01*
X204591798Y-105905500D01*
X205008198Y-105905500D01*
X205008199Y-105905500D01*
X205064909Y-105894219D01*
X205064914Y-105894218D01*
X205076884Y-105891837D01*
X205076884Y-105891836D01*
X205076886Y-105891836D01*
X205076888Y-105891836D01*
X205076889Y-105891835D01*
X205082032Y-105890812D01*
X205092168Y-105881625D01*
X205154786Y-105839786D01*
X205206836Y-105761888D01*
X205208805Y-105751990D01*
X205220500Y-105693198D01*
X205220500Y-105476886D01*
X205225522Y-105441953D01*
X205232934Y-105416708D01*
X205264228Y-105363966D01*
X205653771Y-104974423D01*
X205682021Y-104953275D01*
X205705113Y-104940667D01*
X205764538Y-104925500D01*
X206051050Y-104925500D01*
X206058902Y-104923117D01*
X206119265Y-104911111D01*
X206201298Y-104856298D01*
X206256111Y-104774265D01*
X206270500Y-104701928D01*
X206270500Y-104358072D01*
X206270500Y-104358069D01*
X206270500Y-104357888D01*
X206270074Y-104355932D01*
X206258492Y-104297706D01*
X206257891Y-104291607D01*
X206257880Y-104291568D01*
X206256604Y-104286473D01*
X206249330Y-104275587D01*
X206247380Y-104272669D01*
X206247376Y-104272657D01*
X206247374Y-104272659D01*
X206201298Y-104203701D01*
X206153439Y-104171723D01*
X206119267Y-104148890D01*
X206119265Y-104148889D01*
X206119260Y-104148886D01*
X206119258Y-104148886D01*
X206046934Y-104134500D01*
X206046931Y-104134500D01*
X206046928Y-104134500D01*
X205653072Y-104134500D01*
X205653069Y-104134500D01*
X205653064Y-104134500D01*
X205580740Y-104148886D01*
X205580738Y-104148886D01*
X205580733Y-104148889D01*
X205498700Y-104203701D01*
X205443886Y-104285736D01*
X205441073Y-104291000D01*
X205428262Y-104310357D01*
X205419530Y-104321191D01*
X205362135Y-104361035D01*
X205292310Y-104363523D01*
X205292309Y-104363523D01*
X205291792Y-104363391D01*
X205231706Y-104327734D01*
X205207906Y-104290696D01*
X205206836Y-104288114D01*
X205206836Y-104288112D01*
X205154786Y-104210214D01*
X205097179Y-104171722D01*
X205089423Y-104163628D01*
X205082564Y-104160287D01*
X205069927Y-104143280D01*
X205061407Y-104134388D01*
X205061210Y-104134516D01*
X205060558Y-104133502D01*
X205060122Y-104133047D01*
X205056797Y-104127579D01*
X205055977Y-104124506D01*
X205054210Y-104122128D01*
X205053658Y-104120974D01*
X205054878Y-104120390D01*
X205048172Y-104095255D01*
X205038746Y-104063164D01*
X205039198Y-104061623D01*
X205038784Y-104060071D01*
X205049001Y-104028226D01*
X205055468Y-104006193D01*
X205053659Y-104005328D01*
X205056701Y-103998969D01*
X205058217Y-103996825D01*
X205058424Y-103996123D01*
X205058437Y-103996104D01*
X205061210Y-103991790D01*
X205061602Y-103992042D01*
X205080879Y-103964801D01*
X205115469Y-103930212D01*
X205161614Y-103850288D01*
X205185500Y-103761144D01*
X205185500Y-103668856D01*
X205162829Y-103584247D01*
X205159319Y-103565431D01*
X205157393Y-103547520D01*
X205156526Y-103539454D01*
X205165403Y-103478389D01*
X205166179Y-103476532D01*
X205168503Y-103473065D01*
X205168931Y-103470695D01*
X205173085Y-103466232D01*
X205183695Y-103450410D01*
X205182998Y-103449944D01*
X205189784Y-103439786D01*
X205189786Y-103439786D01*
X205234021Y-103373582D01*
X205235388Y-103372098D01*
X205235732Y-103371088D01*
X205259947Y-103345420D01*
X205269760Y-103337618D01*
X205334484Y-103311309D01*
X205400424Y-103322818D01*
X205403595Y-103324334D01*
X205405227Y-103325115D01*
X205454828Y-103368086D01*
X205483702Y-103411298D01*
X205483703Y-103411299D01*
X205483704Y-103411300D01*
X205483707Y-103411302D01*
X205541670Y-103450032D01*
X205555587Y-103459331D01*
X205560320Y-103463215D01*
X205560353Y-103463233D01*
X205564559Y-103465754D01*
X205565733Y-103466110D01*
X205565735Y-103466111D01*
X205565736Y-103466111D01*
X205565738Y-103466111D01*
X205565739Y-103466112D01*
X205565740Y-103466112D01*
X205571563Y-103467878D01*
X205571572Y-103467881D01*
X205571608Y-103467892D01*
X205577707Y-103468492D01*
X205630442Y-103478982D01*
X205633166Y-103479704D01*
X205638069Y-103480500D01*
X206031930Y-103480500D01*
X206036050Y-103480500D01*
X206043902Y-103478117D01*
X206104265Y-103466111D01*
X206186298Y-103411298D01*
X206241111Y-103329265D01*
X206255500Y-103256928D01*
X206255500Y-102913072D01*
X206255500Y-102913069D01*
X206255500Y-102912888D01*
X206255074Y-102910932D01*
X206243492Y-102852706D01*
X206242891Y-102846608D01*
X206242881Y-102846572D01*
X206241603Y-102841473D01*
X206241111Y-102840736D01*
X206241111Y-102840735D01*
X206199301Y-102778163D01*
X206186298Y-102758702D01*
X206117904Y-102713002D01*
X206091652Y-102689421D01*
X206082754Y-102678773D01*
X206054868Y-102614713D01*
X206055025Y-102613745D01*
X206066034Y-102545762D01*
X206066827Y-102544101D01*
X206068295Y-102541034D01*
X206111269Y-102491430D01*
X206186298Y-102441298D01*
X206201211Y-102418980D01*
X206204569Y-102413953D01*
X206241111Y-102359265D01*
X206255500Y-102286928D01*
X206255500Y-101943072D01*
X206255500Y-101943069D01*
X206255500Y-101942888D01*
X206255074Y-101940932D01*
X206243492Y-101882706D01*
X206242891Y-101876607D01*
X206242880Y-101876568D01*
X206241604Y-101871473D01*
X206234330Y-101860587D01*
X206234329Y-101860586D01*
X206233713Y-101859664D01*
X206233698Y-101859616D01*
X206233687Y-101859624D01*
X206186298Y-101788701D01*
X206186295Y-101788698D01*
X206102550Y-101732742D01*
X206093628Y-101726186D01*
X206075987Y-101711968D01*
X206064298Y-101695130D01*
X206036143Y-101654574D01*
X206031843Y-101641652D01*
X206025500Y-101602500D01*
X206025500Y-100241884D01*
X206030522Y-100206951D01*
X206037934Y-100181706D01*
X206069228Y-100128964D01*
X206649411Y-99548782D01*
X206649413Y-99548782D01*
X206698782Y-99499413D01*
X206723349Y-99440102D01*
X206725500Y-99434910D01*
X206725500Y-99365091D01*
X206725500Y-99330265D01*
X206726096Y-99328233D01*
X206725567Y-99326182D01*
X206730521Y-99295338D01*
X206733055Y-99286706D01*
X206742696Y-99271701D01*
X206745185Y-99263226D01*
X206755647Y-99251545D01*
X206770825Y-99227925D01*
X206834379Y-99198896D01*
X206903538Y-99208835D01*
X206952612Y-99249106D01*
X206955606Y-99253258D01*
X206959650Y-99260510D01*
X206961494Y-99262217D01*
X206962262Y-99265193D01*
X206969583Y-99278319D01*
X206972464Y-99285272D01*
X206972467Y-99285288D01*
X206972470Y-99285287D01*
X207001981Y-99356535D01*
X207001989Y-99356552D01*
X207100536Y-99504036D01*
X207100537Y-99504037D01*
X207100542Y-99504043D01*
X207225955Y-99629456D01*
X207225961Y-99629461D01*
X207225962Y-99629462D01*
X207374471Y-99728694D01*
X207379061Y-99730336D01*
X207403363Y-99740401D01*
X207403366Y-99740404D01*
X207403375Y-99740406D01*
X207406498Y-99741700D01*
X207436830Y-99759700D01*
X207449004Y-99769510D01*
X207488852Y-99826897D01*
X207493152Y-99839814D01*
X207499500Y-99878980D01*
X207499500Y-100519092D01*
X207499499Y-100519098D01*
X207499500Y-100519101D01*
X207494475Y-100554036D01*
X207490070Y-100569034D01*
X207452298Y-100627803D01*
X207442005Y-100636722D01*
X207408256Y-100657569D01*
X207373470Y-100671978D01*
X207373450Y-100671987D01*
X207225962Y-100770536D01*
X207225961Y-100770537D01*
X207225955Y-100770542D01*
X207100542Y-100895955D01*
X207100537Y-100895961D01*
X207100536Y-100895962D01*
X207001994Y-101043439D01*
X207001985Y-101043454D01*
X207001977Y-101043472D01*
X206934109Y-101207322D01*
X206934101Y-101207345D01*
X206934099Y-101207352D01*
X206899500Y-101381299D01*
X206899500Y-101558699D01*
X206934098Y-101732637D01*
X206934101Y-101732653D01*
X206934109Y-101732676D01*
X207001977Y-101896526D01*
X207001985Y-101896544D01*
X207001994Y-101896559D01*
X207100536Y-102044036D01*
X207100537Y-102044037D01*
X207100542Y-102044043D01*
X207225955Y-102169456D01*
X207225961Y-102169461D01*
X207225962Y-102169462D01*
X207374471Y-102268694D01*
X207379061Y-102270336D01*
X207403363Y-102280401D01*
X207403366Y-102280404D01*
X207403375Y-102280406D01*
X207406498Y-102281700D01*
X207436830Y-102299700D01*
X207449004Y-102309510D01*
X207488852Y-102366897D01*
X207493152Y-102379814D01*
X207499500Y-102418980D01*
X207499500Y-103059092D01*
X207499499Y-103059098D01*
X207499500Y-103059101D01*
X207494475Y-103094036D01*
X207490070Y-103109034D01*
X207452298Y-103167803D01*
X207442005Y-103176722D01*
X207408256Y-103197569D01*
X207373470Y-103211978D01*
X207373450Y-103211987D01*
X207225962Y-103310536D01*
X207225961Y-103310537D01*
X207225955Y-103310542D01*
X207100542Y-103435955D01*
X207100537Y-103435961D01*
X207100536Y-103435962D01*
X207001994Y-103583439D01*
X207001985Y-103583454D01*
X207001977Y-103583472D01*
X206934109Y-103747322D01*
X206934101Y-103747345D01*
X206934099Y-103747352D01*
X206899500Y-103921299D01*
X206899500Y-104098699D01*
X206934099Y-104272646D01*
X206934101Y-104272653D01*
X206934108Y-104272673D01*
X206997018Y-104424552D01*
X207003854Y-104446729D01*
X207008393Y-104468530D01*
X207002786Y-104538174D01*
X207002784Y-104538180D01*
X206999280Y-104547323D01*
X206971173Y-104590629D01*
X206500587Y-105061218D01*
X206458053Y-105103751D01*
X206451218Y-105110586D01*
X206424500Y-105175091D01*
X206424500Y-106008113D01*
X206424499Y-106008115D01*
X206424500Y-106008116D01*
X206419476Y-106043050D01*
X206412064Y-106068291D01*
X206380769Y-106121035D01*
X205871231Y-106630573D01*
X205842980Y-106651722D01*
X205819892Y-106664330D01*
X205760462Y-106679500D01*
X205601798Y-106679500D01*
X205533118Y-106693161D01*
X205533113Y-106693163D01*
X205533060Y-106693199D01*
X205455214Y-106745214D01*
X205403198Y-106823059D01*
X205403199Y-106823060D01*
X205403161Y-106823116D01*
X205389500Y-106891796D01*
X205389500Y-106891801D01*
X205389500Y-106891804D01*
X205389500Y-107308196D01*
X205389500Y-107308198D01*
X205389499Y-107308198D01*
X205403162Y-107376884D01*
X205403163Y-107376885D01*
X205403164Y-107376888D01*
X205411213Y-107388934D01*
X205411342Y-107389733D01*
X205425567Y-107419459D01*
X205431838Y-107439489D01*
X205435332Y-107499632D01*
X205431131Y-107521794D01*
X205429076Y-107530791D01*
X205409500Y-107603851D01*
X205409500Y-107603856D01*
X205409500Y-107696144D01*
X205431868Y-107779623D01*
X205433223Y-107784680D01*
X205433388Y-107785294D01*
X205479519Y-107865194D01*
X205479523Y-107865201D01*
X205479526Y-107865205D01*
X205479533Y-107865214D01*
X205518194Y-107903875D01*
X205539343Y-107932126D01*
X205545995Y-107944308D01*
X205560847Y-108012581D01*
X205536431Y-108078046D01*
X205536425Y-108078053D01*
X205529826Y-108086867D01*
X205499457Y-108115651D01*
X205455214Y-108145214D01*
X205403198Y-108223059D01*
X205403199Y-108223060D01*
X205403161Y-108223116D01*
X205389500Y-108291796D01*
X205389500Y-108291801D01*
X205389500Y-108291804D01*
X205389500Y-108708196D01*
X205389500Y-108708198D01*
X205389499Y-108708198D01*
X205395931Y-108740536D01*
X205396506Y-108747818D01*
X205393453Y-108762357D01*
X205398498Y-108769907D01*
X205413733Y-108801749D01*
X205421210Y-108825629D01*
X205422651Y-108894772D01*
X205420464Y-108902935D01*
X205409500Y-108943854D01*
X205409500Y-108943856D01*
X205409500Y-109036148D01*
X205411896Y-109045089D01*
X205411897Y-109045091D01*
X205414882Y-109056230D01*
X205433384Y-109125282D01*
X205433386Y-109125288D01*
X205433387Y-109125290D01*
X205433388Y-109125293D01*
X205479526Y-109205205D01*
X205479529Y-109205209D01*
X205479531Y-109205212D01*
X205544788Y-109270469D01*
X205544791Y-109270470D01*
X205544794Y-109270473D01*
X205551020Y-109274067D01*
X205551684Y-109274730D01*
X205553036Y-109275566D01*
X205555651Y-109276741D01*
X205624706Y-109316611D01*
X205624707Y-109316611D01*
X205624712Y-109316614D01*
X205713856Y-109340500D01*
X205713858Y-109340500D01*
X205806142Y-109340500D01*
X205806144Y-109340500D01*
X205895288Y-109316614D01*
X205975212Y-109270469D01*
X206040469Y-109205212D01*
X206086614Y-109125288D01*
X206110500Y-109036144D01*
X206110500Y-108943856D01*
X206099534Y-108902932D01*
X206095345Y-108867893D01*
X206095657Y-108854781D01*
X206095940Y-108842874D01*
X206113124Y-108788576D01*
X206112160Y-108788177D01*
X206116783Y-108777015D01*
X206116812Y-108776923D01*
X206116836Y-108776888D01*
X206130500Y-108708196D01*
X206130500Y-108536885D01*
X206135522Y-108501952D01*
X206142934Y-108476707D01*
X206174228Y-108423965D01*
X206681713Y-107916481D01*
X207215488Y-107382704D01*
X207243741Y-107361555D01*
X207246051Y-107360295D01*
X207246053Y-107360292D01*
X207252651Y-107356691D01*
X207253416Y-107358092D01*
X207261891Y-107355139D01*
X207276387Y-107344770D01*
X207311029Y-107338017D01*
X207315088Y-107337815D01*
X207344325Y-107339828D01*
X207349019Y-107340717D01*
X207373397Y-107347990D01*
X207406909Y-107361871D01*
X207438020Y-107380495D01*
X207449760Y-107390110D01*
X207459728Y-107404588D01*
X207473048Y-107415321D01*
X207488847Y-107446881D01*
X207493153Y-107459817D01*
X207499500Y-107498980D01*
X207499500Y-108139092D01*
X207494475Y-108174036D01*
X207490070Y-108189034D01*
X207452298Y-108247803D01*
X207442005Y-108256722D01*
X207408256Y-108277569D01*
X207373470Y-108291978D01*
X207373450Y-108291987D01*
X207225962Y-108390536D01*
X207225961Y-108390537D01*
X207225955Y-108390542D01*
X207100542Y-108515955D01*
X207100537Y-108515961D01*
X207100536Y-108515962D01*
X207001994Y-108663439D01*
X207001985Y-108663454D01*
X207001977Y-108663472D01*
X206934109Y-108827322D01*
X206934101Y-108827345D01*
X206934099Y-108827352D01*
X206899500Y-109001299D01*
X206899500Y-109178699D01*
X206934099Y-109352646D01*
X206934101Y-109352653D01*
X206934109Y-109352676D01*
X207001977Y-109516526D01*
X207001985Y-109516544D01*
X207001994Y-109516559D01*
X207100535Y-109664035D01*
X207100538Y-109664038D01*
X207161714Y-109725214D01*
X207171722Y-109738583D01*
X207182863Y-109753466D01*
X207188283Y-109763392D01*
X207203135Y-109831665D01*
X207178718Y-109897129D01*
X207122785Y-109939001D01*
X207115597Y-109941682D01*
X207072263Y-109949500D01*
X204615887Y-109949500D01*
X204580952Y-109944477D01*
X204570098Y-109941290D01*
X204555101Y-109931652D01*
X204537998Y-109926631D01*
X204526321Y-109913156D01*
X204511320Y-109903516D01*
X204503914Y-109887299D01*
X204492241Y-109873829D01*
X204489702Y-109856180D01*
X204482295Y-109839960D01*
X204484831Y-109822314D01*
X204482294Y-109804671D01*
X204492233Y-109770815D01*
X204495425Y-109763824D01*
X204520534Y-109727660D01*
X204888780Y-109359415D01*
X204888782Y-109359413D01*
X204915501Y-109294909D01*
X204915501Y-109225091D01*
X204915501Y-109215102D01*
X204915501Y-109212919D01*
X204915500Y-109212863D01*
X204915500Y-109025281D01*
X204920522Y-108990349D01*
X204922885Y-108982301D01*
X204926434Y-108970213D01*
X204956954Y-108918250D01*
X204961675Y-108913444D01*
X204975568Y-108901942D01*
X204976609Y-108900552D01*
X204981003Y-108897442D01*
X204981250Y-108897238D01*
X204982018Y-108896725D01*
X205044786Y-108854786D01*
X205096836Y-108776888D01*
X205098225Y-108769907D01*
X205110500Y-108708198D01*
X205110500Y-108291798D01*
X205099219Y-108235087D01*
X205099219Y-108235086D01*
X205096836Y-108223112D01*
X205090056Y-108212965D01*
X205090055Y-108212964D01*
X205044786Y-108145214D01*
X205044783Y-108145211D01*
X204985432Y-108105554D01*
X204985431Y-108105553D01*
X204985430Y-108105553D01*
X204959174Y-108081967D01*
X204945721Y-108065869D01*
X204919473Y-108011626D01*
X204918103Y-108005045D01*
X204915500Y-107979773D01*
X204915500Y-107625281D01*
X204920522Y-107590349D01*
X204926434Y-107570213D01*
X204933752Y-107557753D01*
X204936058Y-107546686D01*
X204956951Y-107518253D01*
X204961673Y-107513446D01*
X204981227Y-107497254D01*
X204993677Y-107488936D01*
X205044786Y-107454786D01*
X205096836Y-107376888D01*
X205097098Y-107375567D01*
X205098188Y-107370097D01*
X205110500Y-107308200D01*
X205110500Y-106891798D01*
X205099219Y-106835087D01*
X205099219Y-106835086D01*
X205096836Y-106823112D01*
X205090056Y-106812965D01*
X205090055Y-106812964D01*
X205089843Y-106812646D01*
X205044786Y-106745214D01*
X204986295Y-106706131D01*
X204966887Y-106693163D01*
X204966886Y-106693163D01*
X204966885Y-106693162D01*
X204966882Y-106693161D01*
X204915250Y-106682891D01*
X204898198Y-106679500D01*
X204898197Y-106679500D01*
X204581798Y-106679500D01*
X204513118Y-106693161D01*
X204513113Y-106693163D01*
X204513060Y-106693199D01*
X204435214Y-106745214D01*
X204383198Y-106823059D01*
X204383199Y-106823060D01*
X204383161Y-106823116D01*
X204369500Y-106891796D01*
X204369500Y-106891801D01*
X204369500Y-106891804D01*
X204369500Y-107308196D01*
X204369500Y-107308198D01*
X204369499Y-107308198D01*
X204383162Y-107376884D01*
X204383163Y-107376885D01*
X204383164Y-107376888D01*
X204391206Y-107388924D01*
X204391207Y-107388926D01*
X204435211Y-107454783D01*
X204435214Y-107454786D01*
X204486323Y-107488936D01*
X204494572Y-107494448D01*
X204520822Y-107518029D01*
X204531488Y-107530791D01*
X204534280Y-107534132D01*
X204560523Y-107588355D01*
X204561894Y-107594936D01*
X204564500Y-107620226D01*
X204564500Y-107974718D01*
X204559476Y-108009655D01*
X204553564Y-108029788D01*
X204546250Y-108042240D01*
X204543948Y-108053302D01*
X204523050Y-108081744D01*
X204518343Y-108086536D01*
X204498772Y-108102745D01*
X204435216Y-108145211D01*
X204435213Y-108145214D01*
X204383198Y-108223059D01*
X204383199Y-108223060D01*
X204383161Y-108223116D01*
X204369500Y-108291796D01*
X204369500Y-108291801D01*
X204369500Y-108291804D01*
X204369500Y-108708196D01*
X204369500Y-108708198D01*
X204369499Y-108708198D01*
X204383162Y-108776884D01*
X204383163Y-108776886D01*
X204383164Y-108776888D01*
X204390821Y-108788348D01*
X204390822Y-108788350D01*
X204409039Y-108815613D01*
X204435214Y-108854786D01*
X204492131Y-108892817D01*
X204494589Y-108894459D01*
X204494615Y-108894490D01*
X204503252Y-108902247D01*
X204503431Y-108902013D01*
X204507145Y-108904845D01*
X204511991Y-108910097D01*
X204520826Y-108918032D01*
X204523390Y-108921100D01*
X204522686Y-108921687D01*
X204533998Y-108933946D01*
X204534272Y-108933745D01*
X204536066Y-108936187D01*
X204536273Y-108936411D01*
X204536566Y-108936867D01*
X204538860Y-108939989D01*
X204537803Y-108940765D01*
X204542496Y-108951283D01*
X204553073Y-108963470D01*
X204563043Y-108997327D01*
X204563224Y-108998579D01*
X204564500Y-109016321D01*
X204564500Y-109118113D01*
X204559476Y-109153050D01*
X204552064Y-109178291D01*
X204520769Y-109231035D01*
X204301231Y-109450573D01*
X204282627Y-109464500D01*
X204272980Y-109471722D01*
X204249892Y-109484330D01*
X204190462Y-109499500D01*
X192656887Y-109499500D01*
X192621951Y-109494477D01*
X192596709Y-109487065D01*
X192543964Y-109455769D01*
X192144426Y-109056231D01*
X192144421Y-109056226D01*
X192123274Y-109027975D01*
X192110667Y-109004886D01*
X192095500Y-108945461D01*
X192095500Y-102819634D01*
X192100522Y-102784702D01*
X192101108Y-102782706D01*
X192106434Y-102764566D01*
X192136944Y-102712614D01*
X192141665Y-102707807D01*
X192161213Y-102691618D01*
X192233391Y-102643391D01*
X192286546Y-102563839D01*
X192300500Y-102493688D01*
X192300500Y-102236886D01*
X192305522Y-102201953D01*
X192312934Y-102176708D01*
X192344235Y-102123959D01*
X192349413Y-102118782D01*
X192398782Y-102069413D01*
X192425500Y-102004909D01*
X192425500Y-101915334D01*
X192430522Y-101880401D01*
X192431636Y-101876607D01*
X192434433Y-101867082D01*
X192472206Y-101808305D01*
X192535758Y-101779280D01*
X192537386Y-101779046D01*
X192595569Y-101784604D01*
X192600312Y-101786246D01*
X192621751Y-101796037D01*
X192674706Y-101826611D01*
X192674707Y-101826611D01*
X192674712Y-101826614D01*
X192763856Y-101850500D01*
X192763858Y-101850500D01*
X192856142Y-101850500D01*
X192856144Y-101850500D01*
X192945288Y-101826614D01*
X193025212Y-101780469D01*
X193090469Y-101715212D01*
X193118702Y-101666310D01*
X193140510Y-101638578D01*
X193150562Y-101628994D01*
X193212661Y-101596981D01*
X193282192Y-101603613D01*
X193283708Y-101604220D01*
X193331361Y-101638152D01*
X193331725Y-101638572D01*
X193334641Y-101641938D01*
X193348304Y-101661127D01*
X193379531Y-101715212D01*
X193420207Y-101755888D01*
X193444788Y-101780469D01*
X193446360Y-101781440D01*
X193446392Y-101781459D01*
X193453036Y-101785566D01*
X193455651Y-101786741D01*
X193524706Y-101826611D01*
X193524707Y-101826611D01*
X193524712Y-101826614D01*
X193613856Y-101850500D01*
X193613858Y-101850500D01*
X193706142Y-101850500D01*
X193706144Y-101850500D01*
X193795288Y-101826614D01*
X193875212Y-101780469D01*
X193940469Y-101715212D01*
X193986614Y-101635288D01*
X194010500Y-101546144D01*
X194010500Y-101453856D01*
X193986614Y-101364712D01*
X193986612Y-101364710D01*
X193985596Y-101360915D01*
X193981714Y-101349020D01*
X193976840Y-101328932D01*
X193980160Y-101259146D01*
X193983865Y-101248438D01*
X193997231Y-101224857D01*
X193996100Y-101224210D01*
X194012252Y-101195990D01*
X194029105Y-101166547D01*
X194042105Y-101116547D01*
X194045500Y-101090000D01*
X194045500Y-100970000D01*
X194042105Y-100943453D01*
X194029758Y-100895965D01*
X194029105Y-100893452D01*
X194014005Y-100867072D01*
X194014004Y-100867071D01*
X194001009Y-100834256D01*
X193996584Y-100815714D01*
X193998219Y-100751999D01*
X194001037Y-100742400D01*
X194012399Y-100715732D01*
X194029105Y-100686547D01*
X194042105Y-100636547D01*
X194045500Y-100610000D01*
X194045500Y-100490000D01*
X194042105Y-100463453D01*
X194029105Y-100413453D01*
X194001600Y-100365400D01*
X193983837Y-100347637D01*
X193964613Y-100328412D01*
X193964604Y-100328404D01*
X193964600Y-100328400D01*
X193964594Y-100328395D01*
X193964592Y-100328393D01*
X193933375Y-100310526D01*
X193913704Y-100296564D01*
X193909454Y-100292876D01*
X193909426Y-100292847D01*
X193909414Y-100292841D01*
X193904814Y-100288850D01*
X193903260Y-100286428D01*
X193901302Y-100284390D01*
X193901534Y-100284166D01*
X193888751Y-100272022D01*
X193882463Y-100264056D01*
X193869443Y-100233727D01*
X193867081Y-100230046D01*
X193867082Y-100228227D01*
X193857056Y-100204872D01*
X193856762Y-100202827D01*
X193855500Y-100185182D01*
X193855500Y-100111436D01*
X193860523Y-100076501D01*
X193866434Y-100056370D01*
X193896951Y-100004410D01*
X193913396Y-99987667D01*
X193916599Y-99976576D01*
X193918065Y-99974328D01*
X193938653Y-99943515D01*
X193947843Y-99933376D01*
X193948867Y-99928229D01*
X193948868Y-99928229D01*
X193960072Y-99871896D01*
X193960500Y-99869931D01*
X193960500Y-99630247D01*
X193956159Y-99608429D01*
X193956157Y-99608421D01*
X193954268Y-99573187D01*
X193955277Y-99561913D01*
X193980858Y-99496897D01*
X194037529Y-99456031D01*
X194107292Y-99452289D01*
X194107296Y-99452290D01*
X194107297Y-99452290D01*
X194107299Y-99452290D01*
X194107300Y-99452291D01*
X194111131Y-99453196D01*
X194117940Y-99454805D01*
X194151432Y-99468097D01*
X194166180Y-99476612D01*
X194166181Y-99476612D01*
X194166184Y-99476614D01*
X194255328Y-99500500D01*
X194255330Y-99500500D01*
X194347614Y-99500500D01*
X194347616Y-99500500D01*
X194436760Y-99476614D01*
X194516684Y-99430469D01*
X194581941Y-99365212D01*
X194628086Y-99285288D01*
X194651972Y-99196144D01*
X194651972Y-99115411D01*
X194656235Y-99083176D01*
X194656596Y-99081833D01*
X194660616Y-99068143D01*
X194662022Y-99061677D01*
X194662803Y-99058779D01*
X194679501Y-99031455D01*
X194694848Y-99003344D01*
X194823770Y-98874422D01*
X194852027Y-98853271D01*
X194875116Y-98840665D01*
X194934537Y-98825500D01*
X197484907Y-98825500D01*
X197484909Y-98825500D01*
X197549413Y-98798782D01*
X198010583Y-98337612D01*
X198037302Y-98273108D01*
X198037302Y-98273102D01*
X198037461Y-98272303D01*
X198042324Y-98238484D01*
X198044222Y-98232018D01*
X198048235Y-98218351D01*
X198078759Y-98166383D01*
X198083473Y-98161585D01*
X198103038Y-98145384D01*
X198112057Y-98139358D01*
X198112058Y-98139357D01*
X198134270Y-98106113D01*
X198140101Y-98076799D01*
X198140100Y-97690676D01*
X198140592Y-97679642D01*
X198142023Y-97663624D01*
X198143641Y-97645513D01*
X198169212Y-97580495D01*
X198177566Y-97569738D01*
X198206613Y-97542695D01*
X198210397Y-97540167D01*
X198212957Y-97538457D01*
X198235169Y-97505213D01*
X198241000Y-97475899D01*
X198240999Y-97100502D01*
X198235169Y-97071187D01*
X198222328Y-97051968D01*
X198222186Y-97051756D01*
X198214494Y-97040242D01*
X198211851Y-97031800D01*
X198179713Y-97015731D01*
X198179708Y-97015729D01*
X198179711Y-97015729D01*
X198157727Y-97011357D01*
X198150401Y-97009900D01*
X198150400Y-97009900D01*
X197749601Y-97009900D01*
X197749590Y-97009902D01*
X197720289Y-97015729D01*
X197720287Y-97015729D01*
X197720287Y-97015730D01*
X197718476Y-97016940D01*
X197687041Y-97037942D01*
X197664833Y-97071182D01*
X197664829Y-97071190D01*
X197659000Y-97100498D01*
X197659000Y-97443570D01*
X197658999Y-97443576D01*
X197659000Y-97443579D01*
X197653975Y-97478514D01*
X197649570Y-97493512D01*
X197611827Y-97552255D01*
X197611792Y-97552285D01*
X197611791Y-97552287D01*
X197611789Y-97552287D01*
X197610458Y-97553442D01*
X197555597Y-97580918D01*
X197548039Y-97582563D01*
X197521668Y-97585400D01*
X197184771Y-97585400D01*
X197161662Y-97583228D01*
X197141402Y-97579385D01*
X197079206Y-97547551D01*
X197044783Y-97489823D01*
X197041572Y-97477908D01*
X197037300Y-97445642D01*
X197037300Y-96597015D01*
X197042322Y-96562083D01*
X197042913Y-96560070D01*
X197048234Y-96541947D01*
X197055551Y-96529489D01*
X197057857Y-96518421D01*
X197078750Y-96489988D01*
X197083468Y-96485185D01*
X197103024Y-96468991D01*
X197112057Y-96462957D01*
X197134269Y-96429713D01*
X197140100Y-96400399D01*
X197140099Y-95999602D01*
X197134269Y-95970287D01*
X197129087Y-95962531D01*
X197129085Y-95962528D01*
X197129085Y-95962527D01*
X197113595Y-95939344D01*
X197110951Y-95930900D01*
X197078813Y-95914831D01*
X197078808Y-95914829D01*
X197078811Y-95914829D01*
X197056827Y-95910457D01*
X197049501Y-95909000D01*
X197049500Y-95909000D01*
X196687333Y-95909000D01*
X196665881Y-95907130D01*
X196656550Y-95905491D01*
X196653720Y-95904090D01*
X196652392Y-95903975D01*
X196648020Y-95902691D01*
X196648303Y-95901724D01*
X196632190Y-95897611D01*
X196631935Y-95898297D01*
X196629087Y-95897234D01*
X196628247Y-95896605D01*
X196626499Y-95896159D01*
X196623792Y-95894923D01*
X196624354Y-95893690D01*
X196612378Y-95884723D01*
X196602623Y-95881855D01*
X196598009Y-95876525D01*
X196593927Y-95874506D01*
X196590012Y-95867977D01*
X196577934Y-95858933D01*
X196576907Y-95859824D01*
X196575992Y-95858768D01*
X196575097Y-95856809D01*
X196573184Y-95855377D01*
X196571358Y-95852938D01*
X196572827Y-95851837D01*
X196568577Y-95842530D01*
X196556890Y-95829032D01*
X196546988Y-95795257D01*
X196546968Y-95795212D01*
X196546961Y-95795163D01*
X196546755Y-95793726D01*
X196545500Y-95776130D01*
X196545500Y-95619634D01*
X196550522Y-95584702D01*
X196552400Y-95578305D01*
X196556434Y-95564566D01*
X196586944Y-95512614D01*
X196591665Y-95507807D01*
X196611213Y-95491618D01*
X196683391Y-95443391D01*
X196736546Y-95363839D01*
X196750500Y-95293688D01*
X196750500Y-94906312D01*
X196750500Y-94906309D01*
X196750500Y-94906128D01*
X196750074Y-94904172D01*
X196738927Y-94848131D01*
X196738326Y-94842032D01*
X196738315Y-94841994D01*
X196737038Y-94836898D01*
X196736510Y-94836108D01*
X196683391Y-94756609D01*
X196603839Y-94703454D01*
X196603837Y-94703453D01*
X196603835Y-94703452D01*
X196580453Y-94698801D01*
X196533691Y-94689500D01*
X196533689Y-94689500D01*
X196206310Y-94689500D01*
X196206309Y-94689500D01*
X196192755Y-94692196D01*
X196136166Y-94703451D01*
X196136161Y-94703453D01*
X196056609Y-94756609D01*
X196003488Y-94836108D01*
X196003489Y-94836109D01*
X196003451Y-94836164D01*
X195998660Y-94860254D01*
X195998660Y-94860256D01*
X195986917Y-94893539D01*
X195972289Y-94921502D01*
X195950096Y-94951706D01*
X195694788Y-95207015D01*
X195666538Y-95228164D01*
X195656611Y-95233585D01*
X195588338Y-95248439D01*
X195522873Y-95224025D01*
X195481000Y-95168093D01*
X195478313Y-95160887D01*
X195470500Y-95117567D01*
X195470500Y-94891798D01*
X195459219Y-94835087D01*
X195459219Y-94835086D01*
X195456836Y-94823112D01*
X195450056Y-94812965D01*
X195450055Y-94812964D01*
X195404786Y-94745214D01*
X195342284Y-94703451D01*
X195326887Y-94693163D01*
X195326886Y-94693163D01*
X195326885Y-94693162D01*
X195326882Y-94693161D01*
X195275250Y-94682891D01*
X195258198Y-94679500D01*
X195258197Y-94679500D01*
X194841798Y-94679500D01*
X194773118Y-94693161D01*
X194773113Y-94693163D01*
X194773112Y-94693164D01*
X194757264Y-94703753D01*
X194695214Y-94745213D01*
X194695210Y-94745218D01*
X194653971Y-94806935D01*
X194653971Y-94806936D01*
X194630386Y-94833193D01*
X194610201Y-94850062D01*
X194575138Y-94866843D01*
X194576374Y-94869826D01*
X194489307Y-94905890D01*
X194489251Y-94905756D01*
X194487764Y-94906958D01*
X194453578Y-94915731D01*
X194452604Y-94915837D01*
X194383828Y-94903521D01*
X194332629Y-94855977D01*
X194315261Y-94788301D01*
X194325489Y-94743083D01*
X194327131Y-94739310D01*
X194335632Y-94726827D01*
X194337240Y-94721978D01*
X194341012Y-94718930D01*
X194353146Y-94701114D01*
X194654838Y-94399422D01*
X194683088Y-94378274D01*
X194706180Y-94365666D01*
X194765605Y-94350499D01*
X194859895Y-94350499D01*
X194859898Y-94350499D01*
X194889213Y-94344669D01*
X194922457Y-94322457D01*
X194944669Y-94289213D01*
X194947040Y-94277293D01*
X194947188Y-94276550D01*
X194947188Y-94276547D01*
X194950500Y-94259901D01*
X194950500Y-94196934D01*
X195469499Y-94196934D01*
X195483886Y-94269257D01*
X195483887Y-94269260D01*
X195483890Y-94269267D01*
X195538701Y-94351298D01*
X195555665Y-94362633D01*
X195555669Y-94362637D01*
X195555670Y-94362636D01*
X195610588Y-94399331D01*
X195615322Y-94403216D01*
X195615353Y-94403233D01*
X195619559Y-94405754D01*
X195620733Y-94406110D01*
X195620735Y-94406111D01*
X195620736Y-94406111D01*
X195620738Y-94406111D01*
X195620739Y-94406112D01*
X195620740Y-94406112D01*
X195626563Y-94407878D01*
X195626572Y-94407881D01*
X195626608Y-94407892D01*
X195632707Y-94408492D01*
X195685442Y-94418982D01*
X195688166Y-94419704D01*
X195693069Y-94420500D01*
X196036930Y-94420500D01*
X196041050Y-94420500D01*
X196048902Y-94418117D01*
X196109265Y-94406111D01*
X196191298Y-94351298D01*
X196246111Y-94269265D01*
X196260500Y-94196928D01*
X196260500Y-93803072D01*
X196260500Y-93803069D01*
X196260500Y-93802888D01*
X196260074Y-93800932D01*
X196248492Y-93742706D01*
X196247891Y-93736607D01*
X196247880Y-93736568D01*
X196246603Y-93731470D01*
X196239335Y-93720594D01*
X196239334Y-93720591D01*
X196239329Y-93720585D01*
X196231947Y-93709536D01*
X196231947Y-93709537D01*
X196191299Y-93648702D01*
X196191295Y-93648699D01*
X196159645Y-93627551D01*
X196133389Y-93603967D01*
X196124489Y-93593316D01*
X196096604Y-93529256D01*
X196097278Y-93525097D01*
X196107773Y-93460298D01*
X196110037Y-93455567D01*
X196146366Y-93413645D01*
X196146146Y-93413425D01*
X196149223Y-93410347D01*
X196153021Y-93405964D01*
X196154786Y-93404786D01*
X196206836Y-93326888D01*
X196212643Y-93297695D01*
X196220500Y-93258198D01*
X196220500Y-92841801D01*
X196220500Y-92841798D01*
X196209219Y-92785087D01*
X196209219Y-92785086D01*
X196206836Y-92773112D01*
X196200056Y-92762965D01*
X196200055Y-92762964D01*
X196154786Y-92695214D01*
X196096295Y-92656131D01*
X196076887Y-92643163D01*
X196076886Y-92643163D01*
X196076885Y-92643162D01*
X196076882Y-92643161D01*
X196025250Y-92632891D01*
X196008198Y-92629500D01*
X196008197Y-92629500D01*
X195691798Y-92629500D01*
X195623118Y-92643161D01*
X195623113Y-92643163D01*
X195623112Y-92643164D01*
X195618522Y-92646231D01*
X195545214Y-92695214D01*
X195493198Y-92773059D01*
X195493199Y-92773060D01*
X195493161Y-92773116D01*
X195479500Y-92841796D01*
X195479500Y-92841801D01*
X195479500Y-92841804D01*
X195479500Y-93258196D01*
X195479500Y-93258198D01*
X195479499Y-93258198D01*
X195493162Y-93326884D01*
X195493163Y-93326886D01*
X195493164Y-93326888D01*
X195500822Y-93338350D01*
X195500823Y-93338352D01*
X195545209Y-93404780D01*
X195545211Y-93404783D01*
X195545212Y-93404783D01*
X195545213Y-93404785D01*
X195545214Y-93404786D01*
X195546974Y-93405962D01*
X195555350Y-93411559D01*
X195555352Y-93411560D01*
X195581608Y-93435144D01*
X195590508Y-93445794D01*
X195618394Y-93509856D01*
X195607224Y-93578816D01*
X195604964Y-93583541D01*
X195561993Y-93633137D01*
X195538702Y-93648699D01*
X195483889Y-93730733D01*
X195483888Y-93730735D01*
X195483886Y-93730741D01*
X195469500Y-93803064D01*
X195469500Y-93803067D01*
X195469500Y-94196932D01*
X195469500Y-94196934D01*
X195469499Y-94196934D01*
X194950500Y-94196934D01*
X194950500Y-93796980D01*
X194950499Y-92840105D01*
X194950498Y-92840097D01*
X194944669Y-92810787D01*
X194922457Y-92777542D01*
X194911860Y-92770462D01*
X194893981Y-92758516D01*
X194870552Y-92738199D01*
X194869123Y-92736605D01*
X194865646Y-92732445D01*
X194864873Y-92731866D01*
X194860597Y-92727098D01*
X194847624Y-92699927D01*
X194832496Y-92673901D01*
X194832727Y-92668722D01*
X194830494Y-92664045D01*
X194834270Y-92634179D01*
X194835164Y-92614164D01*
X194833197Y-92613737D01*
X194833441Y-92612614D01*
X194835393Y-92609036D01*
X194835614Y-92604101D01*
X194835619Y-92604089D01*
X194837075Y-92599843D01*
X194838548Y-92600348D01*
X194839259Y-92594727D01*
X194850587Y-92581194D01*
X194866911Y-92551283D01*
X194866911Y-92551282D01*
X194998773Y-92419419D01*
X194998963Y-92419278D01*
X195027024Y-92398272D01*
X195050114Y-92385664D01*
X195109536Y-92370500D01*
X195378199Y-92370500D01*
X195434909Y-92359219D01*
X195446884Y-92356837D01*
X195446884Y-92356836D01*
X195446886Y-92356836D01*
X195446888Y-92356836D01*
X195446889Y-92356835D01*
X195452032Y-92355812D01*
X195462168Y-92346625D01*
X195524786Y-92304786D01*
X195576836Y-92226888D01*
X195578424Y-92218906D01*
X195585302Y-92184330D01*
X195590500Y-92158200D01*
X195590500Y-92055909D01*
X195595522Y-92020977D01*
X195597250Y-92015091D01*
X195599732Y-92006639D01*
X195637504Y-91947862D01*
X195697855Y-91919339D01*
X195703253Y-91918419D01*
X195756192Y-91920877D01*
X195815656Y-91936811D01*
X195907938Y-91936811D01*
X195907944Y-91936811D01*
X195907949Y-91936809D01*
X195909653Y-91936585D01*
X195913344Y-91936712D01*
X195915227Y-91935979D01*
X195950464Y-91937991D01*
X195956942Y-91939303D01*
X195990983Y-91952646D01*
X195991268Y-91952075D01*
X195993899Y-91953384D01*
X195995257Y-91954322D01*
X195996859Y-91954950D01*
X196000564Y-91957208D01*
X196000229Y-91957756D01*
X196003652Y-91960120D01*
X196004111Y-91959368D01*
X196009522Y-91962665D01*
X196032682Y-91980876D01*
X196555829Y-92504023D01*
X196576980Y-92532278D01*
X196584472Y-92545999D01*
X196599324Y-92614259D01*
X196599195Y-92616065D01*
X196579824Y-92674271D01*
X196574419Y-92682681D01*
X196565962Y-92694300D01*
X196565221Y-92695202D01*
X196513161Y-92773116D01*
X196499500Y-92841796D01*
X196499500Y-93213829D01*
X196494237Y-93231749D01*
X196513161Y-93326883D01*
X196513162Y-93326884D01*
X196513163Y-93326886D01*
X196513164Y-93326888D01*
X196565214Y-93404786D01*
X196628920Y-93447353D01*
X196632964Y-93450055D01*
X196632965Y-93450056D01*
X196643112Y-93456836D01*
X196643114Y-93456836D01*
X196643115Y-93456837D01*
X196655086Y-93459218D01*
X196655087Y-93459219D01*
X196711798Y-93470500D01*
X197028198Y-93470500D01*
X197028199Y-93470500D01*
X197084909Y-93459219D01*
X197084914Y-93459218D01*
X197096884Y-93456837D01*
X197096884Y-93456836D01*
X197096886Y-93456836D01*
X197096888Y-93456836D01*
X197096889Y-93456835D01*
X197102032Y-93455812D01*
X197112168Y-93446625D01*
X197174786Y-93404786D01*
X197226836Y-93326888D01*
X197232643Y-93297695D01*
X197240500Y-93258198D01*
X197240500Y-92841801D01*
X197240500Y-92841798D01*
X197229219Y-92785087D01*
X197229219Y-92785086D01*
X197226836Y-92773112D01*
X197220056Y-92762965D01*
X197220055Y-92762964D01*
X197174786Y-92695214D01*
X197147543Y-92677011D01*
X197126163Y-92662725D01*
X197126161Y-92662724D01*
X197103119Y-92647327D01*
X197103116Y-92647324D01*
X197080458Y-92627855D01*
X197067945Y-92614156D01*
X197037266Y-92551382D01*
X197035500Y-92530528D01*
X197035500Y-92525092D01*
X197035500Y-92525091D01*
X197008782Y-92460587D01*
X196959413Y-92411218D01*
X196952348Y-92404153D01*
X196952341Y-92404147D01*
X196598577Y-92050383D01*
X196261226Y-91713031D01*
X196261225Y-91713030D01*
X196261221Y-91713026D01*
X196240074Y-91684775D01*
X196227467Y-91661686D01*
X196212300Y-91602261D01*
X196212300Y-91540169D01*
X196212300Y-91540167D01*
X196188414Y-91451023D01*
X196188411Y-91451017D01*
X196142273Y-91371105D01*
X196142272Y-91371104D01*
X196142270Y-91371100D01*
X196078178Y-91307008D01*
X196077012Y-91305842D01*
X196077009Y-91305840D01*
X196077005Y-91305837D01*
X196010990Y-91267722D01*
X196010635Y-91267515D01*
X196010260Y-91267117D01*
X196004695Y-91262847D01*
X195998799Y-91260405D01*
X195995396Y-91258935D01*
X195994926Y-91258723D01*
X195993034Y-91258017D01*
X195989484Y-91256546D01*
X195981320Y-91255472D01*
X195978353Y-91254677D01*
X195907944Y-91235811D01*
X195907943Y-91235811D01*
X195815656Y-91235811D01*
X195733266Y-91257886D01*
X195733251Y-91257891D01*
X195726512Y-91259697D01*
X195726511Y-91259697D01*
X195726509Y-91259698D01*
X195726506Y-91259699D01*
X195723706Y-91261315D01*
X195723702Y-91261317D01*
X195646604Y-91305830D01*
X195646586Y-91305842D01*
X195581333Y-91371095D01*
X195581329Y-91371100D01*
X195581326Y-91371105D01*
X195581322Y-91371112D01*
X195533153Y-91454540D01*
X195532675Y-91454264D01*
X195522052Y-91470885D01*
X195511154Y-91484409D01*
X195453762Y-91524258D01*
X195453747Y-91524263D01*
X195446774Y-91526583D01*
X195383447Y-91530543D01*
X195378205Y-91529500D01*
X195378198Y-91529500D01*
X195378196Y-91529500D01*
X195061804Y-91529500D01*
X195061802Y-91529500D01*
X195061798Y-91529500D01*
X194993118Y-91543161D01*
X194993113Y-91543163D01*
X194993112Y-91543164D01*
X194969240Y-91559115D01*
X194915214Y-91595214D01*
X194863198Y-91673059D01*
X194863199Y-91673060D01*
X194863161Y-91673116D01*
X194849500Y-91741796D01*
X194849500Y-92003114D01*
X194845234Y-92035360D01*
X194844874Y-92036694D01*
X194840855Y-92050383D01*
X194839455Y-92056814D01*
X194838663Y-92059759D01*
X194821975Y-92087057D01*
X194806610Y-92115194D01*
X194794788Y-92127016D01*
X194766538Y-92148165D01*
X194756611Y-92153586D01*
X194688338Y-92168440D01*
X194622873Y-92144026D01*
X194581000Y-92088094D01*
X194578313Y-92080888D01*
X194570500Y-92037568D01*
X194570500Y-91741798D01*
X194559219Y-91685087D01*
X194559219Y-91685086D01*
X194556836Y-91673112D01*
X194550056Y-91662965D01*
X194550055Y-91662964D01*
X194516498Y-91612743D01*
X194504786Y-91595214D01*
X194445423Y-91555548D01*
X194429393Y-91542802D01*
X194423113Y-91536899D01*
X194421131Y-91533522D01*
X194419165Y-91531959D01*
X194416599Y-91528888D01*
X194417302Y-91528300D01*
X194406004Y-91516056D01*
X194405730Y-91516258D01*
X194403926Y-91513804D01*
X194403720Y-91513581D01*
X194403431Y-91513130D01*
X194403428Y-91513127D01*
X194403424Y-91513120D01*
X194401143Y-91510016D01*
X194401337Y-91509872D01*
X194401330Y-91509861D01*
X194401520Y-91509738D01*
X194402208Y-91509233D01*
X194397512Y-91498700D01*
X194386874Y-91486417D01*
X194376938Y-91452550D01*
X194376758Y-91451296D01*
X194375500Y-91433678D01*
X194375500Y-91369702D01*
X194380523Y-91334768D01*
X194390020Y-91302423D01*
X194394437Y-91289902D01*
X194398781Y-91279414D01*
X194398782Y-91279414D01*
X194425501Y-91214910D01*
X194425501Y-91145092D01*
X194425501Y-91135103D01*
X194425501Y-91132920D01*
X194425500Y-91132864D01*
X194425500Y-91121348D01*
X194430522Y-91086415D01*
X194430710Y-91085775D01*
X194436434Y-91066280D01*
X194466947Y-91014325D01*
X194471661Y-91009526D01*
X194491226Y-90993323D01*
X194522457Y-90972457D01*
X194536996Y-90950695D01*
X194560573Y-90924446D01*
X194571224Y-90915544D01*
X194635285Y-90887657D01*
X194704252Y-90898830D01*
X194708980Y-90901092D01*
X194758563Y-90944052D01*
X194758702Y-90944260D01*
X194758709Y-90944270D01*
X194765894Y-90955023D01*
X194777543Y-90972457D01*
X194810787Y-90994669D01*
X194810790Y-90994669D01*
X194810791Y-90994670D01*
X194814815Y-90995470D01*
X194822762Y-90997051D01*
X194822765Y-90997051D01*
X194840101Y-91000500D01*
X195259898Y-91000499D01*
X195289213Y-90994669D01*
X195322457Y-90972457D01*
X195344669Y-90939213D01*
X195350500Y-90909899D01*
X195350499Y-90090102D01*
X195344669Y-90060787D01*
X195344189Y-90059628D01*
X195341928Y-90048703D01*
X195343647Y-90047991D01*
X195338146Y-90030423D01*
X195336897Y-90024384D01*
X195339028Y-89998309D01*
X195338268Y-89968240D01*
X195341249Y-89956703D01*
X195341777Y-89954657D01*
X195354446Y-89923681D01*
X195376614Y-89885288D01*
X195400500Y-89796144D01*
X195400500Y-89703856D01*
X195376614Y-89614712D01*
X195376612Y-89614709D01*
X195365578Y-89595596D01*
X195330473Y-89534794D01*
X195330472Y-89534793D01*
X195330470Y-89534789D01*
X195266378Y-89470697D01*
X195265212Y-89469531D01*
X195265209Y-89469529D01*
X195265205Y-89469526D01*
X195199190Y-89431411D01*
X195198835Y-89431204D01*
X195198460Y-89430806D01*
X195192895Y-89426536D01*
X195186999Y-89424094D01*
X195183596Y-89422624D01*
X195183126Y-89422412D01*
X195181234Y-89421706D01*
X195177684Y-89420235D01*
X195169520Y-89419161D01*
X195122283Y-89406504D01*
X195096144Y-89399500D01*
X195096143Y-89399500D01*
X195003856Y-89399500D01*
X194921466Y-89421575D01*
X194921451Y-89421580D01*
X194914712Y-89423386D01*
X194914711Y-89423386D01*
X194914709Y-89423387D01*
X194914706Y-89423388D01*
X194911906Y-89425004D01*
X194911902Y-89425006D01*
X194834804Y-89469519D01*
X194834789Y-89469529D01*
X194769532Y-89534785D01*
X194769529Y-89534789D01*
X194769521Y-89534802D01*
X194766291Y-89540396D01*
X194746138Y-89566021D01*
X194744485Y-89568123D01*
X194738966Y-89573386D01*
X194734443Y-89577697D01*
X194672344Y-89609716D01*
X194602790Y-89603078D01*
X194602779Y-89603073D01*
X194601268Y-89602468D01*
X194553645Y-89568553D01*
X194550362Y-89564764D01*
X194536698Y-89545577D01*
X194533511Y-89540057D01*
X194533509Y-89540048D01*
X194533507Y-89540050D01*
X194530469Y-89534787D01*
X194466380Y-89470698D01*
X194466377Y-89470696D01*
X194465212Y-89469531D01*
X194465209Y-89469529D01*
X194465205Y-89469526D01*
X194399190Y-89431411D01*
X194398835Y-89431204D01*
X194398460Y-89430806D01*
X194392895Y-89426536D01*
X194386999Y-89424094D01*
X194383596Y-89422624D01*
X194383126Y-89422412D01*
X194381234Y-89421706D01*
X194377684Y-89420235D01*
X194369520Y-89419161D01*
X194322283Y-89406504D01*
X194296144Y-89399500D01*
X194296143Y-89399500D01*
X194203856Y-89399500D01*
X194121466Y-89421575D01*
X194121451Y-89421580D01*
X194114712Y-89423386D01*
X194114711Y-89423386D01*
X194114709Y-89423387D01*
X194114706Y-89423388D01*
X194111906Y-89425004D01*
X194111902Y-89425006D01*
X194034804Y-89469519D01*
X194034786Y-89469531D01*
X193969531Y-89534786D01*
X193969519Y-89534804D01*
X193925006Y-89611902D01*
X193925004Y-89611906D01*
X193923388Y-89614706D01*
X193923387Y-89614709D01*
X193923386Y-89614711D01*
X193923386Y-89614712D01*
X193921580Y-89621451D01*
X193921575Y-89621466D01*
X193900895Y-89698650D01*
X193899500Y-89703856D01*
X193899500Y-89796144D01*
X193923385Y-89885286D01*
X193923387Y-89885290D01*
X193923387Y-89885291D01*
X193945076Y-89922858D01*
X193945078Y-89922860D01*
X193945079Y-89922863D01*
X193945082Y-89922868D01*
X193956547Y-89951502D01*
X193958197Y-89955624D01*
X193962122Y-89971802D01*
X193959400Y-90039821D01*
X193949126Y-90071023D01*
X193950805Y-90082573D01*
X193949660Y-90089293D01*
X193949500Y-90090097D01*
X193949500Y-90909897D01*
X193949501Y-90909902D01*
X193955330Y-90939212D01*
X193955999Y-90940464D01*
X193956597Y-90941107D01*
X193977543Y-90972457D01*
X193999169Y-90986906D01*
X194009043Y-90997528D01*
X194009969Y-90999382D01*
X194013368Y-91002435D01*
X194023390Y-91014427D01*
X194051276Y-91078485D01*
X194052192Y-91085775D01*
X194043721Y-91148685D01*
X194024500Y-91195088D01*
X194024500Y-91424718D01*
X194024499Y-91424719D01*
X194024500Y-91424720D01*
X194019476Y-91459655D01*
X194013564Y-91479788D01*
X193983050Y-91531744D01*
X193978343Y-91536536D01*
X193958772Y-91552745D01*
X193895216Y-91595211D01*
X193895213Y-91595214D01*
X193843198Y-91673059D01*
X193843199Y-91673060D01*
X193843161Y-91673116D01*
X193829500Y-91741796D01*
X193829500Y-91741801D01*
X193829500Y-92158200D01*
X193839961Y-92210790D01*
X193840317Y-92212580D01*
X193842639Y-92232919D01*
X193842907Y-92241542D01*
X193841923Y-92245323D01*
X193842207Y-92247807D01*
X193841851Y-92251791D01*
X193840942Y-92251709D01*
X193840271Y-92268395D01*
X193840605Y-92268446D01*
X193840150Y-92271420D01*
X193840138Y-92271728D01*
X193840021Y-92272265D01*
X193839434Y-92276107D01*
X193838135Y-92275908D01*
X193834000Y-92286694D01*
X193832842Y-92302868D01*
X193815924Y-92333843D01*
X193815164Y-92334858D01*
X193803588Y-92348215D01*
X193766140Y-92385665D01*
X193756219Y-92395586D01*
X193756217Y-92395588D01*
X193513280Y-92638524D01*
X193436251Y-92715553D01*
X193415771Y-92730883D01*
X193407995Y-92736704D01*
X193394274Y-92744196D01*
X193326007Y-92759047D01*
X193326002Y-92759046D01*
X193326001Y-92759047D01*
X193325999Y-92759046D01*
X193305487Y-92757580D01*
X193290142Y-92755514D01*
X193259903Y-92749500D01*
X193259901Y-92749500D01*
X193259899Y-92749500D01*
X192792330Y-92749500D01*
X192792325Y-92749499D01*
X192792323Y-92749500D01*
X192757389Y-92744475D01*
X192742390Y-92740070D01*
X192683644Y-92702327D01*
X192683615Y-92702293D01*
X192683614Y-92702293D01*
X192683613Y-92702291D01*
X192682457Y-92700958D01*
X192654977Y-92646083D01*
X192653332Y-92638521D01*
X192650500Y-92612168D01*
X192650500Y-92368127D01*
X192651356Y-92362176D01*
X192655523Y-92333191D01*
X192655723Y-92332510D01*
X192664862Y-92301384D01*
X192680736Y-92267432D01*
X192716546Y-92213839D01*
X192730500Y-92143688D01*
X192730500Y-91756312D01*
X192730500Y-91756309D01*
X192730500Y-91756128D01*
X192730074Y-91754172D01*
X192718927Y-91698131D01*
X192718326Y-91692032D01*
X192718315Y-91691994D01*
X192717038Y-91686898D01*
X192715827Y-91685086D01*
X192663391Y-91606609D01*
X192583839Y-91553454D01*
X192583837Y-91553453D01*
X192583835Y-91553452D01*
X192560453Y-91548801D01*
X192513691Y-91539500D01*
X192513689Y-91539500D01*
X192513168Y-91539500D01*
X192513165Y-91539499D01*
X192513164Y-91539500D01*
X192512016Y-91539335D01*
X192507630Y-91538903D01*
X192507649Y-91538706D01*
X192478229Y-91534476D01*
X192464911Y-91530565D01*
X192406134Y-91492789D01*
X192377112Y-91429232D01*
X192375566Y-91418477D01*
X192375419Y-91387770D01*
X192375225Y-91387758D01*
X192375406Y-91385041D01*
X192375403Y-91384362D01*
X192375468Y-91383866D01*
X192375472Y-91383851D01*
X192375500Y-91383642D01*
X192375500Y-91291358D01*
X192375500Y-91291356D01*
X192351614Y-91202212D01*
X192351611Y-91202206D01*
X192305473Y-91122294D01*
X192305472Y-91122293D01*
X192305470Y-91122289D01*
X192241378Y-91058197D01*
X192240212Y-91057031D01*
X192240209Y-91057029D01*
X192240205Y-91057026D01*
X192174190Y-91018911D01*
X192173835Y-91018704D01*
X192173460Y-91018306D01*
X192167895Y-91014036D01*
X192161999Y-91011594D01*
X192158596Y-91010124D01*
X192158126Y-91009912D01*
X192156234Y-91009206D01*
X192152684Y-91007735D01*
X192144520Y-91006661D01*
X192121665Y-91000537D01*
X192071144Y-90987000D01*
X192071143Y-90987000D01*
X191978854Y-90987000D01*
X191912216Y-91004855D01*
X191892988Y-91008411D01*
X191864916Y-91011339D01*
X191796196Y-90998715D01*
X191747723Y-90955025D01*
X191745169Y-90951050D01*
X191725500Y-90884035D01*
X191725500Y-90791886D01*
X191730522Y-90756953D01*
X191737934Y-90731708D01*
X191769228Y-90678966D01*
X192048780Y-90399415D01*
X192048782Y-90399413D01*
X192075501Y-90334909D01*
X192075501Y-90265091D01*
X192075501Y-90255102D01*
X192075500Y-90255088D01*
X192075500Y-89591886D01*
X192080522Y-89556953D01*
X192080854Y-89555823D01*
X192087934Y-89531708D01*
X192119228Y-89478966D01*
X192311819Y-89286376D01*
X192501988Y-89096205D01*
X192530235Y-89075063D01*
X192543955Y-89067572D01*
X192612223Y-89052722D01*
X192619551Y-89053246D01*
X192679593Y-89073827D01*
X192700639Y-89087889D01*
X192705374Y-89091774D01*
X192705406Y-89091792D01*
X192709611Y-89094312D01*
X192710786Y-89094668D01*
X192710787Y-89094669D01*
X192710788Y-89094669D01*
X192716622Y-89096439D01*
X192716625Y-89096440D01*
X192716658Y-89096450D01*
X192722766Y-89097051D01*
X192740101Y-89100500D01*
X193559898Y-89100499D01*
X193589213Y-89094669D01*
X193622457Y-89072457D01*
X193644669Y-89039213D01*
X193650500Y-89009899D01*
X193650499Y-88590102D01*
X193644669Y-88560787D01*
X193622457Y-88527543D01*
X193622456Y-88527541D01*
X193600700Y-88513005D01*
X193600699Y-88513004D01*
X193600698Y-88513004D01*
X193574442Y-88489419D01*
X193565544Y-88478772D01*
X193537658Y-88414709D01*
X193548827Y-88345753D01*
X193551089Y-88341024D01*
X193594062Y-88291428D01*
X193622457Y-88272457D01*
X193644669Y-88239213D01*
X193650500Y-88209899D01*
X193650499Y-87790102D01*
X193644669Y-87760787D01*
X193622457Y-87727543D01*
X193622456Y-87727541D01*
X193600700Y-87713005D01*
X193600699Y-87713004D01*
X193600698Y-87713004D01*
X193574442Y-87689419D01*
X193565544Y-87678772D01*
X193537658Y-87614709D01*
X193548827Y-87545753D01*
X193551089Y-87541024D01*
X193594062Y-87491428D01*
X193622457Y-87472457D01*
X193644669Y-87439213D01*
X193650500Y-87409899D01*
X193650499Y-86990102D01*
X193644669Y-86960787D01*
X193644666Y-86960782D01*
X193622456Y-86927541D01*
X193600700Y-86913005D01*
X193600699Y-86913004D01*
X193600698Y-86913004D01*
X193574442Y-86889419D01*
X193565544Y-86878772D01*
X193537658Y-86814709D01*
X193548827Y-86745753D01*
X193551089Y-86741024D01*
X193594062Y-86691428D01*
X193622457Y-86672457D01*
X193644669Y-86639213D01*
X193650500Y-86609899D01*
X193650499Y-86190102D01*
X193644669Y-86160787D01*
X193630657Y-86139816D01*
X193622456Y-86127541D01*
X193600700Y-86113005D01*
X193600699Y-86113004D01*
X193600698Y-86113004D01*
X193574442Y-86089419D01*
X193565544Y-86078772D01*
X193537658Y-86014709D01*
X193548827Y-85945753D01*
X193551089Y-85941024D01*
X193594062Y-85891428D01*
X193622457Y-85872457D01*
X193644669Y-85839213D01*
X193650500Y-85809899D01*
X193650499Y-85390102D01*
X193644669Y-85360787D01*
X193642946Y-85358208D01*
X193627719Y-85326380D01*
X193625776Y-85320175D01*
X193623648Y-85313380D01*
X193622400Y-85243525D01*
X193659118Y-85184081D01*
X193714546Y-85155401D01*
X193722612Y-85153571D01*
X193750037Y-85150500D01*
X193796142Y-85150500D01*
X193796144Y-85150500D01*
X193885288Y-85126614D01*
X193965212Y-85080469D01*
X194030469Y-85015212D01*
X194076614Y-84935288D01*
X194100500Y-84846144D01*
X194100500Y-84753856D01*
X194076614Y-84664712D01*
X194076611Y-84664706D01*
X194030473Y-84584794D01*
X194030472Y-84584793D01*
X194030470Y-84584789D01*
X193966378Y-84520697D01*
X193965212Y-84519531D01*
X193965209Y-84519529D01*
X193965205Y-84519526D01*
X193899190Y-84481411D01*
X193898835Y-84481204D01*
X193898460Y-84480806D01*
X193892895Y-84476536D01*
X193886999Y-84474094D01*
X193883596Y-84472624D01*
X193883126Y-84472412D01*
X193881234Y-84471706D01*
X193877684Y-84470235D01*
X193869520Y-84469161D01*
X193861082Y-84466900D01*
X193796144Y-84449500D01*
X193796143Y-84449500D01*
X193753978Y-84449500D01*
X193753975Y-84449499D01*
X193753975Y-84449500D01*
X193719041Y-84444476D01*
X193705971Y-84440638D01*
X193647193Y-84402863D01*
X193618170Y-84339306D01*
X193625119Y-84277292D01*
X193628076Y-84269575D01*
X193640762Y-84245060D01*
X193644668Y-84239214D01*
X193644669Y-84239213D01*
X193650500Y-84209899D01*
X193650499Y-83790102D01*
X193644669Y-83760787D01*
X193622457Y-83727543D01*
X193622456Y-83727541D01*
X193600700Y-83713005D01*
X193600699Y-83713004D01*
X193600698Y-83713004D01*
X193574442Y-83689419D01*
X193565544Y-83678772D01*
X193537658Y-83614709D01*
X193548827Y-83545753D01*
X193551089Y-83541024D01*
X193594062Y-83491428D01*
X193622457Y-83472457D01*
X193644669Y-83439213D01*
X193650500Y-83409899D01*
X193650499Y-82990102D01*
X193644669Y-82960787D01*
X193628655Y-82936819D01*
X193623993Y-82929841D01*
X193621350Y-82921399D01*
X193589213Y-82905331D01*
X193589208Y-82905329D01*
X193589211Y-82905329D01*
X193567227Y-82900957D01*
X193559901Y-82899500D01*
X193559900Y-82899500D01*
X192843663Y-82899500D01*
X192843662Y-82899499D01*
X192843662Y-82899500D01*
X192808727Y-82894477D01*
X192783485Y-82887065D01*
X192730740Y-82855769D01*
X192154511Y-82279540D01*
X192154506Y-82279536D01*
X192128256Y-82264381D01*
X192128254Y-82264380D01*
X192107744Y-82252538D01*
X192100516Y-82248027D01*
X192066181Y-82224921D01*
X192026189Y-82180754D01*
X192019868Y-82168994D01*
X192019830Y-82168925D01*
X192019754Y-82168783D01*
X192015663Y-82161290D01*
X192000500Y-82101873D01*
X192000500Y-82055473D01*
X192005523Y-82020539D01*
X192012766Y-81995871D01*
X192036667Y-81958322D01*
X192034418Y-81956820D01*
X192065320Y-81910572D01*
X192096546Y-81863839D01*
X192096546Y-81863838D01*
X192096547Y-81863837D01*
X192096547Y-81863834D01*
X192107276Y-81809894D01*
X192110500Y-81793688D01*
X192110500Y-81466312D01*
X192110500Y-81466309D01*
X192110500Y-81466128D01*
X192110074Y-81464172D01*
X192098927Y-81408131D01*
X192098326Y-81402032D01*
X192098315Y-81401994D01*
X192097038Y-81396898D01*
X192092499Y-81390105D01*
X192043391Y-81316609D01*
X191963839Y-81263454D01*
X191963837Y-81263453D01*
X191963835Y-81263452D01*
X191940453Y-81258801D01*
X191893691Y-81249500D01*
X191893689Y-81249500D01*
X191506310Y-81249500D01*
X191506309Y-81249500D01*
X191492358Y-81252274D01*
X191436166Y-81263451D01*
X191436161Y-81263453D01*
X191356609Y-81316609D01*
X191303453Y-81396161D01*
X191303452Y-81396165D01*
X191289500Y-81466305D01*
X191289500Y-81793696D01*
X191298686Y-81839880D01*
X191298688Y-81839885D01*
X191303452Y-81863834D01*
X191303453Y-81863837D01*
X191303453Y-81863838D01*
X191303454Y-81863839D01*
X191317020Y-81884143D01*
X191317022Y-81884146D01*
X191356607Y-81943389D01*
X191358132Y-81945247D01*
X191371105Y-81964477D01*
X191377884Y-81976890D01*
X191379813Y-81979892D01*
X191399500Y-82046931D01*
X191399500Y-82077670D01*
X191399499Y-82077676D01*
X191399500Y-82077679D01*
X191394475Y-82112614D01*
X191390070Y-82127612D01*
X191352327Y-82186355D01*
X191352292Y-82186385D01*
X191352291Y-82186387D01*
X191352289Y-82186387D01*
X191350958Y-82187542D01*
X191296097Y-82215018D01*
X191288539Y-82216663D01*
X191262168Y-82219500D01*
X191140438Y-82219500D01*
X191102224Y-82229739D01*
X191102221Y-82229739D01*
X191064010Y-82239978D01*
X191063939Y-82240008D01*
X191063130Y-82240485D01*
X190995508Y-82279526D01*
X190995497Y-82279533D01*
X190995495Y-82279535D01*
X190995487Y-82279541D01*
X190995483Y-82279544D01*
X190995481Y-82279545D01*
X190524788Y-82750239D01*
X190503985Y-82765813D01*
X190496538Y-82771388D01*
X190486611Y-82776809D01*
X190418338Y-82791663D01*
X190352873Y-82767249D01*
X190311000Y-82711317D01*
X190308313Y-82704111D01*
X190300500Y-82660791D01*
X190300500Y-80442329D01*
X190305523Y-80407393D01*
X190309927Y-80392395D01*
X190319557Y-80377404D01*
X190324567Y-80360324D01*
X190347672Y-80333644D01*
X190349041Y-80332457D01*
X190403920Y-80304977D01*
X190411479Y-80303333D01*
X190437832Y-80300500D01*
X207357670Y-80300500D01*
X207392606Y-80305523D01*
G37*
%TD.AperFunction*%
%TA.AperFunction,Conductor*%
G36*
X192656363Y-99477971D02*
G01*
X192714560Y-99497337D01*
X192721078Y-99501526D01*
X192741713Y-99518156D01*
X193072970Y-99849413D01*
X193122339Y-99898782D01*
X193186843Y-99925500D01*
X193225200Y-99925500D01*
X193257492Y-99929778D01*
X193258810Y-99930133D01*
X193266526Y-99932399D01*
X193267686Y-99932527D01*
X193273108Y-99933990D01*
X193299575Y-99950183D01*
X193320956Y-99961411D01*
X193321885Y-99960267D01*
X193326101Y-99963688D01*
X193326103Y-99963690D01*
X193330598Y-99967337D01*
X193354950Y-99994055D01*
X193355446Y-99994551D01*
X193355447Y-99994552D01*
X193375485Y-100007941D01*
X193425395Y-100041291D01*
X193435646Y-100047769D01*
X193437744Y-100049319D01*
X193443516Y-100053970D01*
X193444887Y-100054596D01*
X193450848Y-100059000D01*
X193468974Y-100082898D01*
X193489020Y-100105212D01*
X193489868Y-100110443D01*
X193493072Y-100114668D01*
X193495400Y-100144574D01*
X193500200Y-100174182D01*
X193498384Y-100182898D01*
X193498496Y-100184327D01*
X193497828Y-100185567D01*
X193496137Y-100193691D01*
X193495066Y-100197336D01*
X193473197Y-100231360D01*
X193465399Y-100245860D01*
X193463037Y-100247168D01*
X193457309Y-100256082D01*
X193452327Y-100260400D01*
X193392333Y-100288321D01*
X193392365Y-100288452D01*
X193391710Y-100288611D01*
X193390511Y-100289170D01*
X193387413Y-100289660D01*
X193387404Y-100289662D01*
X193387401Y-100289663D01*
X193387396Y-100289664D01*
X193387394Y-100289665D01*
X193381270Y-100294115D01*
X193351020Y-100310235D01*
X193350508Y-100310422D01*
X193340572Y-100313967D01*
X193339855Y-100314322D01*
X193336017Y-100315728D01*
X193304428Y-100317795D01*
X193277633Y-100320919D01*
X193277497Y-100322152D01*
X193272538Y-100321602D01*
X193271870Y-100321408D01*
X193270289Y-100321138D01*
X193270319Y-100320957D01*
X193267710Y-100320199D01*
X193266297Y-100320292D01*
X193264385Y-100319233D01*
X193254135Y-100316255D01*
X193253935Y-100317113D01*
X193253618Y-100317039D01*
X193237716Y-100311484D01*
X193231704Y-100309738D01*
X193229182Y-100308504D01*
X193228684Y-100308330D01*
X193221888Y-100305107D01*
X193160004Y-100285000D01*
X193160001Y-100285000D01*
X192739991Y-100285000D01*
X192739988Y-100285000D01*
X192713585Y-100288377D01*
X192713576Y-100288378D01*
X192713559Y-100288382D01*
X192663593Y-100301373D01*
X192663579Y-100301377D01*
X192663567Y-100301383D01*
X192626572Y-100322560D01*
X192626570Y-100322560D01*
X192626569Y-100322562D01*
X192593757Y-100335556D01*
X192580258Y-100338778D01*
X192510480Y-100335193D01*
X192453732Y-100294470D01*
X192452657Y-100293093D01*
X192428593Y-100240012D01*
X192427694Y-100235297D01*
X192425500Y-100212073D01*
X192425500Y-99709346D01*
X192429763Y-99677110D01*
X192430121Y-99675778D01*
X192434144Y-99662078D01*
X192435550Y-99655611D01*
X192436331Y-99652714D01*
X192453032Y-99625386D01*
X192468379Y-99597277D01*
X192544321Y-99521335D01*
X192572571Y-99500187D01*
X192586295Y-99492693D01*
X192654553Y-99477842D01*
X192656363Y-99477971D01*
G37*
%TD.AperFunction*%
%TA.AperFunction,Conductor*%
G36*
X194637221Y-95335575D02*
G01*
X194697264Y-95356156D01*
X194762964Y-95400055D01*
X194762965Y-95400056D01*
X194773112Y-95406836D01*
X194773114Y-95406836D01*
X194773115Y-95406837D01*
X194785086Y-95409218D01*
X194785087Y-95409219D01*
X194841798Y-95420500D01*
X194841801Y-95420500D01*
X194841804Y-95420500D01*
X195258194Y-95420500D01*
X195258195Y-95420500D01*
X195258196Y-95420500D01*
X195258825Y-95420374D01*
X195260232Y-95420299D01*
X195264254Y-95419903D01*
X195264271Y-95420082D01*
X195294059Y-95418485D01*
X195307890Y-95419722D01*
X195372907Y-95445304D01*
X195413770Y-95501967D01*
X195416220Y-95508910D01*
X195417434Y-95512349D01*
X195424500Y-95553610D01*
X195424500Y-96629865D01*
X195419476Y-96664802D01*
X195412064Y-96690043D01*
X195380769Y-96742787D01*
X194399790Y-97723766D01*
X194373049Y-97744077D01*
X194372225Y-97744541D01*
X194367749Y-97746986D01*
X194367478Y-97747220D01*
X194362078Y-97750268D01*
X194333442Y-97756917D01*
X194305544Y-97766198D01*
X194299797Y-97764730D01*
X194294020Y-97766072D01*
X194266334Y-97756183D01*
X194237847Y-97748908D01*
X194233803Y-97744564D01*
X194228221Y-97742571D01*
X194210314Y-97719333D01*
X194198275Y-97706401D01*
X194196069Y-97707819D01*
X194195166Y-97706413D01*
X194193729Y-97701519D01*
X194190259Y-97697791D01*
X194189525Y-97696325D01*
X194191732Y-97695219D01*
X194185573Y-97687227D01*
X194183942Y-97668167D01*
X194175501Y-97639404D01*
X194175501Y-97605102D01*
X194175500Y-97605088D01*
X194175500Y-97312941D01*
X194176020Y-97309327D01*
X194180523Y-97278005D01*
X194186118Y-97258951D01*
X194207882Y-97225084D01*
X194205196Y-97223290D01*
X194210004Y-97216093D01*
X194224660Y-97198072D01*
X194231290Y-97191323D01*
X194234868Y-97178935D01*
X194236328Y-97176696D01*
X194244669Y-97164213D01*
X194250500Y-97134899D01*
X194250499Y-96265102D01*
X194244669Y-96235787D01*
X194241743Y-96231407D01*
X194223993Y-96204841D01*
X194221350Y-96196399D01*
X194189213Y-96180331D01*
X194189208Y-96180329D01*
X194189211Y-96180329D01*
X194167227Y-96175957D01*
X194159901Y-96174500D01*
X194159900Y-96174500D01*
X193840101Y-96174500D01*
X193840090Y-96174502D01*
X193810789Y-96180329D01*
X193810787Y-96180329D01*
X193810787Y-96180330D01*
X193799657Y-96187765D01*
X193777541Y-96202542D01*
X193755333Y-96235782D01*
X193755331Y-96235788D01*
X193755329Y-96235791D01*
X193749500Y-96265098D01*
X193749500Y-97134894D01*
X193749501Y-97134902D01*
X193752746Y-97151217D01*
X193755330Y-97164213D01*
X193777542Y-97197456D01*
X193780470Y-97201024D01*
X193787080Y-97209850D01*
X193788015Y-97211222D01*
X193796559Y-97224515D01*
X193799356Y-97227860D01*
X193802781Y-97232885D01*
X193810683Y-97257328D01*
X193823051Y-97285038D01*
X193823232Y-97286294D01*
X193824139Y-97298950D01*
X193824274Y-97299367D01*
X193824191Y-97299678D01*
X193824500Y-97303981D01*
X193824500Y-97377804D01*
X193819474Y-97412749D01*
X193815636Y-97425816D01*
X193808062Y-97437598D01*
X193804964Y-97451259D01*
X193789544Y-97466407D01*
X193777857Y-97484591D01*
X193765114Y-97490408D01*
X193755123Y-97500225D01*
X193733961Y-97504632D01*
X193714299Y-97513610D01*
X193699057Y-97511902D01*
X193686721Y-97514472D01*
X193652301Y-97506665D01*
X193648498Y-97505208D01*
X193644582Y-97503707D01*
X193620056Y-97491017D01*
X193577636Y-97462673D01*
X193577633Y-97462670D01*
X193577633Y-97462671D01*
X193573989Y-97460236D01*
X193567647Y-97455030D01*
X193560027Y-97451875D01*
X193551864Y-97451071D01*
X193493691Y-97439500D01*
X193493690Y-97439500D01*
X193392330Y-97439500D01*
X193392325Y-97439499D01*
X193392323Y-97439500D01*
X193357389Y-97434475D01*
X193342390Y-97430070D01*
X193283644Y-97392327D01*
X193283615Y-97392293D01*
X193283614Y-97392293D01*
X193283613Y-97392291D01*
X193282457Y-97390958D01*
X193254977Y-97336083D01*
X193253332Y-97328521D01*
X193250500Y-97302168D01*
X193250500Y-96582670D01*
X193250499Y-96582628D01*
X193250499Y-96265109D01*
X193250499Y-96265102D01*
X193250498Y-96265097D01*
X193244669Y-96235787D01*
X193231837Y-96216581D01*
X193223994Y-96204842D01*
X193221133Y-96196291D01*
X193189213Y-96180331D01*
X193189208Y-96180329D01*
X193189211Y-96180329D01*
X193167227Y-96175957D01*
X193159901Y-96174500D01*
X193159900Y-96174500D01*
X192840101Y-96174500D01*
X192840090Y-96174502D01*
X192810789Y-96180329D01*
X192810787Y-96180329D01*
X192810787Y-96180330D01*
X192799657Y-96187765D01*
X192777541Y-96202542D01*
X192755333Y-96235782D01*
X192755331Y-96235788D01*
X192755329Y-96235791D01*
X192749500Y-96265098D01*
X192749500Y-97569829D01*
X192787636Y-97661897D01*
X192900574Y-97774835D01*
X192921723Y-97803086D01*
X192934331Y-97826175D01*
X192949500Y-97885604D01*
X192949500Y-98043696D01*
X192963448Y-98113822D01*
X192963451Y-98113831D01*
X192963452Y-98113834D01*
X192963453Y-98113837D01*
X192963454Y-98113839D01*
X193016609Y-98193391D01*
X193063624Y-98224805D01*
X193073353Y-98232018D01*
X193110403Y-98262399D01*
X193149761Y-98320129D01*
X193151659Y-98389970D01*
X193150278Y-98395200D01*
X193118077Y-98451189D01*
X192249788Y-99319478D01*
X192221538Y-99340627D01*
X192211611Y-99346048D01*
X192194180Y-99349840D01*
X192178524Y-99358387D01*
X192160749Y-99357113D01*
X192143338Y-99360902D01*
X192126626Y-99354669D01*
X192108832Y-99353395D01*
X192094568Y-99342714D01*
X192077873Y-99336488D01*
X192067181Y-99322207D01*
X192052904Y-99311516D01*
X192036010Y-99280569D01*
X192036000Y-99280556D01*
X192033313Y-99273350D01*
X192025500Y-99230030D01*
X192025500Y-95846848D01*
X192030521Y-95811921D01*
X192033707Y-95801068D01*
X192071477Y-95742287D01*
X192135031Y-95713258D01*
X192204186Y-95723196D01*
X192206318Y-95724169D01*
X192257912Y-95768077D01*
X192277542Y-95797457D01*
X192277543Y-95797458D01*
X192294212Y-95808595D01*
X192294216Y-95808597D01*
X192294219Y-95808599D01*
X192300636Y-95812886D01*
X192305376Y-95816777D01*
X192305408Y-95816794D01*
X192309607Y-95819311D01*
X192316620Y-95821438D01*
X192316622Y-95821439D01*
X192316658Y-95821450D01*
X192322766Y-95822051D01*
X192340101Y-95825500D01*
X192659898Y-95825499D01*
X192689213Y-95819669D01*
X192689214Y-95819667D01*
X192690457Y-95819152D01*
X192701286Y-95816904D01*
X192701969Y-95818553D01*
X192718887Y-95813252D01*
X192724897Y-95812005D01*
X192753837Y-95814353D01*
X192782875Y-95813830D01*
X192798244Y-95818043D01*
X192798244Y-95818042D01*
X192824225Y-95825165D01*
X192830750Y-95824048D01*
X192839762Y-95825467D01*
X192840096Y-95825499D01*
X192840101Y-95825500D01*
X193159898Y-95825499D01*
X193159952Y-95825488D01*
X193159979Y-95825490D01*
X193165956Y-95824902D01*
X193166067Y-95826034D01*
X193175419Y-95826870D01*
X193201968Y-95818552D01*
X193201969Y-95818553D01*
X193213021Y-95815089D01*
X193282875Y-95813830D01*
X193298244Y-95818043D01*
X193298244Y-95818042D01*
X193322299Y-95824637D01*
X193327064Y-95823674D01*
X193328855Y-95824372D01*
X193330750Y-95824048D01*
X193339762Y-95825467D01*
X193340096Y-95825499D01*
X193340101Y-95825500D01*
X193659898Y-95825499D01*
X193689213Y-95819669D01*
X193689214Y-95819667D01*
X193690457Y-95819152D01*
X193701286Y-95816904D01*
X193701969Y-95818553D01*
X193718887Y-95813252D01*
X193724897Y-95812005D01*
X193753837Y-95814353D01*
X193782875Y-95813830D01*
X193798244Y-95818043D01*
X193798244Y-95818042D01*
X193824225Y-95825165D01*
X193830750Y-95824048D01*
X193839762Y-95825467D01*
X193840096Y-95825499D01*
X193840101Y-95825500D01*
X194159898Y-95825499D01*
X194189213Y-95819669D01*
X194222457Y-95797457D01*
X194244669Y-95764213D01*
X194246336Y-95755833D01*
X194250500Y-95734901D01*
X194250500Y-95617329D01*
X194251876Y-95607762D01*
X194255523Y-95582393D01*
X194256724Y-95578305D01*
X194259927Y-95567394D01*
X194297672Y-95508644D01*
X194297700Y-95508619D01*
X194297699Y-95508619D01*
X194299041Y-95507456D01*
X194353920Y-95479977D01*
X194361479Y-95478333D01*
X194381467Y-95476184D01*
X194384905Y-95475500D01*
X194384907Y-95475500D01*
X194384909Y-95475500D01*
X194449413Y-95448782D01*
X194519659Y-95378534D01*
X194547900Y-95357395D01*
X194561625Y-95349900D01*
X194629893Y-95335051D01*
X194637221Y-95335575D01*
G37*
%TD.AperFunction*%
%TA.AperFunction,Conductor*%
G36*
X195407451Y-97368414D02*
G01*
X195412182Y-97371955D01*
X195445616Y-97409838D01*
X195460648Y-97436220D01*
X195467100Y-97445081D01*
X195491273Y-97486951D01*
X195491280Y-97486960D01*
X195491282Y-97486963D01*
X195556540Y-97552221D01*
X195558112Y-97553192D01*
X195558144Y-97553211D01*
X195564788Y-97557318D01*
X195567403Y-97558493D01*
X195636458Y-97598363D01*
X195636459Y-97598363D01*
X195636464Y-97598366D01*
X195725608Y-97622252D01*
X195725610Y-97622252D01*
X195817894Y-97622252D01*
X195817896Y-97622252D01*
X195907040Y-97598366D01*
X195907040Y-97598365D01*
X195907334Y-97598287D01*
X195926160Y-97594774D01*
X195943697Y-97592888D01*
X196012456Y-97605294D01*
X196061258Y-97649126D01*
X196063810Y-97653097D01*
X196083499Y-97720131D01*
X196083499Y-97799113D01*
X196078475Y-97834050D01*
X196071063Y-97859291D01*
X196039768Y-97912035D01*
X195826231Y-98125573D01*
X195802647Y-98143228D01*
X195797980Y-98146722D01*
X195774892Y-98159330D01*
X195715462Y-98174500D01*
X194762639Y-98174500D01*
X194727704Y-98169477D01*
X194716850Y-98166290D01*
X194658072Y-98128516D01*
X194629047Y-98064960D01*
X194638987Y-97995811D01*
X194642177Y-97988824D01*
X194667286Y-97952660D01*
X195096560Y-97523386D01*
X195233292Y-97386652D01*
X195261539Y-97365507D01*
X195273721Y-97358855D01*
X195341992Y-97344003D01*
X195407451Y-97368414D01*
G37*
%TD.AperFunction*%
%TA.AperFunction,Conductor*%
G36*
X205600088Y-89226193D02*
G01*
X205602361Y-89226730D01*
X205661532Y-89259727D01*
X205675573Y-89273768D01*
X205696723Y-89302020D01*
X205709331Y-89325109D01*
X205724500Y-89384538D01*
X205724500Y-90424859D01*
X205726809Y-90430433D01*
X205737834Y-90457050D01*
X205751218Y-90489362D01*
X205818023Y-90556167D01*
X205818029Y-90556172D01*
X205825662Y-90563805D01*
X206025573Y-90763716D01*
X206046723Y-90791968D01*
X206059331Y-90815057D01*
X206074500Y-90874486D01*
X206074500Y-91559112D01*
X206074499Y-91559114D01*
X206074500Y-91559115D01*
X206069568Y-91593413D01*
X206069476Y-91594050D01*
X206066289Y-91604903D01*
X206028514Y-91663680D01*
X205964957Y-91692703D01*
X205895805Y-91682761D01*
X205888825Y-91679573D01*
X205852655Y-91654460D01*
X205724413Y-91526218D01*
X205719681Y-91524258D01*
X205659909Y-91499500D01*
X205659908Y-91499500D01*
X205066886Y-91499500D01*
X205066885Y-91499499D01*
X205066885Y-91499500D01*
X205031950Y-91494477D01*
X205006708Y-91487065D01*
X204953963Y-91455769D01*
X204599426Y-91101231D01*
X204578274Y-91072975D01*
X204565667Y-91049886D01*
X204550500Y-90990461D01*
X204550500Y-90066883D01*
X204554763Y-90034647D01*
X204555121Y-90033315D01*
X204559144Y-90019615D01*
X204560550Y-90013148D01*
X204561331Y-90010251D01*
X204578032Y-89982923D01*
X204593379Y-89954814D01*
X204598771Y-89949422D01*
X204627021Y-89928274D01*
X204650113Y-89915666D01*
X204709538Y-89900499D01*
X205359895Y-89900499D01*
X205359898Y-89900499D01*
X205389213Y-89894669D01*
X205422457Y-89872457D01*
X205444669Y-89839213D01*
X205450500Y-89809899D01*
X205450499Y-89390102D01*
X205448951Y-89382322D01*
X205447064Y-89347070D01*
X205448073Y-89335807D01*
X205454598Y-89319225D01*
X205456186Y-89301477D01*
X205467127Y-89287390D01*
X205473660Y-89270791D01*
X205488115Y-89260368D01*
X205499046Y-89246297D01*
X205515865Y-89240362D01*
X205530336Y-89229930D01*
X205548135Y-89228976D01*
X205564935Y-89223049D01*
X205600088Y-89226193D01*
G37*
%TD.AperFunction*%
%TA.AperFunction,Conductor*%
G36*
X191350632Y-82848938D02*
G01*
X191410681Y-82869521D01*
X191436160Y-82886546D01*
X191441974Y-82888309D01*
X191441976Y-82888310D01*
X191441994Y-82888315D01*
X191442035Y-82888327D01*
X191448140Y-82888929D01*
X191461339Y-82891554D01*
X191498667Y-82898979D01*
X191501401Y-82899703D01*
X191506309Y-82900500D01*
X191506310Y-82900500D01*
X191856337Y-82900500D01*
X191883013Y-82904335D01*
X191891269Y-82905521D01*
X191916513Y-82912934D01*
X191969259Y-82944230D01*
X192465541Y-83440512D01*
X192466056Y-83440890D01*
X192468666Y-83442295D01*
X192534004Y-83480017D01*
X192534011Y-83480021D01*
X192587638Y-83494390D01*
X192589827Y-83495072D01*
X192590464Y-83495183D01*
X192618261Y-83503345D01*
X192618261Y-83503347D01*
X192636527Y-83508710D01*
X192695300Y-83546484D01*
X192724324Y-83610040D01*
X192723236Y-83617602D01*
X192723991Y-83619539D01*
X192720425Y-83637155D01*
X192714381Y-83679194D01*
X192713243Y-83681686D01*
X192710724Y-83685082D01*
X192710130Y-83688020D01*
X192703437Y-83694909D01*
X192682494Y-83723153D01*
X192677706Y-83727377D01*
X192677544Y-83727539D01*
X192655334Y-83760781D01*
X192655328Y-83760791D01*
X192651768Y-83778693D01*
X192649500Y-83790098D01*
X192649500Y-84209894D01*
X192649501Y-84209902D01*
X192651148Y-84218183D01*
X192655330Y-84239213D01*
X192655331Y-84239214D01*
X192666957Y-84256613D01*
X192677543Y-84272457D01*
X192708676Y-84293258D01*
X192716769Y-84301113D01*
X192718575Y-84304307D01*
X192725550Y-84310571D01*
X192734451Y-84321222D01*
X192762340Y-84385283D01*
X192751168Y-84454253D01*
X192751157Y-84454276D01*
X192748896Y-84459000D01*
X192705938Y-84508569D01*
X192677542Y-84527542D01*
X192655705Y-84560225D01*
X192648974Y-84566849D01*
X192646473Y-84572355D01*
X192628500Y-84586999D01*
X192619845Y-84595519D01*
X192616465Y-84597699D01*
X192614191Y-84598968D01*
X192613140Y-84599846D01*
X192607882Y-84603240D01*
X192602432Y-84604851D01*
X192565937Y-84620447D01*
X192559003Y-84621892D01*
X192533706Y-84624500D01*
X191715091Y-84624500D01*
X191650586Y-84651218D01*
X191601217Y-84700588D01*
X190772940Y-85528863D01*
X190772939Y-85528864D01*
X190744684Y-85550015D01*
X190730963Y-85557507D01*
X190662703Y-85572359D01*
X190660897Y-85572230D01*
X190602698Y-85552864D01*
X190596187Y-85548679D01*
X190575541Y-85532041D01*
X190574038Y-85530538D01*
X190574034Y-85530535D01*
X190426553Y-85431990D01*
X190426552Y-85431989D01*
X190426550Y-85431988D01*
X190426548Y-85431987D01*
X190420016Y-85429281D01*
X190393510Y-85418302D01*
X190363164Y-85400295D01*
X190350990Y-85390485D01*
X190311146Y-85333096D01*
X190306844Y-85320171D01*
X190300500Y-85281017D01*
X190300500Y-84640906D01*
X190305523Y-84605970D01*
X190309927Y-84590972D01*
X190319565Y-84575973D01*
X190324586Y-84558873D01*
X190347697Y-84532199D01*
X190353076Y-84527538D01*
X190357989Y-84523279D01*
X190367761Y-84517244D01*
X190368536Y-84516210D01*
X190380066Y-84509644D01*
X190391758Y-84502422D01*
X190395393Y-84500917D01*
X190426547Y-84488013D01*
X190574035Y-84389464D01*
X190699464Y-84264035D01*
X190798013Y-84116547D01*
X190865894Y-83952666D01*
X190900500Y-83778691D01*
X190900500Y-83601309D01*
X190900500Y-83601306D01*
X190900500Y-83601122D01*
X190900064Y-83599117D01*
X190894867Y-83572989D01*
X190865896Y-83427341D01*
X190865894Y-83427338D01*
X190865894Y-83427334D01*
X190864819Y-83424740D01*
X190861275Y-83416170D01*
X190861250Y-83416123D01*
X190855138Y-83401368D01*
X190846411Y-83367169D01*
X190844741Y-83351630D01*
X190857148Y-83282875D01*
X190863243Y-83270698D01*
X190886442Y-83238526D01*
X191233064Y-82891904D01*
X191261315Y-82870756D01*
X191275038Y-82863263D01*
X191343303Y-82848414D01*
X191350632Y-82848938D01*
G37*
%TD.AperFunction*%
%TD*%
M02*
