%TF.GenerationSoftware,KiCad,Pcbnew,10.0.3-10.0.3~ubuntu24.04.1*%
%TF.CreationDate,2026-06-03T11:59:13-07:00*%
%TF.ProjectId,ESP32-C6,45535033-322d-4433-962e-6b696361645f,rev?*%
%TF.SameCoordinates,Original*%
%TF.FileFunction,Soldermask,Top*%
%TF.FilePolarity,Negative*%
%FSLAX46Y46*%
G04 Gerber Fmt 4.6, Leading zero omitted, Abs format (unit mm)*
G04 Created by KiCad (PCBNEW 10.0.3-10.0.3~ubuntu24.04.1) date 2026-06-03 11:59:13*
%MOMM*%
%LPD*%
G01*
G04 APERTURE LIST*
G04 Aperture macros list*
%AMRoundRect*
0 Rectangle with rounded corners*
0 $1 Rounding radius*
0 $2 $3 $4 $5 $6 $7 $8 $9 X,Y pos of 4 corners*
0 Add a 4 corners polygon primitive as box body*
4,1,4,$2,$3,$4,$5,$6,$7,$8,$9,$2,$3,0*
0 Add four circle primitives for the rounded corners*
1,1,$1+$1,$2,$3*
1,1,$1+$1,$4,$5*
1,1,$1+$1,$6,$7*
1,1,$1+$1,$8,$9*
0 Add four rect primitives between the rounded corners*
20,1,$1+$1,$2,$3,$4,$5,0*
20,1,$1+$1,$4,$5,$6,$7,0*
20,1,$1+$1,$6,$7,$8,$9,0*
20,1,$1+$1,$8,$9,$2,$3,0*%
%AMOutline5P*
0 Free polygon, 5 corners , with rotation*
0 The origin of the aperture is its center*
0 number of corners: always 5*
0 $1 to $10 corner X, Y*
0 $11 Rotation angle, in degrees counterclockwise*
0 create outline with 5 corners*
4,1,5,$1,$2,$3,$4,$5,$6,$7,$8,$9,$10,$1,$2,$11*%
%AMOutline6P*
0 Free polygon, 6 corners , with rotation*
0 The origin of the aperture is its center*
0 number of corners: always 6*
0 $1 to $12 corner X, Y*
0 $13 Rotation angle, in degrees counterclockwise*
0 create outline with 6 corners*
4,1,6,$1,$2,$3,$4,$5,$6,$7,$8,$9,$10,$11,$12,$1,$2,$13*%
%AMOutline7P*
0 Free polygon, 7 corners , with rotation*
0 The origin of the aperture is its center*
0 number of corners: always 7*
0 $1 to $14 corner X, Y*
0 $15 Rotation angle, in degrees counterclockwise*
0 create outline with 7 corners*
4,1,7,$1,$2,$3,$4,$5,$6,$7,$8,$9,$10,$11,$12,$13,$14,$1,$2,$15*%
%AMOutline8P*
0 Free polygon, 8 corners , with rotation*
0 The origin of the aperture is its center*
0 number of corners: always 8*
0 $1 to $16 corner X, Y*
0 $17 Rotation angle, in degrees counterclockwise*
0 create outline with 8 corners*
4,1,8,$1,$2,$3,$4,$5,$6,$7,$8,$9,$10,$11,$12,$13,$14,$15,$16,$1,$2,$17*%
%AMFreePoly0*
4,1,10,0.210000,0.050000,0.050000,-0.110000,-0.160000,-0.110000,-0.195000,-0.095000,-0.210000,-0.060000,-0.210000,0.060000,-0.195000,0.095000,-0.160000,0.110000,0.210000,0.110000,0.210000,0.050000,0.210000,0.050000,$1*%
%AMFreePoly1*
4,1,10,0.210000,-0.050000,0.210000,-0.110000,-0.160000,-0.110000,-0.195000,-0.095000,-0.210000,-0.060000,-0.210000,0.060000,-0.195000,0.095000,-0.160000,0.110000,0.050000,0.110000,0.210000,-0.050000,0.210000,-0.050000,$1*%
%AMFreePoly2*
4,1,10,0.195000,0.095000,0.210000,0.060000,0.210000,-0.060000,0.195000,-0.095000,0.160000,-0.110000,-0.050000,-0.110000,-0.210000,0.050000,-0.210000,0.110000,0.160000,0.110000,0.195000,0.095000,0.195000,0.095000,$1*%
%AMFreePoly3*
4,1,12,0.260000,0.029000,0.071000,-0.160000,-0.160000,-0.160000,-0.210000,-0.147000,-0.247000,-0.110000,-0.260000,-0.060000,-0.260000,0.060000,-0.247000,0.110000,-0.210000,0.147000,-0.160000,0.160000,0.260000,0.160000,0.260000,0.029000,0.260000,0.029000,$1*%
%AMFreePoly4*
4,1,12,0.260000,-0.029000,0.260000,-0.160000,-0.160000,-0.160000,-0.210000,-0.147000,-0.247000,-0.110000,-0.260000,-0.060000,-0.260000,0.060000,-0.247000,0.110000,-0.210000,0.147000,-0.160000,0.160000,0.071000,0.160000,0.260000,-0.029000,0.260000,-0.029000,$1*%
%AMFreePoly5*
4,1,12,0.210000,0.147000,0.247000,0.110000,0.260000,0.060000,0.260000,-0.060000,0.247000,-0.110000,0.210000,-0.147000,0.160000,-0.160000,-0.260000,-0.160000,-0.260000,-0.029000,-0.071000,0.160000,0.160000,0.160000,0.210000,0.147000,0.210000,0.147000,$1*%
%AMFreePoly6*
4,1,12,0.210000,0.147000,0.247000,0.110000,0.260000,0.060000,0.260000,-0.060000,0.247000,-0.110000,0.210000,-0.147000,0.160000,-0.160000,-0.071000,-0.160000,-0.260000,0.029000,-0.260000,0.160000,0.160000,0.160000,0.210000,0.147000,0.210000,0.147000,$1*%
G04 Aperture macros list end*
%ADD10C,0.100000*%
%ADD11C,0.000000*%
%ADD12R,1.500000X1.500000*%
%ADD13R,0.355600X0.381000*%
%ADD14R,0.381000X0.355600*%
%ADD15RoundRect,0.147500X0.172500X-0.147500X0.172500X0.147500X-0.172500X0.147500X-0.172500X-0.147500X0*%
%ADD16RoundRect,0.135000X-0.185000X0.135000X-0.185000X-0.135000X0.185000X-0.135000X0.185000X0.135000X0*%
%ADD17R,0.320000X0.510000*%
%ADD18R,0.300000X0.850000*%
%ADD19R,0.750000X0.200000*%
%ADD20R,1.000000X1.600000*%
%ADD21RoundRect,0.140000X-0.140000X-0.170000X0.140000X-0.170000X0.140000X0.170000X-0.140000X0.170000X0*%
%ADD22R,1.600000X1.600000*%
%ADD23C,1.600000*%
%ADD24RoundRect,0.135000X-0.135000X-0.185000X0.135000X-0.185000X0.135000X0.185000X-0.135000X0.185000X0*%
%ADD25R,0.300000X0.700000*%
%ADD26R,1.380000X0.800000*%
%ADD27RoundRect,0.135000X0.135000X0.185000X-0.135000X0.185000X-0.135000X-0.185000X0.135000X-0.185000X0*%
%ADD28RoundRect,0.140000X0.140000X0.170000X-0.140000X0.170000X-0.140000X-0.170000X0.140000X-0.170000X0*%
%ADD29R,0.800000X0.400000*%
%ADD30R,0.400000X0.800000*%
%ADD31Outline5P,-0.725000X0.130500X-0.130500X0.725000X0.725000X0.725000X0.725000X-0.725000X-0.725000X-0.725000X0.000000*%
%ADD32R,1.450000X1.450000*%
%ADD33R,0.700000X0.700000*%
%ADD34RoundRect,0.147500X0.147500X0.172500X-0.147500X0.172500X-0.147500X-0.172500X0.147500X-0.172500X0*%
%ADD35RoundRect,0.147500X-0.172500X0.147500X-0.172500X-0.147500X0.172500X-0.147500X0.172500X0.147500X0*%
%ADD36RoundRect,0.135000X0.185000X-0.135000X0.185000X0.135000X-0.185000X0.135000X-0.185000X-0.135000X0*%
%ADD37RoundRect,0.140000X0.170000X-0.140000X0.170000X0.140000X-0.170000X0.140000X-0.170000X-0.140000X0*%
%ADD38R,0.800000X1.400000*%
%ADD39C,0.650000*%
%ADD40RoundRect,0.150000X-0.150000X-0.425000X0.150000X-0.425000X0.150000X0.425000X-0.150000X0.425000X0*%
%ADD41RoundRect,0.075000X-0.075000X-0.500000X0.075000X-0.500000X0.075000X0.500000X-0.075000X0.500000X0*%
%ADD42O,1.000000X2.100000*%
%ADD43O,1.000000X1.800000*%
%ADD44RoundRect,0.100000X-0.130000X-0.100000X0.130000X-0.100000X0.130000X0.100000X-0.130000X0.100000X0*%
%ADD45RoundRect,0.140000X-0.170000X0.140000X-0.170000X-0.140000X0.170000X-0.140000X0.170000X0.140000X0*%
%ADD46RoundRect,0.062500X0.117500X0.062500X-0.117500X0.062500X-0.117500X-0.062500X0.117500X-0.062500X0*%
%ADD47FreePoly0,0.000000*%
%ADD48FreePoly1,0.000000*%
%ADD49FreePoly2,0.000000*%
%ADD50FreePoly3,0.000000*%
%ADD51FreePoly4,0.000000*%
%ADD52RoundRect,0.071429X0.000000X-0.075761X0.075761X0.000000X0.000000X0.075761X-0.075761X0.000000X0*%
%ADD53FreePoly5,0.000000*%
%ADD54FreePoly6,0.000000*%
G04 APERTURE END LIST*
D10*
X197500000Y-92300000D02*
X198900000Y-92300000D01*
X198900000Y-93700000D01*
X197500000Y-93700000D01*
X197500000Y-92300000D01*
G36*
X198900000Y-93700000D02*
G01*
X197500000Y-93700000D01*
X197500000Y-92300000D01*
X198900000Y-92300000D01*
X198900000Y-93700000D01*
G37*
D11*
G36*
X205500000Y-99000000D02*
G01*
X205200000Y-99300000D01*
X204100000Y-99300000D01*
X204100000Y-98800000D01*
X205500000Y-98800000D01*
X205500000Y-99000000D01*
G37*
D12*
%TO.C,TP1*%
X201300000Y-93000000D03*
%TD*%
D13*
%TO.C,U2*%
X196361799Y-97876400D03*
X196861800Y-97876400D03*
X197361800Y-97876400D03*
X197861801Y-97876400D03*
D14*
X197950000Y-97288200D03*
X197950000Y-96788200D03*
D13*
X197861801Y-96200000D03*
X197361800Y-96200000D03*
X196861800Y-96200000D03*
X196361799Y-96200000D03*
D14*
X196273600Y-96788200D03*
X196273600Y-97288200D03*
%TD*%
D15*
%TO.C,D5*%
X205850000Y-105500000D03*
X205850000Y-104530000D03*
%TD*%
D16*
%TO.C,R3*%
X205000000Y-100080000D03*
X205000000Y-101100000D03*
%TD*%
D17*
%TO.C,D9*%
X198700000Y-101000000D03*
X198700000Y-100000000D03*
%TD*%
D16*
%TO.C,R2*%
X204000000Y-100080000D03*
X204000000Y-101100000D03*
%TD*%
%TO.C,R17*%
X191700000Y-86940000D03*
X191700000Y-87960000D03*
%TD*%
D18*
%TO.C,IC1*%
X192500000Y-96700000D03*
X193000000Y-96700000D03*
X193500000Y-96700000D03*
X194000000Y-96700000D03*
X194000000Y-95300000D03*
X193500000Y-95300000D03*
X193000000Y-95300000D03*
X192500000Y-95300000D03*
%TD*%
D19*
%TO.C,IC2*%
X202900000Y-96900000D03*
X202900000Y-97300000D03*
X202900000Y-97700000D03*
X202900000Y-98100000D03*
X202900000Y-98500000D03*
X205100000Y-98500000D03*
X205100000Y-98100000D03*
X205100000Y-97700000D03*
X205100000Y-97300000D03*
X205100000Y-96900000D03*
D20*
X204000000Y-97700000D03*
%TD*%
D21*
%TO.C,C15*%
X203050000Y-95600000D03*
X204010000Y-95600000D03*
%TD*%
D22*
%TO.C,J1*%
X207800000Y-81150000D03*
D23*
X207800000Y-83690000D03*
X207800000Y-86230000D03*
X207800000Y-88770000D03*
X207800000Y-91310000D03*
X207800000Y-93850000D03*
X207800000Y-96390000D03*
X207800000Y-98930000D03*
X207800000Y-101470000D03*
X207800000Y-104010000D03*
X207800000Y-106550000D03*
X207800000Y-109090000D03*
%TD*%
D21*
%TO.C,C1*%
X202070000Y-100050000D03*
X203030000Y-100050000D03*
%TD*%
D24*
%TO.C,R14*%
X204740000Y-107100000D03*
X205760000Y-107100000D03*
%TD*%
D16*
%TO.C,R1*%
X195050000Y-95050000D03*
X195050000Y-96070000D03*
%TD*%
D25*
%TO.C,U3*%
X203250000Y-94630000D03*
X203750000Y-94630000D03*
X204250000Y-94630000D03*
X204750000Y-94630000D03*
X204750000Y-92650000D03*
X204250000Y-92650000D03*
X203750000Y-92650000D03*
X203250000Y-92650000D03*
D26*
X204000000Y-93640000D03*
%TD*%
D12*
%TO.C,TP3*%
X195950000Y-100200000D03*
%TD*%
D27*
%TO.C,R7*%
X196870000Y-93050000D03*
X195850000Y-93050000D03*
%TD*%
D28*
%TO.C,C2*%
X193330000Y-97850000D03*
X192370000Y-97850000D03*
%TD*%
D29*
%TO.C,U1*%
X193150000Y-81600000D03*
X193150000Y-82400000D03*
X193150000Y-83200000D03*
X193150000Y-84000000D03*
X193150000Y-84800000D03*
X193150000Y-85600000D03*
X193150000Y-86400000D03*
X193150000Y-87200000D03*
X193150000Y-88000000D03*
X193150000Y-88800000D03*
X193150000Y-89600000D03*
D30*
X194250000Y-90500000D03*
X195050000Y-90500000D03*
X195850000Y-90500000D03*
X196650000Y-90500000D03*
X197450000Y-90500000D03*
X198250000Y-90500000D03*
X199050000Y-90500000D03*
X199850000Y-90500000D03*
X200650000Y-90500000D03*
X201450000Y-90500000D03*
X202250000Y-90500000D03*
X203050000Y-90500000D03*
X203850000Y-90500000D03*
D29*
X204950000Y-89600000D03*
X204950000Y-88800000D03*
X204950000Y-88000000D03*
X204950000Y-87200000D03*
X204950000Y-86400000D03*
X204950000Y-85600000D03*
X204950000Y-84800000D03*
X204950000Y-84000000D03*
X204950000Y-83200000D03*
X204950000Y-82400000D03*
X204950000Y-81600000D03*
D30*
X203850000Y-80700000D03*
X203050000Y-80700000D03*
X202250000Y-80700000D03*
X201450000Y-80700000D03*
X200650000Y-80700000D03*
X199850000Y-80700000D03*
X199050000Y-80700000D03*
X198250000Y-80700000D03*
X197450000Y-80700000D03*
X196650000Y-80700000D03*
X195850000Y-80700000D03*
X195050000Y-80700000D03*
X194250000Y-80700000D03*
D31*
X197075000Y-83625000D03*
D32*
X197075000Y-85600000D03*
X197075000Y-87575000D03*
X199050000Y-83625000D03*
X199050000Y-85600000D03*
X199050000Y-87575000D03*
X201025000Y-83625000D03*
X201025000Y-85600000D03*
X201025000Y-87575000D03*
D33*
X205000000Y-80650000D03*
X205000000Y-90550000D03*
X193100000Y-90550000D03*
X193100000Y-80650000D03*
%TD*%
D21*
%TO.C,C10*%
X196370000Y-95100000D03*
X197330000Y-95100000D03*
%TD*%
D34*
%TO.C,D7*%
X196835000Y-94000000D03*
X195865000Y-94000000D03*
%TD*%
D24*
%TO.C,R16*%
X204740000Y-108500000D03*
X205760000Y-108500000D03*
%TD*%
D35*
%TO.C,D3*%
X205835000Y-102115000D03*
X205835000Y-103085000D03*
%TD*%
D36*
%TO.C,R5*%
X201000000Y-101010000D03*
X201000000Y-99990000D03*
%TD*%
D28*
%TO.C,C6*%
X201980000Y-95600000D03*
X201020000Y-95600000D03*
%TD*%
D21*
%TO.C,C5*%
X192350000Y-91950000D03*
X193310000Y-91950000D03*
%TD*%
D28*
%TO.C,C8*%
X205860000Y-95900000D03*
X204900000Y-95900000D03*
%TD*%
D21*
%TO.C,C9*%
X191920000Y-102300000D03*
X192880000Y-102300000D03*
%TD*%
D37*
%TO.C,C3*%
X191700000Y-81630000D03*
X191700000Y-80670000D03*
%TD*%
D38*
%TO.C,L1*%
X194450000Y-93550000D03*
X192850000Y-93550000D03*
%TD*%
D16*
%TO.C,R10*%
X204835000Y-102115000D03*
X204835000Y-103135000D03*
%TD*%
D39*
%TO.C,J2*%
X195960000Y-103720000D03*
X201740000Y-103720000D03*
D40*
X195650000Y-102645000D03*
X196450000Y-102645000D03*
D41*
X197600000Y-102645000D03*
X198600000Y-102645000D03*
X199100000Y-102645000D03*
X200100000Y-102645000D03*
D40*
X201250000Y-102645000D03*
X202050000Y-102645000D03*
X202050000Y-102645000D03*
X201250000Y-102645000D03*
D41*
X200600000Y-102645000D03*
X199600000Y-102645000D03*
X198100000Y-102645000D03*
X197100000Y-102645000D03*
D40*
X196450000Y-102645000D03*
X195650000Y-102645000D03*
D42*
X194530000Y-103220000D03*
D43*
X194530000Y-107400000D03*
D42*
X203170000Y-103220000D03*
D43*
X203170000Y-107400000D03*
%TD*%
D44*
%TO.C,C14*%
X193630000Y-99750000D03*
X194270000Y-99750000D03*
%TD*%
D45*
%TO.C,C4*%
X191700000Y-82520000D03*
X191700000Y-83480000D03*
%TD*%
D27*
%TO.C,R13*%
X195220000Y-91950000D03*
X194200000Y-91950000D03*
%TD*%
D36*
%TO.C,R4*%
X197700000Y-101010000D03*
X197700000Y-99990000D03*
%TD*%
D28*
%TO.C,C7*%
X201960000Y-94650000D03*
X201000000Y-94650000D03*
%TD*%
D16*
%TO.C,R6*%
X204800000Y-104515000D03*
X204800000Y-105535000D03*
%TD*%
D17*
%TO.C,D8*%
X200000000Y-101000000D03*
X200000000Y-100000000D03*
%TD*%
D27*
%TO.C,R8*%
X201500000Y-98550000D03*
X200480000Y-98550000D03*
%TD*%
D46*
%TO.C,D1*%
X202070000Y-101000000D03*
X202910000Y-101000000D03*
%TD*%
D27*
%TO.C,R9*%
X201510000Y-96550000D03*
X200490000Y-96550000D03*
%TD*%
D34*
%TO.C,D2*%
X201470000Y-97550000D03*
X200500000Y-97550000D03*
%TD*%
D47*
%TO.C,U5*%
X192900000Y-100550000D03*
D48*
X192900000Y-101030000D03*
D49*
X193680000Y-100550000D03*
D50*
X192900000Y-100550000D03*
D51*
X192900000Y-101030000D03*
D52*
X193290000Y-100790000D03*
D53*
X193680000Y-101030000D03*
D54*
X193680000Y-100550000D03*
%TD*%
D22*
%TO.C,J4*%
X190000000Y-81150000D03*
D23*
X190000000Y-83690000D03*
X190000000Y-86230000D03*
X190000000Y-88770000D03*
X190000000Y-91310000D03*
X190000000Y-93850000D03*
X190000000Y-96390000D03*
X190000000Y-98930000D03*
X190000000Y-101470000D03*
X190000000Y-104010000D03*
X190000000Y-106550000D03*
X190000000Y-109090000D03*
%TD*%
M02*
